<?xml version="1.0" encoding="UTF-8" standalone="no"?>
<svg
   version="1.1"
   id="Layer_1"
   x="0px"
   y="0px"
   viewBox="0 0 1920 1920"
   enable-background="new 0 0 1920 1920"
   xml:space="preserve"
   sodipodi:docname="button_flower.svg"
   inkscape:version="1.2.2 (b0a8486541, 2022-12-01)"
   xmlns:inkscape="http://www.inkscape.org/namespaces/inkscape"
   xmlns:sodipodi="http://sodipodi.sourceforge.net/DTD/sodipodi-0.dtd"
   xmlns="http://www.w3.org/2000/svg"
   xmlns:svg="http://www.w3.org/2000/svg"><defs
   id="defs267" /><sodipodi:namedview
   id="namedview265"
   pagecolor="#ffffff"
   bordercolor="#cccccc"
   borderopacity="1"
   inkscape:showpageshadow="0"
   inkscape:pageopacity="1"
   inkscape:pagecheckerboard="0"
   inkscape:deskcolor="#d1d1d1"
   showgrid="false"
   inkscape:zoom="0.14399935"
   inkscape:cx="2750.0124"
   inkscape:cy="833.3371"
   inkscape:window-width="1920"
   inkscape:window-height="1011"
   inkscape:window-x="0"
   inkscape:window-y="0"
   inkscape:window-maximized="1"
   inkscape:current-layer="g262" />
<g
   id="g262">
	
	
	
	
	
	
	
	
	
	
	
	
	
	
	
	
	
	
	
	
	
	<g
   id="g682"
   transform="matrix(5.0013465,0,0,5.001318,-11888.87,-3683.2045)"
   style="stroke-width:0.199946"><path
     fill="#d23f69"
     stroke="#d23f69"
     stroke-width="0.018755"
     stroke-miterlimit="10.43"
     d="m 2491.9516,749.32092 c 41.78,-10.98 86.65,-2.28 124.64,17.0099 34.6699,17.69 64.47,44.26 87.2799,75.69 0.8201,1.16 1.4901,2.45 2.19201,3.77 -30.9301,-22.45 -65.54,-40.92 -103.17,-48.91 -23.3201,-4.86 -47.84,-5.19201 -70.92,1.17 -30.96,8.32 -58.24,27.98 -77.87,53.07 -12.7,16.38 -21.65,35.63 -26.0499,55.88 -5.42,24.32 -4.4301,49.73 0.6399,74.02 4.79,22.25998 12.77,43.78998 23.15,64.02998 -4.36,-3.22 -7.24,-8.03 -10.71,-12.12 -26.21,-33.77998 -44.23,-74.32998 -49.36,-116.91998 -4.39,-36.5 1.0499,-75.12 20.27,-106.91 17.44,-29.4199 46.84,-51.3699 79.98,-59.7799 z"
     id="path32" /><path
     fill="#d23f69"
     stroke="#d23f69"
     stroke-width="0.018755"
     stroke-miterlimit="10.43"
     d="m 2510.0316,822.19092 c 19.23,-10.06 41.35,-13.35 62.86,-12.58 13.8301,0.56 27.75,1.88 41.23,5.13 -21.6599,4.82 -43.1399,11.28 -62.7799,21.77 -19.9701,10.6201 -37.9601,25.4901 -50.79,44.23 -12.45,19.38 -17.3199,43.43 -14.03,66.18 2.0701,14.27 7.8101,28.2 17.61,38.91 11.26,12.8 24.9301,23.83998 40.8201,30.29998 11.9199,4.8301 25.47,6.35 37.95,2.75 17.1901,-5.25 32.9,-14.71 46.27,-26.65998 11.78,-10.14 21.6801,-22.18 32.6801,-33.11 -7.24,15.17 -15.38,29.96 -24.8101,43.89998 -11.1899,16.2001 -24.73,31.4301 -42.1799,41.02 -16.77,9.35 -36.5701,11.86 -55.4901,10.34 -22.6299,-2.0199 -44.7599,-11.6799 -60.6299,-28.11 -10.92,-11.1 -18.53,-25.1 -23.0801,-39.91998 -7.74,-23.19 -12.21,-48.08 -8.41,-72.47 2.8401,-19.53 10.9501,-38.04 22.13,-54.22 10.3898,-15.39 24.0398,-28.91 40.6498,-37.46 z"
     id="path36" /><path
     fill="#d23f69"
     stroke="#d23f69"
     stroke-width="0.018755"
     stroke-miterlimit="10.43"
     d="m 2541.7116,852.88092 c 15.9299,-15.4 37.11,-25.2 59.13,-27.56 34.9299,-4.16 71.96,10.1 93.9299,37.81 12.39,15.77 18.35,36.03 18.0601,55.97 0.26,20.51 -4.5701,40.87 -12.12,59.85 -8.7001,20.9 -22.7001,39.26008 -39.3,54.52998 -11.9299,10.8201 -24.6,20.9301 -38.1899,29.5801 22.26,-29.88 44.1699,-61.29 54.1599,-97.66998 3.5601,-12.8199 5.51,-26.0699 5.9401,-39.36 0.2,-10.36 0.02,-21.01 -3.54,-30.87 -2.86,-8 -8.1899,-14.85 -14.26,-20.67 -12.47,-12.23 -27.9099,-22.5 -45.59,-24.7 -13.3199,-1.35 -27.27,-0.88 -39.72,4.54 -14.02,5.86 -25.12,16.69 -35.26,27.71 -6.0801,7.02 -9.77,15.79 -12.4501,24.59 -3.62,13.19 -5.75,27.42 -1.99,40.83 4.0701,12.09 11.5,23.79 23.01,29.96 7.52,4.09 16.05,5.87 24.49,6.85 6.7201,0.68 13.4801,-2.25 18.13,-7.05 7.42,-7.17 11.62,-16.84 15.48,-26.23 -7.35,5.04 -14.35,10.79 -22.6599,14.22 -6.7101,2.99 -14.4301,4.38 -21.6,2.32 -8.39,-2.64 -14.9401,-9.41 -18.8101,-17.14 -5.39,-10.5099 -6.16,-22.78 -4.65,-34.3199 2.4501,-18.32 13.3401,-35.05 28.42,-45.54 15.1799,-10.77 35.49,-14.14 53.12,-7.83 13.28,4.8701 25.41,13.9301 32.51,26.33 6.54,11.39 7.61,25.28 4.6799,37.94 -3.87,16.66 -13.2899,31.57 -24.8899,43.94 -13.3701,13.88 -30.04,25.01 -48.77,30.04998 -15.54,4.31 -32.9,3.28 -47.02,-4.88998 -14.01,-8.15 -24.59,-21.6801 -30.3101,-36.7401 -6.95,-20.6 -3.8999,-43.2599 3.3401,-63.35 5.87,-15.9501 14.61,-31.0801 26.73,-43.1001 z"
     id="path38" /><path
     fill="#d23f69"
     stroke="#d23f69"
     stroke-width="0.018755"
     stroke-miterlimit="10.43"
     d="m 2717.9716,923.92092 c 16.0599,6.29 24.83,23.02 28.14,39.09 4.58,22.6201 3.0699,46.59998 -4.8201,68.33008 -11.03,30.83 -34.89,57.0399 -65.03,70.0499 -31.3099,13.41 -66.88,14.3 -99.8099,6.91 -7.4,-1.42 -14.11,-5.22 -19.88,-9.96 -6.1801,-5.17 -12.36,-10.3501 -18.96,-14.9701 -4.9601,-3.9199 -10.67,-7.6899 -13.38,-13.6 23.6699,9.0801 49.48,12.13 74.6799,9.92 26.9401,-2.42 54.76,-10.8301 74.61,-30.02 11.4401,-11.79 21.26,-25.13 29.98,-39.04 10.1001,-16.69998 18.6901,-34.98998 20.55,-54.64998 1.1501,-11.0099 -1.0999,-22.2099 -6.0799,-32.0599 z"
     id="path44" /></g>
	
	
	
	
	
	
	
	
	
	
	
	
	
	
	
	
	
	
	
	
	
	
	
	
	
	
	
	
	
	
	
	
	
	
	
	
	
	
	
	
	
	
	
	
	
	
	
	
	
	
	
	
	
	
	
	
	
	
	
	
	
	
	
	
	
	
	
	
	
	
	
	
	
	
	
	
	
	
	
	
	
	
	
	
	
	
	
	
	
	
	
	
	
	
	
	
	
	
	
	
	
	
	
	
	
	
	
	
</g>
</svg>
