<svg width="679" height="482" viewBox="0 0 679 482" fill="none" xmlns="http://www.w3.org/2000/svg">
<path d="M2 480C2 216.008 216.008 2 480 2H677C677 265.992 462.992 480 199 480H2Z" fill="#F64C72" fill-opacity="0.79"/>
<path d="M2 2H199C462.992 2 677 216.008 677 480H480C216.008 480 2 265.992 2 2Z" fill="#997383" fill-opacity="0.65"/>
<rect x="2" y="2" width="675" height="478" fill="#553D67" fill-opacity="0.6"/>
<rect x="2" y="2" width="675" height="478" fill="black" fill-opacity="0.3"/>
<rect x="2" y="2" width="675" height="478" stroke="#E97D95" stroke-opacity="0.51" stroke-width="4"/>
<circle cx="339.5" cy="441.5" r="7.5" fill="#AE93C1"/>
<circle cx="595.5" cy="241.5" r="7.5" fill="#F64C72" fill-opacity="0.79"/>
<circle cx="339.5" cy="39.5" r="7.5" fill="#FFB4AB" fill-opacity="0.6"/>
<circle cx="83.5" cy="241.5" r="7.5" fill="#916EAB"/>
<g clip-path="url(#clip0_633_3)">
<path d="M478.415 122C476.756 124.085 474.749 125.846 472.718 127.526C470.513 129.47 473.659 133.551 475.913 132.027C478.49 129.374 478.118 125.393 478.638 122H478.415ZM467.119 136.062C463.007 139.812 456.765 140.154 453.074 144.409C448.764 149.451 456.641 157.626 461.917 154.138C467.219 150.026 466.178 141.512 467.119 136.062ZM441.655 142.918C441.63 142.921 441.555 142.946 441.456 142.997C436.923 144.799 432.39 146.54 427.882 148.371C425.727 149.263 423.299 151.822 424.488 154.257C426.098 155.78 428.625 153.967 429.591 152.488C432.514 148.587 436.973 146.489 440.862 143.767C440.862 143.871 441.952 142.892 441.655 142.918ZM443.389 150.625C439.252 152.387 434.991 153.94 431.077 156.154C425.231 161.483 431.474 170.39 437.889 171.341C442.571 171.213 444.701 165.865 444.602 161.832C444.28 158.243 444.578 153.412 443.389 150.625ZM471.009 155.599C467.367 157.435 461.67 157.76 460.976 162.657C465.955 164.928 470.563 159.625 471.009 155.599ZM419.212 159.57C418.642 159.558 418.097 159.62 417.527 159.761C415.471 159.917 412.35 160.943 412.476 163.427C413.358 166.197 416.636 164.785 418.518 164.247C421.54 163.115 424.488 164.74 426.024 167.309C426.569 163.286 423.101 159.652 419.212 159.57ZM456.641 164.091C453.322 164.728 449.557 165.458 447.525 168.475C445.544 171.198 443.413 173.942 440.044 174.938C441.506 178.473 446.113 182.196 449.928 179.573C454.957 176.35 455.576 168.939 456.641 164.091ZM425.628 171.701L424.686 171.728C419.782 173.125 420.648 179.233 419.781 183.152C424.884 181.854 426.024 176.271 425.628 171.701ZM432.712 173.204C429.492 175.02 428.996 179.704 428.402 183.08C432.167 181.807 433.753 176.367 432.712 173.204ZM436.7 179.902C436.502 179.907 436.279 179.937 436.056 179.991C433.059 181.852 432.886 186.033 432.365 189.224C435.115 187.435 437.79 185.394 440.664 183.734C440.243 181.953 438.682 179.843 436.7 179.902Z" fill="#FFB4AB"/>
<path d="M413.936 177.732C413.812 177.735 413.684 177.752 413.555 177.794C411.974 178.163 410.666 179.221 409.413 180.194C401.164 187.304 394.082 195.941 389.717 205.981C382.717 221.245 380.921 238.297 380.795 254.914C373.029 254.822 368.595 262.838 363.183 267.215C367.176 268.813 372.665 268.468 376.249 265.647C378.456 264.227 379.636 261.324 381.657 260.051C384.186 281.978 381.954 304.109 378.85 325.86C379.254 325.828 380.178 325.318 379.078 326.385C376.945 329.804 375.377 333.844 375.895 337.938C384.984 327.408 393.869 316.707 402.413 305.734C395.028 311.164 387.421 316.474 381.253 323.326C383.74 317.252 384.327 310.628 384.949 304.158C386.202 288.473 385.878 272.422 390.238 257.222C390.498 257.066 390.85 256.766 391.102 257.103C394.154 259.774 396.153 264.047 395.075 268.126C394.315 271.376 393.829 275.521 396.507 278.037C402.12 274.621 403.812 266.378 400.394 260.864C398.477 257.569 394.731 255.726 390.996 255.525C390.381 246.313 394.88 237.43 397.664 228.733C402.361 214.995 412.291 203.006 424.984 195.929C425.108 193.387 421.962 193.779 420.402 194.663C415.299 197.427 411.137 201.646 407.174 205.805C407.142 206.144 405.462 207.423 405.95 206.35C409.398 200.36 413.282 194.589 416.711 188.577C414.506 189.526 412.351 190.853 411.04 192.924C401.727 206.791 394.112 221.961 389.921 238.186C388.184 245.753 388.848 254.205 386.071 261.267C382.514 244.693 384.662 226.853 391.578 211.326C396.614 199.216 405.774 189.578 414.778 180.308C416.017 179.503 415.15 177.732 413.936 177.732ZM416.512 264.671C416.24 264.666 415.943 264.728 415.571 264.867C412.472 265.778 410.478 268.726 409.064 271.468C411.756 271.022 414.803 271.032 416.958 269.107C417.924 267.819 418.37 264.691 416.512 264.671ZM441.804 274.661C442.844 284.983 433.778 291.518 429.096 299.556C433.035 297.24 436.825 294.691 440.615 292.149C445.074 287.512 443.216 279.68 441.804 274.661ZM433.208 276.108C433.06 276.113 432.911 276.145 432.738 276.214C419.584 281.609 411.598 294.032 403.277 304.862C414.605 297.094 422.903 285.756 434.571 278.426C435.339 277.465 434.323 276.073 433.208 276.108ZM437.568 306.972C436.651 306.962 435.76 307.032 434.942 307.111C423.498 309.142 413.215 315.144 403.381 321.074C399.418 323.789 394.949 326.318 392.165 330.319C398.759 329.264 405.504 328.659 412.034 327.512C410.035 324.726 406.18 325.172 403.203 324.674C405.076 321.555 408.549 319.838 411.727 318.322C421.194 314.062 431.449 312.033 441.531 309.861C442.052 309.635 442.497 309.328 442.894 308.934C441.606 307.396 439.55 306.992 437.568 306.972ZM345.905 312.105C344.924 312.154 346.209 313.631 346.896 313.968C355.657 318.862 363.46 325.563 369.234 333.802C370.547 334.22 372.556 333.519 371.786 331.706C370.53 327.493 366.893 324.525 363.804 321.622C358.781 317.379 353.232 312.313 346.286 312.137C346.133 312.107 346.006 312.097 345.905 312.105ZM375.675 338.397C366.321 348.615 359.35 360.81 349.752 370.824C327.054 392.425 301.153 410.83 273.147 424.85C272.679 425.816 274.499 425.866 275.148 426.262H276.912C283.675 424.949 289.664 421.283 295.5 417.79C312.885 406.742 329.33 394.233 344.825 380.708C351.513 375.283 355.996 367.83 362.117 361.86C365.662 356.923 369.224 351.996 372.776 347.067C373.25 346.398 374.027 345.949 374.855 345.984C377.699 349.727 377.721 354.832 380.609 358.575C383.971 362.816 389.016 366.465 394.649 366.413C393.26 361.293 391.511 356.098 389.267 351.226C387.206 346.611 383.091 342.454 377.763 342.291C375.729 342.432 376.695 339.18 375.675 338.397Z" fill="#F64C72"/>
<path d="M477.251 185.382C476.855 185.374 476.483 185.394 476.087 185.439C474.204 185.726 472.644 187.257 471.95 188.983C471.554 190.715 473.585 191.778 473.734 193.452C473.783 195.342 473.139 197.153 472.842 199.006C478.738 192.543 488.175 193.383 495.582 196.365C496.796 191.485 490.578 188.349 486.64 190.556C484.286 187.837 480.942 185.449 477.251 185.382ZM455.948 187.071C455.552 187.074 455.13 187.108 454.759 187.17C451.489 187.668 448.17 188.941 446.089 191.634C442.249 190.007 437.766 191.495 435.487 194.938C430.483 201.285 428.724 212.112 434.843 218.198C438.088 216.217 441.779 216.308 445.395 215.803C446.931 212.575 446.683 208.83 448.046 205.538C450.102 200.368 454.189 196.331 458.524 192.964C459.54 192.023 461.299 190.94 460.555 189.271C459.664 187.653 457.756 187.059 455.948 187.071ZM466.798 192.548C466.624 192.541 466.426 192.568 466.228 192.64C460.407 194.428 456.741 200.103 453.496 204.891C451.266 208.364 452.084 212.593 452.331 216.459C455.452 218.518 459.02 219.979 461.844 222.491C464.321 225.479 466.005 229.179 468.111 232.313C472.198 230.262 471.901 224.981 470.687 221.275C469.3 217.312 467.987 212.818 464.42 210.306C465.881 205.417 468.284 200.623 468.309 195.414C468.383 194.413 467.962 192.6 466.798 192.548ZM487.507 197.767C487.185 197.762 486.863 197.787 486.516 197.844C481.537 198.342 479.778 204.686 474.65 204.706C473.907 206.066 473.659 207.864 473.313 209.472C477.97 206.965 484.237 207.336 488.349 210.784C489.389 211.493 489.81 213.036 491.123 213.363C493.774 210.881 495.83 207.024 494.467 203.366C493.229 200.601 490.677 197.817 487.507 197.767ZM504.128 199.868C503.707 199.865 503.286 199.912 502.865 200.009C501.255 200.507 498.778 201.451 499.422 203.616C499.843 208.401 497.985 212.967 495.359 216.851C498.406 218.736 500.264 222.107 503.336 223.92C508.587 224.592 514.557 221.327 516.563 216.365C516.737 212.954 512.129 212.551 509.677 212.432C510.792 210.036 511.857 207.272 510.841 204.631C509.603 202.134 507.002 199.87 504.128 199.868ZM424.835 217.354C424.067 217.339 423.299 217.43 422.556 217.644C417.404 218.275 412.439 221.835 411.045 226.96C410.636 230.477 410.916 234.059 410.49 237.584C409.499 240.066 407.233 242.652 408.37 245.466C409.355 247.057 411.3 247.765 412.387 249.291C414.183 250.936 412.851 253.75 414.481 255.486C416.561 258.248 420.773 257.024 423.002 259.601C424.686 262.098 424.067 265.625 426.321 267.815C428.551 270.066 432.118 269.831 434.867 268.768C439.128 267.317 443.686 265.496 446.51 261.959C442.893 256.972 439.351 251.421 438.781 245.11C438.558 241.612 440.069 238.35 440.837 235.028C436.973 232.927 433.257 229.563 433.158 224.862C432.811 220.633 428.972 217.435 424.835 217.354ZM446.386 220.807C445.841 220.799 445.296 220.827 444.751 220.889C442.794 221.258 440.813 221.919 439.153 223.026C440.664 227.755 444.206 231.572 448.244 234.324C445.816 239.256 443.29 244.825 444.776 250.448C446.981 257.983 457.063 261.228 463.627 257.475C468.383 253.504 470.885 245.132 466.055 240.25C464.915 238.852 462.314 238.501 462.364 236.321C461.348 228.473 454.511 220.908 446.386 220.807ZM453.545 264.585C446.436 272.026 448.467 284.986 455.75 291.58C457.608 292.883 459.515 290.862 460.58 289.462C466.03 282.955 464.791 273.131 461.026 266.103C458.475 265.848 455.948 265.469 453.545 264.585ZM469.077 281.459C467.491 287.178 465.658 293.965 459.911 296.859C454.511 298.86 450.473 293.527 447.625 289.856C445.123 299.309 450.449 310.889 460.357 313.22C465.956 313.445 468.383 306.71 467.145 302.041C470.464 303.78 474.378 305.615 478.118 303.958C481.091 302.467 484.782 299.261 483.766 295.556C480.695 291.134 474.056 290.351 471.579 285.246C470.687 284.216 469.845 282.088 469.077 281.459Z" fill="#99738E"/>
<path d="M477.777 212.789C477.499 212.794 477.22 212.818 476.94 212.864C475.791 212.99 474.738 213.525 473.754 214.097C475.238 217.775 475.773 221.739 476.607 225.591C478.659 225.156 479.134 222.355 481.299 222.033C483.554 221.473 486.094 219.058 484.486 216.642C483.019 214.474 480.465 212.737 477.777 212.789Z" fill="#99738E"/>
<path d="M553.524 214.988C553.475 214.986 553.376 214.99 553.301 215.008C550.948 217.101 547.381 218.55 547.133 222.115C549.784 221.547 553.153 220.643 554.218 217.827C554.168 217.168 554.59 215.04 553.524 214.988ZM543.938 223.512C539.504 225.451 534.5 225.744 530.264 228.104C528.332 229.506 528.505 232.092 528.778 234.195C526.994 236.071 526.672 239.6 529.496 240.646C532.667 241.775 532.766 237.047 535.763 237.334C541.015 236.541 542.08 230.732 543.219 226.489C543.219 225.739 544.73 223.596 543.938 223.512ZM490.184 227.24C488.35 227.364 486.493 229.105 487.211 231.04C488.846 235.005 492.487 237.579 495.683 240.252C496.872 241.458 496.798 243.816 498.135 244.74C502.693 238.456 498.383 227.656 490.184 227.24ZM502.297 227.532C504.972 232.196 508.564 237.378 507.35 243.021C512.85 243.314 516.07 248.904 521.272 249.918C524.096 250.046 526.771 246.92 525.78 244.143C524.963 241.664 522.411 240.373 520.851 238.411C521.297 235.706 522.981 232.303 520.281 230.202C514.782 227.061 508.019 230.041 502.297 227.532ZM481.241 227.745C479.235 229.848 477.278 231.976 475.296 234.079C481.737 236.801 485.13 243.311 488.846 248.803C490.035 250.913 492.661 252.246 495.064 251.515C494.593 249.288 494.172 247.007 493.478 244.862C488.251 240.111 482.257 235.181 481.241 227.745ZM470.936 239.137C473.389 242.588 476.188 247.596 475.395 252.449C475.197 254.451 473.834 257.156 475.965 258.644C480.547 262.66 488.152 265.199 493.528 261.282C492.983 259.972 492.884 258.107 491.298 257.681C482.604 253.576 481.662 239.511 470.936 239.137ZM540.965 242.231C537.571 243.48 537.398 247.869 538.116 250.869C539.206 248.055 540.618 245.268 540.965 242.231ZM508.069 248.506C507.92 248.508 507.771 248.52 507.623 248.535C504.328 249.318 501.232 250.876 498.135 252.236C498.383 255.496 500.588 258.976 504.105 259.278C508.837 259.593 513.37 257.698 517.531 255.622C514.014 253.727 512.503 248.359 508.069 248.506ZM544.904 250.71C544.755 250.71 544.582 250.715 544.433 250.725C540.717 251.872 537.968 256.212 538.488 260.046C539.603 264.342 544.433 267.872 548.892 266.125C553.078 264.262 556.2 260.391 558.132 256.333C553.747 254.478 549.833 250.676 544.904 250.71ZM531.626 252.987C531.304 252.992 531.007 253.031 530.71 253.108C529.347 253.333 527.96 253.762 526.821 254.582C529.496 255.394 532.196 256.417 534.896 257.136C536.234 254.669 533.831 252.957 531.626 252.987ZM532.84 258.895C532.568 258.892 532.295 258.924 532.023 259.004C530.66 259.246 529.223 260.18 528.406 261.06C530.685 262.281 533.806 262.194 536.234 261.297C535.615 260.012 534.302 258.909 532.84 258.895ZM470.54 260.688C468.509 263.338 465.338 266.497 467.666 269.989C472.199 276.836 481.935 278.129 489.416 276.524C491.893 275.764 496.104 274.178 494.395 270.975C486.716 266.965 476.634 267.701 470.54 260.688ZM521.643 262.234C521.371 262.236 521.123 262.253 520.875 262.281C515.599 262.556 510.694 265.508 505.319 264.745C503.114 264.988 500.018 264.265 498.779 266.73C503.56 272.744 511.784 271.238 518.497 270.554C521.767 270.314 524.814 268.238 525.978 265.112C526.201 262.893 523.576 262.219 521.643 262.234ZM535.912 266.529C535.738 266.521 535.565 266.546 535.441 266.578C533.311 267.398 532.295 269.915 531.725 271.974C534.227 271.731 536.506 269.628 536.407 266.98C536.432 266.65 536.184 266.541 535.912 266.529ZM562.343 266.586C559.519 267.255 556.497 267.351 553.822 268.454C556.769 269.947 560.857 270.522 562.343 266.784V266.586ZM543.418 271.082C544.78 273.341 546.613 275.764 549.189 276.645C551.097 277.356 553.4 274.059 550.948 273.296C548.397 272.727 545.771 272.301 543.418 271.082ZM520.231 274.956C519.835 274.963 519.414 275.008 518.993 275.102C516.962 275.172 515.327 277.891 517.011 279.4C520.38 282.977 525.954 280.289 528.555 277.208C525.706 276.754 523.13 274.911 520.231 274.956ZM505.616 275.887C504.65 275.885 503.56 276.038 502.867 275.952C500.241 277.317 498.358 279.853 495.485 280.847C489.762 283.415 483.297 283.088 477.253 282.135C479.482 285.771 484.016 289.16 488.474 287.359C490.778 286.621 492.165 284.025 494.865 284.587C500.117 285.167 505.418 282.288 507.647 277.517C507.87 276.15 506.83 275.89 505.616 275.887ZM559.222 283.279C559.147 283.284 559.073 283.301 558.999 283.334C549.809 285.352 543.591 296.665 533.113 293.17C532.469 297.287 537.695 302.774 542.229 300.599C546.91 297.976 548.719 292.536 551.939 288.553C554.218 286.564 557.017 285.295 559.519 283.633C559.494 283.388 559.395 283.269 559.222 283.279ZM513.444 283.504C512.899 283.507 512.28 283.579 511.983 283.604C503.486 284.515 497.937 293.195 489.019 292.967C491.125 296.539 495.609 298.87 499.646 296.965C505.591 294.488 509.431 288.9 514.014 284.612C515.153 283.695 514.385 283.502 513.444 283.504ZM537.621 285.058C537.349 285.055 537.076 285.077 536.779 285.124C534.748 285.422 532.642 286.762 531.676 288.476C534.401 292.132 540.371 291.354 542.774 287.624C541.485 286.234 539.578 285.072 537.621 285.058ZM527.366 293.539C527.167 293.537 526.969 293.559 526.771 293.606C523.774 294.483 521.817 297.634 521.371 300.629C524.393 300.096 528.53 300.968 530.14 297.599C531.304 295.741 529.323 293.554 527.366 293.539ZM517.16 301.832C517.11 301.828 517.036 301.83 516.937 301.835C512.973 302.261 509.035 302.764 505.096 303.405C501.95 302.935 498.779 302.462 495.584 302.447C494.345 302.571 492.413 302.432 492.017 303.978C499.671 305.816 508.564 307.802 515.748 303.527C516.293 303.16 518.175 301.904 517.16 301.832ZM487.533 306.752C487.062 306.745 486.592 306.787 486.072 306.883C484.164 306.668 485.675 309.108 485.75 310.009C487.285 314.894 492.983 315.714 496.798 318.134C495.485 313.581 492.958 306.824 487.533 306.752Z" fill="#916EAB"/>
<path d="M230.693 221.666C231.265 225.26 233.901 228.062 236.15 230.757C245.866 241.282 257.055 250.685 269.721 257.477C272.715 258.77 276.288 261.012 279.486 259.203C283.417 249.726 279.869 237.71 271.73 231.529C259.324 223.96 243.946 226.57 230.693 221.666ZM228.283 229.092C230.044 239.528 232.61 251.093 241.003 258.336C250.785 265.079 262.978 266.674 274.42 268.691C277.268 270.028 278.007 265.607 277.382 263.746C264.045 261.968 253.054 253.169 243.413 244.388C238.491 239.949 233.928 235.074 230.007 229.726C229.613 229.186 228.885 229.166 228.283 229.092ZM311.5 245.25C311.282 245.25 311.064 245.265 310.846 245.297C306.469 246.219 303.182 250.127 301.007 253.67C305.686 253.967 310.024 255.651 314.2 257.504C313.591 253.94 317.356 250.628 315.543 247.185C314.557 246.023 313.029 245.255 311.5 245.25ZM320.131 253.506C319.273 257.814 319.732 262.726 320.517 267.19C320.098 271.777 318.81 276.241 317.698 280.692C318.575 289.288 324.468 296.298 330.356 302.193C339.442 293.134 337.686 278.75 334.632 267.415C327.27 265.84 328.518 253.402 320.131 253.506ZM284.925 263.962C282.089 269.426 279.783 275.557 280.397 281.817C280.917 288.448 285.468 294.47 291.445 297.197C295.206 298.936 298.193 295.651 300.058 292.835C303.883 288.24 304.5 281.309 301.215 276.261C297.43 270.524 291.591 265.763 284.925 263.962ZM222.013 267.078C215.84 267.13 209.662 268.5 204.076 271.074C191.418 276.313 178.787 281.641 166 286.553V286.949C173.498 290.209 181.88 289.88 189.878 290.189C213.304 289.704 238.024 284.799 260.353 294.276C261.022 294.579 260.886 293.442 260.698 293.068C256.769 282.666 247.985 274.561 237.943 270.098C232.907 268.012 227.459 267.031 222.012 267.078H222.013ZM339.487 268.869C342.7 280.808 341.905 294.601 334.045 304.613C335.521 307.868 339.824 306.345 342.398 305.572C348.982 303.682 354.87 296.595 353.248 289.545C351.873 284.185 344.471 283.013 344.226 277.212C343.728 274.006 342.427 270.593 339.487 268.869ZM229.665 293.276C227.376 293.276 225.112 293.357 222.94 293.409C213.802 294.532 204.671 295.72 195.547 296.954C187.924 296.61 180.274 295.976 172.791 294.43C171.798 294.779 172.788 295.537 173.352 295.748C179.444 298.089 185.63 300.192 191.673 302.654C201.054 307.103 209.325 314.849 220.185 315.294C226.353 314.901 232.742 314.705 238.603 312.57C243.678 309.26 243.701 301.757 248.935 298.465C243.592 294.011 236.527 293.276 229.665 293.276ZM278.846 296.538C278.076 296.55 277.291 296.659 276.506 296.88C269.039 298.277 261.863 301.123 255.024 304.39C248.34 307.504 245.744 315.215 245.274 322.079C244.907 331.502 246.75 340.878 249.349 349.892C255.913 340.345 262.17 330.561 268.975 321.175C273.724 313.863 280.769 308.433 287.796 303.451C286.726 299.29 283.003 296.474 278.846 296.538ZM301.839 303.897C300.997 303.892 300.155 303.944 299.33 304.056C291.232 305.022 285.233 311.267 280.008 316.969C269.626 328.802 259.971 341.376 252.197 355.094C252.361 355.983 253.607 355.74 254.211 355.909C265.294 356.723 276.731 355.378 286.994 350.944C292.218 348.51 297.376 345.052 300.051 339.788C299.692 334.648 297.633 329.545 298.944 324.38C300.99 317.036 307.061 311.854 312.226 306.778C309.226 305.005 305.498 303.92 301.839 303.897ZM326.554 306.28C325.754 306.317 324.956 306.379 324.163 306.464C313.514 307.068 307.544 318.307 306.791 327.861C306.036 338.998 307.344 350.883 313.331 360.561C316.172 364.853 319.967 369.213 325.028 370.724C328.83 362.636 329.244 353.387 328.62 344.608C327.758 331.883 323.524 319.005 326.554 306.28ZM331.473 307.876C328.045 312.312 329.554 318.542 331.05 323.471C336.23 336.942 336.737 352.54 330.549 365.77C329.64 368.093 328.1 370.6 328.486 373.102C332.945 369.758 337.156 366.072 341.521 362.594C348.328 356.8 351.211 347.521 350.805 338.789C350.622 328.846 348.043 317.992 340.24 311.222C337.471 309.775 334.411 308.901 331.473 307.876ZM413.623 332.996C411.745 333.03 411.361 335.294 411.545 336.758C411.939 340.811 412.508 345.084 414.78 348.564C420.081 356.114 429.321 360.107 438.263 361.12C438.709 359.141 436.43 358.366 435.588 356.922C430.956 351.47 429.717 344.18 426.026 338.207C423.103 334.625 418.099 333.015 413.623 332.996ZM370.833 353.647C369.991 356.902 370.424 360.645 368.214 363.399C365.755 367.234 363.538 372.706 366.483 376.892C369.101 372.854 372.047 369.02 374.494 364.883C376.582 360.969 374.757 355.46 370.833 353.647Z" fill="#E97D95" fill-opacity="0.79"/>
<path d="M380.725 324.072C379.254 325.413 380.939 324.891 380.725 324.072V324.072Z" fill="#F64C72"/>
</g>
<g clip-path="url(#clip1_633_3)">
<path d="M111.471 9.00003C106.89 9.57661 102.951 12.3745 99.7305 15.5346C96.5022 18.6448 94.0474 22.5806 92.8833 26.9235C95.3775 24.2564 98.2866 21.9351 101.607 20.3828C104.769 18.8365 108.513 18.003 111.941 19.1231C116.218 20.4647 119.683 23.671 122.057 27.396C122.702 26.8068 123.111 26.009 123.301 25.1627C124.256 21.6409 123.604 17.8483 121.951 14.6397C120.374 11.453 117.105 9.34963 113.601 8.99988H111.471V9.00003ZM128.238 15.2104C128.822 17.7681 129.39 20.3313 129.944 22.8956C131.059 27.0293 129.967 31.3679 128.556 35.2878C127.153 38.9105 124.4 41.8233 121.428 44.2455C119.062 46.1535 115.907 47.8264 112.805 46.7988C116.635 51.578 124.332 52.3742 129.125 48.5628C134.395 44.6269 137.982 38.0323 137.641 31.3785C137.088 24.975 133.554 18.8422 128.238 15.2104ZM105.652 27.8165C105.62 27.8226 105.554 27.8362 105.521 27.8423C99.3733 30.0066 94.3871 34.6955 90.8927 40.1033C88.5069 43.9141 86.8469 48.2473 86.4616 52.7466C85.8291 60.3218 89.7521 67.9675 96.0813 72.1035C100.577 75.0346 105.937 76.5809 111.289 76.6969C117.697 76.7811 123.809 74.528 129.641 72.0831C129.61 71.7335 129.133 71.5477 128.89 71.3642C126.076 70.718 123.134 71.1526 120.328 70.461C115.808 69.0057 111.524 66.695 108.088 63.3969C103.085 58.5586 99.5894 51.6948 100.097 44.6049C100.257 40.5591 101.671 36.7181 103.181 33.0074C103.852 31.2079 105.316 29.7458 105.652 27.8165ZM144.239 29.0117C143.951 34.0585 142.586 38.9651 140.826 43.682C137.975 52.1702 128.761 57.9201 119.873 56.64C116.187 56.1319 112.79 54.4749 109.59 52.6548C109.309 52.4766 108.968 52.4493 108.649 52.4743C109.036 55.0732 110.864 57.1837 112.684 58.9674C116.999 63.2953 122.702 66.2771 128.837 66.8194C134.441 67.5026 140.333 65.8547 144.664 62.2025C149.274 58.2242 151.838 52.2241 152.338 46.2308V44.1848C151.944 38.2969 148.963 32.513 144.239 29.0117ZM115.823 31.0638C114.352 31.2208 112.745 31.6014 111.698 32.6995C110.879 34.2216 110.742 36.4868 112.191 37.6865C113.419 38.6276 115.065 39.078 116.597 38.7868C118.66 38.1589 119.464 35.6215 119.191 33.6839C118.872 32.1641 117.287 31.1715 115.823 31.0638ZM125.614 81.0787C125.591 81.0787 125.576 81.0787 125.561 81.0794C125.477 81.0847 125.394 81.106 125.333 81.1317C123.832 81.5564 122.406 82.2245 120.957 82.791C116.165 84.1523 111.076 83.4212 106.336 82.223C106.472 85.3436 107.36 88.6197 109.666 90.8493C112.085 93.1698 115.846 95.1946 119.191 93.64C123.847 91.547 126.425 86.2082 125.872 81.2546C125.834 81.128 125.728 81.0832 125.614 81.0787Z" fill="#916EAB" fill-opacity="0.7"/>
<path d="M86.1416 92.0928C85.6457 92.3431 85.5312 92.9649 85.3219 93.4275C84.0114 97.3937 83.9667 101.83 85.444 105.758C86.1947 107.692 87.6007 109.421 89.4723 110.362C90.8442 108.883 91.1786 106.82 91.5199 104.909C92.1728 100.169 90.4567 94.4892 86.1416 92.0928ZM68.0618 107.123H67.4202C64.2298 107.207 61.0114 107.449 57.9082 108.246C55.9266 108.814 53.7904 109.641 52.6225 111.438C55.957 113.418 59.1185 116.004 63.0453 116.686C69.6975 118.339 76.7828 116.55 82.4743 112.925C80.978 111.484 79.1352 110.453 77.3751 109.368C74.6359 107.556 71.281 107.123 68.0618 107.123ZM104.011 130.306C103.627 130.306 103.242 130.321 102.856 130.337C96.3058 130.685 90.0934 133.719 85.127 137.844C86.6444 139.315 88.6381 140.37 90.6265 141.158C97.3895 143.759 104.764 144.427 111.956 144.139C108.339 147.013 103.516 147.513 99.0708 147.923C93.2565 148.249 87.1571 148.431 81.6689 146.163C86.3259 152.283 94.0581 155.408 101.576 155.908H103.957C114.026 155.286 123.786 149.553 128.814 140.741C125.371 138.61 122.072 136.244 118.523 134.295C114.223 131.868 109.347 130.344 104.396 130.306H104.011Z" fill="#FFB4AB"/>
<path d="M112.942 99.6053C112.91 99.6032 112.872 99.6164 112.825 99.6495C97.0474 116.108 77.6658 129.417 55.9429 136.64C48.9831 139.01 41.8404 140.944 34.5138 141.75C32.9121 143.636 31.6361 145.864 31.0017 148.271V148.415C31.8818 148.995 32.9418 149.119 33.9653 148.9C38.0294 148.164 41.959 146.861 45.8989 145.652C52.1422 143.58 58.4278 141.599 64.524 139.117C77.6084 133.417 90.3051 126.092 100.128 115.579C103.138 112.16 106.217 108.802 109.29 105.441C110.662 103.812 112.135 102.192 112.989 100.218C113.072 100.074 113.111 99.6202 112.941 99.6092L112.942 99.6053Z" fill="#99738E"/>
</g>
<g clip-path="url(#clip2_633_3)">
<path d="M587.471 318C582.89 318.577 578.951 321.375 575.73 324.535C572.502 327.645 570.047 331.581 568.883 335.924C571.378 333.256 574.287 330.935 577.607 329.383C580.769 327.836 584.513 327.003 587.941 328.123C592.218 329.465 595.683 332.671 598.057 336.396C598.702 335.807 599.111 335.009 599.301 334.163C600.256 330.641 599.604 326.848 597.951 323.64C596.374 320.453 593.105 318.35 589.601 318H587.471V318ZM604.238 324.21C604.822 326.768 605.39 329.331 605.944 331.896C607.059 336.029 605.967 340.368 604.556 344.288C603.153 347.91 600.4 350.823 597.428 353.245C595.062 355.153 591.907 356.826 588.805 355.799C592.635 360.578 600.332 361.374 605.125 357.563C610.395 353.627 613.982 347.032 613.641 340.378C613.088 333.975 609.554 327.842 604.238 324.21ZM581.652 336.817C581.62 336.823 581.554 336.836 581.521 336.842C575.373 339.007 570.387 343.696 566.893 349.103C564.507 352.914 562.847 357.247 562.462 361.747C561.829 369.322 565.752 376.967 572.081 381.104C576.577 384.035 581.937 385.581 587.289 385.697C593.697 385.781 599.809 383.528 605.641 381.083C605.61 380.733 605.133 380.548 604.89 380.364C602.076 379.718 599.134 380.153 596.328 379.461C591.808 378.006 587.524 375.695 584.088 372.397C579.085 367.559 575.589 360.695 576.097 353.605C576.257 349.559 577.671 345.718 579.181 342.007C579.852 340.208 581.316 338.746 581.652 336.817ZM620.239 338.012C619.951 343.059 618.586 347.965 616.826 352.682C613.975 361.17 604.761 366.92 595.873 365.64C592.187 365.132 588.79 363.475 585.59 361.655C585.309 361.477 584.968 361.449 584.649 361.474C585.036 364.073 586.864 366.184 588.684 367.967C592.999 372.295 598.702 375.277 604.837 375.819C610.441 376.503 616.333 374.855 620.664 371.202C625.274 367.224 627.838 361.224 628.338 355.231V353.185C627.944 347.297 624.963 341.513 620.239 338.012ZM591.823 340.064C590.352 340.221 588.745 340.601 587.698 341.7C586.879 343.222 586.743 345.487 588.191 346.686C589.419 347.628 591.065 348.078 592.597 347.787C594.66 347.159 595.464 344.621 595.191 342.684C594.872 341.164 593.287 340.171 591.823 340.064ZM601.614 390.079C601.591 390.079 601.576 390.079 601.561 390.079C601.477 390.085 601.394 390.106 601.333 390.132C599.832 390.556 598.406 391.225 596.958 391.791C592.165 393.152 587.076 392.421 582.336 391.223C582.472 394.344 583.36 397.62 585.666 399.849C588.085 402.17 591.846 404.195 595.191 402.64C599.847 400.547 602.425 395.208 601.872 390.255C601.834 390.128 601.728 390.083 601.614 390.079Z" fill="#FFB4AB"/>
<path d="M562.142 401.093C561.646 401.343 561.531 401.965 561.322 402.428C560.011 406.394 559.967 410.83 561.444 414.758C562.195 416.692 563.601 418.421 565.472 419.362C566.844 417.883 567.179 415.82 567.52 413.909C568.173 409.169 566.457 403.489 562.142 401.093ZM544.062 416.123H543.42C540.23 416.207 537.011 416.45 533.908 417.246C531.927 417.815 529.79 418.641 528.623 420.438C531.957 422.418 535.119 425.004 539.045 425.686C545.698 427.339 552.783 425.55 558.474 421.925C556.978 420.484 555.135 419.453 553.375 418.368C550.636 416.556 547.281 416.123 544.062 416.123ZM580.011 439.306C579.627 439.306 579.242 439.321 578.857 439.337C572.306 439.685 566.093 442.719 561.127 446.844C562.644 448.315 564.638 449.37 566.627 450.158C573.39 452.759 580.764 453.427 587.956 453.139C584.339 456.013 579.516 456.513 575.071 456.923C569.257 457.249 563.157 457.431 557.669 455.163C562.326 461.283 570.058 464.408 577.576 464.908H579.957C590.026 464.286 599.786 458.553 604.814 449.741C601.371 447.61 598.072 445.244 594.523 443.295C590.223 440.868 585.347 439.344 580.396 439.306H580.011Z" fill="#916EAB"/>
<path d="M588.942 408.605C588.91 408.603 588.872 408.616 588.825 408.65C573.047 425.108 553.666 438.417 531.943 445.64C524.983 448.01 517.84 449.944 510.514 450.75C508.912 452.636 507.636 454.864 507.002 457.271V457.415C507.882 457.995 508.942 458.119 509.965 457.9C514.029 457.164 517.959 455.861 521.899 454.652C528.142 452.58 534.428 450.599 540.524 448.117C553.608 442.417 566.305 435.092 576.128 424.579C579.138 421.16 582.217 417.802 585.29 414.441C586.662 412.812 588.135 411.192 588.989 409.218C589.072 409.074 589.111 408.62 588.941 408.609L588.942 408.605Z" fill="#F64C72"/>
</g>
<defs>
<clipPath id="clip0_633_3">
<rect width="396.34" height="304.271" fill="white" transform="translate(166 122)"/>
</clipPath>
<clipPath id="clip1_633_3">
<rect width="121.34" height="146.907" fill="white" transform="translate(31 9)"/>
</clipPath>
<clipPath id="clip2_633_3">
<rect width="121.34" height="146.907" fill="white" transform="translate(507 318)"/>
</clipPath>
</defs>
</svg>
