<svg width="675" height="203" viewBox="0 0 675 203" fill="none" xmlns="http://www.w3.org/2000/svg">
<path fill-rule="evenodd" clip-rule="evenodd" d="M244.375 3.27271C255.276 6.84325 266.292 1.44434 273.829 10.9091C276.081 8.43707 280.82 13.7902 281.466 8.72725C285.402 9.55525 288.049 17.3673 291.284 15.2727C293.989 20.568 298.197 24.36 300.011 30.5454C298.069 31.1487 295.48 31.1062 294.556 32.7273C279.204 24.8062 261.72 19.0178 249.829 7.63634C247.127 10.4105 253.558 13.308 256.375 14.1818C262.688 20.8865 278.03 31.4138 291.284 32.7273C290.088 36.6229 285.424 37.0494 284.738 41.4545C272.169 40.1542 261.983 36.7429 253.102 29.4545C252.933 26.376 256.186 26.7207 257.466 25.0909C252.307 16.3233 246.763 13.3996 244.375 3.27271Z" fill="#553D67"/>
<path fill-rule="evenodd" clip-rule="evenodd" d="M644.737 44.7273C645.098 46.6353 650.032 58.4814 641.464 58.9091C642.892 51.6633 637.709 51.0273 636.01 46.9091C639.686 47.1785 639.173 40.3843 642.555 43.6363C638.578 36.7047 629.411 34.9614 618.555 34.9091C615.962 32.7785 620.549 28.8043 617.464 26.1818C614.47 28.536 618.55 31.1913 616.373 33.8182C605.554 32.8167 599.163 36.2443 591.283 38.1818C593.654 33.2803 600.513 32.8669 603.282 28.3636C598.244 30.2334 592.597 31.4967 588.01 33.8182C589.513 23.9847 607.367 12.1091 622.919 19.6363C622.034 22.428 617.558 21.6709 614.192 22.9091C610.962 24.0971 607.751 26.8953 604.373 27.2727C607.676 30.5018 612.142 25.6407 614.192 24C631.923 19.4651 650.165 23.1993 648.01 46.9091C646.143 46.9571 645.184 46.0985 644.737 44.7273Z" fill="#FFB4AB"/>
<path fill-rule="evenodd" clip-rule="evenodd" d="M72.012 24C76.3309 33.5302 92.7828 45.2465 80.7392 57.8182C83.7654 49.2153 84.1734 36.2945 74.1938 34.9091C74.4611 30.2782 71.34 29.0356 72.012 24Z" fill="#553D67"/>
<path fill-rule="evenodd" clip-rule="evenodd" d="M50.194 30.5455C50.746 28.6211 54.3427 29.3215 55.6485 29.4546C59.5954 29.8549 66.1288 31.6789 67.6484 33.8182C60.7899 33.768 57.7136 29.9335 50.194 30.5455Z" fill="#553D67"/>
<path fill-rule="evenodd" clip-rule="evenodd" d="M68.7395 36C69.9952 32.4709 69.9744 38.9302 69.8304 40.3637C68.5737 43.8927 68.5955 37.4335 68.7395 36Z" fill="#553D67"/>
<path fill-rule="evenodd" clip-rule="evenodd" d="M312.011 36C311.625 37.4324 310.091 37.716 309.829 39.2727C307.112 38.8287 309.764 35.0433 312.011 36Z" fill="#553D67"/>
<path fill-rule="evenodd" clip-rule="evenodd" d="M478.919 50.1818C475.199 45.4538 482.67 36.7265 489.828 36C492.256 39.2804 491.116 39.8073 490.919 44.7273C486.499 43.992 484.108 48.7647 478.919 50.1818Z" fill="#FFB4AB"/>
<path fill-rule="evenodd" clip-rule="evenodd" d="M190.921 38.1818C190.444 39.5236 189.524 40.4225 187.648 40.3636C188.124 39.0218 189.044 38.1229 190.921 38.1818Z" fill="#553D67"/>
<path fill-rule="evenodd" clip-rule="evenodd" d="M76.3759 39.2728C79.5962 46.1553 74.9348 54.54 68.7396 55.6364C72.2785 51.1757 76.5995 47.4971 76.3759 39.2728Z" fill="#553D67"/>
<path fill-rule="evenodd" clip-rule="evenodd" d="M506.192 62.1818C507.526 63.7571 510.355 63.8367 511.647 65.4545C511.675 70.2098 512.297 75.5585 509.465 77.4545C499.205 78.9873 502.467 66.9982 494.192 66.5454C493.664 60.1985 497.852 58.5698 499.647 54.5454C502.624 53.7502 501.843 56.7131 504.01 56.7273C502.807 52.476 498.442 51.3851 496.374 48C497.753 44.2876 500.977 42.4211 506.192 42.5454C510.908 49.284 504.303 56.3945 506.192 62.1818Z" fill="#FFB4AB"/>
<path fill-rule="evenodd" clip-rule="evenodd" d="M581.464 49.0909C585.767 48.9425 579.636 51.7495 579.283 50.1818C579.087 49.3167 580.795 49.1138 581.464 49.0909Z" fill="#553D67"/>
<path fill-rule="evenodd" clip-rule="evenodd" d="M110.194 50.1818C111.339 52.1127 113.959 69.6775 111.285 75.2727C111.493 65.4895 110.135 61.2491 110.194 50.1818Z" fill="#553D67"/>
<path fill-rule="evenodd" clip-rule="evenodd" d="M464.738 52.3636C466.388 48.5127 466.806 54.3731 465.829 54.5455C465.184 54.6589 464.459 53.0138 464.738 52.3636Z" fill="#553D67"/>
<path fill-rule="evenodd" clip-rule="evenodd" d="M232.375 53.4545C234.784 53.5909 232.839 58.0822 233.466 60C232.537 60.2007 232.437 59.5745 232.375 58.9091C231.647 58.9091 230.921 58.9091 230.193 58.9091C231.305 57.4756 231.262 54.888 232.375 53.4545Z" fill="#553D67"/>
<path fill-rule="evenodd" clip-rule="evenodd" d="M380.738 56.7273C373.751 55.4684 378.341 60.06 380.738 56.7273V56.7273Z" fill="#553D67"/>
<path fill-rule="evenodd" clip-rule="evenodd" d="M316.375 57.8182C317.765 58.0647 317.805 61.0745 316.375 61.0909C316.375 63.636 316.375 66.1822 316.375 68.7273C317.163 71.0934 315.26 75.6698 315.284 70.9091C315.265 66.1636 314.923 61.0931 316.375 57.8182Z" fill="#553D67"/>
<path fill-rule="evenodd" clip-rule="evenodd" d="M666.555 64.3637C667.264 61.2873 667.821 66.876 667.646 67.6364C667.14 69.8269 665.596 68.5167 666.555 64.3637Z" fill="#553D67"/>
<path fill-rule="evenodd" clip-rule="evenodd" d="M353.465 70.909C352.656 75.553 345.983 74.3356 343.647 77.4545C339.939 77.3825 341.978 83.0574 338.193 82.909C336.245 79.6101 338.743 73.0014 339.284 68.7272C344.28 67.2589 350.281 67.7236 353.465 70.909Z" fill="#FFB4AB"/>
<path fill-rule="evenodd" clip-rule="evenodd" d="M355.647 101.455C347.608 100.039 341.16 97.0331 336.011 92.7273C337.778 85.6734 349.93 91.2327 354.556 91.6364C360.868 89.2222 364.14 83.7654 365.465 76.3636C372.669 82.1236 372.942 99.024 361.102 99.2727C360.917 101.638 364.971 99.7669 366.556 100.364C367.644 105.815 363.169 105.704 363.284 110.182C356.308 110.588 350.482 112.371 344.738 110.182C337.39 107.38 324.294 90.4876 325.102 81.8182C328.664 81.5291 327.415 86.0509 330.556 86.1818C329.435 83.6673 326.802 82.6636 327.284 78.5454C329.219 74.2985 331.613 70.512 337.102 69.8182C333.569 76.4138 336.997 84.1647 336.011 89.4545C333.477 92.0902 333.091 87.7505 330.556 87.2727C333.905 96.528 345.935 102.109 355.647 101.455Z" fill="#FFB4AB"/>
<path fill-rule="evenodd" clip-rule="evenodd" d="M266.193 72C267.006 69.54 272.312 71.5735 274.92 70.9091C275.923 76.8153 278.926 80.7218 282.556 84C276.718 87.852 269.778 90.1942 264.011 94.9091C258.684 99.2651 255.88 107.296 249.829 108C246.374 106.044 253.052 102.625 255.284 99.2727C258.057 95.1076 258.921 90.0775 261.829 87.2727C261.069 81.7855 263.681 79.6691 262.92 74.1818C265.102 74.1818 267.284 74.1818 269.466 74.1818C269.975 71.8538 267.907 72.1036 266.193 72Z" fill="#553D67"/>
<path fill-rule="evenodd" clip-rule="evenodd" d="M356.738 73.0909C360.218 72.156 360.112 74.808 362.193 75.2728C361.849 83.292 359.486 89.2931 351.284 89.4546C353.556 84.4538 355.555 79.1804 356.738 73.0909Z" fill="#FFB4AB"/>
<path fill-rule="evenodd" clip-rule="evenodd" d="M466.919 73.0909C468.834 74.376 466.63 86.5222 465.829 85.0909C465.829 82.1814 465.829 79.2731 465.829 76.3636C467.107 76.1869 466.748 74.3749 466.919 73.0909Z" fill="#553D67"/>
<path fill-rule="evenodd" clip-rule="evenodd" d="M339.284 87.2727C340.876 82.32 345.64 80.5386 348.011 76.3636C357.609 79.3713 347.725 92.9956 339.284 87.2727Z" fill="#FFB4AB"/>
<path fill-rule="evenodd" clip-rule="evenodd" d="M556.374 89.4545C559.405 91.8578 556.22 97.2283 556.374 100.364C554.232 98.8516 555.043 91.1062 556.374 89.4545Z" fill="#553D67"/>
<path fill-rule="evenodd" clip-rule="evenodd" d="M376.375 100.364C376.166 103.791 374.348 105.61 370.92 105.818C372.311 103.572 372.659 100.285 376.375 100.364Z" fill="#FFB4AB"/>
<path fill-rule="evenodd" clip-rule="evenodd" d="M463.647 104.727C466.108 105.54 464.074 110.846 464.738 113.455C460.476 112.428 463.81 107.951 463.647 104.727Z" fill="#553D67"/>
<path fill-rule="evenodd" clip-rule="evenodd" d="M246.557 106.909C245.553 108.814 243.146 109.317 240.011 109.091C241.356 107.527 243.763 107.024 246.557 106.909Z" fill="#553D67"/>
<path fill-rule="evenodd" clip-rule="evenodd" d="M80.7395 108C82.6562 119.901 90.6525 125.723 97.1031 133.091C90.3907 133.607 85.174 123.213 80.7395 117.818C80.7395 114.545 80.7395 111.273 80.7395 108Z" fill="#553D67"/>
<path fill-rule="evenodd" clip-rule="evenodd" d="M193.103 115.636C194.785 112.979 200.64 115.286 201.83 116.727C212.773 116.033 221.887 113.512 230.193 110.182C223.113 118.67 204.016 123.046 193.103 115.636Z" fill="#FFB4AB"/>
<path fill-rule="evenodd" clip-rule="evenodd" d="M293.466 114.545C297.011 112.46 300.893 114.116 305.466 115.636C302.688 118.341 297.113 114.588 293.466 114.545Z" fill="#553D67"/>
<path fill-rule="evenodd" clip-rule="evenodd" d="M282.557 117.818C289.391 119.711 298.358 119.473 302.193 124.364C300.817 126.715 296.392 122.978 294.557 122.182C292.313 126.483 284.073 124.789 281.466 128.727C283.211 124.279 283.511 123.34 282.557 117.818Z" fill="#553D67"/>
<path fill-rule="evenodd" clip-rule="evenodd" d="M496.374 118.909C483.85 117.691 488.563 122.169 496.374 118.909V118.909Z" fill="#553D67"/>
<path fill-rule="evenodd" clip-rule="evenodd" d="M352.375 122.182C356.367 122.916 357.446 126.565 361.102 127.636C366.816 127.533 368.606 123.504 374.193 123.273C371.301 131.852 354.332 131.639 352.375 122.182Z" fill="#553D67"/>
<path fill-rule="evenodd" clip-rule="evenodd" d="M466.919 123.273C469.301 128.701 469.058 138.023 473.465 144C468.356 141.101 468.093 135.329 459.283 134.182C464.734 133.451 468.662 131.198 466.919 123.273Z" fill="#553D67"/>
<path fill-rule="evenodd" clip-rule="evenodd" d="M247.648 128.727C249.837 128.356 251.061 128.95 250.92 130.909C249.829 130.909 248.738 130.909 247.648 130.909C247.648 130.181 247.648 129.455 247.648 128.727Z" fill="#553D67"/>
<path fill-rule="evenodd" clip-rule="evenodd" d="M225.83 137.455C227.31 137.793 226.735 140.186 226.921 141.818C224.392 141.514 224.413 138.904 225.83 137.455Z" fill="#553D67"/>
<path fill-rule="evenodd" clip-rule="evenodd" d="M457.101 138.545C459.448 136.271 466.635 138.411 466.92 141.818C464.333 140.041 460.611 139.4 457.101 138.545Z" fill="#553D67"/>
<path fill-rule="evenodd" clip-rule="evenodd" d="M200.739 139.636C197.063 136.323 197.431 143.669 200.739 139.636V139.636Z" fill="#553D67"/>
<path fill-rule="evenodd" clip-rule="evenodd" d="M177.83 157.091C176.896 169.408 184.263 179.371 180.012 190.909C178.398 192.172 177.261 192.172 175.648 190.909C176.264 198.797 167.551 197.357 165.83 202.909C163.672 196.777 154.83 202.498 154.921 193.091C156.43 194.22 160.11 197.516 159.284 192C161.472 193.813 164.355 194.93 164.739 198.545C167.723 197.829 167.156 192.399 171.284 193.091C171.254 193.085 171.378 195.176 171.284 195.273C175.434 191.014 173.164 184.229 177.83 184.364C175.524 180.806 177.257 177.132 176.739 173.455C175.783 166.665 172.295 160.928 172.375 154.909C168.104 149.744 159.133 149.759 157.103 145.091C153.83 145.091 150.557 145.091 147.285 145.091C148.226 143.179 151.348 141.3 146.194 141.818C150.326 136.149 156.008 145.104 162.557 144C166.291 149.72 175.072 150.394 177.83 157.091Z" fill="#FFB4AB"/>
<path fill-rule="evenodd" clip-rule="evenodd" d="M345.829 141.818C345.718 144.595 341.763 144.395 340.375 142.909C341.372 139.248 342.403 142.369 345.829 141.818Z" fill="#FFB4AB"/>
<path fill-rule="evenodd" clip-rule="evenodd" d="M553.101 140.727C549.989 147.77 558.975 151.366 559.647 158.182C560.914 158.36 561.587 157.941 561.829 157.091C564.059 158.496 562.979 163.212 566.192 163.636C565.291 166.371 562.371 167.087 560.738 169.091C559.386 161.157 555.213 154.833 550.919 147.273C545.027 147.192 545.138 146.781 541.101 146.182C543.057 142.319 548.322 141.767 553.101 140.727Z" fill="#553D67"/>
<path fill-rule="evenodd" clip-rule="evenodd" d="M186.557 141.818C183.244 145.493 190.59 145.126 186.557 141.818V141.818Z" fill="#553D67"/>
<path fill-rule="evenodd" clip-rule="evenodd" d="M468.01 144C465.256 148.155 453.18 142.987 453.829 150.545C450.686 150.675 446.688 149.95 445.101 151.636C444.655 154.264 447.093 154.008 446.192 157.091C440.425 157.141 441.221 163.756 435.283 163.636C435.145 165.593 436.619 165.937 436.374 168C432.495 168.121 426.879 166.504 428.738 172.364C427.448 171.108 424.882 171.129 422.192 171.273C418.925 171.991 423.235 173.605 422.192 175.636C415.87 174.266 410.01 179.149 406.92 174.545C404.404 174.212 405.708 177.697 403.647 177.818C399.311 173.555 394.24 176.707 389.465 173.455C387.61 173.054 387.407 174.305 387.284 175.636C383.732 174.783 381.683 166.748 377.465 170.182C373.575 162.941 368.228 163.332 364.375 157.091C362.519 156.691 362.316 157.942 362.193 159.273C358.668 154.433 354.084 150.653 352.375 144C373.316 161.581 398.015 162.195 423.283 153.818C435.888 149.639 448.844 135.891 468.01 144Z" fill="#553D67"/>
<path fill-rule="evenodd" clip-rule="evenodd" d="M476.738 146.182C483.089 157.888 501.201 151.293 510.556 159.273C527.517 158.312 539.169 162.659 545.465 172.364C548.76 160.693 531.906 159.748 522.556 157.091C527.398 154.297 532.948 152.21 535.647 147.273C540.724 146.923 542.926 149.447 547.647 149.455C547.471 150.733 545.658 150.375 544.374 150.545C545.105 153.814 550.721 152.198 552.01 154.909C547.002 157.627 553.32 158.455 555.283 160.364C554.234 163.515 554.328 168.583 555.283 171.273C553.169 174.613 547.829 174.728 546.556 178.909C544.012 173.035 539.081 176.256 535.647 171.273C534.305 171.749 533.406 172.668 533.465 174.545C526.055 170.811 515.089 177.341 507.283 171.273C506.005 171.448 506.362 173.261 506.192 174.545C501.58 174.495 496.284 168.238 493.101 173.455C489.932 170.125 485.385 172.605 481.101 171.273C476.376 169.803 476.191 165.563 471.283 169.091C471.337 166.752 468.744 161.589 466.92 164.727C462.196 161.366 466.539 154.259 465.829 148.364C468.975 147.147 472.592 146.4 476.738 146.182Z" fill="#553D67"/>
<path fill-rule="evenodd" clip-rule="evenodd" d="M346.92 163.636C348.039 167.302 343.527 165.335 341.466 165.818C341.626 163.432 344.214 163.476 346.92 163.636Z" fill="#553D67"/>
<path fill-rule="evenodd" clip-rule="evenodd" d="M569.465 164.727C574.748 170.511 577.441 165.937 583.647 171.273C586.065 171.874 585.2 169.19 586.919 169.091C589.47 169.45 591.426 170.402 593.465 171.273C592.455 176.049 589.921 179.299 586.919 181.091C586.076 181.595 584.837 178.901 584.737 178.909C580.672 179.204 576.286 185.825 571.647 187.636C570.368 187.461 570.726 185.648 570.556 184.364C555.671 192.76 541.571 188.727 523.647 184.364C528.119 174.277 540.572 175.607 546.556 183.273C549.674 179.482 556.44 179.339 557.465 173.455C563.344 172.426 567.682 169.853 569.465 164.727Z" fill="#553D67"/>
<path fill-rule="evenodd" clip-rule="evenodd" d="M348.011 174.545C350.391 174.347 351.482 175.438 351.284 177.818C348.903 178.017 347.812 176.926 348.011 174.545Z" fill="#FFB4AB"/>
<path fill-rule="evenodd" clip-rule="evenodd" d="M372.011 176.727C373.911 177.712 376.213 179.168 374.193 181.091C370.794 181.601 370.294 178.347 372.011 176.727Z" fill="#FFB4AB"/>
<path fill-rule="evenodd" clip-rule="evenodd" d="M396.011 85.0909C396.006 78.9044 396.777 73.4935 398.193 68.7273C396.81 62.8375 391.118 61.2567 389.466 55.6364C396.814 55.9233 396.474 63.9022 405.829 62.1818C408.1 57.9087 414.721 57.984 420.011 56.7273C419.303 55.6178 417.503 55.5993 417.829 53.4545C420.716 51.6142 424.761 50.9313 427.647 49.0909C428.079 46.4771 422.678 49.6964 424.375 45.8182C427.826 45.9971 428.021 42.9185 432.011 43.6364C431.28 41.0815 434.361 38.7502 438.556 38.1818C439.533 34.6604 434.998 36.6491 434.193 34.9091C439.498 30.8509 439.211 27.72 444.011 22.9091C436.563 24.9033 433.311 24.1102 426.556 26.1818C425.979 25.3047 425.419 24.4102 425.465 22.9091C422.183 23.0945 422.313 27.2236 418.92 28.3636C417.99 28.6756 416.794 26.2767 415.647 26.1818C414.337 26.0727 414.116 28.1891 413.466 28.3636C411.51 28.8873 410.545 26.1284 410.193 26.1818C408.518 26.4371 409.284 28.4673 406.92 29.4545C403.964 30.6884 400.837 27.8007 399.284 33.8182C398.405 37.224 404.016 39.6065 400.375 44.7273C415.968 43.2295 425.589 35.76 436.375 29.4545C428.914 41.2669 412.719 44.3444 399.284 50.1818C399.428 52.8709 399.448 55.4378 398.193 56.7273C392.67 56.1295 394.812 44.9564 397.102 42.5455C396.293 38.5527 388.749 40.6396 387.284 42.5455C389.048 45.8771 392.533 38.9193 394.92 42.5455C394.318 45.9425 394.03 49.6549 392.738 52.3636C384.45 49.3789 379.206 43.3505 370.92 40.3636C371.548 38.4458 369.601 33.9545 372.011 33.8182C369.396 32.4327 368.794 29.0356 364.375 29.4545C364.166 32.9509 369.73 29.5735 368.738 36C357.763 30.3338 352.08 30.3862 337.102 32.7273C343.309 35.6345 351.52 31.164 360.011 32.7273C360.604 36.4985 364.645 36.8193 365.466 40.3636C361.415 47.7164 357.108 54.9142 350.193 60C341.671 66.2684 326.395 66.8095 325.102 80.7273C322.684 81.3273 323.549 78.6436 321.83 78.5455C321.839 93.4495 335.522 104.122 344.739 113.455C349.485 111.205 355.939 112.906 361.102 113.455C367.261 107.978 368.492 97.572 376.375 93.8182C376.375 91.6364 376.375 89.4546 376.375 87.2727C384.675 90.7385 374.219 99.1822 370.92 101.455C370.76 107.476 366.57 109.467 364.375 113.455C373.068 114.512 370.867 104.674 378.557 104.727C378.744 95.7447 387.153 88.8175 377.466 84C373.74 84.6382 376.845 92.1065 374.193 93.8182C369.871 93.0491 372.981 84.8487 370.92 81.8182C374.886 79.5033 382.793 81.1778 382.92 86.1818C384.938 86.0182 383.589 82.488 385.102 81.8182C391.098 85.3047 394.413 94.7138 391.647 103.636C395.907 99.4582 392.991 91.0822 391.647 86.1818C403.855 89.0062 399.11 108.265 389.466 110.182C389.466 112.727 389.466 115.273 389.466 117.818C384.139 122.673 376.037 124.753 373.102 132C376.034 135.563 380.117 131.087 380.738 128.727C396.747 124.231 406.905 124.081 422.193 121.091C423.039 122.062 423.365 123.554 423.284 125.455C427.191 125.363 429.587 123.758 433.102 123.273C433.661 128.148 438.049 125.945 441.829 125.455C443.39 130.802 453.279 127.823 456.011 132C457.227 131.003 456.353 129.972 457.102 126.545C454.335 125.481 443.806 127.191 438.556 123.273C427.035 114.673 408.546 91.3298 409.102 82.9091C409.478 77.2167 414.235 72.4887 420.011 69.8182C423.645 58.5436 431.925 51.9142 439.647 44.7273C442.133 44.4229 443.748 44.9902 444.011 46.9091C452.824 30.7156 479.479 19.4062 495.283 33.8182C499.525 30.3491 510 28.7411 513.829 33.8182C513.829 36 513.829 38.1818 513.829 40.3636C515.897 29.1764 535.345 34.2687 529.101 45.8182C547.889 50.0171 536.658 77.2844 526.92 84C536.14 84.9142 544.625 72.0949 541.101 60C548.081 58.8382 548.158 64.5796 550.919 67.6364C552.149 45.5935 560.209 30.3796 572.738 19.6364C577.063 20.0389 583.192 18.636 585.828 20.7273C586.194 26.5473 584.471 30.2782 583.647 34.9091C571.001 40.4455 563.37 50.9956 559.647 65.4545C567.561 51.9142 574.178 37.0767 592.374 33.8182C580.891 46.3353 586.406 75.8498 571.647 85.0909C567.303 84.708 564.566 82.7182 560.738 81.8182C564.022 85.0789 568.43 87.2171 571.647 90.5455C574.182 114.36 564.657 135.055 538.919 134.182C538.798 132.121 535.313 133.425 535.647 130.909C539.139 124.947 546.03 122.384 548.738 115.636C540.438 128.977 520.286 137.735 498.556 130.909C507.954 136.012 524.544 136.135 534.556 132C536.494 134.568 539.195 140.476 536.738 144C541.11 143.451 545.576 138.76 552.01 138.545C554.461 138.087 552.04 132.757 554.192 132C558.103 132.67 556.006 139.342 555.283 141.818C556.689 145.503 561.39 145.893 559.647 152.727C563.176 154.075 560.481 149.198 564.01 150.545C563.701 157.037 571.139 155.78 571.647 161.455C576.799 159.557 577.846 162.587 580.374 165.818C581.393 165.019 582.027 163.835 582.556 162.545C588.711 168.37 593.452 162.579 598.919 169.091C600.198 168.915 599.84 167.102 600.01 165.818C606.468 170.848 613.618 168.743 619.646 170.182C622.231 170.798 624.143 175.112 627.283 172.364C627.911 174.645 629.987 175.477 629.465 178.909C633.912 171.398 629.081 159.567 622.919 154.909C617 150.434 605.933 152.199 603.283 144C620.369 148.368 637.738 152.453 634.919 176.727C638.893 174.241 633.907 165.281 640.374 169.091C637.129 164.641 640.746 160.048 636.01 157.091C635.827 154.725 639.879 156.597 641.465 156C640.618 152.119 634.06 153.951 633.828 149.455C636.517 149.311 639.084 149.29 640.374 150.545C639.226 147.693 635.941 146.977 631.646 147.273C631.045 144.854 633.73 145.719 633.828 144C633.358 141.561 628.451 143.558 626.192 142.909C630.584 134.453 639.409 146.157 643.646 148.364C642.992 159.05 645.057 162.145 644.737 173.455C640.662 177.38 636.349 181.066 634.919 187.636C629.732 187.389 633.48 181.454 627.283 184.364C627.283 182.545 627.283 180.728 627.283 178.909C622.472 180.989 618.037 176.688 615.283 173.455C611.697 176.363 611.612 174.051 607.646 172.364C606.585 172.393 606.8 173.699 606.556 174.545C603.216 173.884 600.872 172.229 597.828 171.273C595.995 176.113 588.91 189.568 579.283 186.545C573.825 190.178 568.982 194.425 559.647 194.182C559.753 191.378 563.905 192.622 564.01 189.818C558.243 192.415 553.007 195.542 545.465 196.364C545.002 194.084 546.213 193.476 546.556 192C542.92 192 539.283 192 535.647 192C538.049 188.289 524.508 189.185 520.374 186.545C521.013 184.275 522.667 183.02 523.647 181.091C521.69 180.952 521.346 182.427 519.283 182.182C520.044 179.306 524.25 179.876 524.738 176.727C501.755 177.421 476.494 177.061 462.556 165.818C460.536 160.114 462.108 154.521 462.556 148.364C456.284 147.545 459.277 155.993 451.647 153.818C451.913 157.331 448.286 156.868 448.374 162.545C445.931 164.865 438.771 163.118 441.829 168C435.993 170.891 429.112 172.738 426.556 178.909C422.773 176.871 419.557 180.761 417.829 181.091C406.101 183.328 395.969 178.051 385.102 178.909C381.579 177.459 381.249 171.613 376.375 174.545C374.612 171.945 372.456 169.737 370.92 166.909C364.05 168.807 366.457 160.223 361.102 163.636C356.427 157.039 351.227 150.965 348.011 142.909C350.029 142.745 348.68 139.214 350.193 138.545C364.629 148.858 381.227 157.912 409.102 154.909C426.326 153.053 438.469 140.858 452.738 138.545C452.067 137.573 451.419 136.595 452.738 136.364C451.925 133.903 446.619 135.937 444.011 135.273C443.051 131.768 447.606 133.778 447.284 130.909C441.822 130.538 439.654 133.462 434.193 133.091C435.141 131.494 435.826 129.633 438.556 129.818C436.874 127.161 431.019 129.468 429.829 130.909C426.766 125.277 422.643 129.588 416.738 129.818C417.378 127.548 419.031 126.292 420.011 124.364C412.684 130.15 407.305 125.232 400.375 129.818C398.519 130.219 398.316 128.967 398.193 127.636C393.929 128.821 391.39 133.821 386.193 130.909C381.956 133.465 375.222 139.45 370.92 133.091C365.642 138.131 354.802 136.43 351.284 130.909C348.679 137.789 339.691 142.771 330.557 139.636C332.616 141.576 334.962 143.232 339.284 142.909C329.503 148.058 320.96 140.995 310.921 140.727C276.659 139.815 256.157 166.16 232.375 174.545C234.727 172.133 240.746 167.692 243.284 169.091C245.749 168.48 241.962 167.389 244.375 165.818C267.011 152.326 290.081 129.295 329.466 139.636C321.75 134.625 314.409 129.239 306.557 124.364C303.5 125.434 308.141 127.274 305.466 128.727C299.094 125.78 298.561 129.509 292.375 127.636C291.271 131.259 286.543 131.258 281.466 130.909C277.331 133.572 276.684 144.689 270.557 141.818C269.651 144.549 267.568 146.102 267.284 149.455C259.614 144.662 258.012 158.138 252.012 156C251.945 155.977 250.736 153.852 250.921 153.818C247.938 154.366 246.439 160.052 241.103 156C232.954 162.327 235.373 170.185 228.012 176.727C230.921 176.727 233.83 176.727 236.739 176.727C238.556 178.895 236.641 178.114 236.739 181.091C242.362 182.741 250.591 181.784 253.103 186.545C260.19 186.914 267.234 185.002 272.739 185.455C274.55 185.604 274.831 185.884 274.921 187.636C279.492 187.479 279.788 183.05 285.83 184.364C285.444 185.796 283.909 186.08 283.648 187.636C288.112 187.01 287.996 181.802 293.466 182.182C293.466 183.636 293.466 185.091 293.466 186.545C297.322 183.856 299.053 179.041 303.284 176.727C307.178 177.652 303.415 179.414 304.375 183.273C307.523 181.331 307.539 176.255 312.011 175.636C312.011 176.727 312.011 177.818 312.011 178.909C316.365 177.081 314.83 169.364 320.739 169.091C321.2 171.371 319.99 171.979 319.648 173.455C325.685 172.945 323.009 163.725 329.466 163.636C329.466 164.727 329.466 165.818 329.466 166.909C332.024 161.104 336.306 157.022 338.193 150.545C340.98 149.944 342.86 150.684 343.648 146.182C348.781 150.062 338.779 155.196 338.193 160.364C343.339 164.362 352.684 157.456 357.829 161.455C357.912 166.341 353.788 160.791 350.193 162.545C349.509 165.861 351.589 171.941 349.102 173.455C344.638 174.646 349.249 166.762 343.648 169.091C337.064 184.556 358.105 188.285 364.375 177.818C362.491 171.412 354.743 176.039 352.375 169.091C353.3 166.743 355.062 165.232 358.92 165.818C359.43 168.146 357.361 167.895 355.648 168C360.558 169.635 365.178 171.561 367.648 175.636C366.011 186.017 349.691 191.291 342.557 185.455C337.777 181.545 340.348 173.821 339.284 165.818C338.486 164.799 337.301 164.165 336.011 163.636C331.84 163.465 332.466 168.092 330.557 170.182C323.36 168.803 323.759 175.021 320.739 177.818C318.32 178.419 319.185 175.736 317.466 175.636C316.102 177.909 314.794 180.238 313.102 182.182C308.034 179.055 307.702 184.901 304.375 186.545C302.778 185.597 300.918 184.912 301.102 182.182C297.889 185.149 296.239 189.683 291.284 190.909C290.716 189.296 289.671 188.159 289.102 186.545C286.705 187.785 285.478 190.195 282.557 190.909C280.701 191.309 280.498 190.058 280.375 188.727C269.646 194.295 261.678 188.702 246.557 189.818C246.557 188.727 246.557 187.636 246.557 186.545C239.254 188.725 236.056 181.091 231.285 184.364C227.981 183.029 232.056 180.201 232.375 178.909C226.198 177.823 225.462 182.177 219.285 181.091C219.948 175.572 226.272 175.714 229.103 172.364C228.84 169.551 227.225 173.861 224.739 172.364C229.951 167.542 230.503 164.78 234.557 159.273C232.178 153.044 226.681 165.829 225.83 157.091C221.886 157.875 222.713 163.429 218.194 163.636C217.902 159.708 220.209 158.379 220.375 154.909C219.765 152.445 218.674 156.232 217.103 153.818C218.185 150.9 219.351 148.066 219.285 144C213.316 141.398 209.045 143.131 201.83 142.909C199.188 144.629 197.006 146.811 195.285 149.455C176.457 153.079 157.093 143.893 157.103 128.727C155.555 128.821 154.014 128.907 153.83 127.636C157.408 133.98 135.276 127.019 136.376 135.273C129.077 134.412 129.2 135.117 123.285 136.364C127.886 139.769 136.976 136.715 142.921 140.727C135.934 144.613 126.072 139.598 118.921 140.727C139.616 152.76 162.429 162.673 165.83 192C161.319 187.81 160.703 180.225 157.103 174.545C148.066 160.289 129.959 150.476 111.285 144C105.868 151.346 100.74 148.514 97.1033 154.909C98.1004 157.875 99.1313 152.003 102.558 153.818C101.121 157.108 99.0342 159.749 99.2851 164.727C100.474 167.484 102.042 158.608 104.74 162.545C104.08 165.159 103.171 167.522 103.649 171.273C105.279 174.872 104.934 167.623 108.012 169.091C107.77 175.603 107.645 175.45 106.921 181.091C110.649 181.909 108.308 176.66 112.376 177.818C113.585 179.882 113.768 182.973 114.558 185.455C116.033 184.384 116.738 182.544 117.83 181.091C120.113 182.445 121.93 184.263 123.285 186.545C124.998 186.076 124.217 183.113 127.649 184.364C128.831 187.544 129.924 190.814 133.103 192C134.382 191.824 134.023 190.011 134.194 188.727C138.912 188.737 138.503 193.873 141.83 195.273C145.155 193.939 140.235 191.11 142.921 189.818C146.538 190.202 147.654 193.085 149.467 195.273C151.038 195.025 149.847 192.017 151.648 192C156.42 191.926 152.91 198.859 151.648 199.636C148.45 199.563 147.597 197.143 146.194 195.273C143.678 194.939 144.982 198.424 142.921 198.545C139.112 198.355 137.432 196.035 136.376 193.091C134.295 193.556 134.401 196.208 130.921 195.273C130.312 192.247 127.168 191.753 126.558 188.727C123.846 192.375 120.402 189.85 118.921 186.545C116.134 185.369 115.103 191.242 113.467 187.636C110.185 188.736 111.534 185.206 111.285 183.273C107.924 182.457 109.955 187.033 105.831 185.455C104.004 183.645 104.962 179.05 104.74 175.636C93.535 190.547 75.3954 188.024 58.9216 189.818C55.0588 190.683 57.234 197.584 51.2853 196.364C50.6177 192.267 53.3482 184.125 48.0126 187.636C47.4901 179.361 45.8406 175.342 45.8308 170.182C45.5679 167.369 43.9534 171.68 41.4672 170.182C40.7592 166.201 42.2025 164.372 43.649 162.545C42.8537 159.841 40.3665 166.148 38.1945 162.545C40.1766 159.801 40.1756 155.072 44.7399 154.909C42.2145 151.586 46.8006 148.087 50.1944 147.273C49.7111 146.301 49.2366 145.322 48.0126 145.091C50.0351 140.932 56.8991 141.613 58.9216 137.455C53.7137 133.828 49.8399 138.337 42.5581 134.182C37.1996 131.124 30.964 120.634 21.8309 114.545C18.0629 112.033 13.9022 112.402 10.9219 110.182C4.12989 105.124 0.360818 96.6786 0.0128196 87.2727C-0.197725 81.5771 2.25572 76.2906 2.19463 70.9091C2.08445 61.3047 0.859361 54.5891 12.0128 51.2727C12.5211 42.6905 17.1564 38.2342 24.0127 36C26.7214 35.8364 28.54 36.564 29.4672 38.1818C33.1523 34.2305 31.1145 24.5564 41.4672 27.2727C41.8152 24.3796 35.3559 28.2938 37.1036 24C39.677 23.1665 44.6428 21.8498 46.9217 24C50.0657 21.6895 50.297 16.4662 53.4671 14.1818C61.5376 14.9804 66.7914 12.9611 74.1943 13.0909C78.6223 16.6625 81.3703 21.9153 88.3761 22.9091C95.9328 10.932 116.155 18.0676 116.74 31.6364C132.657 28.3429 135.503 49.6735 128.74 58.9091C131.251 73.968 132.279 92.844 126.558 104.727C131.994 104.709 129.499 96.7593 135.285 97.0909C134.209 101.919 135.117 99.9447 136.376 103.636C130.938 105.223 129.534 104.055 126.558 111.273C123.77 111.152 124.392 107.619 124.376 104.727C121.346 107.411 122.664 116.882 116.74 113.455C117.49 117.841 115.694 119.683 115.649 123.273C113.321 123.782 113.57 121.714 113.467 120C110.98 121.513 113.06 127.594 112.376 130.909C124.772 116.193 142.365 103.155 165.83 106.909C142.973 111.686 126.786 117.088 114.558 133.091C114.694 135.501 119.185 133.555 121.103 134.182C124.326 133.234 118.572 132.549 120.012 129.818C123.941 129.526 125.269 131.834 128.74 132C130.268 131.614 128.833 130.079 127.649 129.818C135.587 124.212 145.043 130.564 150.558 125.455C155.716 124.659 157.729 127.01 160.376 128.727C161.127 125.795 158.121 126.619 157.103 125.455C158.542 119.2 166.502 126.183 168.012 120C171.095 119.099 170.839 121.537 173.467 121.091C170.664 119.709 171.266 117.404 175.648 117.818C175.165 116.846 174.691 115.868 173.467 115.636C176.968 112.593 182.813 111.891 189.83 112.364C197.388 128.088 225.835 119.649 233.466 110.182C235.085 109.705 233.035 108.787 233.466 106.909C242.594 101.128 241.475 85.0985 247.648 76.3636C243.634 70.8371 238.854 76.7978 235.648 78.5455C236.388 73.7411 239.079 62.592 233.466 61.0909C237.114 67.2513 234.912 73.5425 234.557 79.6364C230.988 82.9647 226.995 83.0836 222.557 80.7273C214.865 84.2629 213.622 94.776 207.285 100.364C202.608 104.486 193.894 108.621 187.648 109.091C186.117 109.205 181.239 110.825 181.103 106.909C202.428 105.237 216.539 93.3196 212.739 69.8182C216.003 96.2116 189.831 113.023 166.921 102.545C183.3 100.379 201.915 100.449 205.103 85.0909C207.059 84.9524 207.404 86.4262 209.466 86.1818C205.909 84.0316 206.874 83.6793 207.285 78.5455C201.912 97.9865 183.087 101.726 159.285 100.364C158.977 98.6018 160.316 98.4851 160.376 97.0909C154.406 100.096 145.044 97.152 141.83 104.727C139.165 104.031 141.666 99.6273 142.921 99.2727C142.183 96.8858 139.296 101.34 138.558 102.545C136.41 99.6131 142.361 95.4807 146.194 94.9091C146.333 96.8651 144.859 97.2098 145.103 99.2727C151.317 98.2255 144.093 93.7429 146.194 87.2727C144.481 87.7418 145.262 90.7047 141.83 89.4546C132.446 73.6909 135.157 41.7196 147.285 31.6364C154.256 28.0615 161.002 24.2629 169.103 21.8182C179.131 27.5465 166.694 33.9022 165.83 41.4545C178.476 34.884 190.396 5.85818 212.739 24C213.047 25.7618 211.708 25.8785 211.648 27.2727C223.193 29.7633 242.904 33.756 234.557 49.0909C220.032 47.9804 222.015 30.36 205.103 31.6364C208.953 34.6691 212.876 32.7011 217.103 36C222.393 40.128 222.861 51.4364 231.285 52.3636C235.589 51.9415 236.305 47.9291 238.921 45.8182C247.632 52.0156 256.91 57.6469 260.739 68.7273C265.084 66.48 270.059 68.388 274.921 68.7273C281.013 64.1575 285.967 53.0258 282.557 42.5455C272.678 44.064 269.8 43.056 260.739 41.4545C259.519 37.0985 253.011 31.8545 246.557 29.4545C245.736 25.3604 250.724 27.0764 250.921 24C246.8 15.3807 240.818 10.5862 240.012 1.09091C246.629 2.35418 250.995 -0.771273 254.193 3.27273C255.212 2.47309 255.846 1.28945 256.375 0C260.114 2.74473 266.324 0.989455 269.466 2.18182C272.658 3.39273 272.186 6.13091 273.83 6.54545C275.025 6.84655 279.368 0.861818 278.193 6.54545C280.418 5.86145 278.5 1.03309 282.557 2.18182C284.222 7.08764 288.569 12.5618 293.466 10.9091C296.531 17.6618 301.713 22.2982 303.284 30.5455C305.638 28.9865 308.393 29.9607 310.921 28.3636C319.833 22.7335 317.287 8.27782 332.739 8.72727C343.339 9.036 346.159 18.0764 354.557 26.1818C365.904 25.8164 375.137 30.8858 384.011 31.6364C386.436 31.8415 392.778 32.1709 394.92 31.6364C400.261 30.3033 404.074 25.3538 408.011 24C408.867 23.7055 410.827 21.9087 411.284 21.8182C412.482 21.5804 413.188 23.9465 414.556 24C417.02 24.096 420.032 19.0255 422.193 22.9091C425.029 22.4727 425.483 19.6538 428.738 19.6364C428.738 20.7273 428.738 21.8182 428.738 22.9091C435.262 18.2269 443.982 22.1095 452.738 16.3636C447.027 22.896 446.87 28.4553 439.647 32.7273C440.585 33.6076 440.295 35.7153 441.829 36C439.792 40.5087 436.52 43.7815 432.011 45.8182C433.332 50.784 424.079 51.0687 425.465 56.7273C417.256 57.972 413.423 63.5935 404.738 64.3636C407.78 71.8964 405.454 83.8505 396.011 85.0909ZM403.647 67.6364C402.848 62.9542 405.086 76.0636 403.647 67.6364V67.6364ZM257.466 25.0909C256.187 26.7207 252.934 26.376 253.103 29.4545C261.984 36.7429 272.169 40.1542 284.739 41.4545C285.425 37.0495 290.089 36.6229 291.284 32.7273C278.031 31.4138 262.688 20.8865 256.375 14.1818C253.559 13.308 247.128 10.4105 249.83 7.63636C261.721 19.0178 279.205 24.8062 294.557 32.7273C295.481 31.1062 298.07 31.1487 300.011 30.5455C298.197 24.36 293.99 20.568 291.284 15.2727C288.05 17.3673 285.402 9.55527 281.466 8.72727C280.82 13.7902 276.081 8.43709 273.83 10.9091C266.293 1.44436 255.277 6.84327 244.375 3.27273C246.763 13.3996 252.307 16.3233 257.466 25.0909ZM326.193 19.6364C340.593 16.584 343.801 29.6727 351.284 28.3636C343.712 20.9651 322.514 10.3571 316.375 26.1818C321.511 24.3316 321.56 20.6182 326.193 19.6364ZM50.1944 26.1818C58.5878 28.3931 57.1129 20.736 63.2853 20.7273C64.7351 20.568 67.3445 24.396 67.6489 21.8182C65.7202 20.8385 64.4645 19.1847 62.1944 18.5455C56.7889 21.5618 54.7326 25.7935 48.0126 25.0909C41.1541 30.2324 45.6344 46.7127 41.4672 54.5455C44.7192 58.2033 46.8246 63.0065 51.2853 65.4545C52.901 60.5836 43.4461 58.2731 43.649 51.2727C50.129 46.2807 41.2086 30.0458 50.1944 26.1818ZM106.921 21.8182C105.63 21.4985 102.801 17.424 101.467 20.7273C104.011 19.7935 106.167 24.5422 106.921 21.8182ZM74.1943 34.9091C84.1739 36.2945 83.7659 49.2153 80.7397 57.8182C92.7833 45.2465 76.3314 33.5302 72.0125 24C71.3405 29.0356 74.4616 30.2782 74.1943 34.9091ZM114.558 38.1818C114.503 32.3913 111.149 24.1724 108.012 25.0909C111.975 27.6742 111.56 34.6342 114.558 38.1818ZM109.103 46.9091C111.73 42.7025 100.851 26.8407 96.0124 28.3636C102.416 32.5047 107.313 38.1545 109.103 46.9091ZM67.6489 33.8182C66.1293 31.6789 59.5958 29.8549 55.6489 29.4545C54.3431 29.3215 50.7464 28.6211 50.1944 30.5455C57.714 29.9335 60.7904 33.768 67.6489 33.8182ZM147.285 84C149.49 64.2186 162.085 41.4447 180.012 40.3636C182.439 40.2175 184.637 45.2531 186.557 40.3636C184.972 39.7669 180.92 41.6378 181.103 39.2727C183.73 36.5335 194.982 31.7105 193.103 31.6364C168.766 40.1695 147.02 53.0847 147.285 84ZM469.102 40.3636C473.473 36.7342 478.396 33.6578 483.283 30.5455C476.901 31.7989 471.783 34.3178 468.011 38.1818C467.434 42.3316 465.732 45.3578 464.738 49.0909C461.67 49.296 461.752 52.6505 459.284 53.4545C462.598 67.3778 460.709 72.4931 459.284 87.2727C461.594 89.3258 463.03 92.2549 463.647 96C464.633 93.312 461.422 86.0302 461.465 79.6364C461.481 77.5069 463.476 75.1942 463.647 73.0909C464.207 66.2531 459.778 59.8549 461.465 53.4545C463.387 52.4673 463.267 49.4389 465.829 49.0909C474.158 50.2953 476.257 60.6415 471.283 66.5455C474.802 66.7178 476.125 74.724 477.829 73.0909C473.005 67.9582 473.43 64.1389 481.102 62.1818C483.779 66.1233 485.299 79.5295 480.011 81.8182C478.193 81.6916 479.646 72.8989 477.829 76.3636C479.304 81.1735 474.926 85.7411 476.738 87.2727C481.28 83.0749 492.998 80.2789 490.92 73.0909C490.715 76.1596 489.023 77.7382 485.465 77.4545C484.896 65.6389 483.896 59.2735 478.92 53.4545C482.791 50.4164 486.135 46.8513 492.011 45.8182C498.158 48.4113 498.331 57.3142 493.102 61.0909C491.101 61.1476 489.408 55.5 487.647 58.9091C494.236 60.4975 489.755 66.3818 493.102 70.9091C492.961 68.9509 494.185 68.3564 496.374 68.7273C495.759 76.9975 510.403 75.7658 505.101 85.0909C501.84 87.6196 492.583 78.528 488.738 85.0909C506.156 84.7156 520.898 96.3491 537.829 89.4546C536.986 86.6673 542.097 84.4385 538.919 82.9091C533.028 93.1844 518.638 91.1236 508.374 86.1818C507.243 82.7029 510.446 80.8331 511.647 78.5455C512.331 77.2429 510.834 77.1458 511.647 75.2727C513.746 70.4356 518.656 71.6236 521.465 69.8182C520.243 70.6036 521.006 67.104 522.556 67.6364C524.07 68.1567 525.669 71.4153 525.829 73.0909C524.596 77.676 520.665 79.5644 519.283 84C520.915 83.9793 523.745 88.0527 524.738 85.0909C520.569 82.3189 533.251 74.2756 525.829 67.6364C528.758 66.2018 531.627 64.7073 534.556 63.2727C533.729 59.4633 537.857 55.0364 534.556 52.3636C534.46 59.5407 531.019 63.372 525.829 65.4545C524.191 62.9487 523.206 48.4276 528.01 52.3636C525.814 43.7193 513.845 51.3971 512.738 41.4545C512.587 43.4858 512.02 45.1004 510.556 45.8182C508.641 44.0967 508.292 40.8087 505.101 40.3636C498.268 39.3491 497.583 44.4818 494.192 46.9091C492.56 39.6611 493.162 30.7167 485.465 32.7273C486.315 32.9684 486.733 33.6404 486.556 34.9091C480.18 36.5335 478.802 43.1553 474.556 46.9091C476.526 50.0836 480.836 59.8942 475.647 63.2727C475.934 57.0131 473.993 48.8236 468.011 45.8182C468.926 44.5516 469.45 42.8935 469.102 40.3636ZM291.284 51.2727C299.677 48.0207 307.75 38.6596 308.739 31.6364C305.273 40.5349 297.14 44.7655 291.284 51.2727ZM196.376 36C196.676 33.7538 200.439 34.9735 200.739 32.7273C197.846 31.7793 194.118 35.3913 196.376 36ZM60.0126 54.5455C63.4445 52.5229 64.1253 47.7491 64.3762 42.5455C61.374 38.2549 54.2744 30.2171 48.0126 36C49.1199 43.2753 48.509 62.6127 56.7398 55.6364C47.9122 54.8945 50.8381 42.0425 51.2853 37.0909C63.2678 35.9007 65.1234 47.1327 60.0126 54.5455ZM316.375 38.1818C313.335 41.8538 314.493 49.7869 312.011 56.7273C308.585 66.3098 299.734 69.3186 306.557 76.3636C306.511 67.5905 308.785 61.1367 314.193 57.8182C312.872 48.132 319.77 38.2058 327.284 33.8182C324.225 33.684 319.343 34.5949 316.375 38.1818ZM377.466 36C376.016 36.1593 373.406 32.3313 373.102 34.9091C374.555 34.7465 376.394 39.3447 377.466 36ZM69.8307 40.3636C69.9747 38.9302 69.9954 32.4709 68.7398 36C68.5958 37.4335 68.574 43.8927 69.8307 40.3636ZM289.102 51.2727C290.008 42.36 298.761 41.2953 303.284 36C296.203 38.0225 286.681 43.38 289.102 51.2727ZM309.83 39.2727C310.091 37.716 311.625 37.4324 312.011 36C309.764 35.0433 307.112 38.8287 309.83 39.2727ZM120.012 72C124.824 65.2004 132.462 47.4065 124.376 38.1818C130.678 49.2567 121.182 65.1916 120.012 72ZM144.012 66.5455C147.264 58.8785 150.911 45.8204 150.558 38.1818C148.683 47.2265 144.263 59.5124 144.012 66.5455ZM187.648 40.3636C189.525 40.4225 190.444 39.5236 190.921 38.1818C189.045 38.1229 188.124 39.0218 187.648 40.3636ZM68.7398 55.6364C74.935 54.54 79.5965 46.1553 76.3761 39.2727C76.5997 47.4971 72.2787 51.1756 68.7398 55.6364ZM22.9218 77.4545C23.6833 84.3665 28.4876 91.7815 31.649 99.2727C37.3196 112.708 39.7119 123.011 50.1944 124.364C38.4803 117.528 32.5119 102.46 27.2854 87.2727C21.3291 69.9622 26.9189 56.8658 30.5581 40.3636C18.6891 38.3127 19.624 49.0658 14.1946 53.4545C21.9302 52.8262 18.5069 41.0389 28.3763 42.5455C27.6356 53.3356 21.4698 64.284 22.9218 77.4545ZM302.193 54.5455C292.918 59.9171 272.86 72.6371 289.102 84C287.547 78.9458 284.566 77.5364 284.739 73.0909C285.122 63.2553 296.686 64.1084 303.284 55.6364C304.923 53.532 305.6 49.9364 306.557 48C307.527 46.0364 309.915 43.8687 308.739 41.4545C307.021 46.2818 302.219 48.0262 302.193 54.5455ZM339.284 42.5455C334.526 47.2418 327.933 50.1044 328.375 60C327.763 62.0204 322.599 65.0171 325.102 66.5455C330.814 56.6215 333.194 43.3647 348.011 42.5455C345.102 42.5455 342.193 42.5455 339.284 42.5455ZM171.285 76.3636C175.169 66.2989 177.895 52.5807 190.921 51.2727C196.237 50.7393 205.05 52.6822 208.376 58.9091C208.986 56.6422 210.077 56.5975 211.648 57.8182C210.599 59.2985 209.54 69.9884 211.648 67.6364C210.375 57.1058 214.106 62.4164 217.103 62.1818C216.822 62.2036 218.148 60.2727 219.285 60C222.809 59.1567 227.742 60.0873 229.103 57.8182C210.548 63.0927 206.674 46.7182 186.557 50.1818C182.853 51.5684 182.425 56.232 177.83 56.7273C175.969 49.7433 183.695 46.6364 182.194 43.6364C175.699 50.9662 173.008 67.8982 171.285 76.3636ZM438.556 78.5455C434.872 66.8018 444.246 56.9335 442.92 48C440.041 56.0684 433.579 69.5804 438.556 78.5455ZM579.283 50.1818C579.636 51.7495 585.767 48.9425 581.465 49.0909C580.795 49.1138 579.088 49.3167 579.283 50.1818ZM111.285 75.2727C113.959 69.6775 111.34 52.1127 110.194 50.1818C110.135 61.2491 111.493 65.4895 111.285 75.2727ZM465.829 54.5455C466.806 54.3731 466.389 48.5127 464.738 52.3636C464.459 53.0138 465.184 54.6589 465.829 54.5455ZM230.194 58.9091C230.921 58.9091 231.648 58.9091 232.375 58.9091C232.438 59.5745 232.538 60.2007 233.466 60C232.839 58.0822 234.784 53.5909 232.375 53.4545C231.263 54.888 231.305 57.4756 230.194 58.9091ZM81.8306 61.0909C92.8029 63.8945 100.385 72.1233 106.921 75.2727C101.562 64.1804 65.9416 52.9429 55.6489 60C55.0097 69.8411 46.8464 79.7422 44.7399 87.2727C39.9116 104.533 49.7493 125.713 62.1944 125.455C58.4384 124.804 57.2427 115.917 54.558 117.818C55.5486 118.117 58.2213 121.883 55.6489 122.182C35.6843 108.007 51.0737 81.8771 55.6489 62.1818C57.8733 61.8611 57.7882 59.2298 60.0126 58.9091C67.9009 60.1615 74.1016 59.1164 81.8306 61.0909ZM315.284 70.9091C315.26 75.6698 317.164 71.0935 316.375 68.7273C316.375 66.1822 316.375 63.636 316.375 61.0909C317.805 61.0745 317.765 58.0647 316.375 57.8182C314.923 61.0931 315.266 66.1636 315.284 70.9091ZM336.011 64.3636C336.443 62.8516 342.204 61.2731 339.284 60C338.851 61.512 333.09 63.0905 336.011 64.3636ZM469.102 70.9091C471.408 67.9113 468.112 60.072 465.829 62.1818C468.638 63.372 466.783 69.2269 469.102 70.9091ZM58.9216 66.5455C63.4794 80.7796 51.4653 89.1949 52.3762 99.2727C55.314 87.6655 63.6147 81.42 61.1035 64.3636C69.7129 61.8731 60.1871 62.0258 58.9216 66.5455ZM98.1942 76.3636C81.475 79.2578 79.9412 61.1705 67.6489 63.2727C78.9037 65.8418 83.359 81.0087 98.1942 76.3636ZM186.557 74.1818C197.019 72.8727 198.848 69.6851 204.012 63.2727C198.214 66.9295 194.128 72.2978 186.557 74.1818ZM220.375 69.8182C225.634 71.076 223.302 64.7455 226.921 64.3636C230.185 66.3884 225.534 72.1811 228.012 73.0909C228.859 70.6658 230.304 68.8375 230.194 65.4545C226.51 61.8545 221.404 64.9004 220.375 69.8182ZM497.465 120C522.601 118.821 548.834 109.648 552.01 82.9091C556.581 81.6109 553.958 87.5073 556.374 88.3636C558.961 80.0345 554.533 74.9149 552.01 68.7273C552.913 104.903 528.04 115.303 497.465 120ZM269.466 74.1818C267.284 74.1818 265.103 74.1818 262.921 74.1818C263.681 79.6691 261.069 81.7855 261.83 87.2727C258.921 90.0775 258.057 95.1076 255.284 99.2727C253.052 102.625 246.375 106.044 249.83 108C255.88 107.296 258.685 99.2651 264.012 94.9091C269.778 90.1942 276.719 87.852 282.557 84C278.926 80.7218 275.923 76.8153 274.921 70.9091C272.312 71.5735 267.006 69.54 266.193 72C267.907 72.1036 269.976 71.8538 269.466 74.1818ZM310.921 73.0909C309.436 79.6745 305.699 93.6251 305.466 104.727C308.841 108.221 317.754 113.691 318.557 108C298.566 110.645 311.656 87.5978 310.921 73.0909ZM430.92 84C431.455 85.5753 430.689 87.7953 430.92 89.4546C431.976 97.0331 437.721 105.156 441.829 109.091C442.619 104.11 438.812 104.314 436.375 99.2727C431.419 89.0247 433.672 73.2011 423.284 72C426.393 75.7091 429.043 78.468 430.92 84ZM465.829 76.3636C465.829 79.2731 465.829 82.1815 465.829 85.0909C466.631 86.5222 468.834 74.376 466.92 73.0909C466.749 74.3749 467.107 76.1869 465.829 76.3636ZM15.2855 89.4546C18.2691 90.4702 19.9382 92.8026 22.9218 93.8182C23.6505 98.544 27.9705 99.6786 28.3763 104.727C30.9672 101.71 24.9051 98.064 25.1036 93.8182C22.348 91.1193 18.4862 89.5266 16.3764 86.1818C15.5942 81.84 12.6739 73.9287 8.74005 76.3636C13.7658 77.8833 15.3138 82.8807 15.2855 89.4546ZM108.012 78.5455C107.961 74.8811 110.982 89.0913 108.012 78.5455V78.5455ZM102.558 122.182C103.03 124.123 105.709 130.107 108.012 128.727C104.36 122.647 102.917 115.051 103.649 109.091C105.054 97.6593 119.716 90.9556 115.649 79.6364C112.201 91.8196 98.2378 104.438 102.558 122.182ZM302.193 109.091C306.91 111.647 311.293 114.537 315.284 117.818C326.799 116.121 330.72 122.018 341.466 121.091C342.505 119.499 348.724 117.556 345.829 115.636C338.55 121.946 332.118 117.132 326.193 115.636C317.974 113.561 309.323 114.682 305.466 110.182C297.018 100.327 307.091 88.9724 304.375 79.6364C301.141 89.6902 299.542 100.753 302.193 109.091ZM439.647 81.8182C438.759 78.0425 437.411 88.1367 437.465 89.4546C437.768 96.8149 443.259 104.655 446.193 108C445.346 108.244 444.04 108.029 444.011 109.091C449.709 114.665 458.114 117.532 468.011 118.909C468.762 123.975 474.63 123.926 473.465 130.909C486.196 135.633 492.988 146.295 506.192 150.545C499.716 140.986 479.905 136.954 474.556 127.636C472.764 124.515 475.394 121.003 472.374 121.091C472.695 118.867 475.326 118.952 475.647 116.727C472.229 115.781 469.623 114.024 468.011 111.273C470.455 105.411 472.103 91.4029 466.92 87.2727C468.925 96.0076 467.797 106.648 465.829 114.545C467.109 116.174 470.362 115.831 470.193 118.909C453.639 112.918 436.885 107.125 439.647 81.8182ZM488.738 87.2727C486.016 83.6913 470.319 91.7498 473.465 91.6364C477.483 90.6982 488.195 86.5571 488.738 87.2727ZM223.648 156C224.878 153.364 229.226 153.181 230.194 156C234.49 148.755 239.754 155.9 245.466 150.545C245.638 151.829 245.279 153.643 246.557 153.818C250.613 152.177 256.318 143.841 259.648 148.364C261.352 145.192 263.898 140.664 267.284 145.091C267.852 140.931 269.691 138.043 271.648 135.273C273.16 135.941 271.812 139.473 273.83 139.636C275.461 134.871 273.963 131.205 274.921 127.636C276.422 127.589 277.316 128.15 278.193 128.727C279.334 122.626 277.308 119.359 280.375 114.545C271.578 107.323 283.688 99.18 281.466 88.3636C269.035 93.024 261.233 102.313 253.103 111.273C254.989 113.659 254.367 117.552 254.193 120C252.794 139.759 238.592 149.005 221.466 144C221.478 149.189 224.451 153.099 223.648 156ZM290.193 91.6364C288.27 91.9484 286.815 86.4993 285.83 89.4546C287.114 89.7818 288.568 95.2309 290.193 91.6364ZM535.647 93.8182C537.604 91.7749 542.343 92.5145 543.283 89.4546C541.577 87.4091 534.727 93.42 535.647 93.8182ZM556.374 100.364C556.22 97.2284 559.406 91.8578 556.374 89.4546C555.043 91.1062 554.233 98.8516 556.374 100.364ZM447.284 96C446.754 94.7105 446.121 93.5269 445.102 92.7273C444.933 94.1858 446.816 98.7415 447.284 96ZM450.556 102.545C450.468 99.9218 455.631 112.36 450.556 102.545V102.545ZM464.738 113.455C464.074 110.846 466.108 105.54 463.647 104.727C463.81 107.951 460.476 112.428 464.738 113.455ZM549.829 113.455C548.36 117.946 556.554 101.108 553.101 106.909C551.358 108.439 550.314 110.667 549.829 113.455ZM50.1944 128.727C52.049 128.973 52.8933 127.498 50.1944 127.636C41.6723 126.241 38.8839 121.703 34.9218 115.636C32.837 112.444 29.945 104.121 30.5581 108C33.5243 118.487 38.9548 126.512 50.1944 128.727ZM240.012 109.091C243.147 109.317 245.554 108.814 246.557 106.909C243.763 107.024 241.357 107.527 240.012 109.091ZM51.2853 111.273C51.3213 111.382 52.2748 111.185 52.3762 111.273C56.6166 117.254 48.7097 103.548 51.2853 111.273ZM80.7397 117.818C85.1743 123.213 90.391 133.607 97.1033 133.091C90.6528 125.723 82.6564 119.901 80.7397 108C80.7397 111.273 80.7397 114.545 80.7397 117.818ZM305.466 115.636C300.893 114.116 297.012 112.46 293.466 114.545C297.113 114.588 302.689 118.341 305.466 115.636ZM186.557 127.636C181.939 125.345 181.149 119.228 176.739 116.727C175.939 123.236 187.084 128.581 186.557 127.636ZM281.466 128.727C284.073 124.789 292.313 126.483 294.557 122.182C296.392 122.978 300.818 126.715 302.193 124.364C298.358 119.473 289.392 119.711 282.557 117.818C283.512 123.34 283.212 124.279 281.466 128.727ZM496.374 118.909C483.851 117.691 488.563 122.169 496.374 118.909V118.909ZM483.283 122.182C486.185 125.847 493.237 131.109 497.465 129.818C489.343 127.394 486.368 119.824 475.647 120C474.772 124.148 480.805 121.387 483.283 122.182ZM374.193 123.273C368.606 123.504 366.816 127.533 361.102 127.636C357.447 126.565 356.368 122.916 352.375 122.182C354.332 131.639 371.301 131.852 374.193 123.273ZM459.284 134.182C468.094 135.329 468.357 141.101 473.465 144C469.058 138.023 469.301 128.701 466.92 123.273C468.662 131.198 464.735 133.451 459.284 134.182ZM247.648 130.909C248.739 130.909 249.83 130.909 250.921 130.909C251.062 128.95 249.838 128.356 247.648 128.727C247.648 129.455 247.648 130.181 247.648 130.909ZM334.92 134.182C340.693 135.191 347.721 131.759 345.829 128.727C343.388 131.741 338.331 132.137 334.92 134.182ZM490.92 130.909C487.88 131.317 484.282 126.754 482.192 129.818C485.022 129.619 489.498 133.305 490.92 130.909ZM49.1035 157.091C49.1068 160.73 45.5548 160.815 45.8308 164.727C53.1431 163.681 48.3017 168.001 48.0126 171.273C50.0439 172.316 51.6584 168.005 52.3762 171.273C52.0424 174.575 49.001 175.169 50.1944 180C52.2573 180.245 52.602 178.771 54.558 178.909C57.0158 154.459 72.5939 143.127 91.6488 135.273C88.2059 135.806 87.7968 133.307 84.0124 134.182C83.8412 135.466 84.2001 137.279 82.9215 137.455C74.5128 135.761 68.4136 136.351 60.0126 136.364C62.5838 137.429 66.9322 136.716 66.558 140.727C61.9795 138.248 58.6195 141.769 54.558 142.909C55.8606 149.971 47.9908 146.179 51.2853 152.727C45.5548 155.34 43.1352 158.456 49.1035 157.091ZM116.74 138.545C113.949 139.98 109.887 139.511 112.376 136.364C108.277 135.538 108.685 139.219 106.921 140.727C111.717 137.377 115.474 145.427 116.74 138.545ZM226.921 141.818C226.735 140.186 227.31 137.793 225.83 137.455C224.413 138.904 224.392 141.514 226.921 141.818ZM466.92 141.818C466.635 138.411 459.448 136.271 457.102 138.545C460.611 139.4 464.333 140.041 466.92 141.818ZM200.739 139.636C197.064 136.323 197.432 143.669 200.739 139.636V139.636ZM101.467 147.273C108.521 146.339 106.916 144.734 100.376 146.182C98.5586 144.014 100.474 144.795 100.376 141.818C73.3619 136.828 55.1831 163.847 55.6489 189.818C57.7991 186.877 60.6126 184.6 64.3762 183.273C64.5474 184.557 64.1885 186.37 65.4671 186.545C70.1961 180.684 76.4099 183.907 81.8306 183.273C81.8175 184.714 79.9194 184.27 79.6488 185.455C85.5244 186.178 88.8681 176.655 92.7397 182.182C96.4608 180.812 95.7418 175.003 101.467 175.636C100.093 170.464 96.5317 167.481 96.0124 161.455C96.5295 164.881 94.652 165.912 92.7397 166.909C90.7291 159.588 96.8447 151.539 101.467 147.273ZM541.101 146.182C545.138 146.781 545.027 147.192 550.919 147.273C555.213 154.833 559.386 161.157 560.738 169.091C562.371 167.087 565.291 166.371 566.192 163.636C562.979 163.212 564.059 158.496 561.829 157.091C561.587 157.941 560.914 158.36 559.647 158.182C558.975 151.366 549.989 147.77 553.101 140.727C548.322 141.767 543.057 142.319 541.101 146.182ZM186.557 141.818C183.244 145.493 190.591 145.126 186.557 141.818V141.818ZM423.284 153.818C398.015 162.195 373.316 161.581 352.375 144C354.084 150.653 358.668 154.433 362.193 159.273C362.316 157.942 362.519 156.691 364.375 157.091C368.228 163.332 373.576 162.941 377.466 170.182C381.683 166.748 383.732 174.783 387.284 175.636C387.407 174.305 387.61 173.054 389.466 173.455C394.241 176.707 399.311 173.555 403.647 177.818C405.708 177.697 404.404 174.212 406.92 174.545C410.011 179.149 415.87 174.266 422.193 175.636C423.236 173.605 418.926 171.991 422.193 171.273C424.882 171.129 427.449 171.108 428.738 172.364C426.879 166.504 432.495 168.121 436.375 168C436.619 165.937 435.145 165.593 435.284 163.636C441.221 163.756 440.425 157.141 446.193 157.091C447.094 154.008 444.656 154.264 445.102 151.636C446.688 149.95 450.686 150.675 453.829 150.545C453.18 142.987 465.256 148.155 468.011 144C448.845 135.891 435.888 149.639 423.284 153.818ZM465.829 148.364C466.539 154.259 462.196 161.366 466.92 164.727C468.744 161.589 471.337 166.752 471.283 169.091C476.191 165.563 476.376 169.803 481.102 171.273C485.386 172.605 489.932 170.125 493.102 173.455C496.284 168.238 501.58 174.495 506.192 174.545C506.363 173.261 506.005 171.448 507.283 171.273C515.089 177.341 526.056 170.811 533.465 174.545C533.406 172.668 534.305 171.749 535.647 171.273C539.081 176.256 544.012 173.035 546.556 178.909C547.829 174.728 553.169 174.613 555.283 171.273C554.329 168.583 554.234 163.515 555.283 160.364C553.321 158.455 547.002 157.627 552.01 154.909C550.721 152.198 545.105 153.814 544.374 150.545C545.658 150.375 547.471 150.733 547.647 149.455C542.926 149.447 540.724 146.923 535.647 147.273C532.948 152.21 527.398 154.297 522.556 157.091C531.906 159.748 548.761 160.693 545.465 172.364C539.169 162.659 527.517 158.312 510.556 159.273C501.202 151.293 483.089 157.888 476.738 146.182C472.593 146.4 468.975 147.147 465.829 148.364ZM341.466 165.818C343.528 165.335 348.04 167.302 346.92 163.636C344.214 163.476 341.626 163.432 341.466 165.818ZM557.465 173.455C556.441 179.339 549.674 179.482 546.556 183.273C540.572 175.607 528.12 174.277 523.647 184.364C541.571 188.727 555.671 192.76 570.556 184.364C570.726 185.648 570.368 187.461 571.647 187.636C576.286 185.825 580.672 179.204 584.738 178.909C584.837 178.901 586.076 181.595 586.919 181.091C589.922 179.299 592.455 176.049 593.465 171.273C591.426 170.402 589.47 169.45 586.919 169.091C585.2 169.19 586.065 171.874 583.647 171.273C577.442 165.937 574.748 170.511 569.465 164.727C567.682 169.853 563.344 172.426 557.465 173.455Z" fill="#FFB4AB"/>
<path fill-rule="evenodd" clip-rule="evenodd" d="M403.647 67.6364C402.848 62.9542 405.086 76.0637 403.647 67.6364V67.6364Z" fill="#553D67"/>
<path fill-rule="evenodd" clip-rule="evenodd" d="M81.8304 18.5454C82.4271 17.4022 88.1576 19.4825 90.5576 17.4545C90.4703 20.7753 83.4253 20.0116 81.8304 18.5454Z" fill="#FFB4AB"/>
<path fill-rule="evenodd" clip-rule="evenodd" d="M316.375 26.1818C322.514 10.3571 343.712 20.9651 351.284 28.3636C343.802 29.6727 340.593 16.584 326.193 19.6364C321.56 20.6182 321.511 24.3316 316.375 26.1818Z" fill="#553D67"/>
<path fill-rule="evenodd" clip-rule="evenodd" d="M43.6487 51.2727C43.4458 58.2731 52.9006 60.5837 51.285 65.4546C46.8243 63.0066 44.7188 58.2033 41.4669 54.5455C45.6341 46.7127 41.1538 30.2324 48.0123 25.0909C54.7323 25.7935 56.7886 21.5618 62.194 18.5455C64.4642 19.1847 65.7198 20.8386 67.6486 21.8182C67.3442 24.396 64.7348 20.568 63.2849 20.7273C57.1126 20.736 58.5875 28.3931 50.1941 26.1818C41.2083 30.0458 50.1286 46.2807 43.6487 51.2727Z" fill="#553D67"/>
<path fill-rule="evenodd" clip-rule="evenodd" d="M101.467 20.7273C102.801 17.424 105.63 21.4985 106.921 21.8182C106.166 24.5422 104.011 19.7935 101.467 20.7273Z" fill="#553D67"/>
<path fill-rule="evenodd" clip-rule="evenodd" d="M108.012 25.0909C111.149 24.1724 114.503 32.3913 114.558 38.1818C111.56 34.6342 111.974 27.6742 108.012 25.0909Z" fill="#553D67"/>
<path fill-rule="evenodd" clip-rule="evenodd" d="M96.0123 28.3636C100.85 26.8407 111.73 42.7025 109.103 46.9091C107.313 38.1545 102.416 32.5047 96.0123 28.3636Z" fill="#553D67"/>
<path fill-rule="evenodd" clip-rule="evenodd" d="M193.103 31.6364C194.982 31.7105 183.73 36.5334 181.103 39.2727C180.919 41.6378 184.972 39.7669 186.557 40.3636C184.637 45.2531 182.439 40.2174 180.012 40.3636C162.085 41.4447 149.489 64.2185 147.285 84C147.02 53.0847 168.766 40.1694 193.103 31.6364Z" fill="#553D67"/>
<path fill-rule="evenodd" clip-rule="evenodd" d="M468.01 45.8182C473.993 48.8237 475.934 57.0131 475.647 63.2727C480.836 59.8942 476.526 50.0837 474.556 46.9091C478.802 43.1553 480.179 36.5335 486.556 34.9091C486.732 33.6404 486.315 32.9684 485.465 32.7273C493.161 30.7167 492.56 39.6611 494.192 46.9091C497.583 44.4818 498.268 39.3491 505.101 40.3637C508.292 40.8087 508.641 44.0967 510.556 45.8182C512.02 45.1004 512.587 43.4858 512.737 41.4546C513.845 51.3971 525.814 43.7193 528.01 52.3637C523.206 48.4277 524.191 62.9487 525.828 65.4546C531.019 63.372 534.46 59.5407 534.556 52.3637C537.857 55.0364 533.729 59.4633 534.556 63.2727C531.626 64.7073 528.757 66.2018 525.828 67.6364C533.251 74.2757 520.569 82.3189 524.737 85.0909C523.745 88.0527 520.915 83.9793 519.283 84C520.665 79.5644 524.596 77.676 525.828 73.0909C525.669 71.4153 524.07 68.1567 522.556 67.6364C521.005 67.104 520.243 70.6037 521.465 69.8182C518.656 71.6237 513.745 70.4357 511.647 75.2727C510.834 77.1458 512.331 77.2429 511.647 78.5455C510.445 80.8331 507.243 82.7029 508.374 86.1818C518.638 91.1237 533.027 93.1844 538.919 82.9091C542.097 84.4386 536.986 86.6673 537.828 89.4546C520.897 96.3491 506.156 84.7157 488.738 85.0909C492.583 78.528 501.839 87.6197 505.101 85.0909C510.403 75.7658 495.759 76.9975 496.374 68.7273C494.184 68.3564 492.96 68.9509 493.101 70.9091C489.754 66.3818 494.236 60.4975 487.647 58.9091C489.407 55.5 491.1 61.1477 493.101 61.0909C498.331 57.3142 498.157 48.4113 492.01 45.8182C486.135 46.8513 482.791 50.4164 478.919 53.4546C483.896 59.2735 484.895 65.6389 485.465 77.4546C489.022 77.7382 490.714 76.1597 490.919 73.0909C492.998 80.2789 481.28 83.0749 476.738 87.2727C474.926 85.7411 479.303 81.1735 477.828 76.3637C479.646 72.8989 478.193 81.6917 480.01 81.8182C485.299 79.5295 483.778 66.1233 481.101 62.1818C473.43 64.1389 473.005 67.9582 477.828 73.0909C476.124 74.724 474.801 66.7178 471.283 66.5455C476.256 60.6415 474.158 50.2953 465.829 49.0909C463.267 49.4389 463.387 52.4673 461.465 53.4546C459.777 59.8549 464.206 66.2531 463.647 73.0909C463.475 75.1942 461.48 77.5069 461.465 79.6364C461.421 86.0302 464.633 93.312 463.647 96C463.029 92.2549 461.594 89.3258 459.283 87.2727C460.709 72.4931 462.597 67.3778 459.283 53.4546C461.752 52.6506 461.67 49.296 464.738 49.0909C465.731 45.3578 467.433 42.3317 468.01 38.1818C471.783 34.3178 476.9 31.7989 483.283 30.5455C478.396 33.6578 473.473 36.7342 469.101 40.3637C469.449 42.8935 468.926 44.5517 468.01 45.8182ZM490.919 44.7273C491.116 39.8073 492.256 39.2804 489.828 36C482.67 36.7266 475.199 45.4538 478.919 50.1818C484.108 48.7647 486.499 43.992 490.919 44.7273ZM506.192 42.5455C500.977 42.4211 497.753 44.2877 496.374 48C498.442 51.3851 502.807 52.476 504.01 56.7273C501.843 56.7131 502.624 53.7502 499.647 54.5455C497.852 58.5698 493.664 60.1986 494.192 66.5455C502.467 66.9982 499.205 78.9873 509.465 77.4546C512.297 75.5586 511.675 70.2098 511.647 65.4546C510.355 63.8367 507.526 63.7571 506.192 62.1818C504.303 56.3946 510.908 49.284 506.192 42.5455ZM512.737 69.8182C520.27 71.9957 527.826 56.3913 521.465 48C519.146 50.9477 513.435 48.1037 511.647 46.9091C508.776 49.1302 508.133 53.5778 507.283 57.8182C512.135 58.9538 514.021 65.8037 512.737 69.8182Z" fill="#553D67"/>
<path fill-rule="evenodd" clip-rule="evenodd" d="M308.739 31.6364C307.75 38.6596 299.677 48.0207 291.284 51.2727C297.14 44.7654 305.273 40.5349 308.739 31.6364Z" fill="#553D67"/>
<path fill-rule="evenodd" clip-rule="evenodd" d="M200.739 32.7273C200.439 34.9735 196.675 33.7538 196.375 36C194.118 35.3913 197.846 31.7793 200.739 32.7273Z" fill="#553D67"/>
<path fill-rule="evenodd" clip-rule="evenodd" d="M51.285 37.0909C50.8377 42.0426 47.9119 54.8946 56.7395 55.6364C48.5086 62.6128 49.1195 43.2753 48.0123 36C54.2741 30.2171 61.3737 38.2549 64.3758 42.5455C64.1249 47.7491 63.4442 52.5229 60.0122 54.5455C65.1231 47.1328 63.2675 35.9008 51.285 37.0909Z" fill="#553D67"/>
<path fill-rule="evenodd" clip-rule="evenodd" d="M327.284 33.8182C319.77 38.2058 312.872 48.132 314.193 57.8182C308.784 61.1367 306.511 67.5905 306.557 76.3636C299.734 69.3185 308.585 66.3098 312.011 56.7273C314.493 49.7869 313.334 41.8538 316.375 38.1818C319.343 34.5949 324.225 33.684 327.284 33.8182Z" fill="#553D67"/>
<path fill-rule="evenodd" clip-rule="evenodd" d="M373.102 34.9091C373.406 32.3312 376.016 36.1592 377.466 36C376.394 39.3447 374.555 34.7465 373.102 34.9091Z" fill="#553D67"/>
<path fill-rule="evenodd" clip-rule="evenodd" d="M303.284 36C298.761 41.2953 290.007 42.36 289.102 51.2727C286.68 43.38 296.203 38.0225 303.284 36Z" fill="#553D67"/>
<path fill-rule="evenodd" clip-rule="evenodd" d="M124.375 38.1818C132.461 47.4066 124.824 65.2004 120.012 72C121.181 65.1916 130.678 49.2567 124.375 38.1818Z" fill="#553D67"/>
<path fill-rule="evenodd" clip-rule="evenodd" d="M150.557 38.1818C150.911 45.8204 147.264 58.8786 144.012 66.5455C144.263 59.5124 148.683 47.2266 150.557 38.1818Z" fill="#553D67"/>
<path fill-rule="evenodd" clip-rule="evenodd" d="M28.3758 42.5454C18.5064 41.0389 21.9297 52.8262 14.1941 53.4545C19.6235 49.0658 18.6886 38.3127 30.5577 40.3636C26.9184 56.8658 21.3286 69.9622 27.2849 87.2727C32.5115 102.46 38.4798 117.528 50.1939 124.364C39.7114 123.011 37.3191 112.708 31.6486 99.2727C28.4871 91.7814 23.6828 84.3665 22.9213 77.4545C21.4693 64.284 27.6351 53.3356 28.3758 42.5454Z" fill="#553D67"/>
<path fill-rule="evenodd" clip-rule="evenodd" d="M308.739 41.4545C309.915 43.8687 307.527 46.0363 306.557 48C305.6 49.9363 304.923 53.532 303.284 55.6363C296.686 64.1083 285.122 63.2553 284.739 73.0909C284.566 77.5363 287.547 78.9458 289.102 84C272.86 72.6371 292.918 59.9171 302.193 54.5454C302.219 48.0262 307.021 46.2818 308.739 41.4545Z" fill="#553D67"/>
<path fill-rule="evenodd" clip-rule="evenodd" d="M348.011 42.5455C333.193 43.3647 330.814 56.6215 325.102 66.5455C322.599 65.0171 327.763 62.0204 328.375 60C327.933 50.1044 334.525 47.2418 339.284 42.5455C342.193 42.5455 345.102 42.5455 348.011 42.5455Z" fill="#553D67"/>
<path fill-rule="evenodd" clip-rule="evenodd" d="M182.193 43.6364C183.695 46.6364 175.969 49.7433 177.83 56.7273C182.425 56.232 182.852 51.5684 186.557 50.1818C206.673 46.7182 210.547 63.0927 229.102 57.8182C227.742 60.0873 222.809 59.1567 219.284 60C218.147 60.2727 216.822 62.2036 217.102 62.1818C214.106 62.4164 210.375 57.1058 211.648 67.6364C209.539 69.9884 210.598 59.2985 211.648 57.8182C210.077 56.5974 208.986 56.6422 208.375 58.9091C205.05 52.6822 196.237 50.7393 190.921 51.2727C177.894 52.5807 175.169 66.2989 171.284 76.3636C173.008 67.8982 175.698 50.9662 182.193 43.6364Z" fill="#553D67"/>
<path fill-rule="evenodd" clip-rule="evenodd" d="M442.92 48C444.246 56.9335 434.872 66.8018 438.556 78.5455C433.578 69.5804 440.041 56.0684 442.92 48Z" fill="#553D67"/>
<path fill-rule="evenodd" clip-rule="evenodd" d="M60.0122 58.9091C57.7879 59.2298 57.8729 61.8611 55.6486 62.1818C51.0733 81.8771 35.684 108.007 55.6486 122.182C58.2209 121.883 55.5482 118.117 54.5577 117.818C57.2424 115.917 58.438 124.804 62.194 125.455C49.749 125.713 39.9112 104.533 44.7396 87.2727C46.8461 79.7422 55.0093 69.8411 55.6486 60C65.9413 52.9429 101.561 64.1804 106.921 75.2727C100.384 72.1233 92.8026 63.8945 81.8303 61.0909C74.1012 59.1164 67.9005 60.1615 60.0122 58.9091Z" fill="#553D67"/>
<path fill-rule="evenodd" clip-rule="evenodd" d="M339.284 60C342.204 61.2731 336.443 62.8516 336.011 64.3636C333.09 63.0905 338.851 61.512 339.284 60Z" fill="#553D67"/>
<path fill-rule="evenodd" clip-rule="evenodd" d="M465.829 62.1818C468.112 60.072 471.407 67.9112 469.101 70.9091C466.783 69.2269 468.638 63.372 465.829 62.1818Z" fill="#553D67"/>
<path fill-rule="evenodd" clip-rule="evenodd" d="M61.1032 64.3636C63.6144 81.42 55.3137 87.6654 52.3759 99.2727C51.465 89.1949 63.4792 80.7796 58.9214 66.5454C60.1868 62.0258 69.7126 61.873 61.1032 64.3636Z" fill="#553D67"/>
<path fill-rule="evenodd" clip-rule="evenodd" d="M67.6487 63.2727C79.941 61.1705 81.4748 79.2578 98.194 76.3636C83.3588 81.0087 78.9035 65.8418 67.6487 63.2727Z" fill="#553D67"/>
<path fill-rule="evenodd" clip-rule="evenodd" d="M204.012 63.2727C198.847 69.6851 197.019 72.8727 186.557 74.1818C194.128 72.2978 198.214 66.9294 204.012 63.2727Z" fill="#553D67"/>
<path fill-rule="evenodd" clip-rule="evenodd" d="M230.193 65.4545C230.304 68.8374 228.859 70.6658 228.012 73.0909C225.534 72.1811 230.185 66.3884 226.921 64.3636C223.302 64.7454 225.633 71.076 220.375 69.8182C221.404 64.9004 226.509 61.8545 230.193 65.4545Z" fill="#553D67"/>
<path fill-rule="evenodd" clip-rule="evenodd" d="M552.01 68.7273C554.532 74.9149 558.96 80.0346 556.374 88.3637C553.957 87.5073 556.581 81.6109 552.01 82.9091C548.833 109.648 522.6 118.821 497.465 120C528.04 115.303 552.912 104.903 552.01 68.7273Z" fill="#553D67"/>
<path fill-rule="evenodd" clip-rule="evenodd" d="M318.557 108C317.754 113.691 308.841 108.221 305.466 104.727C305.7 93.6251 309.436 79.6745 310.921 73.0909C311.656 87.5978 298.566 110.645 318.557 108Z" fill="#553D67"/>
<path fill-rule="evenodd" clip-rule="evenodd" d="M423.284 72C433.672 73.2011 431.419 89.0247 436.375 99.2727C438.812 104.314 442.619 104.11 441.829 109.091C437.721 105.156 431.976 97.0331 430.92 89.4545C430.689 87.7953 431.455 85.5753 430.92 84C429.043 78.468 426.393 75.7091 423.284 72Z" fill="#553D67"/>
<path fill-rule="evenodd" clip-rule="evenodd" d="M8.73956 76.3636C12.6734 73.9287 15.5937 81.84 16.3759 86.1818C18.4857 89.5265 22.3475 91.1193 25.1031 93.8182C24.9046 98.064 30.9667 101.71 28.3758 104.727C27.97 99.6785 23.65 98.544 22.9213 93.8182C19.9377 92.8025 18.2686 90.4702 15.285 89.4545C15.3134 82.8807 13.7654 77.8833 8.73956 76.3636Z" fill="#553D67"/>
<path fill-rule="evenodd" clip-rule="evenodd" d="M108.012 78.5455C107.961 74.8811 110.981 89.0913 108.012 78.5455V78.5455Z" fill="#553D67"/>
<path fill-rule="evenodd" clip-rule="evenodd" d="M115.648 79.6364C119.715 90.9556 105.053 97.6593 103.648 109.091C102.916 115.051 104.36 122.647 108.012 128.727C105.709 130.107 103.03 124.123 102.558 122.182C98.2375 104.438 112.201 91.8196 115.648 79.6364Z" fill="#553D67"/>
<path fill-rule="evenodd" clip-rule="evenodd" d="M304.375 79.6364C307.091 88.9724 297.018 100.327 305.466 110.182C309.323 114.682 317.974 113.561 326.193 115.636C332.117 117.132 338.549 121.946 345.829 115.636C348.723 117.556 342.505 119.499 341.465 121.091C330.72 122.018 326.798 116.121 315.284 117.818C311.292 114.537 306.91 111.647 302.193 109.091C299.542 100.753 301.14 89.6902 304.375 79.6364Z" fill="#553D67"/>
<path fill-rule="evenodd" clip-rule="evenodd" d="M470.192 118.909C470.361 115.831 467.108 116.174 465.828 114.545C467.796 106.648 468.924 96.0077 466.919 87.2728C472.102 91.4029 470.455 105.411 468.01 111.273C469.623 114.024 472.229 115.781 475.647 116.727C475.326 118.952 472.695 118.867 472.374 121.091C475.394 121.003 472.763 124.515 474.556 127.636C479.904 136.954 499.715 140.986 506.192 150.545C492.988 146.295 486.196 135.633 473.465 130.909C474.63 123.926 468.762 123.975 468.01 118.909C458.114 117.532 449.708 114.665 444.01 109.091C444.04 108.029 445.346 108.244 446.192 108C443.259 104.655 437.767 96.8149 437.465 89.4546C437.41 88.1368 438.759 78.0426 439.647 81.8182C436.885 107.125 453.639 112.918 470.192 118.909Z" fill="#553D67"/>
<path fill-rule="evenodd" clip-rule="evenodd" d="M654.555 85.0909C657.313 90.7888 645.008 90.7942 645.828 98.1819C641.46 90.8749 653.985 91.0888 654.555 85.0909Z" fill="#553D67"/>
<path fill-rule="evenodd" clip-rule="evenodd" d="M473.465 91.6364C470.319 91.7498 486.016 83.6913 488.737 87.2727C488.194 86.5571 477.483 90.6982 473.465 91.6364Z" fill="#553D67"/>
<path fill-rule="evenodd" clip-rule="evenodd" d="M221.466 144C238.592 149.005 252.794 139.759 254.193 120C254.367 117.552 254.989 113.659 253.102 111.273C261.233 102.313 269.035 93.024 281.466 88.3636C283.688 99.18 271.578 107.323 280.375 114.545C277.307 119.359 279.334 122.626 278.193 128.727C277.316 128.15 276.422 127.589 274.921 127.636C273.963 131.205 275.46 134.871 273.83 139.636C271.811 139.473 273.16 135.941 271.648 135.273C269.691 138.043 267.851 140.931 267.284 145.091C263.898 140.664 261.352 145.192 259.648 148.364C256.317 143.841 250.613 152.177 246.557 153.818C245.278 153.643 245.637 151.829 245.466 150.545C239.754 155.9 234.489 148.755 230.193 156C229.226 153.181 224.877 153.364 223.648 156C224.451 153.099 221.478 149.189 221.466 144Z" fill="#553D67"/>
<path fill-rule="evenodd" clip-rule="evenodd" d="M285.83 89.4545C286.815 86.4992 288.27 91.9483 290.193 91.6363C288.568 95.2309 287.114 89.7818 285.83 89.4545Z" fill="#553D67"/>
<path fill-rule="evenodd" clip-rule="evenodd" d="M543.283 89.4545C542.342 92.5145 537.604 91.7749 535.646 93.8182C534.727 93.42 541.577 87.4091 543.283 89.4545Z" fill="#553D67"/>
<path fill-rule="evenodd" clip-rule="evenodd" d="M445.101 92.7273C446.12 93.5269 446.754 94.7106 447.283 96C446.815 98.7415 444.932 94.1858 445.101 92.7273Z" fill="#553D67"/>
<path fill-rule="evenodd" clip-rule="evenodd" d="M450.556 102.545C450.468 99.9218 455.631 112.36 450.556 102.545V102.545Z" fill="#553D67"/>
<path fill-rule="evenodd" clip-rule="evenodd" d="M553.101 106.909C556.554 101.108 548.36 117.946 549.828 113.455C550.314 110.667 551.358 108.439 553.101 106.909Z" fill="#553D67"/>
<path fill-rule="evenodd" clip-rule="evenodd" d="M30.5576 108C29.9445 104.121 32.8365 112.444 34.9213 115.636C38.8834 121.703 41.6718 126.241 50.1939 127.636C52.8928 127.498 52.0485 128.973 50.1939 128.727C38.9543 126.512 33.5238 118.487 30.5576 108Z" fill="#553D67"/>
<path fill-rule="evenodd" clip-rule="evenodd" d="M52.3757 111.273C52.2743 111.185 51.3208 111.382 51.2848 111.273C48.7092 103.548 56.6161 117.254 52.3757 111.273Z" fill="#553D67"/>
<path fill-rule="evenodd" clip-rule="evenodd" d="M578.192 112.364C581.303 123.07 587.25 130.941 600.01 132C588.02 134.524 578.544 125.109 578.192 112.364Z" fill="#553D67"/>
<path fill-rule="evenodd" clip-rule="evenodd" d="M176.739 116.727C181.148 119.228 181.938 125.345 186.557 127.636C187.084 128.581 175.938 123.236 176.739 116.727Z" fill="#553D67"/>
<path fill-rule="evenodd" clip-rule="evenodd" d="M475.647 120C486.368 119.824 489.343 127.394 497.465 129.818C493.237 131.109 486.185 125.847 483.283 122.182C480.805 121.387 474.772 124.148 475.647 120Z" fill="#553D67"/>
<path fill-rule="evenodd" clip-rule="evenodd" d="M26.194 129.818C15.7137 128.244 30.8445 129.818 26.194 129.818V129.818Z" fill="#FFB4AB"/>
<path fill-rule="evenodd" clip-rule="evenodd" d="M345.829 128.727C347.721 131.759 340.693 135.191 334.92 134.182C338.33 132.137 343.388 131.741 345.829 128.727Z" fill="#553D67"/>
<path fill-rule="evenodd" clip-rule="evenodd" d="M482.192 129.818C484.281 126.754 487.88 131.317 490.919 130.909C489.498 133.305 485.022 129.619 482.192 129.818Z" fill="#553D67"/>
<path fill-rule="evenodd" clip-rule="evenodd" d="M51.285 152.727C47.9904 146.179 55.8602 149.971 54.5577 142.909C58.6191 141.769 61.9791 138.248 66.5576 140.727C66.9318 136.716 62.5834 137.429 60.0122 136.364C68.4132 136.351 74.5125 135.761 82.9212 137.455C84.1997 137.279 83.8408 135.466 84.0121 134.182C87.7964 133.307 88.2055 135.806 91.6484 135.273C72.5936 143.127 57.0155 154.459 54.5577 178.909C52.6017 178.771 52.2569 180.245 50.194 180C49.0006 175.169 52.042 174.575 52.3759 171.273C51.658 168.005 50.0435 172.316 48.0122 171.273C48.3013 168.001 53.1428 163.681 45.8304 164.727C45.5544 160.815 49.1064 160.73 49.1031 157.091C43.1348 158.456 45.5544 155.34 51.285 152.727Z" fill="#553D67"/>
<path fill-rule="evenodd" clip-rule="evenodd" d="M106.921 140.727C108.685 139.219 108.277 135.538 112.376 136.364C109.886 139.511 113.949 139.98 116.74 138.545C115.474 145.427 111.717 137.377 106.921 140.727Z" fill="#553D67"/>
<path fill-rule="evenodd" clip-rule="evenodd" d="M92.7396 166.909C94.6519 165.912 96.5294 164.881 96.0123 161.455C96.5316 167.481 100.093 170.464 101.467 175.636C95.7417 175.003 96.4606 180.812 92.7396 182.182C88.8679 176.655 85.5243 186.178 79.6487 185.455C79.9193 184.27 81.8174 184.714 81.8305 183.273C76.4098 183.907 70.196 180.684 65.467 186.545C64.1884 186.37 64.5473 184.557 64.3761 183.273C60.6124 184.6 57.799 186.877 55.6488 189.818C55.183 163.847 73.3618 136.828 100.376 141.818C100.474 144.795 98.5584 144.014 100.376 146.182C106.916 144.734 108.521 146.339 101.467 147.273C96.8446 151.539 90.729 159.588 92.7396 166.909Z" fill="#553D67"/>
<path fill-rule="evenodd" clip-rule="evenodd" d="M637.101 39.2727C636.923 40.5415 637.342 41.2135 638.192 41.4545C630.604 51.4724 610.191 50.1895 602.192 41.4545C601.523 44.4764 592.272 44.5527 590.192 42.5455C601.648 31.0102 624.337 38.4731 637.101 39.2727Z" fill="#FFB4AB"/>
<path fill-rule="evenodd" clip-rule="evenodd" d="M614.192 116.727C624.214 117.286 637.925 112.103 643.646 104.727C651.062 104.507 656.038 101.846 660.01 98.1818C674.768 101.043 667.085 119.479 667.646 129.818C661.408 132.989 655.47 130.716 648.01 132C638.742 133.595 630.958 139.909 622.919 139.636C617.309 139.447 609.405 135.807 605.465 133.091C599.338 128.867 594.763 120.673 589.101 115.636C596.22 117.608 603.146 119.772 613.101 118.909C604.003 116.372 591.712 117.026 585.828 111.273C585.02 120.093 599.635 122.912 601.101 133.091C603.694 135.226 607.138 136.509 608.737 139.636C605.219 141.38 602.004 145.724 597.828 146.182C592.564 146.759 571.31 137.932 568.374 133.091C562.602 123.574 572.127 116.101 573.828 105.818C578.262 105.937 580.639 107.489 584.737 110.182C583.981 109.301 583.039 107.194 584.737 106.909C584.176 103.107 577.611 105.309 573.828 104.727C575.879 98.8124 574.116 92.7491 572.738 87.2727C576.756 82.2011 579.453 75.8073 584.737 72C582.826 68.4382 586.509 62.5396 589.101 60C583.379 58.9364 587.665 49.7531 586.919 46.9091C587.8 45.9709 589.907 46.2611 590.192 44.7273C595.081 47.1895 598.548 43.9538 603.283 44.7273C607.396 45.3993 610.362 48.7375 615.283 49.0909C611.353 53.8887 601.652 52.9145 598.919 58.9091C606.53 58.1564 608.605 51.8684 617.465 52.3636C625.806 80.7142 607.669 100.477 585.828 105.818C590.521 109.691 600.64 102.735 605.465 99.2727C615.119 92.3455 619.704 80.3236 625.101 70.9091C635.611 68.1556 648.218 73.1793 657.828 68.7273C654.589 90.2945 625.861 62.1371 621.828 82.9091C627.212 69.0458 640.019 82.5578 649.101 80.7273C654.3 79.68 652.24 76.2425 657.828 74.1818C660.231 76.7149 657.612 80.376 656.737 82.9091C661.926 79.9996 661.554 70.4618 657.828 66.5455C651.4 68.5396 646.202 69.6284 640.374 69.8182C640.374 67.6364 640.374 65.4545 640.374 63.2727C637.966 64.1378 638.955 68.4011 636.01 68.7273C631.75 68.6236 631.691 64.3178 629.465 62.1818C626.713 63.6185 632.325 65.7633 631.646 68.7273C625.905 67.3495 625.178 70.9865 620.737 70.9091C621.262 65.2516 619.562 57.3709 621.828 53.4545C625.686 54.324 624.913 59.8233 628.374 61.0909C627.587 56.7862 624.385 54.8978 622.919 51.2727C630.929 46.608 641.854 49.9789 640.374 61.0909C651.748 62.2833 646.261 46.6145 651.283 41.4545C667.217 40.7335 674.546 50.892 672.01 65.4545C682.864 86.1655 659.857 96.3436 646.919 103.636C645.063 104.037 644.86 102.785 644.737 101.455C638.95 110.94 626.229 113.492 614.192 116.727ZM667.646 67.6364C667.822 66.876 667.264 61.2873 666.555 64.3636C665.596 68.5167 667.14 69.8269 667.646 67.6364ZM645.828 98.1818C645.008 90.7942 657.313 90.7887 654.555 85.0909C653.985 91.0887 641.46 90.8749 645.828 98.1818ZM600.01 132C587.251 130.941 581.303 123.07 578.192 112.364C578.544 125.109 588.02 134.524 600.01 132Z" fill="#FFB4AB"/>
<path fill-rule="evenodd" clip-rule="evenodd" d="M507.283 57.8182C508.133 53.5778 508.777 49.1302 511.647 46.9091C513.435 48.1037 519.147 50.9477 521.465 48C527.826 56.3913 520.27 71.9957 512.738 69.8182C514.022 65.8037 512.136 58.9538 507.283 57.8182Z" fill="#FFB4AB"/>
<path fill-rule="evenodd" clip-rule="evenodd" d="M381.829 57.8182C382.822 59.7349 385.651 59.8135 387.283 61.0909C387.867 65.3106 385.336 66.4167 386.192 70.9091C390.014 70.1498 388.77 64.3309 388.374 62.1818C397.685 59.9029 398.552 85.4018 388.374 82.9091C387.984 75.4189 385.264 76.8971 382.92 72C379.637 73.5218 385.188 77.6466 381.829 79.6364C377.965 77.5255 375.529 79.6637 370.92 79.6364C367.654 77.4491 368.966 70.6811 368.738 65.4546C372.264 66.6557 375.249 68.3989 378.556 69.8182C373.978 66.7615 371.512 61.5895 364.374 61.0909C363.624 64.0244 366.629 63.1997 367.647 64.3637C368.261 67.2633 363.16 69.9186 366.556 72C358.638 75.1713 356.296 63.3655 344.738 66.5455C350.221 58.9375 360.729 56.3553 374.193 56.7273C369.545 53.9378 360.804 56.3989 355.647 56.7273C360.42 52.4095 363.7 46.5982 368.738 42.5455C378.031 44.1611 384.527 48.5749 387.283 56.7273C387.684 61.3015 383.729 57.5062 381.829 57.8182ZM380.738 56.7273C373.751 55.4684 378.341 60.06 380.738 56.7273V56.7273Z" fill="#FFB4AB"/>
<path fill-rule="evenodd" clip-rule="evenodd" d="M225.83 88.3636C230.728 91.0451 238.004 86.7469 241.102 84C242.744 106.63 215.668 119.512 190.921 112.364C199.828 103.816 214.065 100.599 218.193 87.2727C220.821 86.8265 220.565 89.2647 223.648 88.3636C226.657 87.2629 218.649 86.4774 222.557 84C224.983 81.7025 227.817 85.1498 232.375 84C238.531 83.9749 237.242 76.5033 244.375 77.4545C241.108 84.0054 235.543 88.2589 225.83 88.3636Z" fill="#FFB4AB"/>
</svg>
