<svg width="73" height="72" viewBox="0 0 73 72" fill="none" xmlns="http://www.w3.org/2000/svg">
<path d="M37 71C56.33 71 72 55.33 72 36C72 16.67 56.33 0.999999 37 0.999999C17.67 1 2 16.67 2 36C2 55.33 17.67 71 37 71Z" fill="#9E2867" stroke="#916EAB" stroke-width="2"/>
<g style="mix-blend-mode:luminosity">
<path d="M50.6109 22.6077C57.379 20.5113 62.6383 21.024 66.2688 23.0027L64.305 27.619L68.5249 30.3447C66.6401 34.0184 62.6044 37.3989 55.8544 39.4897C52.8604 40.4171 52.3164 40.1665 49.636 40.3288C51.7692 42.1213 52.4697 42.3445 54.3713 45.0333C58.4593 50.8136 59.5962 55.9671 58.8336 60.0267L53.8304 59.588L52.5387 64.4383C48.4576 63.7833 43.9911 60.995 39.9141 55.2301C38.1057 52.6731 38.1763 52.079 37.1934 49.5834C36.1455 52.1634 36.1494 52.8977 34.1764 55.5346C29.9348 61.2034 25.3782 63.8758 21.2764 64.406L20.1481 59.5186L15.1298 59.7905C14.4924 55.712 15.7677 50.6083 19.998 44.9546C21.8743 42.4469 22.4619 42.3303 24.5348 40.6257C21.754 40.4277 21.0559 40.6582 17.9349 39.5992C11.2255 37.3224 7.27246 33.8205 5.5 30.0886L9.80583 27.5067L7.9961 22.8245C11.6833 20.9588 16.9379 20.5929 23.6294 22.8635C26.5974 23.8707 26.89 24.3928 29.154 25.8348C28.4832 23.1325 28.0479 22.5407 28.0921 19.2493C28.187 12.1733 30.3005 7.33664 33.3068 4.5L37.0963 7.79168L40.9961 4.62598C43.9123 7.55139 45.8845 12.429 45.7899 19.4861C45.7479 22.6162 45.3411 23.0554 44.6674 25.6513C47.0337 24.1792 47.4627 23.5829 50.6109 22.6077Z" fill="#851E17" stroke="#EDA197" stroke-width="0.8" stroke-linecap="round" stroke-linejoin="round"/>
<path d="M36.9014 23.3549L36.9649 18.6224" stroke="#EDA197" stroke-width="0.8" stroke-linecap="round" stroke-linejoin="round"/>
<path d="M34.3779 18.7156L35.3685 23.4284" stroke="#EDA197" stroke-width="0.8" stroke-linecap="round" stroke-linejoin="round"/>
<path d="M38.4473 23.475L39.5718 18.7789" stroke="#EDA197" stroke-width="0.8" stroke-linecap="round" stroke-linejoin="round"/>
<path d="M23.7759 32.6296L19.2886 31.1069" stroke="#EDA197" stroke-width="0.8" stroke-linecap="round" stroke-linejoin="round"/>
<path d="M18.5781 33.5922L23.3724 34.1077" stroke="#EDA197" stroke-width="0.8" stroke-linecap="round" stroke-linejoin="round"/>
<path d="M24.3685 31.1982L20.2437 28.679" stroke="#EDA197" stroke-width="0.8" stroke-linecap="round" stroke-linejoin="round"/>
<path d="M28.5521 47.9615L25.7153 51.7529" stroke="#EDA197" stroke-width="0.8" stroke-linecap="round" stroke-linejoin="round"/>
<path d="M27.8628 53.1959L29.8353 48.8018" stroke="#EDA197" stroke-width="0.8" stroke-linecap="round" stroke-linejoin="round"/>
<path d="M27.3726 46.9568L23.6987 50.0959" stroke="#EDA197" stroke-width="0.8" stroke-linecap="round" stroke-linejoin="round"/>
<path d="M44.6299 48.1626L47.364 52.0285" stroke="#EDA197" stroke-width="0.8" stroke-linecap="round" stroke-linejoin="round"/>
<path d="M49.4019 50.435L45.8267 47.2037" stroke="#EDA197" stroke-width="0.8" stroke-linecap="round" stroke-linejoin="round"/>
<path d="M43.3086 48.973L45.1629 53.4324" stroke="#EDA197" stroke-width="0.8" stroke-linecap="round" stroke-linejoin="round"/>
<path d="M49.79 32.955L54.3166 31.5529" stroke="#EDA197" stroke-width="0.8" stroke-linecap="round" stroke-linejoin="round"/>
<path d="M53.4282 29.1249L49.2461 31.522" stroke="#EDA197" stroke-width="0.8" stroke-linecap="round" stroke-linejoin="round"/>
<path d="M50.1528 34.4605L54.9727 34.0774" stroke="#EDA197" stroke-width="0.8" stroke-linecap="round" stroke-linejoin="round"/>
<path d="M39.5598 43.3224L34.103 43.2494L34.0966 43.7264L32.0485 43.699L32.1086 39.2253C31.5885 39.5027 31.0277 39.7626 30.426 40.0052L29.6289 38.4548C30.8562 37.9749 31.8867 37.42 32.7203 36.7902L30.2452 36.7571L30.2634 35.3984L34.1425 35.4503C34.3289 35.2215 34.5109 34.9685 34.6883 34.6914L31.0481 34.6427L31.0658 33.3201L35.3647 33.3776C35.4594 33.1475 35.5395 32.9318 35.605 32.7302L30.6838 32.6644L30.7028 31.2479L35.9496 31.3181C36.007 30.9959 36.0524 30.6689 36.0859 30.3368L38.154 30.4874C38.1215 30.752 38.0767 31.0381 38.0194 31.3457L43.3314 31.4168L43.3124 32.8334L37.682 32.758C37.6164 32.9692 37.5436 33.1851 37.4634 33.4057L42.8044 33.4771L42.7866 34.7997L39.624 34.7574C39.7891 35.0391 39.969 35.2969 40.1637 35.5309L43.6665 35.5777L43.6484 36.922L41.5859 36.8944C42.3693 37.488 43.2772 37.9748 44.3096 38.3549L43.1582 40.0093C42.6453 39.7518 42.1449 39.468 41.6568 39.1579L41.5942 43.8267L39.5533 43.7994L39.5598 43.3224ZM36.8812 34.7207C36.7375 34.9983 36.5917 35.2518 36.4439 35.4811L37.9782 35.5016C37.8561 35.2494 37.7413 34.9924 37.6338 34.7308L36.8812 34.7207ZM34.5845 37.5742L39.6866 37.6424C39.3864 37.3637 39.1196 37.1048 38.8864 36.8655L35.3836 36.8186C35.1242 37.0899 34.8579 37.3417 34.5845 37.5742ZM39.6066 39.8316L39.6187 38.9282L34.162 38.8552L34.1499 39.7586L39.6066 39.8316ZM34.1207 41.934L39.5774 42.007L39.5903 41.0458L34.1336 40.9728L34.1207 41.934Z" fill="#EDA197"/>
</g>
</svg>
