<svg width="72" height="72" viewBox="0 0 72 72" fill="none" xmlns="http://www.w3.org/2000/svg">
<path d="M36 71C55.33 71 71 55.33 71 36C71 16.67 55.33 0.999999 36 0.999999C16.67 1 1 16.67 1 36C1 55.33 16.67 71 36 71Z" fill="#9E2867" stroke="#916EAB" stroke-width="2"/>
<g clip-path="url(#clip0_780_836)">
<path d="M42.7619 14.1245C42.7338 14.1148 42.6963 14.1227 42.6316 14.1468C42.5609 14.1732 42.4875 14.1899 42.4684 14.1838C42.4492 14.1777 42.4047 14.1866 42.37 14.2037C42.3353 14.2209 42.261 14.248 42.2051 14.2641C42.1075 14.2923 41.7085 14.43 41.4679 14.5189C41.3511 14.5619 41.1105 14.6705 40.7651 14.8357C40.497 14.9642 39.9634 15.2823 39.7257 15.4554C39.6129 15.5374 39.4732 15.6344 39.4151 15.6708C39.2806 15.7546 38.8833 16.0665 38.8742 16.0948C38.8705 16.1066 38.7996 16.1728 38.7167 16.2419C38.4281 16.4817 37.5951 17.3672 37.4917 17.5432C37.4808 17.5623 37.4347 17.6214 37.3898 17.6752C37.1885 17.9146 36.7394 18.5592 36.5946 18.817C36.5729 18.8551 36.4486 19.074 36.3186 19.3034C36.1883 19.5322 36.0506 19.7842 36.0128 19.8623C35.975 19.9403 35.9241 20.0445 35.9001 20.0929C35.8014 20.293 35.6177 20.7259 35.3944 21.2861C35.2465 21.656 34.9031 22.7369 34.8345 23.0458C34.7813 23.2867 34.7393 23.3102 34.6883 23.1272C34.6702 23.062 34.597 22.893 34.5265 22.7513C34.4556 22.6098 34.3808 22.4547 34.3606 22.4066C34.3257 22.325 34.1724 22.049 33.7978 21.393C33.7112 21.2418 33.5974 21.0575 33.5452 20.9848C33.4932 20.9117 33.4335 20.8193 33.4125 20.7796C33.363 20.6852 33.079 20.2704 32.9446 20.0963C32.8869 20.0214 32.8257 19.9367 32.8081 19.9076C32.79 19.8784 32.7219 19.7929 32.6552 19.7176C32.5892 19.6419 32.5302 19.5666 32.5241 19.5498C32.5185 19.5327 32.4502 19.4568 32.3727 19.3808C32.2952 19.3049 32.2272 19.2296 32.221 19.2128C32.2 19.1553 31.9114 18.8286 31.7688 18.7013C31.6897 18.6305 31.5909 18.5344 31.5498 18.4873C31.4828 18.4118 31.382 18.3188 30.9471 17.9322C30.6787 17.6939 29.9776 17.1813 29.599 16.9463C28.9559 16.5466 28.3844 16.2895 27.5357 16.018C26.8449 15.7968 26.2261 15.6584 25.793 15.6289C25.7711 15.6272 25.7083 15.6211 25.6542 15.6149C25.3316 15.5789 25.335 15.5771 25.178 15.8612C25.1518 15.909 25.1204 15.9637 25.1091 15.9827C24.6967 16.6581 24.2745 17.9037 24.0725 19.0372C23.9659 19.6374 23.9358 20.8424 24.0106 21.52C24.0749 22.0984 24.0925 22.2344 24.1154 22.3327C24.1301 22.3935 24.1514 22.5297 24.1634 22.6351C24.185 22.8251 24.2848 23.2494 24.3196 23.2997C24.3298 23.3145 24.3519 23.4136 24.3691 23.5207C24.3863 23.6277 24.4088 23.7274 24.4195 23.7418C24.4297 23.7566 24.4575 23.8484 24.4807 23.9458C24.5041 24.0439 24.534 24.1488 24.5475 24.1804C24.561 24.2115 24.5947 24.3104 24.6226 24.4008C24.687 24.6111 24.8614 25.0826 24.9098 25.1776C24.9302 25.2176 24.971 25.3198 25.0006 25.4044C25.0298 25.489 25.1144 25.6885 25.1878 25.8465C25.5067 26.5313 25.6434 26.8159 25.6898 26.8915C25.7174 26.9358 25.8008 27.0864 25.8752 27.2261C25.9502 27.3655 26.0458 27.5229 26.0886 27.5753C26.2085 27.7228 26.165 27.7435 25.9376 27.6476C25.6459 27.5251 24.5653 27.1808 24.1779 27.0877C23.5917 26.9462 23.1323 26.8461 22.9119 26.811C22.8585 26.8026 22.7441 26.7839 22.6586 26.7697C22.573 26.7554 22.2878 26.7222 22.0257 26.6963C21.7633 26.6698 21.513 26.6448 21.4693 26.6405C21.1752 26.6097 20.3896 26.6037 20.0779 26.6297C20.0081 26.6352 19.9336 26.6389 19.9113 26.6366C19.7079 26.6193 18.5039 26.7874 18.1413 26.8844C18.0371 26.9121 17.9421 26.9317 17.9303 26.928C17.9019 26.9189 17.4178 27.063 17.2718 27.1239C17.2086 27.1503 17.0487 27.2087 16.9165 27.2534C16.6379 27.3474 16.0699 27.599 15.8101 27.7435C15.4757 27.93 15.2479 28.0636 15.1453 28.134C14.9338 28.279 14.5909 28.5251 14.5114 28.5885C14.466 28.6249 14.406 28.6681 14.3779 28.6845C14.3498 28.701 14.2928 28.75 14.2514 28.7929C14.2098 28.8362 14.1475 28.8926 14.1128 28.9184C14.0621 28.956 14.0592 28.9901 14.0978 29.0934C14.1242 29.1641 14.1409 29.2375 14.1348 29.2567C14.1287 29.2758 14.1377 29.3199 14.1547 29.355C14.1719 29.3897 14.199 29.464 14.2151 29.5199C14.2433 29.6176 14.3809 30.0165 14.4698 30.2572C14.5128 30.3739 14.6216 30.6146 14.7869 30.9596C14.9152 31.2281 15.2334 31.7617 15.4064 31.9993C15.4885 32.1122 15.5854 32.2518 15.6218 32.3099C15.7056 32.4444 16.0174 32.8418 16.0458 32.8508C16.0576 32.8546 16.1238 32.9255 16.1928 33.0083C16.4328 33.2965 17.3181 34.1299 17.4942 34.2334C17.5137 34.2444 17.5724 34.2904 17.6262 34.3353C17.8655 34.5365 18.5102 34.9856 18.768 35.1304C18.8061 35.1521 19.0249 35.2764 19.2544 35.4065C19.4832 35.5368 19.7352 35.6745 19.8132 35.7122C19.8913 35.75 19.9955 35.8009 20.044 35.8245C20.244 35.9236 20.6768 36.1073 21.237 36.3306C21.607 36.4785 22.6878 36.822 22.9967 36.8905C23.2377 36.9437 23.2612 36.9857 23.0782 37.0368C23.013 37.0548 22.8437 37.1275 22.7022 37.1985C22.5608 37.2695 22.4057 37.3443 22.3575 37.3644C22.276 37.3993 22 37.5526 21.344 37.9272C21.1928 38.0138 21.0086 38.1273 20.9358 38.1798C20.8627 38.2318 20.7703 38.2916 20.7306 38.3125C20.6362 38.362 20.2213 38.6461 20.0473 38.7805C19.9725 38.8377 19.8877 38.8994 19.8586 38.917C19.8295 38.9346 19.7444 39.0033 19.6687 39.0694C19.5933 39.136 19.5176 39.1948 19.5008 39.2009C19.4837 39.2065 19.4078 39.2749 19.3318 39.3523C19.256 39.4294 19.1806 39.4978 19.1639 39.5036C19.1064 39.5246 18.7796 39.8136 18.6522 39.9562C18.5815 40.0353 18.4854 40.1341 18.4383 40.1752C18.3628 40.2423 18.2698 40.3431 17.8832 40.778C17.6449 41.0463 17.1319 41.7473 16.897 42.1255C16.4976 42.7691 16.2406 43.3402 15.969 44.1894C15.7478 44.8801 15.6094 45.499 15.5799 45.932C15.5782 45.954 15.5722 46.0163 15.5659 46.0709C15.5299 46.3935 15.5281 46.39 15.8122 46.5471C15.86 46.5733 15.9147 46.6046 15.9336 46.6159C16.6097 47.028 17.8547 47.4505 18.9884 47.6521C19.5884 47.7591 20.7934 47.7893 21.4711 47.714C22.0494 47.6502 22.1853 47.6325 22.2837 47.6097C22.3444 47.595 22.4807 47.5736 22.5861 47.5616C22.776 47.5401 23.2004 47.4402 23.2509 47.405C23.2655 47.3953 23.3645 47.3731 23.4716 47.3559C23.5787 47.3387 23.6784 47.3163 23.6928 47.3055C23.7076 47.2953 23.7993 47.2675 23.8968 47.2444C23.9949 47.2209 24.0997 47.191 24.1313 47.1776C24.1625 47.164 24.2614 47.1303 24.3518 47.1025C24.5621 47.0381 25.0336 46.8636 25.1286 46.8152C25.1686 46.7949 25.2707 46.754 25.3554 46.7244C25.4401 46.6948 25.6394 46.6106 25.7976 46.5368C26.4823 46.2183 26.7668 46.0816 26.8425 46.0353C26.8867 46.0076 27.0374 45.9242 27.1771 45.8498C27.3165 45.7748 27.4739 45.6792 27.5263 45.6364C27.6738 45.5166 27.6944 45.56 27.5987 45.787C27.4762 46.0787 27.1318 47.1597 27.0383 47.547C26.8972 48.1334 26.7971 48.5928 26.7621 48.8127C26.7536 48.8665 26.7349 48.9809 26.7206 49.0665C26.7063 49.152 26.6733 49.4368 26.6473 49.6993C26.6208 49.9617 26.5958 50.2121 26.5915 50.2558C26.5608 50.5494 26.5548 51.335 26.5806 51.6471C26.5863 51.7165 26.5898 51.7914 26.5875 51.8137C26.5702 52.0172 26.7384 53.221 26.8354 53.5836C26.8631 53.6878 26.8827 53.7827 26.879 53.7945C26.8699 53.8232 27.014 54.3071 27.075 54.4531C27.1012 54.5166 27.1596 54.6765 27.2043 54.8087C27.2983 55.0873 27.5499 55.6553 27.6944 55.9151C27.8809 56.2495 28.0146 56.4771 28.085 56.5795C28.2301 56.791 28.4762 57.1339 28.5395 57.2135C28.5758 57.2591 28.6194 57.3209 28.636 57.3516C28.6526 57.3823 28.6985 57.4295 28.7371 57.4571C28.7762 57.4849 28.8206 57.5383 28.8358 57.5762C28.8512 57.6137 28.8852 57.6499 28.9109 57.6581C28.9366 57.6663 28.9853 57.6564 29.0195 57.6347C29.0539 57.6125 29.1209 57.5946 29.1689 57.5945C29.2163 57.5947 29.2811 57.5822 29.3124 57.5668C29.3437 57.5513 29.415 57.5261 29.4709 57.5099C29.5686 57.4815 29.9676 57.3439 30.2082 57.2551C30.3249 57.2122 30.5655 57.1037 30.9105 56.9384C31.179 56.81 31.7126 56.4918 31.9503 56.3187C32.0631 56.2367 32.2028 56.1398 32.2609 56.1031C32.3954 56.0194 32.7927 55.7077 32.8017 55.6794C32.8055 55.6677 32.8765 55.6011 32.9593 55.5321C33.2475 55.2921 34.0809 54.4069 34.1843 54.2309C34.1953 54.2113 34.2413 54.1526 34.2862 54.0989C34.4875 53.8595 34.9366 53.2149 35.0814 52.9571C35.1031 52.9189 35.2274 52.7001 35.3574 52.4707C35.4878 52.2418 35.6254 51.9899 35.6632 51.9118C35.701 51.8337 35.7519 51.7296 35.7755 51.681C35.8746 51.4811 36.0583 51.0482 36.2816 50.488C36.4295 50.1181 36.7729 49.0372 36.8415 48.7283C36.8947 48.4874 36.9367 48.4638 36.9877 48.6469C37.0058 48.7121 37.0786 48.8809 37.1495 49.0228C37.2204 49.1643 37.2952 49.3194 37.3154 49.3675C37.3503 49.4491 37.5036 49.7251 37.8782 50.3811C37.9648 50.5323 38.0782 50.7165 38.1308 50.7893C38.1828 50.8624 38.2425 50.9547 38.2635 50.9945C38.313 51.0888 38.597 51.5037 38.7314 51.6778C38.7887 51.7526 38.8503 51.8374 38.8679 51.8665C38.8855 51.8955 38.9543 51.9807 39.0203 52.0564C39.0869 52.1317 39.1458 52.2075 39.1519 52.2243C39.1575 52.2414 39.2258 52.3173 39.3033 52.3932C39.3803 52.469 39.4488 52.5445 39.4547 52.5607C39.4755 52.6187 39.7646 52.9455 39.9072 53.0728C39.9863 53.1435 40.0851 53.2397 40.1262 53.2868C40.1932 53.3623 40.294 53.4552 40.7291 53.8415C40.9974 54.0797 41.6984 54.5927 42.0766 54.8276C42.7201 55.2275 43.2912 55.4844 44.1403 55.7561C44.8311 55.9773 45.4499 56.1157 45.8825 56.145C45.9049 56.1469 45.9673 56.1528 46.0218 56.1591C46.0765 56.165 46.1694 56.173 46.2282 56.1764C46.3327 56.1823 46.3681 56.148 46.498 55.9128C46.5242 55.8651 46.5556 55.8104 46.5669 55.7914C46.979 55.1154 47.4015 53.8704 47.603 52.7367C47.7101 52.1366 47.7402 50.9317 47.6649 50.2539C47.6011 49.6757 47.5835 49.5397 47.5606 49.4414C47.5459 49.3806 47.5246 49.2444 47.5126 49.139C47.4911 48.949 47.3913 48.5243 47.3561 48.4738C47.3463 48.4596 47.3237 48.3604 47.3069 48.2534C47.2897 48.1463 47.2672 48.0467 47.2565 48.0322C47.2463 48.0175 47.2185 47.9257 47.1953 47.8282C47.1719 47.7302 47.1421 47.6249 47.1285 47.5937C47.115 47.5625 47.0813 47.4636 47.0534 47.3733C46.989 47.163 46.8146 46.6914 46.7662 46.5965C46.7458 46.5565 46.705 46.4543 46.6754 46.3696C46.6459 46.2845 46.5616 46.0856 46.4878 45.9274C46.1693 45.2428 46.0326 44.9582 45.9862 44.8826C45.9586 44.8383 45.8752 44.6876 45.8008 44.548C45.7259 44.4082 45.6302 44.2512 45.5874 44.1987C45.4675 44.0513 45.511 44.0306 45.7379 44.1263C46.0297 44.2489 47.1107 44.5933 47.4981 44.6864C48.0843 44.8278 48.5437 44.928 48.7636 44.963C48.8175 44.9715 48.9319 44.9901 49.0174 45.0044C49.103 45.0187 49.3877 45.0518 49.6503 45.0778C49.9127 45.1043 50.163 45.1293 50.2067 45.1336C50.5008 45.1644 51.286 45.1702 51.5981 45.1444C51.6675 45.1387 51.7424 45.1352 51.7647 45.1375C51.9681 45.1548 53.1721 44.9862 53.5345 44.8897C53.6387 44.8619 53.7337 44.8423 53.7454 44.846C53.7741 44.8552 54.2581 44.711 54.4042 44.6497C54.4676 44.6234 54.6275 44.5654 54.7596 44.5207C55.0383 44.4268 55.6063 44.1751 55.866 44.0306C56.2005 43.8442 56.428 43.7105 56.5305 43.64C56.742 43.495 57.0849 43.2489 57.1645 43.1855C57.2101 43.1492 57.2698 43.106 57.2981 43.0895C57.3263 43.0731 57.3831 43.0241 57.4246 42.9812C57.4662 42.9379 57.5287 42.8815 57.5633 42.8556C57.6127 42.8177 57.6185 42.7845 57.5782 42.6807C57.5518 42.61 57.5349 42.5365 57.541 42.5174C57.5471 42.4982 57.5381 42.4541 57.521 42.419C57.5042 42.3844 57.4771 42.3101 57.4608 42.2541C57.4325 42.1564 57.2948 41.7575 57.206 41.5169C57.1631 41.4002 57.0547 41.1596 56.8895 40.8141C56.761 40.5461 56.4428 40.0125 56.2697 39.7748C56.1877 39.6619 56.0907 39.5223 56.0541 39.4641C55.9703 39.3296 55.6587 38.9323 55.6299 38.9232C55.6182 38.9195 55.5521 38.8486 55.483 38.7657C55.2432 38.4771 54.3579 37.6442 54.1818 37.5407C54.1623 37.5297 54.1032 37.4836 54.0498 37.4388C53.81 37.2374 53.1659 36.7885 52.908 36.6437C52.8699 36.6219 52.6511 36.4977 52.4217 36.3676C52.1924 36.2372 51.9409 36.0996 51.8628 36.0618C51.7847 36.024 51.6806 35.9732 51.6317 35.949C51.432 35.8505 50.9992 35.6668 50.439 35.4435C50.069 35.2955 48.9878 34.952 48.6789 34.8834C48.4383 34.8304 48.4148 34.7884 48.5978 34.7373C48.663 34.7192 48.832 34.646 48.9738 34.5756C49.1152 34.5046 49.2704 34.4298 49.3185 34.4097C49.4001 34.3747 49.676 34.2215 50.3316 33.8467C50.4832 33.7603 50.6672 33.6463 50.7403 33.5943C50.8134 33.5423 50.9057 33.4825 50.9454 33.4616C51.0398 33.4121 51.4547 33.128 51.6288 32.9936C51.7037 32.936 51.7883 32.8747 51.8174 32.8571C51.8465 32.8395 51.9317 32.7708 52.0075 32.7043C52.0827 32.6381 52.1584 32.5793 52.1752 32.5731C52.1924 32.5676 52.2683 32.4992 52.3442 32.4217C52.4201 32.3443 52.4955 32.2762 52.5118 32.2699C52.5698 32.2491 52.8965 31.9605 53.0238 31.8179C53.0945 31.7388 53.1906 31.6399 53.2378 31.5989C53.3133 31.5318 53.4062 31.431 53.7924 30.996C54.0307 30.7276 54.5437 30.0267 54.7787 29.648C55.1784 29.005 55.4355 28.4335 55.707 27.5847C55.9282 26.8939 56.0667 26.2751 56.0961 25.8421C56.0978 25.8201 56.1039 25.7573 56.1101 25.7032C56.1461 25.3806 56.1479 25.384 55.8638 25.227C55.8156 25.2007 55.7613 25.1695 55.7424 25.1582C55.0664 24.7461 53.8213 24.3236 52.6878 24.1216C52.0876 24.015 50.8826 23.9848 50.2049 24.0601C49.6267 24.1239 49.4907 24.1415 49.3923 24.1644C49.3316 24.1791 49.1954 24.2005 49.0899 24.2125C48.9 24.234 48.4752 24.3337 48.4247 24.3689C48.4106 24.3788 48.311 24.4008 48.2044 24.4182C48.0973 24.4354 47.9976 24.4578 47.9832 24.4686C47.9685 24.4787 47.8767 24.5066 47.7788 24.5296C47.6812 24.5532 47.5758 24.5829 47.5447 24.5965C47.5135 24.6101 47.4142 24.6436 47.3243 24.6716C47.114 24.736 46.6424 24.9105 46.5474 24.9589C46.5074 24.9792 46.4053 25.02 46.3206 25.0497C46.2356 25.0787 46.0366 25.1635 45.8786 25.2368C45.1938 25.5558 44.9092 25.6924 44.8335 25.7388C44.7893 25.7664 44.6386 25.8498 44.4989 25.9243C44.3591 25.9991 44.2021 26.0949 44.1497 26.1376C44.0023 26.2575 43.9816 26.214 44.0774 25.9867C44.2 25.6949 44.5443 24.6144 44.6373 24.227C44.7788 23.6407 44.879 23.1813 44.9136 22.9608C44.9225 22.9076 44.9411 22.7932 44.9554 22.7076C44.9697 22.622 45.0029 22.3369 45.0288 22.0748C45.0552 21.8124 45.0802 21.562 45.0846 21.5183C45.1153 21.2242 45.1213 20.4386 45.0954 20.127C45.0898 20.0571 45.0862 19.9827 45.0885 19.9604C45.1058 19.7569 44.9372 18.5528 44.8407 18.1904C44.813 18.0861 44.7933 17.9912 44.7971 17.9794C44.8061 17.951 44.662 17.4669 44.6007 17.3208C44.5743 17.2575 44.5164 17.0976 44.4717 16.9654C44.3777 16.6869 44.1261 16.1189 43.9811 15.859C43.7951 15.5247 43.6614 15.297 43.591 15.1945C43.446 14.9829 43.1999 14.6399 43.1366 14.5604C43.1002 14.515 43.057 14.455 43.0405 14.4269C43.024 14.3989 42.9751 14.3419 42.9322 14.3004C42.8888 14.2589 42.8325 14.1966 42.8066 14.1618C42.7925 14.1428 42.7792 14.1305 42.7619 14.1245ZM33.7715 11.4987C33.7576 11.4942 33.5239 12.209 33.2522 13.0871C32.32 16.1 31.7404 17.9983 31.7492 18.0127C31.7538 18.0208 31.842 18.1098 31.9454 18.2112C32.0956 18.3582 32.5159 18.8524 32.6615 19.0531C32.6776 19.0749 32.769 19.1913 32.8656 19.3126C32.9623 19.4335 33.0644 19.5719 33.0927 19.6202C33.1215 19.6682 33.1722 19.7274 33.2058 19.7511C33.2395 19.7748 33.2624 19.8084 33.2569 19.8258C33.2513 19.8432 33.2875 19.8892 33.3371 19.9276C33.3872 19.966 33.4393 20.0027 33.4528 20.0085C33.4666 20.0148 33.6557 19.449 33.8735 18.7509C34.0912 18.0532 34.272 17.4834 34.2759 17.4846C34.2877 17.4884 35.2797 19.4217 35.3801 19.6362C35.4645 19.8169 35.5393 19.9026 35.547 19.8274C35.5489 19.8107 35.5682 19.7756 35.5902 19.7486C35.6127 19.7217 35.7735 19.4316 35.9483 19.1038C36.1237 18.7757 36.3052 18.4461 36.3527 18.3707C36.4001 18.2956 36.4547 18.2023 36.4742 18.1635C36.517 18.0774 36.5568 18.0138 36.7288 17.7594C36.8602 17.5649 36.8606 17.5622 36.8049 17.4557C36.7739 17.3965 36.5888 17.0261 36.3937 16.6328C35.687 15.2085 33.7963 11.5067 33.7715 11.4988L33.7715 11.4987ZM51.6175 17.1769C51.5927 17.169 47.9105 19.0976 46.5107 19.8516C46.1242 20.0599 45.7591 20.2553 45.6996 20.2857C45.5926 20.3403 45.5913 20.3428 45.5862 20.5774C45.5796 20.8845 45.5754 20.9594 45.5605 21.0543C45.554 21.0973 45.5447 21.2051 45.5399 21.2937C45.5351 21.3827 45.4928 21.7566 45.4459 22.1255C45.3995 22.4942 45.3632 22.8239 45.3659 22.8589C45.3683 22.8936 45.3638 22.9334 45.3558 22.9481C45.3181 23.0138 45.4291 22.9873 45.6024 22.8886C45.8084 22.7715 47.7351 21.7669 47.7469 21.7706C47.7508 21.7718 47.5691 22.3414 47.3436 23.0366C47.118 23.7322 46.938 24.3023 46.9441 24.3043C46.9972 24.3212 47.2181 24.2942 47.2259 24.2698C47.2313 24.2528 47.2693 24.2386 47.3105 24.2387C47.3517 24.2389 47.4268 24.2197 47.4776 24.197C47.5286 24.1739 47.6915 24.1198 47.8403 24.077C47.9888 24.0337 48.1315 23.9919 48.1572 23.9833C48.4174 23.8978 49.0225 23.7434 49.2291 23.7103C49.3721 23.6873 49.4954 23.6657 49.5039 23.6616C49.5194 23.6551 50.1433 21.771 51.1235 18.7732C51.4091 17.8998 51.6314 17.1813 51.6175 17.1769ZM41.6362 17.7272C41.6477 17.7319 41.6556 17.7401 41.6631 17.7511C41.733 17.8539 42.1046 18.581 42.2007 18.8033C42.4055 19.2773 42.6391 20.2618 42.6454 20.6804C42.6456 20.6919 42.6502 20.7543 42.6556 20.8188C42.6612 20.8838 42.662 20.9852 42.6578 21.0452C42.6533 21.1047 42.6565 21.1742 42.6648 21.1994C42.6736 21.2247 42.6762 21.2903 42.6713 21.3448C42.6663 21.3997 42.6583 21.5544 42.6541 21.6882C42.6494 21.8219 42.6405 21.9672 42.6341 22.0102C42.6214 22.0953 42.606 22.2385 42.5837 22.4864C42.5759 22.5741 42.5522 22.7328 42.5314 22.8389C42.5106 22.9449 42.4826 23.0932 42.4695 23.1676C42.3894 23.6286 42.3284 23.858 42.0735 24.6622C41.8045 25.5093 41.5313 26.2593 41.4012 26.5069C41.3692 26.5686 41.3205 26.6734 41.2941 26.7398C41.2674 26.8056 41.2046 26.9486 41.1544 27.0567C41.0701 27.2374 40.9725 27.4312 40.4674 28.4175C40.3679 28.6111 40.2683 28.7826 40.2461 28.7981C40.224 28.8136 40.1112 28.9991 39.996 29.2108C39.9523 29.2908 39.91 29.3651 39.8704 29.432C40.4828 29.8153 41.0416 30.284 41.5226 30.8224C41.579 30.7747 41.6389 30.7252 41.7016 30.6757C41.8845 30.5301 42.054 30.3861 42.0784 30.3546C42.1361 30.2804 42.6572 29.8643 42.7298 29.8347C42.7607 29.822 42.9422 29.6856 43.1329 29.5321C43.3236 29.3785 43.504 29.2471 43.5341 29.2399C43.5637 29.2325 43.6688 29.16 43.7676 29.0783C43.866 28.9965 43.9602 28.934 43.9772 28.9394C43.9937 28.9447 44.0598 28.9043 44.1233 28.8493C44.1872 28.7944 44.2912 28.7191 44.3546 28.6813C44.4179 28.6434 44.5951 28.5383 44.7483 28.4471C44.9009 28.3562 45.1605 28.2077 45.3246 28.1181C45.4885 28.0279 45.6923 27.9144 45.7773 27.8657C46.1149 27.6726 46.8899 27.3368 47.4625 27.1356C47.5466 27.1062 47.6392 27.071 47.6684 27.0578C47.6971 27.0444 47.8523 26.9965 48.0133 26.9514C48.1742 26.9067 48.3365 26.8605 48.3741 26.8495C48.7377 26.7399 49.9101 26.5608 50.0241 26.5971C50.0528 26.6062 50.0918 26.6057 50.1113 26.5956C50.1848 26.5576 51.0914 26.6352 51.4939 26.7139C51.627 26.7399 51.9456 26.8322 52.2327 26.9226C52.5203 27.0131 52.7769 27.1015 52.7867 27.1204C52.8063 27.1583 52.4829 28.1626 52.3714 28.4104C52.2031 28.7844 51.7425 29.5691 51.669 29.6071C51.6495 29.6172 51.6266 29.6487 51.6174 29.6774C51.5811 29.7915 50.7575 30.6448 50.4579 30.8782C50.4272 30.9025 50.2957 31.0083 50.166 31.1132C50.0366 31.2187 49.9077 31.3181 49.8801 31.3338C49.8525 31.3499 49.7703 31.4048 49.6977 31.4569C49.2027 31.8075 48.4806 32.2464 48.1281 32.4098C48.0391 32.4515 47.8287 32.5523 47.6604 32.6339C47.4921 32.7155 47.2214 32.8417 47.0589 32.9142C46.8959 32.9865 46.7077 33.0704 46.6402 33.1002C46.5727 33.13 46.4508 33.1713 46.3695 33.1919C46.2878 33.2119 46.2168 33.2425 46.2115 33.259C46.2061 33.276 46.1006 33.3167 45.977 33.3498C45.8532 33.3833 45.7334 33.4271 45.7102 33.447C45.687 33.4674 45.4754 33.5387 45.2399 33.6056C45.0044 33.6725 44.7882 33.7418 44.76 33.7596C44.6938 33.8019 44.0531 33.9867 43.9593 33.9909C43.9194 33.9926 43.704 34.0477 43.4795 34.1129C43.4028 34.1355 43.3278 34.1557 43.2563 34.1742C43.4172 34.8782 43.4797 35.6051 43.4405 36.3264C43.517 36.333 43.6002 36.3413 43.6894 36.3514C43.9287 36.3797 44.1453 36.3949 44.1708 36.3857C44.1962 36.3766 44.3938 36.3944 44.6093 36.4251C45.7061 36.5828 45.9202 36.615 46.1168 36.6507C46.2341 36.6722 46.3868 36.7031 46.4562 36.7199C46.5258 36.7363 46.6389 36.7574 46.7078 36.7668C46.9852 36.8033 47.7555 37.0139 48.6022 37.2843C49.4059 37.541 49.6283 37.6237 50.0505 37.8242C50.1192 37.8571 50.2564 37.9199 50.3549 37.9642C50.4535 38.0085 50.5967 38.0809 50.6728 38.1252C50.888 38.2503 51.0137 38.3205 51.0905 38.3593C51.1294 38.3788 51.2526 38.4555 51.3649 38.529C51.4767 38.6025 51.6074 38.6858 51.6547 38.7133C51.7025 38.7409 51.7544 38.781 51.7702 38.8023C51.7858 38.824 51.8407 38.8669 51.8918 38.8975C51.9429 38.9282 52.0255 38.988 52.0755 39.0298C52.1249 39.0719 52.1731 39.1116 52.1824 39.1184C52.5204 39.3655 53.1889 40.1251 53.457 40.566C53.5832 40.7734 53.9618 41.4964 54.0055 41.6124C54.0302 41.6792 53.975 41.7201 53.577 41.9271C52.9824 42.2369 52.8025 42.3124 52.3483 42.443C51.79 42.6038 51.3447 42.6898 51.0446 42.6944C51.0331 42.6946 50.9707 42.6992 50.9062 42.7046C50.8412 42.7102 50.7392 42.7113 50.6798 42.7068C50.6203 42.7023 50.5508 42.7055 50.5256 42.7138C50.5003 42.7226 50.4347 42.7252 50.3798 42.7202C50.3253 42.7153 50.1704 42.7077 50.0368 42.703C49.9027 42.6982 49.7579 42.6891 49.7149 42.6826C49.672 42.6761 49.592 42.667 49.5369 42.6624C49.292 42.641 49.0284 42.6079 48.886 42.5809C48.517 42.5099 48.3378 42.4779 48.2458 42.4658C48.1285 42.4506 46.1938 41.8695 46.1808 41.8457C46.1756 41.8364 45.9822 41.7571 45.7509 41.6692C45.5192 41.581 45.2796 41.4828 45.2177 41.4501C45.156 41.418 45.0516 41.3695 44.9852 41.3431C44.919 41.3162 44.7764 41.2536 44.6683 41.2034C44.4871 41.1189 44.2938 41.0215 43.3075 40.5164C43.1139 40.4169 42.9424 40.3173 42.9269 40.2951C42.9114 40.2729 42.7259 40.1602 42.5142 40.045C42.4375 40.0028 42.3665 39.9625 42.3014 39.9245C41.9172 40.537 41.4449 41.0933 40.9054 41.5749C40.9519 41.6305 41.0008 41.6892 41.0493 41.7506C41.1949 41.9335 41.3389 42.103 41.3704 42.1274C41.4446 42.185 41.8607 42.7062 41.8903 42.7788C41.903 42.8097 42.0394 42.9912 42.1929 43.1819C42.3465 43.3726 42.4779 43.553 42.4851 43.5831C42.4925 43.6127 42.565 43.7178 42.6467 43.8166C42.7285 43.915 42.791 44.0092 42.7856 44.0262C42.7803 44.0427 42.8207 44.1088 42.8757 44.1723C42.9302 44.2361 43.0059 44.3402 43.0437 44.4036C43.0816 44.4669 43.1867 44.6441 43.2779 44.7973C43.3688 44.9499 43.5168 45.2093 43.6069 45.3736C43.6971 45.5375 43.8106 45.7413 43.8593 45.8263C44.0524 46.1639 44.3882 46.9389 44.5894 47.5114C44.6188 47.5955 44.654 47.6882 44.6672 47.7174C44.6806 47.7461 44.7285 47.9013 44.7732 48.0622C44.8183 48.2232 44.8645 48.3855 44.8755 48.4231C44.9851 48.7867 45.1642 49.9591 45.1279 50.0731C45.1188 50.1018 45.1193 50.1408 45.1294 50.1603C45.1674 50.2338 45.0898 51.1404 45.0111 51.5429C44.9648 51.7803 44.6443 52.8147 44.6121 52.8318C44.5915 52.8421 43.8283 52.6361 43.8155 52.6162C43.812 52.6108 43.6529 52.5458 43.4624 52.4713C43.0371 52.3058 42.1707 51.8202 42.1179 51.718C42.1078 51.6985 42.0763 51.6756 42.0476 51.6664C41.9335 51.6301 41.0802 50.8065 40.8468 50.5069C40.8225 50.4762 40.7167 50.3447 40.6112 50.2153C40.5059 50.0854 40.4069 49.9567 40.3912 49.9291C40.3751 49.9015 40.3198 49.8192 40.2681 49.7466C39.9171 49.2515 39.4786 48.5296 39.3147 48.177C39.2735 48.0881 39.1727 47.8777 39.0911 47.7094C39.009 47.541 38.8828 47.2703 38.8108 47.1079C38.7385 46.9449 38.6548 46.7562 38.6248 46.6892C38.595 46.6217 38.5537 46.4998 38.5331 46.4185C38.5131 46.3368 38.4825 46.2657 38.466 46.2605C38.449 46.2551 38.4083 46.1496 38.3752 46.026C38.3417 45.9022 38.2979 45.7823 38.278 45.7592C38.2576 45.736 38.1863 45.5244 38.1194 45.2889C38.0525 45.0533 37.9832 44.8372 37.9654 44.809C37.9231 44.7428 37.7383 44.1021 37.7341 44.0083C37.7324 43.9684 37.6773 43.7529 37.6121 43.5285C37.5906 43.4545 37.571 43.3822 37.5527 43.3131C36.8476 43.4818 36.1197 43.5401 35.3981 43.497C35.3912 43.5715 35.3838 43.6521 35.3736 43.7384C35.3455 43.9773 35.3301 44.1943 35.3393 44.2198C35.3484 44.2452 35.3306 44.4428 35.2999 44.6583C35.1422 45.7551 35.11 45.9692 35.0743 46.1658C35.0528 46.2831 35.0215 46.4357 35.0051 46.5052C34.9883 46.5746 34.9676 46.6879 34.9582 46.7568C34.9212 47.034 34.7106 47.8044 34.4407 48.6512C34.184 49.4549 34.1013 49.6773 33.9004 50.0994C33.8679 50.1682 33.8051 50.3054 33.7608 50.4039C33.7165 50.5025 33.6441 50.6457 33.5998 50.7218C33.4747 50.937 33.4045 51.0627 33.3657 51.1395C33.3462 51.1784 33.2695 51.3016 33.196 51.4139C33.1221 51.5255 33.0392 51.6564 33.0117 51.7037C32.9841 51.7515 32.944 51.8034 32.9223 51.819C32.901 51.8348 32.8581 51.8897 32.8275 51.9408C32.7963 51.9922 32.737 52.0745 32.6948 52.1243C32.6531 52.1739 32.6134 52.2221 32.6066 52.2314C32.4293 52.4736 32.1018 52.7874 31.648 53.1501C31.2932 53.4336 31.1224 53.5413 30.5822 53.8214C30.3658 53.9337 30.1546 54.0386 30.1122 54.0543C30.0456 54.0796 30.0049 54.024 29.7979 53.626C29.4881 53.0314 29.4126 52.8515 29.282 52.3973C29.1212 51.839 29.0353 51.3937 29.0306 51.0936C29.0304 51.0821 29.0258 51.0197 29.02 50.9551C29.0148 50.8902 29.0135 50.7886 29.0182 50.7288C29.0227 50.6693 29.0195 50.5998 29.0107 50.5745C29.0024 50.5493 28.9998 50.4837 29.0048 50.4288C29.0097 50.3743 29.0173 50.2194 29.022 50.0858C29.0268 49.9517 29.0355 49.8068 29.042 49.7638C29.0547 49.6787 29.07 49.5355 29.0923 49.2876C29.1001 49.1999 29.1238 49.0412 29.1446 48.9351C29.1654 48.8291 29.1934 48.6808 29.2062 48.6058C29.2866 48.1454 29.3476 47.916 29.6025 47.1118C29.8711 46.2646 30.1444 45.5142 30.2749 45.2667C30.307 45.205 30.3551 45.1005 30.3819 45.0342C30.4083 44.9678 30.4714 44.8254 30.5216 44.7173C30.6061 44.5361 30.7035 44.3428 31.2086 43.3565C31.3081 43.1629 31.4077 42.9914 31.4299 42.9759C31.4521 42.9604 31.5649 42.7744 31.68 42.5632C31.7212 42.4881 31.7607 42.4183 31.7982 42.3545C31.5106 42.1753 31.2352 41.9774 30.9748 41.7594C30.6774 41.5147 30.4004 41.2463 30.1454 40.9586C30.0911 41.0041 30.034 41.0512 29.9744 41.0983C29.7915 41.2438 29.622 41.3879 29.5976 41.4194C29.54 41.4936 29.0189 41.9097 28.9462 41.9393C28.9153 41.952 28.7338 42.0884 28.5431 42.2419C28.3524 42.3955 28.172 42.5269 28.1419 42.5341C28.1123 42.5415 28.0068 42.6139 27.9084 42.6957C27.81 42.7775 27.7154 42.8399 27.6988 42.8346C27.6823 42.8293 27.6163 42.8697 27.5527 42.9247C27.4889 42.9792 27.3848 43.0549 27.3215 43.0927C27.2583 43.1301 27.0809 43.2357 26.9277 43.3269C26.7747 43.4177 26.5153 43.5657 26.3514 43.6559C26.1875 43.7461 25.9837 43.8596 25.8982 43.9081C25.5611 44.1014 24.7857 44.437 24.2136 44.6384C24.129 44.6676 24.0368 44.703 24.0076 44.7162C23.9789 44.7296 23.8237 44.7775 23.6627 44.8226C23.5018 44.8673 23.3395 44.9134 23.302 44.9245C22.9383 45.0341 21.7659 45.2132 21.6519 45.1769C21.6232 45.1678 21.5842 45.1683 21.5647 45.1784C21.4786 45.2229 20.5139 45.1321 20.1263 45.0428C19.7895 44.9654 19.274 44.8139 19.0476 44.7255L18.8745 44.658L18.9254 44.4815C19.027 44.1289 19.2092 43.594 19.2995 43.3826C19.4518 43.026 19.9278 42.2078 20.007 42.1669C20.0265 42.1568 20.0494 42.1253 20.0586 42.0966C20.0949 41.9825 20.9185 41.1292 21.2181 40.8958C21.2488 40.8715 21.3803 40.7657 21.5097 40.6602C21.6396 40.5549 21.7684 40.4559 21.7959 40.4402C21.8235 40.4241 21.9058 40.3688 21.9784 40.3171C22.4735 39.9661 23.1954 39.5276 23.548 39.3637C23.6369 39.3225 23.8473 39.2217 24.0156 39.1401C24.1836 39.0579 24.4548 38.9318 24.6171 38.8598C24.7801 38.7875 24.9683 38.7036 25.0358 38.6738C25.1033 38.644 25.2248 38.6026 25.3065 38.5821C25.3882 38.5621 25.4593 38.5315 25.4645 38.515C25.4699 38.498 25.5754 38.4573 25.699 38.4242C25.8228 38.3907 25.9427 38.3469 25.9658 38.327C25.9891 38.3066 26.2006 38.2353 26.4361 38.1684C26.6717 38.1015 26.8878 38.0322 26.916 38.0143C26.9822 37.9721 27.6229 37.7873 27.7167 37.7831C27.7566 37.7814 27.9721 37.7263 28.1965 37.6611C28.2706 37.6391 28.343 37.6195 28.4124 37.6018C28.2632 36.9605 28.1968 36.2999 28.2237 35.6399C28.2254 35.5757 28.2282 35.5114 28.2313 35.4472C28.1563 35.4406 28.074 35.4326 27.9866 35.4225C27.7473 35.3943 27.5307 35.3791 27.5052 35.3883C27.4798 35.3974 27.2822 35.3796 27.0667 35.3489C25.9731 35.1917 25.7554 35.1589 25.5592 35.1233C25.4417 35.1022 25.3028 35.0748 25.2501 35.0628C25.1975 35.0504 25.0589 35.0221 24.9418 34.9997C24.8248 34.9773 24.6172 34.9338 24.4804 34.9028C24.217 34.8434 22.2043 34.2351 22.1905 34.2106C22.1862 34.203 22.0853 34.1541 21.966 34.1027C21.8473 34.051 21.6938 33.9821 21.6252 33.9492C21.5568 33.9169 21.4196 33.8541 21.3211 33.8098C21.2225 33.7655 21.0793 33.6931 21.0033 33.6488C20.788 33.5237 20.6623 33.4535 20.5855 33.4147C20.5466 33.3951 20.423 33.3184 20.3112 33.245C20.1994 33.1715 20.0686 33.0882 20.0209 33.0606C19.9736 33.0331 19.9216 32.993 19.906 32.9713C19.8902 32.95 19.8353 32.9071 19.7842 32.8765C19.7326 32.8457 19.6505 32.786 19.6007 32.7438C19.5511 32.7021 19.5029 32.6624 19.4936 32.6555C19.2514 32.4783 18.9376 32.1508 18.5749 31.697C18.2796 31.3279 18.1765 31.1624 17.8701 30.5659C17.665 30.167 17.6434 30.1017 17.7023 30.0615C17.8049 29.992 18.5319 29.6208 18.7543 29.5243C19.2283 29.3195 20.2129 29.0859 20.6314 29.0796C20.6429 29.0794 20.7053 29.0748 20.7699 29.069C20.8348 29.0638 20.9364 29.0625 20.9962 29.0672C21.0557 29.0717 21.1253 29.0685 21.1506 29.0597C21.1757 29.0514 21.2413 29.0488 21.2958 29.0537C21.3508 29.0587 21.5056 29.0663 21.6392 29.0709C21.7729 29.0756 21.9182 29.0845 21.9612 29.0909C22.0463 29.1036 22.1895 29.119 22.4374 29.1413C22.5251 29.1491 22.6839 29.1728 22.7899 29.1936C22.8959 29.2144 23.0442 29.2424 23.1188 29.2551C23.5796 29.3356 23.809 29.3966 24.6132 29.6515C25.4604 29.9201 26.2104 30.1932 26.4579 30.3238C26.5196 30.3558 26.6246 30.4041 26.6908 30.4309C26.7567 30.4572 26.8996 30.5204 27.0078 30.5706C27.1885 30.6549 27.3822 30.7525 28.3685 31.2576C28.5621 31.3571 28.7336 31.4567 28.7491 31.4789C28.7646 31.5011 28.9502 31.6138 29.1618 31.729C29.2409 31.7724 29.3145 31.8141 29.3806 31.8533C29.7636 31.2399 30.2319 30.681 30.7714 30.1998C30.7244 30.1441 30.6756 30.085 30.6267 30.0234C30.4812 29.8405 30.3371 29.671 30.3056 29.6466C30.2314 29.589 29.8153 29.0678 29.7857 28.9952C29.773 28.9643 29.6367 28.7828 29.4831 28.5921C29.3295 28.4014 29.1981 28.221 29.1909 28.1909C29.1835 28.1613 29.111 28.0562 29.0293 27.9574C28.9475 27.859 28.885 27.7648 28.8904 27.7478C28.8957 27.7313 28.8553 27.6652 28.8003 27.6017C28.7454 27.5378 28.6701 27.4338 28.6323 27.3704C28.5945 27.3071 28.4893 27.1299 28.3981 26.9767C28.3073 26.8237 28.1589 26.5641 28.0691 26.4004C27.9789 26.2365 27.8654 26.0327 27.8169 25.9472C27.6236 25.6101 27.288 24.8347 27.0866 24.2625C27.0574 24.178 27.022 24.0858 27.0088 24.0566C26.9954 24.0279 26.9476 23.8723 26.9025 23.7112C26.8577 23.5508 26.8116 23.3885 26.8005 23.3509C26.6909 22.9873 26.5118 21.8149 26.5481 21.7009C26.5572 21.6722 26.5567 21.6332 26.5466 21.6137C26.5086 21.5402 26.5862 20.6336 26.6649 20.2311C26.7167 19.9643 27.0335 18.9579 27.0714 18.9383C27.0903 18.9285 27.3508 19.0047 27.6378 19.097C27.9244 19.1891 28.2373 19.2978 28.3614 19.3536C28.7354 19.5219 29.5201 19.9825 29.5581 20.056C29.5682 20.0755 29.5997 20.0984 29.6284 20.1076C29.7425 20.1439 30.5958 20.9675 30.8293 21.2671C30.8535 21.2978 30.9593 21.4293 31.0648 21.5587C31.1702 21.6885 31.2691 21.8173 31.2848 21.8449C31.3009 21.8725 31.3558 21.9547 31.4079 22.0273C31.7585 22.5223 32.1974 23.2444 32.3609 23.5969C32.4025 23.6859 32.5033 23.8963 32.5849 24.0646C32.6667 24.2325 32.7928 24.5036 32.8652 24.6661C32.9375 24.8291 33.0214 25.0173 33.0512 25.0848C33.081 25.1523 33.1224 25.2738 33.1429 25.3555C33.1629 25.4372 33.1935 25.5082 33.21 25.5135C33.2266 25.5188 33.2678 25.6244 33.3008 25.748C33.3338 25.8716 33.3781 25.9916 33.3981 26.0148C33.4184 26.038 33.4897 26.2496 33.5566 26.4851C33.6235 26.7206 33.6928 26.9368 33.7107 26.965C33.7529 27.0312 33.9377 27.6719 33.9419 27.7657C33.9436 27.8056 33.9987 28.021 34.0639 28.2455C34.0868 28.3227 34.1072 28.3987 34.1255 28.4707C34.8294 28.3103 35.5557 28.248 36.2769 28.2877C36.2838 28.2103 36.292 28.1257 36.3025 28.0356C36.3307 27.7963 36.3459 27.5797 36.3367 27.5542C36.3276 27.5288 36.3454 27.3312 36.3761 27.1157C36.5338 26.0189 36.5661 25.8044 36.6017 25.6082C36.6232 25.4909 36.6542 25.3378 36.6709 25.2688C36.6873 25.1992 36.7085 25.0857 36.718 25.0168C36.7545 24.7394 36.965 23.9695 37.2353 23.1228C37.492 22.3191 37.5747 22.0967 37.7754 21.674C37.8081 21.6058 37.8709 21.4686 37.9152 21.3701C37.9595 21.2715 38.0319 21.1283 38.0762 21.0522C38.2013 20.837 38.2715 20.7113 38.3103 20.6345C38.3299 20.5956 38.4066 20.4719 38.48 20.3601C38.5535 20.2483 38.6368 20.1176 38.6644 20.0699C38.6919 20.0225 38.732 19.9706 38.7533 19.9548C38.775 19.9392 38.8179 19.8843 38.8485 19.8332C38.8793 19.7816 38.939 19.6995 38.9808 19.6495C39.0229 19.6001 39.0627 19.5519 39.0695 19.5426C39.2467 19.3004 39.5742 18.9866 40.028 18.6239C40.3971 18.3286 40.5626 18.2255 41.1591 17.9192C41.4834 17.7526 41.5871 17.7068 41.6362 17.7272ZM18.1072 20.4017C17.5363 20.2195 17.1314 20.097 17.1281 20.1074C17.12 20.1326 19.0742 23.8622 19.803 25.2134C20.0113 25.5998 20.2032 25.9609 20.2293 26.0157C20.2858 26.1348 20.2986 26.1399 20.5613 26.1415C20.8048 26.1427 20.9005 26.1478 21.0056 26.164C21.0485 26.1709 21.1562 26.1802 21.2448 26.185C21.3339 26.1898 21.7077 26.2321 22.0768 26.2786C22.4454 26.3254 22.7751 26.3617 22.81 26.359C22.8443 26.3565 22.8846 26.3611 22.8988 26.369C22.9651 26.4064 22.9384 26.2958 22.8397 26.1225C22.7226 25.9165 21.718 23.9898 21.7217 23.978C21.723 23.9741 22.2926 24.1558 22.9877 24.3813C23.6833 24.6069 24.2535 24.7869 24.2554 24.7808C24.2723 24.7277 24.2453 24.5068 24.2209 24.499C24.204 24.4936 24.1897 24.4556 24.1899 24.4144C24.19 24.3732 24.1708 24.2981 24.1481 24.2473C24.1251 24.1963 24.071 24.0334 24.0278 23.8845C23.985 23.7357 23.943 23.5934 23.9344 23.5677C23.849 23.3075 23.6945 22.7024 23.6615 22.4958C23.6384 22.3528 23.6168 22.2295 23.6128 22.221C23.6062 22.2055 21.7221 21.5816 18.7244 20.6014C18.5062 20.5301 18.2974 20.4627 18.1072 20.4017ZM59.2571 33.4947C59.0668 33.4347 58.8576 33.3691 58.6381 33.3011C55.6251 32.3688 53.7269 31.7893 53.7126 31.7982C53.7044 31.8027 53.6155 31.8909 53.5141 31.9943C53.3678 32.1438 52.892 32.5484 52.6719 32.7113C52.65 32.7274 52.5336 32.8192 52.4123 32.9158C52.2914 33.0125 52.1531 33.1142 52.1048 33.1425C52.0565 33.1707 51.9978 33.2211 51.9742 33.2548C51.9505 33.2885 51.9169 33.3113 51.8999 33.3059C51.8755 33.2982 51.7258 33.4629 51.7089 33.516C51.707 33.5221 52.2763 33.7046 52.9739 33.9223C53.672 34.1401 54.2419 34.3209 54.2406 34.3249C54.2369 34.3366 52.3036 35.3286 52.089 35.429C51.9083 35.5134 51.8227 35.5883 51.8979 35.5959C51.9145 35.5978 51.9496 35.6172 51.9766 35.6392C52.0035 35.6616 52.2936 35.8225 52.6215 35.9972C52.9492 36.1724 53.2791 36.3541 53.3546 36.4016C53.4296 36.449 53.523 36.5036 53.5618 36.5232C53.6571 36.5702 53.7411 36.6238 53.9199 36.7521C54.126 36.8997 54.1621 36.9097 54.277 36.8499C54.3322 36.821 54.6992 36.6377 55.0924 36.4427C56.5166 35.7359 60.2183 33.8451 60.2262 33.8203C60.2296 33.8099 59.8283 33.676 59.2571 33.4947ZM38.0094 29.0626C36.1981 28.4863 34.2321 28.6531 32.5438 29.5264C30.8555 30.3996 29.5832 31.9078 29.0069 33.7191C28.4306 35.5304 28.5974 37.4964 29.4707 39.1847C30.3439 40.873 31.8521 42.1452 33.6634 42.7216C35.4747 43.2979 37.4407 43.131 39.129 42.2578C40.8173 41.3845 42.0895 39.8764 42.6658 38.0651C43.2422 36.2538 43.0753 34.2878 42.2021 32.5995C41.3288 30.9112 39.8207 29.6389 38.0094 29.0626ZM37.2621 31.4112C37.8505 31.5984 38.3963 31.8997 38.8683 32.2979C39.3403 32.6961 39.7293 33.1833 40.013 33.7318C40.2967 34.2803 40.4696 34.8792 40.5218 35.4945C40.574 36.1098 40.5045 36.7294 40.3173 37.3178C39.939 38.5061 39.1043 39.4955 37.9966 40.0683C36.889 40.6412 35.5991 40.7506 34.4108 40.3725C33.2225 39.9944 32.233 39.1598 31.66 38.0522C31.0871 36.9446 30.9775 35.6547 31.3555 34.4664C31.7336 33.278 32.5684 32.2885 33.6761 31.7155C34.7838 31.1425 36.0737 31.0331 37.2621 31.4112ZM17.5256 34.8878C17.487 34.878 17.4601 34.8919 17.4066 34.92C17.3473 34.951 16.9769 35.136 16.5836 35.3311C15.1593 36.0378 11.4576 37.9285 11.4497 37.9533C11.4453 37.9673 12.1601 38.2009 13.0382 38.4727C16.051 39.4049 17.9494 39.9845 17.9637 39.9756C17.9719 39.971 18.0608 39.8829 18.1622 39.7795C18.3085 39.63 18.7843 39.2254 19.0044 39.0625C19.0262 39.0464 19.1428 38.9541 19.2636 38.8578C19.3849 38.7613 19.5233 38.6591 19.5715 38.6313C19.6193 38.6029 19.6785 38.5527 19.7021 38.519C19.7258 38.4853 19.7594 38.4625 19.7764 38.4679C19.8008 38.4756 19.9505 38.3109 19.9674 38.2578C19.9693 38.2517 19.4 38.0691 18.7019 37.8513C18.0043 37.6337 17.4345 37.4524 17.4358 37.4485C17.4394 37.4372 19.3727 36.4452 19.5872 36.3447C19.7679 36.2604 19.8537 36.1851 19.7779 36.1777C19.7617 36.1759 19.7262 36.1565 19.6996 36.1346C19.6727 36.1122 19.3827 35.9513 19.055 35.7761C18.7267 35.6012 18.3972 35.4197 18.3217 35.3722C18.2466 35.3248 18.1533 35.2702 18.1145 35.2506C18.0284 35.2079 17.9648 35.168 17.7104 34.996C17.6133 34.9306 17.5639 34.8976 17.5258 34.8879L17.5256 34.8878ZM51.3608 45.6535C51.3241 45.6394 51.2647 45.6378 51.1472 45.6349C50.8406 45.6284 50.7657 45.6243 50.6708 45.6094C50.6278 45.6029 50.52 45.5935 50.4314 45.5888C50.3424 45.584 49.9681 45.5416 49.5995 45.4948C49.2308 45.4484 48.9011 45.412 48.8662 45.4148C48.8314 45.4172 48.7917 45.4127 48.777 45.4046C48.7113 45.367 48.7378 45.478 48.8365 45.6513C48.9536 45.8572 49.9582 47.784 49.9545 47.7958C49.9532 47.7997 49.3836 47.618 48.6881 47.3923C47.9929 47.1668 47.4228 46.9869 47.4208 46.993C47.4039 47.0461 47.4309 47.267 47.4553 47.2747C47.4723 47.2801 47.4865 47.3182 47.4864 47.3594C47.4862 47.4006 47.505 47.4756 47.5281 47.5265C47.5512 47.5775 47.6053 47.7404 47.648 47.8892C47.6914 48.0377 47.7332 48.1804 47.7418 48.2061C47.8273 48.4663 47.9817 49.0714 48.0147 49.278C48.0378 49.4209 48.0603 49.546 48.0648 49.5561C48.0693 49.5661 49.0644 49.8986 50.276 50.2951C51.4873 50.6911 52.4807 51.0186 52.4834 51.0224C52.5018 51.0503 54.5416 51.6864 54.548 51.6663C54.5559 51.6415 52.631 47.9658 51.8735 46.5596C51.6652 46.1731 51.4698 45.808 51.4394 45.7485C51.4119 45.6947 51.398 45.6677 51.3608 45.6535ZM24.732 47.4696C24.6789 47.4527 24.4579 47.4797 24.4502 47.5041C24.4448 47.5211 24.4067 47.5353 24.3655 47.5352C24.3244 47.535 24.2494 47.5538 24.1984 47.5769C24.1474 47.6 23.9845 47.6541 23.8357 47.6969C23.6868 47.7401 23.5445 47.782 23.5188 47.7906C23.2587 47.8761 22.6535 48.0306 22.447 48.0636C22.304 48.0866 22.1806 48.1082 22.1722 48.1123C22.1567 48.1188 21.5327 50.0029 20.5525 53.0007C20.2669 53.8742 20.0446 54.5924 20.0586 54.5968C20.0834 54.6047 23.7656 52.6761 25.1654 51.9223C25.5518 51.714 25.9169 51.5187 25.9764 51.4882C26.0834 51.4336 26.0847 51.4311 26.0896 51.1959C26.0965 50.8894 26.1007 50.8145 26.1151 50.7194C26.122 50.6766 26.1314 50.5688 26.1361 50.4802C26.1409 50.3912 26.1833 50.0169 26.2297 49.6482C26.2765 49.2797 26.3129 48.95 26.3101 48.9151C26.3077 48.8803 26.3122 48.8405 26.3203 48.8258C26.3575 48.76 26.2469 48.7866 26.0737 48.8854C25.8677 49.0024 23.9409 50.0071 23.9292 50.0033C23.9252 50.0021 24.107 49.4325 24.3326 48.7369C24.5581 48.0417 24.7381 47.4716 24.732 47.4696ZM38.2089 51.7577C38.2029 51.7558 38.0203 52.3251 37.8026 53.0228C37.5848 53.7208 37.4035 54.2906 37.3996 54.2893C37.3883 54.2857 36.3959 52.3523 36.2959 52.1378C36.2115 51.9571 36.1362 51.8714 36.129 51.9467C36.1271 51.9634 36.1078 51.9984 36.0857 52.0255C36.0633 52.0523 35.9024 52.3424 35.7272 52.6701C35.5525 52.998 35.3708 53.3279 35.3233 53.4034C35.2759 53.4785 35.2213 53.5718 35.2018 53.6106C35.159 53.6967 35.1192 53.7603 34.9473 54.0142C34.8158 54.2092 34.8154 54.2119 34.8711 54.3183C34.9021 54.3776 35.0868 54.7479 35.2822 55.1413C35.4773 55.5345 36.1419 56.8489 36.7581 58.0621C37.3745 59.2748 37.8906 60.2706 37.9046 60.2751C37.9185 60.2795 38.1521 59.5649 38.4238 58.6869C39.3561 55.6739 39.9352 53.7756 39.9268 53.7614C39.9222 53.7532 39.834 53.6643 39.7306 53.5629C39.5811 53.4166 39.1765 52.9408 39.0136 52.7207C38.9975 52.6989 38.9052 52.5823 38.8091 52.4611C38.7124 52.3402 38.6107 52.2019 38.5824 52.1536C38.5542 52.1053 38.5038 52.0466 38.4701 52.023C38.4364 51.9993 38.4136 51.9657 38.419 51.9487C38.4267 51.9243 38.262 51.7746 38.2089 51.7577Z" fill="white" fill-opacity="0.3"/>
</g>
<g clip-path="url(#clip1_780_836)">
<path d="M33.5083 5.10014C33.468 5.10229 33.425 5.13158 33.3561 5.19509C33.2809 5.2646 33.1973 5.32323 33.1701 5.32542C33.1429 5.3276 33.0915 5.36158 33.0568 5.40096C33.022 5.44034 32.9426 5.51258 32.8806 5.56147C32.7725 5.64705 32.342 6.02509 32.0855 6.26034C31.9609 6.37432 31.7144 6.63435 31.3654 7.01928C31.0947 7.31838 30.588 7.99214 30.3783 8.3316C30.2787 8.49265 30.1531 8.68625 30.0989 8.76181C29.973 8.93616 29.6341 9.53201 29.6373 9.57229C29.6386 9.58904 29.5836 9.70863 29.515 9.83789C29.2757 10.2874 28.6843 11.8276 28.6448 12.1019C28.641 12.1314 28.6134 12.2294 28.5846 12.32C28.4548 12.7241 28.2219 13.7645 28.1724 14.1627C28.1647 14.2218 28.1211 14.5605 28.0756 14.9155C28.0294 15.2699 27.9859 15.6571 27.9786 15.7746C27.9712 15.8921 27.9609 16.049 27.9555 16.1222C27.9344 16.4242 27.926 17.0623 27.9333 17.8807C27.9376 18.4213 28.0615 19.9554 28.1341 20.3786C28.1911 20.7086 28.1504 20.7598 27.9923 20.5561C27.9361 20.4835 27.7572 20.3088 27.596 20.1669C27.4341 20.0257 27.2605 19.8693 27.2105 19.8192C27.1247 19.7347 26.7904 19.4668 25.9828 18.8352C25.7964 18.6898 25.5586 18.5168 25.4558 18.4523C25.353 18.3871 25.2304 18.3019 25.1838 18.2627C25.0731 18.1696 24.5031 17.7944 24.2449 17.6448C24.134 17.5803 24.0135 17.5054 23.9765 17.4779C23.9388 17.4505 23.8093 17.3782 23.6869 17.3178C23.5651 17.2567 23.4523 17.1924 23.436 17.1744C23.4202 17.1558 23.2953 17.0955 23.159 17.04C23.0227 16.9844 22.8985 16.9247 22.8822 16.9067C22.8262 16.8453 22.2959 16.5832 22.0514 16.4966C21.9157 16.4484 21.7421 16.3784 21.6663 16.3403C21.5433 16.2799 21.369 16.215 20.6241 15.9527C20.1646 15.7913 19.0206 15.5076 18.4243 15.4069C17.4112 15.2353 16.5612 15.206 15.3556 15.301C14.3743 15.378 13.5259 15.522 12.9668 15.7075C12.9384 15.7166 12.8564 15.7413 12.7852 15.7613C12.3615 15.8818 12.3649 15.8778 12.3136 16.3153C12.3052 16.3887 12.294 16.4736 12.2896 16.5032C12.1186 17.5635 12.2282 19.345 12.5568 20.8726C12.7312 21.6812 13.3124 23.2103 13.7545 24.0229C14.1324 24.7164 14.2244 24.8781 14.3036 24.9899C14.3533 25.0587 14.4501 25.2188 14.5193 25.3451C14.644 25.5726 14.9874 26.0543 15.0569 26.0997C15.0773 26.113 15.156 26.2261 15.2327 26.3517C15.3093 26.4774 15.3887 26.591 15.4096 26.6037C15.43 26.6169 15.5121 26.7179 15.5912 26.8285C15.671 26.9396 15.7625 27.056 15.7956 27.0888C15.8286 27.1209 15.9218 27.2279 16.0032 27.327C16.1921 27.5581 16.6535 28.0608 16.7631 28.1552C16.8092 28.195 16.9129 28.3024 16.9937 28.3935C17.0737 28.4847 17.2825 28.6918 17.4559 28.8526C18.2083 29.5489 18.5262 29.8361 18.6233 29.9073C18.6807 29.9487 18.8629 30.0951 19.0281 30.2323C19.1939 30.3689 19.3949 30.5175 19.4756 30.5614C19.7019 30.685 19.6579 30.7333 19.323 30.7297C18.8936 30.7257 17.3595 30.8484 16.8251 30.9305C16.016 31.054 15.3875 31.1642 15.0927 31.2333C15.0213 31.2502 14.868 31.2855 14.7532 31.3115C14.6384 31.3376 14.2632 31.4423 13.9206 31.5445C13.5775 31.6461 13.2501 31.7433 13.193 31.7603C12.8078 31.8727 11.8179 32.2688 11.4398 32.4615C11.355 32.5044 11.2632 32.5472 11.2341 32.5557C10.9696 32.6386 9.54369 33.4683 9.13813 33.7764C9.02143 33.8647 8.91222 33.9382 8.89548 33.9395C8.8552 33.9427 8.32112 34.3725 8.16907 34.524C8.10314 34.5896 7.93225 34.7451 7.78919 34.8692C7.48756 35.1303 6.90338 35.7382 6.65135 36.0532C6.32711 36.4592 6.10954 36.7441 6.01691 36.8852C5.82568 37.1761 5.52135 37.6613 5.45412 37.7817C5.41579 37.8507 5.36255 37.9359 5.33575 37.971C5.30896 38.0061 5.26252 38.0969 5.23253 38.172C5.20258 38.2478 5.15328 38.3507 5.12291 38.401C5.07851 38.4742 5.09243 38.5185 5.19403 38.6285C5.26354 38.7037 5.32217 38.7873 5.32436 38.8145C5.32654 38.8417 5.36047 38.8924 5.3999 38.9278C5.43928 38.9626 5.51152 39.042 5.56041 39.1039C5.64599 39.2121 6.02391 39.6425 6.25916 39.8991C6.37314 40.0236 6.63341 40.2701 7.01829 40.6185C7.31744 40.8898 7.99121 41.3966 8.33067 41.6062C8.49171 41.7058 8.68519 41.8315 8.76075 41.8857C8.9351 42.0116 9.53095 42.3505 9.57123 42.3473C9.58798 42.3459 9.70757 42.401 9.83683 42.4696C10.2863 42.7083 11.8265 43.3003 12.1008 43.3398C12.131 43.3436 12.2283 43.3712 12.3189 43.4C12.723 43.5298 13.7634 43.7627 14.1616 43.8122C14.2207 43.8198 14.5594 43.8635 14.9144 43.909C15.2688 43.9551 15.656 43.9986 15.7735 44.006C15.891 44.0133 16.0479 44.0237 16.121 44.0284C16.4231 44.0501 17.0612 44.0586 17.8796 44.0512C18.4203 44.047 19.9543 43.9231 20.3776 43.8505C20.7075 43.7935 20.7587 43.8342 20.555 43.9923C20.4824 44.0485 20.3071 44.2268 20.1659 44.3886C20.0247 44.5504 19.8682 44.7241 19.8181 44.7741C19.7336 44.8599 19.4657 45.1942 18.8342 46.0017C18.6887 46.1882 18.5156 46.4253 18.4512 46.5288C18.3861 46.6316 18.3008 46.7541 18.2616 46.8008C18.1685 46.9115 17.7934 47.4814 17.6437 47.7397C17.5792 47.85 17.5044 47.971 17.4769 48.0081C17.4494 48.0451 17.3778 48.1752 17.3167 48.2971C17.2562 48.4194 17.1913 48.5322 17.1733 48.5486C17.1547 48.5644 17.0945 48.6893 17.0389 48.8256C16.9833 48.9612 16.9236 49.086 16.9056 49.1018C16.8442 49.1577 16.5822 49.6887 16.4955 49.9332C16.4473 50.0689 16.3773 50.2424 16.3393 50.3182C16.2789 50.4413 16.2139 50.6156 15.9517 51.3605C15.7902 51.82 15.506 52.964 15.4052 53.5597C15.2342 54.5734 15.2048 55.4227 15.2999 56.6289C15.3769 57.6102 15.521 58.4587 15.7064 59.0177C15.7156 59.0462 15.7401 59.1276 15.7602 59.1993C15.8807 59.6231 15.8767 59.6197 16.3142 59.6709C16.3877 59.6793 16.4725 59.6906 16.5021 59.695C17.563 59.8653 19.3439 59.7564 20.8714 59.4272C21.6802 59.2534 23.2092 58.6722 24.0218 58.2294C24.7153 57.8522 24.8771 57.7602 24.9889 57.681C25.0576 57.6313 25.2177 57.5345 25.344 57.4652C25.5715 57.3406 26.0532 56.9972 26.0986 56.927C26.1119 56.9073 26.225 56.8286 26.3507 56.7519C26.4763 56.6753 26.59 56.5959 26.6026 56.575C26.6159 56.5546 26.7169 56.4725 26.8274 56.3933C26.9385 56.3135 27.0549 56.2221 27.0877 56.189C27.1199 56.1559 27.2268 56.0628 27.326 55.9814C27.557 55.7925 28.0597 55.3311 28.1541 55.2215C28.194 55.1754 28.3013 55.0716 28.3924 54.9909C28.4836 54.9102 28.6907 54.702 28.8515 54.5281C29.5478 53.7763 29.8351 53.4584 29.9062 53.3613C29.9476 53.3039 30.0941 53.1217 30.2313 52.9565C30.3678 52.7906 30.5164 52.5897 30.5603 52.509C30.6839 52.2827 30.7322 52.3267 30.7286 52.6609C30.7246 53.0903 30.8473 54.6251 30.9288 55.1596C31.0529 55.9686 31.1631 56.5971 31.2322 56.8913C31.2491 56.9633 31.2845 57.1165 31.3105 57.2313C31.3365 57.3462 31.4412 57.7208 31.5434 58.0639C31.645 58.4071 31.7422 58.7345 31.7592 58.7916C31.8716 59.1762 32.2677 60.166 32.4604 60.5448C32.5032 60.629 32.5461 60.7213 32.5547 60.7505C32.6375 61.015 33.4672 62.4407 33.7753 62.8463C33.8636 62.9629 33.9371 63.072 33.9384 63.0887C33.9417 63.1295 34.3714 63.6633 34.5229 63.8153C34.5885 63.8816 34.744 64.0525 34.8681 64.1955C35.1293 64.4973 35.7371 65.0814 36.0521 65.3335C36.4581 65.6578 36.743 65.8749 36.8841 65.9674C37.175 66.1586 37.6602 66.4628 37.7807 66.5303C37.8497 66.5689 37.9362 66.6241 37.9728 66.6541C38.0094 66.6841 38.0913 66.7198 38.154 66.7347C38.2174 66.7495 38.3006 66.7938 38.3392 66.8336C38.3778 66.8728 38.4391 66.9008 38.4756 66.8979C38.512 66.895 38.5681 66.8575 38.5999 66.8127C38.6317 66.7672 38.7067 66.7102 38.7669 66.6854C38.8266 66.6614 38.9016 66.6124 38.933 66.577C38.9643 66.5415 39.0409 66.4731 39.1029 66.424C39.211 66.3382 39.6414 65.9604 39.898 65.7252C40.0226 65.6113 40.2691 65.3515 40.6175 64.9666C40.8888 64.6674 41.3955 63.9936 41.6052 63.6541C41.7048 63.4931 41.8304 63.2995 41.8846 63.2237C42.0105 63.0494 42.3494 62.4538 42.3462 62.4136C42.3449 62.3969 42.3999 62.2769 42.4685 62.1476C42.7072 61.6981 43.2992 60.1581 43.3387 59.8838C43.3425 59.8536 43.3701 59.7563 43.3989 59.6657C43.5287 59.2616 43.7616 58.2212 43.8111 57.823C43.8188 57.7639 43.8624 57.4252 43.9079 57.0702C43.9541 56.7158 43.9976 56.3286 44.0049 56.2111C44.0123 56.0936 44.0226 55.9367 44.0273 55.8636C44.0491 55.5615 44.0575 54.9234 44.0502 54.105C44.0459 53.5643 43.922 52.0303 43.8494 51.607C43.7924 51.277 43.8331 51.2259 43.9912 51.4296C44.0474 51.5022 44.2257 51.6769 44.3875 51.8187C44.5494 51.9599 44.723 52.1164 44.773 52.1665C44.8588 52.251 45.1931 52.5189 46.0007 53.1504C46.1871 53.2959 46.4242 53.469 46.5277 53.5334C46.6305 53.5985 46.7531 53.6838 46.7997 53.723C46.9104 53.8161 47.4804 54.1912 47.7386 54.3409C47.8489 54.4054 47.97 54.4802 48.007 54.5077C48.044 54.5352 48.1742 54.6068 48.296 54.6679C48.4184 54.7284 48.5312 54.7933 48.5475 54.8113C48.5633 54.8299 48.6882 54.8901 48.8245 54.9457C48.9602 55.0013 49.085 55.061 49.1007 55.0784C49.1566 55.1404 49.6876 55.4024 49.9321 55.4891C50.0678 55.5373 50.2414 55.6073 50.3172 55.6453C50.4402 55.7057 50.6145 55.7707 51.3594 56.0323C51.8189 56.1938 52.9629 56.478 53.5586 56.5788C54.5723 56.7504 55.4217 56.7798 56.6279 56.6847C57.6092 56.6077 58.4576 56.4636 59.016 56.2782C59.0451 56.269 59.1265 56.2445 59.1983 56.2244C59.27 56.2037 59.3907 56.166 59.4663 56.14C59.6007 56.0938 59.6275 56.0326 59.6699 55.6704C59.6783 55.5969 59.6895 55.5121 59.6939 55.4825C59.8643 54.4216 59.7553 52.6407 59.4261 51.1132C59.2523 50.3044 58.6711 48.7754 58.2283 47.9628C57.8511 47.2693 57.7591 47.1075 57.6799 46.9957C57.6302 46.927 57.5334 46.7669 57.4642 46.6406C57.3395 46.4131 56.9961 45.9307 56.9259 45.8854C56.9062 45.8727 56.8269 45.7597 56.7508 45.6339C56.6742 45.5083 56.5948 45.3946 56.5739 45.382C56.5535 45.3687 56.4714 45.2677 56.3923 45.1572C56.3125 45.0461 56.221 44.9291 56.1879 44.8969C56.1549 44.8647 56.0617 44.7578 55.9803 44.6586C55.7914 44.4276 55.33 43.9249 55.2204 43.8305C55.1743 43.7906 55.0706 43.6833 54.9898 43.5922C54.9091 43.5004 54.701 43.2939 54.527 43.1331C53.7752 42.4368 53.4573 42.1495 53.3602 42.0784C53.3028 42.037 53.1206 41.8905 52.9554 41.7533C52.7895 41.6162 52.5886 41.4682 52.5079 41.4243C52.2816 41.3007 52.3256 41.2524 52.6598 41.256C53.0892 41.26 54.624 41.1373 55.1584 41.0552C55.9675 40.9317 56.596 40.8215 56.8902 40.7524C56.9622 40.7355 57.1155 40.7001 57.2303 40.6741C57.3451 40.6481 57.7197 40.5434 58.0629 40.4412C58.406 40.3396 58.7334 40.2424 58.7905 40.2254C59.1757 40.1129 60.1649 39.7169 60.5437 39.5242C60.6279 39.4813 60.7203 39.4385 60.7494 39.4299C61.0139 39.3471 62.4396 38.5168 62.8452 38.2093C62.9618 38.121 63.071 38.0475 63.0876 38.0462C63.1284 38.0429 63.6623 37.6132 63.8142 37.4611C63.8804 37.3954 64.0514 37.2405 64.1944 37.1165C64.4962 36.8553 65.0804 36.2475 65.3324 35.9325C65.6567 35.5265 65.8738 35.2416 65.9663 35.1005C66.1575 34.8096 66.4618 34.3244 66.5292 34.2039C66.5678 34.1349 66.6207 34.0498 66.6477 34.0147C66.6747 33.9796 66.7209 33.8888 66.7509 33.8136C66.7809 33.7378 66.8305 33.635 66.8606 33.5847C66.9032 33.5116 66.8934 33.467 66.7895 33.3572C66.72 33.2819 66.6611 33.1984 66.6589 33.1712C66.6567 33.144 66.6228 33.0933 66.5832 33.0579C66.5444 33.0231 66.4721 32.9437 66.4229 32.8817C66.3371 32.7736 65.9593 32.3432 65.7241 32.0866C65.6103 31.962 65.3504 31.7155 64.9654 31.3665C64.6663 31.0958 63.9926 30.589 63.653 30.3794C63.492 30.2798 63.2985 30.1542 63.2226 30.1C63.0483 29.9741 62.4527 29.6351 62.4119 29.6384C62.3952 29.6398 62.2758 29.5847 62.1465 29.5161C61.697 29.2768 60.157 28.6854 59.8827 28.6459C59.8526 28.6421 59.7546 28.6145 59.6646 28.5857C59.2599 28.4559 58.2201 28.223 57.8219 28.1735C57.7628 28.1658 57.4241 28.1221 57.0691 28.0767C56.7141 28.0306 56.3275 27.987 56.21 27.9797C56.0925 27.9723 55.9356 27.9619 55.8618 27.9567C55.5604 27.9355 54.9223 27.9271 54.1039 27.9344C53.5633 27.9387 52.0286 28.0627 51.6053 28.1352C51.276 28.1922 51.2248 28.1515 51.4285 27.9934C51.5011 27.9372 51.6758 27.7583 51.8177 27.5971C51.9589 27.4352 52.1153 27.2616 52.1654 27.2115C52.2499 27.1258 52.5178 26.7915 53.1487 25.984C53.2948 25.7975 53.4672 25.5598 53.5323 25.4569C53.5974 25.354 53.6827 25.2315 53.7219 25.1849C53.815 25.0741 54.1902 24.5042 54.3398 24.246C54.4043 24.1351 54.4791 24.0146 54.5066 23.9776C54.5341 23.9406 54.6058 23.8104 54.6668 23.688C54.7273 23.5662 54.7922 23.4534 54.8102 23.4371C54.8288 23.4213 54.8891 23.2964 54.9446 23.1601C55.0002 23.0238 55.0599 22.8996 55.0772 22.8833C55.1393 22.8273 55.4013 22.297 55.488 22.0525C55.5362 21.9168 55.6062 21.7432 55.6443 21.6674C55.7046 21.5444 55.7696 21.37 56.0312 20.6252C56.1927 20.1657 56.4769 19.0217 56.5776 18.4253C56.7493 17.4122 56.7786 16.5623 56.6836 15.3567C56.6066 14.3754 56.4625 13.527 56.2771 12.9679C56.268 12.9394 56.2433 12.8575 56.2233 12.7863C56.1028 12.3626 56.1068 12.366 55.6693 12.3147C55.5952 12.3064 55.511 12.2951 55.4814 12.2906C54.4205 12.1203 52.6396 12.2293 51.112 12.5579C50.3034 12.7323 48.7743 13.3135 47.9617 13.7563C47.2682 14.1335 47.1064 14.2255 46.9947 14.3047C46.9259 14.3544 46.7658 14.4512 46.6395 14.5204C46.412 14.645 45.9297 14.9885 45.8843 15.0587C45.8716 15.0784 45.7579 15.1572 45.6329 15.2337C45.5072 15.3104 45.3936 15.3898 45.3809 15.4107C45.3676 15.431 45.2667 15.5132 45.1555 15.5924C45.045 15.6721 44.928 15.7636 44.8958 15.7967C44.8637 15.8297 44.7561 15.9229 44.6576 16.0042C44.4265 16.1932 43.9238 16.6546 43.8294 16.7642C43.7896 16.8103 43.6822 16.914 43.5911 16.9947C43.4993 17.0749 43.2928 17.2836 43.132 17.457C42.4357 18.2094 42.1485 18.5272 42.0773 18.6244C42.0359 18.6818 41.8895 18.864 41.7523 19.0292C41.6151 19.1951 41.4671 19.396 41.4232 19.4766C41.2996 19.703 41.2513 19.659 41.2549 19.3241C41.2589 18.8947 41.1362 17.3606 41.0541 16.8262C40.9306 16.0171 40.8204 15.3886 40.7507 15.0938C40.7344 15.0224 40.6991 14.8691 40.6731 14.7543C40.647 14.6395 40.5423 14.2642 40.4401 13.9217C40.3385 13.5786 40.2413 13.2512 40.2243 13.1941C40.1119 12.8089 39.7158 11.819 39.5231 11.4409C39.4802 11.356 39.4374 11.2643 39.4288 11.2352C39.346 10.9707 38.5157 9.54482 38.2082 9.13922C38.1199 9.02251 38.0464 8.91331 38.0451 8.89656C38.0419 8.85628 37.6121 8.3222 37.46 8.1702C37.3944 8.10427 37.2395 7.93321 37.1154 7.79015C36.8543 7.48852 36.2464 6.90434 35.9308 6.65236C35.5254 6.32807 35.2405 6.11074 35.0994 6.01811C34.8085 5.82689 34.3233 5.52244 34.2028 5.4552C34.1339 5.41687 34.0487 5.36363 34.0136 5.33684C33.9785 5.31005 33.8877 5.2636 33.8126 5.23361C33.7368 5.20366 33.6339 5.15436 33.5836 5.124C33.5562 5.10734 33.5331 5.09881 33.5083 5.10014ZM20.8666 6.42063C20.8468 6.42222 20.9205 7.4401 21.0304 8.68268C21.4072 12.946 21.6545 15.6283 21.673 15.6417C21.6829 15.6496 21.8394 15.716 22.0213 15.7903C22.2856 15.8978 23.0674 16.3026 23.3534 16.4798C23.3848 16.4991 23.5594 16.5982 23.743 16.701C23.9266 16.8032 24.126 16.9246 24.1863 16.9707C24.2472 17.0162 24.3413 17.0646 24.3957 17.077C24.4502 17.0894 24.4962 17.1199 24.4982 17.1446C24.5002 17.1693 24.5692 17.2086 24.6513 17.2312C24.7339 17.2538 24.8182 17.2731 24.8381 17.2734C24.8587 17.2742 24.8056 16.4664 24.7205 15.4776C24.6355 14.4895 24.5699 13.6808 24.5754 13.6803C24.5921 13.679 26.8314 15.5978 27.0678 15.8157C27.2666 15.9993 27.4046 16.0684 27.3756 15.97C27.3695 15.9481 27.3757 15.8942 27.3895 15.8489C27.4039 15.8036 27.4569 15.3566 27.508 14.855C27.5596 14.3527 27.6184 13.8456 27.6392 13.7264C27.6602 13.6078 27.6808 13.4625 27.6854 13.4037C27.6949 13.2735 27.7123 13.1733 27.7977 12.7653C27.8628 12.4535 27.8619 12.4499 27.7372 12.3448C27.6678 12.2864 27.245 11.9161 26.798 11.5224C25.1785 10.0964 20.9018 6.41805 20.8666 6.42088L20.8666 6.42063ZM46.1999 4.38462C46.1646 4.38745 42.5303 8.70163 41.1594 10.3679C40.7809 10.828 40.4227 11.261 40.3636 11.3298C40.2572 11.4534 40.2569 11.4572 40.371 11.7546C40.5204 12.1436 40.5536 12.2399 40.5837 12.3668C40.5977 12.4241 40.6413 12.5643 40.6809 12.678C40.7205 12.7923 40.8595 13.2836 40.9901 13.7712C41.1213 14.2581 41.245 14.6909 41.2664 14.7334C41.2873 14.7758 41.302 14.8281 41.2995 14.8507C41.2859 14.9526 41.4117 14.8622 41.5787 14.6492C41.7773 14.3963 43.6813 12.1446 43.698 12.1432C43.7036 12.1428 43.768 12.9516 43.8418 13.9406C43.9158 14.9302 43.9826 15.7389 43.9913 15.7382C44.0667 15.7321 44.3303 15.5847 44.3275 15.5501C44.3256 15.526 44.3661 15.4885 44.4179 15.4676C44.4697 15.4466 44.5542 15.3839 44.6064 15.3293C44.6585 15.2741 44.8354 15.1225 45.0003 14.9923C45.1645 14.8616 45.3223 14.7357 45.3502 14.7117C45.6331 14.4707 46.3138 13.9658 46.5563 13.8182C46.7241 13.7158 46.8679 13.6253 46.8765 13.6159C46.8926 13.5997 46.7083 10.9126 46.3994 6.64354C46.3094 5.39968 46.2196 4.38303 46.1999 4.38462ZM33.9452 10.2037C33.962 10.2038 33.9762 10.21 33.9913 10.2199C34.1318 10.3131 34.9722 11.0356 35.2071 11.2654C35.7079 11.7555 36.5071 12.8722 36.7301 13.3947C36.7362 13.4091 36.774 13.485 36.8139 13.5633C36.8544 13.6421 36.9075 13.7691 36.9331 13.8466C36.9579 13.9236 36.9977 14.0093 37.0211 14.0366C37.045 14.0639 37.082 14.1449 37.1039 14.2159C37.1258 14.2875 37.1952 14.4859 37.2587 14.6562C37.3215 14.8265 37.385 15.0135 37.399 15.0709C37.4267 15.1843 37.481 15.3721 37.5803 15.6949C37.6156 15.809 37.6674 16.0206 37.6958 16.1645C37.7241 16.3083 37.7651 16.509 37.7869 16.6092C37.9232 17.2295 37.9644 17.5489 38.0573 18.69C38.1546 19.8923 38.1968 20.9746 38.1606 21.3525C38.152 21.4464 38.1447 21.6031 38.1457 21.7001C38.1459 21.7964 38.1406 22.0083 38.133 22.1699C38.12 22.4402 38.0969 22.7337 37.9692 24.2321C37.9437 24.5264 37.9067 24.793 37.8868 24.8239C37.8669 24.8547 37.8206 25.1457 37.7846 25.4707C37.7708 25.5937 37.7558 25.7087 37.7406 25.8132C38.7066 25.9799 39.6494 26.2816 40.5302 26.7108C40.5765 26.6218 40.6263 26.5289 40.6796 26.4345C40.8346 26.1577 40.9735 25.8897 40.988 25.8376C41.0222 25.7148 41.463 24.9245 41.5391 24.85C41.5714 24.8181 41.7292 24.5536 41.8899 24.2627C42.0506 23.9718 42.2096 23.7141 42.2437 23.6896C42.2772 23.6651 42.3719 23.5201 42.454 23.3667C42.5356 23.2134 42.6218 23.0864 42.6459 23.0845C42.6694 23.0826 42.7316 22.998 42.7831 22.8963C42.8353 22.7944 42.9272 22.6465 42.9873 22.5664C43.0474 22.4864 43.216 22.2632 43.3616 22.07C43.5065 21.8774 43.7563 21.5576 43.9165 21.3606C44.0759 21.1631 44.2737 20.9159 44.3555 20.8111C44.6802 20.3951 45.4812 19.5752 46.097 19.0282C46.1876 18.9482 46.2859 18.8563 46.3157 18.8247C46.3449 18.7931 46.5152 18.6532 46.6943 18.5138C46.8734 18.375 47.0536 18.2337 47.0951 18.2005C47.4956 17.8761 48.8761 17.0488 49.038 17.0357C49.0788 17.0325 49.1275 17.0118 49.1468 16.9891C49.2195 16.9036 50.3982 16.5353 50.9442 16.4274C51.1248 16.3917 51.5724 16.3439 51.9794 16.3099C52.3871 16.2759 52.7548 16.2551 52.7769 16.2738C52.8209 16.3113 52.9307 17.739 52.918 18.1075C52.8987 18.6638 52.7233 19.8861 52.6506 19.9715C52.6312 19.9942 52.6186 20.0456 52.6219 20.0864C52.6349 20.2483 52.0387 21.7432 51.7823 22.1904C51.7562 22.2367 51.6454 22.4371 51.5364 22.6355C51.428 22.8345 51.3172 23.0256 51.2906 23.0595C51.2642 23.0939 51.1892 23.205 51.1247 23.3079C50.683 24.0025 50.0016 24.9248 49.6428 25.3112C49.5524 25.4092 49.3399 25.6439 49.1704 25.8329C49.0009 26.0219 48.7257 26.3195 48.5588 26.494C48.3913 26.6685 48.1979 26.8706 48.1285 26.9427C48.059 27.0148 47.9271 27.1293 47.8355 27.1969C47.7433 27.2641 47.6697 27.339 47.6716 27.3625C47.6735 27.3866 47.562 27.4919 47.4237 27.5969C47.2854 27.7026 47.1573 27.8192 47.1386 27.8561C47.1198 27.8937 46.8907 28.0918 46.6292 28.2969C46.3678 28.502 46.1318 28.7001 46.1056 28.737C46.0442 28.824 45.3344 29.3854 45.2186 29.4388C45.1695 29.4614 44.9271 29.6414 44.6787 29.8385C44.5939 29.9063 44.5102 29.9702 44.4298 30.0302C44.9935 30.8318 45.4455 31.7127 45.7668 32.6389C45.8663 32.6079 45.975 32.5756 46.0924 32.5425C46.4075 32.455 46.6874 32.3629 46.7146 32.3383C46.7419 32.3137 46.9992 32.2346 47.2857 32.1624C48.7444 31.7971 49.0298 31.7275 49.2952 31.6713C49.4535 31.6381 49.6612 31.5984 49.757 31.5839C49.8528 31.5687 50.0057 31.5371 50.0971 31.5136C50.4643 31.4169 51.5401 31.2857 52.7426 31.1903C53.8838 31.0998 54.2057 31.0895 54.8391 31.1244C54.9422 31.1304 55.1468 31.1389 55.2934 31.1439C55.4399 31.1489 55.6571 31.1663 55.7753 31.1829C56.1099 31.2294 56.3039 31.2529 56.4203 31.2622C56.4792 31.2668 56.6733 31.2997 56.8521 31.3345C57.0303 31.3693 57.2372 31.4068 57.3108 31.417C57.385 31.4272 57.4709 31.4508 57.5016 31.4695C57.5324 31.4888 57.6234 31.5144 57.7033 31.5266C57.7833 31.5389 57.9177 31.5716 58.002 31.5984C58.0856 31.6259 58.1666 31.6511 58.1819 31.6548C58.7332 31.7915 59.9632 32.4021 60.5264 32.8183C60.7915 33.014 61.6386 33.7276 61.753 33.8508C61.8184 33.9221 61.7701 34.0018 61.3765 34.4663C60.7887 35.1608 60.6017 35.3481 60.0982 35.7455C59.4796 36.2343 58.9644 36.5711 58.5898 36.7311C58.5754 36.7373 58.4995 36.7751 58.4212 36.8149C58.3424 36.8555 58.2149 36.9093 58.1379 36.9341C58.0609 36.9589 57.9752 36.9988 57.9479 37.0221C57.9206 37.0461 57.8396 37.0831 57.768 37.105C57.697 37.1269 57.4986 37.1969 57.3283 37.2597C57.1574 37.3226 56.9709 37.3855 56.9136 37.3994C56.8562 37.4133 56.751 37.4429 56.6795 37.4655C56.361 37.5644 56.0128 37.6583 55.8201 37.6975C55.3201 37.798 55.0786 37.8497 54.9569 37.8819C54.8016 37.923 52.073 38.187 52.0444 38.1638C52.0331 38.1548 51.7495 38.1546 51.4138 38.1629C51.0774 38.1713 50.726 38.1709 50.6314 38.1617C50.5374 38.1531 50.3814 38.1458 50.2845 38.1467C50.1875 38.147 49.9762 38.1416 49.8146 38.1341C49.5436 38.121 49.2508 38.0979 47.7524 37.9703C47.4581 37.9448 47.1915 37.9078 47.1606 37.8878C47.1298 37.8679 46.8388 37.8217 46.5138 37.7856C46.3958 37.7721 46.2858 37.7579 46.1846 37.7437C46.0166 38.7105 45.7092 39.6518 45.2789 40.5339C45.3659 40.5798 45.4575 40.6284 45.55 40.6807C45.8268 40.8356 46.0948 40.9745 46.1469 40.989C46.2697 41.0233 47.06 41.4641 47.1346 41.5402C47.1664 41.5724 47.4309 41.7303 47.7218 41.891C48.0127 42.0516 48.2704 42.2106 48.295 42.2447C48.3194 42.2782 48.4644 42.3729 48.6178 42.4551C48.7711 42.5367 48.8981 42.6229 48.9 42.647C48.9019 42.6704 48.9865 42.7327 49.0882 42.7842C49.1895 42.8364 49.338 42.9283 49.4181 42.9884C49.4981 43.0485 49.7213 43.2171 49.9145 43.3626C50.1071 43.5076 50.4263 43.7574 50.6239 43.9175C50.8214 44.077 51.0686 44.2748 51.1734 44.3565C51.5894 44.6813 52.4093 45.4822 52.9563 46.098C53.0363 46.1886 53.1282 46.2869 53.1598 46.3167C53.1914 46.3459 53.3313 46.5162 53.4701 46.6954C53.6095 46.8745 53.7508 47.0546 53.784 47.0961C54.1084 47.4966 54.9358 48.8772 54.9488 49.039C54.952 49.0798 54.9727 49.1285 54.9954 49.1478C55.0809 49.2206 55.4492 50.3992 55.5572 50.9452C55.621 51.2672 55.7498 52.7312 55.718 52.7692C55.6975 52.7926 54.6331 52.9261 54.6067 52.9077C54.5995 52.9027 54.3663 52.9027 54.0887 52.907C53.4696 52.9176 52.1318 52.7528 52.013 52.6516C51.9903 52.6323 51.9389 52.6196 51.8981 52.6229C51.7362 52.6359 50.2413 52.0397 49.7941 51.7834C49.7478 51.7572 49.5474 51.6465 49.3484 51.5381C49.1494 51.4291 48.9589 51.3182 48.925 51.2917C48.8906 51.2652 48.7788 51.1903 48.6766 51.1257C47.9814 50.6841 47.0598 50.0027 46.6727 49.6439C46.5753 49.5534 46.3406 49.341 46.1516 49.1715C45.962 49.002 45.6644 48.7268 45.4905 48.5599C45.316 48.3923 45.1139 48.1984 45.0418 48.1295C44.9697 48.0601 44.8552 47.9281 44.7876 47.8366C44.7205 47.7443 44.6455 47.6708 44.622 47.6726C44.5979 47.6746 44.4926 47.563 44.3876 47.4247C44.2819 47.2864 44.1653 47.1584 44.1284 47.1396C44.0908 47.1209 43.8927 46.8918 43.6876 46.6303C43.4825 46.3688 43.2844 46.1329 43.2475 46.1066C43.1605 46.0452 42.5991 45.3354 42.5457 45.2197C42.5231 45.1705 42.3432 44.9281 42.146 44.6797C42.0809 44.5979 42.0191 44.517 41.9606 44.4396C41.1617 45.0138 40.2773 45.4611 39.3488 45.7776C39.3784 45.8747 39.4105 45.9797 39.442 46.0935C39.5295 46.4079 39.6217 46.6884 39.6462 46.7157C39.6708 46.7429 39.7499 47.0002 39.8221 47.2867C40.1874 48.7454 40.257 49.0308 40.3132 49.2962C40.3464 49.4546 40.3855 49.6623 40.4007 49.7581C40.4152 49.8539 40.4474 50.0068 40.4709 50.0982C40.567 50.4654 40.6982 51.5412 40.7942 52.7436C40.8847 53.8849 40.895 54.2068 40.8595 54.8402C40.8541 54.9432 40.8457 55.1479 40.8406 55.2944C40.8356 55.441 40.8183 55.6581 40.8016 55.7764C40.7552 56.1109 40.7316 56.305 40.7223 56.4214C40.7177 56.4802 40.6848 56.6744 40.65 56.8532C40.6146 57.0314 40.5777 57.2383 40.5675 57.3119C40.5573 57.3861 40.5337 57.4719 40.5144 57.5027C40.4957 57.5334 40.4701 57.6244 40.4579 57.7044C40.4451 57.785 40.4129 57.9188 40.3855 58.0031C40.3586 58.0867 40.3334 58.1677 40.3297 58.1829C40.2315 58.5782 39.9813 59.1406 39.5976 59.8293C39.2976 60.3677 39.1383 60.5907 38.6038 61.22C38.3896 61.4723 38.1782 61.7125 38.133 61.7541C38.0625 61.8201 37.9827 61.7712 37.5182 61.3776C36.8237 60.7898 36.6364 60.6027 36.239 60.0993C35.7502 59.4806 35.4135 58.9654 35.2534 58.5909C35.2473 58.5765 35.2094 58.5005 35.1689 58.4223C35.129 58.3434 35.0753 58.2166 35.0504 58.139C35.0256 58.062 34.9857 57.9763 34.9618 57.949C34.9384 57.9216 34.9014 57.8406 34.8795 57.769C34.8576 57.698 34.7876 57.4997 34.7248 57.3294C34.6619 57.1584 34.5984 56.972 34.5845 56.9147C34.5567 56.8012 34.5025 56.6135 34.4031 56.2906C34.3679 56.1765 34.316 55.9649 34.2877 55.8211C34.2593 55.6772 34.2183 55.4766 34.1959 55.3758C34.0603 54.7561 34.0191 54.4367 33.9261 53.2956C33.8283 52.0934 33.786 51.0104 33.8228 50.6325C33.8314 50.5385 33.8381 50.3825 33.8378 50.2855C33.8369 50.1886 33.8429 49.9773 33.8504 49.8156C33.8635 49.5447 33.8866 49.2518 34.0143 47.7535C34.0397 47.4592 34.0768 47.1925 34.0967 47.1617C34.1166 47.1309 34.1628 46.8392 34.1989 46.5148C34.212 46.3994 34.2257 46.2913 34.2401 46.1919C33.7868 46.1145 33.3391 46.0075 32.9001 45.8674C32.4007 45.7129 31.915 45.5181 31.4469 45.2877C31.4021 45.3728 31.3545 45.4612 31.3039 45.5511C31.1489 45.8278 31.01 46.0958 30.9955 46.148C30.9612 46.2707 30.5204 47.0611 30.4443 47.1356C30.4121 47.1674 30.2542 47.432 30.0936 47.7228C29.9329 48.0137 29.7739 48.2715 29.7398 48.296C29.7063 48.3205 29.611 48.4655 29.5294 48.6189C29.4478 48.7722 29.361 48.8992 29.3376 48.901C29.3141 48.9029 29.2519 48.9875 29.2003 49.0893C29.1482 49.1905 29.0562 49.339 28.9961 49.4191C28.936 49.4986 28.7674 49.7223 28.6219 49.9156C28.4763 50.1082 28.2265 50.4274 28.067 50.6249C27.9075 50.8224 27.7097 51.0697 27.6274 51.1745C27.3033 51.5905 26.5017 52.4104 25.8865 52.9574C25.7953 53.0374 25.6976 53.1292 25.6678 53.1609C25.6386 53.1924 25.4683 53.3324 25.2892 53.4717C25.1101 53.6105 24.9299 53.7518 24.8884 53.785C24.4879 54.1095 23.1073 54.9368 22.9455 54.9498C22.9047 54.9531 22.856 54.9738 22.8367 54.9965C22.7514 55.0966 21.493 55.4782 20.9602 55.5652C20.4975 55.6409 19.7722 55.7154 19.4424 55.7207L19.1903 55.7248L19.1635 55.477C19.11 54.982 19.064 54.2164 19.0688 53.9045C19.0769 53.3784 19.2545 52.1061 19.3329 52.014C19.3522 51.9913 19.3649 51.9399 19.3616 51.8992C19.3486 51.7373 19.9448 50.2423 20.2011 49.7951C20.2273 49.7489 20.338 49.5485 20.4464 49.3495C20.5554 49.1504 20.6663 48.9599 20.6928 48.9261C20.7193 48.8916 20.7942 48.7799 20.8588 48.6777C21.3004 47.9824 21.9819 47.0608 22.3407 46.6738C22.4311 46.5763 22.6435 46.3416 22.813 46.1526C22.9819 45.9631 23.2577 45.6654 23.4247 45.4916C23.5922 45.3171 23.7855 45.115 23.855 45.0429C23.9244 44.9707 24.0558 44.8563 24.148 44.7886C24.2402 44.7215 24.3138 44.6466 24.3119 44.6231C24.3099 44.599 24.4215 44.4936 24.5598 44.3886C24.6981 44.283 24.8261 44.1664 24.8449 44.1294C24.8637 44.0918 25.0927 43.8937 25.3542 43.6886C25.6157 43.4835 25.8516 43.2855 25.8779 43.2486C25.9393 43.1615 26.6491 42.6002 26.7648 42.5467C26.814 42.5241 27.0564 42.3442 27.3048 42.147C27.3866 42.0814 27.4674 42.0195 27.5455 41.9616C27.0286 41.2327 26.6059 40.4371 26.3006 39.5942C26.2698 39.5127 26.2402 39.4305 26.2112 39.3483C26.1135 39.3785 26.006 39.4108 25.8911 39.4431C25.576 39.5306 25.2961 39.6227 25.2688 39.6473C25.2416 39.6719 24.9843 39.751 24.6978 39.8231C23.2434 40.1875 22.9531 40.2581 22.6883 40.3142C22.53 40.3481 22.3414 40.385 22.269 40.397C22.1965 40.4085 22.0079 40.4441 21.8494 40.4762C21.6909 40.5082 21.4078 40.5602 21.22 40.5914C20.8586 40.6522 18.018 40.9221 17.9881 40.8984C17.9788 40.8911 17.8269 40.8815 17.6507 40.8783C17.475 40.8744 17.2468 40.8666 17.1437 40.8606C17.0413 40.8551 16.8366 40.8467 16.6901 40.8417C16.5436 40.8367 16.3264 40.8193 16.2081 40.8027C15.8736 40.7562 15.6795 40.7326 15.5631 40.7233C15.5043 40.7187 15.3095 40.6859 15.1314 40.6511C14.9532 40.6163 14.7462 40.5788 14.672 40.5686C14.5984 40.5583 14.5126 40.5348 14.4818 40.5155C14.4511 40.4968 14.3601 40.4711 14.2802 40.4589C14.1996 40.4467 14.0657 40.414 13.9814 40.3865C13.8978 40.3597 13.8168 40.3345 13.8016 40.3307C13.4063 40.2325 12.8439 39.9823 12.1552 39.5987C11.5947 39.2868 11.3802 39.1318 10.6888 38.54C10.2263 38.1444 10.1655 38.0734 10.2189 37.9926C10.3121 37.8527 11.0346 37.0129 11.2643 36.7774C11.7545 36.2766 12.8712 35.4774 13.3936 35.2544C13.4081 35.2483 13.484 35.2105 13.5622 35.17C13.6411 35.1301 13.768 35.0763 13.8456 35.0515C13.9225 35.0266 14.0083 34.9868 14.0356 34.9628C14.0629 34.9395 14.1439 34.9025 14.2149 34.8806C14.2865 34.8587 14.4848 34.7886 14.6551 34.7258C14.8255 34.663 15.0125 34.5995 15.0698 34.5855C15.1833 34.5578 15.3711 34.5035 15.6939 34.4042C15.808 34.3689 16.0196 34.3171 16.1634 34.2887C16.3073 34.2604 16.508 34.2194 16.6081 34.197C17.2284 34.0613 17.5478 34.0201 18.6889 33.9272C19.8912 33.8293 20.9735 33.7871 21.3514 33.8239C21.4454 33.8325 21.602 33.8392 21.699 33.8389C21.7953 33.838 22.0072 33.8439 22.1689 33.8515C22.4392 33.8646 22.7327 33.8876 24.231 34.0153C24.5254 34.0408 24.792 34.0778 24.8228 34.0977C24.8536 34.1176 25.1447 34.1639 25.4697 34.1999C25.5914 34.2138 25.7051 34.2283 25.8084 34.2436C25.9744 33.2764 26.2755 32.3337 26.7058 31.4522C26.6182 31.4063 26.5266 31.3571 26.4334 31.3049C26.1567 31.1499 25.8887 31.011 25.8366 30.9966C25.7138 30.9623 24.9234 30.5215 24.8489 30.4454C24.8171 30.4131 24.5526 30.2553 24.2617 30.0946C23.9708 29.9339 23.713 29.7749 23.6885 29.7408C23.6641 29.7073 23.519 29.6127 23.3657 29.5305C23.2123 29.4489 23.0854 29.3627 23.0835 29.3386C23.0816 29.3151 22.997 29.2529 22.8952 29.2014C22.7934 29.1492 22.6455 29.0573 22.5654 28.9972C22.4853 28.9371 22.2622 28.7685 22.0689 28.6229C21.8763 28.4774 21.5565 28.2276 21.3596 28.068C21.1621 27.9086 20.9149 27.7108 20.81 27.6284C20.394 27.3043 19.5741 26.5027 19.0272 25.8875C18.9471 25.7963 18.8553 25.6986 18.8236 25.6688C18.7921 25.6396 18.6521 25.4687 18.5127 25.2896C18.374 25.1111 18.2327 24.9309 18.1995 24.8894C17.875 24.4889 17.0477 23.1084 17.0347 22.9465C17.0314 22.9057 17.0107 22.857 16.988 22.8377C16.9026 22.765 16.5342 21.5863 16.4263 21.0403C16.3543 20.6786 16.2353 19.2517 16.2728 19.2076C16.2916 19.1856 16.6579 19.1475 17.0657 19.1159C17.473 19.0844 17.9219 19.0602 18.1065 19.0665C18.6627 19.0858 19.8851 19.2612 19.9705 19.3339C19.9932 19.3533 20.0446 19.3659 20.0854 19.3626C20.2472 19.3496 21.7422 19.9459 22.1894 20.2022C22.2356 20.2283 22.436 20.3391 22.635 20.4474C22.8341 20.5564 23.0246 20.6674 23.0584 20.6939C23.0929 20.7203 23.204 20.7953 23.3068 20.8598C24.0015 21.3015 24.9237 21.9829 25.3101 22.3417C25.4082 22.4321 25.6429 22.6446 25.8319 22.8141C26.0208 22.983 26.3184 23.2588 26.4929 23.4257C26.6674 23.5932 26.8695 23.7866 26.9417 23.856C27.0138 23.9255 27.1282 24.0568 27.1959 24.149C27.263 24.2412 27.338 24.3148 27.3614 24.3129C27.3849 24.311 27.4909 24.4225 27.5959 24.5608C27.7009 24.6992 27.8182 24.8272 27.8551 24.846C27.8927 24.8647 28.0908 25.0938 28.2959 25.3553C28.501 25.6167 28.699 25.8527 28.736 25.8789C28.823 25.9403 29.3843 26.6502 29.4378 26.7659C29.4604 26.815 29.6403 27.0574 29.8375 27.3058C29.9059 27.3911 29.9706 27.4761 30.0306 27.5571C30.8323 26.9939 31.7126 26.5426 32.6389 26.2219C32.6078 26.1212 32.5746 26.0107 32.5415 25.8921C32.454 25.577 32.3618 25.2971 32.3372 25.2699C32.3127 25.2426 32.2335 24.9853 32.1614 24.6989C31.796 23.2401 31.7264 22.9541 31.6703 22.6893C31.637 22.531 31.5973 22.3227 31.5828 22.2275C31.5676 22.1317 31.536 21.9782 31.5125 21.8868C31.4158 21.5196 31.2847 20.4444 31.1893 19.2419C31.0988 18.1007 31.0885 17.7788 31.1233 17.1448C31.1294 17.0423 31.1378 16.8377 31.1428 16.6911C31.1478 16.5446 31.1652 16.3274 31.1818 16.2092C31.2283 15.8746 31.2519 15.6806 31.2612 15.5642C31.2658 15.5053 31.2986 15.3106 31.3335 15.1324C31.3683 14.9542 31.4057 14.7473 31.4159 14.6731C31.4262 14.5995 31.4498 14.5136 31.4684 14.4829C31.4877 14.4521 31.5134 14.3611 31.5256 14.2812C31.5378 14.2006 31.5705 14.0668 31.5974 13.9825C31.6248 13.8989 31.65 13.8179 31.6538 13.8026C31.752 13.4073 32.0022 12.845 32.3858 12.1562C32.6977 11.5958 32.8527 11.3812 33.4445 10.69C33.7663 10.3142 33.873 10.2034 33.9452 10.2037ZM5.76473 25.6511C4.95405 25.7156 4.38256 25.7696 4.38376 25.7845C4.38661 25.8203 8.75722 29.5011 10.3669 30.8237C10.827 31.2021 11.2535 31.5571 11.3146 31.6125C11.4467 31.7331 11.4654 31.7329 11.7961 31.6C12.1027 31.4764 12.2255 31.4336 12.3658 31.3999C12.4232 31.3866 12.5633 31.343 12.677 31.3034C12.7914 31.2638 13.2827 31.1248 13.7702 30.9936C14.2572 30.863 14.69 30.7393 14.7324 30.7179C14.7743 30.6971 14.8272 30.6823 14.8492 30.6848C14.9516 30.6978 14.8613 30.5726 14.6483 30.4056C14.3954 30.2071 12.1436 28.303 12.1423 28.2863C12.1418 28.2807 12.9507 28.2164 13.9397 28.1425C14.9293 28.0685 15.7379 28.0017 15.7372 27.993C15.7312 27.9176 15.5838 27.654 15.5492 27.6568C15.5251 27.6587 15.4876 27.6182 15.4667 27.5664C15.4457 27.5146 15.3829 27.4301 15.3284 27.3779C15.2732 27.3258 15.1216 27.1489 14.9908 26.9841C14.8606 26.8192 14.7348 26.662 14.7108 26.6341C14.4698 26.3512 13.9649 25.6705 13.8173 25.428C13.7149 25.2602 13.6243 25.1164 13.615 25.1078C13.5987 25.0917 10.9116 25.276 6.64261 25.5849C6.33188 25.6074 6.03503 25.63 5.76473 25.6511ZM64.1791 20.9564C63.9092 20.9787 63.6127 21.0037 63.3021 21.0312C59.0386 21.4081 56.3565 21.6553 56.3431 21.6738C56.3352 21.6838 56.2688 21.8402 56.1945 22.0222C56.0875 22.2851 55.6978 23.0378 55.505 23.3555C55.4858 23.3869 55.3867 23.5621 55.2839 23.7457C55.1818 23.9293 55.0603 24.1281 55.0142 24.1884C54.968 24.2487 54.9202 24.3421 54.9078 24.3966C54.8954 24.451 54.8649 24.497 54.8408 24.499C54.8062 24.5017 54.7028 24.7855 54.7088 24.8609C54.7095 24.8696 55.5184 24.8064 56.5065 24.7214C57.4953 24.6363 58.304 24.5707 58.3045 24.5763C58.3058 24.593 56.387 26.8322 56.1691 27.0686C55.9855 27.2674 55.9164 27.4055 56.0148 27.3764C56.0367 27.3703 56.0906 27.3765 56.1359 27.3903C56.1812 27.4047 56.6282 27.4577 57.1298 27.5088C57.6314 27.5605 58.1392 27.6192 58.2584 27.6401C58.377 27.661 58.5223 27.6817 58.5811 27.6863C58.725 27.6965 58.8581 27.7206 59.1485 27.7899C59.4832 27.8694 59.5337 27.8634 59.6473 27.7293C59.7018 27.6646 60.0686 27.2459 60.4624 26.7988C61.8881 25.1794 65.5665 20.9027 65.5637 20.8675C65.5625 20.8526 64.9897 20.8906 64.1791 20.9564ZM35.2132 26.3053C32.6419 26.5119 30.2581 27.7315 28.5861 29.6957C26.9141 31.66 26.0909 34.208 26.2976 36.7792C26.5042 39.3504 27.7238 41.7342 29.688 43.4062C31.6523 45.0782 34.2003 45.9014 36.7715 45.6948C39.3427 45.4881 41.7265 44.2685 43.3985 42.3043C45.0705 40.34 45.8937 37.7921 45.6871 35.2208C45.4804 32.6496 44.2608 30.2658 42.2966 28.5938C40.3323 26.9218 37.7844 26.0986 35.2132 26.3053ZM35.4811 29.6392C36.3164 29.5721 37.1568 29.6701 37.9542 29.9278C38.7516 30.1854 39.4905 30.5976 40.1286 31.1408C40.7667 31.6839 41.2916 32.3475 41.6733 33.0935C42.055 33.8396 42.286 34.6535 42.3531 35.4888C42.4885 37.1757 41.9483 38.8473 40.8513 40.1359C39.7543 41.4245 38.1904 42.2246 36.5035 42.3602C34.8166 42.4958 33.1449 41.9557 31.8562 40.8588C30.5675 39.762 29.7672 38.1981 29.6315 36.5112C29.4959 34.8242 30.036 33.1525 31.1331 31.8637C32.2301 30.575 33.7941 29.7748 35.4811 29.6392ZM12.4765 44.1457C12.423 44.1531 12.3963 44.1845 12.3435 44.2472C12.285 44.3166 11.9148 44.7393 11.521 45.1864C10.0951 46.8058 6.41669 51.0825 6.41953 51.1177C6.42114 51.1375 7.43906 51.0638 8.68157 50.954C12.9449 50.5771 15.6272 50.3298 15.6406 50.3113C15.6485 50.3014 15.7149 50.1449 15.7892 49.963C15.8962 49.7001 16.2859 48.9474 16.4786 48.6297C16.4979 48.5983 16.5969 48.4224 16.6991 48.2395C16.8019 48.0559 16.9233 47.8564 16.9695 47.7968C17.015 47.7365 17.0635 47.6431 17.0759 47.5886C17.0883 47.5341 17.1188 47.4881 17.1429 47.4862C17.1775 47.4834 17.2809 47.1996 17.2749 47.1243C17.2742 47.1156 16.4653 47.1788 15.4765 47.2638C14.4884 47.3488 13.6796 47.4138 13.6792 47.4083C13.6779 47.3922 15.5966 45.1529 15.8146 44.9165C15.9982 44.7177 16.0673 44.5791 15.9683 44.6088C15.947 44.6149 15.8924 44.6087 15.8478 44.5949C15.8025 44.5805 15.3555 44.5275 14.8538 44.4758C14.3516 44.4247 13.8445 44.366 13.7253 44.3451C13.6067 44.3241 13.4614 44.3035 13.4025 44.2989C13.2724 44.2894 13.1722 44.272 12.7642 44.1866C12.6086 44.1544 12.5296 44.1383 12.4767 44.1457L12.4765 44.1457ZM60.5072 40.2855C60.4538 40.2867 60.3784 40.3152 60.2294 40.3719C59.8409 40.5213 59.7447 40.5545 59.6178 40.5846C59.5604 40.5985 59.4203 40.6421 59.3066 40.6817C59.1922 40.7214 58.7003 40.8604 58.2134 40.991C57.7264 41.1222 57.2936 41.2459 57.2512 41.2673C57.2087 41.2881 57.1564 41.3029 57.1338 41.3004C57.032 41.2868 57.1223 41.4126 57.3353 41.5795C57.5882 41.7781 59.84 43.6822 59.8413 43.6989C59.8418 43.7044 59.033 43.7688 58.0433 43.8428C57.0543 43.9166 56.2457 43.9835 56.2464 43.9921C56.2524 44.0675 56.3999 44.3312 56.4345 44.3284C56.4586 44.3264 56.496 44.367 56.517 44.4187C56.5379 44.4705 56.6001 44.5551 56.6552 44.6072C56.7104 44.6594 56.8621 44.8363 56.9922 45.0012C57.123 45.1654 57.2488 45.3232 57.2728 45.3511C57.5138 45.6339 58.0187 46.3147 58.1663 46.5572C58.2687 46.7249 58.3613 46.8705 58.3721 46.8808C58.3828 46.8911 59.8037 46.7974 61.5293 46.6731C63.2542 46.5481 64.6702 46.4492 64.6755 46.4525C64.713 46.4781 67.602 46.2291 67.5997 46.2007C67.5968 46.1655 63.2906 42.5374 61.6166 41.1602C61.1565 40.7818 60.7235 40.4236 60.6547 40.3645C60.5926 40.311 60.5612 40.2843 60.5072 40.2855ZM27.9922 56.2473C27.9168 56.2533 27.6532 56.4007 27.6559 56.4353C27.6579 56.4594 27.6174 56.4969 27.5656 56.5178C27.5138 56.5388 27.4292 56.6009 27.3771 56.6561C27.3249 56.7113 27.1481 56.8629 26.9832 56.9931C26.8183 57.1239 26.6611 57.2497 26.6332 57.2737C26.3504 57.5147 25.6696 58.0196 25.4271 58.1672C25.2594 58.2696 25.1156 58.3602 25.107 58.3695C25.0909 58.3858 25.2751 61.0729 25.584 65.3419C25.674 66.5858 25.7638 67.6022 25.7836 67.6006C25.8188 67.5977 29.4531 63.2835 30.8241 61.6175C31.2025 61.1574 31.5607 60.7244 31.6199 60.6556C31.7262 60.532 31.7265 60.5283 31.6118 60.2303C31.463 59.8418 31.4298 59.7456 31.3991 59.6187C31.3858 59.5613 31.3422 59.4212 31.3026 59.3075C31.2629 59.1931 31.1239 58.7012 30.9927 58.2143C30.8622 57.7273 30.7385 57.2945 30.717 57.2521C30.6962 57.2096 30.6814 57.1573 30.6839 57.1347C30.6969 57.0329 30.5717 57.1232 30.4048 57.3362C30.2062 57.5891 28.3021 59.8409 28.2854 59.8422C28.2799 59.8427 28.2155 59.0338 28.1416 58.0442C28.0677 57.0552 28.0008 56.2466 27.9922 56.2473ZM47.1234 54.7097C47.1148 54.7104 47.1779 55.5193 47.2629 56.5074C47.348 57.4962 47.413 58.3049 47.4074 58.3054C47.3913 58.3067 45.1515 56.388 44.9157 56.17C44.7169 55.9864 44.5782 55.9173 44.6079 56.0156C44.614 56.0375 44.6078 56.0915 44.594 56.1368C44.5796 56.1821 44.5266 56.6291 44.4749 57.1307C44.4238 57.6323 44.3651 58.1401 44.3442 58.2593C44.3233 58.3779 44.3026 58.5232 44.298 58.582C44.2886 58.7121 44.2712 58.8124 44.1857 59.2197C44.1207 59.5322 44.1216 59.5358 44.2463 59.6408C44.3157 59.6993 44.7378 60.0696 45.1855 60.4633C45.6325 60.8571 47.1425 62.1666 48.5398 63.3738C49.9371 64.5805 51.0971 65.5661 51.1168 65.5645C51.1366 65.563 51.0629 64.5453 50.9531 63.303C50.5763 59.0394 50.3284 56.3574 50.3105 56.344C50.3005 56.3361 50.1441 56.2697 49.9621 56.1954C49.6992 56.0884 48.9465 55.6987 48.6288 55.5059C48.5974 55.4867 48.4216 55.3876 48.2386 55.2848C48.055 55.1827 47.8562 55.0612 47.7959 55.0151C47.7356 54.9689 47.6422 54.9211 47.5877 54.9087C47.5333 54.8963 47.4873 54.8658 47.4853 54.8417C47.4826 54.8071 47.1988 54.7036 47.1234 54.7097Z" fill="#561156"/>
</g>
<defs>
<clipPath id="clip0_780_836">
<rect width="45.6748" height="45.6861" fill="white" transform="translate(21 7.19995) rotate(17.65)"/>
</clipPath>
<clipPath id="clip1_780_836">
<rect width="61.9847" height="62" fill="white" transform="translate(2.61621 7.58252) rotate(-4.59494)"/>
</clipPath>
</defs>
</svg>
