<svg width="74" height="75" viewBox="0 0 74 75" fill="none" xmlns="http://www.w3.org/2000/svg">
<circle cx="37" cy="37" r="35" fill="#9E2867" stroke="#916EAB" stroke-width="2"/>
<g clip-path="url(#clip0_771_2777)">
<mask id="mask0_771_2777" style="mask-type:luminance" maskUnits="userSpaceOnUse" x="8" y="8" width="58" height="59">
<path d="M8 8H66V67H8V8Z" fill="white"/>
</mask>
<g mask="url(#mask0_771_2777)">
<path d="M34.8265 10.7618C34.0262 12.4317 31.7364 15.9942 31.4918 19.3117C31.2473 22.6292 32.8258 27.9283 33.3594 30.6669C33.8929 33.4054 33.9596 34.8304 34.6933 35.7432C35.4269 36.6561 36.8276 37.2129 37.7614 36.1442C38.6951 35.0755 39.5844 32.2255 40.2958 29.331C41.0073 26.4365 42.697 22.1171 42.0301 18.7773C41.3631 15.4375 37.4945 10.6281 36.294 9.29222C35.0934 7.9563 35.6269 9.09186 34.8265 10.7618Z" fill="#FFA0B4"/>
<path d="M37.2279 36.4113C37.8282 35.3203 39.2289 29.6872 39.3623 26.9262C39.4957 24.1653 38.3841 21.4267 38.0284 19.8459C37.6727 18.265 37.5836 17.5527 37.2279 17.4414C36.8722 17.3301 36.272 18.176 35.894 19.1779C35.5161 20.1799 34.9825 21.0705 34.9603 23.4529C34.938 25.8353 35.3826 31.3125 35.7605 33.4722C36.1384 35.6319 36.6276 37.5023 37.2279 36.4113Z" fill="#D35498"/>
<path d="M55.4343 18.1077C53.7273 18.7376 49.7192 19.6986 47.1747 21.834C44.6301 23.9694 41.8046 28.674 40.1667 30.92C38.5289 33.1659 37.544 34.1959 37.3478 35.3098C37.1515 36.4237 37.6316 37.7293 38.9893 37.6032C40.347 37.4771 42.9603 36.0889 45.4938 34.5531C48.0273 33.0173 52.2033 31.1381 54.1904 28.3884C56.1776 25.6387 57.2093 19.7682 57.4166 18.0548C57.6239 16.3413 57.1413 17.4778 55.4343 18.1077Z" fill="#FFA0B4"/>
<path d="M38.4611 37.4373C39.625 37.0767 44.5658 34.0982 46.6394 32.2751C48.7129 30.4519 49.9871 27.8261 50.9025 26.4983C51.8179 25.1705 52.2752 24.619 52.1316 24.3082C51.988 23.9974 51.0007 24.1885 50.0409 24.6336C49.0811 25.0787 48.1035 25.3446 46.3726 26.9788C44.6418 28.613 40.9744 32.6959 39.6558 34.4389C38.3373 36.182 37.2972 37.7979 38.4611 37.4373Z" fill="#D35498"/>
<path d="M62.1013 47.522C60.2518 47.7895 56.1106 48.9426 52.8887 48.1288C49.6668 47.315 45.1823 44.0464 42.7698 42.6393C40.3573 41.2322 39.0312 40.711 38.4138 39.6862C37.7964 38.6614 37.7403 37.0833 39.0655 36.4906C40.3908 35.8979 43.3869 35.9179 46.3654 36.1299C49.3439 36.3418 53.9998 36.0302 56.9364 37.7625C59.873 39.4948 63.1245 44.897 63.9853 46.5236C64.8461 48.1502 63.9507 47.2545 62.1013 47.522Z" fill="#FFA0B4"/>
<path d="M38.6337 36.939C39.8679 36.6868 45.67 37.0834 48.3278 37.8307C50.9856 38.578 53.2039 40.5631 54.5804 41.4231C55.9569 42.283 56.6012 42.5993 56.587 42.9904C56.5728 43.3816 55.5704 43.7119 54.4952 43.7702C53.4199 43.8285 52.3976 44.0778 50.1355 43.3401C47.8733 42.6024 42.8391 40.4107 40.9221 39.3438C39.0051 38.277 37.3994 37.1912 38.6337 36.939Z" fill="#D35498"/>
<path d="M13.9469 23.8879C14.834 25.5132 16.3868 29.4543 18.9343 31.5889C21.4818 33.7235 26.6999 35.5318 29.232 36.6958C31.764 37.8598 32.9584 38.637 34.1267 38.573C35.2951 38.509 36.5639 37.6947 36.2421 36.3117C35.9204 34.9287 34.1282 32.5425 32.1961 30.2749C30.2641 28.0074 27.7474 24.1127 24.65 22.7064C21.5525 21.3001 15.3953 21.6401 13.6114 21.837C11.8276 22.0339 13.0597 22.2626 13.9469 23.8879Z" fill="#FFA0B4"/>
<path d="M36.1472 36.9017C35.6128 35.7769 31.862 31.3508 29.701 29.6313C27.54 27.9118 24.6706 27.2178 23.1812 26.5847C21.6917 25.9516 21.0621 25.6084 20.7643 25.8327C20.4665 26.0571 20.8022 27.0389 21.3942 27.9309C21.9861 28.8228 22.397 29.7765 24.3159 31.1847C26.2348 32.5929 30.9357 35.4273 32.9076 36.3802C34.8795 37.333 36.6816 38.0265 36.1472 36.9017Z" fill="#D35498"/>
<path d="M11.0555 45.0065C12.3838 43.7197 15.0336 40.4236 18.0977 39.1397C21.1618 37.8558 26.6783 37.6673 29.4401 37.303C32.2019 36.9387 33.5722 36.5496 34.6685 36.9538C35.7647 37.358 36.7346 38.5061 36.0177 39.7284C35.3008 40.9506 32.8831 42.696 30.3671 44.2873C27.8511 45.8786 24.295 48.8473 20.9217 49.2762C17.5485 49.7051 11.772 47.5723 10.1276 46.8606C8.48325 46.149 9.72712 46.2933 11.0555 45.0065Z" fill="#FFA0B4"/>
<path d="M36.1024 39.1388C35.259 40.0527 30.3675 43.1648 27.7954 44.167C25.2232 45.1692 22.2787 44.9869 20.6694 45.1521C19.0601 45.3172 18.3574 45.459 18.1396 45.1579C17.9218 44.8568 18.5332 44.0207 19.3625 43.3453C20.1918 42.67 20.8665 41.8827 23.1154 41.1057C25.3643 40.3288 30.6911 39.0113 32.8556 38.6835C35.0201 38.3556 36.9458 38.2248 36.1024 39.1388Z" fill="#D35498"/>
<path d="M33.0911 63.6699C34.1975 62.1856 37.1293 59.1311 38.0069 55.9228C38.8846 52.7144 38.3542 47.2102 38.357 44.4199C38.3598 41.6297 38.5683 40.2186 38.0238 39.1813C37.4793 38.1441 36.2119 37.3277 35.0901 38.1964C33.9684 39.0651 32.548 41.6904 31.2934 44.3936C30.0389 47.0968 27.5505 51.0097 27.563 54.4156C27.5756 57.8215 30.4473 63.2868 31.3687 64.8291C32.29 66.3715 31.9848 65.1544 33.0911 63.6699Z" fill="#FFA0B4"/>
<path d="M35.6652 38.0372C34.8664 38.992 32.4092 44.2498 31.7476 46.9334C31.0859 49.617 31.6503 52.5187 31.6955 54.1385C31.7407 55.7584 31.6912 56.4745 32.0188 56.6524C32.3465 56.8302 33.0981 56.1158 33.6616 55.2054C34.225 54.2951 34.9198 53.524 35.3996 51.1904C35.8794 48.8569 36.4959 43.3964 36.5402 41.2042C36.5845 39.012 36.464 37.0823 35.6652 38.0372Z" fill="#D35498"/>
<path d="M52.2143 59.6451C52.0994 57.7963 52.3626 53.5677 50.9598 50.5524C49.557 47.5371 45.5975 43.6828 43.7976 41.553C41.9976 39.4232 41.2453 38.212 40.1601 37.7736C39.0749 37.3352 37.581 37.5336 37.2866 38.9228C36.9922 40.3119 37.6044 43.2341 38.3935 46.1084C39.1827 48.9826 39.812 53.5787 42.0213 56.1681C44.2306 58.7575 49.9505 61.0653 51.6494 61.6448C53.3482 62.2243 52.3292 61.4938 52.2143 59.6451Z" fill="#FFA0B4"/>
<path d="M37.6221 38.4287C37.6296 39.6744 39.1514 45.276 40.38 47.7512C41.6086 50.2264 43.9131 52.0738 44.9938 53.2799C46.0745 54.4859 46.4992 55.0642 46.8639 54.9876C47.2287 54.911 47.3405 53.8793 47.1823 52.82C47.0241 51.7608 47.0559 50.7226 45.9147 48.6321C44.7734 46.5417 41.717 41.9779 40.3349 40.2773C38.9528 38.5768 37.6146 37.1831 37.6221 38.4287Z" fill="#D35498"/>
<path d="M34.4265 36.0104C35.2491 36.0995 35.9606 36.3222 36.5609 35.6097C37.1612 34.8973 37.717 31.6466 38.0283 31.7357C38.3396 31.8248 37.6503 35.6098 38.4284 36.1441C39.2066 36.6785 42.3414 34.8305 42.6971 34.9418C43.0528 35.0531 40.3405 35.8992 40.5628 36.8121C40.7851 37.725 44.1422 40.0629 44.031 40.4191C43.9198 40.7754 40.7184 38.4597 39.8958 38.9496C39.0732 39.4394 39.4956 43.0463 39.0954 43.358C38.6952 43.6697 38.0727 40.7753 37.4947 40.8198C36.9166 40.8644 36.0051 43.7143 35.6271 43.6252C35.2492 43.5362 35.9385 40.5749 35.227 40.2854C34.5156 39.9959 31.6697 42.2669 31.3584 41.8885C31.0472 41.51 33.315 39.1499 33.3595 38.0144C33.404 36.8789 31.4474 35.4093 31.6253 35.0753C31.8031 34.7413 33.6039 35.9213 34.4265 36.0104Z" fill="#D35498"/>
<path d="M37.0115 36.9623C37.2573 37.1103 37.4801 37.5461 37.5266 37.85C37.5731 38.1539 37.4443 38.54 37.2904 38.7857C37.1364 39.0313 36.8611 39.2621 36.6031 39.3238C36.3451 39.3856 35.9545 39.3326 35.7426 39.1563C35.5306 38.9799 35.3854 38.533 35.3312 38.2657C35.277 37.9985 35.2973 37.7701 35.4173 37.5528C35.5373 37.3354 35.7856 37.0598 36.0513 36.9614C36.317 36.863 36.7656 36.8142 37.0115 36.9623Z" fill="#FF7D92"/>
<path d="M33.8269 40.3587C33.9282 40.0802 34.303 39.7817 34.581 39.6868C34.859 39.592 35.241 39.6669 35.495 39.7896C35.7491 39.9122 36.0077 40.1635 36.1051 40.4225C36.2025 40.6815 36.2125 41.0961 36.0795 41.3437C35.9465 41.5913 35.5493 41.8107 35.3069 41.908C35.0644 42.0053 34.8471 42.0191 34.6247 41.9275C34.4024 41.8358 34.1059 41.6195 33.9729 41.3581C33.84 41.0966 33.7255 40.6373 33.8269 40.3587Z" fill="#FF7D92"/>
<path d="M36.837 38.3815C37.1122 38.3107 37.5585 38.4653 37.7908 38.652C38.0232 38.8387 38.1821 39.2122 38.231 39.5019C38.2799 39.7917 38.231 40.1587 38.0843 40.3905C37.9375 40.6223 37.6196 40.867 37.3506 40.8928C37.0816 40.9186 36.6842 40.6996 36.4702 40.5451C36.2562 40.3905 36.1217 40.2102 36.0667 39.9655C36.0116 39.7208 36.0116 39.341 36.14 39.077C36.2684 38.813 36.5619 38.4524 36.837 38.3815Z" fill="#FF7D92"/>
<path d="M38.8714 37.1754C39.1232 37.3121 39.3638 37.7371 39.4228 38.0386C39.4818 38.3401 39.3691 38.7317 39.2255 38.9842C39.0819 39.2367 38.8164 39.4799 38.5612 39.5534C38.306 39.627 37.9137 39.592 37.6946 39.4255C37.4755 39.2591 37.312 38.8192 37.2468 38.5547C37.1816 38.2902 37.1924 38.0612 37.3033 37.8385C37.4142 37.6158 37.6508 37.3292 37.9122 37.2186C38.1735 37.1081 38.6197 37.0387 38.8714 37.1754Z" fill="#FF7D92"/>
<path d="M32.7218 37.1117C32.9302 36.9097 33.3919 36.8178 33.681 36.863C33.9701 36.9082 34.2806 37.1543 34.4564 37.383C34.6322 37.6118 34.7578 37.9581 34.7357 38.2357C34.7136 38.5134 34.5476 38.8894 34.3238 39.0489C34.1001 39.2084 33.6518 39.219 33.3935 39.1926C33.1352 39.1662 32.9347 39.0768 32.7742 38.8906C32.6138 38.7044 32.4395 38.3718 32.4307 38.0753C32.422 37.7789 32.5134 37.3138 32.7218 37.1117Z" fill="#FF7D92"/>
<path d="M41.0113 36.9832C40.8446 37.2244 40.4089 37.4098 40.117 37.4251C39.8251 37.4404 39.4748 37.2632 39.2599 37.0752C39.0449 36.8871 38.8573 36.5735 38.8273 36.2967C38.7973 36.0199 38.8902 35.6168 39.0799 35.4143C39.2696 35.2117 39.7073 35.1088 39.9654 35.0813C40.2236 35.0539 40.4369 35.1002 40.6289 35.2497C40.8209 35.3991 41.0537 35.6893 41.1174 35.9782C41.1811 36.2671 41.178 36.7421 41.0113 36.9832Z" fill="#FF7D92"/>
<path d="M36.2192 35.9807C36.2076 35.6826 36.4397 35.2523 36.6595 35.0494C36.8792 34.8464 37.2582 34.7561 37.5376 34.7629C37.817 34.7697 38.1489 34.8928 38.3357 35.0901C38.5225 35.2874 38.6874 35.6641 38.6582 35.9469C38.629 36.2297 38.3466 36.5967 38.1605 36.7871C37.9743 36.9775 37.7799 37.0807 37.5412 37.0892C37.3026 37.0976 36.949 37.0225 36.7287 36.8377C36.5083 36.653 36.2307 36.2787 36.2192 35.9807Z" fill="#FF7D92"/>
<path d="M39.9054 40.7154C40.0217 40.9874 39.9587 41.4778 39.8267 41.7524C39.6947 42.0271 39.375 42.2597 39.1134 42.3631C38.8518 42.4666 38.5002 42.4828 38.257 42.3731C38.0138 42.2633 37.7275 41.9787 37.6544 41.7048C37.5813 41.4309 37.7133 40.9795 37.8186 40.7297C37.9239 40.4799 38.0678 40.3078 38.2862 40.2062C38.5046 40.1046 38.8593 40.0354 39.1291 40.1203C39.399 40.2052 39.7892 40.4433 39.9054 40.7154Z" fill="#FF7D92"/>
</g>
</g>
<g clip-path="url(#clip1_771_2777)">
<mask id="mask1_771_2777" style="mask-type:luminance" maskUnits="userSpaceOnUse" x="0" y="0" width="74" height="75">
<path d="M0.783203 17.5101L56.3679 0.946766L73.2168 57.4898L17.6321 74.0532L0.783203 17.5101Z" fill="white"/>
</mask>
<g mask="url(#mask1_771_2777)">
<path d="M27.2814 12.4959C26.9913 14.3249 25.8142 18.393 26.5272 21.6421C27.2403 24.8913 30.2663 29.5189 31.5597 31.9911C32.8532 34.4632 33.324 35.8098 34.2878 36.4751C35.2516 37.1405 36.7529 37.2741 37.3426 35.9832C37.9323 34.6923 37.9706 31.7071 37.8259 28.73C37.6811 25.7529 38.067 21.1308 36.474 18.1205C34.881 15.1103 29.8001 11.6059 28.2681 10.6685C26.736 9.73108 27.5716 10.667 27.2814 12.4959Z" fill="#FFA0B4"/>
<path d="M36.9076 36.3916C37.1714 35.1746 36.905 29.376 36.2444 26.692C35.5838 24.0079 33.7364 21.7008 32.9441 20.2874C32.1517 18.874 31.863 18.2167 31.4903 18.2116C31.1176 18.2065 30.7839 19.1886 30.7079 20.2568C30.6318 21.3249 30.3748 22.3309 31.0338 24.6204C31.6928 26.9099 33.683 32.032 34.662 33.9939C35.6409 35.9558 36.6439 37.6086 36.9076 36.3916Z" fill="#553D67"/>
<path d="M49.1287 13.6508C47.6727 14.7419 44.106 16.8075 42.2772 19.5807C40.4484 22.3538 39.0841 27.6694 38.1558 30.2895C37.2276 32.9097 36.5779 34.178 36.7079 35.3016C36.8379 36.4251 37.6709 37.5393 38.936 37.0307C40.2011 36.5222 42.3092 34.4455 44.2986 32.2501C46.2881 30.0548 49.7535 27.0613 50.8726 23.8586C51.9917 20.6559 51.304 14.7353 51.0134 13.034C50.7227 11.3327 50.5848 12.5597 49.1287 13.6508Z" fill="#FFA0B4"/>
<path d="M38.3824 37.0227C39.3949 36.3447 43.2794 32.0793 44.7459 29.7399C46.2125 27.4005 46.6838 24.5202 47.1818 22.9863C47.6799 21.4524 47.9607 20.7932 47.7343 20.5364C47.5079 20.2796 46.6163 20.7447 45.8236 21.4453C45.0308 22.146 44.1699 22.6799 42.9778 24.7404C41.7858 26.8008 39.4371 31.761 38.6712 33.808C37.9053 35.8551 37.37 37.7007 38.3824 37.0227Z" fill="#553D67"/>
<path d="M63.9181 39.9362C62.2221 40.7208 58.5827 43.0085 55.2625 43.1487C51.9424 43.2888 46.7112 41.437 43.9973 40.7774C41.2835 40.1178 39.8637 39.9971 38.9794 39.1913C38.0951 38.3855 37.5906 36.8891 38.6914 35.9426C39.7922 34.9961 42.6693 34.1597 45.5843 33.5123C48.4992 32.8648 52.8722 31.2366 56.1813 32.0581C59.4903 32.8796 64.1491 37.1283 65.4386 38.4414C66.728 39.7544 65.6141 39.1517 63.9181 39.9362Z" fill="#FFA0B4"/>
<path d="M38.4054 36.4958C39.5162 35.9017 45.1899 34.6247 47.9504 34.582C50.711 34.5392 53.4038 35.8081 54.9686 36.2391C56.5333 36.6702 57.2411 36.7893 57.3392 37.1682C57.4373 37.5472 56.571 38.1499 55.5572 38.5128C54.5433 38.8758 53.6348 39.4067 51.2562 39.3457C48.8775 39.2847 43.427 38.6219 41.2852 38.147C39.1434 37.672 37.2945 37.09 38.4054 36.4958Z" fill="#553D67"/>
<path d="M11.0195 31.0382C12.3339 32.3425 14.9475 35.6759 17.9985 36.9942C21.0495 38.3124 26.5667 38.5552 29.3257 38.9476C32.0848 39.3401 33.4513 39.7438 34.5528 39.3488C35.6542 38.9538 36.6376 37.8111 35.9343 36.5776C35.2309 35.3441 32.8319 33.569 30.3328 31.9477C27.8337 30.3263 24.3096 27.3125 20.9395 26.8493C17.5694 26.3861 11.7657 28.4703 10.1124 29.1684C8.45904 29.8666 9.70519 29.7339 11.0195 31.0382Z" fill="#FFA0B4"/>
<path d="M36.0122 37.1701C35.1789 36.2447 30.3204 33.0741 27.7583 32.0433C25.1963 31.0126 22.2482 31.1669 20.6399 30.9855C19.0317 30.8042 18.3303 30.655 18.109 30.9551C17.8876 31.2551 18.4897 32.1001 19.3118 32.7859C20.1338 33.4717 20.7999 34.2683 23.0411 35.0699C25.2822 35.8715 30.5967 37.2454 32.7586 37.5954C34.9205 37.9454 36.8456 38.0954 36.0122 37.1701Z" fill="#553D67"/>
<path d="M14.2796 52.1028C15.1851 50.4903 16.7833 46.5747 19.3531 44.4692C21.923 42.3638 27.1559 40.6078 29.6987 39.4699C32.2414 38.3321 33.4436 37.5679 34.6096 37.6422C35.7756 37.7165 37.0329 38.5399 36.6949 39.9159C36.3569 41.292 34.5384 43.6551 32.5816 45.8986C30.6248 48.1422 28.0646 52.0028 24.9543 53.3772C21.844 54.7515 15.699 54.3571 13.9199 54.1447C12.1407 53.9324 13.374 53.7154 14.2796 52.1028Z" fill="#FFA0B4"/>
<path d="M36.6075 39.3269C36.0603 40.4436 32.2612 44.823 30.0824 46.518C27.9035 48.2131 25.0296 48.8792 23.5345 49.497C22.0393 50.1149 21.4065 50.4515 21.1117 50.2251C20.817 49.9987 21.1641 49.0229 21.766 48.1388C22.3679 47.2547 22.7898 46.3076 24.7231 44.9207C26.6564 43.5339 31.3852 40.7501 33.3659 39.8178C35.3467 38.8855 37.1548 38.2102 36.6075 39.3269Z" fill="#553D67"/>
<path d="M40.7275 63.6964C41.3639 61.9579 43.3013 58.1934 43.2262 54.868C43.151 51.5427 41.0708 46.4191 40.2767 43.7443C39.4826 41.0695 39.2794 39.6576 38.4614 38.819C37.6434 37.9804 36.1956 37.56 35.3686 38.7129C34.5417 39.8657 33.9301 42.7873 33.4998 45.7362C33.0695 48.6851 31.8021 53.1457 32.7868 56.4062C33.7715 59.6667 38.0844 64.0842 39.4078 65.2993C40.7313 66.5143 40.0911 65.435 40.7275 63.6964Z" fill="#FFA0B4"/>
<path d="M35.8743 38.396C35.3814 39.5392 34.528 45.2798 34.6603 48.0405C34.7926 50.8013 36.1621 53.421 36.6681 54.9605C37.174 56.4999 37.331 57.2004 37.6958 57.2773C38.0606 57.3541 38.5769 56.4548 38.8569 55.4215C39.1369 54.3882 39.5826 53.4507 39.376 51.0773C39.1694 48.704 38.2009 43.2948 37.6173 41.1813C37.0337 39.0677 36.3671 37.2528 35.8743 38.396Z" fill="#553D67"/>
<path d="M57.9046 54.3779C57.2665 52.639 56.3111 48.5113 54.1056 46.0222C51.9001 43.533 47.0049 40.97 44.6717 39.4429C42.3385 37.9158 41.2715 36.9699 40.1064 36.8597C38.9412 36.7494 37.5662 37.3662 37.6807 38.7816C37.7953 40.1969 39.2165 42.8226 40.7936 45.3518C42.3707 47.881 44.2863 52.1059 47.1431 53.9566C49.9999 55.8072 56.1406 56.3855 57.9342 56.4558C59.7278 56.526 58.5427 56.1168 57.9046 54.3779Z" fill="#FFA0B4"/>
<path d="M37.8615 38.2123C38.2245 39.4039 41.2825 44.3377 43.1669 46.3589C45.0512 48.3802 47.7873 49.4926 49.1674 50.3398C50.5475 51.187 51.1197 51.62 51.4473 51.4424C51.775 51.2647 51.5875 50.2441 51.1334 49.2741C50.6793 48.3042 50.4133 47.3001 48.7226 45.6227C47.0319 43.9452 42.7995 40.4442 40.9893 39.2092C39.1791 37.9741 37.4986 37.0207 37.8615 38.2123Z" fill="#553D67"/>
<path d="M34.1082 36.8073C34.922 36.6577 35.6674 36.668 36.0392 35.8137C36.4111 34.9595 36.0155 31.6855 36.3392 31.682C36.6629 31.6785 37.0833 35.5027 37.9816 35.7926C38.8799 36.0825 41.3565 33.4162 41.7292 33.4213C42.1019 33.4264 39.744 35.0118 40.2178 35.8232C40.6916 36.6346 44.5765 37.9164 44.5717 38.2896C44.5669 38.6627 40.8375 37.3578 40.1891 38.0621C39.5406 38.7665 40.9754 42.1026 40.6809 42.5156C40.3863 42.9286 38.9632 40.3325 38.422 40.5402C37.8807 40.748 37.821 43.7396 37.4334 43.7621C37.0457 43.7847 36.8606 40.7499 36.0961 40.6756C35.3317 40.6014 33.2528 43.5905 32.8465 43.3167C32.4401 43.0429 33.9395 40.1335 33.6579 39.0325C33.3762 37.9316 31.0814 37.0819 31.1565 36.7111C31.2316 36.3402 33.2944 36.9568 34.1082 36.8073Z" fill="#553D67"/>
<path d="M36.8572 36.9814C37.1351 37.0531 37.4731 37.407 37.6044 37.685C37.7357 37.963 37.7226 38.3698 37.6452 38.6492C37.5679 38.9286 37.3698 39.2284 37.1402 39.3612C36.9107 39.4941 36.5212 39.5548 36.2677 39.4464C36.0142 39.3379 35.7474 38.951 35.6192 38.7104C35.4909 38.4698 35.4451 38.2451 35.4981 38.0025C35.551 37.7599 35.7103 37.4249 35.9368 37.2548C36.1633 37.0846 36.5793 36.9097 36.8572 36.9814Z" fill="#FFCDD5"/>
<path d="M34.7755 41.1457C34.7931 40.8499 35.067 40.4568 35.3063 40.2865C35.5457 40.1162 35.9332 40.0789 36.2116 40.1239C36.4901 40.1689 36.8097 40.3359 36.9771 40.5563C37.1444 40.7767 37.2724 41.1712 37.2156 41.4464C37.1588 41.7217 36.8409 42.0454 36.6363 42.2079C36.4317 42.3704 36.2273 42.4457 35.9881 42.4213C35.7489 42.397 35.403 42.2744 35.2009 42.0618C34.9987 41.8492 34.7579 41.4416 34.7755 41.1457Z" fill="#FFCDD5"/>
<path d="M37.0956 38.3913C37.339 38.2449 37.811 38.2655 38.0869 38.3781C38.3629 38.4907 38.6219 38.8032 38.7515 39.0669C38.8811 39.3307 38.9391 39.6964 38.8646 39.9604C38.7902 40.2245 38.5554 40.5498 38.3049 40.6513C38.0545 40.7528 37.6111 40.6565 37.3619 40.5695C37.1127 40.4825 36.9323 40.3481 36.8097 40.1293C36.6871 39.9106 36.5786 39.5465 36.6262 39.2568C36.6739 38.9672 36.8522 38.5378 37.0956 38.3913Z" fill="#FFCDD5"/>
<path d="M38.7006 36.6546C38.981 36.7136 39.3329 37.0523 39.4756 37.3243C39.6182 37.5964 39.6221 38.0039 39.5566 38.2869C39.491 38.5699 39.306 38.8788 39.0825 39.0221C38.8589 39.1655 38.4729 39.244 38.2154 39.147C37.9579 39.0501 37.6756 38.6753 37.5376 38.4404C37.3995 38.2056 37.3445 37.983 37.3872 37.7379C37.4299 37.4928 37.5748 37.1505 37.7937 36.9699C38.0126 36.7894 38.4203 36.5955 38.7006 36.6546Z" fill="#FFCDD5"/>
<path d="M32.7893 38.3495C32.9313 38.0964 33.3475 37.8764 33.6375 37.8372C33.9275 37.798 34.2954 37.9451 34.5291 38.1142C34.763 38.2832 34.9822 38.5792 35.0403 38.8516C35.0984 39.124 35.0467 39.5318 34.8778 39.7485C34.709 39.9653 34.2823 40.1035 34.0273 40.1519C33.7722 40.2004 33.5545 40.172 33.3476 40.0393C33.1406 39.9067 32.8786 39.6378 32.7855 39.3561C32.6925 39.0745 32.6473 38.6027 32.7893 38.3495Z" fill="#FFCDD5"/>
<path d="M40.6968 35.8591C40.6059 36.1378 40.2413 36.4399 39.966 36.538C39.6906 36.636 39.3043 36.5663 39.0446 36.4474C38.7849 36.3286 38.5155 36.0816 38.4077 35.8249C38.2999 35.5681 38.2738 35.1554 38.3978 34.9071C38.5217 34.6588 38.9118 34.4351 39.1514 34.3351C39.391 34.2351 39.6086 34.2185 39.8353 34.307C40.0619 34.3954 40.3679 34.607 40.5115 34.8657C40.6551 35.1243 40.7877 35.5804 40.6968 35.8591Z" fill="#FFCDD5"/>
<path d="M35.818 36.2669C35.7218 35.9845 35.8214 35.5059 35.974 35.2486C36.1266 34.9913 36.4641 34.7966 36.7338 34.7233C37.0034 34.65 37.3567 34.6732 37.5921 34.809C37.8274 34.9447 38.093 35.2586 38.1458 35.538C38.1986 35.8174 38.0328 36.2497 37.9087 36.4853C37.7847 36.7209 37.6278 36.8754 37.4015 36.9516C37.1753 37.0279 36.815 37.0569 36.551 36.9427C36.2871 36.8286 35.9142 36.5492 35.818 36.2669Z" fill="#FFCDD5"/>
<path d="M40.7026 39.7518C40.8917 39.9793 40.9714 40.4673 40.9233 40.7682C40.8752 41.069 40.6353 41.3833 40.4141 41.5571C40.1929 41.731 39.8606 41.8469 39.5962 41.8112C39.3318 41.7755 38.9761 41.5845 38.8278 41.3428C38.6796 41.1012 38.6772 40.6309 38.7068 40.3615C38.7364 40.092 38.8251 39.886 39.0054 39.7262C39.1857 39.5665 39.5058 39.3989 39.7887 39.4032C40.0716 39.4075 40.5135 39.5243 40.7026 39.7518Z" fill="#FFCDD5"/>
</g>
</g>
<defs>
<clipPath id="clip0_771_2777">
<rect width="58" height="59" fill="white" transform="translate(8 8)"/>
</clipPath>
<clipPath id="clip1_771_2777">
<rect width="58" height="59" fill="white" transform="translate(0.783203 17.5101) rotate(-16.5932)"/>
</clipPath>
</defs>
</svg>
