<svg width="72" height="72" viewBox="0 0 72 72" fill="none" xmlns="http://www.w3.org/2000/svg">
<circle cx="36" cy="36" r="35" fill="#9E2867" stroke="#916EAB" stroke-width="2"/>
<path d="M23.743 37.4629C23.7698 37.4785 23.7853 37.5125 23.8283 37.5661C23.2951 37.5125 22.8324 37.3277 22.3634 37.1701C20.8308 36.6545 19.3369 36.0635 17.9799 35.1818C16.3986 34.1547 15.1474 32.841 14.2735 31.2155C13.164 29.1504 12.6498 26.9604 12.9475 24.6264C12.9581 24.5476 12.9665 24.4695 12.9729 24.3907C13.0032 23.9987 13.1365 23.8873 13.5378 23.9512C14.1874 24.0544 14.8279 24.1903 15.445 24.4226C16.7745 24.9239 18.0356 25.5468 19.1465 26.4197C19.5118 26.7077 19.8525 27.0331 20.2044 27.4746C19.5887 27.2281 19.0647 27.0114 18.5357 26.8076C17.441 26.3857 16.3034 26.1181 15.1417 25.9333C14.88 25.8919 14.7912 25.9401 14.801 26.2132C14.8927 28.859 15.8372 31.1849 17.6703 33.1494C19.0978 34.6798 20.89 35.7721 22.69 36.8447C23.0398 37.0533 23.3932 37.2557 23.743 37.4629Z" fill="#F19B9B"/>
<path d="M17.9414 36.3699C17.9562 36.378 17.9577 36.4073 17.9668 36.4317C17.8709 36.52 17.7461 36.4915 17.6367 36.4928C16.1648 36.5146 14.7019 36.4467 13.268 36.0907C11.3623 35.6186 9.85573 33.9774 9.98974 31.8649C10.0412 31.0524 10.0758 30.2407 10.2211 29.4371C10.2408 29.3291 10.2098 29.1932 10.3572 29.1538C10.5159 29.111 10.5815 29.2374 10.6584 29.3372C11.8518 30.8942 13.11 32.3995 14.436 33.8538C15.3663 34.8741 16.4638 35.6655 17.7263 36.2551C17.7997 36.2891 17.8716 36.3285 17.9414 36.3699Z" fill="#F19B9B"/>
<path d="M17.3791 48.8314C17.4581 48.8341 17.5364 48.8531 17.6669 48.8722C17.4616 49.0372 17.2557 49.0882 17.0554 49.1201C14.4366 49.5453 11.8248 49.7002 9.24617 48.8851C7.9893 48.4877 6.91723 47.7751 5.85644 47.0388C5.08412 46.5035 4.45216 45.8446 3.89708 45.1069C3.75249 44.9146 3.73838 44.8073 4.00076 44.6857C5.24352 44.1076 6.53001 43.66 7.88562 43.4046C7.97872 43.3869 8.09157 43.3502 8.13812 43.4521C8.18749 43.5608 8.06124 43.6036 7.99565 43.6559C7.46808 44.071 6.93627 44.4812 6.40587 44.8929C6.28668 44.9853 6.19075 45.0586 6.37555 45.1999C8.24039 46.6292 10.2858 47.7065 12.643 48.1582C14.2087 48.4585 15.7759 48.7648 17.3791 48.8314Z" fill="#F19B9B"/>
<path d="M32.8256 44.8658C32.6041 44.8658 32.4842 44.7659 32.3686 44.6851C31.221 43.8801 29.9543 43.279 28.6565 42.7498C27.3855 42.2322 26.0377 41.9564 24.6687 41.792C22.3588 41.5149 20.0348 41.4069 17.7164 41.2357C16.3805 41.1372 15.1279 40.7194 13.8922 40.2344C12.9069 39.8472 11.9878 39.3575 11.1034 38.797C11.0068 38.7359 10.8911 38.5865 10.7754 38.6755C10.6421 38.7787 10.7557 38.9322 10.8093 39.0497C11.3178 40.1678 12.0852 41.1318 12.782 42.1391C14.3119 44.3502 16.4087 45.8426 18.9937 46.7168C20.1215 47.0986 21.298 47.2453 22.4857 47.3228C23.4456 47.3859 24.4049 47.4566 25.3655 47.3887C22.9343 48.0319 20.5073 48.2147 18.0126 47.7018C15.4904 47.1828 13.3949 45.9832 11.619 44.2572C9.29285 41.9965 8.1312 39.2291 8.03387 36.0473C8.02117 35.6404 8.00283 35.2328 8.05432 34.8266C8.06279 34.7614 8.08888 34.6976 8.12415 34.5732C8.52124 34.972 8.90775 35.3239 9.29779 35.6716C10.6047 36.8366 12.1585 37.4086 13.919 37.5213C16.1457 37.6633 18.3752 37.7856 20.5821 38.1246C22.2988 38.3881 24.0184 38.6367 25.6907 39.1163C26.7246 39.4125 27.6035 39.9899 28.4407 40.6053C29.9218 41.6942 31.1731 43.0188 32.3982 44.3631C32.535 44.5126 32.6613 44.6715 32.8256 44.8658Z" fill="#F19B9B"/>
<path d="M33.9081 45.8419C33.6908 46.1164 33.4581 46.2352 33.2528 46.3826C33.0462 46.5307 32.8346 46.6754 32.6138 46.8045C31.1475 47.6604 29.6734 48.5027 28.1421 49.2513C27.2252 49.6996 26.2597 49.9455 25.2447 50.0399C25.0691 50.0562 24.8935 50.0718 24.7185 50.0936C24.6417 50.1031 24.5373 50.0875 24.5147 50.1853C24.4964 50.262 24.581 50.298 24.6346 50.3381C25.3801 50.9046 26.2032 51.3149 27.1159 51.588C29.1557 52.1966 30.8322 51.4746 32.3655 50.2817C33.4327 49.451 34.2621 48.4022 35.0471 47.3241C35.093 47.2616 35.1431 47.2019 35.2376 47.0823C35.4386 48.2249 35.1861 49.2044 34.5704 50.0929C33.7487 51.2783 32.7901 52.3352 31.4945 53.0784C30.5762 53.6048 29.5633 53.8371 28.5364 54.0212C26.3344 54.4145 24.356 53.7821 22.4891 52.7183C21.8197 52.3373 21.2907 51.804 20.9127 51.1492C20.6108 50.6261 20.3498 50.0807 20.0642 49.5488C19.9365 49.311 20.0064 49.2193 20.2779 49.2193C20.9472 49.2187 21.6173 49.218 22.2873 49.201C24.2206 49.1521 26.0749 48.7105 27.9044 48.1447C29.8539 47.5422 31.7484 46.8092 33.602 45.9751C33.6746 45.9425 33.7487 45.9112 33.9081 45.8419Z" fill="#F19B9B"/>
<path d="M51.9048 49.1296C52.0318 49.2974 51.8329 49.4958 51.7278 49.6391C50.8109 50.8856 49.9179 52.1701 48.5511 53.0077C47.2152 53.8269 45.739 54.2481 44.1351 54.1842C43.4658 54.1577 42.7936 54.1727 42.1327 54.0558C40.4788 53.7644 39.1704 52.8976 38.0475 51.7381C37.3309 50.9984 36.8189 50.1404 36.5523 49.1568C36.3597 48.4449 36.4867 47.7425 36.6341 47.0096C36.8132 47.0734 36.9423 47.1699 37.0002 47.3003C37.4318 48.2663 38.257 48.9211 38.9708 49.669C40.186 50.9433 41.6792 51.4562 43.4594 51.3618C44.5773 51.3027 45.66 51.1811 46.6523 50.6465C46.7497 50.5942 46.919 50.5738 46.8985 50.4434C46.8795 50.3211 46.7158 50.3191 46.6037 50.2994C44.4123 49.9135 42.4713 48.9911 40.6572 47.7745C39.8447 47.2297 39.0681 46.6489 38.3473 45.9975C38.2895 45.9451 38.2083 45.9064 38.2168 45.7495C38.6125 45.8867 38.9962 46.0063 39.3686 46.1516C41.1326 46.8377 42.8557 47.6243 44.6528 48.2303C46.8259 48.9625 49.0462 49.3966 51.3666 49.0862C51.5486 49.0617 51.8061 48.9999 51.9048 49.1296Z" fill="#F19B9B"/>
<path d="M54.5195 48.9903C54.4553 48.9713 54.3926 48.9462 54.3291 48.9238C54.3305 48.8932 54.3319 48.8626 54.3326 48.8327C54.8087 48.7995 55.2848 48.7601 55.7609 48.7349C57.8275 48.6256 59.8383 48.239 61.7941 47.5958C62.8521 47.248 63.7316 46.5836 64.6612 46.0123C65.0703 45.761 65.4145 45.4363 65.7742 45.1286C65.9865 44.9465 65.9752 44.8046 65.7566 44.6382C65.2142 44.2231 64.6796 43.7979 64.1428 43.3767C64.0532 43.3067 63.9467 43.251 63.891 43.1104C64.0194 43.0615 64.1308 43.105 64.2479 43.1383C65.5633 43.5119 66.7581 44.1538 67.9981 44.6959C68.1871 44.7781 68.2908 44.8718 68.118 45.0756C67.3668 45.9607 66.6227 46.8465 65.7037 47.5856C64.1287 48.8511 62.273 49.4285 60.2805 49.5277C58.3451 49.6241 56.4013 49.5474 54.5195 48.9903Z" fill="#F19B9B"/>
<path d="M64.7783 34.0759C64.9412 34.133 64.8672 34.3368 64.8601 34.4733C64.7303 37.094 64.0779 39.5612 62.5953 41.7987C61.3886 43.6206 59.8898 45.166 57.9861 46.3058C56.2031 47.3743 54.2593 47.9803 52.1313 48.0584C50.8293 48.1066 49.5513 48.0577 48.2824 47.7785C48.2253 47.7663 48.1675 47.7534 48.1125 47.735C48.0941 47.7289 48.0821 47.7051 48.0426 47.6644C48.7324 47.5917 49.3997 47.5081 50.069 47.4524C52.4389 47.2561 54.559 46.4206 56.4838 45.1103C57.2759 44.5709 57.8839 43.8407 58.4883 43.1166C59.3403 42.0963 59.9829 40.951 60.6416 39.8152C60.7785 39.5788 60.9604 39.3649 61.0317 39.0952C61.0493 39.0307 61.0803 38.958 61.0042 38.9131C60.94 38.8744 60.8998 38.9403 60.8546 38.9702C58.9961 40.1752 56.9021 40.7594 54.7361 41.1921C52.5975 41.6194 50.4351 41.7519 48.2627 41.8334C45.4111 41.9407 42.7662 42.726 40.3103 44.1158C40.0211 44.2795 39.7277 44.4364 39.4371 44.5967C39.4167 44.5736 39.3962 44.5512 39.3765 44.5288C39.9485 43.8162 40.5452 43.1261 41.2159 42.4923C42.7182 41.0739 44.5542 40.1623 46.4113 39.2847C47.7908 38.6333 49.2868 38.4159 50.7891 38.1999C53.0017 37.882 55.2396 37.8935 57.4579 37.6524C58.6555 37.5226 59.839 37.3148 60.9336 36.8325C62.2892 36.2361 63.4932 35.4128 64.4884 34.3273C64.5759 34.2322 64.6344 34.025 64.7783 34.0759Z" fill="#F19B9B"/>
<path d="M62.6837 29.253C62.695 30.0308 62.829 30.8045 62.6816 31.587C62.5793 32.1298 62.6477 32.6909 62.5716 33.2431C62.3889 34.5643 61.5517 35.3659 60.3816 35.9467C59.1205 36.573 57.7733 36.6192 56.4036 36.5866C55.735 36.5703 55.0663 36.5825 54.3977 36.5784C54.287 36.5777 54.167 36.6192 54.0479 36.5329C54.361 36.1437 54.8526 36.0465 55.2624 35.8346C56.6653 35.1098 57.9969 34.3035 59.1014 33.1752C60.3124 31.9375 61.3669 30.5851 62.3621 29.1857C62.4178 29.1083 62.4382 28.9616 62.5694 28.9928C62.6858 29.0207 62.6823 29.1579 62.6837 29.253Z" fill="#F19B9B"/>
<path d="M48.0913 37.6891C48.7853 37.2604 49.5569 37.0037 50.2376 36.5811C51.7448 35.6458 53.3029 34.7708 54.6084 33.5699C55.897 32.3845 56.8203 30.9553 57.3112 29.3039C57.5686 28.4372 57.7033 27.5358 57.6991 26.6228C57.6977 26.3552 57.6053 26.2927 57.333 26.2784C55.8907 26.2023 54.5442 26.5685 53.2196 27.0555C53.1167 27.0929 53.02 27.1757 52.8684 27.1207C53.427 26.5277 54.1337 26.1765 54.8503 25.8484C56.1643 25.2472 57.4811 24.6515 58.8494 24.1692C58.97 24.1264 59.0907 24.0809 59.2141 24.0463C59.7762 23.8853 59.7804 23.8859 59.8714 24.4708C60.3609 27.6146 59.5738 30.3854 57.278 32.7187C55.8702 34.15 54.1923 35.2076 52.3704 36.0839C51.0219 36.7326 49.6183 37.2366 48.1886 37.6823C48.159 37.6918 48.1238 37.687 48.0913 37.6891Z" fill="#F19B9B"/>
<path d="M44.0109 39.1475C43.9813 39.1652 43.9502 39.1835 43.9171 39.193C43.8988 39.1978 43.8748 39.1849 43.7923 39.1659C44.2796 38.5484 44.7472 37.9472 45.2247 37.3528C46.2538 36.0704 47.2321 34.7546 47.8951 33.2547C48.4128 32.0829 48.7393 30.8494 48.8571 29.5852C48.9692 28.3815 48.6737 27.2233 48.1476 26.1297C47.5685 24.926 46.8787 23.7827 46.0507 22.7203C45.9174 22.5492 45.7622 22.3936 45.6127 22.2346C45.1493 21.7415 45.1429 21.732 44.5201 22.0485C43.69 22.4697 42.8746 22.9173 42.0269 23.4574C42.2533 22.7584 42.6525 22.2503 43.0312 21.7381C43.7245 20.7993 44.4341 19.8728 45.291 19.0597C45.4617 18.898 45.6127 18.879 45.7763 19.0053C46.6354 19.669 47.5967 20.2375 48.1793 21.1743C49.0757 22.6123 49.8593 24.1006 50.2607 25.7533C50.5082 26.7716 50.6754 27.798 50.7008 28.8407C50.7346 30.2312 50.4039 31.5619 49.8304 32.8281C48.6032 35.5378 46.6121 37.6062 44.0109 39.1475Z" fill="#F19B9B"/>
<path d="M45.1994 30.9574C45.5218 32.8431 45.2171 34.6867 44.3065 36.3992C43.2648 38.3589 42.0107 40.1882 40.495 41.8443C40.045 42.3368 39.528 42.7593 39.0012 43.1771C39.1972 42.8368 39.4871 42.5664 39.7241 42.2587C40.3589 41.4334 40.7659 40.4919 41.2589 39.5945C42.2696 37.7537 42.582 35.7688 42.5341 33.7167C42.5115 32.7575 42.2583 31.8418 41.8513 30.9655C41.1622 29.484 40.1868 28.1866 39.0745 26.9802C38.3022 26.1426 37.4833 25.3472 36.6348 24.5809C36.4381 24.4023 36.297 24.3975 36.1023 24.568C34.8109 25.7024 33.4391 26.7608 32.2816 28.0249C30.5325 29.9351 29.4696 32.1489 29.5076 34.7397C29.5366 36.6913 30.079 38.5199 31.0763 40.2419C31.8168 41.5196 32.7189 42.6601 33.7466 43.7225C33.7699 43.747 33.7889 43.7749 33.8101 43.8013C32.4368 42.8972 31.3281 41.7445 30.4013 40.426C29.8159 39.5932 29.1479 38.8079 28.6803 37.9065C28.1838 36.9494 27.5349 36.0459 27.3557 34.9625C27.1329 33.61 26.9692 32.2467 27.2238 30.882C27.3889 29.9935 27.7705 29.1661 28.2578 28.4073C29.1099 27.0807 30.0303 25.7901 31.218 24.712C32.3874 23.6503 33.6563 22.7 34.9266 21.7531C35.3251 21.4562 35.7377 21.1757 36.1249 20.8652C36.285 20.7368 36.3986 20.7464 36.5601 20.8394C37.4791 21.3693 38.3523 21.9596 39.169 22.6266C40.4054 23.636 41.6877 24.6061 42.6617 25.8689C43.8467 27.4034 44.8722 29.0438 45.1994 30.9574Z" fill="#F19B9B"/>
<path d="M30.4944 23.4553C29.7221 23.1768 29.0499 22.7393 28.3432 22.3644C27.3346 21.8291 27.6343 21.7462 26.8119 22.5688C25.3689 24.013 24.3271 25.7044 23.71 27.6003C22.853 30.2312 23.3453 32.6963 24.9824 34.9488C25.5748 35.764 26.1997 36.5554 26.7583 37.3943C27.08 37.8773 27.489 38.3059 27.8502 38.7651C27.9292 38.8663 28.0427 38.9607 28.0413 39.1441C27.5462 38.9315 27.1646 38.5959 26.7703 38.2923C25.2821 37.1443 24.0126 35.8204 23.1196 34.1697C22.5801 33.1732 22.0638 32.1889 21.8522 31.0654C21.5581 29.501 21.6335 27.9705 22.0574 26.4374C22.7705 23.8609 24.0274 21.5662 25.8245 19.5426C26.0375 19.3028 26.2653 19.0739 26.5319 18.8837C26.6243 18.8178 26.6843 18.7648 26.7957 18.8661C28.2741 20.209 29.5366 21.7143 30.4944 23.4553Z" fill="#F19B9B"/>
</svg>
