<svg width="73" height="73" viewBox="0 0 73 73" fill="none" xmlns="http://www.w3.org/2000/svg">
<circle cx="36.3662" cy="36.14" r="35" fill="#9E2867" stroke="#916EAB" stroke-width="2"/>
<mask id="mask0_775_392" style="mask-type:luminance" maskUnits="userSpaceOnUse" x="2" y="4" width="69" height="64">
<path d="M68.8892 67.7933L1.99987 66.3585L3.33755 4L70.2268 5.43487L68.8892 67.7933Z" fill="white"/>
</mask>
<g mask="url(#mask0_775_392)">
<path d="M42.8205 48.9703C43.397 57.9535 41.3413 65.3977 38.229 65.5975C36.7344 65.6934 35.1911 64.0717 33.9385 61.0891C32.6859 58.1066 31.8267 54.0075 31.5499 49.6936C30.9734 40.7104 33.0291 33.2662 36.1414 33.0665C37.636 32.9706 39.1794 34.5923 40.4319 37.5748C41.6845 40.5574 42.5437 44.6565 42.8205 48.9703Z" fill="#FF99B1"/>
<path d="M31.5015 48.9609C26.3612 56.35 20.119 60.896 17.5592 59.1146C16.3299 58.2592 16.1316 56.0292 17.0078 52.9153C17.8841 49.8013 19.7631 46.0584 22.2316 42.5101C27.3719 35.121 33.6141 30.575 36.1739 32.3564C37.4032 33.2118 37.6015 35.4418 36.7252 38.5557C35.849 41.6697 33.9699 45.4126 31.5015 48.9609Z" fill="#FF99B1"/>
<path d="M42.0341 22.6722C41.8411 31.6712 39.1569 38.9122 36.0388 38.8453C34.5414 38.8132 33.1422 37.0657 32.149 33.9872C31.1558 30.9087 30.6499 26.7515 30.7426 22.43C30.9356 13.4309 33.6198 6.18992 36.7379 6.25681C38.2352 6.28893 39.6344 8.03644 40.6277 11.1149C41.6209 14.1934 42.1268 18.3507 42.0341 22.6722Z" fill="#FF99B1"/>
<path d="M22.3068 28.6018C17.2507 21.1549 15.2435 13.6981 17.8237 11.9465C19.0628 11.1054 21.2156 11.7193 23.8087 13.6532C26.4017 15.5872 29.2225 18.6827 31.6506 22.2588C36.7067 29.7057 38.7139 37.1625 36.1337 38.9141C34.8946 39.7552 32.7418 39.1413 30.1487 37.2073C27.5557 35.2734 24.7349 32.1779 22.3068 28.6018Z" fill="#FF99B1"/>
<path d="M19.8903 41.8372C10.8912 41.6442 3.65028 38.96 3.71717 35.8419C3.74929 34.3446 5.4968 32.9454 8.57528 31.9521C11.6538 30.9589 15.811 30.453 20.1325 30.5457C29.1316 30.7387 36.3726 33.4229 36.3057 36.541C36.2736 38.0383 34.526 39.4375 31.4476 40.4308C28.3691 41.424 24.2118 41.9299 19.8903 41.8372Z" fill="#FF99B1"/>
<path d="M51.8603 40.9222C58.9792 46.4298 63.2027 52.8947 61.2938 55.3619C60.377 56.5467 58.1398 56.6323 55.0743 55.5999C52.0087 54.5675 48.366 52.5016 44.9474 49.8568C37.8284 44.3491 33.6049 37.8843 35.5139 35.4171C36.4306 34.2323 38.6678 34.1467 41.7334 35.1791C44.7989 36.2115 48.4417 38.2774 51.8603 40.9222Z" fill="#FF99B1"/>
<path d="M51.4079 29.6252C60.3805 28.9075 67.8561 30.8461 68.105 33.9553C68.2245 35.4483 66.6275 37.0172 63.6652 38.3167C60.703 39.6162 56.6181 40.5399 52.3093 40.8846C43.3367 41.6023 35.8612 39.6637 35.6122 36.5545C35.4927 35.0615 37.0897 33.4926 40.052 32.1931C43.0143 30.8936 47.0991 29.9699 51.4079 29.6252Z" fill="#FF99B1"/>
<path d="M41.6803 21.7976C46.937 14.4904 53.2507 10.0434 55.7825 11.8649C56.9983 12.7396 57.1615 14.9725 56.2363 18.0722C55.311 21.172 53.373 24.8848 50.8487 28.3938C45.592 35.701 39.2783 40.148 36.7465 38.3265C35.5307 37.4518 35.3675 35.2189 36.2927 32.1192C37.218 29.0194 39.156 25.3066 41.6803 21.7976Z" fill="#FF99B1"/>
<path d="M39.9517 42.5994C40.2902 47.1163 39.1367 50.8559 37.3752 50.9521C36.5292 50.9983 35.6534 50.1809 34.9403 48.6798C34.2272 47.1786 33.7353 45.1168 33.5727 42.9477C33.2342 38.4308 34.3877 34.6911 36.1492 34.595C37.9107 34.4988 39.6132 38.0825 39.9517 42.5994Z" fill="#881F63"/>
<path d="M33.5446 42.579C30.6449 46.2867 27.1175 48.5636 25.6661 47.6646C24.9691 47.2329 24.8538 46.1116 25.3455 44.5473C25.8373 42.983 26.8959 41.1039 28.2884 39.3234C31.1882 35.6156 34.7155 33.3387 36.167 34.2378C37.6184 35.1368 36.4443 38.8713 33.5446 42.579Z" fill="#881F63"/>
<path d="M39.4701 29.377C39.3731 33.9008 37.8635 37.5374 36.0984 37.4996C35.2507 37.4814 34.4563 36.6009 33.8899 35.052C33.3234 33.503 33.0314 31.4123 33.078 29.2399C33.175 24.716 34.6846 21.0794 36.4498 21.1173C38.2149 21.1552 39.5672 24.8532 39.4701 29.377Z" fill="#881F63"/>
<path d="M28.3118 32.3315C25.4395 28.5809 24.2932 24.8294 25.7514 23.9523C26.4517 23.5311 27.6712 23.8427 29.1416 24.8185C30.6121 25.7942 32.2131 27.3543 33.5924 29.1554C36.4647 32.9061 37.611 36.6575 36.1528 37.5346C34.6946 38.4116 31.1841 36.0821 28.3118 32.3315Z" fill="#881F63"/>
<path d="M26.9623 38.9819C21.868 38.8727 17.7654 37.5134 17.7991 35.9459C17.8152 35.1932 18.8025 34.4922 20.5438 33.997C22.2851 33.5019 24.6377 33.2532 27.0841 33.3057C32.1785 33.415 36.281 34.7742 36.2474 36.3417C36.2313 37.0944 35.2439 37.7954 33.5027 38.2906C31.7614 38.7857 29.4088 39.0344 26.9623 38.9819Z" fill="#881F63"/>
<path d="M45.0584 38.5656C49.0957 41.3442 51.4953 44.6 50.418 45.8377C49.9007 46.4321 48.6344 46.4721 46.8977 45.9489C45.161 45.4257 43.0961 44.3822 41.1573 43.0479C37.12 40.2694 34.7204 37.0136 35.7977 35.7758C36.315 35.1814 37.5813 35.1415 39.318 35.6646C41.0547 36.1878 43.1196 37.2314 45.0584 38.5656Z" fill="#881F63"/>
<path d="M44.787 32.8857C49.8652 32.5371 54.0995 33.5218 54.2446 35.0852C54.3143 35.836 53.4124 36.6225 51.7373 37.2718C50.0623 37.9211 47.7512 38.3799 45.3126 38.5473C40.2344 38.896 36.0001 37.9112 35.855 36.3478C35.7853 35.597 36.6872 34.8105 38.3623 34.1612C40.0374 33.5119 42.3484 33.0531 44.787 32.8857Z" fill="#881F63"/>
<path d="M39.2703 28.9373C42.236 25.2709 45.804 23.0439 47.2396 23.963C47.929 24.4044 48.0245 25.5272 47.5049 27.0843C46.9854 28.6414 45.8934 30.5053 44.4692 32.2659C41.5035 35.9323 37.9355 38.1594 36.4999 37.2402C35.0642 36.321 36.3046 32.6037 39.2703 28.9373Z" fill="#881F63"/>
</g>
<mask id="mask1_775_392" style="mask-type:luminance" maskUnits="userSpaceOnUse" x="25" y="26" width="23" height="21">
<path d="M46.7988 46.79L24.9999 46.3224L25.4358 26L47.2348 26.4677L46.7988 46.79Z" fill="white"/>
</mask>
<g mask="url(#mask1_775_392)">
<path d="M38.3034 40.6557C38.4912 43.5833 37.8213 46.0093 36.807 46.0744C36.3199 46.1057 35.817 45.5772 35.4087 44.6052C35.0005 43.6332 34.7205 42.2973 34.6303 40.8914C34.4424 37.9638 35.1124 35.5378 36.1267 35.4727C36.6138 35.4414 37.1167 35.9699 37.5249 36.9419C37.9331 37.914 38.2131 39.2498 38.3034 40.6557Z" fill="#AF95B3"/>
<path d="M34.6143 40.6528C32.9391 43.0608 30.9048 44.5424 30.0705 43.9618C29.6699 43.683 29.6053 42.9563 29.8909 41.9415C30.1764 40.9266 30.7888 39.7069 31.5933 38.5505C33.2685 36.1424 35.3028 34.6609 36.137 35.2414C36.5376 35.5202 36.6023 36.2469 36.3167 37.2618C36.0311 38.2766 35.4188 39.4964 34.6143 40.6528Z" fill="#AF95B3"/>
<path d="M38.0465 32.0853C37.9836 35.018 37.1088 37.3778 36.0927 37.356C35.6047 37.3456 35.1487 36.7761 34.825 35.7728C34.5013 34.7695 34.3364 33.4147 34.3667 32.0063C34.4296 29.0736 35.3043 26.7138 36.3205 26.7356C36.8085 26.746 37.2645 27.3155 37.5882 28.3188C37.9119 29.3221 38.0767 30.6769 38.0465 32.0853Z" fill="#AF95B3"/>
<path d="M31.6171 34.0178C29.9693 31.5909 29.3152 29.1607 30.1561 28.5899C30.5599 28.3158 31.2615 28.5159 32.1065 29.1461C32.9516 29.7764 33.8709 30.7852 34.6622 31.9506C36.31 34.3776 36.9641 36.8077 36.1232 37.3785C35.7194 37.6526 35.0178 37.4526 34.1727 36.8223C33.3277 36.1921 32.4084 35.1832 31.6171 34.0178Z" fill="#AF95B3"/>
<path d="M30.8304 38.3309C27.8976 38.268 25.5378 37.3932 25.5596 36.3771C25.5701 35.8891 26.1396 35.4331 27.1429 35.1094C28.1461 34.7857 29.501 34.6208 30.9093 34.651C33.8421 34.714 36.2019 35.5887 36.1801 36.6049C36.1696 37.0929 35.6001 37.5489 34.5969 37.8726C33.5936 38.1962 32.2388 38.3611 30.8304 38.3309Z" fill="#AF95B3"/>
<path d="M41.2481 38.0327C43.5681 39.8276 44.9446 41.9345 44.3225 42.7385C44.0237 43.1246 43.2946 43.1525 42.2956 42.8161C41.2965 42.4796 40.1093 41.8064 38.9952 40.9444C36.6752 39.1495 35.2988 37.0426 35.9209 36.2386C36.2196 35.8525 36.9487 35.8246 37.9478 36.161C38.9468 36.4975 40.134 37.1707 41.2481 38.0327Z" fill="#AF95B3"/>
<path d="M41.1023 34.3513C44.0264 34.1173 46.4627 34.7491 46.5438 35.7624C46.5828 36.249 46.0623 36.7603 45.0969 37.1838C44.1315 37.6073 42.8003 37.9083 41.3961 38.0206C38.4719 38.2546 36.0357 37.6228 35.9545 36.6095C35.9156 36.1229 36.4361 35.6116 37.4014 35.1881C38.3668 34.7646 39.6981 34.4636 41.1023 34.3513Z" fill="#AF95B3"/>
<path d="M37.9317 31.8C39.6449 29.4186 41.7025 27.9693 42.5276 28.5629C42.9238 28.848 42.977 29.5757 42.6755 30.5859C42.3739 31.5961 41.7423 32.8061 40.9197 33.9497C39.2065 36.331 37.1489 37.7803 36.3238 37.1867C35.9276 36.9016 35.8744 36.1739 36.1759 35.1637C36.4775 34.1535 37.1091 32.9435 37.9317 31.8Z" fill="#AF95B3"/>
<path d="M37.3676 38.5792C37.4779 40.0513 37.1019 41.27 36.5279 41.3013C36.2522 41.3164 35.9668 41.05 35.7344 40.5608C35.502 40.0716 35.3416 39.3996 35.2887 38.6927C35.1783 37.2207 35.5543 36.002 36.1283 35.9706C36.7024 35.9393 37.2572 37.1072 37.3676 38.5792Z" fill="#613861"/>
<path d="M35.2805 38.5729C34.3355 39.7812 33.186 40.5233 32.7129 40.2303C32.4858 40.0896 32.4482 39.7241 32.6085 39.2143C32.7687 38.7045 33.1137 38.0922 33.5675 37.5119C34.5126 36.3036 35.6621 35.5615 36.1351 35.8545C36.6082 36.1475 36.2255 37.3646 35.2805 38.5729Z" fill="#613861"/>
<path d="M37.2116 34.2701C37.1799 35.7444 36.688 36.9296 36.1127 36.9172C35.8365 36.9113 35.5776 36.6244 35.393 36.1196C35.2084 35.6148 35.1132 34.9334 35.1284 34.2254C35.16 32.7511 35.652 31.566 36.2272 31.5783C36.8025 31.5907 37.2432 32.7958 37.2116 34.2701Z" fill="#613861"/>
<path d="M33.5739 35.233C32.6379 34.0107 32.2643 32.7881 32.7395 32.5023C32.9677 32.365 33.3651 32.4666 33.8444 32.7846C34.3236 33.1026 34.8453 33.611 35.2949 34.1979C36.2309 35.4203 36.6045 36.6429 36.1293 36.9287C35.6541 37.2145 34.51 36.4553 33.5739 35.233Z" fill="#613861"/>
<path d="M33.1345 37.4002C31.4743 37.3646 30.1373 36.9216 30.1482 36.4108C30.1535 36.1655 30.4752 35.937 31.0427 35.7757C31.6102 35.6143 32.3769 35.5333 33.1742 35.5504C34.8344 35.586 36.1714 36.029 36.1605 36.5398C36.1552 36.7851 35.8334 37.0136 35.266 37.1749C34.6985 37.3363 33.9318 37.4173 33.1345 37.4002Z" fill="#613861"/>
<path d="M39.0321 37.2648C40.3478 38.1703 41.1298 39.2314 40.7788 39.6348C40.6102 39.8285 40.1975 39.8415 39.6315 39.671C39.0655 39.5005 38.3926 39.1604 37.7607 38.7256C36.445 37.8201 35.663 36.759 36.014 36.3556C36.1826 36.1619 36.5953 36.1489 37.1613 36.3194C37.7273 36.4899 38.4002 36.83 39.0321 37.2648Z" fill="#613861"/>
<path d="M38.9433 35.4138C40.5982 35.3002 41.9782 35.6211 42.0255 36.1306C42.0482 36.3753 41.7543 36.6316 41.2084 36.8432C40.6625 37.0548 39.9093 37.2044 39.1146 37.2589C37.4596 37.3725 36.0797 37.0516 36.0324 36.5421C36.0097 36.2974 36.3036 36.0411 36.8495 35.8295C37.3954 35.6179 38.1486 35.4684 38.9433 35.4138Z" fill="#613861"/>
<path d="M37.146 34.127C38.1125 32.9322 39.2753 32.2064 39.7432 32.506C39.9678 32.6498 39.9989 33.0157 39.8296 33.5231C39.6603 34.0306 39.3044 34.638 38.8403 35.2118C37.8738 36.4067 36.711 37.1325 36.2431 36.8329C35.7752 36.5334 36.1795 35.3219 37.146 34.127Z" fill="#613861"/>
</g>
</svg>
