<svg width="72" height="72" viewBox="0 0 72 72" fill="none" xmlns="http://www.w3.org/2000/svg">
<path d="M36 71C55.33 71 71 55.33 71 36C71 16.67 55.33 0.999999 36 0.999999C16.67 1 1 16.67 1 36C1 55.33 16.67 71 36 71Z" fill="#9E2867" stroke="#916EAB" stroke-width="2"/>
<g style="mix-blend-mode:luminosity">
<path fill-rule="evenodd" clip-rule="evenodd" d="M5.54042 41.5135C9.53426 41.0428 14.224 36.088 16.2245 33.6295C18.2273 31.1685 21.4008 28.5735 26.2294 29.6063C30.8625 30.5973 35.7893 37.152 36.9945 34.9825C38.2135 32.7877 34.386 30.2908 30.5437 28.8058C26.8126 27.3638 25.6103 21.2877 27.9814 17.8877C29.7119 15.4061 31.6574 13.6454 31.0484 11.8946C31.2023 14.18 37.2744 14.9673 38.9119 17.0133C40.5941 19.1148 41.8002 22.2885 39.136 25.8404C36.5237 29.3231 38.0293 33.0546 39.98 32.924C41.9308 32.793 42.1073 28.3422 43.2686 25.1375C44.4965 21.7491 48.9696 19.0341 52.0083 19.0573C55.0469 19.0805 57.6163 17.8658 59.0684 15.964C57.525 18.4377 59.2511 22.7401 59.1902 25.4468C59.1218 28.4926 56.7209 31.843 54.1625 33.5637C51.6483 35.2547 44.179 34.9597 44.0581 37.5745C43.9368 40.1989 50.7375 38.1541 54.1797 36.7013C57.7012 35.2148 61.3309 38.9783 61.3448 42.0395C61.3583 45.0209 61.5036 47.9016 63.5969 51.1766C61.372 47.6867 56.6553 47.5706 54.0084 47.9076C51.3879 48.2412 47.411 48.9129 46.2979 45.6398C45.199 42.407 44.9838 40.7236 43.0416 40.8882C41.0486 41.057 42.2648 46.3552 42.369 49.6044C42.4732 52.854 40.6421 56.5852 38.3203 56.9937C35.9986 57.4023 32.1829 58.3485 31.0805 61.5609C32.1847 58.4456 31.0269 55.4146 29.9593 51.819C28.9338 48.3657 32.4782 44.0143 35.4996 42.99C38.561 41.9524 39.789 38.564 38.0573 37.8443C36.2985 37.1133 32.189 38.8966 29.6601 42.7741C27.1799 46.5771 21.4645 48.8495 17.365 47.3241C13.2654 45.7993 9.65911 41.062 5.54104 41.5137L5.54042 41.5135Z" fill="#FF4D94"/>
</g>
<g style="mix-blend-mode:luminosity">
<path fill-rule="evenodd" clip-rule="evenodd" d="M5.09467 34.9854C9.10671 35.2608 14.6312 31.2578 17.0516 29.2113C19.4745 27.1627 23.0728 25.1988 27.6275 27.106C31.9977 28.936 35.6286 36.2882 37.2138 34.3787C38.8175 32.447 35.5172 29.2858 32.0154 27.1164C28.615 25.0098 28.5561 18.8162 31.5146 15.9129C33.6738 13.7937 35.9111 12.4229 35.6361 10.5896C35.3652 12.8641 41.1872 14.7598 42.4185 17.0732C43.6834 19.4493 44.2823 22.7913 41.0077 25.7897C37.7969 28.7297 38.587 32.6751 40.5283 32.9072C42.4698 33.139 43.4656 28.7974 45.199 25.8625C47.0319 22.7593 51.9296 20.9175 54.9117 21.5018C57.8937 22.086 60.6432 21.367 62.4218 19.7663C60.4479 21.9122 61.3493 26.4594 60.7894 29.1082C60.1593 32.089 57.1807 34.9381 54.3484 36.1564C51.565 37.3538 44.2789 35.6838 43.6769 38.2312C43.0728 40.788 50.1342 40.035 53.7855 39.2432C57.5211 38.4329 60.3929 42.8023 59.841 45.8134C59.3034 48.746 58.9139 51.6039 60.366 55.2093C58.8242 51.3684 54.2103 50.3828 51.5467 50.2249C48.9097 50.0686 44.8771 49.9939 44.388 46.5715C43.9052 43.1913 44.0048 41.4971 42.0657 41.3C40.0758 41.0977 40.2922 46.5293 39.7942 49.7419C39.2961 52.9547 36.8072 56.2834 34.4499 56.2559C32.0926 56.2284 28.1678 56.4533 26.4908 59.4067C28.1516 56.5491 27.5738 53.3563 27.1889 49.6254C26.8191 46.0421 31.1066 42.4205 34.2652 41.9721C37.4656 41.518 39.2985 38.4149 37.7296 37.3876C36.1362 36.3442 31.7679 37.3375 28.5661 40.681C25.4259 43.9602 19.3891 45.1374 15.642 42.8809C11.8948 40.6249 9.22529 35.3024 5.09467 34.9854Z" fill="#FF7D92"/>
</g>
<path d="M38.8797 35.0606C39.2563 35.2739 39.3887 35.7528 39.1754 36.1294C38.962 36.506 38.4832 36.6384 38.1066 36.4251C37.73 36.2117 37.5975 35.7329 37.8109 35.3563C38.0242 34.9797 38.5031 34.8472 38.8797 35.0606Z" fill="#850641"/>
<path d="M40.71 32.8478C41.0223 33.0247 41.1321 33.4217 40.9552 33.7339C40.7783 34.0462 40.3813 34.156 40.0691 33.9791C39.7568 33.8022 39.647 33.4052 39.8239 33.093C40.0008 32.7807 40.3978 32.6709 40.71 32.8478Z" fill="#850641"/>
<path d="M42.8347 33.5776C43.104 33.7302 43.1988 34.0726 43.0462 34.3419C42.8936 34.6113 42.5512 34.706 42.2818 34.5534C42.0125 34.4008 41.9178 34.0584 42.0704 33.7891C42.223 33.5198 42.5654 33.425 42.8347 33.5776Z" fill="#850641"/>
<path d="M44.8292 35.3517C45.1307 35.5225 45.2367 35.9059 45.0659 36.2074C44.8951 36.5089 44.5118 36.6149 44.2103 36.4441C43.9088 36.2733 43.8027 35.8899 43.9735 35.5884C44.1444 35.2869 44.5277 35.1809 44.8292 35.3517Z" fill="#850641"/>
<path d="M43.8688 37.3518C44.2883 37.5895 44.4359 38.1229 44.1982 38.5425C43.9605 38.962 43.4271 39.1096 43.0076 38.8719C42.5881 38.6342 42.4405 38.1008 42.6782 37.6813C42.9159 37.2617 43.4493 37.1141 43.8688 37.3518Z" fill="#850641"/>
<path d="M41.8343 38.7536C42.2109 38.967 42.3433 39.4458 42.13 39.8224C41.9166 40.199 41.4378 40.3315 41.0612 40.1181C40.6845 39.9047 40.5521 39.4259 40.7655 39.0493C40.9788 38.6727 41.4577 38.5402 41.8343 38.7536Z" fill="#850641"/>
<path d="M39.906 39.6368C40.2344 39.8229 40.3499 40.2403 40.1638 40.5686C39.9778 40.897 39.5604 41.0125 39.232 40.8264C38.9037 40.6404 38.7882 40.223 38.9742 39.8946C39.1602 39.5663 39.5777 39.4508 39.906 39.6368Z" fill="#850641"/>
<path d="M39.544 37.4258C39.9152 37.6361 40.0458 38.1081 39.8355 38.4793C39.6251 38.8506 39.1531 38.9811 38.7819 38.7708C38.4107 38.5605 38.2801 38.0885 38.4904 37.7172C38.7008 37.346 39.1728 37.2154 39.544 37.4258Z" fill="#850641"/>
<path d="M41.7592 35.5524C42.1841 35.7931 42.3336 36.3334 42.0928 36.7583C41.8521 37.1831 41.3118 37.3326 40.8869 37.0919C40.4621 36.8512 40.3126 36.3109 40.5533 35.886C40.794 35.4611 41.3343 35.3116 41.7592 35.5524Z" fill="#850641"/>
</svg>
