<svg width="72" height="72" viewBox="0 0 72 72" fill="none" xmlns="http://www.w3.org/2000/svg">
<path d="M36 71C55.33 71 71 55.33 71 36C71 16.67 55.33 0.999999 36 0.999999C16.67 1 1 16.67 1 36C1 55.33 16.67 71 36 71Z" fill="#9E2867" stroke="#916EAB" stroke-width="2"/>
<path d="M67.7832 31.713C67.1525 34.9048 58.2349 34.1471 58.2349 34.1471C58.2349 34.1471 58.357 43.0028 55.0945 43.3958C51.8319 43.7886 49.8045 35.1622 49.8045 35.1622C49.8045 35.1622 41.3309 38.0138 39.9454 35.0647C38.5597 32.1156 46.2242 27.5421 46.2242 27.5421C46.2242 27.5421 40.865 20.4483 43.2711 18.2332C45.6773 16.0177 52.4414 21.8175 52.4414 21.8175C52.4414 21.8175 57.6029 14.5822 60.4761 16.1618C63.3488 17.7416 59.8649 25.8995 59.8649 25.8995C59.8649 25.8995 68.4143 28.5212 67.7835 31.713L67.7832 31.713Z" fill="#EEBA34"/>
<path d="M66.0781 45.1178C68.1583 50.568 65.2907 49.9323 62.378 49.2411C60.6224 53.0332 58.7666 54.6153 56.6159 49.688C54.1155 49.7847 50.1999 51.5403 52.6985 45.7766C48.753 42.2046 49.2549 40.4894 52.5452 39.9382C50.6415 34.7127 53.7974 35.4709 56.4815 35.6713C58.383 32.6417 60.2283 31.9132 61.9566 35.9858C65.9623 34.1462 67.3887 35.4434 66.4318 39.6389C71.1789 43.2923 68.7545 44.2523 66.0782 45.1177L66.0781 45.1178Z" fill="#F8A84F"/>
<path d="M63.3431 40.6265C64.3454 42.4894 63.4622 44.893 61.3704 45.995C59.2786 47.0971 56.7703 46.4802 55.768 44.6173C54.7657 42.7543 55.6489 40.3508 57.7407 39.2487C59.8326 38.1467 62.3408 38.7635 63.3431 40.6265Z" fill="#F6414B"/>
<path d="M48.8296 22.8462C48.3689 25.2753 41.4144 23.9144 41.4144 23.9144C41.4144 23.9144 45.4733 29.6655 43.4117 31.0607C41.3501 32.456 37.4052 26.6278 37.4052 26.6278C37.4052 26.6278 36.1655 33.5345 33.7106 33.0786C31.2558 32.6227 32.6311 25.741 32.6311 25.741C32.6311 25.741 26.8192 29.7574 25.4092 27.7173C23.9992 25.6773 29.889 21.7737 29.889 21.7737C29.889 21.7737 22.9093 20.547 23.37 18.1178C23.8307 15.6887 30.7852 17.0496 30.7852 17.0496C30.7852 17.0496 26.7264 11.2985 28.788 9.90326C30.8496 8.50796 34.7945 14.3362 34.7945 14.3362C34.7945 14.3362 36.0341 7.42953 38.489 7.88538C40.9438 8.34126 39.5685 15.223 39.5685 15.223C39.5685 15.223 45.3804 11.2066 46.7904 13.2467C48.2005 15.2867 42.3106 19.1903 42.3106 19.1903C42.3106 19.1903 49.2903 20.417 48.8296 22.8462Z" fill="#F8570B"/>
<path d="M55.7468 27.7121C56.4707 29.0576 56.0118 30.6992 54.7219 31.3788C53.4319 32.0584 51.7994 31.5186 51.0755 30.1731C50.3516 28.8277 50.8105 27.186 52.1005 26.5065C53.3904 25.8269 55.0229 26.3667 55.7468 27.7121Z" fill="#F8570B"/>
<path d="M38.8171 18.8333C39.6895 20.4547 39.1249 22.4392 37.556 23.2657C35.9872 24.0922 34.0082 23.4478 33.1358 21.8264C32.2634 20.2049 32.828 18.2205 34.3969 17.3939C35.9658 16.5674 37.9448 17.2118 38.8171 18.8333Z" fill="#F8950B"/>
<path d="M54.2623 49.5688C53.2252 52.0692 46.3657 47.4034 46.3657 47.4034C46.3657 47.4034 53.0523 52.3237 50.9787 54.0667C48.1007 56.4858 42.7918 46.3193 42.7918 46.3193C42.7918 46.3193 49.4702 55.8188 45.9206 57.1036C42.6854 58.2741 41.693 47.7729 41.693 47.7729C41.693 47.7729 44.0853 58.8956 40.3424 58.8067C36.4125 58.7131 39.489 47.1676 39.489 47.1676C39.489 47.1676 38.1034 58.8963 34.5172 57.4987C31.0143 56.1331 37.9216 46.8419 37.9216 46.8419C37.9216 46.8419 32.6058 56.5614 29.9931 54.1073C27.2561 51.5367 37.2419 45.5024 37.2419 45.5024C37.2419 45.5024 28.3343 52.5927 26.7343 49.2646C25.1676 46.0069 36.1092 43.6889 36.1092 43.6889C36.1092 43.6889 25.7856 46.8847 25.6667 43.4413C25.5388 39.7393 36.849 42.4171 36.849 42.4171C36.849 42.4171 23.574 41.0953 25.1931 37.1903C26.9713 32.9022 38.3775 42.0016 38.3775 42.0016C38.3775 42.0016 25.7269 34.7292 29.0982 31.4842C32.2011 28.4976 38.6408 40.1998 38.6408 40.1998C38.6408 40.1998 30.8582 29.8827 34.764 28.5369C38.6769 27.1889 39.0527 40.0814 39.0527 40.0814C39.0527 40.0814 36.3968 27.0651 40.6931 27.3929C44.3913 27.6751 40.3964 38.4001 40.3964 38.4001C40.3964 38.4001 42.8729 28.167 46.015 29.6655C49.15 31.1603 42.6199 39.4348 42.6199 39.4348C42.6199 39.4348 48.796 30.289 51.2713 32.9107C53.7022 35.4855 44.2343 40.8641 44.2343 40.8641C44.2343 40.8641 53.3366 34.7807 54.4856 38.096C55.6877 41.5625 44.2293 42.3239 44.2293 42.3239C44.2293 42.3239 55.5051 39.8416 55.3621 43.5331C55.2168 47.2837 43.9894 43.9014 43.9894 43.9014C43.9894 43.9014 55.7522 45.9801 54.2633 49.5694L54.2623 49.5688Z" fill="#FB2D55"/>
<path d="M45.7284 40.0903C47.4814 43.3485 46.3286 47.346 43.1536 49.0189C39.9785 50.6916 35.9833 49.4063 34.2304 46.1481C32.4774 42.8899 33.6302 38.8924 36.8052 37.2195C39.9803 35.5468 43.9755 36.8321 45.7284 40.0903Z" fill="#FBC02D"/>
<path d="M33.3803 26.7325C34.3007 29.2511 26.465 30.9424 26.465 30.9424C26.465 30.9424 35.5267 31.4763 34.8931 34.4227C34.2513 37.4074 25.6445 34.2033 25.6445 34.2033C25.6445 34.2033 33.1728 39.6492 30.9446 41.7929C28.6322 44.0172 23.1447 36.129 23.1447 36.129C23.1447 36.129 26.2356 45.3159 23.044 45.66C19.9404 45.9942 20.9338 36.6303 20.9338 36.6303C20.9338 36.6303 17.438 45.3381 14.8003 43.6691C12.1177 41.9718 18.7492 35.0624 18.7492 35.0624C18.7492 35.0624 10.4751 40.5212 9.35715 37.0182C8.78042 35.2111 16.3503 32.4193 16.3503 32.4193C16.3503 32.4193 7.38425 31.7353 8.09075 28.8451C8.7237 26.2553 16.1529 29.343 16.1529 29.343C16.1529 29.343 9.5542 24.6058 11.4288 22.5936C13.3571 20.5234 18.8177 26.8217 18.8177 26.8217C18.8177 26.8217 15.8323 19.5221 18.4303 18.8844C21.0959 18.2304 21.9234 26.268 21.9234 26.268C21.9234 26.268 24.733 18.7606 27.1407 20.0294C29.5977 21.3242 24.7733 27.9541 24.7733 27.9541C24.7733 27.9541 32.3952 24.0349 33.3811 26.7321L33.3803 26.7325Z" fill="#FBC02D"/>
<path d="M23.9416 30.0366C24.814 31.658 24.3059 33.6127 22.8068 34.4025C21.3076 35.1923 19.3851 34.5182 18.5127 32.8967C17.6403 31.2752 18.1484 29.3206 19.6476 28.5308C21.1467 27.741 23.0692 28.4151 23.9416 30.0366Z" fill="#F85B4F"/>
<path d="M27.9023 48.3828C31.6395 53.9039 31.8355 58.1433 21.7 58.6433C16.804 62.5289 12.2473 64.711 9.88591 55.8649C5.49563 52.0747 3.33708 48.1529 8.92597 43.7752C10.8068 36.5693 15.0752 36.8402 20.0921 39.4521C26.2927 38.3937 30.2772 39.8214 27.9027 48.3834L27.9023 48.3828Z" fill="url(#paint0_radial_775_350)"/>
<path d="M23.6694 46.6962C25.2842 49.6976 24.1062 53.441 21.0382 55.0573C17.9702 56.6736 14.174 55.5508 12.5592 52.5494C10.9443 49.5479 12.1224 45.8046 15.1904 44.1883C18.2583 42.572 22.0546 43.6948 23.6694 46.6962Z" fill="#F8C44F"/>
<path d="M60.6206 16.8205C61.0897 18.07 60.9306 19.5345 59.9718 20.0682C58.0895 21.1161 54.3739 16.8851 53.8124 17.8298C53.1473 18.9491 56.5555 20.904 56.837 22.6439C57.1493 24.5732 55.1229 25.78 53.6881 24.3918C52.3581 23.1049 54.2326 18.6042 52.1376 18.3273C50.2542 18.0785 51.0757 23.7553 48.9021 24.0059C47.4599 24.1721 45.7388 22.293 45.8298 20.8394C45.9606 18.7506 51.3584 19.0937 50.7663 17.0548C50.1745 15.0159 45.3402 17.297 44.1842 15.3318C43.5178 14.1986 43.98 12.0469 45.1812 11.5673C47.2674 10.7341 50.5948 16.9747 51.0621 15.0657C51.4156 13.622 46.9473 10.4388 48.1239 8.33425C48.7211 7.26621 50.7869 7.12913 51.7811 7.87655C53.5489 9.20543 50.9408 13.9337 52.8616 14.391C54.8864 14.873 53.953 8.59198 56.2678 8.3169C57.768 8.13864 59.5433 10.0974 59.4658 11.6114C59.3448 13.9756 54.0424 13.9071 53.9835 16.0178C53.9323 17.8545 59.9212 14.9576 60.6206 16.8204L60.6206 16.8205Z" fill="#FF4061"/>
<path d="M53.3988 15.8295C53.7084 16.4048 53.5179 17.1039 52.9733 17.3908C52.4287 17.6777 51.7363 17.4438 51.4267 16.8685C51.1172 16.2931 51.3077 15.5941 51.8523 15.3072C52.3969 15.0203 53.0893 15.2541 53.3988 15.8295Z" fill="#FFE56E"/>
<defs>
<radialGradient id="paint0_radial_775_350" cx="0" cy="0" r="1" gradientUnits="userSpaceOnUse" gradientTransform="translate(16.8599 49.4011) rotate(-26.6241) scale(19.7816 35.6257)">
<stop stop-color="#F68A11"/>
<stop offset="1" stop-color="#FCCA91"/>
</radialGradient>
</defs>
</svg>
