<svg width="506" height="651" viewBox="0 0 506 651" fill="none" xmlns="http://www.w3.org/2000/svg">
<g clip-path="url(#clip0_16_53)">
<path d="M207.23 96.9246C206.331 97.414 205.432 98.1208 204.826 98.3849C199.551 101.733 195.879 107.461 194.974 113.65C193.414 123.315 195.998 133.05 199.012 142.18C201.463 150.15 206.815 156.72 211.358 163.561C210.719 164.265 209.788 163.509 209.087 163.338C200.711 160.334 192.553 155.56 187.451 148.071C183.35 141.08 182.007 132.952 179.553 125.335C178.881 123.894 177.05 124.809 176.818 126.086C171.93 139.268 168.687 154.554 174.693 167.92C174.178 169.44 171.361 170.57 170.446 168.766C166.739 164.291 159.433 165.687 155.443 169.043C151.56 172.52 150.89 178.943 154.076 183.097C156.812 186.901 162.026 188.32 166.458 187.255C170.878 185.455 173.638 181.202 174.328 176.59C174.172 174.708 177.06 174.219 176.833 176.296C179.158 182.836 183.541 188.54 187.7 194.064C188.605 194.555 187.955 195.347 187.379 195.528C167.616 201.228 149.051 210.71 132.345 222.646C121.738 230.162 111.595 238.446 102.974 248.215C87.0745 265.55 75.5736 287.818 74.721 311.653C73.7611 334.426 81.656 356.742 93.0314 376.171C102.189 388.57 112.79 400.37 126.135 408.371C134.668 413.528 144.687 416.541 154.706 415.743C164.978 415.279 174.259 410.179 182.958 405.176C193.244 398.516 201.18 388.387 205.655 377.02C212.628 358.914 205.94 337.375 192.004 324.494C184.977 318.372 175.956 314.713 166.766 313.669C165.314 313.695 165.687 315.119 166.654 315.511C177.612 320.064 188.615 326.006 195.769 335.779C201.865 345.078 205.294 356.687 203.116 367.795C200.188 381.986 189.565 392.984 178.237 401.244C174.317 403.142 170.558 406.091 166.03 406.129C151.864 407.827 136.973 405.681 124.564 398.367C112.547 391.369 103.29 380.379 96.6087 368.316C84.7055 347.562 80.3607 322.759 84.0802 299.164C89.296 281.017 97.9525 263.672 110.644 249.585C120.902 238.083 133.469 228.665 147.305 221.894C158.146 216.448 168.659 210.14 180.258 206.381C185.705 204.58 191.556 203.203 197.303 204.251C198.132 204.525 199.483 204.549 199.652 205.63C194.872 207.779 189.588 208.541 184.594 210.076C183.328 210.205 183.285 211.516 184.324 211.85C188.599 212.679 192.971 213.158 197.183 214.293C198.008 214.522 197.745 215.236 197.138 215.571C189.393 220.115 182.733 226.452 177.663 233.852C176.25 236.661 172.731 235.521 170.234 235.278C168.079 231.819 168.012 226.709 164.315 224.196C160.52 220.92 154.334 221.037 150.673 224.473C147.031 227.859 145.801 233.737 148.133 238.199C150.457 242.734 156.366 245.119 161.116 243.05C163.892 241.557 167.118 240.633 170.279 241.156C171.787 241.24 173.147 242.917 172.285 244.376C169.049 250.948 166.87 258.315 167.6 265.703C168.065 271.576 170.834 276.899 173.809 281.862C174.691 283.268 177.185 281.83 176.583 280.322C175.311 276.657 176.832 272.744 179.08 269.815C183.641 263.962 189.598 259.058 196.635 256.529C196.708 256.844 196.77 257.189 196.624 257.497C192.104 267.451 187.598 277.881 187.351 288.981C187.198 293.487 188.346 298.116 191.11 301.741C193.273 304.804 195.226 308.608 198.895 310.055C200.423 310.807 202.62 309.466 201.932 307.684C200.219 302.269 200.277 295.251 205.355 291.619C208.482 289.816 211.702 288.112 215.018 286.675C235.442 284.676 256.157 283.975 276.14 278.951C286.665 274.973 296.284 267.951 302.264 258.314C309.576 247.338 312.095 234.065 313.462 221.19C317.022 220.993 320.378 219.864 323.449 218.112C359.67 233.907 386.574 265.858 403.245 300.986C417.508 330.705 425.657 363.086 429.285 395.78C432.838 437.454 428.292 480.251 412.79 519.294C402.825 544.506 388.658 568.062 371.084 588.717C350.615 610.275 326.065 627.401 301.222 643.49C299.751 645.069 303.084 645.389 304.13 645.015C318.103 642.116 330.489 634.443 343.145 628.21C361.575 619.027 378.751 607.593 395.674 595.918C435.687 566.887 469.325 527.4 486.084 480.439C498.41 435.976 502.614 388.747 494.422 343.136C489.936 324.194 486.354 304.914 485.699 285.402C485.528 274.654 486.092 263.675 489.642 253.437C492.296 245.131 497.6 237.386 505.308 233.063C506.831 232.201 505.605 229.471 503.954 230.195C491.681 236.471 481.003 246.439 475.368 259.15C470.612 269.678 469.372 281.471 470.202 292.881C475.796 328.908 480.798 365.371 478.949 401.921C471.783 470.404 438.101 534.839 389.179 582.792C388.971 581.636 390.822 580.938 391.497 580.05C405.287 565.573 414.837 547.676 422.914 529.557C434.67 512.08 445.839 493.829 452.374 473.7C462.462 440.786 469.035 406.289 466.887 371.751C465.419 347.288 459.36 322.971 448.086 301.147C428.679 261.989 403.537 226.116 379.517 189.717C369.367 170.389 365.148 147.795 368.761 126.184C376.382 109.194 397.699 101.361 415.163 106.123C426.296 109.821 435.103 119.621 437.403 131.179C438.274 138.647 432.68 144.753 427.329 149.139C426.859 149.488 425.626 150.481 425.735 149.399C428.21 144.986 428.542 139.019 424.956 135.072C421.647 129.862 414.247 129.353 409.122 131.806C402.198 135.811 403.362 146.214 408.323 151.239C412.401 154.163 417.652 156.553 422.775 155.389C433.546 151.779 442 140.566 439.867 128.901C437.293 117.209 428.542 107.157 417.03 103.625C405.183 99.4792 391.923 102.051 381.19 108.071C371.738 113.439 365.187 122.942 362.641 133.432C359.66 148.864 363.174 164.635 368.147 179.274C380.371 215.111 401.748 246.725 420.568 279.29C440.469 315.702 451.821 357.038 451.762 398.629C451.78 421.76 448.445 444.842 442.346 467.143C441.929 468.529 441.61 469.995 440.852 471.261C440.759 469.897 440.91 468.536 441.091 467.197C445.93 426.869 445.156 385.393 434.267 346.066C427.254 320.086 415.235 295.637 400.278 273.34C382.502 246.888 358.592 224.317 330.207 209.62C325.519 208.139 327.209 201.921 323.734 199.193C321.674 196.757 318.192 195.846 316.374 193.338C316.06 183.248 315.45 172.839 311.275 163.477C307.96 157.07 305.027 150.287 300.09 144.914C291.927 135.927 280.301 130.844 268.598 128.38C252.753 126.494 236.623 124.992 221.465 119.656C217.551 118.092 213.384 116.505 210.408 113.411C207.774 108.465 209.036 102.749 209.996 97.5641C209.522 96.0374 208.376 96.3012 207.23 96.9248L207.23 96.9246ZM245.736 163.869C248.588 162.412 251.544 161.264 254.812 161.151C264.449 159.874 274.388 159.722 283.819 162.358C298.159 165.969 309.853 178.08 312.804 192.582C313.973 195.739 309.024 195.623 307.082 196.575C303.922 189.606 301.619 181.636 295.384 176.554C287.406 169.649 276.635 166.973 266.316 166.356C257.494 167.77 248.684 170.178 239.689 169.784C238.93 169.754 236.754 169.608 237.294 168.425C240.15 167.083 242.884 165.327 245.736 163.869ZM232.13 243.757C234.542 243.067 237.305 241.078 239.73 242.819C249.888 248.046 261.8 250.771 273.105 248.086C279.656 246.629 285.469 243.101 291.333 239.992C298.29 234.794 302.402 226.828 306.36 219.319C307.404 217.745 309.116 219.796 309.408 220.935C305.565 234.45 295.729 246.584 282.376 251.634C276.628 253.456 270.902 256.363 264.691 255.748C254.449 255.388 243.09 254.879 234.839 248.022C233.949 246.805 231.517 245.518 232.13 243.757ZM317.415 317.051C315.905 317.833 314.433 318.688 313.006 319.593C305.84 324.137 301.078 331.564 297.163 338.906C292.643 347.88 291.818 358.678 295.258 368.163C297.274 375.149 302.996 380.459 309.237 383.828C320.025 389.231 333.204 379.14 334.194 367.977C334.671 366.671 333.277 364.158 331.898 365.839C329.645 369.997 325.916 373.748 321.168 374.736C314.261 375.039 309.676 368.657 308.888 362.392C307.384 352.372 315.235 344.053 322.735 338.648C333.635 335.108 345.7 336.225 356.336 340.22C376.77 347.992 388.699 368.138 397.209 387.098C412.794 420.557 411.876 459.265 402.749 494.359C396.242 519.788 385.977 544.133 373.94 567.424C366.708 578.341 358.969 588.944 351.79 599.889C350.757 601.074 352.467 601.769 353.22 600.673C362.923 593.608 369.952 583.651 376.897 574.017C383.721 564.054 390.15 553.777 395.954 543.19C408.516 511.467 417.584 478.021 419.666 443.859C421.649 410.622 415.51 376.272 398.094 347.571C387.799 333.028 374.834 319.143 357.628 313.046C344.385 308.468 329.694 310.679 317.415 317.051ZM311.27 406.363C310.654 406.682 310.053 407.03 309.445 407.4C303.907 412.106 298.922 417.919 296.589 424.926C294.247 432.16 296.861 439.97 301.134 445.919C304.801 450.564 311.155 452.053 316.805 452.048C330.269 448.11 344.964 444.001 358.86 448.298C366.324 450.439 372.445 456.268 375.356 463.404C375.049 464.139 374.427 463.476 374.002 463.194C367.068 457.191 358.976 451.862 349.693 450.662C341.736 449.76 333.249 452.145 327.247 457.499C323.453 461.34 324.01 467.947 328.316 471.24C340.316 477.297 352.22 484.929 359.66 496.433C368.882 512.496 368.971 532.245 363.755 549.628C359.57 563.578 352.917 576.741 344.794 588.788C343.453 590.17 344.372 587.147 344.912 586.812C352.383 572.538 353.178 554.171 343.775 540.562C338.326 534.032 331.592 527.982 323.23 525.691C313.194 522.967 302.347 527.835 295.895 535.561C290.229 542.433 293.301 552.311 298.204 558.64C302.007 563.791 310.062 568.062 315.759 563.181C320.718 561.395 323.098 556.112 323.283 551.165C324.017 546.585 320.003 542.918 316.454 540.74C316.071 540.474 314.301 539.661 315.431 539.188C320.492 537.405 325.804 540.232 329.448 543.682C332.889 547.031 335.983 550.858 338.199 555.12C339.933 560.895 340.48 567.024 340.531 573.02C337.869 585.754 334.021 598.377 327.821 609.857C324.163 616.545 319.264 622.797 312.617 626.719C311.043 627.627 312.916 630.487 314.389 629.241C334.869 615.317 350.23 595.361 364.079 575.148C373.389 556.371 381.461 536.842 386.858 516.559C391.354 498.954 394.175 480.376 390.64 462.336C388.767 451.892 383.616 442.439 378.498 433.303C368.353 421.564 356.468 410.521 341.713 404.959C331.963 401.418 320.564 401.516 311.27 406.363Z" fill="#916EAB" fill-opacity="0.7"/>
</g>
<defs>
<clipPath id="clip0_16_53">
<rect width="437.87" height="539.6" fill="white" transform="translate(0 201.229) rotate(-27.3589)"/>
</clipPath>
</defs>
</svg>
