<svg width="76" height="76" viewBox="0 0 76 76" fill="none" xmlns="http://www.w3.org/2000/svg">
<path d="M38 0C17.0129 0 0 17.0129 0 38C0 58.9871 17.0129 76 38 76C58.9871 76 76 58.9871 76 38C76 17.0129 58.9871 0 38 0ZM33.3098 62.0115C32.5286 62.7929 31.2617 62.7927 30.4806 62.011L24.0629 55.5879C23.2825 54.8067 23.2827 53.5409 24.0635 52.7601L37.412 39.4116C38.193 38.6306 38.193 37.3642 37.412 36.5832L24.0641 23.2353C23.2831 22.4543 23.2831 21.1879 24.0641 20.4069L30.4809 13.9902C31.2619 13.2091 32.5282 13.2091 33.3092 13.9901L55.9048 36.5833C56.6858 37.3643 56.6859 38.6306 55.905 39.4117L33.3098 62.0115Z" fill="#F57590"/>
</svg>
