<svg width="76" height="76" viewBox="0 0 76 76" fill="none" xmlns="http://www.w3.org/2000/svg">
<path d="M38 76C58.9871 76 76 58.9871 76 38C76 17.0129 58.9871 0 38 0C17.0129 0 0 17.0129 0 38C0 58.9871 17.0129 76 38 76ZM42.6904 13.9909C43.4716 13.2096 44.7383 13.2097 45.5193 13.9912L51.9367 20.4121C52.7173 21.1932 52.7172 22.4593 51.9363 23.2402L38.588 36.5884C37.807 37.3694 37.807 38.6358 38.588 39.4168L51.9361 52.7649C52.717 53.5458 52.7171 54.812 51.9363 55.5931L45.5193 62.0119C44.7382 62.7932 43.4717 62.7932 42.6906 62.012L20.0976 39.4167C19.3166 38.6357 19.3166 37.3695 20.0975 36.5885L42.6904 13.9909Z" fill="#DE8DBA"/>
</svg>
