<svg width="348" height="348" viewBox="0 0 348 348" fill="none" xmlns="http://www.w3.org/2000/svg">
<path d="M18 51C18 36.0883 30.0883 24 45 24H165C246.186 24 312 89.8141 312 171V291C312 305.912 299.912 318 285 318H165C83.8141 318 18 252.186 18 171V51Z" stroke="#FF83EE" stroke-width="6" stroke-linejoin="round"/>
<path fill-rule="evenodd" clip-rule="evenodd" d="M71.9947 37.6118C69.7561 42.0976 60.0377 54.6379 61.6293 69.6765C61.6966 71.235 61.9399 72.6729 62.3805 73.9477C63.1893 77.1789 64.5716 80.4965 66.6955 83.8502C39.9684 80.4902 24.4315 113.587 24.0979 114.305L22.9072 114.372C23.2798 114.761 23.6977 115.279 24.1485 115.854C24.5944 116.772 25.5518 118.018 26.8942 119.428C32.9165 127.233 43.8498 139.193 64.8245 133.471C52.8387 150.123 61.4867 169.083 67.8275 179.055C66.4321 187.935 67.6441 199.002 78.7781 209.812C49.9829 207.367 39.5883 244.575 39.5883 244.575C38.8105 245.547 42.5004 249.142 47.8397 252.733C56.445 260.38 71.3829 269.87 91.458 257.633C91.9326 257.43 92.4037 257.216 92.8734 256.992C92.6668 257.347 92.4358 257.71 92.2578 258.058C74.8787 292.027 115.137 315.071 115.137 315.071C115.176 315.123 115.232 315.149 115.287 315.181L115.24 316.478C115.299 316.207 115.376 315.961 115.441 315.698L115.423 316.222C116.136 315.624 116.913 314.976 117.652 314.367C118.745 313.649 120.09 312.541 121.566 311.116C132.398 301.967 143.267 290.547 137.642 269.438C156.826 282.173 175.953 269.797 186.152 260.696C196.22 263.593 209.274 263.484 221.663 249.7C222.061 249.366 222.453 249.022 222.841 248.669C222.742 249.071 222.622 249.485 222.548 249.871C215.327 287.53 260.31 297.788 260.31 297.788C260.361 297.825 260.423 297.835 260.484 297.852L260.798 299.11C260.779 298.832 260.785 298.573 260.774 298.302L260.901 298.81C261.418 298.027 261.984 297.179 262.523 296.377C263.371 295.368 264.353 293.911 265.372 292.112C273.212 280.163 280.455 266.026 269.201 247.449C300.207 256.739 317.231 217.861 318.303 215.332L320.235 215.267C319.97 215.226 319.728 215.16 319.471 215.111L319.698 215.104C319.285 214.658 318.823 214.076 318.311 213.4C317.865 212.525 316.975 211.342 315.78 210.01C309.562 201.734 298.113 188.718 276.246 195.445C289.509 173.279 269.862 148.931 265.125 143.577C272.837 137.181 277.788 130.145 278.459 129.168L280.362 129.508C280.111 129.412 279.888 129.297 279.646 129.195L279.868 129.235C279.551 128.713 279.214 128.046 278.846 127.277C278.582 126.327 277.941 124.984 277.033 123.431C272.573 114.032 263.923 98.9011 241.185 100.938C260.804 79.5137 239.698 46.4774 239.698 46.4774C239.65 46.2182 239.343 46.0317 238.832 45.9089L239.441 44.7948C234.607 45.6307 219.02 45.1156 208.25 55.4177C207.075 56.4049 206.101 57.462 205.37 58.5874C203.335 61.1858 201.576 64.3111 200.231 68.067C186.873 44.0227 151.785 50.9966 151.026 51.1507L150.265 50.2093C150.184 50.7492 150.031 51.4033 149.852 52.119C149.771 52.2848 149.693 52.4927 149.615 52.6979C139.696 51.7252 126.598 53.4435 116.8 69.7372C111.829 40.7543 73.4608 38.4073 73.4608 38.4073C73.2296 38.2925 72.9024 38.4319 72.501 38.7801L71.9948 37.6141L71.9947 37.6118ZM178.411 141.946C178.235 142.319 178.035 142.7 177.886 143.063C173.797 153.052 174.217 161.764 176.921 169.13C176.903 169.759 176.903 170.435 176.939 171.189C176.402 181.138 176.855 197.549 196.232 207.596C185.408 209.937 178.79 217.057 174.734 224.952C170.49 222.923 165.28 221.663 158.834 221.67C180.168 202.055 161.894 167.278 161.894 167.278C161.867 167.016 161.579 166.804 161.08 166.637L161.779 165.579C156.892 165.985 141.408 164.097 129.818 173.411C128.565 174.291 127.504 175.26 126.683 176.316C124.439 178.726 122.425 181.683 120.772 185.307C117.2 177.364 111.205 172.32 104.654 169.134C108.313 163.94 110.845 156.99 111.027 147.582C111.109 147.06 111.179 146.534 111.241 146.005C111.426 146.373 111.604 146.766 111.798 147.105C130.716 180.193 170.97 157.141 170.97 157.141C171.032 157.134 171.087 157.099 171.142 157.068L172.189 157.792C171.995 157.598 171.831 157.401 171.648 157.205L172.071 157.497C171.952 156.558 171.829 155.538 171.715 154.571C171.697 153.237 171.489 151.478 171.089 149.437C170.969 148.511 170.84 147.579 170.7 146.645C172.773 145.593 174.891 144.302 177.054 142.711C177.51 142.467 177.962 142.211 178.411 141.946ZM224.054 150.399C228.757 152.962 233.34 154.145 237.73 154.356C236.777 155.391 235.87 156.506 235.033 157.717C234.077 158.929 233.332 160.168 232.838 161.422C231.356 164.39 230.249 167.816 229.671 171.774C228.6 170.526 227.47 169.41 226.3 168.403C227.04 163.164 226.507 157.238 224.054 150.399Z" fill="#1C1C24" stroke="#00AA44" stroke-width="0.571664"/>
<path fill-rule="evenodd" clip-rule="evenodd" d="M97.959 120.989C54.5351 119.535 39.7114 149.572 27.1328 182.082C66.1707 179.349 98.4031 168.839 97.959 120.989Z" fill="#16502D" stroke="#2CA05A"/>
<path fill-rule="evenodd" clip-rule="evenodd" d="M106.076 95.119C103.167 51.7683 71.7933 40.0332 38.1855 30.78C44.8217 69.3467 58.5125 100.362 106.076 95.119Z" fill="#16502D" stroke="#2CA05A"/>
<path fill-rule="evenodd" clip-rule="evenodd" d="M160.811 106.449C201.891 92.2991 205.01 58.9484 205.148 24.0904C169.661 40.585 143.308 61.913 160.811 106.449Z" fill="#16502D" stroke="#2CA05A"/>
<path fill-rule="evenodd" clip-rule="evenodd" d="M108.998 236.221C65.5742 234.767 50.7504 264.804 38.1719 297.314C77.2098 294.581 109.442 284.071 108.998 236.221Z" fill="#16502D" stroke="#2CA05A"/>
<path fill-rule="evenodd" clip-rule="evenodd" d="M149.979 240.159C192.688 248.139 200.657 280.674 205.899 315.136C168.379 304.016 139.186 286.778 149.979 240.159Z" fill="#16502D" stroke="#2CA05A"/>
<path fill-rule="evenodd" clip-rule="evenodd" d="M231.016 170.794C263.164 141.567 293.911 154.857 324.547 171.485C293.03 194.681 261.662 207.545 231.016 170.794Z" fill="#16502D" stroke="#2CA05A"/>
<path fill-rule="evenodd" clip-rule="evenodd" d="M232.551 129.163C275.975 130.618 290.799 100.58 303.378 68.0706C264.34 70.8036 232.107 81.3133 232.551 129.163Z" fill="#16502D" stroke="#2CA05A"/>
<path fill-rule="evenodd" clip-rule="evenodd" d="M104.04 111.087C104.04 111.087 114.677 92.2906 115.392 81.8651C117.659 48.8043 77.5506 46.3361 77.5506 46.3361C75.4703 45.296 64.2594 67.8307 68.0902 77.6605C73.6153 91.8384 82.6729 100.961 103.199 105.621L104.04 111.087Z" fill="#F7FEEF" stroke="black" stroke-width="0.571664"/>
<path fill-rule="evenodd" clip-rule="evenodd" d="M103.792 110.659C103.792 110.659 125.564 116.745 135.45 113.358C166.799 102.616 153.186 61.1151 153.186 61.1151C153.338 58.7942 132.328 57.7586 124.756 65.1042C113.833 75.6989 104.832 87.0367 108.503 107.762L103.792 110.659Z" fill="#F7FEEF" stroke="black" stroke-width="0.571664"/>
<path fill-rule="evenodd" clip-rule="evenodd" d="M104.034 110.381C104.034 110.381 105.538 131.926 110.697 141.014C127.054 169.834 161.862 149.755 161.862 149.755C164.171 149.474 160.19 129.964 152.681 122.553C141.707 111.721 133.412 105.462 109.434 111.952L104.034 110.381Z" fill="#F7FEEF" stroke="black" stroke-width="0.571664"/>
<path fill-rule="evenodd" clip-rule="evenodd" d="M104.468 110.557C104.468 110.557 83.6243 116.217 75.7107 123.041C50.6153 144.683 77.0717 174.93 77.0717 174.93C77.7955 177.14 96.1917 169.467 101.973 160.642C109.426 149.265 115.452 134.129 104.327 116.261L104.468 110.557Z" fill="#F7FEEF" stroke="black" stroke-width="0.571664"/>
<path fill-rule="evenodd" clip-rule="evenodd" d="M104.43 110.966C104.43 110.966 91.2387 93.8639 81.909 89.1567C52.3229 74.2293 34.8073 112.569 34.8073 112.569C33.0411 114.082 46.643 127.502 57.189 127.789C72.3998 128.203 86.8009 126.724 99.066 109.618L104.43 110.966Z" fill="#F7FEEF" stroke="black" stroke-width="0.571664"/>
<path fill-rule="evenodd" clip-rule="evenodd" d="M103.603 109.415C46.4595 84.6968 72.6673 52.9418 76.2817 45.6457Z" fill="#ECFCEB"/>
<path fill-rule="evenodd" clip-rule="evenodd" d="M104.722 109.322C112.431 44.9005 145.976 59.8815 154.088 60.5783Z" fill="#ECFCEB"/>
<path fill-rule="evenodd" clip-rule="evenodd" d="M105.602 110.177C160.384 103.891 160.399 130.86 162.813 150.068Z" fill="#ECFCEB"/>
<path fill-rule="evenodd" clip-rule="evenodd" d="M103.551 110.335C125.04 167.595 86.9716 171.954 79.2157 174.517Z" fill="#ECFCEB"/>
<path fill-rule="evenodd" clip-rule="evenodd" d="M103.114 108.774C54.6121 151.868 39.4471 118.406 33.8386 112.503Z" fill="#ECFCEB"/>
<path fill-rule="evenodd" clip-rule="evenodd" d="M102.785 104.11C52.5028 75.8389 81.8128 67.7343 77.2656 46.9734Z" fill="#F7FEEF"/>
<path fill-rule="evenodd" clip-rule="evenodd" d="M108.696 105.383C122.641 44.6243 136.909 72.1893 154.527 60.3661Z" fill="#F7FEEF"/>
<path fill-rule="evenodd" clip-rule="evenodd" d="M106.374 110.975C166.744 117.203 148.023 135.214 162.915 150.324Z" fill="#F7FEEF"/>
<path fill-rule="evenodd" clip-rule="evenodd" d="M102.113 113.164C111.953 176.508 89.7242 154.964 77.5698 172.532Z" fill="#F7FEEF"/>
<path fill-rule="evenodd" clip-rule="evenodd" d="M99.2778 107.533C55.6914 143.373 56.6898 115.007 35.6639 112.171Z" fill="#F7FEEF"/>
<g opacity="0.8" filter="url(#filter0_f_828_5922)">
<path opacity="0.7" d="M132.983 127.798C124.279 124.101 119.532 115.183 106.343 117.402L93.7156 143.231C95.0956 133.734 103.658 124.403 95.3701 114.682C86.6637 105.617 76.4891 111.041 66.9032 110.655L94.5661 103.406C98.0164 95.4312 93.0195 85.0335 89.5997 75.0881L105.042 99.1572L130.439 85.6831C124.26 93.0177 110.828 98.2725 112.32 107.807L132.983 127.798Z" fill="#FFFF00"/>
<path d="M113.681 114.994L104.61 111.426C101.085 116.139 101.147 117.675 99.8194 120.442L100.41 110.713C99.6053 108.194 95.0796 108.493 90.3546 108.942L99.7899 106.497C101.52 107.383 101.388 102.959 98.3665 96.3873L103.608 104.605C107.177 105.854 109.895 102.534 112.783 100.127L106.587 107.651C108.995 112.357 111.336 113.601 113.681 114.994Z" fill="#BC5B14"/>
<path opacity="0.8" d="M103.417 110.087C104.411 110.087 105.217 109.246 105.217 108.209C105.217 107.172 104.411 106.331 103.417 106.331C102.423 106.331 101.617 107.172 101.617 108.209C101.617 109.246 102.423 110.087 103.417 110.087Z" fill="#610200"/>
</g>
<path fill-rule="evenodd" clip-rule="evenodd" d="M206.329 133.362C206.329 133.362 225.096 122.671 231.052 114.085C249.94 86.8563 216.762 64.1842 216.762 64.1842C215.509 62.225 194.334 75.8317 192.587 86.2358C190.067 101.242 193.17 113.717 208.408 128.237L206.329 133.362Z" fill="#F7FEEF" stroke="black" stroke-width="0.571664"/>
<path fill-rule="evenodd" clip-rule="evenodd" d="M206.337 132.867C206.337 132.867 221.914 149.25 232.139 151.407C264.564 158.246 274.141 115.633 274.141 115.633C275.46 113.718 257.949 102.062 247.682 104.49C232.874 107.991 219.334 113.115 211.867 132.794L206.337 132.867Z" fill="#F7FEEF" stroke="black" stroke-width="0.571664"/>
<path fill-rule="evenodd" clip-rule="evenodd" d="M206.687 132.752C206.687 132.752 196.938 152.025 196.71 162.472C195.989 195.603 236.169 196.196 236.169 196.196C238.296 197.138 244.874 178.344 242.224 168.132C238.35 153.207 234.435 143.582 210.519 136.868L206.687 132.752Z" fill="#F7FEEF" stroke="black" stroke-width="0.571664"/>
<path fill-rule="evenodd" clip-rule="evenodd" d="M206.969 133.126C206.969 133.126 186.17 127.305 175.877 129.111C143.237 134.836 150.457 174.367 150.457 174.367C149.946 176.636 169.676 179.473 179.162 174.857C191.392 168.907 204.322 158.996 203.925 137.952L206.969 133.126Z" fill="#F7FEEF" stroke="black" stroke-width="0.571664"/>
<path fill-rule="evenodd" clip-rule="evenodd" d="M206.726 133.457C206.726 133.457 204.162 112.012 198.563 103.189C180.805 75.2098 146.118 99.1579 146.118 99.1579C143.826 99.5522 148.63 118.046 157.539 123.697C170.389 131.846 183.513 137.956 202.811 129.552L206.726 133.457Z" fill="#F7FEEF" stroke="black" stroke-width="0.571664"/>
<path fill-rule="evenodd" clip-rule="evenodd" d="M206.812 131.702C170.407 81.1942 209.185 67.3546 216.027 62.9413Z" fill="#ECFCEB"/>
<path fill-rule="evenodd" clip-rule="evenodd" d="M207.82 132.195C247.45 80.8245 268.58 110.878 275.19 115.634Z" fill="#ECFCEB"/>
<path fill-rule="evenodd" clip-rule="evenodd" d="M208.137 133.38C258.401 156.054 244.595 179.221 236.825 196.952Z" fill="#ECFCEB"/>
<path fill-rule="evenodd" clip-rule="evenodd" d="M206.295 132.465C195.407 192.648 160.483 176.883 152.51 175.11Z" fill="#ECFCEB"/>
<path fill-rule="evenodd" clip-rule="evenodd" d="M206.72 130.901C142.987 143.054 147.111 106.548 145.32 98.6052Z" fill="#ECFCEB"/>
<path fill-rule="evenodd" clip-rule="evenodd" d="M208.827 126.727C180.135 76.684 209.458 84.7433 216.191 64.5852Z" fill="#F7FEEF"/>
<path fill-rule="evenodd" clip-rule="evenodd" d="M213.251 130.85C256.36 85.8194 254.487 116.802 275.675 115.676Z" fill="#F7FEEF"/>
<path fill-rule="evenodd" clip-rule="evenodd" d="M208.391 134.461C257.041 170.744 231.735 176.617 236.781 197.224Z" fill="#F7FEEF"/>
<path fill-rule="evenodd" clip-rule="evenodd" d="M203.611 134.158C179.602 193.596 171.553 163.705 152.113 172.563Z" fill="#F7FEEF"/>
<path fill-rule="evenodd" clip-rule="evenodd" d="M204.062 127.87C148.267 136.312 163.66 112.465 147.058 99.2555Z" fill="#F7FEEF"/>
<g opacity="0.8" filter="url(#filter1_f_828_5922)">
<path opacity="0.7" d="M222.622 162.543C217.042 154.908 217.535 144.817 205.072 139.965L180.993 155.674C187.045 148.226 199.179 144.601 197.043 132.006C194.212 119.76 182.695 119.204 174.661 113.961L202.131 121.911C209.18 116.831 210.217 105.341 212.377 95.0484L213.304 123.63L242.018 125.074C232.953 128.206 218.726 125.836 215.122 134.788L222.622 162.543Z" fill="#FFFF00"/>
<path d="M212.608 141.657L206.647 133.945C201.204 136.186 200.471 137.537 197.913 139.232L203.405 131.18C204.005 128.605 199.965 126.543 195.678 124.507L205.033 127.243C206.065 128.889 208.218 125.023 208.991 117.831L209.281 127.574C211.706 130.476 215.741 129.017 219.455 128.43L210.278 131.717C209.935 136.991 211.308 139.259 212.608 141.657Z" fill="#BC5B14"/>
<path opacity="0.8" d="M206.308 132.184C207.162 132.693 208.285 132.384 208.816 131.493C209.348 130.603 209.086 129.468 208.233 128.958C207.379 128.449 206.257 128.758 205.725 129.649C205.194 130.54 205.455 131.675 206.308 132.184Z" fill="#610200"/>
</g>
<path fill-rule="evenodd" clip-rule="evenodd" d="M122.454 229.247C122.454 229.247 133.091 210.45 133.806 200.025C136.073 166.964 95.9646 164.496 95.9646 164.496C93.8844 163.456 82.6735 185.99 86.5042 195.82C92.0294 209.998 101.087 219.121 121.613 223.781L122.454 229.247Z" fill="#F7FEEF" stroke="black" stroke-width="0.571664"/>
<path fill-rule="evenodd" clip-rule="evenodd" d="M122.206 228.818C122.206 228.818 143.978 234.905 153.864 231.517C185.213 220.775 171.601 179.275 171.601 179.275C171.752 176.954 150.742 175.918 143.17 183.264C132.248 193.859 123.246 205.196 126.917 225.922L122.206 228.818Z" fill="#F7FEEF" stroke="black" stroke-width="0.571664"/>
<path fill-rule="evenodd" clip-rule="evenodd" d="M122.448 228.54C122.448 228.54 123.953 250.086 129.111 259.174C145.468 287.994 180.276 267.914 180.276 267.914C182.585 267.633 178.604 248.123 171.095 240.712C160.121 229.881 151.826 223.621 127.848 230.111L122.448 228.54Z" fill="#F7FEEF" stroke="black" stroke-width="0.571664"/>
<path fill-rule="evenodd" clip-rule="evenodd" d="M122.882 228.717C122.882 228.717 102.038 234.376 94.1248 241.201C69.0293 262.843 95.4858 293.09 95.4858 293.09C96.2096 295.3 114.606 287.626 120.387 278.802C127.84 267.425 133.866 252.289 122.741 234.421L122.882 228.717Z" fill="#F7FEEF" stroke="black" stroke-width="0.571664"/>
<path fill-rule="evenodd" clip-rule="evenodd" d="M122.844 229.126C122.844 229.126 109.653 212.024 100.323 207.316C70.737 192.389 53.2214 230.729 53.2214 230.729C51.4551 232.242 65.0571 245.661 75.6031 245.948C90.8138 246.362 105.215 244.883 117.48 227.778L122.844 229.126Z" fill="#F7FEEF" stroke="black" stroke-width="0.571664"/>
<path fill-rule="evenodd" clip-rule="evenodd" d="M122.016 227.575C64.8726 202.856 91.0804 171.101 94.6948 163.805Z" fill="#ECFCEB"/>
<path fill-rule="evenodd" clip-rule="evenodd" d="M123.135 227.482C130.844 163.06 164.389 178.041 172.501 178.738Z" fill="#ECFCEB"/>
<path fill-rule="evenodd" clip-rule="evenodd" d="M124.015 228.337C178.797 222.051 178.812 249.02 181.226 268.228Z" fill="#ECFCEB"/>
<path fill-rule="evenodd" clip-rule="evenodd" d="M121.963 228.494C143.452 285.755 105.384 290.113 97.6278 292.676Z" fill="#ECFCEB"/>
<path fill-rule="evenodd" clip-rule="evenodd" d="M121.527 226.933C73.0252 270.028 57.8602 236.565 52.2517 230.663Z" fill="#ECFCEB"/>
<path fill-rule="evenodd" clip-rule="evenodd" d="M121.198 222.269C70.9159 193.999 100.226 185.894 95.6787 165.133Z" fill="#F7FEEF"/>
<path fill-rule="evenodd" clip-rule="evenodd" d="M127.109 223.543C141.054 162.784 155.322 190.349 172.94 178.526Z" fill="#F7FEEF"/>
<path fill-rule="evenodd" clip-rule="evenodd" d="M124.787 229.134C185.157 235.363 166.436 253.373 181.328 268.483Z" fill="#F7FEEF"/>
<path fill-rule="evenodd" clip-rule="evenodd" d="M120.526 231.324C130.366 294.668 108.137 273.124 95.9829 290.692Z" fill="#F7FEEF"/>
<path fill-rule="evenodd" clip-rule="evenodd" d="M117.692 225.693C74.1054 261.533 75.1038 233.166 54.0779 230.331Z" fill="#F7FEEF"/>
<g opacity="0.8" filter="url(#filter2_f_828_5922)">
<path opacity="0.7" d="M151.397 245.958C142.693 242.26 137.946 233.343 124.757 235.562L112.13 261.391C113.51 251.894 122.072 242.563 113.784 232.842C105.078 223.777 94.9031 229.201 85.3172 228.815L112.98 221.566C116.43 213.591 111.434 203.193 108.014 193.248L123.456 217.317L148.853 203.843C142.674 211.177 129.242 216.432 130.734 225.967L151.397 245.958Z" fill="#FFFF00"/>
<path d="M132.095 233.153L123.024 229.586C119.499 234.299 119.561 235.834 118.234 238.602L118.824 228.872C118.019 226.354 113.494 226.653 108.769 227.102L118.204 224.657C119.934 225.542 119.802 221.118 116.781 214.547L122.022 222.765C125.591 224.014 128.309 220.693 131.197 218.287L125.001 225.811C127.409 230.517 129.751 231.76 132.095 233.153Z" fill="#BC5B14"/>
<path opacity="0.8" d="M121.831 228.247C122.825 228.247 123.631 227.406 123.631 226.369C123.631 225.332 122.825 224.491 121.831 224.491C120.837 224.491 120.031 225.332 120.031 226.369C120.031 227.406 120.837 228.247 121.831 228.247Z" fill="#610200"/>
</g>
<path fill-rule="evenodd" clip-rule="evenodd" d="M233.922 229.567C233.922 229.567 252.781 219.041 258.812 210.508C277.939 183.445 244.961 160.483 244.961 160.483C243.725 158.513 222.432 171.934 220.593 182.322C217.941 197.306 220.935 209.808 236.045 224.46L233.922 229.567Z" fill="#F7FEEF" stroke="black" stroke-width="0.571664"/>
<path fill-rule="evenodd" clip-rule="evenodd" d="M233.933 229.072C233.933 229.072 249.366 245.591 259.572 247.838C291.936 254.961 301.886 212.433 301.886 212.433C303.221 210.53 285.813 198.721 275.526 201.059C260.687 204.43 247.103 209.434 239.463 229.047L233.933 229.072Z" fill="#F7FEEF" stroke="black" stroke-width="0.571664"/>
<path fill-rule="evenodd" clip-rule="evenodd" d="M234.284 228.96C234.284 228.96 224.367 248.146 224.048 258.591C223.036 291.715 263.209 292.66 263.209 292.66C265.327 293.621 272.071 274.885 269.51 264.651C265.767 249.692 261.936 240.033 238.08 233.11L234.284 228.96Z" fill="#F7FEEF" stroke="black" stroke-width="0.571664"/>
<path fill-rule="evenodd" clip-rule="evenodd" d="M234.563 229.336C234.563 229.336 213.816 223.334 203.508 225.049C170.819 230.488 177.692 270.08 177.692 270.08C177.161 272.344 196.865 275.354 206.392 270.822C218.673 264.979 231.69 255.183 231.478 234.136L234.563 229.336Z" fill="#F7FEEF" stroke="black" stroke-width="0.571664"/>
<path fill-rule="evenodd" clip-rule="evenodd" d="M234.317 229.666C234.317 229.666 231.941 208.199 226.419 199.327C208.908 171.193 174.012 194.836 174.012 194.836C171.717 195.21 176.358 213.746 185.217 219.474C197.995 227.736 211.066 233.96 230.436 225.726L234.317 229.666Z" fill="#F7FEEF" stroke="black" stroke-width="0.571664"/>
<path fill-rule="evenodd" clip-rule="evenodd" d="M234.418 227.911C198.458 177.086 237.355 163.587 244.236 159.234Z" fill="#ECFCEB"/>
<path fill-rule="evenodd" clip-rule="evenodd" d="M235.422 228.413C275.502 177.392 296.368 207.63 302.935 212.443Z" fill="#ECFCEB"/>
<path fill-rule="evenodd" clip-rule="evenodd" d="M235.729 229.601C285.793 252.715 271.783 275.76 263.858 293.422Z" fill="#ECFCEB"/>
<path fill-rule="evenodd" clip-rule="evenodd" d="M233.895 228.669C222.479 288.755 187.695 272.685 179.737 270.841Z" fill="#ECFCEB"/>
<path fill-rule="evenodd" clip-rule="evenodd" d="M234.334 227.109C170.497 238.703 174.941 202.235 173.22 194.276Z" fill="#ECFCEB"/>
<path fill-rule="evenodd" clip-rule="evenodd" d="M236.476 222.954C208.224 172.661 237.475 180.977 244.385 160.879Z" fill="#F7FEEF"/>
<path fill-rule="evenodd" clip-rule="evenodd" d="M240.865 227.115C284.367 182.465 282.223 213.43 303.42 212.49Z" fill="#F7FEEF"/>
<path fill-rule="evenodd" clip-rule="evenodd" d="M235.974 230.684C284.304 267.392 258.948 273.043 263.813 293.694Z" fill="#F7FEEF"/>
<path fill-rule="evenodd" clip-rule="evenodd" d="M231.196 230.339C206.666 289.564 198.88 259.603 179.363 268.291Z" fill="#F7FEEF"/>
<path fill-rule="evenodd" clip-rule="evenodd" d="M231.701 224.055C175.835 232.008 191.437 208.296 174.95 194.942Z" fill="#F7FEEF"/>
<g opacity="0.8" filter="url(#filter3_f_828_5922)">
<path opacity="0.7" d="M249.957 258.889C244.445 251.206 245.026 241.12 232.606 236.158L208.39 251.656C214.507 244.261 226.673 240.743 224.647 228.13C221.924 215.859 210.412 215.202 202.425 209.889L229.823 218.08C236.917 213.061 238.055 201.581 240.305 191.308L240.981 219.897L269.682 221.592C260.589 224.644 246.384 222.15 242.701 231.07L249.957 258.889Z" fill="#FFFF00"/>
<path d="M240.127 237.917L234.234 230.153C228.772 232.346 228.027 233.69 225.454 235.363L231.017 227.36C231.639 224.79 227.618 222.692 223.348 220.619L232.679 223.436C233.696 225.092 235.884 221.245 236.72 214.06L236.924 223.805C239.324 226.728 243.372 225.305 247.09 224.751L237.885 227.956C237.495 233.228 238.849 235.508 240.127 237.917Z" fill="#BC5B14"/>
<path opacity="0.8" d="M233.91 228.389C234.76 228.906 235.885 228.606 236.424 227.72C236.964 226.834 236.713 225.697 235.863 225.18C235.014 224.663 233.889 224.963 233.35 225.849C232.81 226.735 233.061 227.872 233.91 228.389Z" fill="#610200"/>
</g>
<defs>
<filter id="filter0_f_828_5922" x="64.9499" y="73.1347" width="69.9869" height="72.0501" filterUnits="userSpaceOnUse" color-interpolation-filters="sRGB">
<feFlood flood-opacity="0" result="BackgroundImageFix"/>
<feBlend mode="normal" in="SourceGraphic" in2="BackgroundImageFix" result="shape"/>
<feGaussianBlur stdDeviation="0.976705" result="effect1_foregroundBlur_828_5922"/>
</filter>
<filter id="filter1_f_828_5922" x="172.708" y="93.0951" width="71.2633" height="71.4011" filterUnits="userSpaceOnUse" color-interpolation-filters="sRGB">
<feFlood flood-opacity="0" result="BackgroundImageFix"/>
<feBlend mode="normal" in="SourceGraphic" in2="BackgroundImageFix" result="shape"/>
<feGaussianBlur stdDeviation="0.976705" result="effect1_foregroundBlur_828_5922"/>
</filter>
<filter id="filter2_f_828_5922" x="83.364" y="191.294" width="69.9869" height="72.0501" filterUnits="userSpaceOnUse" color-interpolation-filters="sRGB">
<feFlood flood-opacity="0" result="BackgroundImageFix"/>
<feBlend mode="normal" in="SourceGraphic" in2="BackgroundImageFix" result="shape"/>
<feGaussianBlur stdDeviation="0.976705" result="effect1_foregroundBlur_828_5922"/>
</filter>
<filter id="filter3_f_828_5922" x="200.471" y="189.354" width="71.1637" height="71.4884" filterUnits="userSpaceOnUse" color-interpolation-filters="sRGB">
<feFlood flood-opacity="0" result="BackgroundImageFix"/>
<feBlend mode="normal" in="SourceGraphic" in2="BackgroundImageFix" result="shape"/>
<feGaussianBlur stdDeviation="0.976705" result="effect1_foregroundBlur_828_5922"/>
</filter>
</defs>
</svg>
