<svg width="301" height="301" viewBox="0 0 301 301" fill="none" xmlns="http://www.w3.org/2000/svg">
<rect x="1" y="1" width="300" height="300" rx="43" fill="#99738E"/>
<g style="mix-blend-mode:luminosity">
<path d="M269.327 29.4242C269.248 29.4159 269.169 29.4095 269.089 29.4051C263.808 29.2969 259.172 33.3707 257.446 38.1727C257.204 39.4016 256.423 40.879 257.366 42.0129C258.943 42.3831 259.857 40.7016 260.688 39.6838C261.312 38.9714 262.194 37.6252 263.294 38.1491C263.8 38.6715 263.271 39.6053 263.024 40.1457C262.343 41.317 261.292 42.3419 261.073 43.7322C261.573 44.5619 262.669 44.1784 263.169 43.5551C264.143 42.7989 264.988 41.8725 266.014 41.1858C267.036 40.4952 268.458 42.2124 267.188 42.8795C266.606 43.6175 265.021 44.0404 265.408 45.2522C265.879 45.9679 267.053 45.6998 267.802 45.4911C272.09 43.7107 274.675 38.7572 274.021 34.2077C273.785 31.7557 271.776 29.6798 269.327 29.4242ZM243.474 30.2592C240.581 30.0181 237.748 32.4635 237.719 35.386C237.409 39.5431 239.997 43.7343 243.766 45.4409C244.509 45.7339 245.41 44.9814 244.956 44.2123C244.65 42.9379 243.468 41.5183 244.269 40.2281C244.88 39.3501 245.988 39.9415 246.42 40.6808C247.293 41.5983 247.751 42.9017 248.782 43.6544C249.533 44.0457 250.27 43.1632 249.905 42.45C249.595 40.756 247.887 39.2498 248.588 37.4522C248.776 37.038 249.462 36.1918 249.81 36.9167C251.132 38.1655 251.228 40.3199 252.834 41.3336C253.837 41.2059 253.954 39.9968 253.549 39.2539C252.261 35.6494 249.796 32.0596 246.055 30.7149C245.225 30.4178 244.347 30.3193 243.474 30.2589L243.474 30.2592ZM54.5861 20.3836C53.1556 20.2659 51.6882 20.5999 50.4794 21.4217C48.4205 22.6196 46.8096 24.7791 46.669 27.2059C46.8609 29.6444 47.1622 32.1971 48.4889 34.3155C49.3285 34.7838 50.0878 33.9125 50.1549 33.1146C50.4297 32.2587 50.3394 30.8132 51.4205 30.5872C52.65 31.4506 52.145 33.2058 51.8346 34.4035C51.6211 35.2683 51.4595 36.1887 51.7066 37.0649C52.5678 37.6405 53.5321 36.8586 53.795 36.0096C54.4543 34.8342 54.5508 33.4693 55.0652 32.2504C55.7405 31.0436 57.9286 32.5356 57.1752 33.6642C56.801 34.9963 55.2427 36.2613 55.9578 37.7488C56.4989 38.7301 57.7908 37.9203 58.2068 37.1867C59.5582 35.5409 60.7654 33.7086 61.2176 31.5904C62.04 28.414 61.2935 24.7817 58.8756 22.4732C57.7807 21.231 56.2073 20.517 54.5861 20.3836ZM36.3375 26.8953C35.6206 26.8451 34.8999 26.8681 34.189 26.9702C31.658 27.2138 29.5273 29.3471 29.3863 31.9026C29.2781 37.1832 33.352 41.8197 38.1539 43.5453C39.3828 43.7872 40.8603 44.5684 41.9941 43.6255C42.3643 42.0481 40.6828 41.1346 39.6652 40.3033C38.9528 39.6794 37.6067 38.7972 38.1305 37.6973C38.6529 37.1909 39.5867 37.7203 40.1271 37.9673C41.2985 38.6482 42.3234 39.6989 43.7137 39.9188C44.5433 39.4188 44.1598 38.3228 43.5365 37.8223C42.7804 36.8481 41.854 36.0032 41.1672 34.977C40.4766 33.9555 42.1939 32.5332 42.861 33.8032C43.5989 34.385 44.0218 35.9708 45.2336 35.5837C45.9494 35.1121 45.6813 33.9379 45.4726 33.1896C43.9703 29.5714 40.2092 27.1661 36.3377 26.8953L36.3375 26.8953ZM273.786 46.6878C271.347 46.8797 268.795 47.181 266.676 48.5078C266.208 49.3474 267.079 50.1067 267.877 50.1737C268.733 50.4485 270.179 50.3582 270.405 51.4394C269.541 52.6689 267.786 52.1639 266.588 51.8534C265.723 51.6399 264.803 51.4784 263.927 51.7255C263.351 52.5866 264.133 53.5509 264.982 53.8138C266.158 54.4732 267.522 54.5696 268.741 55.084C269.948 55.7593 268.456 57.9474 267.328 57.194C265.995 56.8199 264.73 55.2615 263.243 55.9767C262.262 56.5177 263.071 57.8097 263.805 58.2256C265.451 59.577 267.283 60.7843 269.401 61.2364C272.578 62.0589 276.21 61.3123 278.518 58.8944C280.857 56.8335 281.323 53.0768 279.57 50.4985C278.372 48.4396 276.212 46.8286 273.786 46.688L273.786 46.6878ZM70.1866 34.372C67.1612 34.1409 63.9292 34.8183 61.8364 37.131C61.0042 37.7437 61.5755 39.2246 62.6271 39.0088C63.4901 39.0826 64.6003 38.9229 65.2853 39.4318C63.8512 41.5748 60.5752 41.3186 59.1822 43.469C59.1708 43.5222 59.1622 43.5766 59.1622 43.6312C59.2892 44.6547 60.6115 44.6438 61.3198 44.2227C62.9304 43.7458 64.5189 42.8244 66.2471 43.0269C66.7057 43.1343 67.6117 43.5617 66.9974 44.0884C65.7528 45.5321 63.6085 45.1147 61.9588 45.71C60.9541 45.8607 59.474 46.338 59.6853 47.6396C61.1519 48.533 62.8954 47.7644 64.484 47.8834C67.8465 47.6278 71.7396 47.8641 74.4903 45.5417C77.5924 42.1544 75.7491 35.9443 71.4667 34.5245C71.0468 34.4566 70.6189 34.405 70.1866 34.372ZM244.713 51.5719C244.664 51.5653 244.615 51.5617 244.566 51.561C240.255 52.2566 235.936 54.9137 234.255 59.0901C232.967 63.0193 236.625 67.5072 240.732 67.0693C245.044 67.1033 249.126 64.0969 250.667 60.1324C250.856 59.209 249.575 58.5546 248.99 59.3455C247.73 60.1284 246.861 61.6665 245.397 61.995C244.493 61.4707 244.131 59.9552 245.174 59.4018C246.523 57.9214 248.742 57.2744 249.587 55.3328C249.557 54.3556 248.378 54.1563 247.719 54.6732C246.098 55.5227 244.961 57.1103 243.246 57.777C242.001 58.3075 241.389 56.0642 242.509 55.562C243.464 54.4246 245.366 53.8119 245.504 52.1581C245.399 51.8092 245.057 51.6181 244.713 51.5719ZM257.442 59.1861C257.415 59.1825 257.387 59.1801 257.36 59.1801C256.337 59.3071 256.348 60.6294 256.769 61.3377C257.245 62.9484 258.167 64.5368 257.964 66.265C257.857 66.7236 257.43 67.6296 256.903 67.0153C255.459 65.7707 255.877 63.6264 255.281 61.9767C255.131 60.972 254.653 59.4919 253.352 59.7032C252.458 61.1699 253.227 62.9133 253.108 64.5019C253.364 67.8644 253.127 71.7574 255.45 74.5082C258.837 77.6103 265.047 75.767 266.467 71.4846C267.01 68.1255 266.503 64.2462 263.86 61.8543C263.248 61.022 261.767 61.5934 261.983 62.645C261.909 63.508 262.069 64.6182 261.56 65.3032C259.417 63.8691 259.673 60.5931 257.522 59.2001C257.496 59.1944 257.469 59.1897 257.442 59.1861ZM40.186 47.2258C39.8579 47.2118 39.5135 47.2905 39.2349 47.4426C35.6305 48.7302 32.0407 51.195 30.6962 54.9361C30.399 55.7659 30.3005 56.6438 30.2402 57.5174C29.9991 60.4105 32.4447 63.2435 35.3669 63.2728C39.524 63.5823 43.7153 60.9944 45.4219 57.2254C45.7149 56.4827 44.9623 55.5813 44.1933 56.0353C42.9189 56.3414 41.4992 57.5236 40.2091 56.7222C39.331 56.1119 39.9225 55.0031 40.6617 54.5712C41.5792 53.6986 42.8826 53.2408 43.6354 52.209C44.0267 51.4588 43.1442 50.7215 42.4309 51.0867C40.737 51.396 39.2307 53.1048 37.4331 52.403C37.0189 52.2153 36.1727 51.5295 36.8977 51.1811C38.1464 49.8594 40.3008 49.763 41.3145 48.1575C41.2347 47.5302 40.7328 47.2492 40.186 47.2258ZM59.9438 50.3053C59.114 50.2924 58.585 51.4524 59.3265 52.0008C60.1094 53.2614 61.6475 54.1305 61.976 55.5937C61.4517 56.4983 59.9362 56.8601 59.3828 55.8173C57.9024 54.4682 57.2554 52.2488 55.3138 51.4042C54.3366 51.4343 54.1372 52.6126 54.6542 53.2718C55.5037 54.8926 57.0913 56.0301 57.7579 57.745C58.2885 58.9903 56.0451 59.6019 55.543 58.4824C54.4056 57.5273 53.7929 55.6246 52.1391 55.4869C51.7404 55.6076 51.5474 56.036 51.5418 56.4251C52.2373 60.7365 54.8942 65.055 59.0709 66.7357C63 68.0241 67.488 64.3664 67.05 60.2597C67.084 55.9474 64.0776 51.8647 60.1132 50.3241C60.0554 50.3123 59.9989 50.3063 59.9436 50.3054L59.9438 50.3053ZM240.785 234.04C237.173 233.677 233.524 237.03 233.921 240.752C233.887 245.064 236.893 249.147 240.858 250.687C241.781 250.876 242.436 249.595 241.645 249.01C240.862 247.75 239.324 246.881 238.995 245.417C239.52 244.513 241.035 244.151 241.588 245.194C243.069 246.543 243.716 248.762 245.657 249.607C246.635 249.577 246.834 248.399 246.317 247.739C245.468 246.119 243.88 244.981 243.213 243.266C242.683 242.021 244.926 241.409 245.428 242.529C246.566 243.484 247.178 245.387 248.832 245.524C249.231 245.404 249.424 244.975 249.429 244.586C248.734 240.275 246.077 235.956 241.9 234.275C241.532 234.155 241.159 234.077 240.785 234.04L240.785 234.04ZM265.877 237.749C265.786 237.743 265.695 237.739 265.604 237.738C261.447 237.429 257.256 240.017 255.549 243.786C255.256 244.528 256.009 245.43 256.778 244.976C258.052 244.67 259.472 243.487 260.762 244.289C261.64 244.899 261.048 246.008 260.309 246.44C259.392 247.313 258.088 247.77 257.336 248.802C256.944 249.552 257.827 250.29 258.54 249.924C260.234 249.615 261.74 247.906 263.538 248.608C263.952 248.796 264.798 249.482 264.073 249.83C262.825 251.152 260.67 251.248 259.656 252.854C259.784 253.857 260.993 253.974 261.736 253.568C265.341 252.281 268.93 249.816 270.275 246.075C270.572 245.245 270.67 244.367 270.731 243.494C270.964 240.691 268.677 237.945 265.877 237.749ZM41.7428 224.966C38.7122 224.79 35.4718 226.582 34.4958 229.526C33.952 232.885 34.4591 236.764 37.1022 239.156C37.7148 239.988 39.1957 239.417 38.98 238.366C39.0536 237.503 38.894 236.392 39.4029 235.707C41.546 237.141 41.2898 240.417 43.4401 241.81C43.4934 241.822 43.5478 241.83 43.6023 241.83C44.6259 241.703 44.6149 240.381 44.1939 239.673C43.717 238.062 42.7956 236.474 42.998 234.746C43.1055 234.287 43.5328 233.381 44.0595 233.995C45.5033 235.24 45.0859 237.384 45.6812 239.034C45.8318 240.039 46.3092 241.519 47.6107 241.307C48.5042 239.841 47.7356 238.097 47.8546 236.509C47.5989 233.146 47.8353 229.253 45.5128 226.502C44.4543 225.533 43.1203 225.046 41.7428 224.966ZM61.3703 233.943C60.9969 233.902 60.6158 233.9 60.2308 233.941C55.9186 233.907 51.8359 236.913 50.2952 240.878C50.1062 241.801 51.3871 242.456 51.972 241.665C53.2326 240.882 54.1017 239.344 55.5649 239.015C56.4695 239.54 56.8313 241.055 55.7885 241.608C54.4394 243.089 52.2201 243.736 51.3755 245.677C51.4055 246.655 52.5838 246.854 53.243 246.337C54.8639 245.488 56.0011 243.9 57.7163 243.233C58.9616 242.703 59.5732 244.946 58.4536 245.448C57.4986 246.586 55.5959 247.198 55.4582 248.852C55.5789 249.251 56.0072 249.444 56.3964 249.449C60.7078 248.754 65.0263 246.097 66.707 241.92C67.8746 238.36 64.9801 234.34 61.3703 233.943ZM239.834 252.942C238.736 252.871 237.571 253.209 236.478 253.127C233.116 253.383 229.223 253.146 226.472 255.469C223.37 258.856 225.213 265.066 229.496 266.486C232.855 267.03 236.734 266.523 239.126 263.879C239.958 263.267 239.387 261.786 238.335 262.002C237.472 261.928 236.362 262.088 235.677 261.579C237.111 259.436 240.387 259.692 241.78 257.542C241.792 257.488 241.8 257.434 241.8 257.379C241.673 256.356 240.351 256.367 239.643 256.788C238.032 257.265 236.444 258.186 234.715 257.984C234.257 257.876 233.351 257.449 233.965 256.922C235.21 255.479 237.354 255.896 239.004 255.301C240.008 255.15 241.489 254.673 241.277 253.371C240.819 253.092 240.334 252.975 239.834 252.942L239.834 252.942ZM260.603 256.948C260.025 256.89 259.464 256.972 258.967 257.385C258.597 258.962 260.279 259.876 261.297 260.707C262.009 261.331 263.355 262.213 262.831 263.313C262.309 263.82 261.375 263.29 260.835 263.043C259.663 262.362 258.638 261.312 257.248 261.092C256.419 261.592 256.802 262.688 257.425 263.188C258.181 264.162 259.108 265.007 259.795 266.033C260.485 267.055 258.768 268.477 258.101 267.207C257.363 266.626 256.94 265.04 255.728 265.427C255.012 265.898 255.281 267.073 255.489 267.821C257.27 272.109 262.223 274.694 266.773 274.04C269.304 273.797 271.434 271.663 271.575 269.108C271.684 263.827 267.61 259.191 262.808 257.465C262.117 257.329 261.347 257.022 260.603 256.948ZM29.743 239.478C27.0742 239.291 24.3244 240.152 22.4488 242.116C20.1104 244.177 19.644 247.934 21.3974 250.512C22.5953 252.571 24.7548 254.182 27.1816 254.323C29.6201 254.131 32.1728 253.83 34.2912 252.503C34.7595 251.663 33.8881 250.904 33.0903 250.837C32.2344 250.562 30.7889 250.652 30.5629 249.571C31.4263 248.342 33.1815 248.847 34.3792 249.157C35.244 249.371 36.1644 249.532 37.0406 249.285C37.6162 248.424 36.8343 247.46 35.9852 247.197C34.8099 246.537 33.4449 246.441 32.2261 245.927C31.0193 245.251 32.5113 243.063 33.6399 243.817C34.972 244.191 36.237 245.749 37.7245 245.034C38.7058 244.493 37.896 243.201 37.1624 242.785C35.5166 241.434 33.6842 240.226 31.566 239.774C30.9705 239.62 30.359 239.521 29.743 239.478L29.743 239.478ZM244.332 262.81C243.747 262.779 243.047 263.32 242.761 263.824C241.409 265.47 240.202 267.302 239.75 269.42C238.928 272.597 239.674 276.229 242.092 278.538C244.153 280.876 247.91 281.342 250.488 279.588C252.547 278.391 254.158 276.231 254.298 273.805C254.107 271.366 253.805 268.814 252.478 266.695C251.639 266.227 250.88 267.098 250.813 267.896C250.538 268.752 250.628 270.197 249.547 270.423C248.317 269.56 248.822 267.805 249.133 266.607C249.346 265.742 249.508 264.822 249.261 263.946C248.4 263.37 247.435 264.152 247.172 265.001C246.513 266.176 246.417 267.541 245.902 268.76C245.227 269.967 243.039 268.475 243.792 267.346C244.166 266.014 245.725 264.749 245.01 263.262C244.84 262.955 244.598 262.823 244.332 262.81L244.332 262.81ZM56.919 255.507C56.2551 255.465 55.6145 256.125 56.0118 256.798C56.3179 258.073 57.5001 259.492 56.6987 260.783C56.0884 261.66 54.9796 261.069 54.5477 260.33C53.6751 259.412 53.2173 258.109 52.1855 257.356C51.4352 256.965 50.698 257.847 51.0632 258.561C51.3725 260.255 53.0813 261.761 52.3795 263.558C52.1919 263.973 51.506 264.819 51.1576 264.094C49.8359 262.845 49.7395 260.691 48.1342 259.677C47.1306 259.805 47.0138 261.014 47.4193 261.757C48.7069 265.361 51.1718 268.951 54.9129 270.295C55.7426 270.593 56.6206 270.691 57.4942 270.751C60.3873 270.993 63.2203 268.547 63.2496 265.625C63.5591 261.468 60.9712 257.276 57.2022 255.57C57.1093 255.533 57.0141 255.513 56.9193 255.507L56.919 255.507ZM34.6327 255.297C34.1431 255.266 33.5874 255.402 33.1665 255.52C28.8781 257.3 26.2935 262.253 26.9472 266.803C27.1908 269.334 29.3241 271.465 31.8796 271.606C37.1602 271.714 41.7967 267.64 43.5224 262.838C43.7642 261.609 44.5454 260.132 43.6025 258.998C42.0251 258.628 41.1116 260.309 40.2803 261.327C39.6564 262.039 38.7742 263.386 37.6743 262.862C37.1679 262.339 37.6973 261.405 37.9443 260.865C38.6252 259.694 39.6759 258.669 39.8958 257.279C39.3958 256.449 38.2998 256.832 37.7993 257.456C36.8251 258.212 35.9802 259.138 34.954 259.825C33.9326 260.516 32.5102 258.798 33.7802 258.131C34.362 257.393 35.9478 256.97 35.5607 255.759C35.3544 255.445 35.0135 255.32 34.6327 255.297Z" fill="#FF7F7D"/>
<path d="M211.667 19.6325C211.553 19.6197 211.439 19.6105 211.324 19.6052C208.474 19.6447 206.541 22.4001 206.152 24.9976C205.863 27.7393 206.198 30.6448 207.456 33.1259C207.78 33.813 208.331 34.6997 209.182 34.2097C210.264 33.563 210.536 32.1934 211.064 31.1364C211.203 30.8415 211.295 29.8153 211.639 30.5027C212.513 31.7358 213.122 33.599 214.827 33.9291C216.676 33.378 216.785 31.0886 217.094 29.5207C217.593 26.2739 216.887 22.3126 213.926 20.4191C213.243 19.9937 212.467 19.7225 211.667 19.6328L211.667 19.6325ZM172.771 18.6598C172.667 18.6499 172.561 18.6422 172.456 18.6365C168.618 18.4559 165.467 22.2107 165.68 25.9201C165.29 29.8602 168.056 33.6545 171.756 34.8723C173.417 35.6085 175.198 36.401 177.061 36.1553C178.055 34.8828 176.883 33.3576 176.967 31.9635C176.921 31.3648 176.783 30.5194 176.918 30.0872C177.729 30.8541 178.89 31.9884 180.095 31.334C181.321 29.1895 180.9 26.5111 180.127 24.2893C178.908 21.289 176.022 18.9671 172.772 18.66L172.771 18.6598ZM186.25 71.0102C183.366 70.7603 180.264 72.4696 179.238 75.2267C179.011 78.742 182.096 81.6021 185.299 82.414C187.276 82.685 189.809 83.1443 191.348 81.5042C192.113 80.4345 191.122 79.0881 190.18 78.5015C189.703 78.0119 188.658 77.6922 188.678 76.9346C189.264 75.6783 190.776 75.116 191.347 73.8448C191.665 72.6495 190.384 71.9169 189.414 71.6673C188.4 71.292 187.328 71.0807 186.25 71.0102ZM28.8896 83.8233C25.7724 83.4999 22.1796 84.2943 20.4043 87.0698C19.9181 87.8511 19.6334 88.7524 19.5906 89.6723C19.6301 92.522 22.3855 94.4548 24.9831 94.8436C27.7248 95.1327 30.6303 94.7984 33.1113 93.5403C33.7985 93.2161 34.6852 92.6649 34.1951 91.8136C33.5484 90.7318 32.1788 90.46 31.1219 89.9315C30.827 89.7928 29.8008 89.7005 30.4882 89.3569C31.7213 88.4834 33.5844 87.8742 33.9146 86.1692C33.3634 84.3195 31.0741 84.2104 29.5062 83.9023C29.3033 83.8711 29.0975 83.8448 28.8896 83.8233ZM80.8655 109.391C79.9417 109.253 78.9636 110.05 78.487 110.816C77.9974 111.292 77.6777 112.337 76.9201 112.317C75.6638 111.732 75.1016 110.219 73.8303 109.649C72.635 109.331 71.9024 110.611 71.6529 111.581C71.2775 112.596 71.0664 113.667 70.9959 114.746C70.746 117.63 72.4553 120.732 75.2124 121.758C78.7279 121.985 81.5878 118.899 82.3996 115.697C82.6707 113.72 83.13 111.187 81.4898 109.648C81.2893 109.504 81.0789 109.423 80.8658 109.391L80.8655 109.391ZM28.7325 120.148C27.229 120.04 25.6618 120.386 24.2732 120.869C21.1761 122.126 18.8021 125.162 18.6205 128.54C18.44 132.378 22.1948 135.529 25.9042 135.315C29.8443 135.706 33.6386 132.939 34.8563 129.239C35.5925 127.579 36.3851 125.797 36.1393 123.934C34.8669 122.941 33.3417 124.112 31.9476 124.029C31.3488 124.074 30.5034 124.212 30.0712 124.078C30.8382 123.266 31.9725 122.105 31.3181 120.901C30.5139 120.441 29.6349 120.213 28.7327 120.148L28.7325 120.148ZM276.111 165.719C275.766 165.682 275.418 165.672 275.07 165.692C271.13 165.302 267.336 168.068 266.118 171.769C265.382 173.429 264.589 175.21 264.835 177.073C266.107 178.067 267.632 176.895 269.027 176.979C269.625 176.933 270.471 176.796 270.903 176.93C270.136 177.741 269.002 178.903 269.656 180.107C271.801 181.333 274.479 180.912 276.701 180.139C279.798 178.881 282.172 175.846 282.354 172.468C282.517 168.99 279.449 166.076 276.111 165.719L276.111 165.719ZM225.763 179.25C222.248 179.024 219.388 182.109 218.576 185.311C218.305 187.288 217.846 189.821 219.486 191.36C220.555 192.125 221.902 191.135 222.488 190.192C222.978 189.716 223.298 188.671 224.055 188.691C225.312 189.276 225.874 190.789 227.145 191.359C228.34 191.677 229.073 190.397 229.323 189.426C229.698 188.412 229.909 187.341 229.98 186.262C230.229 183.378 228.52 180.276 225.763 179.25ZM275.479 206.118C272.891 205.921 270.192 206.289 267.866 207.468C267.179 207.792 266.292 208.343 266.782 209.195C267.429 210.277 268.799 210.548 269.856 211.077C270.151 211.216 271.177 211.308 270.489 211.651C269.256 212.525 267.393 213.134 267.063 214.839C267.614 216.689 269.903 216.798 271.471 217.106C274.718 217.606 278.679 216.899 280.573 213.939C281.059 213.157 281.344 212.256 281.387 211.336C281.347 208.486 278.592 206.554 275.994 206.165C275.823 206.147 275.651 206.131 275.479 206.118ZM113.71 218.355C112.216 218.242 110.688 218.377 109.63 219.505C108.865 220.574 109.855 221.921 110.798 222.507C111.275 222.997 112.32 223.317 112.299 224.074C111.714 225.331 110.202 225.893 109.631 227.164C109.313 228.359 110.594 229.092 111.564 229.341C112.578 229.717 113.65 229.928 114.728 229.998C117.612 230.248 120.714 228.539 121.74 225.782C121.967 222.266 118.882 219.406 115.679 218.595C115.062 218.51 114.389 218.407 113.71 218.355L113.71 218.355ZM124.956 264.819C124.613 264.799 124.266 264.809 123.917 264.855C122.923 266.128 124.095 267.653 124.011 269.047C124.057 269.646 124.195 270.491 124.06 270.923C123.249 270.157 122.088 269.022 120.883 269.677C119.657 271.821 120.078 274.499 120.851 276.721C122.109 279.818 125.144 282.192 128.522 282.374C132.36 282.554 135.511 278.8 135.298 275.09C135.688 271.15 132.922 267.356 129.221 266.138C127.873 265.54 126.444 264.905 124.956 264.819L124.956 264.819ZM92.3801 266.667C92.2037 266.642 92.0094 266.679 91.7966 266.801C90.7148 267.448 90.443 268.817 89.9145 269.874C89.7759 270.169 89.6836 271.196 89.34 270.508C88.4664 269.275 87.8572 267.412 86.1522 267.082C84.3026 267.633 84.1935 269.922 83.8854 271.49C83.3855 274.737 84.0921 278.698 87.0527 280.592C87.834 281.078 88.7354 281.363 89.6552 281.405C92.5049 281.366 94.4377 278.611 94.8265 276.013C95.1156 273.271 94.7813 270.366 93.5232 267.885C93.28 267.37 92.9095 266.742 92.3801 266.667Z" fill="#FF0000"/>
<path d="M153.551 28.9786C152.648 28.9402 151.641 29.2247 150.799 29.2441C144.004 30.1521 136.912 33.0113 132.93 38.8667C131.788 40.6832 130.912 42.7148 130.758 44.8754C130.687 46.1866 132.484 46.7105 133.326 45.8246C137.574 43.114 140.524 38.422 145.232 36.6009C145.662 36.3819 146.395 36.2671 145.974 36.9374C141.945 41.4397 136.806 44.8284 132.606 49.1835C133.676 50.7581 135.706 50.2718 137.267 50.0194C143.928 48.9714 149.13 43.7584 152.303 38.0865C153.753 35.5717 155.145 32.8815 155.341 29.9305C154.893 29.2334 154.254 29.0085 153.551 28.9786ZM107.627 28.4909C105.641 28.3157 103.629 28.3988 101.78 29.1169C101.367 29.4121 101.058 29.8748 101.018 30.389C102.332 37.1334 107.239 42.7899 113.184 46.0331C116.397 47.8707 120.126 49.0264 123.855 48.6169C123.938 46.1023 121.525 44.703 119.945 43.16C116.76 40.4932 112.839 38.7283 109.76 36.0077C109.692 35.4294 110.281 34.5828 110.795 35.2973C115.901 38.2719 120.242 42.5822 125.656 45.0344C126.914 45.1159 127.32 43.4952 126.72 42.6014C124.179 35.557 117.558 30.3278 110.298 28.8543C109.425 28.7032 108.529 28.5703 107.626 28.4906L107.627 28.4909ZM133.898 51.8767C132.622 52.2169 132.599 53.9521 133.476 54.7202C136.519 59.1564 140.79 62.8292 142.983 67.779C142.606 68.6629 142.145 67.2475 141.73 66.9967C138.201 62.8939 135.3 58.0422 130.817 54.8932C130.024 54.6667 129.149 55.291 129.099 56.1123C130.43 63.3954 135.514 69.5176 141.437 73.703C143.6 75.2013 145.981 76.4147 148.533 77.0861C150.501 69.8258 147.274 62.0523 142.091 56.9288C139.785 54.6621 136.984 52.8718 133.898 51.877L133.898 51.8767ZM162.651 67.4916C161.074 67.556 160.823 69.5078 161.113 70.7101C161.599 80.0862 166.257 89.2621 173.831 94.8823C175.182 94.858 175.597 93.1467 174.881 92.1932C172.767 87.0544 169.6 82.4338 167.781 77.1827C171.745 82.8381 174.556 89.2291 178.525 94.8572C179.747 95.5859 181.088 94.1944 180.891 92.9473C181.536 81.6157 173.201 70.943 162.651 67.4926L162.651 67.4916ZM199.104 92.7507C198.816 92.7245 198.528 92.7024 198.24 92.6837C194.331 92.4702 189.978 93.3705 187.335 96.483C187.973 98.0026 189.802 97.7755 191.094 97.4692C194.508 97.3859 197.988 96.5171 201.317 96.8458C199.429 98.2884 196.882 98.3029 194.677 98.9109C191.958 99.5107 189.003 99.8636 186.624 101.366C185.738 102.526 187.213 103.915 188.425 103.771C192.765 104.303 197.397 104.331 201.344 102.181C204.131 100.883 206.688 98.9624 208.42 96.3947C208.296 94.6774 206.33 94.391 205.004 94.0977C203.131 93.3171 201.12 92.9345 199.104 92.7507ZM270.611 101.032C263.867 102.346 258.21 107.253 254.967 113.198C253.129 116.411 251.974 120.141 252.383 123.869C254.898 123.953 256.297 121.54 257.84 119.959C260.507 116.775 262.272 112.853 264.992 109.774C265.571 109.706 266.417 110.296 265.703 110.809C262.728 115.915 258.418 120.257 255.966 125.671C255.884 126.929 257.505 127.334 258.399 126.735C265.443 124.193 270.672 117.572 272.146 110.313C272.629 107.519 272.928 104.484 271.884 101.795C271.588 101.381 271.126 101.072 270.611 101.032L270.611 101.032ZM172.355 97.7577C172.084 97.737 171.813 97.7169 171.542 97.6953C166.535 97.409 161.597 99.8707 158.607 103.859C155.694 107.37 153.761 111.567 152.228 115.832C152.619 117.51 154.626 117.319 155.907 117.412C162.631 118.177 169.749 116.078 174.573 111.235C176.732 109.115 178.207 106.392 179.253 103.594C179.575 102.525 178.551 101.377 177.441 101.825C174.99 102.352 173.358 104.461 171.12 105.46C168.322 107.1 165.613 109.23 162.599 110.241C161.898 109.458 163.006 108.757 163.61 108.428C167.685 105.372 172.624 103.591 176.624 100.453C177.297 99.2446 175.984 97.9973 174.785 98.0247C173.981 97.8882 173.168 97.8199 172.355 97.7577ZM96.3827 92.5796C94.6655 92.7034 94.3787 94.6693 94.0854 95.9956C93.1934 98.1358 92.8213 100.457 92.6714 102.759C92.4578 106.669 93.3581 111.022 96.4706 113.665C97.9902 113.026 97.7634 111.198 97.4572 109.906C97.3739 106.492 96.5048 103.012 96.8334 99.6826C98.2761 101.57 98.2905 104.117 98.8985 106.323C99.4983 109.042 99.8512 111.996 101.354 114.376C102.514 115.262 103.903 113.786 103.759 112.574C104.29 108.234 104.319 103.603 102.169 99.6557C100.871 96.8687 98.9505 94.3119 96.3827 92.5796ZM244.886 129.113C237.603 130.444 231.481 135.528 227.296 141.452C225.797 143.614 224.584 145.996 223.912 148.548C231.173 150.515 238.946 147.288 244.07 142.106C246.337 139.799 248.126 136.998 249.122 133.913C248.781 132.636 247.047 132.613 246.279 133.49C241.842 136.533 238.169 140.805 233.22 142.997C232.336 142.621 233.751 142.159 234.002 141.745C238.105 138.215 242.956 135.314 246.105 130.831C246.332 130.039 245.708 129.163 244.886 129.113ZM256.12 130.773C254.809 130.702 254.286 132.498 255.171 133.34C257.882 137.589 262.574 140.539 264.395 145.246C264.614 145.676 264.729 146.409 264.059 145.989C259.556 141.96 256.168 136.82 251.813 132.621C250.238 133.69 250.724 135.721 250.976 137.282C252.024 143.942 257.238 149.145 262.909 152.318C265.424 153.767 268.114 155.16 271.065 155.356C272.659 154.331 271.786 152.31 271.752 150.814C270.844 144.019 267.985 136.927 262.129 132.944C260.313 131.803 258.281 130.927 256.12 130.773ZM93.402 120.103C93.246 120.083 93.0877 120.083 92.9318 120.108C81.6002 119.463 70.9274 127.798 67.4771 138.348C67.5416 139.925 69.4933 140.177 70.6956 139.886C80.0718 139.401 89.2477 134.742 94.8679 127.169C94.8435 125.818 93.1323 125.403 92.1788 126.118C87.04 128.233 82.4194 131.4 77.1683 133.218C82.8236 129.255 89.2146 126.443 94.8428 122.474C95.4804 121.406 94.495 120.245 93.4031 120.103L93.402 120.103ZM103.378 121.703C102.373 121.554 101.39 122.519 101.81 123.56C102.338 126.011 104.447 127.643 105.446 129.881C107.086 132.679 109.215 135.388 110.227 138.402C109.444 139.103 108.742 137.995 108.413 137.391C105.358 133.316 103.577 128.377 100.439 124.376C99.2304 123.703 97.9826 125.016 98.01 126.216C97.8281 127.287 97.7669 128.376 97.6806 129.458C97.3942 134.466 99.856 139.404 103.845 142.393C107.355 145.306 111.553 147.24 115.817 148.772C117.496 148.382 117.304 146.375 117.398 145.094C118.162 138.369 116.064 131.252 111.22 126.427C109.101 124.268 106.378 122.794 103.579 121.748C103.512 121.728 103.445 121.713 103.378 121.703ZM185.165 152.24C183.486 152.631 183.678 154.637 183.584 155.918C182.82 162.643 184.919 169.76 189.762 174.584C191.881 176.744 194.604 178.218 197.403 179.264C198.472 179.586 199.62 178.562 199.172 177.452C198.644 175.001 196.535 173.369 195.537 171.132C193.897 168.333 191.767 165.624 190.756 162.611C191.539 161.91 192.24 163.017 192.569 163.621C195.625 167.696 197.406 172.635 200.543 176.636C201.752 177.309 202.999 175.996 202.972 174.796C203.154 173.725 203.215 172.636 203.302 171.554C203.588 166.546 201.126 161.609 197.137 158.619C193.627 155.706 189.429 153.772 185.165 152.24ZM231.554 161.036C231.112 160.997 230.663 161.035 230.287 161.126C220.911 161.611 211.735 166.27 206.115 173.843C206.139 175.194 207.85 175.609 208.804 174.894C213.943 172.779 218.563 169.612 223.814 167.794C218.159 171.758 211.768 174.569 206.14 178.538C205.411 179.759 206.803 181.101 208.05 180.904C219.382 181.549 230.054 173.213 233.505 162.663C233.46 161.579 232.524 161.121 231.552 161.036L231.554 161.036ZM29.9171 145.656C28.3238 146.682 29.1958 148.702 29.2303 150.198C30.1383 156.993 32.9975 164.085 38.8529 168.068C40.6693 169.209 42.7014 170.085 44.862 170.239C46.1732 170.31 46.6971 168.514 45.8112 167.672C43.1006 163.424 38.4082 160.473 36.5874 155.766C36.3683 155.336 36.2535 154.603 36.9238 155.023C41.4261 159.052 44.8149 164.192 49.1699 168.391C50.7444 167.322 50.2586 165.291 50.0062 163.73C48.9582 157.07 43.7447 151.867 38.073 148.694C35.5582 147.245 32.8681 145.853 29.9171 145.656ZM74.3322 151.964C67.9104 151.334 61.3985 154.372 56.9154 158.907C54.6487 161.213 52.8584 164.014 51.8636 167.1C52.2037 168.376 53.9386 168.399 54.7066 167.522C59.1428 164.479 62.8159 160.208 67.7656 158.015C68.6495 158.391 67.2337 158.853 66.983 159.267C62.8801 162.797 58.0285 165.698 54.8795 170.181C54.653 170.974 55.2773 171.848 56.0986 171.899C63.3817 170.568 69.5039 165.484 73.6891 159.56C75.1873 157.398 76.401 155.017 77.0724 152.465C76.1649 152.219 75.2495 152.054 74.3322 151.964ZM198.966 186.368C198.004 186.293 197.109 187.452 197.226 188.437C196.695 192.777 196.667 197.409 198.817 201.356C200.115 204.143 202.035 206.699 204.603 208.431C206.32 208.308 206.607 206.342 206.9 205.015C207.792 202.875 208.164 200.554 208.314 198.252C208.527 194.342 207.627 189.989 204.515 187.347C202.995 187.985 203.222 189.813 203.528 191.105C203.612 194.519 204.48 197.999 204.152 201.328C202.709 199.441 202.695 196.894 202.087 194.689C201.487 191.969 201.134 189.015 199.632 186.635C199.414 186.469 199.189 186.386 198.967 186.369L198.966 186.368ZM43.7717 174.018C43.3602 173.968 42.9227 174.052 42.5875 174.276C35.5432 176.818 30.3139 183.439 28.8405 190.698C28.357 193.492 28.0583 196.528 29.1027 199.217C29.398 199.63 29.8611 199.939 30.3752 199.979C37.1197 198.665 42.7759 193.758 46.0191 187.813C47.8567 184.6 49.0125 180.871 48.6029 177.142C46.0883 177.059 44.689 179.471 43.146 181.052C40.4792 184.236 38.7145 188.158 35.9937 191.237C35.4154 191.305 34.5688 190.715 35.2833 190.202C38.2578 185.096 42.5682 180.755 45.0204 175.34C45.0712 174.554 44.4576 174.101 43.7717 174.018ZM146.42 183.668C145.95 183.629 145.478 183.628 145.078 183.598C138.354 182.834 131.236 184.933 126.412 189.776C124.253 191.895 122.778 194.619 121.732 197.417C121.41 198.486 122.435 199.634 123.545 199.186C125.996 198.659 127.627 196.549 129.865 195.551C132.663 193.911 135.372 191.781 138.386 190.77C139.087 191.553 137.979 192.254 137.376 192.583C133.3 195.639 128.361 197.42 124.361 200.557C123.688 201.766 125 203.014 126.2 202.987C127.272 203.168 128.361 203.23 129.443 203.316C134.451 203.602 139.388 201.141 142.378 197.152C145.291 193.641 147.224 189.444 148.757 185.179C148.488 184.025 147.456 183.755 146.42 183.669L146.42 183.668ZM110.92 197.067C107.073 196.735 103.095 196.949 99.6412 198.83C96.8542 200.128 94.2974 202.048 92.5651 204.616C92.6889 206.333 94.6553 206.62 95.9815 206.913C98.1217 207.805 100.443 208.177 102.745 208.327C106.655 208.541 111.008 207.641 113.65 204.528C113.012 203.009 111.184 203.235 109.892 203.542C106.478 203.625 102.998 204.494 99.6686 204.165C101.556 202.723 104.103 202.708 106.308 202.1C109.027 201.5 111.982 201.148 114.362 199.645C115.247 198.485 113.772 197.096 112.56 197.24C112.017 197.173 111.47 197.114 110.92 197.067ZM127.154 206.13C125.803 206.154 125.388 207.865 126.103 208.819C128.218 213.958 131.385 218.578 133.203 223.829C129.24 218.174 126.428 211.783 122.46 206.155C121.238 205.426 119.897 206.818 120.094 208.065C119.448 219.396 127.784 230.069 138.334 233.519C139.911 233.455 140.162 231.503 139.872 230.301C139.386 220.925 134.728 211.749 127.154 206.129L127.154 206.13ZM152.451 223.924C150.484 231.185 153.711 238.958 158.893 244.082C161.2 246.349 164 248.139 167.086 249.134C168.363 248.794 168.385 247.059 167.508 246.291C164.466 241.855 160.194 238.181 158.002 233.232C158.378 232.348 158.839 233.764 159.254 234.014C162.783 238.117 165.684 242.969 170.167 246.118C170.96 246.344 171.835 245.72 171.885 244.899C170.555 237.616 165.471 231.494 159.547 227.308C157.384 225.81 155.003 224.596 152.451 223.925L152.451 223.924ZM166.228 250.724C165.391 250.68 164.493 250.865 163.713 250.991C157.052 252.039 151.85 257.252 148.677 262.924C147.227 265.439 145.835 268.129 145.638 271.08C146.664 272.673 148.685 271.801 150.181 271.767C156.976 270.859 164.068 268 168.05 262.144C169.192 260.328 170.067 258.296 170.222 256.135C170.293 254.824 168.496 254.3 167.654 255.186C163.406 257.896 160.456 262.589 155.748 264.41C155.318 264.629 154.585 264.744 155.006 264.073C159.034 259.571 164.174 256.182 168.374 251.827C167.839 251.04 167.064 250.768 166.227 250.724L166.228 250.724ZM179.914 252.366C178.99 252.287 178.057 252.292 177.125 252.394C177.042 254.908 179.455 256.308 181.035 257.851C184.22 260.518 188.141 262.282 191.22 265.003C191.288 265.581 190.698 266.428 190.185 265.713C185.079 262.739 180.738 258.429 175.324 255.976C174.066 255.895 173.66 257.516 174.259 258.409C176.801 265.454 183.422 270.683 190.682 272.156C193.475 272.64 196.511 272.939 199.2 271.894C199.613 271.599 199.922 271.136 199.962 270.622C198.648 263.877 193.741 258.221 187.796 254.978C185.386 253.6 182.686 252.605 179.914 252.366L179.914 252.366Z" fill="#00DD96"/>
<path d="M212.569 16.412C211.812 16.3404 211.023 16.3672 210.209 16.5065C203.632 16.9507 200.79 24.2573 201.431 29.9991C202.442 33.9535 205.058 37.1596 208.088 39.7473C215.132 52.2796 218.815 66.656 219.943 80.892C216.711 77.0216 214.654 72.1343 210.682 68.8245C202.132 60.5718 190.024 54.7468 186.638 42.4001C186.65 39.2616 187.612 35.2028 184.186 33.3711C187.622 23.6501 177.588 11.7359 167.587 16.2265C161.788 19.0644 159.343 27.3242 163.292 32.6273C166.919 40.2171 176.682 39.4956 182.866 43.4426C186.279 61.2324 207.583 65.672 214.587 81.3056C209.065 76.9452 201.566 76.8433 196.098 72.508C192.026 65.2796 180.964 64.992 176.566 72.0812C170.67 68.2833 163.842 64.7893 157.726 61.2977C157.777 72.4401 159.146 85.0371 167.617 93.2024C167.769 95.0114 165.359 95.1813 164.203 95.7568C154.753 100.086 150.962 110.595 147.479 119.6C158.53 122.939 171.527 119.945 179.306 111.258C180.474 110.199 180.52 106.85 182.468 107.257C185.023 120.163 175.344 134.706 161.919 136.014C158.17 136.514 153.256 136.846 151.533 140.86C150.623 142.566 149.936 144.808 149.688 146.975C138.855 131.407 147.86 109.1 137.376 93.0812C133.004 82.9469 125.149 73.3974 126.712 61.7095C131.787 71.7754 141.865 79.4795 152.951 81.3459C152.88 71.2692 150.35 60.6223 143.69 52.8017C143.273 51.6619 144.619 51.1088 145.29 50.4938C153.964 44.6498 157.55 34.1768 160.831 24.7747C149.368 25.1276 135.757 27.1264 129.789 38.3049C123.256 27.5866 108.735 21.7564 96.7915 26.0364C96.6644 36.0271 103.803 45.5948 112.949 49.6259C116.339 52.3266 121.17 51.9912 124.524 54.5878C120.028 63.5213 122.398 74.4165 126.96 82.898C131.814 93.9645 139.772 104.22 139.707 116.835C137.343 116.255 138.489 111.911 137.387 110.161C132.185 90.7322 117.973 75.248 102.621 62.9277C97.3504 56.8888 90.4376 49.8163 91.8002 41.189C91.8067 38.4128 87.9355 39.2589 87.937 41.5508C86.5103 46.8136 89.9788 50.9927 91.4335 55.6148C86.3361 53.3994 81.4091 50.7651 76.1743 48.8245C85.6212 42.3981 76.2835 26.5984 65.9268 29.8917C64.4901 27.0189 65.8284 21.3827 61.6132 19.6856C56.438 15.0883 47.054 15.9489 44.54 22.9962C43.6151 26.5976 39.9963 22.0748 37.7633 22.4684C30.0296 20.6694 23.479 29.2225 25.3027 36.3375C26.242 41.1198 30.5931 43.9337 34.9599 45.2246C34.2594 46.6709 31.7092 46.3724 30.5905 47.5579C24.2402 52.4962 25.6086 63.359 32.9044 66.6781C38.9506 68.4651 44.3306 65.0278 48.0202 60.5877C50.7693 68.7164 61.8643 73.9569 68.5311 67.1887C72.6767 63.3615 70.9976 57.727 70.061 52.9553C77.4839 54.8859 84.845 57.3174 91.7554 60.6435C89.3755 61.81 86.3732 60.1246 83.9757 61.4222C82.6856 62.3566 83.1713 65.2147 84.9868 64.8534C98.9738 63.2445 110.413 73.8815 117.972 84.4149C96.7698 71.531 70.3702 76.7712 48.2869 84.7421C43.0541 87.0122 37.5063 83.7308 33.247 80.8651C26.3378 76.2694 15.0166 82.1107 16.5031 90.7923C16.9473 97.3692 24.2539 100.211 29.9956 99.5696C33.9501 98.5594 37.1562 95.9429 39.7439 92.9131C52.2762 85.8695 66.6526 82.1857 80.8886 81.0576C77.0182 84.2898 72.1307 86.3469 68.8209 90.3191C60.5682 98.8696 54.7432 110.977 42.3965 114.363C39.258 114.351 35.1991 113.389 33.3675 116.815C23.6465 113.379 11.7322 123.414 16.2229 133.414C19.0608 139.213 27.3206 141.658 32.6237 137.709C40.2135 134.082 39.492 124.319 43.439 118.135C61.2287 114.722 65.6684 93.4179 81.302 86.4136C76.9413 91.9362 76.8397 99.4346 72.5044 104.903C65.276 108.975 64.9885 120.037 72.0776 124.435C68.2797 130.331 64.7857 137.159 61.2941 143.276C72.4365 143.224 85.0334 141.855 93.1988 133.384C95.0077 133.232 95.1776 135.642 95.7531 136.798C100.083 146.249 110.591 150.039 119.596 153.522C122.936 142.471 119.942 129.474 111.255 121.695C110.195 120.527 106.846 120.481 107.253 118.533C120.159 115.978 134.702 125.657 136.01 139.082C136.51 142.831 136.842 147.746 140.856 149.468C142.562 150.378 144.804 151.066 146.971 151.313C131.403 162.146 109.096 153.141 93.0773 163.625C82.9431 167.997 73.3935 175.853 61.7056 174.29C71.7716 169.215 79.4756 159.137 81.342 148.05C71.2653 148.122 60.6185 150.651 52.7978 157.312C51.658 157.728 51.105 156.382 50.49 155.711C44.6459 147.037 34.173 143.452 24.7709 140.17C25.1237 151.634 27.1225 165.244 38.301 171.213C27.5827 177.745 21.7525 192.267 26.0325 204.21C36.0233 204.337 45.5909 197.198 49.622 188.052C52.3227 184.662 51.9873 179.831 54.5839 176.478C63.5174 180.973 74.4131 178.603 82.8963 174.041C93.9629 169.188 104.218 161.229 116.833 161.295C116.253 163.658 111.909 162.512 110.159 163.615C90.7305 168.816 75.2463 183.028 62.9261 198.38C56.8872 203.651 49.8146 210.564 41.1873 209.201C38.4111 209.194 39.2572 213.066 41.5492 213.064C46.812 214.491 50.9911 211.022 55.6132 209.568C53.3977 214.665 50.7635 219.592 48.8228 224.827C42.3965 215.38 26.5967 224.718 29.8901 235.074C27.0172 236.511 21.381 235.173 19.684 239.388C15.0867 244.563 15.9475 253.947 22.995 256.461C26.5964 257.386 22.0733 261.005 22.4668 263.238C20.6679 270.972 29.221 277.522 36.3359 275.698C41.1182 274.759 43.9324 270.408 45.2232 266.041C46.6696 266.742 46.371 269.292 47.5566 270.411C52.4949 276.761 63.3575 275.392 66.6765 268.097C68.4635 262.05 65.0265 256.67 60.5866 252.981C68.7153 250.232 73.9553 239.137 67.1873 232.47C63.3602 228.324 57.7257 230.003 52.954 230.94C54.8846 223.517 57.3161 216.156 60.6422 209.246C61.8086 211.626 60.1233 214.628 61.4209 217.025C62.3553 218.315 65.2134 217.83 64.8521 216.014C63.2432 202.027 73.8805 190.588 84.414 183.029C71.5302 204.231 76.7699 230.631 84.7408 252.714C87.0109 257.947 83.7295 263.495 80.8638 267.754C76.2683 274.663 82.1094 285.984 90.791 284.498C97.3679 284.054 100.21 276.747 99.5688 271.005C98.5586 267.051 95.9416 263.845 92.912 261.257C85.8684 248.725 82.1846 234.348 81.0565 220.112C84.2887 223.983 86.3463 228.87 90.3182 232.18C98.8687 240.433 110.976 246.258 114.362 258.605C114.35 261.743 113.388 265.802 116.814 267.634C113.378 277.355 123.412 289.269 133.413 284.778C139.212 281.94 141.658 273.681 137.708 268.377C134.082 260.788 124.318 261.509 118.134 257.562C114.721 239.772 93.417 235.333 86.4128 219.699C91.9353 224.06 99.4338 224.161 104.903 228.497C108.974 235.725 120.037 236.013 124.434 228.923C130.33 232.721 137.158 236.215 143.274 239.707C143.223 228.565 141.854 215.968 133.383 207.802C133.231 205.993 135.641 205.823 136.798 205.248C146.248 200.918 150.038 190.41 153.521 181.405C142.47 178.066 129.473 181.06 121.694 189.746C120.526 190.806 120.48 194.155 118.532 193.748C115.976 180.842 125.656 166.299 139.081 164.991C142.83 164.491 147.744 164.159 149.467 160.145C150.377 158.44 151.065 156.198 151.312 154.031C162.145 169.599 153.14 191.906 163.624 207.922C167.996 218.056 175.851 227.606 174.288 239.294C169.214 229.228 159.135 221.524 148.049 219.657C148.12 229.734 150.65 240.381 157.311 248.201C157.727 249.341 156.381 249.894 155.71 250.509C147.036 256.353 143.451 266.826 140.169 276.228C151.633 275.876 165.243 273.877 171.211 262.698C177.744 273.417 192.265 279.247 204.209 274.967C204.336 264.976 197.197 255.408 188.051 251.377C184.661 248.677 179.83 249.012 176.477 246.415C180.972 237.482 178.602 226.586 174.04 218.103C169.186 207.036 161.228 196.781 161.294 184.166C163.657 184.746 162.511 189.09 163.613 190.84C168.815 210.269 183.027 225.753 198.379 238.073C203.649 244.112 210.562 251.185 209.2 259.812C209.194 262.588 213.065 261.742 213.063 259.45C214.49 254.187 211.021 250.008 209.566 245.386C214.664 247.601 219.591 250.236 224.826 252.176C215.379 258.603 224.716 274.402 235.073 271.109C236.51 273.982 235.171 279.618 239.387 281.315C244.562 285.912 253.946 285.052 256.46 278.004C257.385 274.403 261.004 278.926 263.237 278.532C270.97 280.331 277.521 271.778 275.697 264.663C274.758 259.881 270.407 257.067 266.04 255.776C266.741 254.329 269.291 254.628 270.41 253.442C276.76 248.504 275.392 237.642 268.096 234.323C262.05 232.536 256.67 235.973 252.98 240.412C250.231 232.284 239.136 227.044 232.469 233.812C228.323 237.639 230.003 243.273 230.94 248.045C223.517 246.114 216.156 243.683 209.245 240.357C211.625 239.19 214.627 240.876 217.025 239.578C218.315 238.644 217.829 235.786 216.014 236.147C202.027 237.756 190.587 227.119 183.028 216.585C204.231 229.469 230.632 224.229 252.714 216.258C257.946 213.988 263.494 217.27 267.753 220.135C274.662 224.731 285.984 218.89 284.497 210.208C284.053 203.631 276.746 200.789 271.005 201.43C267.05 202.441 263.844 205.057 261.256 208.087C248.724 215.131 234.348 218.814 220.112 219.943C223.982 216.71 228.869 214.653 232.179 210.681C240.432 202.13 246.257 190.023 258.604 186.637C261.742 186.649 265.801 187.611 267.633 184.185C277.354 187.621 289.268 177.586 284.777 167.586C281.939 161.787 273.68 159.342 268.376 163.291C260.787 166.917 261.508 176.681 257.561 182.865C239.771 186.278 235.332 207.582 219.698 214.586C224.059 209.064 224.16 201.565 228.496 196.097C235.724 192.025 236.012 180.963 228.922 176.565C232.72 170.669 236.214 163.841 239.706 157.725C228.564 157.776 215.967 159.145 207.801 167.616C205.992 167.768 205.822 165.358 205.247 164.202C200.917 154.751 190.409 150.961 181.404 147.478C178.065 158.529 181.059 171.526 189.745 179.305C190.805 180.473 194.154 180.519 193.747 182.468C180.841 185.023 166.298 175.343 164.99 161.918C164.49 158.169 164.158 153.255 160.144 151.532C158.438 150.622 156.197 149.935 154.03 149.687C169.598 138.854 191.905 147.859 207.921 137.375C218.055 133.003 227.605 125.148 239.293 126.711C229.227 131.786 221.523 141.864 219.656 152.95C229.733 152.879 240.38 150.349 248.201 143.688C249.34 143.272 249.893 144.618 250.508 145.289C256.352 153.963 266.825 157.548 276.227 160.83C275.875 149.366 273.876 135.756 262.697 129.788C273.416 123.255 279.246 108.734 274.966 96.7905C264.975 96.6633 255.407 103.802 251.376 112.948C248.676 116.338 249.011 121.169 246.414 124.522C237.481 120.027 226.585 122.397 218.102 126.959C207.035 131.813 196.78 139.771 184.165 139.705C184.745 137.342 189.089 138.488 190.839 137.386C210.268 132.184 225.752 117.972 238.072 102.62C244.111 97.3497 251.184 90.4366 259.811 91.799C262.587 91.8055 261.741 87.9343 259.449 87.9358C254.186 86.5091 250.007 89.978 245.385 91.4327C247.601 86.3353 250.235 81.4083 252.175 76.1735C258.602 85.6205 274.402 76.2827 271.108 65.9261C273.981 64.4893 279.617 65.8277 281.314 61.6125C285.912 56.4373 285.051 47.0532 278.004 44.5392C274.402 43.6143 278.925 39.9958 278.532 37.7625C280.331 30.0289 271.777 23.4783 264.662 25.302C259.88 26.2413 257.066 30.5919 255.775 34.9589C254.329 34.2585 254.628 31.7085 253.442 30.5897C248.504 24.2395 237.641 25.6076 234.322 32.9032C232.535 38.9494 235.972 44.3296 240.412 48.0195C232.284 50.7686 227.043 61.8636 233.811 68.5303C237.638 72.676 243.273 70.9965 248.045 70.0598C246.114 77.4827 243.683 84.8438 240.356 91.7543C239.19 89.3743 240.875 86.3721 239.578 83.9746C238.643 82.6845 235.785 83.1702 236.147 84.9857C237.755 98.9726 227.118 110.412 216.585 117.971C229.469 96.7687 224.229 70.3669 216.258 48.2858C213.988 43.0531 217.269 37.5057 220.135 33.2461C224.3 26.9848 219.893 17.0996 212.568 16.4077L212.569 16.412ZM211.491 20.209C217.249 20.5622 218.005 29.839 215.12 33.4138C212.952 33.1847 212.868 30.2369 211.308 29.2655C210.062 30.5559 210.224 33.6077 208.509 33.8968C206.28 30.049 205.024 22.4288 210.273 20.2614C210.701 20.2013 211.107 20.1855 211.491 20.209ZM172.695 19.2357C178.248 19.7049 181.863 26.1563 179.668 31.1381C178.363 31.0178 177.411 29.4823 176.278 28.8284C175.733 31.1457 176.956 33.4744 176.803 35.8234C173.633 35.2057 170.428 34.0966 168.069 31.7939C164.784 27.9297 165.714 19.9405 171.559 19.2239C171.945 19.1998 172.325 19.2044 172.695 19.2357ZM268.837 29.9511C277.228 30.501 273.351 45.4017 265.717 45.2052C265.338 44.1105 270.005 43.186 267.929 41.1297C265.176 38.3973 263.963 43.6563 261.398 43.8799C262.099 41.7917 264.926 40.1386 264.022 37.8359C260.749 35.6157 260.183 41.6739 257.345 41.6868C257.528 35.9389 262.278 30.6822 267.986 29.9438C268.282 29.9307 268.566 29.9334 268.837 29.9511ZM243.848 30.8553C249.157 31.2553 252.551 36.5154 253.529 41.47C251.545 40.1292 251.74 36.9637 249.436 35.8653C245.586 37.7875 249.175 40.9547 249.863 43.5991C247.399 42.889 247.56 38.8973 244.853 39.0709C241.728 40.1836 244.013 43.0839 244.707 45.0103C238.751 44.012 235.023 32.6955 242.14 30.8931C242.729 30.8248 243.299 30.8139 243.848 30.8553ZM54.7988 20.9809C56.1034 21.1085 57.3628 21.6738 58.3731 22.7913C63.041 26.9358 60.9325 34.2708 56.5972 37.9011C55.0783 36.2075 60.0624 33.2648 57.0389 31.5847C52.8761 29.2466 54.9769 36.6385 52.0806 36.7793C52.0809 34.6793 53.7638 31.9631 52.1358 30.1945C49.0927 28.7988 50.3329 33.5707 48.9314 34.0739C48.0612 32.51 47.6254 30.4095 47.3472 28.5589C46.5654 24.1548 50.8853 20.5981 54.7988 20.9809ZM153.706 29.9742C155.275 30.1069 153.569 32.8239 153.363 33.7778C150.079 41.5403 143.137 49.9327 133.81 49.155C138.224 45.2835 143.386 41.7866 147.273 37.1498C147.218 36.4546 147.137 35.3877 146.409 35.1225C140.224 36.1951 136.733 43.4245 131.666 45.408C132.694 35.372 143.955 30.6108 152.819 30.088C153.191 29.9888 153.482 29.9553 153.706 29.9742ZM107.794 29.4097C115.85 30.1078 124.634 36.4975 126.099 44.3753C121.006 41.508 116.156 37.3207 111.03 34.1333C109.229 32.9923 108.014 35.7817 109.032 37.1136C113.751 40.3343 119.95 43.1626 122.892 47.8536C113.502 47.5487 103.809 39.5657 101.909 30.055C103.734 29.4237 105.74 29.2319 107.794 29.4098L107.794 29.4097ZM36.3996 27.4675C40.6133 27.8512 45.3135 30.9635 45.2026 35.2734C44.1078 35.6516 43.1833 30.9855 41.1271 33.061C38.3947 35.8139 43.6541 37.0274 43.8775 39.5921C41.7892 38.8916 40.136 36.0638 37.8333 36.968C35.6131 40.2404 41.6713 40.8075 41.6842 43.6447C35.9363 43.4622 30.6795 38.712 29.9412 33.0041C29.751 28.705 32.9081 27.1496 36.3996 27.4675ZM274.066 47.2875C279.074 47.78 282.279 54.7155 278.228 58.3782C274.084 63.0462 266.749 60.9381 263.118 56.6027C264.812 55.0838 267.755 60.0675 269.435 57.0441C271.773 52.8812 264.381 54.9824 264.24 52.086C266.34 52.0862 269.057 53.7691 270.825 52.1412C272.221 49.0981 267.449 50.338 266.946 48.9366C268.51 48.0664 270.61 47.6309 272.461 47.3527C273.011 47.255 273.549 47.2367 274.067 47.2877L274.066 47.2875ZM71.2209 34.9872C75.7628 36.4423 77.3376 43.6135 72.7598 46.1496C68.6214 47.6611 64.2255 47.0694 59.934 47.5498C60.9427 44.9321 67.2758 47.269 67.9381 43.4231C65.7128 40.465 62.2397 44.0854 59.4899 43.9694C60.6248 41.5574 65.4196 42.2235 66.0964 39.1427C64.9625 38.2026 63.1484 38.2919 61.7261 38.5772C63.4403 34.8796 67.6691 34.6977 71.2209 34.9872ZM244.829 52.0315C246.123 53.5253 239.395 54.885 241.647 57.6813C243.844 60.8602 246.414 54.6619 249.172 54.9772C248.187 57.7398 242.032 58.5323 244.467 62.0795C246.643 64.3952 248.121 59.3986 250.248 59.4115C248.79 65.7042 238.357 70.0163 235.033 62.9466C232.936 57.0931 239.936 52.822 244.829 52.0312L244.829 52.0315ZM257.051 59.4845C259.463 60.6195 258.797 65.4138 261.878 66.0905C262.818 64.9567 262.729 63.1425 262.443 61.7203C266.141 63.4345 266.323 67.6633 266.033 71.2151C264.578 75.757 257.407 77.332 254.871 72.7544C253.359 68.616 253.951 64.2201 253.471 59.9287C256.088 60.9374 253.751 67.27 257.597 67.9323C260.555 65.707 256.935 62.2341 257.051 59.4843L257.051 59.4845ZM133.557 52.8561C142.882 55.6673 149.605 66.5724 147.923 75.9095C139.618 72.9024 132.317 65.2048 130.104 56.5302C129.686 55.7531 130.69 55.7163 131.057 56.1857C135.296 59.7684 138.241 64.5504 141.744 68.7778C142.704 70.1782 144.476 68.4285 143.987 67.1922C141.681 61.681 136.26 57.9113 133.557 52.8561ZM41.4782 47.4613C40.1374 49.445 36.9721 49.2501 35.874 51.5535C37.7962 55.4044 40.9631 51.8146 43.6073 51.1266C42.8972 53.5907 38.906 53.4296 39.0794 56.1368C40.192 59.2623 43.0921 56.9767 45.0183 56.2825C44.02 62.2394 32.7035 65.9669 30.9011 58.8503C30.1719 52.5608 36.011 48.5401 41.4779 47.4613L41.4782 47.4613ZM59.4175 50.7724C65.7102 52.2306 70.0228 62.6637 62.9531 65.9875C57.0995 68.0849 52.8282 61.0841 52.0373 56.1918C53.5312 54.8973 54.8912 61.6256 57.6875 59.3732C60.8665 57.1766 54.6677 54.6064 54.9833 51.8483C57.7459 52.8339 58.5387 58.989 62.0859 56.5537C64.4017 54.3774 59.4046 52.8992 59.4175 50.7724ZM162.1 68.3218C172.207 71.5596 181.012 82.2537 179.799 93.3725C179.882 94.3177 178.6 93.9973 178.465 93.2956C175.364 87.479 171.985 81.8139 168.579 76.1853C167.76 74.7581 166.021 76.5382 166.806 77.6941C168.87 83.4332 172.587 88.5536 174.633 94.2599C166.659 88.353 161.794 78.2344 162.1 68.3212L162.1 68.3218ZM186.392 71.5257C187.998 71.6237 189.549 72.1994 190.903 73.0868C190.828 74.8598 187.78 75.5256 187.892 77.4566C188.736 78.7778 192.887 79.7717 190.508 81.5731C186.333 83.6537 179.638 80.3697 179.811 75.3012C180.635 73.2719 182.676 71.9906 184.773 71.5929C185.315 71.5133 185.857 71.493 186.392 71.5257ZM200.447 79.5049C214.333 80.8823 222.239 98.1097 215.76 110.112C208.611 124.128 193.065 131.645 178.257 134.763C177.735 134.71 176.288 135.384 176.675 134.403C184.184 127.613 187.76 116.997 187.453 107.027C198.682 109.972 208.331 102.188 215.605 95.3159C207.114 88.8995 194.212 85.5593 184.909 92.3011C183.948 91.5076 183.847 87.8227 184.287 86.6656C191.034 88.112 194.743 81.675 199.781 79.4519C200.004 79.4656 200.226 79.4836 200.446 79.5055L200.447 79.5049ZM102.205 83.0132C104.942 83.199 107.641 83.9234 110.118 85.2604C124.133 92.4097 131.651 107.956 134.768 122.763C134.715 123.286 135.389 124.733 134.409 124.346C127.619 116.837 117.003 113.261 107.033 113.568C109.978 102.338 102.194 92.6897 95.3214 85.4156C88.905 93.9065 85.5651 106.809 92.3068 116.112C91.5134 117.073 87.8285 117.173 86.6713 116.734C88.1178 109.987 81.6805 106.277 79.4574 101.24C80.1608 89.8476 91.4704 82.2853 102.206 83.0142L102.205 83.0132ZM199.69 93.7233C202.397 93.9882 204.977 95.1533 207.549 95.9947C203.045 102.113 194.012 104.704 186.773 102.307C190.515 100.181 196.095 100.032 200.521 98.6695C201.582 98.1106 204.367 96.2482 202.27 95.6552C197.743 95.4397 193.259 96.5603 188.727 96.6199C191.079 93.9512 195.154 93.6869 198.522 93.6684C198.914 93.666 199.303 93.6855 199.69 93.7233ZM270.966 101.914C274.074 110.902 266.532 124.264 256.646 126.103C259.513 121.01 263.7 116.16 266.888 111.034C268.029 109.233 265.239 108.019 263.907 109.037C260.687 113.756 257.858 119.954 253.167 122.896C253.472 113.506 261.455 103.813 270.966 101.913L270.966 101.914ZM29.0345 84.3114C30.7383 84.4848 32.3239 85.0226 33.3965 85.888C33.1674 88.0565 30.22 88.1405 29.2486 89.7009C30.5389 90.9467 33.5904 90.7841 33.8797 92.4994C30.0318 94.7287 22.4121 95.9846 20.2444 90.7358C19.5532 85.8053 24.6801 83.8684 29.0345 84.3114ZM173.5 98.8035C174.632 98.8705 175.685 99.1153 176.226 99.9774C171.371 102.407 166.54 105.013 162.11 108.169C160.331 109.412 161.603 112.331 163.691 111.196C167.842 108.419 172.458 106.403 176.341 103.231C176.887 102.386 179.25 102.38 177.798 104.176C174.685 113.875 162.53 118.385 153.242 116.006C156.063 108.185 160.861 99.0426 170.304 98.6959C171.157 98.8474 172.367 98.7365 173.499 98.8035L173.5 98.8035ZM95.9752 93.4722C102.093 97.9755 104.685 107.009 102.288 114.248C100.161 110.506 100.013 104.926 98.6504 100.5C98.0915 99.4392 96.2287 96.6535 95.6357 98.7506C95.4201 103.278 96.5408 107.761 96.6004 112.294C93.9317 109.942 93.6673 105.867 93.6489 102.499C93.6291 99.3614 95.0135 96.4114 95.9751 93.4725L95.9752 93.4722ZM80.4758 109.786C80.8044 109.784 81.1597 109.992 81.5538 110.513C83.6344 114.687 80.3503 121.382 75.2818 121.21C73.2526 120.385 71.9713 118.345 71.5736 116.247C71.2549 114.079 71.8841 111.922 73.0673 110.118C74.8402 110.192 75.5061 113.24 77.4371 113.128C78.4693 112.469 79.3019 109.791 80.4758 109.786ZM244.825 129.999C245.237 130.033 245.19 130.752 244.809 131.05C241.226 135.289 236.444 138.234 232.217 141.737C230.816 142.697 232.566 144.469 233.802 143.981C239.313 141.674 243.083 136.253 248.138 133.55C245.327 142.875 234.422 149.598 225.085 147.916C228.092 139.612 235.79 132.31 244.464 130.097C244.61 130.019 244.73 129.991 244.825 129.999ZM255.586 131.67C265.622 132.697 270.383 143.958 270.906 152.823C271.699 155.797 268.306 153.602 267.216 153.366C259.454 150.083 251.061 143.141 251.839 133.813C255.71 138.228 259.207 143.389 263.844 147.276C264.539 147.221 265.606 147.141 265.871 146.413C264.799 140.228 257.569 136.736 255.586 131.67L255.586 131.67ZM93.5161 121.221C94.2571 121.294 93.9341 122.428 93.2763 122.554C87.4597 125.656 81.7946 129.035 76.166 132.441C74.7388 133.26 76.519 134.999 77.6748 134.214C83.414 132.149 88.5343 128.433 94.2406 126.387C88.3337 134.361 78.2151 139.226 68.3018 138.92C71.5396 128.813 82.2342 120.008 93.3547 121.221C93.4138 121.216 93.4678 121.216 93.5172 121.221L93.5161 121.221ZM103.226 122.733C103.457 122.745 103.763 122.88 104.156 123.197C113.855 126.311 118.365 138.465 115.986 147.754C108.165 144.933 99.0223 140.134 98.6758 130.691C98.9788 128.985 98.2331 125.851 99.9572 124.771C102.387 129.626 104.993 134.457 108.148 138.886C109.392 140.665 112.311 139.393 111.176 137.305C108.399 133.154 106.383 128.539 103.211 124.656C102.551 124.229 102.402 122.694 103.226 122.734L103.226 122.733ZM28.5413 120.691C29.4188 120.752 30.2901 120.956 31.1205 121.322C31.0002 122.627 29.4643 123.58 28.8104 124.713C31.1277 125.257 33.4561 124.034 35.8054 124.188C35.1877 127.357 34.0789 130.563 31.7761 132.922C27.9119 136.207 19.9222 135.277 19.2057 129.431C18.8803 124.216 23.8031 120.362 28.5413 120.691ZM184.989 153.261C192.81 156.082 201.952 160.88 202.299 170.324C201.996 172.029 202.742 175.163 201.017 176.244C198.588 171.389 195.981 166.558 192.826 162.129C191.583 160.349 188.664 161.622 189.799 163.71C192.575 167.861 194.592 172.476 197.764 176.359C198.609 176.906 198.615 179.268 196.818 177.817C187.12 174.703 182.61 162.548 184.989 153.26L184.989 153.261ZM232.673 162.094C229.435 172.201 218.741 181.006 207.622 179.793C206.677 179.876 206.997 178.594 207.699 178.459C213.516 175.358 219.181 171.979 224.809 168.572C226.237 167.754 224.456 166.015 223.301 166.8C217.561 168.864 212.441 172.581 206.735 174.627C212.642 166.653 222.76 161.788 232.674 162.094L232.673 162.094ZM275.684 166.259C278.661 166.561 281.365 168.294 281.768 171.582C282.154 177.764 275.168 182.033 269.854 179.691C269.974 178.386 271.51 177.433 272.164 176.301C269.846 175.756 267.518 176.979 265.169 176.826C265.786 173.657 266.895 170.45 269.198 168.092C270.889 166.655 273.369 166.024 275.684 166.259ZM30.8908 146.659C31.8063 146.762 33.148 147.515 33.7611 147.647C41.5236 150.931 49.916 157.873 49.1383 167.201C45.2668 162.786 41.7699 157.625 37.1331 153.737C36.4379 153.792 35.371 153.873 35.1059 154.601C36.1785 160.786 43.4078 164.278 45.3913 169.344C35.3553 168.317 30.5941 157.056 30.0713 148.191C29.7241 146.89 30.1787 146.578 30.8908 146.659ZM74.1252 152.879C74.7187 152.92 75.3085 152.993 75.8921 153.098C72.8851 161.403 65.1874 168.704 56.5128 170.917C55.7357 171.335 55.6992 170.331 56.1686 169.964C59.7514 165.725 64.5329 162.78 68.7603 159.277C70.1607 158.317 68.411 156.545 67.1747 157.034C61.6635 159.34 57.8937 164.761 52.8385 167.464C55.474 158.722 65.2231 152.266 74.1252 152.879ZM124.135 166.08C124.361 166.108 124.473 166.243 124.328 166.611C116.819 173.401 113.243 184.017 113.55 193.987C102.321 191.042 92.6725 198.826 85.398 205.699C93.8889 212.115 106.791 215.455 116.094 208.713C117.055 209.507 117.156 213.191 116.716 214.349C109.969 212.902 106.259 219.339 101.222 221.563C86.9259 220.68 78.6625 203.095 85.2438 190.901C92.3931 176.885 107.939 169.368 122.747 166.25C123.073 166.283 123.761 166.033 124.137 166.079L124.135 166.08ZM225.695 179.804C227.724 180.629 229.005 182.669 229.403 184.767C229.722 186.935 229.093 189.092 227.909 190.896C226.136 190.822 225.471 187.774 223.54 187.885C222.218 188.73 221.224 192.88 219.423 190.501C217.342 186.327 220.626 179.632 225.695 179.804ZM166.297 176.604C166.373 176.6 166.47 176.62 166.592 176.668C173.382 184.177 183.999 187.753 193.969 187.446C191.023 198.676 198.808 208.324 205.68 215.598C212.096 207.108 215.436 194.205 208.695 184.902C209.488 183.941 213.173 183.841 214.33 184.28C212.884 191.027 219.321 194.737 221.544 199.774C220.661 214.071 203.076 222.334 190.882 215.753C176.867 208.603 169.349 193.057 166.232 178.249C166.278 177.792 165.768 176.628 166.296 176.603L166.297 176.604ZM198.689 186.767C200.815 190.509 200.964 196.089 202.327 200.515C202.885 201.575 204.748 204.36 205.341 202.264C205.556 197.736 204.436 193.253 204.376 188.72C207.045 191.072 207.309 195.147 207.328 198.515C207.347 201.653 205.963 204.603 205.001 207.542C198.884 203.038 196.292 194.005 198.689 186.767ZM44.3569 174.911C41.4896 180.004 37.3023 184.854 34.1148 189.98C32.9738 191.781 35.7633 192.995 37.0952 191.977C40.3159 187.258 43.1442 181.06 47.8352 178.118C47.5303 187.508 39.5473 197.2 30.0366 199.101C26.9286 190.113 34.4712 176.751 44.3571 174.912L44.3569 174.911ZM144.6 184.472C145.669 184.57 146.719 184.748 147.735 185.008C144.913 192.829 140.115 201.972 130.671 202.318C128.966 202.015 125.832 202.761 124.752 201.037C129.607 198.607 134.437 196.001 138.867 192.846C140.646 191.602 139.373 188.683 137.286 189.818C133.135 192.595 128.519 194.611 124.636 197.783C124.089 198.628 121.728 198.635 123.179 196.838C125.952 188.2 135.896 183.677 144.6 184.472L144.6 184.472ZM275.042 206.615C277.504 206.787 279.718 207.818 280.734 210.278C281.696 217.138 271.395 218.203 267.582 215.126C267.811 212.958 270.759 212.874 271.73 211.313C270.44 210.067 267.388 210.23 267.099 208.515C269.143 207.33 272.251 206.421 275.042 206.615ZM110.011 197.876C111.453 197.984 112.873 198.258 114.231 198.707C110.489 200.834 104.909 200.982 100.483 202.345C99.4222 202.904 96.637 204.766 98.7339 205.359C103.262 205.575 107.745 204.454 112.278 204.395C109.925 207.063 105.85 207.328 102.482 207.346C99.3446 207.366 96.395 205.982 93.4558 205.02C97.1148 200.049 103.764 197.406 110.011 197.876ZM126.37 206.754C134.344 212.661 139.209 222.779 138.903 232.693C128.796 229.455 119.991 218.76 121.205 207.64C121.121 206.695 122.403 207.015 122.538 207.717C125.639 213.534 129.018 219.199 132.425 224.827C133.243 226.254 134.983 224.474 134.198 223.319C132.133 217.579 128.417 212.459 126.37 206.753L126.37 206.754ZM113.953 218.831C117.589 219.114 121.322 221.912 121.193 225.713C120.368 227.743 118.328 229.024 116.23 229.422C114.063 229.74 111.906 229.111 110.101 227.928C110.176 226.155 113.223 225.489 113.112 223.558C112.267 222.237 108.117 221.243 110.496 219.442C111.54 218.921 112.741 218.736 113.953 218.831ZM153.081 225.105C161.386 228.112 168.687 235.81 170.9 244.484C171.318 245.262 170.314 245.298 169.948 244.829C165.708 241.246 162.763 236.464 159.26 232.237C158.3 230.837 156.528 232.586 157.017 233.823C159.323 239.334 164.744 243.104 167.447 248.159C158.122 245.348 151.399 234.442 153.081 225.105ZM240.672 234.668C245.155 235.066 248.3 240.695 248.967 244.823C247.473 246.118 246.114 239.389 243.317 241.641C240.138 243.838 246.337 246.408 246.021 249.166C243.258 248.181 242.466 242.025 238.919 244.461C236.603 246.637 241.6 248.116 241.587 250.242C235.294 248.784 230.982 238.351 238.052 235.027C238.966 234.7 239.842 234.594 240.672 234.668L240.672 234.668ZM265.393 238.293C267.578 238.449 269.454 239.607 270.102 242.164C270.831 248.454 264.992 252.474 259.525 253.553C260.866 251.569 264.031 251.765 265.13 249.461C263.207 245.61 260.04 249.2 257.396 249.888C258.106 247.424 262.098 247.585 261.924 244.878C260.811 241.752 257.911 244.038 255.985 244.732C256.624 240.916 261.498 238.015 265.393 238.293ZM41.8751 225.538C43.5839 225.692 45.1871 226.544 46.1382 228.261C47.6497 232.399 47.0576 236.795 47.5379 241.086C44.9202 240.078 47.2572 233.745 43.4113 233.082C40.4532 235.308 44.0736 238.781 43.9576 241.531C41.5453 240.396 42.2116 235.601 39.1309 234.924C38.1908 236.058 38.2801 237.872 38.5653 239.294C34.8678 237.58 34.6859 233.351 34.9754 229.799C35.8848 226.961 39.027 225.281 41.8751 225.538ZM60.9759 234.453C63.0291 234.654 64.885 235.748 65.9757 238.068C68.0731 243.922 61.0724 248.193 56.1801 248.984C54.8856 247.49 61.614 246.13 59.3619 243.333C57.1653 240.154 54.5946 246.353 51.8368 246.038C52.8224 243.275 58.9779 242.482 56.5426 238.935C54.3661 236.619 52.8881 241.616 50.7613 241.603C51.741 237.376 56.7719 234.041 60.9761 234.453L60.9759 234.453ZM241.075 253.465C240.066 256.083 233.733 253.746 233.071 257.592C235.296 260.55 238.769 256.93 241.519 257.046C240.384 259.458 235.59 258.792 234.913 261.872C236.047 262.812 237.861 262.723 239.283 262.438C237.569 266.135 233.34 266.317 229.788 266.028C225.247 264.573 223.672 257.401 228.249 254.865C232.388 253.354 236.783 253.946 241.075 253.465L241.075 253.465ZM259.852 257.4C265.386 257.849 270.342 262.481 271.057 268.01C271.477 277.498 255.593 273.622 255.796 265.741C256.891 265.363 257.815 270.029 259.872 267.953C262.604 265.2 257.345 263.987 257.121 261.422C259.21 262.122 260.863 264.95 263.165 264.046C265.386 260.774 259.327 260.206 259.314 257.369C259.494 257.375 259.673 257.385 259.852 257.4ZM29.4697 240.02C32.629 240.24 35.8432 241.973 37.8852 244.412C36.1916 245.931 33.2488 240.947 31.5688 243.97C29.2307 248.133 36.623 246.032 36.7636 248.929C34.6636 248.928 31.9471 247.246 30.1784 248.873C28.7827 251.917 33.5546 250.676 34.0578 252.078C32.4938 252.948 30.3934 253.384 28.5428 253.662C22.6706 254.704 18.3052 246.678 22.7752 242.636C24.5883 240.594 27.0125 239.849 29.4697 240.02ZM167.184 251.859C162.77 255.73 157.608 259.227 153.721 263.864C153.776 264.559 153.856 265.626 154.585 265.891C160.77 264.819 164.261 257.589 169.328 255.606C168.3 265.642 157.039 270.403 148.175 270.926C145.201 271.719 147.396 268.326 147.631 267.236C150.915 259.474 157.857 251.081 167.184 251.859ZM178.982 253.211C188.09 253.966 197.243 261.746 199.084 270.959C190.096 274.067 176.734 266.525 174.895 256.639C179.988 259.506 184.838 263.693 189.964 266.881C191.765 268.022 192.979 265.232 191.961 263.9C187.243 260.68 181.044 257.851 178.102 253.16C178.395 253.17 178.689 253.187 178.983 253.211L178.982 253.211ZM244.395 263.113C245.914 264.806 240.93 267.749 243.953 269.429C248.116 271.767 246.015 264.375 248.911 264.234C248.911 266.334 247.228 269.051 248.856 270.82C251.899 272.215 250.659 267.443 252.061 266.94C252.931 268.504 253.366 270.605 253.645 272.455C254.687 278.327 246.661 282.693 242.619 278.223C237.951 274.078 240.059 266.743 244.395 263.113L244.395 263.113ZM56.2659 256.002C62.2228 257 65.9503 268.317 58.8337 270.119C52.544 270.849 48.5239 265.01 47.4449 259.543C49.4286 260.883 49.2333 264.049 51.5369 265.147C55.3878 263.225 51.7983 260.058 51.1103 257.413C53.5744 258.124 53.4131 262.115 56.1203 261.941C59.2458 260.829 56.9602 257.929 56.266 256.002L56.2659 256.002ZM35.2648 255.814C35.643 256.908 30.9769 257.833 33.0524 259.889C35.8053 262.622 37.0188 257.362 39.5835 257.139C38.883 259.227 36.0552 260.88 36.9595 263.183C40.2321 265.403 40.7989 259.345 43.6361 259.332C43.4537 265.08 38.7032 270.337 32.9955 271.075C23.5079 271.495 27.3839 255.611 35.265 255.813L35.2648 255.814ZM124.178 265.196C127.347 265.813 130.553 266.922 132.912 269.225C136.197 273.089 135.267 281.078 129.421 281.795C123.24 282.181 118.971 275.194 121.312 269.88C122.617 270.001 123.57 271.537 124.703 272.19C125.247 269.873 124.024 267.545 124.178 265.196ZM92.4892 267.123C94.7185 270.971 95.9743 278.591 90.7255 280.758C83.8658 281.72 82.8007 271.42 85.8776 267.606C88.0461 267.835 88.1305 270.783 89.6909 271.754C90.9368 270.464 90.7736 267.412 92.4892 267.123Z" fill="#552200"/>
</g>
</svg>
