<svg width="263" height="506" viewBox="0 0 263 506" fill="none" xmlns="http://www.w3.org/2000/svg">
<path d="M68.769 502.941C113.792 417.958 138.948 322.608 145.675 240.406" stroke="#E3A3C7" stroke-opacity="0.22" stroke-width="5.33333" stroke-linecap="round" stroke-linejoin="round"/>
<path d="M74.6226 423.938C17.3189 406.854 -9.78904 357.792 8.55687 304.596C49.6745 304.271 91.2401 337.482 84.7473 406.036" stroke="#E3A3C7" stroke-opacity="0.22" stroke-width="5.33333" stroke-linecap="round" stroke-linejoin="round"/>
<path d="M120.517 253.818C104.364 267.805 79.5376 266.985 65.75 261.37C72.4883 230.693 93.1477 221.845 128.469 229.882" stroke="#E3A3C7" stroke-opacity="0.22" stroke-width="5.33333" stroke-linecap="round" stroke-linejoin="round"/>
<path d="M171.989 262.618C180.827 274.334 195.734 286.434 216.535 283.725C220.517 262.355 205.38 234.138 175.632 235.705" stroke="#E3A3C7" stroke-opacity="0.22" stroke-width="5.33333" stroke-linecap="round" stroke-linejoin="round"/>
<path d="M77.2447 161.964C48.0436 143.658 39.1767 79.5065 91.9079 74.3315" stroke="#F64C72" stroke-opacity="0.24" stroke-width="5.33333" stroke-linecap="round" stroke-linejoin="round"/>
<path d="M153.976 73.0846C170.187 38.5716 135.143 10.6106 121.96 12.861C115.301 13.9977 125.577 37.573 122.978 59.475C120.294 82.0943 102.963 91.7362 94.9169 126.623C88.7789 153.237 117.257 210.208 154.359 215.266C170.445 217.459 192.641 192.616 196.86 165.855" stroke="#F64C72" stroke-opacity="0.24" stroke-width="5.33333" stroke-linecap="round" stroke-linejoin="round"/>
<path d="M139.599 177.758C118.485 117.89 149.039 108.553 170.527 90.4647C182.127 80.7003 207.198 69.8693 224.78 55.8228C237.389 45.7499 236.876 25.336 248.125 31.199C257.429 36.0487 268.923 66.1708 249.673 84.3185C228.94 103.864 184.756 91.4804 169.372 124.091" stroke="#F64C72" stroke-opacity="0.24" stroke-width="5.33333" stroke-linecap="round" stroke-linejoin="round"/>
<path d="M204.739 208.22C234.109 192.541 258.55 163.723 240.779 118.029" stroke="#F64C72" stroke-opacity="0.24" stroke-width="5.33333" stroke-linecap="round" stroke-linejoin="round"/>
<path d="M197.827 33.4207C170.064 32.6341 167.632 17.0202 175.543 8.77712C187.228 -3.39871 217.103 5.77234 225.787 18.0536" stroke="#F64C72" stroke-opacity="0.24" stroke-width="5.33333" stroke-linecap="round" stroke-linejoin="round"/>
<path d="M154.244 450.447C193.525 455.161 253.826 442.44 258.943 380.302C196.722 367.38 152.801 389.079 127.941 439.674" stroke="#E3A3C7" stroke-opacity="0.22" stroke-width="5.33333" stroke-linecap="round" stroke-linejoin="round"/>
</svg>
