<svg width="22" height="20" viewBox="0 0 22 20" fill="none" xmlns="http://www.w3.org/2000/svg">
<path d="M7.60783 16.0301C7.60783 16.1124 7.51315 16.1783 7.39377 16.1783C7.25792 16.1906 7.16324 16.1248 7.16324 16.0301C7.16324 15.9477 7.25792 15.8819 7.37731 15.8819C7.5008 15.8695 7.60783 15.9354 7.60783 16.0301ZM6.32757 15.8448C6.29875 15.9272 6.38109 16.0218 6.50458 16.0465C6.61162 16.0877 6.73511 16.0465 6.75981 15.9642C6.78451 15.8819 6.7063 15.7872 6.5828 15.7501C6.47577 15.7213 6.35639 15.7625 6.32757 15.8448ZM8.14711 15.7748C8.02773 15.8037 7.9454 15.8819 7.95775 15.9766C7.9701 16.0589 8.07713 16.1124 8.20063 16.0836C8.32001 16.0548 8.40234 15.9766 8.38999 15.8942C8.37764 15.816 8.26649 15.7625 8.14711 15.7748ZM10.8558 0C5.1461 0 0.778381 4.33479 0.778381 10.0445C0.778381 14.6098 3.65177 18.5165 7.75603 19.8915C8.28296 19.9861 8.46821 19.6609 8.46821 19.3933C8.46821 19.1381 8.45586 17.7302 8.45586 16.8658C8.45586 16.8658 5.57423 17.4832 4.96909 15.639C4.96909 15.639 4.4998 14.4411 3.82467 14.1323C3.82467 14.1323 2.88197 13.486 3.89054 13.4984C3.89054 13.4984 4.91557 13.5807 5.47955 14.5604C6.38109 16.1495 7.89188 15.6925 8.48056 15.4208C8.57524 14.7622 8.84282 14.3052 9.13921 14.0335C6.83803 13.7783 4.51626 13.4448 4.51626 9.48467C4.51626 8.3526 4.82912 7.78451 5.48778 7.05999C5.38075 6.79241 5.03084 5.68915 5.59481 4.26481C6.45518 3.99723 8.43527 5.37629 8.43527 5.37629C9.2586 5.14576 10.1437 5.02638 11.0205 5.02638C11.8973 5.02638 12.7824 5.14576 13.6057 5.37629C13.6057 5.37629 15.5858 3.99311 16.4462 4.26481C17.0102 5.69327 16.6603 6.79241 16.5532 7.05999C17.2119 7.78863 17.6153 8.35672 17.6153 9.48467C17.6153 13.4572 15.1906 13.7742 12.8894 14.0335C13.2682 14.3587 13.5893 14.9762 13.5893 15.9436C13.5893 17.3309 13.5769 19.0476 13.5769 19.3851C13.5769 19.6527 13.7663 19.9779 14.2891 19.8832C18.4057 18.5165 21.1968 14.6098 21.1968 10.0445C21.1968 4.33479 16.5656 0 10.8558 0ZM4.77972 14.1982C4.72621 14.2394 4.73856 14.334 4.80854 14.4123C4.87441 14.4781 4.96909 14.5069 5.0226 14.4534C5.07612 14.4123 5.06377 14.3176 4.99379 14.2394C4.92792 14.1735 4.83324 14.1447 4.77972 14.1982ZM4.33513 13.8647C4.30631 13.9183 4.34748 13.9841 4.42981 14.0253C4.49568 14.0665 4.57801 14.0541 4.60683 13.9965C4.63564 13.943 4.59448 13.8771 4.51215 13.8359C4.42981 13.8112 4.36395 13.8236 4.33513 13.8647ZM5.66891 15.3303C5.60305 15.3838 5.62775 15.5073 5.72243 15.5855C5.81711 15.6802 5.93649 15.6925 5.99001 15.6267C6.04352 15.5731 6.01882 15.4496 5.93649 15.3714C5.84593 15.2767 5.72243 15.2644 5.66891 15.3303ZM5.19962 14.7251C5.13375 14.7663 5.13375 14.8733 5.19962 14.968C5.26548 15.0627 5.37663 15.1038 5.43015 15.0627C5.49601 15.0092 5.49601 14.9021 5.43015 14.8074C5.37252 14.7128 5.26548 14.6716 5.19962 14.7251Z" fill="#553D67"/>
</svg>
