<svg width="21" height="21" viewBox="0 0 21 21" fill="none" xmlns="http://www.w3.org/2000/svg">
<path d="M10.8034 0.678833C8.10922 0.678833 7.77111 0.690614 6.71294 0.738768C5.65685 0.78713 4.93597 0.954328 4.30521 1.19965C3.65275 1.45303 3.09928 1.79197 2.54787 2.34358C1.99606 2.89498 1.65712 3.44845 1.40291 4.10071C1.15697 4.73168 0.989564 5.45276 0.942029 6.50845C0.894908 7.56661 0.882507 7.90493 0.882507 10.5991C0.882507 13.2933 0.894495 13.6304 0.942443 14.6885C0.991011 15.7446 1.15821 16.4655 1.40332 17.0963C1.65691 17.7487 1.99585 18.3022 2.54746 18.8536C3.09866 19.4054 3.65213 19.7452 4.30418 19.9986C4.93535 20.2439 5.65644 20.4111 6.71232 20.4595C7.77049 20.5076 8.1084 20.5194 10.8024 20.5194C13.4968 20.5194 13.8338 20.5076 14.892 20.4595C15.9481 20.4111 16.6698 20.2439 17.301 19.9986C17.9532 19.7452 18.5059 19.4054 19.0571 18.8536C19.6089 18.3022 19.9478 17.7487 20.202 17.0965C20.4459 16.4655 20.6133 15.7444 20.6629 14.6888C20.7105 13.6306 20.7229 13.2933 20.7229 10.5991C20.7229 7.90493 20.7105 7.56682 20.6629 6.50865C20.6133 5.45256 20.4459 4.73168 20.202 4.10092C19.9478 3.44845 19.6089 2.89498 19.0571 2.34358C18.5053 1.79176 17.9534 1.45282 17.3004 1.19965C16.6679 0.954328 15.9467 0.78713 14.8906 0.738768C13.8324 0.690614 13.4955 0.678833 10.8005 0.678833H10.8034ZM9.91347 2.46655C10.1776 2.46614 10.4723 2.46655 10.8034 2.46655C13.4521 2.46655 13.7661 2.47606 14.812 2.52359C15.7793 2.56782 16.3042 2.72944 16.6539 2.86522C17.1168 3.04503 17.4469 3.25997 17.7939 3.60718C18.1411 3.95439 18.356 4.28506 18.5363 4.74801C18.672 5.09729 18.8339 5.62223 18.8779 6.58946C18.9254 7.63522 18.9358 7.94937 18.9358 10.5968C18.9358 13.2443 18.9254 13.5585 18.8779 14.6042C18.8337 15.5714 18.672 16.0964 18.5363 16.4457C18.3565 16.9086 18.1411 17.2383 17.7939 17.5853C17.4467 17.9325 17.117 18.1474 16.6539 18.3272C16.3046 18.4636 15.7793 18.6248 14.812 18.6691C13.7663 18.7166 13.4521 18.7269 10.8034 18.7269C8.15448 18.7269 7.84055 18.7166 6.79479 18.6691C5.82756 18.6244 5.30261 18.4628 4.95271 18.327C4.48977 18.1472 4.15909 17.9323 3.81188 17.5851C3.46467 17.2379 3.24973 16.908 3.06952 16.4448C2.93373 16.0956 2.77191 15.5706 2.72789 14.6034C2.68035 13.5576 2.67084 13.2435 2.67084 10.5944C2.67084 7.94523 2.68035 7.63274 2.72789 6.58698C2.77211 5.61975 2.93373 5.09481 3.06952 4.74512C3.24932 4.28217 3.46467 3.95149 3.81188 3.60428C4.15909 3.25707 4.48977 3.04213 4.95271 2.86192C5.3024 2.72551 5.82756 2.56431 6.79479 2.51987C7.70993 2.47854 8.06458 2.46614 9.91347 2.46407V2.46655ZM16.0988 4.11373C15.8633 4.11373 15.6331 4.18356 15.4374 4.31438C15.2416 4.44521 15.089 4.63115 14.9989 4.8487C14.9088 5.06625 14.8853 5.30563 14.9312 5.53656C14.9772 5.76749 15.0906 5.97961 15.2572 6.14607C15.4237 6.31254 15.6358 6.42589 15.8668 6.47178C16.0977 6.51766 16.3371 6.49403 16.5546 6.40386C16.7721 6.3137 16.958 6.16105 17.0888 5.96523C17.2195 5.76941 17.2893 5.53921 17.2892 5.30375C17.2892 4.64653 16.756 4.11332 16.0988 4.11332V4.11373ZM10.8034 5.50464C7.98997 5.50464 5.70893 7.78568 5.70893 10.5991C5.70893 13.4125 7.98997 15.6926 10.8034 15.6926C13.6168 15.6926 15.8973 13.4125 15.8973 10.5991C15.8973 7.78568 13.6168 5.50464 10.8034 5.50464ZM10.8034 7.29235C12.6296 7.29235 14.1102 8.77275 14.1102 10.5991C14.1102 12.4253 12.6296 13.9059 10.8034 13.9059C8.97704 13.9059 7.49665 12.4253 7.49665 10.5991C7.49665 8.77275 8.97704 7.29235 10.8034 7.29235Z" fill="#553D67"/>
</svg>
