<svg width="22" height="22" viewBox="0 0 22 22" fill="none" xmlns="http://www.w3.org/2000/svg">
<path d="M18.0044 18.0042H14.8735V13.101C14.8735 11.9318 14.8526 10.4267 13.2451 10.4267C11.6144 10.4267 11.3649 11.7006 11.3649 13.0159V18.0039H8.23397V7.92102H11.2396V9.29894H11.2817C11.8946 8.25105 13.0342 7.62519 14.2473 7.67022C17.4206 7.67022 18.0057 9.75749 18.0057 12.4729L18.0044 18.0042ZM4.70126 6.54276C3.08246 6.54305 2.2717 4.58614 3.41602 3.44141C4.56034 2.29667 6.51755 3.10673 6.51784 4.72553C6.51802 5.72898 5.70471 6.54258 4.70126 6.54276ZM6.26672 18.0042H3.13254V7.92102H6.26672V18.0042ZM19.5653 0.00144172H1.55926C0.708259 -0.00816183 0.010386 0.673508 0 1.5245V19.6052C0.0100304 20.4566 0.707847 21.1389 1.55926 21.1299H19.5653C20.4184 21.1406 21.1189 20.4583 21.1307 19.6052V1.5232C21.1186 0.670522 20.418 -0.0111085 19.5653 0.000137173" fill="#553D67"/>
</svg>
