<svg width="20" height="18" viewBox="0 0 20 18" fill="none" xmlns="http://www.w3.org/2000/svg">
<path d="M19.0431 8.99935C19.0431 7.84599 18.1071 6.90994 16.9537 6.90994C16.3854 6.90994 15.8839 7.12724 15.5162 7.49497C14.0954 6.47534 12.123 5.80673 9.95001 5.72315L10.9028 1.26017L13.9951 1.91207C14.0285 2.69769 14.6804 3.33287 15.4828 3.33287C16.3018 3.33287 16.9704 2.66426 16.9704 1.84521C16.9704 1.02616 16.3018 0.357544 15.4828 0.357544C14.8977 0.357544 14.3963 0.69185 14.1623 1.19331L10.7022 0.457837C10.6019 0.441121 10.5016 0.457836 10.418 0.507982C10.3345 0.558128 10.2843 0.641704 10.2509 0.741996L9.19782 5.72315C6.97468 5.79002 4.98556 6.44191 3.54805 7.49497C3.18031 7.14395 2.66214 6.90994 2.11053 6.90994C0.957175 6.90994 0.0211182 7.84599 0.0211182 8.99935C0.0211182 9.85183 0.522577 10.5706 1.25805 10.9049C1.22462 11.1055 1.2079 11.3228 1.2079 11.5401C1.2079 14.7494 4.93542 17.3403 9.54884 17.3403C14.1623 17.3403 17.8898 14.7494 17.8898 11.5401C17.8898 11.3228 17.8731 11.1222 17.8396 10.9216C18.525 10.5873 19.0431 9.85183 19.0431 8.99935ZM4.75155 10.487C4.75155 9.66796 5.42016 8.99935 6.23921 8.99935C7.05826 8.99935 7.72687 9.66796 7.72687 10.487C7.72687 11.3061 7.05826 11.9747 6.23921 11.9747C5.42016 11.9747 4.75155 11.3061 4.75155 10.487ZM13.0591 14.4151C12.0394 15.4347 10.1004 15.5016 9.53212 15.5016C8.9638 15.5016 7.00811 15.418 6.00519 14.4151C5.85476 14.2647 5.85476 14.0139 6.00519 13.8635C6.15563 13.7131 6.40636 13.7131 6.5568 13.8635C7.19198 14.4987 8.56264 14.7327 9.54884 14.7327C10.535 14.7327 11.889 14.4987 12.5409 13.8635C12.6913 13.7131 12.942 13.7131 13.0925 13.8635C13.2095 14.0307 13.2095 14.2647 13.0591 14.4151ZM12.7916 11.9747C11.9726 11.9747 11.3039 11.3061 11.3039 10.487C11.3039 9.66796 11.9726 8.99935 12.7916 8.99935C13.6107 8.99935 14.2793 9.66796 14.2793 10.487C14.2793 11.3061 13.6107 11.9747 12.7916 11.9747Z" fill="#553D67"/>
</svg>
