<svg width="23" height="18" viewBox="0 0 23 18" fill="none" xmlns="http://www.w3.org/2000/svg">
<path d="M22.1377 2.12297C21.3326 2.47958 20.4666 2.71752 19.5532 2.8301C20.4819 2.27876 21.1963 1.39941 21.5316 0.360612C20.6626 0.869967 19.6999 1.24423 18.6757 1.4414C17.8578 0.574212 16.6912 0.0362549 15.3986 0.0362549C12.9158 0.0362549 10.9033 2.03108 10.9033 4.49084C10.9033 4.83893 10.9441 5.17789 11.0207 5.50711C7.28547 5.31968 3.97252 3.54393 1.75619 0.849277C1.36672 1.50773 1.14764 2.27876 1.14764 3.09239C1.14764 4.63871 1.93936 6.00004 3.14672 6.80211C2.40977 6.77959 1.71602 6.57451 1.10869 6.24589C1.10869 6.25928 1.10869 6.27936 1.10869 6.29823C1.10869 8.45919 2.65867 10.2587 4.71313 10.6682C4.33765 10.7711 3.94088 10.8283 3.53193 10.8283C3.24166 10.8283 2.95868 10.7954 2.68483 10.7461C3.25687 12.5121 4.91638 13.8029 6.88261 13.8412C5.34419 15.034 3.40657 15.7484 1.29977 15.7484C0.935862 15.7484 0.579861 15.7277 0.228119 15.6851C2.21868 16.9454 4.58229 17.6842 7.11933 17.6842C15.3865 17.6842 19.9092 10.8952 19.9092 5.00567C19.9092 4.81276 19.9031 4.62046 19.894 4.43059C20.7764 3.80744 21.5371 3.02119 22.1377 2.12297Z" fill="#553D67"/>
</svg>
