<svg width="198" height="199" viewBox="0 0 198 199" fill="none" xmlns="http://www.w3.org/2000/svg">
<g style="mix-blend-mode:color">
<rect x="0.00537109" y="99.4999" width="140" height="140" rx="45" transform="rotate(-45 0.00537109 99.4999)" fill="#94779D"/>
</g>
<rect x="29" y="29.4999" width="140" height="140" rx="45" fill="#553D67"/>
<path d="M121.935 138.077C121.837 136.785 121.497 135.508 120.913 134.352C120.52 134.096 120.522 134.762 120.461 134.991C119.634 139.881 117.588 144.466 115.569 148.968C115.277 149.496 115.112 150.142 114.665 150.56C114.693 149.806 115.184 149.146 115.428 148.448C116.969 144.997 118.505 141.515 119.477 137.854C119.759 136.564 120.154 135.271 120.211 133.948C119.998 133.552 119.52 134.026 119.238 134.107C115.931 135.739 113.503 139.151 113.308 142.868C113 145.805 113.417 148.751 113.536 151.685C113.61 152.213 113.529 152.768 113.633 153.284C113.981 153.61 114.256 152.969 114.484 152.786C116.975 149.985 119.767 147.277 121.236 143.76C121.925 142.075 122.2 140.228 121.967 138.419C121.957 138.305 121.945 138.191 121.935 138.077Z" fill="#89A02C"/>
<path d="M122.464 137.893C122.284 136.447 121.854 135.027 121.183 133.721C121.183 133.721 121.015 133.466 120.836 133.303C121.109 130.62 120.986 127.901 120.326 125.292C120.326 125.292 119.964 123.968 119.639 124.074C119.4 124.152 119.709 125.448 119.709 125.448C120.353 127.978 120.469 130.629 120.199 133.254C119.964 133.264 119.704 133.339 119.704 133.339C116.212 134.814 113.528 138.006 112.939 141.777C112.384 145.456 112.93 149.149 113.118 152.788C113.118 152.788 113.183 153.942 113.483 153.936C113.501 153.936 113.514 153.92 113.531 153.911C113.534 153.951 113.546 153.986 113.572 154.011C113.777 154.199 114.6 153.369 114.6 153.369C117.027 150.77 119.569 148.18 121.241 144.976C122.369 142.792 122.763 140.303 122.464 137.893ZM121.836 137.97C122.122 140.26 121.748 142.625 120.675 144.682C119.073 147.78 116.563 150.323 114.132 152.933C114.132 152.933 113.874 153.228 113.695 153.517C113.755 153.175 113.756 152.754 113.756 152.754C113.57 149.074 113.021 145.424 113.569 141.873C114.096 138.339 116.651 135.31 119.95 133.925C119.95 133.925 120.058 133.859 120.128 133.82C119.966 135.124 119.721 136.42 119.387 137.689C118.285 141.868 116.465 145.832 114.662 149.804C114.662 149.804 114.323 150.674 114.585 150.743C114.839 150.809 115.243 150.068 115.243 150.068C117.047 146.099 118.879 142.1 120.003 137.852C120.316 136.669 120.552 135.461 120.718 134.243C121.291 135.417 121.675 136.678 121.836 137.97Z" fill="#677821"/>
<path d="M129.306 133.883C127.771 132.386 125.973 131.151 124.002 130.267C124.002 130.267 123.574 130.128 123.219 130.105C121.067 126.772 118.428 123.761 115.272 121.37C115.272 121.37 113.639 120.181 113.363 120.601C113.16 120.911 114.706 122.116 114.706 122.116C117.771 124.431 120.341 127.37 122.443 130.634C122.181 130.86 121.952 131.186 121.952 131.186C119.295 136.09 119.145 142.224 121.933 147.098C124.675 151.834 128.696 155.576 132.255 159.583C132.255 159.583 133.391 160.85 133.73 160.568C133.75 160.55 133.751 160.52 133.761 160.494C133.802 160.537 133.848 160.566 133.9 160.571C134.309 160.6 134.492 158.89 134.492 158.89C134.892 153.674 135.433 148.361 134.409 143.144C133.699 139.598 131.866 136.376 129.306 133.883ZM128.656 134.547C131.089 136.915 132.833 139.977 133.489 143.326C134.495 148.357 133.948 153.585 133.554 158.819C133.554 158.819 133.528 159.395 133.588 159.89C133.343 159.442 132.958 158.958 132.958 158.958C129.362 154.901 125.377 151.212 122.745 146.628C120.103 142.084 120.255 136.257 122.772 131.633C122.772 131.633 122.836 131.458 122.88 131.349C123.893 132.996 124.802 134.711 125.584 136.476C128.158 142.289 129.71 148.516 131.288 154.736C131.288 154.736 131.698 156.048 132.061 155.886C132.415 155.729 132.198 154.506 132.198 154.506C130.623 148.287 129.054 142.01 126.442 136.096C125.715 134.45 124.875 132.846 123.947 131.294C125.685 132.116 127.284 133.212 128.656 134.547Z" fill="#677821"/>
<path d="M128.873 134.578C127.573 133.182 126.009 132.029 124.276 131.237C123.589 131.305 124.204 132.067 124.344 132.387C127.887 138.765 129.749 145.913 131.567 152.94C131.715 153.815 132.12 154.708 131.99 155.599C131.329 154.708 131.287 153.499 130.926 152.472C129.525 147.092 128.091 141.68 125.844 136.581C124.982 134.839 124.248 132.99 123.099 131.418C122.49 131.159 122.375 132.143 122.127 132.495C119.826 137.409 120.172 143.56 123.363 148.009C125.708 151.667 128.894 154.668 131.727 157.93C132.297 158.469 132.714 159.18 133.307 159.678C134.007 159.732 133.734 158.744 133.828 158.323C134.115 152.816 134.835 147.14 133.291 141.749C132.535 139.18 131.153 136.806 129.224 134.94C129.107 134.819 128.989 134.7 128.873 134.578Z" fill="#ABC837"/>
<path d="M36.9117 141.79C36.5604 141.133 36.9239 140.909 36.9239 140.909C38.9238 139.795 40.8201 138.511 42.101 136.827C41.5477 136.822 40.996 136.844 40.4423 136.825C40.4423 136.825 36.9898 136.558 37.0781 135.803C37.1524 135.144 40.5076 135.302 40.5076 135.302C41.0981 135.327 41.6874 135.303 42.2773 135.307C40.7129 132.264 38.893 129.338 36.1202 127.855C36.1202 127.855 35.665 127.523 35.9528 126.918C36.2761 126.233 36.846 126.523 36.846 126.523C40.2745 128.451 42.3856 131.931 44.0214 135.319C44.9661 135.295 45.9075 135.219 46.8516 135.145C45.6611 131.406 44.5193 127.297 41.4959 125.899C41.4959 125.899 41.0241 125.603 41.2641 124.983C41.5404 124.271 42.1602 124.56 42.1602 124.56C45.9556 126.555 47.3566 131.132 48.4221 134.97C48.4221 134.97 48.3973 135.019 48.3973 135.036C49.9074 134.88 51.4169 134.657 52.9223 134.398C52.2807 132.044 51.0535 129.733 49.0159 129.037C49.0159 129.037 48.7067 128.847 48.8939 128.202C49.1033 127.475 49.5478 127.629 49.5478 127.629C52.2562 128.724 53.8122 131.431 54.4461 134.115C58.0086 133.429 61.5418 132.487 65.046 131.423C64.6164 130.321 64.0353 129.303 63.3962 128.321C62.6219 129.55 61.6826 130.631 60.7837 131.67C60.7837 131.67 60.5725 131.879 60.0084 131.398C59.4914 130.956 59.6176 130.672 59.6176 130.672C60.4217 129.727 61.1866 128.799 61.8418 127.838C60.2047 128.908 58.2904 129.416 56.4597 129.674C56.4597 129.674 56.0936 129.633 55.9971 128.963C55.8908 128.228 56.2264 128.149 56.2264 128.149C56.6297 128.083 57.0288 128.006 57.4252 127.925C57.2454 127.859 57.0846 127.758 57.0129 127.542C56.7985 126.884 57.8938 126.463 57.8938 126.463C59.0264 126.134 60.1994 125.895 61.3834 125.719C60.6561 124.912 59.8868 124.137 59.0358 123.428C56.996 124.587 54.6363 124.503 52.5418 124.24C52.5418 124.24 52.2193 124.108 52.296 123.434C52.3818 122.697 52.7149 122.706 52.7149 122.706C54.5153 122.879 56.3147 123.025 57.7172 122.421C55.4079 120.718 52.8214 119.301 50.144 118.181C50.144 118.181 49.1527 117.677 49.3935 117.052C49.6649 116.351 50.7304 116.761 50.7304 116.761C52.0471 117.302 53.3396 117.936 54.6033 118.622C54.2479 116.383 52.7805 114.345 50.7768 113.139C50.7768 113.139 50.4427 112.843 50.7602 112.252C51.1165 111.59 51.5652 111.831 51.5652 111.831C54.2555 113.475 56.0848 116.358 56.1973 119.539C57.8285 120.537 59.3619 121.675 60.7603 122.947C61.1413 120.835 60.3117 118.506 58.671 117.083C58.671 117.083 58.4311 116.765 58.8401 116.233C59.3011 115.639 59.6771 115.939 59.6771 115.939C61.0052 117.116 61.8743 118.717 62.2055 120.427C63.9103 121.604 65.3905 123.278 65.9006 125.39C66.771 125.406 67.6287 125.488 68.4799 125.603C68.3958 125.545 68.2383 125.4 68.2985 124.873C68.3842 124.138 68.6836 124.14 68.6836 124.14C68.7578 124.147 68.8387 124.142 68.9145 124.146C68.2391 122.85 67.1535 121.704 65.9013 120.802C65.3727 120.851 64.844 120.868 64.3192 120.843C64.3192 120.843 63.977 120.739 64.0199 120.059C64.0694 119.32 64.3761 119.31 64.3761 119.31C66.1435 119.368 67.907 119.04 69.2582 118.124C66.9279 116.045 64.185 114.307 61.2638 112.882C59.9877 114.326 58.153 114.78 56.5633 115.078C56.5633 115.078 56.2961 115.037 56.1551 114.378C56.0025 113.655 56.245 113.569 56.245 113.569C57.6556 113.236 59.0167 112.957 59.8128 112.184C58.9137 111.783 58.0061 111.398 57.0933 111.055C57.0933 111.055 55.8178 110.489 56.0326 109.86C56.2767 109.145 57.6281 109.609 57.6281 109.609C59.5651 110.319 61.483 111.184 63.3326 112.17C63.6707 109.969 63.2748 107.646 62.1852 105.697C62.1852 105.697 62.0624 105.318 62.6389 104.965C63.2771 104.574 63.5162 104.949 63.5162 104.949C64.8705 107.373 65.3289 110.262 64.7664 112.988C65.7665 113.575 66.7317 114.205 67.6626 114.881C68.1492 114.186 68.4642 113.385 68.6864 112.546C68.2906 112.497 67.7094 112.378 67.6815 111.865C67.6485 111.227 68.7228 111.109 68.9469 111.089C69.0211 110.373 69.0483 109.647 68.9798 108.924C68.9798 108.924 69.0294 108.572 69.6999 108.485C70.4379 108.391 70.5038 108.773 70.5038 108.773C70.5863 109.559 70.5615 110.354 70.4873 111.148C70.9368 111.181 71.3863 111.181 71.8345 111.232C71.2498 110.072 71.028 108.766 70.964 107.572C70.964 107.572 70.9722 107.292 71.7168 107.241C72.3922 107.191 72.5069 107.457 72.5069 107.457C72.6793 109.121 72.8574 110.78 73.8851 111.581C75.1075 111.812 76.3088 112.127 77.4919 112.521C77.2322 111.118 77.4177 109.676 77.802 108.37C77.802 108.37 77.9051 108.101 78.6184 108.312C79.2674 108.507 79.2798 108.785 79.2798 108.785C78.8757 110.301 78.7009 111.864 79.2468 113.124C80.5591 113.661 81.8108 114.326 83.0233 115.055C83.048 113.097 83.7202 111.198 84.7807 109.589C84.7807 109.589 85.0108 109.29 85.6229 109.716C86.1779 110.102 86.0641 110.431 86.0641 110.431C84.949 112.151 84.2863 114.152 84.5875 116.052C85.8569 116.939 87.0543 117.918 88.1404 119.011C88.3515 117.125 89.0585 115.322 89.922 113.699C89.922 113.699 90.1339 113.354 90.7904 113.706C91.3874 114.027 91.2876 114.413 91.2876 114.413C90.248 116.445 89.4402 118.589 89.6333 120.654C90.1133 121.234 90.5568 121.843 90.981 122.464C94.8016 121.214 98.6567 120.067 102.597 119.2C102.597 119.2 103.387 119.1 104.061 119.15C110.021 116.604 115.913 113.959 121.44 110.698C121.44 110.698 123.509 109.613 123.743 110.196C123.985 110.8 122.218 112.013 122.218 112.013C114.451 116.589 106.092 119.965 97.8472 123.46C97.8802 123.502 97.975 123.583 97.975 123.583C99.1784 125.962 99.8314 128.486 100.067 131.072C102.9 131.453 105.085 133.487 106.541 135.743C106.541 135.743 106.749 136.114 106.118 136.509C105.547 136.868 105.254 136.593 105.254 136.593C103.937 134.652 102.215 132.913 100.16 132.616C100.201 134.222 100.073 135.842 99.8342 137.46C102.277 138.003 104.355 139.561 105.814 141.502C105.814 141.502 106.023 141.829 105.416 142.262C104.866 142.655 104.59 142.431 104.59 142.431C103.297 140.747 101.542 139.388 99.5691 138.965C99.3473 140.093 99.0694 141.212 98.737 142.323C101.005 143.937 102.636 146.365 103.295 149.062C103.295 149.062 103.377 149.5 102.642 149.648C101.981 149.782 101.811 149.422 101.811 149.422C101.284 147.251 99.9907 145.282 98.2442 143.9C97.5614 145.882 96.7452 147.821 95.8101 149.66C95.8101 149.66 95.1364 150.92 94.4705 150.562C93.8841 150.248 94.4375 148.965 94.4375 148.965C94.8729 148.092 95.2744 147.192 95.6605 146.286C94.5515 146.262 93.364 146.985 92.1047 147.702C92.1047 147.702 91.8681 147.803 91.4887 147.171C91.1407 146.589 91.3105 146.381 91.3105 146.381C92.6776 145.516 94.3301 144.599 96.2481 144.788C97.4171 141.755 98.243 138.616 98.534 135.506C96.9202 135.755 95.4071 136.717 94.1508 137.961C94.1508 137.961 93.9175 138.165 93.3806 137.656C92.8858 137.186 93.0657 136.877 93.0657 136.877C94.5417 135.38 96.4601 134.217 98.6409 133.948C98.6987 132.19 98.5998 130.449 98.241 128.771C96.6445 129.154 95.1932 130.192 94.0162 131.489C94.0162 131.489 93.7985 131.696 93.2353 131.215C92.7182 130.772 92.8774 130.463 92.8774 130.463C94.1847 128.992 95.8938 127.813 97.8644 127.308C97.5519 126.269 97.1504 125.257 96.6305 124.281C96.6305 124.281 96.6057 124.12 96.5809 124.013C95.0934 124.65 93.5976 125.274 92.1236 125.929C90.65 126.588 89.1936 127.302 87.7307 127.999C87.7472 128.024 87.805 128.073 87.805 128.073C88.7863 130.637 89.1923 133.319 89.15 136.015C91.7971 137.55 93.3021 140.603 93.0077 143.63C93.0077 143.63 92.9334 144.106 92.1945 143.984C91.5323 143.873 91.492 143.477 91.492 143.477C91.7254 141.317 90.7464 139.047 89.0294 137.759C88.8711 139.643 88.5232 141.521 88.0082 143.363C90.0916 145.769 90.7144 149.125 89.864 152.162C89.864 152.162 89.699 152.643 88.9872 152.401C88.3505 152.185 88.3935 151.741 88.3935 151.741C89.04 149.493 88.7266 147.002 87.4623 145.12C87.0046 146.483 86.4895 147.828 85.8934 149.12C85.8934 149.12 85.3912 150.145 84.7155 149.817C84.1135 149.523 84.4962 148.479 84.4962 148.479C85.6946 145.836 86.6238 143.036 87.1557 140.217C85.7171 140.729 84.4982 142.061 83.2976 143.414C83.2976 143.414 83.0601 143.647 82.4952 143.166C81.9781 142.725 82.1266 142.408 82.1266 142.408C83.4815 140.79 85.1525 139.122 87.4359 138.582C87.5975 137.313 87.6364 136.054 87.5943 134.801C85.7352 134.818 83.9139 135.875 82.1634 137.037C82.1634 137.037 81.864 137.208 81.441 136.598C81.0542 136.039 81.2957 135.762 81.2957 135.762C83.0797 134.517 85.1691 133.399 87.5137 133.291C87.3421 131.7 86.9883 130.136 86.3934 128.635C83.1021 130.242 79.8737 131.958 76.7975 133.881C77.5834 135.264 78.1377 136.858 78.2396 138.47C78.2644 138.478 78.289 138.495 78.3138 138.503C78.3138 138.503 78.6486 138.718 78.4309 139.359C78.3649 139.542 78.2948 139.669 78.2214 139.758C78.1472 140.51 77.9601 141.255 77.6261 141.97C77.6261 141.97 77.4042 142.381 76.7554 141.995C76.1782 141.649 76.2771 141.304 76.2771 141.304C76.5658 140.768 76.7052 140.175 76.7505 139.561C75.3705 138.999 74.0277 138.27 72.8785 137.282C72.8538 137.929 72.7878 138.572 72.7136 139.215C73.4285 140.698 74.0775 142.25 74.446 143.855C75.2808 144.358 76.2224 144.733 77.2003 144.98C77.2003 144.98 77.5071 145.143 77.3636 145.803C77.2053 146.533 76.8333 146.47 76.8333 146.47C76.1085 146.293 75.4053 146.02 74.7265 145.699C74.8106 146.886 74.7183 148.076 74.306 149.244C74.306 149.244 74.0494 149.879 73.3616 149.544C72.7629 149.253 72.9072 148.715 72.9072 148.715C73.4103 147.486 73.3873 146.141 73.0879 144.747C72.6376 144.421 72.2102 144.065 71.8224 143.661C71.4307 145.02 70.967 146.36 70.3716 147.647C70.8284 148.943 72.0198 149.969 73.3479 150.804C73.3479 150.804 73.5285 151.017 73.1854 151.601C72.8086 152.243 72.5496 152.116 72.5496 152.116C71.3933 151.426 70.288 150.508 69.5236 149.322C69.4287 150.025 69.2969 150.729 69.0758 151.421C69.0758 151.421 68.8556 152.019 68.1525 151.739C68.103 151.714 68.0783 151.681 68.028 151.655C67.8507 151.914 67.6816 152.179 67.4953 152.433C67.2874 153.72 68.287 155.055 69.294 156.391C69.294 156.391 69.3914 156.662 68.8619 157.087C68.2838 157.553 68.085 157.357 68.085 157.357C67.3181 156.439 66.5927 155.332 66.2306 154.084C65.6295 154.781 65.0021 155.453 64.3321 156.08C64.3321 156.08 63.2114 156.989 62.759 156.447C62.2997 155.896 63.2786 154.961 63.2786 154.961C64.3402 153.961 65.2817 152.834 66.1594 151.654C65.0033 151.919 63.8319 152.053 62.7035 152.146C62.7035 152.146 62.391 152.088 62.3341 151.408C62.2681 150.668 62.5733 150.619 62.5733 150.619C64.3581 150.449 66.0922 150.258 67.5705 149.598C67.766 149.275 67.9367 148.941 68.1165 148.61C68.1742 147.882 68.166 147.14 68.1 146.387C66.92 146.658 65.6947 146.72 64.4989 146.58C64.4989 146.58 64.1468 146.449 64.2441 145.774C64.3505 145.041 64.6721 145.056 64.6721 145.056C65.7554 145.179 66.8455 145.114 67.8743 144.874C67.6764 143.682 67.41 142.483 67.0752 141.291C66.6456 141.696 66.1978 142.08 65.7828 142.5C65.7828 142.5 63.435 144.899 62.9299 144.468C62.3502 143.975 64.6979 141.429 64.6979 141.429C64.9329 141.193 65.182 140.972 65.4286 140.749C65.1218 140.782 64.8118 140.838 64.5091 140.868C64.5091 140.868 64.1257 140.818 64.0473 140.17C62.5089 140.177 60.9162 140.447 59.3401 140.834C59.3401 140.834 58.9229 140.918 58.7333 140.198C58.5626 139.538 58.9609 139.344 58.9609 139.344C61.5567 138.667 64.3902 138.267 67.1173 138.986C67.1915 138.978 67.2756 138.969 67.3523 138.953C68.3021 138.117 69.2765 137.313 70.2774 136.539C68.9931 135.122 66.6572 134.957 64.5208 135.395C64.5208 135.395 64.1678 135.445 63.9848 134.731C63.8132 134.066 64.1943 133.889 64.1943 133.889C66.6458 133.327 69.441 133.648 71.3392 135.49C71.2815 134.146 71.1306 132.805 70.8238 131.499C70.8238 131.499 70.8403 131.33 70.8486 131.196C66.6372 132.628 62.3364 133.945 57.9702 134.953C58.0362 135.099 58.0881 135.263 58.0881 135.263C58.1211 138.317 57.1394 141.153 55.5533 143.691C57.1816 145.999 57.4675 148.986 56.8435 151.669C56.8435 151.669 56.6523 152.097 55.9915 151.924C55.279 151.735 55.3449 151.327 55.3449 151.327C55.82 149.153 55.7069 146.798 54.6546 145.027C53.9347 145.994 53.1337 146.906 52.2523 147.757C53.3394 149.691 53.3826 151.983 52.9038 154.04C52.9038 154.04 52.7356 154.367 52.0743 154.201C51.3577 154.02 51.403 153.704 51.403 153.704C51.7716 151.979 51.8285 150.166 51.1152 148.767C49.4383 150.2 47.5923 151.451 45.6525 152.425C45.6525 152.425 44.5636 152.862 44.2728 152.234C43.9685 151.574 44.9506 151.047 44.9506 151.047C46.1426 150.431 47.2896 149.693 48.3973 148.901C47.0468 148.498 45.5652 148.348 44.0484 148.169C44.0484 148.169 43.7622 148.047 43.8405 147.372C43.9255 146.634 44.2232 146.644 44.2232 146.644C46.0605 146.844 48.0052 147.045 49.8611 147.789C51.9879 146.033 53.774 143.962 54.9769 141.676C53.4657 141.838 51.9079 142.389 50.2277 142.769C50.2277 142.769 49.897 142.753 49.7552 142.09C49.6026 141.367 49.883 141.275 49.883 141.275C51.6984 140.849 53.6049 140.132 55.7162 140.086L55.7326 140.111C56.3231 138.574 56.6319 136.956 56.5752 135.288L56.5834 135.263C54.1964 135.775 51.7905 136.169 49.3751 136.448C49.3338 139.188 47.4462 141.404 45.2096 142.696C45.2096 142.696 44.8105 142.826 44.4823 142.222C44.1293 141.574 44.4245 141.37 44.4245 141.37C46.2875 140.237 47.8857 138.525 47.8615 136.613C46.5702 136.731 45.278 136.808 43.9817 136.842C42.4792 139.303 40.073 140.967 37.6649 142.265C37.6649 142.265 37.2366 142.392 36.9117 141.79ZM69.3461 144.335C69.6224 144.2 69.9077 144.079 70.1625 143.909C70.6211 142.473 70.9155 141.005 71.1132 139.524C70.2269 139.874 69.3159 140.112 68.4013 140.301C68.7979 141.605 69.1147 142.962 69.3461 144.335ZM62.0398 124.138C62.4686 124.585 62.8728 125.051 63.2645 125.53C63.6389 125.497 64.0084 125.435 64.3843 125.419C64.0676 124.31 63.2895 123.321 62.3286 122.472C62.2873 123.032 62.2064 123.592 62.0398 124.138ZM64.3493 126.985C65.1813 128.194 65.9022 129.483 66.4622 130.871C66.4622 130.871 66.4457 130.945 66.4583 130.973C66.8945 130.837 67.3278 130.694 67.7639 130.556C67.7887 130.482 67.8217 130.416 67.8217 130.416C69.3112 129.55 70.8273 128.893 72.0441 127.983C69.6714 127.15 67.0278 126.852 64.3493 126.985ZM69.0277 125.677C69.1926 125.702 69.3591 125.718 69.5224 125.751C69.5194 125.735 69.5059 125.71 69.4976 125.694C69.341 125.693 69.1843 125.687 69.0277 125.677ZM72.8194 134.696C74.3701 133.605 75.9495 132.552 77.5832 131.578C77.5825 131.577 77.5584 131.569 77.5584 131.569C76.897 130.808 76.1426 130.163 75.3291 129.602C74.2485 129.991 73.1788 130.394 72.0911 130.765C72.2057 130.943 72.2988 131.137 72.2988 131.137C72.5718 132.31 72.7336 133.499 72.8194 134.696ZM73.7127 135.943C74.5357 136.693 75.5263 137.299 76.6121 137.797C76.4027 136.753 76.0052 135.69 75.4878 134.704C74.8825 135.1 74.3063 135.532 73.7127 135.943ZM67.8465 120.4C69.0055 121.434 69.9795 122.682 70.5583 124.119C71.6564 124.024 72.7171 123.766 73.6323 123.249C72.7521 121.776 71.6404 120.433 70.4004 119.185C69.6178 119.752 68.7462 120.131 67.8465 120.4ZM71.0899 126.112C72.628 126.527 74.0907 127.138 75.4402 127.942C75.5062 127.917 75.5828 127.892 75.6538 127.868C75.596 127.772 75.5094 127.636 75.5094 127.636C75.2225 126.568 74.8324 125.552 74.3522 124.579C73.2997 125.151 72.1544 125.469 70.9898 125.612C71.0228 125.781 71.0635 125.942 71.0899 126.112ZM68.8816 115.799C70.1585 116.82 71.3579 117.918 72.4187 119.125C73.3457 117.973 73.6315 116.395 73.6021 114.749C72.9003 115.204 72.2106 115.723 71.5156 116.256C71.5156 116.256 71.2592 116.427 70.8032 115.839C70.3859 115.303 70.5714 115.047 70.5714 115.047C71.4614 114.347 72.4102 113.647 73.4377 113.055C72.3782 112.858 71.3114 112.736 70.2446 112.665C69.9741 113.772 69.5407 114.842 68.8816 115.799ZM73.4048 120.317C74.9926 122.371 76.2335 124.664 76.9716 127.225C76.9716 127.225 76.9552 127.351 76.9634 127.403C81.1193 125.895 85.276 124.347 89.4787 122.932C89.0589 122.348 88.612 121.782 88.1394 121.238C87.6512 120.676 87.1373 120.129 86.5948 119.615C86.5783 119.64 86.5537 119.701 86.5537 119.701C84.3838 120.345 82.4672 121.83 80.497 123.304C80.497 123.304 80.1696 123.521 79.7209 122.926C79.3119 122.384 79.571 122.078 79.571 122.078C81.3097 120.752 83.1644 119.398 85.316 118.557C84.1628 117.606 82.9475 116.732 81.6342 115.993C79.7927 116.286 78.1129 117.412 76.8376 118.899C76.8376 118.899 76.6125 119.128 76.0361 118.665C75.5033 118.237 75.674 117.9 75.674 117.9C76.7383 116.65 78.093 115.63 79.6278 115.005C78.4078 114.448 77.1579 113.964 75.8693 113.597C75.6104 113.681 75.3631 113.802 75.1132 113.921C75.2773 116.167 74.8985 118.499 73.4048 120.317ZM77.0101 129.001C77.6031 129.468 78.1671 129.983 78.6887 130.557C78.6887 130.557 78.759 130.717 78.8102 130.866C82.6938 128.631 86.7406 126.668 90.7999 124.849C90.7018 124.757 90.5773 124.644 90.5773 124.644C90.5113 124.523 90.4256 124.414 90.3522 124.297C85.8991 125.791 81.4574 127.394 77.0101 129.001ZM92.0022 124.308C93.5863 123.605 95.1794 122.946 96.7731 122.268C95.1232 122.74 93.4851 123.277 91.8477 123.81C91.8642 123.834 91.8889 123.867 91.9054 123.892C91.9054 123.892 91.9676 124.099 92.0022 124.308Z" fill="#718A1B"/>
<path d="M89.6589 43.1117C88.9819 43.1942 88.9472 43.6402 88.9472 43.6402C89.2738 46.3559 89.9419 49.204 91.6831 51.5028C91.2394 52.7214 90.8397 53.9526 90.4771 55.1975C88.6886 54.5204 87.6802 52.4069 87.3065 50.2583C87.3065 50.2583 87.2241 49.911 86.4926 50.0026C85.8106 50.0867 85.785 50.5057 85.785 50.5057C86.1693 53.0598 87.5421 55.6243 90.0765 56.6679C89.4522 59.0179 88.9393 61.4014 88.5423 63.8102C88.5416 63.8098 88.5258 63.7936 88.5258 63.7936C86.9527 63.2362 85.5595 62.3565 84.3451 61.2452C84.3492 61.2429 84.3782 61.2372 84.3782 61.2372C85.1072 59.2553 85.1368 57.2186 85.4052 55.3734C85.4052 55.3734 85.4217 55.0772 84.6936 54.9551C84.0223 54.8438 83.8879 55.1474 83.8879 55.1474C83.6273 56.8502 83.5704 58.5015 83.168 59.967C81.4806 58.0113 80.2064 55.5916 79.3496 52.9697C80.7211 51.5146 81.6197 49.7782 82.4777 48.1413C82.4777 48.1413 82.5955 47.8685 81.9407 47.5196C81.3412 47.1997 81.1227 47.4215 81.1227 47.4215C80.4019 48.7679 79.7195 50.0917 78.8513 51.2015C78.5189 49.8807 78.2517 48.5432 78.114 47.2083C78.114 47.2083 77.9829 46.1018 77.2575 46.143C76.5664 46.1843 76.5754 47.3576 76.5754 47.3576C76.7725 49.5192 77.2608 51.6948 77.9818 53.7798C76.4187 53.9316 74.7524 53.2156 73.2813 52.2411C73.2813 52.2411 73.0042 52.0829 72.5737 52.6841C72.177 53.2391 72.4203 53.5151 72.4203 53.5151C74.1591 54.7131 76.3082 55.5108 78.5057 55.2068C78.9758 56.3385 79.5311 57.4177 80.1677 58.4414C78.1348 58.773 75.9019 58.0168 74.0525 56.7794C74.0525 56.7794 73.6962 56.5684 73.26 57.163C72.8551 57.7147 73.1858 58.0491 73.1858 58.0491C75.4551 59.6112 78.339 60.4381 81.0824 59.7667C82.8651 62.1715 85.1449 64.1272 87.9988 65.2128C87.9988 65.2128 88.172 65.2168 88.3312 65.2128C87.6714 69.6449 87.3246 74.1297 87.1167 78.573C86.9955 78.5152 86.8438 78.4408 86.8438 78.4408C85.4615 78.2413 84.1027 77.8817 82.7825 77.4138C82.0816 77.1647 81.3839 76.8868 80.7072 76.5699C80.7237 76.5452 80.7731 76.504 80.7731 76.504C80.5785 74.249 81.2597 71.9222 81.911 69.5492C81.911 69.5492 81.9934 69.1649 81.2759 68.9654C80.622 68.7831 80.4322 69.136 80.4322 69.136C79.8335 71.2395 79.2524 73.461 79.2559 75.7714C77.9497 75.0457 76.691 74.2347 75.5229 73.2827C75.1221 71.4615 75.5559 69.4861 76.4733 67.7553C76.4733 67.7553 76.6044 67.4617 75.962 67.0947C75.3691 66.7558 75.1182 67.0371 75.1182 67.0371C74.3438 68.4849 73.8899 70.1187 73.8694 71.776C72.905 70.8442 71.998 69.8579 71.1848 68.793C71.1105 67.1755 71.5681 65.4917 72.0626 63.7685C72.0626 63.7685 72.1286 63.4665 71.4153 63.2571C70.7638 63.0649 70.5931 63.3313 70.5931 63.3313C70.2673 64.4157 69.963 65.5547 69.7874 66.7278C69.0097 65.4792 68.3045 64.1906 67.7631 62.837C67.7631 62.837 67.2502 61.5844 66.5699 61.81C65.8995 62.0326 66.3356 63.4081 66.3356 63.4081C66.6746 64.2611 67.0705 65.0905 67.4991 65.9053C66.2053 65.7858 64.9093 66.0564 63.7744 66.4341C63.7744 66.4341 63.5188 66.5479 63.7415 67.2563C63.9435 67.9028 64.2313 67.9126 64.2313 67.9126C65.8431 67.464 67.452 67.0228 68.5738 67.6866C69.236 68.7399 69.9685 69.7428 70.7686 70.6996C69.3674 70.9709 68.0947 71.6737 67.0184 72.5063C67.0184 72.5063 66.8056 72.701 67.2658 73.2865C67.6839 73.8192 67.9478 73.7294 67.9478 73.7294C69.2105 72.7988 70.6013 72.0646 71.975 72.1142C72.9549 73.1391 74.032 74.0608 75.1542 74.9225C73.3412 75.6647 71.8191 76.9822 70.7092 78.5576C70.7092 78.5576 70.5147 78.881 71.1357 79.295C71.6981 79.6702 71.9624 79.4442 71.9624 79.4442C73.1552 77.7773 74.7756 76.4282 76.6543 76.0135C77.944 76.8706 79.2928 77.6268 80.7071 78.238C79.029 79.1244 77.6102 80.4418 76.4156 81.8391C76.4156 81.8391 76.1716 82.1633 76.7398 82.6449C77.2568 83.0828 77.5792 82.8493 77.5792 82.8493C79.09 81.1384 80.7895 79.6026 82.7827 79.0267C84.0363 79.4382 85.321 79.755 86.6308 79.9473C86.6308 79.9473 86.8453 79.9309 87.0531 79.8897C86.5888 90.766 86.8485 101.667 85.1524 112.273C85.1524 112.273 84.8992 114.596 85.5276 114.6C86.1783 114.605 86.6611 112.516 86.6611 112.516C88.0781 103.613 88.1629 94.5991 88.3999 85.647C88.4493 85.6635 88.5614 85.721 88.5614 85.721C91.2153 85.9709 93.8039 85.6551 96.2961 84.9285C97.6875 87.4252 100.379 88.7154 103.012 89.2456C103.012 89.2456 103.433 89.3034 103.571 88.5719C103.695 87.9089 103.332 87.7366 103.332 87.7366C101.043 87.2212 98.795 86.2544 97.7668 84.4509C99.2779 83.9049 100.738 83.1902 102.156 82.3756C103.555 84.4502 105.765 85.8148 108.105 86.4624C108.105 86.4624 108.486 86.5365 108.668 85.8149C108.832 85.1593 108.522 84.9839 108.522 84.9839C106.482 84.3967 104.575 83.2608 103.46 81.5791C104.429 80.9598 105.368 80.2917 106.281 79.5761C108.612 81.0964 111.468 81.7267 114.22 81.3531C114.22 81.3531 114.657 81.2682 114.527 80.5309C114.41 79.8671 114.012 79.8409 114.012 79.8409C111.798 80.1443 109.493 79.661 107.568 78.541C109.162 77.1804 110.669 75.7116 112.039 74.1686C112.039 74.1686 112.964 73.0809 112.388 72.5919C111.881 72.1614 110.888 73.1418 110.888 73.1418C110.235 73.8658 109.544 74.5693 108.842 75.2598C108.415 74.2361 108.652 72.8671 108.859 71.4329C108.859 71.4329 108.867 71.1757 108.139 71.0537C107.47 70.9424 107.338 71.1772 107.338 71.1772C107.033 72.7657 106.784 74.6391 107.662 76.355C105.266 78.5525 102.646 80.4697 99.8586 81.8781C99.4999 80.2852 99.8421 78.5247 100.541 76.9004C100.541 76.9004 100.645 76.6085 99.9741 76.2951C99.3565 76.0065 99.1344 76.2871 99.1344 76.2871C98.2816 78.2083 97.9005 80.4191 98.4484 82.547C96.8329 83.2447 95.1764 83.7879 93.4836 84.0686C93.256 82.4426 93.6915 80.712 94.4682 79.1422C94.4682 79.1422 94.5803 78.8642 93.9272 78.5153C93.326 78.1962 93.0962 78.4577 93.0962 78.4577C92.205 80.2127 91.7328 82.2346 91.9838 84.2533C90.9025 84.3424 89.8142 84.336 88.7153 84.2123C88.7153 84.2123 88.5553 84.2451 88.4464 84.2616C88.4959 82.6439 88.5289 81.0237 88.5998 79.412C88.674 77.7995 88.806 76.1829 88.9198 74.5667C88.9445 74.5721 89.0138 74.608 89.0138 74.608C91.7594 74.5832 94.4031 73.9805 96.8976 72.9545C99.2942 74.8568 102.687 75.1399 105.395 73.7593C105.395 73.7593 105.813 73.5194 105.428 72.873C105.083 72.2974 104.699 72.4046 104.699 72.4046C102.774 73.4115 100.303 73.331 98.4773 72.2043C100.173 71.368 101.792 70.3571 103.319 69.2042C106.32 70.263 109.672 69.6148 112.187 67.7126C112.187 67.7126 112.574 67.3835 112.089 66.8091C111.655 66.2953 111.258 66.4983 111.258 66.4983C109.402 67.9222 106.969 68.542 104.755 68.0538C105.856 67.1289 106.919 66.1578 107.904 65.1302C107.904 65.1302 108.675 64.2883 108.122 63.7795C107.628 63.3268 106.796 64.0647 106.796 64.0647C104.775 66.1468 102.509 68.0359 100.08 69.5623C100.031 68.0359 100.824 66.4143 101.644 64.802C101.644 64.802 101.774 64.4954 101.12 64.1457C100.521 63.8257 100.28 64.0795 100.28 64.0795C99.2689 65.9328 98.3278 68.0982 98.6607 70.4207C97.5395 71.0351 96.3811 71.5316 95.2001 71.9506C94.5371 70.2136 94.8531 68.1326 95.2943 66.0782C95.2943 66.0782 95.3437 65.7367 94.6213 65.5669C93.9599 65.411 93.7903 65.7377 93.7903 65.7377C93.2848 67.8532 93.0052 70.2066 93.7655 72.4283C92.2214 72.8505 90.6367 73.0939 89.0225 73.0889C89.3136 69.4381 89.7301 65.8056 90.3947 62.2391C93.1245 62.6308 96.2133 62.1731 98.2232 60.0529C98.2232 60.0529 98.5282 59.6957 97.9287 59.2347C97.396 58.824 97.1065 59.0427 97.1065 59.0427C95.7135 60.6886 93.1135 60.9817 90.6886 60.7175C90.9987 59.2218 91.3427 57.735 91.7498 56.2726C91.7663 56.2802 91.7992 56.3222 91.7992 56.3222C95.7612 56.7345 100.533 57.1048 103.778 54.3023C103.778 54.3023 104.274 53.8314 103.712 53.3135C103.223 52.8632 102.775 53.1939 102.775 53.1939C100.368 55.4962 96.1217 55.0558 92.2063 54.7961C92.4834 53.8907 92.7622 52.987 93.0843 52.0987C96.8364 51.8158 100.843 51.1238 103.892 48.6383C103.892 48.6383 104.37 48.2143 103.85 47.6623C103.393 47.1733 102.917 47.4751 102.917 47.4751C100.522 49.5132 97.1333 50.1363 93.7291 50.4795C93.9485 49.9319 94.1423 49.3745 94.3815 48.8346C94.3815 48.8346 95.7554 45.772 95.1698 45.4595C94.4985 45.1008 92.9879 48.2168 92.9879 48.2168C92.7644 48.7239 92.5854 49.2467 92.3785 49.7595C91.2802 47.9515 90.7784 45.7167 90.4735 43.4479C90.4735 43.4479 90.3987 43.0251 89.6589 43.1117Z" fill="#718A1B"/>
<path d="M91.834 41.6277C91.834 42.0474 91.7513 42.463 91.5907 42.8507C91.4301 43.2385 91.1947 43.5908 90.8979 43.8875C90.6012 44.1843 90.2489 44.4197 89.8612 44.5803C89.4734 44.7409 89.0578 44.8234 88.6381 44.8234C88.2184 44.8234 87.8029 44.7409 87.4152 44.5803C87.0275 44.4197 86.6752 44.1843 86.3784 43.8875C86.0816 43.5908 85.8462 43.2385 85.6856 42.8507C85.525 42.463 85.4424 42.0474 85.4424 41.6277C85.4424 40.7801 85.7791 39.9673 86.3784 39.368C86.9777 38.7686 87.7906 38.432 88.6381 38.4319C89.0578 38.4319 89.4733 38.5146 89.8611 38.6752C90.2488 38.8358 90.6011 39.0712 90.8978 39.368C91.1946 39.6647 91.43 40.017 91.5906 40.4048C91.7512 40.7925 91.834 41.208 91.834 41.6277Z" fill="#FF5555"/>
<path d="M88.4861 39.1172C87.8171 39.4284 87.1989 39.7346 86.758 40.1849C86.3085 40.6158 86.0517 41.269 86.0633 41.9013C86.0762 42.5606 86.289 43.2276 86.6781 43.7427C86.9482 44.1273 87.4366 44.3717 87.9438 44.4473C88.6241 44.5405 89.332 44.4666 89.9366 44.2004C90.5 43.9579 90.981 43.4926 91.2862 42.9402C91.5736 42.4078 91.6958 41.7759 91.5576 41.224C91.4097 40.5945 91.0611 39.9964 90.5893 39.5473C90.523 39.4765 90.4433 39.4168 90.3526 39.3647C90.3526 39.3647 89.6469 38.9847 89.7326 38.5315C89.8677 37.8164 90.9488 38.3444 90.9488 38.3444C91.1083 38.4383 91.2626 38.5495 91.4092 38.68C92.0554 39.2878 92.5181 40.0844 92.7199 40.9528C92.9166 41.8386 92.7585 42.7524 92.3328 43.5145C91.9096 44.2893 91.2396 44.9274 90.4167 45.2935C89.5788 45.6581 88.6548 45.759 87.7753 45.6291C86.9883 45.5198 86.2379 45.1204 85.7233 44.4592C85.1735 43.7237 84.8813 42.8242 84.8699 41.9201C84.8571 40.9589 85.2333 40.0151 85.9234 39.3316C86.553 38.7348 87.281 38.3492 87.9807 38.0262C87.9807 38.0262 88.5872 37.8739 88.8199 38.3034C89.0578 38.7427 88.4861 39.1172 88.4861 39.1172Z" fill="#DE8787"/>
<path d="M99.8156 45.2717C99.6351 45.6507 99.3819 45.9904 99.0702 46.2714C98.7585 46.5525 98.3945 46.7694 97.999 46.9097C97.6035 47.0501 97.1842 47.1112 96.7651 47.0895C96.346 47.0678 95.9352 46.9637 95.5563 46.7833C95.1774 46.6029 94.8377 46.3497 94.5566 46.038C94.2756 45.7264 94.0587 45.3624 93.9183 44.9669C93.778 44.5714 93.7169 44.1521 93.7386 43.733C93.7602 43.3138 93.8643 42.903 94.0447 42.5241C94.409 41.7589 95.0625 41.1697 95.8612 40.8862C96.66 40.6027 97.5386 40.6482 98.3039 41.0125C98.6828 41.1929 99.0224 41.4462 99.3035 41.7579C99.5845 42.0695 99.8014 42.4335 99.9418 42.829C100.082 43.2245 100.143 43.6438 100.122 44.0629C100.1 44.4821 99.996 44.8928 99.8156 45.2717Z" fill="#FF5555"/>
<path d="M97.8704 41.5686C97.1327 41.5621 96.4429 41.5727 95.8512 41.7898C95.2601 41.9856 94.7475 42.465 94.4862 43.0409C94.2143 43.6417 94.1198 44.3354 94.2496 44.9678C94.3282 45.4311 94.6641 45.8617 95.0896 46.148C95.6637 46.5246 96.3346 46.7622 96.995 46.7817C97.6078 46.805 98.2422 46.5916 98.7551 46.2241C99.2436 45.8669 99.6256 45.349 99.738 44.7913C99.8751 44.1592 99.8174 43.4694 99.5845 42.8611C99.5551 42.7687 99.5088 42.6805 99.4493 42.5945C99.4493 42.5945 98.9755 41.948 99.2477 41.5757C99.6771 40.9881 100.426 41.9295 100.426 41.9295C100.53 42.0829 100.621 42.2496 100.698 42.4305C101.02 43.257 101.095 44.1751 100.904 45.046C100.701 45.9304 100.165 46.6875 99.4533 47.1925C98.7381 47.7102 97.8589 47.9983 96.9585 47.9751C96.0453 47.9441 95.1676 47.6379 94.4294 47.1426C93.7658 46.7056 93.2599 46.0224 93.0796 45.2043C92.8993 44.3038 93.0222 43.366 93.4006 42.5449C93.8021 41.6715 94.5476 40.981 95.4645 40.6606C96.2894 40.3924 97.1125 40.3572 97.8831 40.3664C97.8831 40.3664 98.4962 40.4895 98.5216 40.9774C98.5477 41.4763 97.8704 41.5686 97.8704 41.5686Z" fill="#DE8787"/>
<path d="M111.214 63.4871C111.034 63.866 110.78 64.2057 110.469 64.4868C110.157 64.7678 109.793 64.9847 109.397 65.1251C109.002 65.2654 108.583 65.3265 108.164 65.3048C107.744 65.2832 107.334 65.1791 106.955 64.9986C106.576 64.8182 106.236 64.5651 105.955 64.2534C105.674 63.9417 105.457 63.5777 105.317 63.1822C105.176 62.7867 105.115 62.3674 105.137 61.9483C105.159 61.5292 105.263 61.1184 105.443 60.7395C105.807 59.9742 106.461 59.385 107.26 59.1016C108.058 58.8181 108.937 58.8635 109.702 59.2278C110.081 59.4082 110.421 59.6615 110.702 59.9732C110.983 60.2849 111.2 60.6489 111.34 61.0444C111.481 61.4399 111.542 61.8592 111.52 62.2783C111.498 62.6974 111.394 63.1081 111.214 63.4871Z" fill="#FF5555"/>
<path d="M109.269 59.7837C108.532 59.7771 107.842 59.7878 107.25 60.0048C106.659 60.2006 106.146 60.68 105.885 61.2559C105.613 61.8568 105.519 62.5505 105.649 63.1828C105.727 63.6461 106.063 64.0768 106.488 64.363C107.063 64.7396 107.734 64.9772 108.394 64.9968C109.007 65.02 109.641 64.8067 110.154 64.4391C110.643 64.082 111.024 63.564 111.137 63.0063C111.274 62.3743 111.216 61.6844 110.983 61.0761C110.954 60.9838 110.908 60.8955 110.848 60.8095C110.848 60.8095 110.374 60.163 110.647 59.7907C111.076 59.2031 111.825 60.1446 111.825 60.1446C111.929 60.2979 112.02 60.4647 112.097 60.6456C112.419 61.472 112.494 62.3902 112.303 63.261C112.1 64.1454 111.564 64.9025 110.852 65.4075C110.137 65.9252 109.258 66.2134 108.357 66.1901C107.444 66.1591 106.567 65.853 105.828 65.3576C105.165 64.9206 104.659 64.2375 104.479 63.4193C104.298 62.5188 104.421 61.5811 104.799 60.7599C105.201 59.8865 105.946 59.196 106.863 58.8756C107.688 58.6074 108.511 58.5722 109.282 58.5814C109.282 58.5814 109.895 58.7045 109.921 59.1924C109.947 59.6913 109.269 59.7837 109.269 59.7837Z" fill="#DE8787"/>
<path d="M79.0313 43.6622C79.2826 43.9983 79.4652 44.3807 79.5687 44.7874C79.6722 45.1941 79.6946 45.6173 79.6346 46.0326C79.5745 46.448 79.4333 46.8475 79.2189 47.2082C79.0045 47.569 78.721 47.884 78.3848 48.1352C78.0487 48.3865 77.6664 48.5692 77.2597 48.6727C76.853 48.7761 76.4299 48.7985 76.0145 48.7385C75.5992 48.6785 75.1997 48.5372 74.8389 48.3228C74.4781 48.1084 74.1631 47.825 73.9118 47.4888C73.4044 46.81 73.1874 45.9573 73.3087 45.1185C73.4299 44.2796 73.8794 43.5233 74.5582 43.0158C74.8944 42.7646 75.2767 42.582 75.6834 42.4785C76.0901 42.375 76.5132 42.3526 76.9286 42.4127C77.344 42.4727 77.7434 42.6139 78.1042 42.8283C78.465 43.0427 78.78 43.326 79.0313 43.6622Z" fill="#FF5555"/>
<path d="M74.8502 43.6518C74.5007 44.3016 74.1889 44.9169 74.1053 45.5416C74.0032 46.1558 74.1886 46.8328 74.5765 47.3323C74.9816 47.8527 75.5514 48.2595 76.1714 48.4391C76.618 48.5854 77.1555 48.4888 77.607 48.2457C78.2077 47.913 78.7304 47.4301 79.0554 46.8548C79.3614 46.3233 79.4681 45.6626 79.3819 45.0375C79.2933 44.4389 79.0129 43.8597 78.5718 43.5004C78.0764 43.0847 77.4391 42.8143 76.7923 42.7371C76.6969 42.7201 76.5972 42.7199 76.4934 42.7325C76.4934 42.7325 75.7007 42.8506 75.498 42.4363C75.178 41.7827 76.3601 41.5583 76.3601 41.5583C76.544 41.538 76.7342 41.5348 76.9298 41.5516C77.8113 41.6514 78.6588 42.0125 79.3403 42.5873C80.0283 43.1789 80.4487 44.0056 80.564 44.8709C80.6889 45.7448 80.5343 46.6571 80.0943 47.443C79.6415 48.2366 78.9618 48.8706 78.1796 49.2931C77.4838 49.6767 76.6436 49.8062 75.8356 49.5847C74.9549 49.3247 74.1823 48.7791 73.6319 48.0618C73.0461 47.2997 72.7824 46.3184 72.926 45.3578C73.0729 44.5029 73.4252 43.7581 73.7923 43.0805C73.7923 43.0805 74.1868 42.5954 74.6304 42.8001C75.0839 43.0095 74.8502 43.6518 74.8502 43.6518Z" fill="#DE8787"/>
<path d="M68.3106 58.4678C68.5619 58.8039 68.7445 59.1863 68.848 59.593C68.9515 59.9998 68.9739 60.4229 68.9138 60.8382C68.8538 61.2536 68.7126 61.6531 68.4982 62.0138C68.2838 62.3746 68.0003 62.6896 67.6641 62.9408C67.328 63.1921 66.9457 63.3748 66.539 63.4783C66.1323 63.5817 65.7092 63.6041 65.2938 63.5441C64.8785 63.4841 64.479 63.3428 64.1182 63.1284C63.7574 62.914 63.4424 62.6306 63.1911 62.2944C62.6837 61.6156 62.4667 60.7629 62.588 59.9241C62.7092 59.0852 63.1587 58.3289 63.8375 57.8214C64.1737 57.5702 64.556 57.3876 64.9627 57.2841C65.3694 57.1806 65.7925 57.1582 66.2079 57.2183C66.6233 57.2783 67.0227 57.4195 67.3835 57.6339C67.7443 57.8483 68.0593 58.1316 68.3106 58.4678Z" fill="#FF5555"/>
<path d="M64.1295 58.4578C63.78 59.1076 63.4681 59.7229 63.3846 60.3476C63.2825 60.9618 63.4679 61.6387 63.8558 62.1382C64.2609 62.6586 64.8307 63.0655 65.4507 63.2451C65.8973 63.3914 66.4348 63.2948 66.8863 63.0516C67.487 62.719 68.0097 62.236 68.3347 61.6608C68.6407 61.1293 68.7474 60.4686 68.6612 59.8435C68.5726 59.2449 68.2922 58.6656 67.8511 58.3064C67.3557 57.8906 66.7184 57.6203 66.0716 57.543C65.9762 57.526 65.8765 57.5259 65.7727 57.5385C65.7727 57.5385 64.98 57.6566 64.7773 57.2423C64.4573 56.5887 65.6394 56.3643 65.6394 56.3643C65.8233 56.344 66.0135 56.3407 66.2091 56.3575C67.0906 56.4574 67.9381 56.8185 68.6196 57.3933C69.3076 57.9849 69.728 58.8116 69.8433 59.6768C69.9682 60.5508 69.8136 61.463 69.3736 62.2489C68.9208 63.0426 68.2411 63.6766 67.4589 64.0991C66.7631 64.4827 65.9229 64.6122 65.1149 64.3906C64.2342 64.1307 63.4616 63.5851 62.9112 62.8678C62.3254 62.1056 62.0617 61.1244 62.2053 60.1638C62.3522 59.3088 62.7045 58.5641 63.0716 57.8865C63.0716 57.8865 63.4661 57.4014 63.9097 57.6061C64.3632 57.8155 64.1295 58.4578 64.1295 58.4578Z" fill="#DE8787"/>
<path d="M167.546 102.614C167.455 102.398 167.289 102.182 166.953 102.189C166.883 102.191 166.839 102.218 166.782 102.232C166.515 101.755 165.633 101.832 165.633 101.832C162.193 102.505 158.662 103.085 155.274 104.357C151.847 105.613 148.525 107.988 147.162 111.515C147.162 111.515 147.109 111.866 147.246 112.148C143.572 113.305 139.798 114.186 135.956 114.772C138.183 112.798 140.339 110.683 142.298 108.408C142.576 108.844 143.163 108.777 143.163 108.777C146.776 107.464 150.02 104.981 151.938 101.596C153.69 98.4486 153.609 94.4633 151.723 91.424C151.723 91.424 151.05 90.4263 150.436 90.9336C150.401 90.9569 150.409 90.9981 150.384 91.0259C150.343 90.9895 150.291 90.973 150.235 90.9533C150.222 90.8783 150.239 90.8093 150.197 90.7292C149.933 90.1495 149.267 90.3043 149.267 90.3043C143.126 93.1792 139.642 100.32 141.235 106.888C141.235 106.888 141.315 107.041 141.355 107.139C139.148 109.721 136.661 112.125 134.104 114.363C134.104 114.363 133.831 114.696 133.758 115.048C129.945 115.53 126.091 115.796 122.244 115.831C119.565 115.85 116.867 115.943 114.173 116.115C117.529 114.444 120.698 112.339 123.511 109.85C123.765 110.128 124.202 110.156 124.202 110.156C128.183 109.648 131.842 107.232 133.671 103.613C135.356 100.185 135.888 96.4108 136.266 92.7456C136.266 92.7456 136.363 91.5657 135.623 91.4893C135.518 91.4789 135.443 91.5361 135.36 91.5791C135.067 91.3954 134.701 91.4435 134.701 91.4435C127.857 93.9948 123.089 100.828 123.159 108.115C119.691 111.314 115.589 113.929 111.265 115.809C111.265 115.809 110.847 116.07 110.658 116.408C102.689 117.181 94.8394 118.889 87.7057 122.501C87.7057 122.501 85.4069 123.834 85.8708 124.362C86.2654 124.81 88.3935 123.854 88.3935 123.854C97.0818 119.423 106.999 117.931 116.957 117.508C117.212 117.68 117.487 117.769 117.487 117.769C121.399 118.377 125.094 119.869 128.447 121.975C128.447 121.976 128.442 122.004 128.442 122.004C128.685 129.105 134.196 135.79 141.272 136.602C141.272 136.602 141.577 136.566 141.804 136.385C141.954 136.456 142.108 136.482 142.257 136.411C142.511 136.289 142.53 135.966 142.485 135.631C142.974 135.427 143.026 134.512 143.026 134.512C142.797 127.004 137.098 119.783 129.593 120.073C129.593 120.073 129.136 120.162 128.961 120.485C126.837 119.188 124.573 118.139 122.209 117.369C122.227 117.368 122.243 117.364 122.261 117.365C127.521 117.323 132.805 116.872 137.993 115.961C138.283 116.112 138.598 116.169 138.598 116.169C142.437 116.175 146.209 116.9 149.865 118.122C150.552 122.07 153.043 125.611 156.24 127.954C159.741 130.528 164.801 130.614 168.106 127.815C168.106 127.815 168.584 127.233 168.268 126.805C168.305 126.788 168.339 126.782 168.377 126.756C168.919 126.37 168.347 125.354 168.347 125.354C166.382 122.384 164.691 119.028 161.919 116.428C158.732 113.6 154.074 113.625 150.394 115.488C150.394 115.488 149.682 115.996 150.053 116.544C150.059 116.55 150.067 116.556 150.081 116.568C150.078 116.571 150.074 116.573 150.067 116.578C147.712 115.815 145.3 115.267 142.849 114.952C144.964 114.443 147.061 113.866 149.118 113.168C149.393 113.398 149.734 113.538 149.734 113.538C153.392 114.548 157.405 114.174 160.818 112.513C164.484 110.72 167.146 107.094 167.643 103.045C167.643 103.045 167.634 102.83 167.546 102.614ZM165.936 103.923C165.221 106.999 163.019 109.746 160.15 111.137C157.453 112.449 154.305 112.865 151.351 112.331C153.573 111.484 155.768 110.558 157.888 109.461C157.888 109.461 158.762 108.983 159.568 108.423C159.783 108.545 159.977 108.499 159.977 108.499C162.284 107.248 164.058 105.417 165.936 103.923ZM163.667 103.792C162.203 105.058 160.828 106.331 159.258 107.159C159.258 107.159 159.232 107.205 159.217 107.212C158.233 107.588 157.188 108.105 157.188 108.105C154.469 109.519 151.64 110.699 148.741 111.688C149.919 108.925 152.806 106.961 155.815 105.788C158.307 104.839 160.973 104.312 163.667 103.792ZM166.538 125.365C161.825 121.897 156.636 118.912 151.134 116.975C151.114 116.929 151.095 116.901 151.07 116.863C151.071 116.862 151.087 116.86 151.087 116.86C154.324 115.239 158.408 115.129 160.883 117.55C163.185 119.656 164.74 122.55 166.538 125.365ZM166.449 127.171C163.79 128.971 159.842 128.736 157.154 126.726C154.505 124.74 152.355 121.883 151.549 118.752C156.787 120.742 161.771 123.697 166.322 127.098C166.322 127.098 166.428 127.158 166.449 127.171ZM150.963 93.2227C152.022 95.6144 151.911 98.5519 150.604 100.848C149.067 103.603 146.442 105.679 143.489 106.953C146.897 102.687 149.563 97.9206 150.621 92.5798C150.743 92.7893 150.863 93.0007 150.963 93.2227ZM149.194 92.096C149.192 92.1144 149.151 92.2151 149.151 92.2151C148.23 97.1352 145.763 101.585 142.57 105.63C141.654 100.339 144.438 94.6688 149.194 92.096ZM134.68 93.135C134.299 96.5787 133.796 99.9776 132.306 102.935C130.927 105.76 128.139 107.763 125.048 108.454C128.582 104.974 131.415 100.856 133.054 96.191C133.054 96.191 133.558 94.6472 132.813 94.4339C132.188 94.2549 131.618 95.6878 131.618 95.6878C130.215 99.7334 127.799 103.347 124.796 106.49C125.335 100.691 129.25 95.3677 134.68 93.135ZM140.474 129.606C140.932 130.788 141.253 132.033 141.405 133.295C138.673 128.677 134.994 124.594 130.613 121.56C135.043 121.684 138.752 125.187 140.474 129.606ZM140.631 134.971C135.162 133.996 130.747 128.728 130.061 123.08C134.381 126.164 138.03 130.286 140.631 134.971Z" fill="#677821"/>
<path d="M165.913 104.379C165.224 103.585 164.407 104.922 163.807 105.251C160.58 108.383 156.177 109.644 152.23 111.62C150.478 112.047 151.821 113.252 153.041 112.843C156.818 113.071 160.846 111.821 163.51 109.067C164.612 107.767 165.728 106.243 165.958 104.521L165.926 104.408L165.913 104.379Z" fill="#7B9122"/>
<path d="M166.095 124.08C164.321 121.23 162.585 118.064 159.648 116.249C156.968 114.899 153.568 115.196 150.989 116.597C150.773 117.736 152.852 117.746 153.614 118.353C157.802 120.093 161.701 122.41 165.45 124.918C166.005 125.158 166.393 124.56 166.095 124.08Z" fill="#AFC15C"/>
<path d="M163.309 103.884C162.597 103.306 161.543 104.011 160.72 104.022C157.524 104.809 154.314 105.9 151.561 107.737C150.499 108.756 149.103 109.759 148.725 111.237C149.058 112.145 150.22 111.42 150.861 111.281C154.187 109.859 157.604 108.546 160.695 106.654C161.59 105.847 162.942 105.241 163.367 104.071C163.362 104.006 163.341 103.941 163.309 103.884Z" fill="#A1BB34"/>
<path d="M151.367 93.1965C151.211 92.445 150.161 92.484 150.13 93.2821C149.006 97.9379 146.571 102.187 143.838 106.048C143.459 106.859 144.589 107.041 145.043 106.571C148.578 104.67 151.704 101.263 151.996 97.104C151.989 95.7888 151.841 94.4308 151.367 93.1965Z" fill="#95B134"/>
<path d="M149.279 92.2946C148.578 91.5207 147.702 92.7811 147.117 93.1512C143.625 95.9559 141.665 100.615 142.186 105.067C142.281 106.027 143.373 105.525 143.596 104.913C146.188 101.171 148.625 97.0767 149.336 92.518C149.329 92.4411 149.313 92.3642 149.279 92.2946Z" fill="#A3B53C"/>
<path d="M166.283 126.889C164.596 125.096 162.286 123.994 160.226 122.677C157.539 121.218 154.912 119.487 151.962 118.627C150.854 118.686 151.531 120.064 151.824 120.616C153.715 124.59 157.264 128.481 161.946 128.677C163.4 128.634 165.091 128.569 166.267 127.643C166.427 127.423 166.418 127.119 166.283 126.889Z" fill="#718A1B"/>
<path d="M140.446 128.765C138.857 125.072 135.554 121.886 131.474 121.298C130.681 121.221 130.717 122.256 131.374 122.472C134.91 125.363 138.045 128.704 140.573 132.515C141.017 133.249 141.881 132.503 141.516 131.845C141.267 130.786 140.87 129.766 140.446 128.765Z" fill="#9EB134"/>
<path d="M140.34 133.793C137.825 129.62 134.443 125.999 130.583 123.048C129.563 122.786 129.836 124.203 130.037 124.781C131.028 127.832 132.563 130.833 135.215 132.763C136.808 133.973 138.677 135.077 140.686 135.224C141.189 134.765 140.516 134.238 140.34 133.793Z" fill="#7F9327"/>
<path d="M134.563 92.9627C133.884 93.3746 132.424 93.3592 132.324 94.3517C132.573 94.7648 133.06 95.0912 132.779 95.6666C131.327 100.287 128.496 104.384 125.173 107.867C124.916 109.192 126.596 108.181 127.262 107.981C131.092 106.607 133.208 102.72 134.061 98.9569C134.479 97.046 134.966 95.0509 134.884 93.1138L134.708 93.0309L134.563 92.9627Z" fill="#B6CB26"/>
<path d="M131.978 94.4396C129.327 95.5369 127.587 98.1602 126.248 100.615C125.413 102.323 124.671 104.168 124.563 106.079C125.105 107.02 125.923 105.728 126.329 105.293C128.9 102.202 131.1 98.6682 132.261 94.8225C132.347 94.6033 132.072 94.5672 131.978 94.4396Z" fill="#9AB627"/>
<path d="M98.8702 58.8162C98.4925 58.8657 98.2138 59.1996 98.2138 59.1996C94.4543 66.0434 94.2577 74.66 98.8059 80.9976C98.8059 80.9976 98.937 81.113 98.9931 81.1765C99.0426 85.3071 99.4384 89.3863 101.09 93.1941C101.09 93.1941 101.24 93.4696 101.414 93.7095C98.7475 96.9757 96.4824 100.558 94.7957 104.427C94.7957 104.427 93.6409 107.222 94.4081 107.496C94.9829 107.701 96.1938 105.037 96.1938 105.037C97.0872 102.981 98.1483 101.005 99.3516 99.1132C99.5759 99.0555 99.8587 98.9937 99.8587 98.9937C102.628 97.8846 105.548 97.3207 108.54 97.046C108.764 97.5185 109.383 97.9752 109.383 97.9752C117.733 103.183 128.9 103.485 137.314 98.3586C137.314 98.3586 137.74 98.0081 137.833 97.6213C138.184 97.5553 138.51 97.4119 138.532 97.0713C138.573 96.4322 137.091 96.1593 137.091 96.1593C132.512 95.5267 128.074 93.3324 123.275 92.1876C118.185 90.9535 112.427 91.8503 108.603 95.4986C108.603 95.4986 108.594 95.5151 108.586 95.5233C105.929 95.7658 103.305 96.2186 100.762 97.0619C104.307 92.1111 108.83 87.8197 113.934 84.439C114.651 83.964 115.384 83.5163 116.116 83.0668C121.989 85.3849 128.85 85.1561 134.369 82.0101C139.48 79.0647 143.317 74.2109 145.44 68.7396C145.44 68.7396 145.755 67.8303 145.678 67.2138C145.856 67.0638 145.975 66.8932 145.93 66.6853C145.788 66.0388 144.021 66.2976 144.021 66.2976C138.144 67.4264 132.013 67.831 126.122 69.6558C120.807 71.3039 116.211 75.4275 114.838 80.8381C114.838 80.8381 114.735 81.5967 114.995 81.9673C114.358 82.3615 113.717 82.7466 113.09 83.1606C109.146 85.7686 105.526 88.903 102.419 92.4678C100.88 88.9654 100.55 85.0785 100.531 81.0383C100.91 80.8758 101.247 80.5352 101.247 80.5352C106.204 74.1422 106.194 64.3332 100.092 59.01C100.092 59.01 99.6214 58.7274 99.2443 58.8866C99.1123 58.8288 98.9881 58.7989 98.8702 58.8162ZM99.3519 60.3714C104.405 64.8086 104.483 73.2085 100.541 78.9051C100.607 74.7649 100.844 70.5097 100.354 66.3421C100.354 66.3421 100.102 65.3751 99.4672 65.5153C98.8652 65.6481 98.824 66.5166 98.824 66.5166C99.2619 70.3725 99.0556 74.4305 98.9946 78.4791C95.9543 73.0596 96.3545 66.094 99.3519 60.3714ZM144.209 67.8166C144.143 67.9436 144.013 68.1786 144.013 68.1786C141.997 73.3532 138.383 77.9545 133.61 80.6818C128.912 83.398 123.033 83.7398 117.838 82.0414C124.572 78.134 131.853 75.0992 139.027 71.8008C139.027 71.8008 140.84 70.8247 140.476 70.2838C140.125 69.7643 138.387 70.4116 138.387 70.4116C130.99 73.808 123.387 76.9532 116.325 81.1422C117.494 76.3647 121.737 72.63 126.583 71.1149C132.205 69.3556 138.24 68.9577 144.209 67.8166ZM119.334 93.2068C120.54 93.2398 121.751 93.3991 122.922 93.6753C127.148 94.6896 131.302 96.6359 135.78 97.4722C128.119 101.788 118.087 101.442 110.521 96.8719C116.756 96.589 123.301 97.539 129.698 98.2098C129.698 98.2098 130.828 98.1974 130.836 97.5541C130.844 96.9299 129.865 96.6805 129.865 96.6805C123.762 96.0042 117.414 95.1186 111.22 95.3338C113.528 93.7994 116.418 93.1259 119.334 93.2068Z" fill="#88AA00"/>
<path d="M118.354 93.0005C115.85 93.0048 113.134 93.4556 111.176 95.0795C111.58 96.1896 113.344 95.4212 114.311 95.7075C119.468 95.9102 124.636 96.2999 129.746 97.0858C130.177 97.0396 130.908 97.8346 130.031 97.7376C125.534 97.5951 121.026 96.787 116.496 96.6231C114.723 96.6318 112.853 96.2058 111.126 96.647C110.366 97.413 111.779 97.977 112.336 98.2193C116.349 100.173 120.841 101.034 125.293 100.729C128.972 100.604 132.684 99.591 135.849 97.7482C136.154 96.7866 134.64 96.9898 133.984 96.699C129.766 95.6174 125.746 93.7533 121.429 93.0841C120.408 92.9807 119.379 92.9976 118.354 93.0005Z" fill="#D0DF6C"/>
<path d="M143.789 67.6112C137.733 68.5348 131.57 69.1696 125.723 71.0875C121.417 72.6512 117.557 76.0744 116.162 80.5082C116.325 81.6482 117.618 80.8217 118.163 80.4709C124.763 76.9769 131.526 73.7424 138.432 70.8836C138.881 70.7965 139.745 70.2738 140.042 70.6023C138.012 72.1431 135.477 72.9064 133.217 74.0631C128.041 76.4559 122.853 78.8443 117.862 81.6086C117.193 82.544 118.809 82.6214 119.442 82.8288C122.55 83.6546 125.829 83.4614 128.959 82.8768C135.332 81.2028 140.546 76.3094 143.346 70.4269C143.661 69.5876 144.465 68.7749 144.327 67.8453C144.186 67.6771 144.013 67.5718 143.789 67.6112Z" fill="#BBE121"/>
<path d="M99.3682 60.1766C98.3862 60.8083 98.2692 62.2372 97.7696 63.2285C96.5457 66.5135 96.4943 70.1345 96.8901 73.5785C97.2118 75.0915 97.5934 76.7119 98.479 77.9811C99.5061 78.2591 99.3161 76.7314 99.3837 76.1149C99.5353 72.8765 99.3291 69.6308 99.2922 66.3997C99.2542 65.7709 100.138 65.9888 99.9958 66.5628C100.492 70.5417 100.047 74.6871 100.335 78.6909C101.123 79.4056 101.535 77.81 101.915 77.2429C104.083 72.87 104.34 67.369 101.916 63.049C101.196 62.0657 100.641 60.7727 99.5362 60.1778L99.3802 60.1755L99.3682 60.1766Z" fill="#ABC837"/>
<path d="M35.6984 73.9395C35.8337 73.7871 36.0315 73.6559 36.3058 73.7561C36.3633 73.7776 36.3915 73.8118 36.4347 73.8398C36.7883 73.5217 37.4936 73.833 37.4936 73.833C40.138 75.3525 42.8835 76.8218 45.3175 78.8205C47.7875 80.8174 49.8563 83.7059 49.9896 86.9935C49.9896 86.9935 49.9344 87.2979 49.7422 87.4911C52.4434 89.4763 55.3046 91.2613 58.3047 92.8224C57.0252 90.5716 55.843 88.2242 54.8675 85.8002C54.5169 86.081 54.0517 85.861 54.0517 85.861C51.4443 83.7653 49.469 80.8098 48.8402 77.4832C48.2806 74.3987 49.4663 71.1389 51.8724 69.1648C51.8724 69.1648 52.707 68.532 53.0706 69.1223C53.0929 69.1513 53.0748 69.183 53.087 69.2127C53.1315 69.1944 53.1783 69.1952 53.2302 69.1948C53.2618 69.1366 53.2678 69.0752 53.3246 69.021C53.705 68.6176 54.2097 68.932 54.2097 68.932C58.4611 73.024 59.3261 79.8836 56.1701 84.8469C56.1701 84.8469 56.0611 84.9499 56.0007 85.0191C57.0942 87.7657 58.4672 90.4438 59.9451 93.0052C59.9451 93.0052 60.0764 93.3559 60.0377 93.6667C63.0434 95.1344 66.1435 96.4351 69.3021 97.5437C71.5036 98.3122 73.6993 99.1455 75.8706 100.044C73.575 97.7249 71.5557 95.1019 69.9373 92.2619C69.65 92.4199 69.282 92.3199 69.282 92.3199C66.1459 90.7835 63.8102 87.7663 63.3201 84.2721C62.8946 80.9758 63.5158 77.7178 64.2328 74.5925C64.2328 74.5925 64.4842 73.5934 65.1156 73.7384C65.2051 73.7593 65.2504 73.8274 65.3068 73.8861C65.6001 73.8172 65.8877 73.9594 65.8877 73.9594C70.8086 77.9821 72.8175 84.9489 70.7144 90.932C72.6727 94.5404 75.3178 97.8455 78.3514 100.608C78.3514 100.608 78.6229 100.94 78.6832 101.272C85.03 104.145 91.0161 107.756 95.8783 112.733C95.8783 112.733 97.3974 114.477 96.8672 114.782C96.4164 115.04 94.9319 113.655 94.9319 113.655C89.0192 107.567 81.2693 103.553 73.1861 100.409C72.9275 100.48 72.676 100.476 72.676 100.476C69.2831 99.878 65.8211 100.07 62.4676 100.863C62.4674 100.864 62.4643 100.889 62.4643 100.889C60.2706 106.669 53.8546 110.629 47.7979 109.311C47.7979 109.311 47.5566 109.196 47.4209 108.982C47.2771 108.999 47.143 108.977 47.0405 108.877C46.865 108.705 46.9406 108.434 47.0711 108.171C46.7262 107.865 46.9397 107.097 46.9397 107.097C49.2365 100.978 55.9576 96.6292 62.0577 98.9749C62.0577 98.9749 62.4092 99.1767 62.4633 99.4915C64.5764 99.0195 66.7355 98.7916 68.899 98.8203C68.8847 98.8149 68.8726 98.8068 68.8571 98.8027C64.5363 97.2912 60.3109 95.4367 56.2938 93.23C56.0125 93.2731 55.7365 93.2314 55.7365 93.2314C52.5728 92.159 49.2623 91.6969 45.9078 91.6769C44.234 94.7364 41.1881 96.9537 37.8967 97.9859C34.2902 99.1233 30.0989 97.7739 28.1622 94.5405C28.1622 94.5405 27.9321 93.9266 28.3125 93.6629C28.2862 93.6384 28.2604 93.6242 28.2365 93.5916C27.8981 93.1214 28.6548 92.4459 28.6548 92.4459C31.107 90.5511 33.4415 88.2612 36.4551 86.8979C39.8742 85.4629 43.7034 86.7914 46.2117 89.3587C46.2117 89.3587 46.6553 89.9769 46.1961 90.3243C46.1896 90.3282 46.1812 90.3303 46.1663 90.3364C46.1679 90.34 46.1706 90.3426 46.1748 90.3486C48.3291 90.3811 50.4692 90.6072 52.5772 91.036C50.9779 90.0223 49.4122 88.9587 47.9142 87.8066C47.6227 87.9181 47.3026 87.9379 47.3026 87.9379C44.0062 87.7434 40.8059 86.3086 38.4611 83.982C35.9448 81.4763 34.7701 77.7426 35.4973 74.2677C35.4973 74.2677 35.565 74.0926 35.6984 73.9395ZM36.6571 75.4697C36.3827 78.2042 37.4244 81.0852 39.3978 83.036C41.2505 84.8745 43.727 86.1009 46.31 86.4903C44.7176 85.1683 43.1695 83.7897 41.7308 82.2905C41.7308 82.2905 41.1448 81.6519 40.6388 80.964C40.4274 81.0044 40.2803 80.9122 40.2803 80.9122C38.7314 79.2339 37.7839 77.2277 36.6571 75.4697ZM38.5621 75.9991C39.4134 77.4528 40.1883 78.8875 41.249 80.0104C41.249 80.0104 41.2572 80.0556 41.268 80.0651C41.9728 80.6511 42.6885 81.3704 42.6885 81.3704C44.5314 83.2983 46.5296 85.0647 48.6404 86.693C48.4458 84.0864 46.6187 81.658 44.4692 79.8475C42.6831 78.3661 40.6358 77.1837 38.5621 75.9991ZM30.1411 92.9626C34.997 91.4288 40.1086 90.427 45.1852 90.3759C45.2138 90.3436 45.2377 90.3264 45.2691 90.3014C45.2686 90.301 45.256 90.2947 45.256 90.2947C43.0446 88.0502 39.7117 86.8136 36.9929 88.1128C34.506 89.2015 32.4128 91.148 30.1411 92.9626ZM29.7081 94.4746C31.3923 96.704 34.711 97.6185 37.4889 96.718C40.2278 95.8258 42.8017 94.0757 44.3441 91.7236C39.4711 91.8923 34.536 92.9262 29.8326 94.4501C29.8326 94.4501 29.7292 94.4701 29.7081 94.4746ZM51.9938 70.8598C50.4496 72.5323 49.7165 74.983 50.1484 77.2414C50.6409 79.9417 52.2206 82.3886 54.2953 84.2674C52.6855 79.7966 51.8281 75.1224 52.4557 70.4261C52.2968 70.5646 52.1384 70.7049 51.9938 70.8598ZM53.7673 70.4284C53.7632 70.4439 53.7692 70.5386 53.7692 70.5386C53.1467 74.8497 53.929 79.2075 55.4235 83.4359C57.6637 79.3346 56.962 73.8825 53.7673 70.4284ZM65.43 75.3585C64.777 78.302 64.2377 81.243 64.6342 84.0969C64.9772 86.8109 66.7117 89.2437 69.0636 90.6805C67.1296 86.8219 65.9522 82.6352 65.9119 78.3323C65.9119 78.3323 65.9297 76.9191 66.6036 76.9526C67.1686 76.9807 67.2358 78.3209 67.2358 78.3209C67.2556 82.047 68.2311 85.702 69.8226 89.1333C71.0066 84.2059 69.276 78.722 65.43 75.3585ZM50.4191 103.772C49.7104 104.617 49.0964 105.553 48.6166 106.55C52.1639 103.513 56.3401 101.182 60.8003 99.9137C57.1169 98.772 53.0779 100.616 50.4191 103.772ZM48.7837 108.147C53.5622 108.879 58.6775 105.78 60.8281 101.321C56.4044 102.648 52.2412 105.019 48.7837 108.147Z" fill="#89A02C"/>
<path d="M36.5561 75.8524C37.3467 75.392 37.6443 76.7221 38.0464 77.1622C39.8254 80.6478 43.0976 82.9219 45.7943 85.6582C47.1176 86.5011 45.6726 87.1167 44.7831 86.4375C41.6077 85.5651 38.6409 83.4046 37.2193 80.3886C36.6771 79.0083 36.1853 77.4396 36.4791 75.9568L36.5372 75.8729L36.5561 75.8524Z" fill="#ABCD36"/>
<path d="M30.878 92.0295C33.1394 90.18 35.4577 88.0595 38.3868 87.3892C40.9735 87.0297 43.6903 88.2293 45.4211 90.1072C45.2795 91.1056 43.5641 90.5306 42.7664 90.8161C38.828 91.0742 34.9662 91.8879 31.1738 92.9008C30.6494 92.9432 30.4982 92.3412 30.878 92.0295Z" fill="#AAC031"/>
<path d="M38.837 76.1744C39.5856 75.8984 40.2556 76.7746 40.9305 77.0151C43.3418 78.5606 45.6799 80.3607 47.4315 82.6463C48.0203 83.7834 48.8887 85.0014 48.7852 86.3256C48.2562 86.9797 47.5022 86.0561 47.0131 85.7617C44.6731 83.6574 42.2267 81.6158 40.2123 79.1901C39.7015 78.2743 38.7581 77.395 38.7361 76.3124C38.759 76.2601 38.7947 76.2126 38.837 76.1744Z" fill="#C3DD48"/>
<path d="M51.6807 70.7259C52.0202 70.1508 52.8742 70.4777 52.6758 71.1438C52.2944 75.2942 53.1078 79.4775 54.2747 83.4255C54.3589 84.1992 53.3771 84.032 53.1348 83.518C50.7568 80.9598 49.1385 77.2754 50.0656 73.7679C50.4405 72.6866 50.9442 71.6098 51.6807 70.7259Z" fill="#C2D920"/>
<path d="M53.6531 70.569C54.4473 70.1282 54.8152 71.4124 55.1938 71.8816C57.2824 75.172 57.5886 79.5595 55.9093 83.0808C55.5624 83.8445 54.8033 83.1244 54.7915 82.5576C53.7076 78.748 52.8496 74.6916 53.5434 70.737C53.5706 70.6756 53.6052 70.6167 53.6531 70.569Z" fill="#A8CD51"/>
<path d="M29.9262 94.2892C31.8196 93.2855 34.0319 93.0265 36.0982 92.52C38.721 92.073 41.3704 91.3846 44.0417 91.5041C44.9383 91.8641 43.9937 92.8088 43.5975 93.1813C40.9237 95.9233 36.9086 98.1325 32.9966 96.9794C31.8119 96.5357 30.4371 96.0074 29.7278 94.9147C29.6578 94.6887 29.7509 94.4404 29.9262 94.2892Z" fill="#C9D68B"/>
<path d="M50.6865 103.088C53.0318 100.492 56.6475 98.7951 60.1731 99.4559C60.8479 99.6149 60.5272 100.458 59.9259 100.451C56.2016 101.84 52.6811 103.711 49.5291 106.141C48.9576 106.621 48.455 105.764 48.9404 105.325C49.4434 104.522 50.0567 103.793 50.6865 103.088Z" fill="#BAC86F"/>
<path d="M49.3654 107.26C52.6085 104.529 56.4106 102.496 60.4185 101.148C61.3324 101.22 60.7097 102.31 60.382 102.729C58.7095 104.964 56.6025 107.006 53.8762 107.851C52.2242 108.4 50.3746 108.785 48.6783 108.342C48.3929 107.823 49.0956 107.578 49.3654 107.26Z" fill="#788B36"/>
<path d="M65.582 75.2502C66.0256 75.7801 67.2325 76.1773 67.0366 77.023C66.7153 77.2933 66.2224 77.4254 66.2921 77.9782C66.1916 82.1919 67.3731 86.3612 69.132 90.1628C68.9718 91.3263 67.8724 90.0221 67.3793 89.6703C64.6107 87.4628 63.9592 83.6681 64.3128 80.3285C64.5053 78.6373 64.6643 76.8573 65.2754 75.2847L65.4439 75.2658L65.582 75.2502Z" fill="#D0DF6C"/>
<path d="M67.2863 77.1909C69.1617 78.839 69.8586 81.4882 70.2717 83.8862C70.4805 85.5276 70.5735 87.2552 70.1263 88.8599C69.4152 89.4824 69.1042 88.1889 68.8918 87.7165C67.6425 84.449 66.8225 80.9204 66.9452 77.4267C66.9362 77.2221 67.1726 77.2695 67.2863 77.1909Z" fill="#92A237"/>
<path d="M88.8433 82.6504C88.1415 82.6752 87.4306 82.7924 86.7125 83.0126C81.3574 84.9894 79.2083 91.3804 80.5973 96.7857C80.5973 96.7857 80.622 96.8517 80.6302 96.8517C80.6055 96.8495 80.481 96.827 80.481 96.827C75.029 96.794 68.9891 99.0873 67.3597 104.434C66.1566 110.191 72.5014 113.709 78.1201 114.623C75.631 119.163 77.0442 125.38 81.7807 127.885C86.9425 130.369 93.3364 127.54 95.4603 122.354C95.4603 122.354 95.4637 122.304 95.4647 122.304C95.5389 122.337 95.7071 122.432 95.7071 122.432C100.613 124.021 106.464 124.503 110.58 121.119C112.218 119.673 112.796 117.342 112.123 115.294C111.087 112.344 108.781 110.186 106.421 108.411C106.445 108.387 106.566 108.318 106.566 108.318C108.171 106.978 110.507 105.952 111.756 103.651C113.616 99.9332 112.963 95.0614 109.711 92.3411C106.78 90.0206 102.667 89.8194 99.3297 91.3437C97.868 86.5653 93.6413 82.4697 88.8433 82.6504ZM88.9175 84.0738L88.9132 84.0821C92.8934 83.8174 96.7088 87.7648 97.9605 92.0937C97.9605 92.0937 98.2788 92.8202 98.7356 92.929C98.8099 92.9455 98.8767 92.9867 98.9575 92.9702C98.9651 92.9682 98.9657 92.9621 98.974 92.9539C99.2972 92.9704 99.6049 92.8877 99.6049 92.8877C102.514 91.4165 106.302 91.4978 108.742 93.531C111.416 95.6141 111.93 99.8605 110.378 102.966C109.613 104.694 107.406 105.558 105.567 107.147C105.567 107.147 104.348 108.298 105.004 108.821C105.07 109.225 105.418 109.593 105.418 109.593C107.701 111.346 109.862 113.275 110.663 115.785C111.166 117.229 110.738 119.008 109.577 119.957C106.237 122.949 100.875 122.355 96.1699 120.933C96.1699 120.933 94.7164 120.509 94.4695 121.184C94.453 121.225 94.4623 121.272 94.4613 121.316C94.2172 121.527 94.0522 121.798 94.0522 121.798C92.3368 126.179 86.6426 128.734 82.4651 126.519C78.4399 124.618 77.2356 118.95 79.5033 115.171C79.5033 115.171 80.2792 113.938 79.7927 113.505C79.6657 113.392 79.5206 113.382 79.3705 113.415C79.1149 113.241 78.8461 113.142 78.8461 113.142C73.5672 112.156 67.2288 109.245 68.8314 104.845C69.8983 100.391 75.448 98.4859 80.4825 98.4098C80.4825 98.4098 81.0688 98.3766 81.5521 98.2092C81.6544 98.2422 81.7616 98.2504 81.8762 98.2049C82.0428 98.1389 82.1146 97.937 82.1533 97.7061C82.1544 97.6983 82.1614 97.6894 82.1615 97.6812C82.1621 97.6734 82.157 97.6648 82.1572 97.6565C82.2314 97.1197 82.0913 96.3994 82.0913 96.3994C80.8986 91.6359 82.7123 85.8544 87.2052 84.4544C87.7733 84.2334 88.349 84.1118 88.9175 84.0738ZM91.2911 89.2899C87.4869 88.913 83.5145 90.9043 82.4441 94.6894C82.4441 94.6894 82.4112 95.2675 83.0709 95.35C83.6845 95.4242 83.8931 95.0513 83.8931 95.0513C84.7192 91.096 90.5583 89.5533 94.1335 91.7743C94.1335 91.7743 94.7083 92.1182 95.1479 91.5483C95.5816 90.9859 94.926 90.4787 94.926 90.4787C93.8092 89.8058 92.5592 89.4156 91.2911 89.2899ZM97.7602 93.2191C97.7602 93.2191 97.2794 93.1697 97.0955 93.7907C96.9199 94.3844 97.206 94.6385 97.206 94.6385C100.518 95.9045 102.762 99.7157 102.209 103.196C102.209 103.196 102.135 103.753 102.844 103.92C103.524 104.08 103.713 103.421 103.713 103.421C104.324 99.1671 101.76 94.8088 97.7602 93.2191ZM94.3042 93.309C88.1077 93.4846 82.7844 98.2504 81.5492 104.342C81.5492 104.342 81.5429 105.022 82.1925 105.088C82.8068 105.145 83.0447 104.636 83.0447 104.636C84.0742 99.2275 88.9081 94.8668 94.3336 94.8172C94.3336 94.8172 95.1962 94.8005 95.2456 94.0839C95.2869 93.3747 94.3042 93.309 94.3042 93.309ZM102.844 93.8591C102.844 93.8591 102.404 93.7695 102.162 94.3748C101.932 94.9504 102.158 95.2101 102.158 95.2101C104.974 96.5599 106.096 100.464 105.282 103.665C105.282 103.665 105.168 104.179 105.861 104.41C106.519 104.63 106.769 104.052 106.769 104.052C107.778 100.238 106.387 95.7517 102.844 93.8591ZM92.4545 95.2697C92.4545 95.2697 91.7875 95.3761 91.837 96.0325C91.8864 96.6436 92.387 96.7993 92.387 96.7993C95.0368 96.9189 97.6674 98.5602 98.4384 101.018C99.221 103.327 98.9134 106.022 97.6929 108.148C97.6929 108.148 97.2937 108.86 97.8759 109.277C98.454 109.691 99.0223 108.911 99.0223 108.911C100.467 106.401 100.812 103.288 99.8874 100.529C98.7774 97.4054 95.6863 95.4173 92.4545 95.2697ZM91.9045 98.5894C90.8232 98.6727 89.7536 99.0035 88.8148 99.5654C86.4378 100.974 84.6292 103.364 84.0718 106.107C83.596 109.25 86.2367 111.928 89.2453 112.269C92.3127 112.649 95.645 110.824 96.294 107.649C96.7607 105.902 96.9742 103.271 94.977 101.867C93.4056 101.176 91.8091 101.842 90.8221 102.732C89.7143 103.508 88.6554 104.755 88.5507 106.388C88.6818 107.249 89.1238 107.875 89.7056 108.297C89.7056 108.297 90.3059 108.721 91.0521 108.779C91.8067 108.837 92.4193 108.566 92.4202 108.208C92.4218 107.65 90.4684 107.036 90.4684 107.036C90.1113 106.89 89.9283 106.696 90.0808 106.419C90.0231 105.55 90.8815 104.694 91.7555 103.943C92.6683 103.367 93.7081 102.746 94.24 103.21C95.374 103.523 94.9015 105.623 94.7811 107.399C94.5345 109.598 91.7689 111.004 89.4242 110.752C87.2206 110.484 85.0185 108.412 85.5718 106.41C86.0163 104.142 87.5869 102.09 89.599 100.883C91.0612 100.016 92.9893 99.8208 94.4657 100.482C94.4657 100.482 95.7383 101.015 96.0212 100.61C96.4706 99.9655 95.0751 99.1182 95.0751 99.1182C94.0803 98.6753 92.9857 98.507 91.9045 98.5894ZM77.901 99.2672C73.366 101.13 72.7264 107.772 76.1751 111.217C76.1751 111.217 76.7465 111.745 77.2192 111.132C77.6232 110.611 77.2358 110.139 77.2358 110.139C74.5395 107.543 75.0009 101.729 78.4162 100.665C78.4162 100.665 78.7667 100.435 78.5828 99.8302C78.3956 99.2166 77.901 99.2672 77.901 99.2672ZM80.1171 100.87C79.7262 100.976 79.4441 101.415 79.4441 101.415C77.5567 105.804 78.38 111.189 81.5961 114.762C84.6781 118.12 89.7163 119.287 93.959 117.758C93.959 117.758 95.3329 117.205 94.952 116.488C94.6608 115.94 93.4391 116.33 93.4391 116.33C89.8077 117.66 85.3218 116.628 82.7298 113.735C79.923 110.671 79.1903 105.829 80.8462 102.02C80.8462 102.02 81.0968 101.154 80.5352 100.904C80.3868 100.838 80.2474 100.837 80.1171 100.87ZM102.162 105.677C101.523 105.463 101.122 106.333 101.122 106.333C100.16 109.033 99.0192 111.671 96.899 113.211C94.698 114.96 91.4386 114.787 88.4484 114.055C88.4484 114.055 87.7952 114.022 87.6517 114.639C87.5082 115.252 88.0648 115.551 88.0648 115.551C91.2687 116.404 94.9632 116.489 97.8197 114.434C100.303 112.513 101.621 109.639 102.58 106.844C102.58 106.844 102.871 105.914 102.162 105.677ZM103.816 109.376C103.156 109.458 103.117 110.087 103.117 110.087C103.298 113.962 99.9354 117.657 96.0386 117.856C96.0386 117.856 95.6131 118 95.6379 118.632C95.6626 119.266 96.1368 119.374 96.1368 119.374C100.891 119.004 104.724 114.783 104.626 110.036C104.626 110.036 104.576 109.281 103.816 109.376ZM80.539 115.517C79.9007 115.574 79.8231 116.118 79.8231 116.118C80.1901 118.925 82.1645 121.483 85.0222 122.131C87.5481 122.631 90.1989 122.005 92.3139 120.601C92.3139 120.601 92.9909 120.109 92.5183 119.506C92.111 118.986 91.4657 119.318 91.4657 119.318C89.6593 120.505 87.393 121.06 85.3248 120.631C83.2047 120.273 81.639 118.152 81.3446 115.922C81.3446 115.922 81.1633 115.459 80.539 115.517Z" fill="#FF8080"/>
<path d="M89.1542 83.7667C85.5263 83.8483 82.6191 86.8753 81.8206 90.2732C80.9678 92.7258 81.7707 95.3844 81.668 97.8313C77.804 98.2763 73.4567 98.5862 70.5093 101.48C68.5823 103.309 67.3339 106.72 69.3244 108.945C71.9595 111.86 76.0454 112.762 79.6015 113.809C79.0376 115.56 78.0309 117.236 78.075 119.152C77.8151 123.008 80.554 127.011 84.5084 127.532C88.5814 128.194 92.7468 125.661 94.3858 121.942C94.6623 121.112 95.4346 120.977 96.1452 121.312C100.308 122.411 105.2 123.347 109.027 120.777C110.91 119.684 111.769 117.209 110.763 115.236C109.68 112.642 107.346 110.909 105.48 108.957C104.731 107.897 106.261 107.181 106.889 106.591C108.697 105.275 110.822 103.909 111.247 101.524C112.433 97.7741 110.452 93.184 106.587 91.9888C104.352 91.4242 101.929 91.5148 99.8066 92.3941C99.2565 92.65 98.5576 92.7534 98.3759 91.9759C97.1043 88.6948 94.9488 85.4252 91.5023 84.1673C90.7514 83.8978 89.9532 83.7488 89.1542 83.7667ZM90.2341 89.6259C91.8422 89.7178 93.7826 89.8511 94.9396 91.0996C94.8504 91.8183 93.7506 91.139 93.3411 91.0526C90.98 90.0068 88.081 90.3955 85.9067 91.7201C84.6806 92.4373 84.0278 93.7428 83.3859 94.9224C82.9472 95.0653 82.607 94.8261 82.9263 94.3809C83.9853 91.3723 87.1608 89.6522 90.2341 89.6259ZM97.6586 93.6082C101.441 95.0953 103.983 99.4183 103.285 103.455C102.684 103.749 102.33 103.183 102.612 102.672C102.873 99.4433 100.805 96.2734 98.0825 94.6679C97.7182 94.4495 97.0531 94.0048 97.6586 93.6082ZM94.2463 93.6977C94.9487 93.5016 94.9913 94.5987 94.2595 94.4788C89.3263 94.5564 84.7501 98.2784 83.1783 102.934C82.8712 103.387 82.8972 105.033 82.016 104.596C82.1327 102.464 83.292 100.483 84.5429 98.7954C86.8595 95.8496 90.439 93.7298 94.2463 93.6977ZM102.8 94.3072C104.455 94.9687 105.372 96.7484 106.108 98.2789C106.859 100.064 106.785 102.139 106.372 103.988C105.737 104.377 105.58 103.507 105.717 103.043C106.048 100.526 105.57 97.7699 103.678 95.9406C103.325 95.5279 102.043 94.9625 102.678 94.319C102.717 94.3037 102.759 94.3029 102.8 94.3072ZM93.6696 95.7835C96.8558 96.3876 99.5978 99.014 99.9135 102.307C100.116 104.538 99.9488 107.028 98.5132 108.844C98.0416 109.238 97.7691 108.597 98.0958 108.222C98.8893 106.649 99.2306 104.914 99.0753 103.154C99.2916 99.7363 96.2537 96.9525 93.0305 96.503C92.4462 96.5283 91.8301 95.9738 92.4478 95.5228C92.8067 95.5207 93.2781 95.7124 93.6696 95.7835ZM92.5601 98.9397C93.7112 98.9506 95.1661 99.2491 95.7246 100.336C94.3294 100.251 92.9439 99.537 91.5007 99.8891C88.4403 100.49 86.0633 103.252 85.2774 106.181C84.6382 108.825 87.3131 111.055 89.7897 111.058C92.3191 111.248 95.0628 109.485 95.1869 106.786C95.2847 105.466 95.6458 103.454 94.1498 102.788C92.5869 102.599 91.2205 103.867 90.2804 104.981C89.6506 105.676 89.4491 107.038 90.5328 107.404C90.9659 107.624 91.845 107.843 91.9182 108.285C90.1114 108.928 88.1558 106.736 89.2505 105.065C90.2345 103.101 92.7265 101.269 94.9419 102.32C96.6359 103.671 96.2643 106.223 95.7533 108.071C94.9884 110.809 91.9451 112.233 89.3213 111.855C86.7701 111.626 84.1267 109.371 84.4798 106.628C84.5758 104.195 86.2 102.036 88.05 100.54C89.3409 99.5637 90.9278 98.9313 92.5601 98.9397ZM78.1149 99.7239C78.649 100.569 77.1263 100.746 76.7787 101.321C74.3647 103.795 74.8695 107.979 76.9647 110.493C77.2797 110.877 76.4859 111.411 76.3107 110.787C73.5753 107.954 73.6271 102.603 76.9321 100.223C77.2919 99.9993 77.6794 99.7386 78.1149 99.7239ZM80.4055 101.27C80.6599 102.015 80.0386 102.961 79.9443 103.761C78.6641 108.779 81.3404 114.542 86.219 116.473C88.5267 117.428 91.2987 117.554 93.5759 116.544C93.6146 115.428 91.9563 115.969 91.2218 115.731C90.1935 115.526 88.8518 115.675 88.0382 114.951C87.748 114.221 88.9379 114.563 89.287 114.58C92.3685 115.256 96.1417 114.999 98.2526 112.334C99.8956 110.587 100.578 108.241 101.713 106.195C102.124 105.565 102.256 106.689 102.097 106.942C101.24 109.796 99.7448 112.707 97.18 114.376C96.2676 115.018 95.1431 115.256 94.1711 115.742C93.6715 116.252 94.5193 116.503 94.6169 116.806C93.1923 118.13 91.0366 117.939 89.2285 118.047C86.3335 117.77 83.5181 116.433 81.6208 114.271C78.8526 110.798 77.944 105.801 79.7419 101.687C79.8497 101.403 80.0956 101.222 80.4055 101.27ZM103.982 109.723C104.666 110.632 103.972 111.899 103.792 112.888C102.726 116.111 99.6592 118.735 96.2425 118.956C95.7989 118.683 96.2446 118.006 96.7317 118.125C100.497 117.434 103.423 113.939 103.54 110.128C103.527 109.799 103.693 109.744 103.982 109.723ZM80.4979 115.88C81.3521 115.924 81.0887 117.234 81.5409 117.755C82.5588 120.552 85.9313 121.658 88.6328 120.87C89.8537 120.687 90.904 119.815 92.0745 119.616C92.6855 120.253 91.4619 120.676 91.043 120.934C88.2818 122.195 84.5481 122.55 82.249 120.199C81.1482 119.088 80.1542 117.5 80.3297 115.905C80.3814 115.88 80.4416 115.881 80.4979 115.88Z" fill="#FFAAAA"/>
<path d="M117.579 102.76C117.087 102.489 116.55 102.278 115.966 102.135C111.474 101.297 107.375 104.808 106.112 109.094C106.112 109.094 106.102 109.149 106.108 109.153C106.092 109.141 106.015 109.074 106.015 109.074C102.281 106.815 97.1886 105.914 93.8751 108.92C90.6863 112.384 93.6043 117.405 97.0913 120.339C93.5181 122.438 91.9387 127.292 94.1669 130.956C96.6961 134.781 102.251 135.46 105.839 132.766C105.839 132.766 105.862 132.734 105.863 132.734C105.9 132.787 105.977 132.921 105.977 132.921C108.697 136.026 112.521 138.758 116.739 138.121C118.458 137.799 119.812 136.434 120.189 134.749C120.687 132.297 119.988 129.867 119.093 127.679C119.12 127.672 119.231 127.674 119.231 127.674C120.884 127.412 122.911 127.665 124.714 126.596C127.517 124.803 129.067 121.187 127.948 117.983C126.885 115.185 124.14 113.359 121.221 113.038C122.177 109.154 120.951 104.605 117.579 102.76ZM117.046 103.769L117.04 103.773C119.884 105.224 120.888 109.503 119.972 112.992C119.972 112.992 119.893 113.622 120.162 113.884C120.206 113.926 120.235 113.982 120.298 114.003C120.304 114.005 120.307 114.001 120.316 113.999C120.531 114.143 120.777 114.212 120.777 114.212C123.38 114.394 125.951 116.004 126.793 118.403C127.777 120.932 126.388 124.062 124.047 125.56C122.812 126.433 120.941 126.122 119.025 126.459C119.025 126.459 117.715 126.751 117.951 127.38C117.831 127.684 117.919 128.08 117.919 128.08C118.769 130.221 119.463 132.434 118.985 134.488C118.737 135.687 117.713 136.734 116.526 136.91C113.002 137.597 109.561 134.988 106.91 132.081C106.91 132.081 106.085 131.193 105.638 131.556C105.61 131.577 105.597 131.613 105.578 131.643C105.324 131.688 105.099 131.806 105.099 131.806C102.123 134.114 97.1604 133.535 95.1976 130.298C93.2107 127.34 94.7085 122.95 97.8174 121.283C97.8174 121.283 98.8565 120.754 98.7 120.256C98.659 120.126 98.5633 120.06 98.4466 120.021C98.3423 119.797 98.1981 119.618 98.1981 119.618C94.9741 116.775 91.8112 112.174 94.7182 109.806C97.2787 107.183 101.875 108.15 105.367 110.163C105.367 110.163 105.783 110.381 106.184 110.464C106.241 110.529 106.311 110.578 106.409 110.594C106.551 110.617 106.683 110.508 106.804 110.365C106.808 110.36 106.816 110.357 106.82 110.351C106.823 110.346 106.824 110.338 106.827 110.332C107.098 109.994 107.297 109.441 107.297 109.441C108.432 105.677 112.05 102.447 115.713 103.328C116.194 103.41 116.64 103.562 117.046 103.769ZM116.538 108.328C114.078 106.509 110.53 106.248 108.242 108.41C108.242 108.41 107.982 108.794 108.401 109.122C108.793 109.424 109.089 109.254 109.089 109.254C111.28 106.874 115.926 108.209 117.473 111.202C117.473 111.202 117.727 111.674 118.262 111.463C118.791 111.254 118.549 110.637 118.549 110.637C118.057 109.716 117.358 108.935 116.538 108.328ZM119.373 113.683C119.373 113.683 119.062 113.452 118.681 113.803C118.317 114.14 118.409 114.432 118.409 114.432C120.166 116.66 120.146 120.201 118.338 122.366C118.338 122.366 118.058 122.719 118.477 123.125C118.879 123.513 119.28 123.138 119.28 123.138C121.444 120.465 121.47 116.417 119.373 113.683ZM116.96 112.327C112.629 109.906 107.015 110.998 103.666 114.679C103.666 114.679 103.383 115.143 103.803 115.455C104.201 115.747 104.574 115.494 104.574 115.494C107.5 112.199 112.612 111.184 116.362 113.376C116.362 113.376 116.961 113.718 117.289 113.246C117.609 112.776 116.96 112.327 116.96 112.327ZM122.605 116.209C122.605 116.209 122.339 115.967 121.924 116.284C121.53 116.585 121.579 116.856 121.579 116.856C122.961 118.939 122.131 122.083 120.257 123.949C120.257 123.949 119.968 124.256 120.35 124.7C120.712 125.12 121.121 124.826 121.121 124.826C123.379 122.618 124.264 118.963 122.605 116.209ZM114.884 112.916C114.884 112.916 114.382 112.716 114.147 113.187C113.93 113.627 114.21 113.94 114.21 113.94C115.983 115.109 117.118 117.317 116.639 119.323C116.23 121.23 114.913 122.957 113.202 123.917C113.202 123.917 112.636 124.243 112.864 124.769C113.092 125.291 113.803 124.987 113.803 124.987C115.826 123.855 117.34 121.856 117.836 119.58C118.354 116.978 117.045 114.343 114.884 112.916ZM113.144 114.972C112.367 114.586 111.496 114.375 110.62 114.376C108.408 114.369 106.185 115.27 104.676 116.926C103.06 118.892 103.776 121.816 105.704 123.285C107.657 124.804 110.696 124.917 112.445 123.001C113.483 121.991 114.709 120.27 113.912 118.486C113.115 117.367 111.745 117.169 110.701 117.376C109.621 117.455 108.382 117.878 107.64 118.957C107.377 119.603 107.424 120.214 107.65 120.743C107.65 120.743 107.889 121.281 108.378 121.627C108.873 121.976 109.405 122.041 109.553 121.796C109.783 121.413 108.692 120.19 108.692 120.19C108.507 119.942 108.46 119.734 108.679 119.606C108.996 118.985 109.937 118.749 110.846 118.591C111.709 118.57 112.679 118.57 112.854 119.106C113.505 119.787 112.319 121.037 111.508 122.208C110.436 123.619 107.958 123.45 106.45 122.316C105.045 121.227 104.381 118.899 105.583 117.75C106.819 116.373 108.741 115.607 110.619 115.603C111.98 115.607 113.385 116.264 114.129 117.324C114.129 117.324 114.784 118.213 115.145 118.05C115.719 117.792 115.107 116.637 115.107 116.637C114.605 115.924 113.921 115.359 113.144 114.972ZM103.241 109.693C99.3593 109.113 96.1945 113.417 97.1519 117.199C97.1519 117.199 97.3279 117.797 97.9045 117.569C98.3957 117.377 98.3233 116.893 98.3233 116.893C97.5348 114.003 100.237 110.196 103.021 110.866C103.021 110.866 103.357 110.851 103.478 110.36C103.601 109.861 103.241 109.693 103.241 109.693ZM104.107 111.704C103.794 111.617 103.42 111.803 103.42 111.803C100.322 114.046 98.6787 118.085 99.4239 121.86C100.165 125.433 103.149 128.302 106.693 128.991C106.693 128.991 107.864 129.175 107.896 128.526C107.921 128.03 106.921 127.797 106.921 127.797C103.879 127.221 101.219 124.671 100.624 121.619C99.952 118.362 101.435 114.733 104.136 112.794C104.136 112.794 104.663 112.301 104.38 111.899C104.305 111.793 104.21 111.735 104.107 111.704ZM117.288 124.052C116.936 123.643 116.304 124.077 116.304 124.077C114.535 125.538 112.668 126.883 110.579 127.072C108.349 127.371 106.179 125.915 104.424 124.185C104.424 124.185 103.988 123.895 103.637 124.26C103.287 124.622 103.547 125.056 103.547 125.056C105.399 126.957 107.904 128.531 110.71 128.291C113.206 127.989 115.29 126.554 117.096 125.026C117.096 125.026 117.678 124.506 117.288 124.052ZM116.907 127.273C116.419 127.059 116.135 127.476 116.135 127.476C114.669 130.213 110.842 131.374 108.082 129.912C108.082 129.912 107.73 129.837 107.488 130.281C107.245 130.727 107.527 130.995 107.527 130.995C110.946 132.692 115.313 131.363 117.193 128.06C117.193 128.06 117.468 127.52 116.907 127.273ZM98.3876 121.945C97.9252 121.723 97.6489 122.065 97.6489 122.065C96.7493 124.145 97.0573 126.713 98.7557 128.331C100.287 129.711 102.365 130.368 104.395 130.271C104.395 130.271 105.063 130.21 104.985 129.602C104.919 129.077 104.339 129.041 104.339 129.041C102.61 129.116 100.825 128.567 99.579 127.424C98.2685 126.308 98.0625 124.208 98.775 122.554C98.775 122.554 98.8404 122.161 98.3876 121.945Z" fill="#A02C2C"/>
<path d="M117.338 103.657C114.811 102.225 111.571 103.113 109.628 105.121C108.035 106.457 107.496 108.614 106.422 110.254C103.583 108.974 100.468 107.404 97.2547 108.184C95.1798 108.651 92.9225 110.483 93.3777 112.829C93.9934 115.914 96.4318 118.21 98.4464 120.389C97.3405 121.361 95.961 122.1 95.2054 123.435C93.4449 125.979 93.685 129.855 96.1896 131.835C98.7177 133.961 102.62 133.929 105.273 132.044C105.803 131.587 106.389 131.812 106.74 132.333C109.151 134.797 112.13 137.447 115.815 137.25C117.557 137.272 119.163 135.923 119.281 134.154C119.601 131.927 118.708 129.778 118.226 127.67C118.146 126.634 119.491 126.77 120.165 126.622C121.948 126.459 123.968 126.392 125.239 124.927C127.593 122.836 128.114 118.868 125.948 116.461C124.643 115.156 122.94 114.224 121.121 113.958C120.638 113.908 120.115 113.692 120.309 113.083C120.781 110.306 120.641 107.175 118.788 104.896C118.382 104.403 117.895 103.973 117.338 103.657ZM115.676 108.128C116.744 108.851 118.023 109.738 118.306 111.071C117.95 111.529 117.473 110.611 117.227 110.383C116.033 108.696 113.881 107.774 111.843 107.792C110.706 107.782 109.721 108.412 108.796 108.959C108.436 108.877 108.3 108.573 108.702 108.398C110.665 106.765 113.553 106.885 115.676 108.128ZM119.146 113.911C121.136 116.485 121.11 120.5 118.974 122.988C118.44 122.944 118.43 122.409 118.833 122.173C120.337 120.061 120.215 117.034 119.003 114.813C118.842 114.514 118.567 113.935 119.146 113.911ZM116.764 112.573C117.327 112.726 116.906 113.498 116.453 113.115C113.03 111.145 108.357 111.826 105.367 114.381C104.97 114.566 104.312 115.709 103.886 115.046C104.841 113.629 106.45 112.743 108.003 112.096C110.804 111.021 114.134 111.033 116.764 112.573ZM122.393 116.501C123.259 117.634 123.16 119.234 123.038 120.588C122.821 122.123 121.92 123.52 120.878 124.621C120.281 124.627 120.53 123.965 120.815 123.703C122.075 122.108 122.877 120.017 122.327 117.984C122.254 117.555 121.604 116.641 122.305 116.459C122.338 116.464 122.367 116.481 122.393 116.501ZM115.512 113.77C117.454 115.492 118.261 118.423 117.128 120.815C116.352 122.432 115.215 124.076 113.483 124.735C112.997 124.812 113.073 124.259 113.451 124.136C114.642 123.38 115.589 122.327 116.204 121.054C117.755 118.793 116.809 115.634 114.777 114.002C114.365 113.78 114.169 113.146 114.779 113.089C115.026 113.235 115.272 113.56 115.512 113.77ZM113.454 115.484C114.241 115.964 115.119 116.766 115.057 117.742C114.133 117.112 113.473 116.052 112.337 115.702C109.986 114.86 107.22 115.783 105.478 117.474C103.953 119.029 104.877 121.66 106.578 122.678C108.239 123.846 110.848 123.76 112.041 121.955C112.65 121.088 113.724 119.853 112.968 118.781C111.971 118.011 110.512 118.322 109.409 118.702C108.691 118.921 107.994 119.774 108.588 120.471C108.796 120.8 109.31 121.311 109.179 121.645C107.673 121.346 107.229 119.036 108.667 118.337C110.148 117.391 112.613 117.153 113.705 118.785C114.315 120.408 113.012 122.011 111.903 123.071C110.254 124.639 107.578 124.369 105.929 123.033C104.27 121.829 103.378 119.195 104.746 117.454C105.81 115.821 107.812 115.003 109.698 114.734C110.986 114.592 112.336 114.809 113.454 115.484ZM103.203 110.097C103.224 110.897 102.104 110.394 101.63 110.646C98.9551 111.357 97.5857 114.44 97.9945 117.028C98.0534 117.421 97.2887 117.462 97.4243 116.962C96.7064 113.892 98.9372 110.235 102.185 109.955C102.525 109.949 102.898 109.929 103.203 110.097ZM104.143 112.099C104.013 112.716 103.198 113.111 102.805 113.622C99.8658 116.547 99.341 121.606 101.902 124.935C103.097 126.538 104.951 127.762 106.93 128.002C107.415 127.25 106.053 126.942 105.646 126.477C105.023 125.915 104.039 125.467 103.777 124.635C103.877 124.014 104.555 124.737 104.788 124.892C106.629 126.621 109.328 127.993 111.872 127.026C113.718 126.5 115.15 125.167 116.769 124.227C117.31 123.962 116.94 124.789 116.727 124.897C114.967 126.508 112.745 127.895 110.297 127.99C109.406 128.057 108.536 127.759 107.668 127.695C107.116 127.84 107.596 128.361 107.538 128.609C106.016 128.934 104.612 127.919 103.326 127.251C101.449 125.873 100.062 123.799 99.645 121.535C99.1669 118.012 100.593 114.204 103.516 112.114C103.707 111.963 103.95 111.939 104.143 112.099ZM116.882 127.582C116.979 128.488 115.982 129.074 115.453 129.68C113.398 131.458 110.213 132.003 107.774 130.754C107.581 130.384 108.165 130.102 108.451 130.383C111.322 131.453 114.768 130.251 116.411 127.68C116.538 127.448 116.675 127.478 116.882 127.582ZM98.2131 122.18C98.7823 122.561 98.0636 123.353 98.1609 123.897C97.7132 126.237 99.5775 128.381 101.758 128.947C102.672 129.323 103.752 129.154 104.638 129.497C104.797 130.186 103.782 129.975 103.388 129.98C100.973 129.714 98.2608 128.427 97.6449 125.867C97.3439 124.652 97.3122 123.153 98.0871 122.128C98.1331 122.132 98.1739 122.158 98.2131 122.18Z" fill="#FF8080"/>
<path d="M61.3902 118.224C61.0544 118.383 60.7336 118.589 60.4308 118.846C58.2433 120.929 58.5384 124.484 60.3459 126.82C60.3459 126.82 60.3718 126.846 60.3758 126.845C60.3633 126.849 60.2981 126.864 60.2981 126.864C57.6423 127.99 55.1883 130.37 55.5171 133.309C56.139 136.359 59.9589 136.738 62.8804 136.005C62.6223 138.732 64.6119 141.457 67.438 141.681C70.4664 141.806 72.9802 139.092 72.9252 136.127C72.9252 136.127 72.9165 136.102 72.917 136.102C72.96 136.103 73.0615 136.114 73.0615 136.114C75.778 135.857 78.722 134.866 80.0125 132.359C80.5054 131.313 80.2979 130.059 79.5413 129.206C78.4198 127.99 76.8474 127.424 75.3287 127.056C75.3355 127.039 75.3796 126.98 75.3796 126.98C75.8787 125.993 76.7988 125.005 76.9236 123.626C77.048 121.429 75.7098 119.199 73.5596 118.559C71.6494 118.046 69.6089 118.81 68.3068 120.25C66.5953 118.235 63.6835 117.13 61.3902 118.224ZM61.7245 118.9L61.7242 118.905C63.6025 117.942 66.2835 119.06 67.7988 120.901C67.7988 120.901 68.1056 121.188 68.3504 121.145C68.3899 121.137 68.431 121.143 68.4668 121.118C68.4701 121.116 68.4691 121.113 68.4714 121.107C68.6319 121.047 68.7641 120.942 68.7641 120.942C69.8691 119.618 71.7268 118.864 73.338 119.34C75.0741 119.792 76.2137 121.747 76.1103 123.582C76.1006 124.581 75.2098 125.464 74.6487 126.621C74.6487 126.621 74.298 127.436 74.7265 127.552C74.8431 127.735 75.0888 127.841 75.0888 127.841C76.5657 128.214 78.0198 128.698 78.9352 129.75C79.4819 130.346 79.6468 131.3 79.2815 132.004C78.2858 134.158 75.5561 134.993 72.9722 135.288C72.9722 135.288 72.1771 135.387 72.1987 135.767C72.1993 135.79 72.2137 135.811 72.2224 135.832C72.148 135.986 72.1246 136.152 72.1246 136.152C72.2093 138.64 69.9782 141.075 67.4844 140.874C65.1303 140.794 63.3572 138.292 63.6672 135.981C63.6672 135.981 63.7859 135.22 63.4586 135.111C63.3732 135.083 63.3007 135.108 63.2347 135.156C63.074 135.125 62.9226 135.133 62.9226 135.133C60.1512 135.76 56.4618 135.675 56.3182 133.201C55.9033 130.813 58.2004 128.725 60.6305 127.633C60.6305 127.633 60.9084 127.494 61.1081 127.311C61.1647 127.306 61.2186 127.287 61.2647 127.241C61.3318 127.174 61.3244 127.061 61.2948 126.941C61.2937 126.937 61.2953 126.931 61.2936 126.927C61.2922 126.923 61.2879 126.92 61.2863 126.916C61.2099 126.639 60.9909 126.319 60.9909 126.319C59.4131 124.254 59.0828 121.065 60.9723 119.443C61.2021 119.217 61.4562 119.037 61.7245 118.9ZM63.9708 120.937C62.0435 121.551 60.5308 123.351 60.8039 125.414C60.8039 125.414 60.9091 125.702 61.2469 125.604C61.5606 125.511 61.5838 125.286 61.5838 125.286C61.1563 123.191 63.67 121.218 65.8725 121.548C65.8725 121.548 66.2238 121.595 66.3179 121.226C66.4108 120.862 65.986 120.753 65.986 120.753C65.3024 120.66 64.6132 120.732 63.9708 120.937ZM67.9373 121.49C67.9373 121.49 67.6933 121.567 67.7341 121.907C67.7732 122.232 67.9655 122.296 67.9655 122.296C69.8398 122.217 71.7291 123.598 72.1895 125.405C72.1895 125.405 72.2701 125.691 72.6498 125.624C73.0134 125.559 72.9676 125.199 72.9676 125.199C72.3727 123.004 70.2138 121.424 67.9373 121.49ZM66.277 122.258C63.3032 123.642 61.7155 127.073 62.392 130.291C62.392 130.291 62.5313 130.623 62.8607 130.519C63.1713 130.418 63.1801 130.121 63.1801 130.121C62.5469 127.277 63.9817 124.146 66.6073 122.985C66.6073 122.985 67.0229 122.796 66.8968 122.437C66.7682 122.084 66.277 122.258 66.277 122.258ZM70.5415 120.736C70.5415 120.736 70.3088 120.784 70.3182 121.129C70.327 121.457 70.4912 121.536 70.4912 121.536C72.1421 121.602 73.5057 123.263 73.7806 124.989C73.7806 124.989 73.833 125.263 74.2186 125.23C74.5839 125.199 74.5845 124.866 74.5845 124.866C74.2753 122.801 72.6595 120.913 70.5415 120.736ZM65.7892 123.598C65.7892 123.598 65.4874 123.79 65.649 124.098C65.8011 124.385 66.0769 124.355 66.0769 124.355C67.3894 123.858 69.0114 124.104 69.9012 125.137C70.7651 126.095 71.1805 127.469 71.033 128.757C71.033 128.757 70.9882 129.187 71.3586 129.268C71.7262 129.348 71.8388 128.85 71.8388 128.85C72.0149 127.327 71.5301 125.742 70.5025 124.596C69.3087 123.311 67.3903 122.993 65.7892 123.598ZM66.2176 125.326C65.7097 125.593 65.2594 125.978 64.921 126.448C64.0614 127.631 63.6835 129.171 63.9873 130.62C64.4149 132.247 66.2591 132.995 67.7923 132.53C69.3623 132.072 70.5988 130.487 70.2489 128.808C70.1094 127.861 69.6618 126.538 68.3972 126.275C67.4891 126.269 66.8528 126.926 66.5598 127.566C66.1842 128.175 65.9311 129.003 66.2224 129.818C66.4665 130.209 66.8124 130.421 67.1836 130.504C67.1836 130.504 67.5641 130.584 67.9388 130.456C68.3175 130.326 68.5584 130.066 68.4838 129.892C68.3676 129.62 67.29 129.731 67.29 129.731C67.0857 129.735 66.9562 129.679 66.9722 129.512C66.7621 129.102 66.9998 128.507 67.2671 127.958C67.5899 127.488 67.965 126.968 68.3205 127.082C68.9371 126.996 69.1476 128.116 69.4612 129.003C69.8024 130.124 68.7533 131.386 67.5614 131.756C66.4346 132.087 64.9304 131.542 64.7796 130.453C64.5204 129.258 64.8534 127.932 65.578 126.924C66.1068 126.196 67.0028 125.697 67.8586 125.709C67.8586 125.709 68.5887 125.702 68.6411 125.445C68.7245 125.038 67.8689 124.919 67.8689 124.919C67.2927 124.912 66.7257 125.06 66.2176 125.326ZM59.556 128.59C57.7429 130.445 58.8241 133.807 61.2215 134.758C61.2215 134.758 61.6099 134.895 61.711 134.498C61.7982 134.16 61.5109 134.012 61.5109 134.012C59.657 133.316 58.6629 130.394 60.0993 129.162C60.0993 129.162 60.2212 128.976 60.0052 128.721C59.7857 128.462 59.556 128.59 59.556 128.59ZM60.9684 128.904C60.8008 129.038 60.7557 129.31 60.7557 129.31C60.7585 131.838 62.2871 134.282 64.5983 135.344C66.7993 136.33 69.4918 135.841 71.2327 134.209C71.2327 134.209 71.7844 133.652 71.449 133.384C71.1928 133.179 70.6809 133.624 70.6809 133.624C69.1952 135.031 66.7995 135.47 64.9339 134.608C62.9282 133.707 61.5574 131.508 61.5637 129.31C61.5637 129.31 61.5041 128.837 61.1787 128.833C61.0928 128.832 61.0248 128.861 60.9684 128.904ZM72.6865 126.62C72.3312 126.65 72.3189 127.157 72.3189 127.157C72.4173 128.67 72.4156 130.191 71.7083 131.384C71.0054 132.695 69.3855 133.293 67.7794 133.565C67.7794 133.565 67.4551 133.686 67.5147 134.015C67.5734 134.343 67.9065 134.372 67.9065 134.372C69.642 134.115 71.4547 133.382 72.412 131.785C73.2161 130.331 73.2541 128.659 73.1341 127.1C73.1341 127.1 73.0809 126.587 72.6865 126.62ZM74.265 128.071C73.9618 128.249 74.0748 128.563 74.0748 128.563C74.9745 130.408 74.1153 132.908 72.2637 133.821C72.2637 133.821 72.0872 133.98 72.2316 134.282C72.3765 134.585 72.6294 134.538 72.6294 134.538C74.8618 133.362 75.8395 130.508 74.7972 128.222C74.7972 128.222 74.6146 127.865 74.265 128.071ZM64.2428 135.932C63.9448 136.094 64.021 136.374 64.021 136.374C64.7876 137.662 66.2828 138.49 67.8071 138.206C69.139 137.92 70.2959 137.061 71.0292 135.935C71.0292 135.935 71.2549 135.554 70.899 135.36C70.5922 135.193 70.3484 135.49 70.3484 135.49C69.7194 136.445 68.7345 137.189 67.6398 137.414C66.5348 137.685 65.3295 136.982 64.7192 135.96C64.7192 135.96 64.534 135.773 64.2428 135.932Z" fill="#FF8080"/>
<path d="M61.7788 118.7C60.0332 119.5 59.2551 121.58 59.5792 123.398C59.6788 124.768 60.626 125.892 61.0889 127.102C59.3048 128.128 57.2576 129.19 56.432 131.213C55.879 132.506 55.9872 134.425 57.4206 135.089C59.3117 135.953 61.486 135.535 63.4332 135.298C63.5261 136.267 63.3882 137.292 63.811 138.214C64.4928 140.142 66.6625 141.513 68.6929 140.937C70.8106 140.405 72.3036 138.302 72.3204 136.151C72.2808 135.69 72.6279 135.463 73.0433 135.477C75.2961 135.138 77.8691 134.568 79.1899 132.517C79.8757 131.592 79.7742 130.209 78.8722 129.461C77.8027 128.428 76.3054 128.075 74.9897 127.518C74.4037 127.159 74.9968 126.491 75.1785 126.073C75.7812 125.054 76.5269 123.946 76.2338 122.698C76.0243 120.627 74.0998 118.812 71.9717 119.042C70.7673 119.236 69.609 119.788 68.7623 120.659C68.5486 120.899 68.2307 121.096 67.9795 120.756C66.6741 119.428 64.9417 118.292 63.0036 118.403C62.5823 118.429 62.1632 118.524 61.7788 118.7ZM63.5313 121.321C64.3318 121.028 65.3026 120.686 66.1263 121.05C66.2336 121.418 65.5569 121.319 65.3399 121.363C63.9735 121.349 62.6465 122.146 61.8677 123.245C61.4223 123.85 61.3786 124.621 61.314 125.329C61.1308 125.49 60.9153 125.445 60.9772 125.162C60.8612 123.478 62.0436 121.977 63.5313 121.321ZM67.9731 121.699C70.1223 121.629 72.2635 123.197 72.7705 125.305C72.54 125.573 72.2494 125.372 72.279 125.065C71.7293 123.442 70.0602 122.335 68.4011 122.125C68.1784 122.096 67.762 122.019 67.9731 121.699ZM66.3339 122.458C66.6341 122.216 66.8847 122.74 66.504 122.835C64.1235 123.906 62.68 126.674 62.892 129.265C62.8376 129.549 63.1953 130.344 62.6755 130.316C62.2855 129.256 62.4337 128.05 62.6877 126.968C63.1959 125.052 64.4908 123.271 66.3339 122.458ZM70.6175 120.962C71.5601 120.936 72.3785 121.609 73.0572 122.198C73.7959 122.908 74.1951 123.932 74.3819 124.916C74.1547 125.239 73.8961 124.849 73.8656 124.595C73.4989 123.302 72.6888 122.064 71.3866 121.571C71.1284 121.445 70.387 121.439 70.5606 120.993C70.5763 120.977 70.5967 120.968 70.6175 120.962ZM66.4908 123.592C68.1655 123.218 70.0481 123.92 70.8915 125.453C71.4576 126.495 71.8981 127.74 71.5811 128.923C71.4345 129.213 71.1677 128.959 71.248 128.708C71.3037 127.777 71.106 126.863 70.6618 126.041C70.0506 124.335 67.9913 123.619 66.3311 124.076C66.0525 124.211 65.637 124.07 65.8426 123.722C66.0165 123.645 66.2857 123.64 66.4908 123.592ZM66.6132 125.358C67.1747 125.122 67.9442 124.962 68.4432 125.373C67.7476 125.625 66.9248 125.568 66.2974 126.042C64.9365 126.975 64.3603 128.815 64.5922 130.402C64.8358 131.821 66.6028 132.344 67.8067 131.827C69.0754 131.389 70.039 129.957 69.5337 128.62C69.3046 127.958 69.0583 126.905 68.1919 126.895C67.3931 127.131 66.9948 128.033 66.7715 128.771C66.6113 129.241 66.7987 129.945 67.402 129.896C67.6585 129.912 68.1315 129.834 68.2597 130.033C67.5166 130.724 66.107 130.069 66.2887 129.028C66.3554 127.868 67.1821 126.455 68.4788 126.502C69.5848 126.803 69.9392 128.121 70.0781 129.125C70.2803 130.616 69.1001 131.946 67.7461 132.312C66.4586 132.735 64.7017 132.194 64.2985 130.787C63.8352 129.585 64.1718 128.195 64.7573 127.081C65.1799 126.336 65.8184 125.696 66.6132 125.358ZM59.7592 128.766C60.1957 129.065 59.493 129.47 59.4446 129.822C58.7902 131.53 59.9123 133.457 61.4571 134.24C61.6907 134.36 61.4169 134.786 61.201 134.52C59.2783 133.716 58.1822 131.106 59.2891 129.257C59.4171 129.073 59.5507 128.865 59.7592 128.766ZM61.1961 129.037C61.4759 129.346 61.3722 129.936 61.4939 130.344C61.9236 133.051 64.4316 135.29 67.2066 135.206C68.5278 135.186 69.9011 134.667 70.7958 133.698C70.5807 133.148 69.8884 133.758 69.4818 133.797C68.9392 133.913 68.3186 134.267 67.7714 134.085C67.4775 133.791 68.1272 133.708 68.3004 133.643C69.9392 133.326 71.7187 132.41 72.1857 130.673C72.618 129.48 72.4581 128.197 72.5806 126.965C72.6481 126.573 72.948 127.092 72.9235 127.248C73.1055 128.814 72.9889 130.541 72.0925 131.89C71.7839 132.393 71.2873 132.744 70.9169 133.184C70.7811 133.537 71.2455 133.481 71.3566 133.608C70.9417 134.549 69.8545 134.909 68.9985 135.34C67.534 135.812 65.8859 135.752 64.5111 135.1C62.4383 133.992 60.9496 131.755 60.961 129.379C60.954 129.219 61.0355 129.079 61.1961 129.037ZM74.4225 128.204C74.9453 128.502 74.8733 129.264 74.9934 129.782C75.1509 131.57 74.2105 133.488 72.5969 134.312C72.3241 134.272 72.3988 133.85 72.6604 133.805C74.3449 132.681 75.0345 130.369 74.2925 128.494C74.2171 128.336 74.2865 128.274 74.4225 128.204ZM64.3026 136.117C64.7268 135.959 64.8735 136.651 65.2023 136.809C66.2829 137.954 68.1533 137.785 69.3007 136.836C69.8556 136.492 70.1831 135.848 70.71 135.506C71.1404 135.687 70.6346 136.149 70.485 136.362C69.4078 137.554 67.6682 138.508 66.0585 137.848C65.2909 137.539 64.4751 136.976 64.2262 136.164C64.246 136.141 64.2755 136.129 64.3026 136.117Z" fill="#FFD5D5"/>
</svg>
