<svg width="300" height="300" viewBox="0 0 300 300" fill="none" xmlns="http://www.w3.org/2000/svg">
<path d="M1 1H299V150C299 232.29 232.29 299 150 299C67.7096 299 1 232.29 1 150V1Z" fill="#916EAB" fill-opacity="0.7" stroke="#F08BB9" stroke-width="2"/>
<path d="M141.698 204.481C140.949 203.579 140.467 201.466 140.463 199.067C140.46 197.049 140.324 196.662 139.215 195.517C138.472 194.749 136.719 193.724 134.859 192.971C128.377 190.347 128.475 190.406 124.475 186.744C122.227 184.687 121.622 183.952 118.476 179.449C117.691 178.326 116.919 177.407 116.76 177.407C116.602 177.407 115.62 178.193 114.579 179.153C112.301 181.254 110.815 181.461 109.251 179.896C108.694 179.34 108.133 178.552 108.004 178.145C107.675 177.109 107.173 177.226 106.576 178.477C106.166 179.337 105.762 179.571 104.513 179.673C103.575 179.749 102.808 180.057 102.578 180.451C101.931 181.557 101.221 183.78 101.215 184.72C101.211 185.212 100.942 186.131 100.615 186.763C100.166 187.631 99.7488 187.91 98.8997 187.91C97.5203 187.91 94.2823 185.448 93.0588 183.468C92.5853 182.702 92.0433 182.075 91.8543 182.075C91.3032 182.075 90.5982 180.488 90.1388 178.214C89.9044 177.053 89.5381 176.045 89.3248 175.974C89.1115 175.903 88.4966 176.765 87.9582 177.89C87.1128 179.657 86.8269 179.935 85.8609 179.935C84.9844 179.935 84.5806 179.641 83.9946 178.574C83.1762 177.083 82.2465 175.994 82.0232 176.263C81.945 176.357 81.0444 178.185 80.022 180.324C78.9995 182.464 77.6537 184.827 77.0312 185.576C76.4088 186.325 75.4233 187.513 74.8412 188.216C73.4831 189.856 71.2533 190.324 70.0314 189.227C69.2862 188.558 69.236 188.218 69.4554 185.33C69.5876 183.59 69.585 181.358 69.4497 180.37L69.2035 178.574H67.5158C66.0647 178.574 65.7524 178.424 65.2886 177.504C64.4914 175.923 64.2121 173.451 64.6594 171.934C64.8761 171.2 65.222 169.305 65.4281 167.724C65.6579 165.961 66.1801 164.173 66.778 163.104C67.3143 162.144 67.7532 161.141 67.7532 160.875C67.7532 160.608 69.2638 158.786 71.1101 156.824C72.9564 154.863 74.3963 153.188 74.3098 153.101C74.2233 153.015 72.669 152.303 70.8556 151.519C68.5508 150.523 66.7977 150.042 65.03 149.921C60.9873 149.646 60.0078 149.412 59.5837 148.619C58.7381 147.039 61.606 141.853 64.0358 140.568C65.8152 139.627 70.1047 138.505 71.9202 138.505C73.1443 138.505 73.6634 138.313 73.9638 137.752C75.0354 135.75 73.8035 133.755 71.2105 133.293C69.5585 132.999 68.8913 132.314 67.9864 129.982C67.0017 127.443 67.5761 127.016 71.8475 127.108C74.8891 127.174 75.9836 126.85 74.563 126.305C74.2432 126.182 73.6926 125.36 73.3394 124.477C72.7372 122.972 72.6221 122.888 71.4895 123.124C70.8253 123.262 68.7063 123.528 66.7806 123.713C63.3543 124.043 62.2696 124.37 58.1275 126.318C57.0056 126.845 55.7645 127.174 55.3694 127.049C54.1258 126.654 53.5527 124.967 53.5717 121.756C53.5867 119.231 53.7422 118.521 54.5443 117.319C55.0694 116.532 56.1555 115.546 56.9579 115.129C57.7602 114.711 58.4167 114.112 58.4167 113.797C58.4167 113.482 57.8208 112.444 57.0926 111.49C55.6374 109.584 55.0979 107.423 55.4932 105.083C55.9153 102.585 56.6316 102.226 61.3288 102.157C65.427 102.097 66.2914 101.814 64.8355 101.006C61.1888 98.9843 59.003 95.6283 57.8404 90.2659C57.4925 88.6612 56.7542 85.8742 56.1997 84.0725C55.1977 80.8168 55.1945 80.7654 55.694 75.7085C56.2338 70.2431 56.7171 69.0411 58.1902 69.5002C59.2524 69.8313 59.3884 70.0693 60.6065 73.7325C61.846 77.4596 63.3813 80.5292 64.1543 80.8259C64.4745 80.9488 65.0774 80.6144 65.5542 80.0497C67.4906 77.7557 69.8221 77.6029 72.5339 79.5924C73.5586 80.3441 74.5518 81.3662 74.741 81.8638C75.0822 82.7613 75.8665 83.2635 76.9269 83.2635C77.7914 83.2635 77.5804 82.5096 76.3116 81.0645C75.3981 80.024 75.1445 79.3683 75.1445 78.0458C75.1445 76.2203 75.5339 75.6931 77.1891 75.2777C78.7116 74.8956 78.5078 74.0822 76.6901 73.2862C74.9021 72.5032 73.1994 70.797 73.1994 69.7884C73.1994 67.0165 75.3704 65.6573 80.5908 65.1607C84.456 64.7931 85.3866 64.2211 86.7408 61.3811C86.8173 61.2206 86.3663 61.0893 85.7385 61.0893C84.1952 61.0893 82.0605 60.347 81.4661 59.6036C81.1986 59.2692 80.9798 58.5992 80.9798 58.1149C80.9798 57.4006 80.7043 57.1877 79.521 56.9873C76.928 56.5482 73.4174 55.5214 72.4988 54.9334C71.1161 54.0484 70.4031 52.3532 70.7064 50.6722C71.0225 48.9205 71.5337 47.8626 72.0641 47.8626C72.2804 47.8626 74.0546 47.0748 76.0067 46.112C77.9588 45.1492 80.0952 44.3587 80.7542 44.3554C83.3037 44.3428 83.2276 43.8293 80.2281 40.8059C77.2405 37.7945 75.798 35.5151 75.9967 34.1197C76.1058 33.3532 76.3804 33.2636 78.9375 33.16C80.4887 33.0971 81.7579 32.8748 81.7579 32.666C81.7579 32.4571 81.2808 31.5457 80.6977 30.6407C79.0833 28.1346 78.2128 26.1165 77.6388 23.5487C76.9536 20.4839 76.9649 19.6444 77.7009 18.9083C78.3581 18.2512 80.5875 18.0786 81.1938 18.6379C81.6521 19.0608 85.7716 20.6171 87.5476 21.0384C89.5181 21.5057 90.4776 20.9505 91.2657 18.8868C92.4704 15.7325 94.5139 15.8451 97.6042 19.2362C98.6239 20.3552 99.7262 22.0162 100.054 22.9271C100.381 23.8381 100.816 24.5923 101.021 24.603C101.918 24.6504 102.709 22.3217 102.736 19.5516C102.763 16.8821 102.822 16.7001 103.764 16.3416C105.146 15.8163 106.345 16.1996 107.878 17.6564C109.576 19.2698 113.129 23.9311 114.325 26.1138C115.627 28.4896 116.559 29.2122 117.961 28.9319C118.634 28.7972 119.345 28.9056 119.696 29.1966C120.593 29.9412 120.836 29.3663 120.333 27.6881C120.065 26.7919 119.882 23.4002 119.882 19.3159V12.4502L121.146 11.6574C122.581 10.7577 124.399 10.8173 126.542 11.8343C128.216 12.6287 134.12 18.0343 134.845 19.4369C135.145 20.0174 135.674 21.9677 136.021 23.7711C136.368 25.5745 136.814 27.4438 137.011 27.9252C137.394 28.8562 138.111 29.1296 138.032 28.3143C137.891 26.8656 138.726 23.1349 139.46 21.933C139.925 21.1719 141.312 19.4341 142.542 18.0713C144.237 16.1939 144.779 15.3053 144.779 14.4043C144.779 13.6279 145.015 13.1271 145.46 12.9613C145.834 12.8217 147.033 11.7768 148.125 10.6394C149.677 9.02166 150.369 8.57141 151.302 8.57141C153.503 8.57141 154.799 9.68705 155.883 12.5138C156.427 13.9332 157.2 15.3909 157.6 15.7531C158.305 16.3916 160.831 22.4535 161.293 24.6185C161.608 26.0915 162.167 25.967 164.217 23.9676C165.187 23.0212 166.768 21.8262 167.731 21.3119C168.694 20.7977 171.32 19.34 173.566 18.0726C177.189 16.0292 177.888 15.7708 179.746 15.7899C181.534 15.8083 181.975 15.9678 182.761 16.8814C183.267 17.4698 183.681 18.2146 183.681 18.5364C183.681 18.8583 182.839 20.0302 181.81 21.1406C179.59 23.5369 177.879 26.2527 176.739 29.1896C175.1 33.4129 175.622 34.4217 178.227 32.0678L179.83 30.62L181.185 31.2664C181.93 31.6219 182.589 31.9127 182.649 31.9127C182.708 31.9127 184.066 30.6435 185.666 29.0923C189.567 25.3104 191.178 24.0979 194.24 22.6397C199.088 20.331 201.427 21.1816 201.328 25.2179C201.286 26.9633 201.429 27.51 202.061 28.0218C202.679 28.5228 202.905 29.3339 203.126 31.849C203.281 33.6044 203.507 35.1405 203.629 35.2627C204.124 35.7571 205.516 34.8724 207.893 32.5528C210.956 29.5644 212.759 28.4115 214.372 28.4115C215.425 28.4115 215.633 28.5776 215.833 29.5786C215.962 30.2205 216.13 30.7456 216.207 30.7456C216.589 30.7456 220.577 28.1308 221.506 27.2709C222.726 26.1422 225.06 25.2293 225.901 25.552C226.488 25.7773 226.605 26.2811 226.489 28.0812C226.401 29.4492 226.759 29.6012 228.613 28.9833C230.333 28.41 236.219 27.5242 236.492 27.7976C237.066 28.3715 236.536 30.957 235.508 32.5961C234.872 33.611 233.788 35.4917 233.099 36.7755C232.41 38.0592 231.294 39.6441 230.619 40.2973C229.943 40.9506 228.515 42.5436 227.446 43.8374C226.376 45.1312 224.844 46.5713 224.042 47.0378C222.711 47.8111 222.145 48.6019 222.875 48.6664C223.035 48.6806 224.241 48.7459 225.555 48.8114C226.868 48.8769 228.138 49.0507 228.375 49.1976C229.129 49.6634 228.842 50.9338 227.835 51.5941C227.3 51.9445 226.862 52.4507 226.862 52.7188C226.862 52.987 228.028 53.8859 229.453 54.7164C232.127 56.2755 233.166 57.5052 233.932 60.0206C234.263 61.1066 234.265 61.8539 233.94 62.9383C233.699 63.74 233.397 64.7901 233.268 65.2717C232.848 66.8404 231.796 67.0387 229.291 66.021C226.827 65.0197 223.45 64.4315 222.424 64.825C222.069 64.9615 221.446 65.7602 221.04 66.6L220.302 68.1268L222.385 69.0795C223.531 69.6034 225.359 70.2233 226.449 70.457C231.074 71.4489 230.616 73.8429 225.414 75.8717C223.305 76.6937 221.416 78.1752 221.416 79.006C221.416 79.208 222.335 79.3781 223.458 79.384C225.338 79.3939 225.578 79.5021 226.473 80.7467C227.648 82.3795 228.348 82.5936 232.443 82.5711C236.893 82.5467 237.988 82.4744 240.902 82.0124C242.937 81.6899 243.697 81.7168 244.582 82.143C247.043 83.328 247.075 88.6409 244.642 92.1901C242.787 94.8966 240.076 97.648 238.445 98.4801C236.647 99.3975 236.605 99.8205 238.241 100.527C238.936 100.827 240.429 102.02 241.557 103.179C243.331 105.001 243.638 105.547 243.827 107.21C243.948 108.268 243.833 110.271 243.574 111.662C243.314 113.053 242.992 115.466 242.859 117.026C242.699 118.892 242.417 119.995 242.033 120.254C241.019 120.938 237.734 120.347 236.62 119.279C236.067 118.75 234.915 118.03 234.059 117.678C233.203 117.327 231.803 116.367 230.947 115.544C229.269 113.931 227.278 113.134 227.215 114.051C227.195 114.342 227.201 115.28 227.228 116.136C227.267 117.392 226.98 118.08 225.739 119.701C224.893 120.806 224.303 121.811 224.426 121.934C224.549 122.057 225.575 122.049 226.705 121.917C228.465 121.71 229.001 121.817 230.437 122.664C233.37 124.393 235.371 127.152 234.84 128.733C234.576 129.515 231.908 131.314 227.835 133.455C226.123 134.354 224.547 135.223 224.333 135.385C224.12 135.547 223.309 135.885 222.531 136.135C221.427 136.49 221.067 136.843 220.887 137.746C220.744 138.46 220.288 139.07 219.696 139.34C218.828 139.735 218.084 140.749 218.417 141.082C218.489 141.154 219.879 141.468 221.504 141.779C224.967 142.441 227.304 143.541 228.885 145.251C230.444 146.937 233.086 152.36 233.086 153.872C233.086 156.077 232.297 156.394 225.279 157.009C221.801 157.314 218.866 157.653 218.757 157.762C218.647 157.872 219.528 158.879 220.714 160.001C223.588 162.717 223.948 163.359 225.265 168.099C226.919 174.052 227.236 175.84 226.828 176.912C226.265 178.394 226.411 180.039 227.251 181.686C228.386 183.911 228.226 185.394 226.473 188.883C225.532 190.755 224.917 192.526 224.917 193.36C224.917 194.968 224.001 196.469 223.02 196.469C221.955 196.469 219.323 193.997 218.276 192.015C217.268 190.106 217.193 190.07 212.415 189.164C211.209 188.935 209.321 188.36 208.219 187.886C205.999 186.931 205.478 186.188 201.011 177.601C198.419 172.619 197.529 171.399 196.714 171.712C195.934 172.011 195.977 172.941 196.898 175.693C198.404 180.195 197.53 183.208 194.405 184.281C192.359 184.984 191.681 185.662 191.063 187.624C189.938 191.195 188.304 193.357 186.73 193.357C185.575 193.357 183.328 191.273 182.561 189.49C181.833 187.797 181.613 187.601 180.182 187.372C178.439 187.094 177.276 185.692 176.83 183.335C176.698 182.637 176.428 181.966 176.23 181.844C176.032 181.721 175.22 182.317 174.426 183.169C172.402 185.339 171.411 185.564 170.549 184.05C169.77 182.681 169.058 182.514 168.708 183.618C168.383 184.64 160.227 192.805 158.786 193.55C157.509 194.21 151.456 194.926 149.591 194.637C147.878 194.372 147.626 195.129 149.033 196.313C151.362 198.273 150.495 200.511 146.335 203.276C143.585 205.105 142.459 205.398 141.698 204.481ZM146.249 199.753C146.724 199.42 147.113 198.843 147.113 198.469C147.113 197.5 146.205 195.676 145.79 195.811C145.497 195.906 144.465 199.084 144.407 200.067C144.378 200.557 145.335 200.394 146.249 199.753ZM145.467 189.164C145.884 187.928 146.145 186.369 146.047 185.701C145.915 184.796 146.097 184.258 146.763 183.593C147.429 182.927 147.63 182.333 147.553 181.263C147.435 179.64 148.141 176.629 148.638 176.629C148.912 176.629 149.836 173.762 149.836 172.913C149.836 172.569 147.828 173.085 147.227 173.583C146.967 173.799 146.769 174.704 146.786 175.594C146.831 177.815 145.609 182.045 144.552 183.329C144.052 183.936 143.761 184.702 143.871 185.123C143.989 185.573 143.674 186.278 143.06 186.941C142.508 187.537 142.056 188.201 142.056 188.417C142.056 188.952 143.959 191.412 144.374 191.412C144.557 191.412 145.049 190.4 145.467 189.164ZM156.234 189.811C159.116 188.308 162.858 184.916 165.397 181.505C167.061 179.269 168.183 178.085 170.627 175.982C172.832 174.086 172.889 172.982 170.761 173.381C167.972 173.904 163.555 175.578 161.896 176.739C159.782 178.219 152.166 184.725 151.503 185.617C151.243 185.966 150.401 186.551 149.632 186.916C148.863 187.281 148.133 187.841 148.011 188.16C147.482 189.538 148.718 189.228 152.263 187.095C156.24 184.702 158.006 183.991 158.006 184.784C158.006 185.036 157.787 185.459 157.519 185.724C156.674 186.561 151.788 189.801 150.99 190.054C150.129 190.327 149.981 190.876 150.705 191.117C151.524 191.391 154.595 190.665 156.234 189.811ZM222.044 189.369C222.401 188.674 223.018 187.687 223.416 187.177C224.363 185.962 224.337 183.979 223.361 182.853C222.84 182.253 222.573 181.364 222.552 180.168C222.522 178.418 222.512 178.404 222.105 179.546C221.255 181.926 219.959 181.425 219.576 178.568C219.008 174.332 210.565 163.108 206.281 160.892C205.71 160.597 205.015 159.928 204.734 159.404C204.353 158.691 203.673 158.328 202.029 157.961C200.822 157.69 197.994 156.859 195.745 156.113C190.956 154.525 188.278 154.51 185.045 156.055C182.02 157.501 181.347 158.83 181.347 163.362C181.347 165.45 181.066 168.299 180.711 169.821C180.361 171.319 179.996 173.594 179.9 174.878C179.804 176.162 179.565 177.379 179.369 177.582C178.569 178.412 179.126 182.021 180.238 183.215C180.777 183.794 181.47 184.02 182.701 184.02C184.585 184.02 184.764 184.184 185.652 186.711C186.381 188.789 187.055 189.145 187.423 187.646C187.571 187.043 188.191 185.94 188.799 185.196C189.407 184.452 189.905 183.647 189.905 183.408C189.905 182.657 191.21 181.762 192.712 181.484C195.007 181.058 195.146 180.619 194.155 176.94C193.676 175.164 193.178 172.748 193.049 171.571C192.915 170.365 192.414 168.787 191.898 167.952C191.224 166.862 191.047 166.155 191.225 165.266C191.519 163.794 192.125 163.013 192.972 163.013C193.955 163.013 195.746 164.886 196.006 166.186C196.278 167.55 197.822 168.375 198.715 167.634C199.39 167.074 199.61 167.278 199.866 168.703C199.976 169.318 200.231 169.987 200.432 170.19C200.633 170.394 200.798 170.795 200.798 171.083C200.798 171.371 201.629 172.729 202.646 174.102C203.662 175.474 205.352 177.931 206.402 179.561C207.451 181.191 208.69 182.774 209.156 183.079C210.204 183.766 213.221 184.658 215.705 185.014C218.168 185.368 219.741 186.706 220.299 188.921C220.536 189.863 220.88 190.633 221.063 190.633C221.246 190.633 221.688 190.065 222.044 189.369ZM207.936 178.477C205.323 174.468 204.971 173.483 206.339 174.008C207.005 174.264 209.606 178.468 209.953 179.85C210.388 181.584 209.622 181.062 207.936 178.477ZM186.793 178.245C186.793 176.995 186.679 174.106 186.539 171.826C186.324 168.298 186.372 167.681 186.866 167.681C187.553 167.681 188.273 171.422 188.401 175.656C188.533 180.034 188.45 180.519 187.571 180.519C186.882 180.519 186.793 180.26 186.793 178.245ZM211.384 178.734C209.659 175.815 206.874 172.608 203.772 169.968C201.806 168.295 200.847 167.201 200.827 166.611C200.784 165.314 201.696 165.539 203.195 167.195C203.922 167.997 205.036 168.988 205.672 169.396C206.308 169.804 206.974 170.385 207.154 170.687C207.333 170.989 208.574 172.494 209.912 174.03C212.703 177.236 213.246 178.131 213.246 179.521C213.246 181.018 212.563 180.729 211.384 178.734ZM214.129 179.06C213.73 178.472 213.178 177.465 212.903 176.823C212.103 174.958 210.123 172.355 207.567 169.808C203.453 165.708 202.755 163.884 206.132 166.056C209.812 168.423 212.335 171.523 215.004 176.956C216.403 179.804 215.731 181.42 214.129 179.06ZM216.721 178.282C215.027 174.487 213.925 172.349 213.661 172.349C213.512 172.349 213.015 171.684 212.558 170.87C211.611 169.185 207.839 165.47 205.952 164.364C204.73 163.648 204.347 162.881 205.008 162.472C205.66 162.069 207.685 163.516 210.413 166.336C211.958 167.932 213.383 169.237 213.58 169.237C213.777 169.237 214.326 170.069 214.799 171.085C215.273 172.101 215.899 173.203 216.191 173.533C216.922 174.359 218.627 179.047 218.413 179.644C218.084 180.562 217.544 180.127 216.721 178.282ZM190.921 178.542C190.823 178.238 190.531 176.765 190.271 175.267C190.012 173.769 189.56 171.681 189.269 170.626C188.319 167.19 188.771 165.124 190.047 167.071C190.882 168.346 192.124 178.067 191.528 178.663C191.214 178.977 191.05 178.944 190.921 178.542ZM184.089 175.887C183.607 174.986 183.539 171.96 184 171.96C184.176 171.96 184.189 171.041 184.029 169.918C183.57 166.696 183.588 166.563 184.459 166.79C185.182 166.979 185.237 167.321 185.237 171.594C185.237 176.118 184.896 177.394 184.089 175.887ZM182.246 168.68C182.293 167.518 182.435 166.463 182.562 166.337C182.856 166.043 183.338 170.015 183.063 170.46C182.516 171.346 182.168 170.589 182.246 168.68ZM138.938 189.369C138.926 188.386 138.289 187.946 135.631 187.08C132.722 186.132 129.218 183.909 129.218 183.011C129.218 182.262 129.46 182.313 132.136 183.631C133.42 184.263 134.797 184.785 135.196 184.789C135.595 184.794 136.746 185.091 137.754 185.449C139.803 186.177 140.889 185.971 140.889 184.855C140.889 184.372 140.374 183.87 139.43 183.434C138.628 183.062 137.531 182.349 136.993 181.848C135.784 180.723 133.251 179.786 130.214 179.34C127.825 178.99 122.98 176.815 121.484 175.421C121.018 174.987 120.202 173.943 119.671 173.102C118.709 171.578 117.548 171.054 117.548 172.144C117.548 173.541 119.589 177.104 121.923 179.779C124.897 183.19 128.398 185.651 133.735 188.085C137.713 189.899 138.948 190.204 138.938 189.369ZM74.7111 184.705C76.3403 183.059 78.6457 179.02 78.6457 177.811C78.6457 177.46 78.7903 177.007 78.9671 176.804C79.1438 176.6 79.519 175.699 79.8007 174.801C80.0824 173.903 80.5178 173.089 80.7683 172.993C81.8317 172.585 83.391 173.307 84.5175 174.73C85.1753 175.56 85.959 176.24 86.259 176.24C87.1497 176.24 87.9822 173.616 87.9822 170.808C87.9822 168.241 89.098 162.88 89.9883 161.172C90.5498 160.094 91.7258 159.684 92.4746 160.305C93.312 161 93.1622 162.794 92.0669 165.189C91.3791 166.693 91.0943 167.988 91.0943 169.614C91.0943 174.642 93.3938 180.908 95.2393 180.908C95.9827 180.908 95.8882 180.268 94.959 179.012C94.3661 178.21 94.1883 177.474 94.2809 176.207L94.4064 174.489L95.0845 175.995C95.4574 176.824 95.7626 177.908 95.7626 178.404C95.7626 178.9 95.9569 179.426 96.1944 179.573C96.4425 179.726 96.5391 180.378 96.4213 181.103C96.2505 182.156 96.3749 182.452 97.1643 182.875C97.7431 183.184 98.2422 183.241 98.4456 183.02C99.0134 182.404 100.878 176.98 101.646 173.711C102.851 168.579 102.886 168.177 102.336 165.698C101.894 163.707 101.436 162.894 99.5627 160.771C98.3285 159.373 97.3186 158.108 97.3186 157.96C97.3186 156.76 89.7218 156.272 88.5935 157.4C88.2573 157.736 87.9822 158.251 87.9822 158.544C87.9822 159.437 87.1174 159.673 86.5737 158.93C85.9125 158.026 84.9705 158.71 84.7958 160.221C84.725 160.834 84.4354 161.262 84.092 161.262C83.6685 161.262 83.4751 160.736 83.3869 159.343C83.2963 157.91 82.967 157.046 82.0899 155.939C80.9547 154.505 80.8319 154.454 78.5045 154.454H76.0946L73.6951 156.886C70.9258 159.692 68.2234 164.984 67.8839 168.265C67.7732 169.335 67.5065 170.789 67.2912 171.497C67.0103 172.421 67.0338 173.108 67.3744 173.93L67.8491 175.076L69.3583 173.713C71.1595 172.086 71.5425 172.034 72.042 173.347C72.5502 174.684 72.5281 183.872 72.0144 184.832C71.5624 185.676 71.8135 186.354 72.5783 186.354C72.8532 186.354 73.813 185.612 74.7111 184.705ZM96.8324 176.111C96.6719 175.719 96.5406 173.927 96.5406 172.129C96.5406 168.204 95.8732 165.307 95.0015 165.446C94.5956 165.511 94.4431 165.289 94.5308 164.764C94.8756 162.696 96.1559 163.045 96.8458 165.395C97.3794 167.213 97.3666 177.416 96.8324 176.111ZM99.1341 174.424C98.7428 174.033 98.8227 165.036 99.2196 164.791C99.4094 164.674 99.7771 164.834 100.037 165.146C100.384 165.565 100.435 166.9 100.229 170.199C99.967 174.388 99.788 175.078 99.1341 174.424ZM93.581 172.126C93.4391 171.561 93.5205 170.935 93.7681 170.687C94.0932 170.362 94.2065 170.621 94.2065 171.688C94.2065 173.364 93.9388 173.552 93.581 172.126ZM76.9817 164.331C76.4879 163.838 76.6801 161.034 77.2969 159.734C77.6249 159.043 78.5877 157.799 79.4365 156.971L80.9798 155.464V156.527C80.9798 157.112 80.7334 157.686 80.4322 157.801C79.812 158.039 78.2567 161.416 78.2567 162.524C78.2567 163.437 77.359 164.709 76.9817 164.331ZM73.9775 161.78C73.9775 161.278 74.4901 160.387 75.122 159.791C75.7516 159.196 76.3761 158.365 76.5098 157.944C76.7619 157.15 77.4786 156.876 77.4786 157.574C77.4786 157.793 77.0848 158.631 76.6034 159.437C76.1219 160.243 75.5405 161.236 75.3112 161.643C74.6874 162.751 73.9775 162.824 73.9775 161.78ZM80.2796 160.391C80.3717 158.629 80.5401 158.13 81.0771 158.028C81.8899 157.873 82.0089 159.454 81.3308 161.399C80.6592 163.325 80.1517 162.839 80.2796 160.391ZM105.877 175.851C106.421 175.307 106.667 174.517 106.693 173.225C106.842 166.091 106.914 164.677 107.166 163.986C107.394 163.359 107.202 163.094 106.18 162.624C105.263 162.202 104.803 161.652 104.519 160.637C104.303 159.864 103.906 158.969 103.637 158.648C103.114 158.023 99.2637 155.911 99.2637 156.249C99.2637 156.791 100.233 158.123 101.805 159.74C102.761 160.724 103.543 161.75 103.543 162.022C103.543 162.293 103.981 163.16 104.515 163.948C105.494 165.39 105.774 166.514 105.154 166.514C104.971 166.514 104.709 167.608 104.572 168.946C104.435 170.283 104.123 172.281 103.878 173.386C103.196 176.473 104.118 177.61 105.877 175.851ZM219.632 172.036C219.493 171.165 219.087 170.135 218.729 169.748C217.79 168.729 215.192 164.357 215.192 163.796C215.192 163.521 215.452 163.419 215.807 163.555C216.145 163.685 216.593 163.791 216.801 163.791C217.01 163.791 218.239 165.98 219.532 168.655C221.724 173.189 222.583 174.56 222.583 173.524C222.583 173.289 222.215 172.376 221.766 171.495C221.316 170.614 220.697 169.045 220.389 168.009C220.081 166.973 219.664 166.125 219.461 166.125C219.258 166.125 218.828 165.494 218.506 164.722C217.923 163.328 218.027 162.407 218.72 162.835C218.919 162.958 219.082 162.816 219.082 162.52C219.082 161.32 217.045 160.127 212.955 158.931C209.999 158.067 207.946 157.175 205.952 155.889C203.382 154.232 203.132 153.956 203.132 152.778C203.132 151.682 203.361 151.357 204.644 150.636C205.475 150.169 206.526 149.786 206.978 149.786C207.531 149.786 207.8 149.54 207.8 149.035C207.8 148.534 208.385 147.993 209.561 147.405C211.097 146.638 211.487 146.585 212.604 146.989C213.309 147.244 214.265 147.452 214.729 147.452C215.193 147.452 216.493 147.802 217.619 148.23C218.744 148.658 220.301 149.008 221.079 149.008C222.146 149.008 222.54 149.191 222.688 149.756C222.809 150.221 223.293 150.552 223.967 150.631C225.437 150.804 225.632 151.65 224.264 151.918C223.66 152.036 222.42 152.305 221.507 152.516C220.595 152.726 218.639 152.898 217.161 152.898C214.906 152.898 214.296 152.75 213.374 151.98C212.742 151.453 211.467 150.943 210.377 150.782L208.481 150.502L209.317 151.676C209.777 152.322 211.068 153.286 212.186 153.819C215.023 155.17 217.557 155.414 220.638 154.633C222.029 154.28 224.538 153.721 226.214 153.391C227.919 153.056 229.349 152.563 229.461 152.272C229.9 151.127 226.324 146.482 224.094 145.302C222.246 144.324 214.438 142.784 211.325 142.784C208.804 142.784 207.804 143 204.89 144.175C200.53 145.933 198.234 147.777 197.037 150.483C196.2 152.373 196.172 152.631 196.7 153.65C197.194 154.606 197.687 154.852 200.246 155.422C203.295 156.1 205.88 157.697 208.74 160.667C210.056 162.034 211.099 162.174 211.693 161.063C212.026 160.441 212.264 160.361 212.849 160.674C213.429 160.985 213.54 161.353 213.37 162.4C213.182 163.558 213.387 164.016 214.951 165.936C215.939 167.149 216.748 168.268 216.748 168.422C216.748 168.576 217.06 169.041 217.441 169.456C217.823 169.87 218.454 171.052 218.844 172.081C219.676 174.278 219.988 174.26 219.632 172.036ZM151.781 170.527C154.859 170.244 156.806 169.197 159.447 166.404C160.966 164.799 161.551 163.786 162.207 161.627C162.664 160.12 163.535 158.148 164.142 157.245C165.201 155.667 167.629 153.676 168.494 153.676C168.722 153.676 169.213 153.51 169.584 153.306C169.956 153.102 171.398 152.556 172.788 152.093C175.75 151.107 176.244 150.752 175.577 150.085C175.198 149.706 174.757 149.777 173.457 150.426C172.554 150.877 171.028 151.452 170.065 151.704C169.102 151.955 167.418 152.513 166.322 152.944C165.103 153.423 163.678 153.679 162.649 153.604C161.005 153.485 160.947 153.433 160.112 151.342C159.408 149.581 159.073 149.181 158.219 149.077C156.953 148.925 156.021 149.619 156.348 150.471C156.48 150.817 157.199 151.635 157.945 152.29C159.48 153.638 161.118 156.993 161.118 158.789C161.118 159.449 160.745 160.713 160.289 161.598C159.833 162.483 159.22 163.672 158.927 164.24C158.634 164.808 158.395 165.628 158.395 166.062C158.395 167.067 157.537 167.329 154.666 167.202C152.737 167.116 152.145 167.257 151.003 168.071C148.562 169.813 144.406 169.145 141.735 166.581C140.25 165.156 138.944 162.096 138.944 160.043C138.944 159.528 138.506 158.03 137.971 156.714C136.707 153.604 136.588 149.786 137.754 149.786C138.783 149.786 139.157 149.054 138.475 148.373C137.613 147.51 136.666 148.143 136.155 149.923C135.691 151.538 135.648 153.167 135.963 157.178C136.226 160.521 137.833 165.244 138.941 165.929C139.156 166.062 139.333 166.511 139.333 166.926C139.333 167.632 139.026 167.681 134.673 167.681C128.292 167.681 125.745 166.852 122.342 163.669C120.989 162.403 119.882 161.21 119.882 161.017C119.882 160.825 119.243 159.705 118.463 158.529C116.968 156.278 115.639 155.251 113.074 154.367C110.622 153.522 106.103 150.011 104.746 147.898C104.076 146.853 103.357 145.03 103.129 143.801C102.757 141.787 102.798 141.46 103.586 140.186C104.424 138.829 104.429 138.768 103.729 138.255C102.839 137.605 102.505 137.592 102.133 138.194C101.622 139.021 101.654 143.314 102.185 145.118C102.468 146.081 102.811 147.528 102.946 148.334C103.141 149.495 103.514 150.004 104.741 150.778C105.806 151.45 106.363 152.12 106.523 152.919C106.815 154.38 107.186 154.612 108.221 153.981C108.926 153.551 109.133 153.59 109.714 154.26C110.085 154.688 110.66 155.213 110.992 155.427C115.257 158.176 116.46 159.247 119.296 162.818C120.146 163.888 121.019 164.835 121.237 164.921C121.454 165.008 122.338 165.812 123.2 166.708C124.062 167.603 125.2 168.434 125.729 168.553C126.257 168.673 127.74 169.061 129.024 169.415C130.718 169.883 132.691 170.038 136.221 169.981C141.263 169.9 145.326 170.247 146.335 170.845C146.656 171.035 147.444 171.094 148.086 170.975C148.728 170.857 150.391 170.655 151.781 170.527ZM165.454 168.68C168.136 167.866 169.692 166.991 171.427 165.32C172.283 164.496 174.296 163.158 175.901 162.347C178.705 160.93 179.583 159.864 178.169 159.592C177.431 159.45 173.766 161.19 172.594 162.239C170.673 163.959 164.782 166.883 162.674 167.162C159.939 167.525 159.562 167.683 159.562 168.467C159.562 169.137 159.826 169.237 161.604 169.233C162.727 169.231 164.46 168.982 165.454 168.68ZM149.051 166.518C150.029 165.995 150.675 162.859 150.216 160.86C150.022 160.011 149.944 157.147 150.045 154.495C150.172 151.122 150.089 149.507 149.768 149.12C149.079 148.291 149.079 137.028 149.768 136.602C150.646 136.059 149.169 134.941 147.755 135.08C146.693 135.184 146.542 135.349 146.487 136.465C146.454 137.162 146.214 137.987 145.955 138.3C145.246 139.154 145.985 145.573 146.919 146.674C147.899 147.828 148.174 151.136 147.923 158.734C147.785 162.906 147.731 166.451 147.804 166.611C147.979 166.995 148.188 166.98 149.051 166.518ZM134.275 156.637C134.275 155.58 131.723 152.418 130.166 151.544C129.296 151.056 127.841 150.531 126.932 150.378C125.684 150.167 125.193 149.87 124.924 149.164C124.443 147.898 123.75 147.982 123.799 149.3C123.821 149.888 123.716 150.764 123.566 151.245C123.31 152.063 123.406 152.12 125.041 152.12C127.478 152.12 129.294 152.984 131.598 155.24C133.639 157.239 134.275 157.571 134.275 156.637ZM102.181 152.214C104.606 151.745 103.813 151.145 100.805 151.173C98.0773 151.198 96.9806 151.648 97.5197 152.52C97.8043 152.98 98.4266 152.94 102.181 152.214ZM87.3494 150.348C88.2111 150.486 89.1436 150.787 89.4217 151.018C89.8187 151.347 89.9273 151.168 89.9273 150.181C89.9273 149.05 90.0207 148.947 90.8554 149.157C91.5674 149.335 91.8307 149.209 91.9861 148.615C92.1015 148.174 92.5169 147.841 92.9521 147.841C93.5262 147.841 93.7716 147.496 93.941 146.452C94.2714 144.417 93.7224 143.415 91.2945 141.621C88.3259 139.428 84.6732 138.119 80.7509 137.842L77.5556 137.616L76.948 138.791C76.2365 140.167 75.6575 140.445 73.4594 140.464C71.8096 140.478 68.5612 141.176 66.3177 141.999C64.6629 142.606 62.9982 144.816 63.157 146.195C63.2567 147.06 63.4963 147.277 64.4465 147.362C66.8956 147.582 69.188 148.336 71.2927 149.615C72.4931 150.344 74.3666 151.147 75.456 151.398C77.2302 151.808 77.6724 151.764 79.6946 150.985L81.9524 150.114L82.8913 151.266L83.8303 152.418L84.8065 151.258C85.6843 150.214 85.9408 150.123 87.3494 150.348ZM192.233 151.245C192.226 150.098 191.878 149.593 190.292 148.423C189.189 147.609 188.543 147.452 186.296 147.452C182.85 147.452 182.926 148.222 186.431 148.808C189.136 149.261 190.904 150.198 191.278 151.377C191.603 152.401 192.241 152.313 192.233 151.245ZM221.244 150.731C221.959 150.152 221.929 150.131 220.686 150.342C219.964 150.464 219.045 150.564 218.644 150.564C218.243 150.564 217.915 150.739 217.915 150.953C217.915 151.571 220.412 151.404 221.244 150.731ZM155.769 146.102C155.668 145.574 155.342 144.94 155.045 144.693C154.614 144.335 154.504 144.405 154.504 145.039C154.504 146.208 154.91 147.063 155.465 147.063C155.774 147.063 155.885 146.711 155.769 146.102ZM142.614 145.275C142.894 144.161 141.903 142.203 141.261 142.6C140.737 142.924 140.797 145.648 141.34 146.192C141.933 146.785 142.302 146.52 142.614 145.275ZM127.418 145.103C128.583 144.667 129.749 144.055 130.008 143.742C130.735 142.866 128.696 143 125.898 144.012C124.221 144.618 122.796 144.833 120.757 144.788C118.169 144.73 117.508 144.949 118.196 145.637C118.339 145.779 119.995 145.896 121.877 145.896C124.367 145.896 125.876 145.68 127.418 145.103ZM124.955 142.642C126.123 142.349 128.184 141.885 129.536 141.61C131.717 141.167 132.245 140.862 134.245 138.893C136.533 136.64 140.111 131.543 140.111 130.536C140.111 130.232 140.268 129.581 140.459 129.089C140.651 128.598 141.027 127.457 141.296 126.553C141.811 124.82 144.965 120.772 146.437 119.954C146.916 119.688 148.145 119.464 149.168 119.456C150.778 119.444 151.209 119.623 152.363 120.777C153.097 121.51 153.934 122.254 154.224 122.43C154.901 122.841 156.582 128.037 157.411 132.28C158.672 138.739 160.597 142.015 163.605 142.825C165.804 143.417 167.943 142.978 171.458 141.212L174.528 139.67L176.435 140.303C178.756 141.074 182.36 140.859 184.711 139.809C187.485 138.57 189.921 134.657 191.23 129.338C191.496 128.255 191.864 127.117 192.047 126.81C193.059 125.105 195.256 122.837 196.94 121.756C199.028 120.416 199.472 119.481 199.11 117.185C198.926 116.02 198.234 115.117 195.464 112.431C193.466 110.493 191.479 108.925 190.683 108.66C185.168 106.818 182.708 105.789 181.806 104.945C181.232 104.408 180.365 103.849 179.878 103.701C178.625 103.323 177.887 101.973 178.121 100.492C178.286 99.452 178.653 99.0746 180.298 98.2547C181.387 97.7122 182.737 97.2683 183.298 97.2683C184.697 97.2683 188.144 98.2942 190.489 99.4082C193.183 100.688 196.999 101.267 201.575 101.089C205.441 100.939 205.459 100.934 206.919 99.5064C209.059 97.4137 210.134 94.3247 210.134 90.2715C210.134 86.3756 209.585 85.3617 205.554 81.8231C201.395 78.1713 200.17 76.3592 199.632 73.0638C198.704 67.3644 197.771 64.9727 195.596 62.7127C193.039 60.0567 191.999 59.533 188.737 59.2596C183.859 58.8506 178.845 61.4778 176.799 65.5151C176.255 66.5892 175.398 67.7918 174.895 68.1874C174.392 68.5831 173.756 69.3661 173.482 69.9275C173.19 70.5233 172.426 71.1339 171.645 71.3946C170.909 71.6401 170.232 72.0915 170.141 72.3977C169.392 74.9187 164.759 74.1805 163.839 71.3935C163.144 69.288 164.259 66.9423 168.193 62.2313C169.009 61.2547 169.676 60.3057 169.676 60.1224C169.676 59.939 169.95 59.4865 170.285 59.1167C171.152 58.1583 172 54.6647 172.006 52.0291C172.013 48.6651 170.964 46.8857 168.238 45.6379C166.341 44.7691 165.72 44.6726 163.238 44.8603C161.6 44.9842 159.611 45.4295 158.524 45.9159C155.723 47.1694 150.74 46.968 148.669 45.5177C146.491 43.9923 142.861 42.4163 141.527 42.4163C138.769 42.4163 136.513 43.3056 134.671 45.1192C133.705 46.0709 132.572 47.0349 132.153 47.2616C130.395 48.2141 129.502 53.495 130.425 57.4853C131.313 61.3277 131.7 62.2554 133.15 64.0096C135.685 67.0773 135.618 70.0304 132.983 71.3366C131.844 71.901 131.298 71.9695 130.409 71.6595C129.078 71.1955 126.814 69.0102 124.645 66.0963C122.747 63.5475 121.86 62.7305 119.104 60.9947C115.945 59.0052 114.634 58.6751 111.599 59.1049C108.64 59.5241 104.107 61.5856 103.462 62.806C103.226 63.2526 102.476 64.2731 101.795 65.0738C100.256 66.8818 99.6527 68.8307 99.6527 71.9917C99.6527 74.2218 99.5207 74.6162 98.1703 76.4203C95.5121 79.9714 93.906 82.6541 93.615 84.0288C93.458 84.7707 93.1435 85.6755 92.9162 86.0395C92.6148 86.5221 92.6867 87.5796 93.1816 89.9425C94.2332 94.9632 94.265 95.0605 95.2367 96.2284C95.7399 96.8332 96.1516 97.4762 96.1516 97.6573C96.1516 98.3408 98.2377 100.429 99.4075 100.916C101.249 101.684 104.208 101.926 107.239 101.557C108.736 101.375 111.737 101.003 113.906 100.73C117.488 100.28 117.944 100.296 118.866 100.9C120.216 101.784 120.147 102.569 118.59 104.03C117.524 105.03 116.483 105.437 112.657 106.346C107.445 107.585 105.464 108.629 101.849 112.041C99.2389 114.504 98.1841 116.324 97.841 118.955C97.7084 119.972 97.4602 121.078 97.2895 121.413C96.822 122.33 99.5066 125.243 101.209 125.665C101.958 125.851 104.058 126.514 105.877 127.139C108.863 128.165 109.286 128.438 110.239 129.945C110.82 130.863 111.585 132.945 111.939 134.573C112.294 136.2 112.925 138.098 113.343 138.79C114.287 140.355 116.972 142.687 118.079 142.904C119.901 143.261 122.941 143.145 124.955 142.642ZM160.608 135.49C160.517 135.329 160.22 134.498 159.948 133.642C159.677 132.786 159.153 131.386 158.785 130.53C158.417 129.674 157.81 127.923 157.437 126.639C156.037 121.821 153.706 118.197 151.549 117.485C149.415 116.781 148.669 115.723 148.669 113.404C148.669 112.303 148.554 111.288 148.413 111.147C147.975 110.708 147.113 111.713 147.113 112.663C147.113 113.161 146.807 113.741 146.432 113.953C145.887 114.26 145.848 114.435 146.238 114.828C147.117 115.715 146.791 117.009 145.46 117.923C144.764 118.399 143.701 119.243 143.096 119.797C141.756 121.024 138.976 126.052 137.591 129.752C136.445 132.812 135.627 134.225 135 134.225C134.479 134.225 134.67 133.169 136.02 128.585C137.312 124.196 138.989 120.76 140.609 119.181C145.604 114.312 145.622 114.284 145.324 112.039C144.941 109.15 143.612 109.566 143.612 112.574C143.612 114.288 141.08 118.05 140.178 117.678C138.788 117.104 138.166 117.035 138.166 117.456C138.166 117.696 137.64 118.443 136.999 119.115C135.673 120.502 135.584 120.82 136.432 121.146C136.896 121.324 136.94 121.548 136.628 122.132C136.405 122.547 136.308 123.119 136.412 123.402C136.673 124.111 136.015 125.048 135.486 124.721C135.248 124.574 135.054 124.202 135.054 123.893C135.054 122.781 134.2 123.366 133.602 124.889C132.89 126.7 131.767 127.087 132.192 125.375C132.338 124.787 132.694 123.736 132.983 123.041C133.272 122.346 133.374 121.786 133.211 121.796C132.733 121.828 128.829 127.488 128.829 128.149C128.829 128.48 128.479 128.939 128.051 129.168C126.635 129.926 127.155 128.508 129.413 125.455C130.59 123.864 131.552 122.226 131.552 121.815C131.552 121.091 133.581 119.054 134.302 119.054C134.498 119.054 134.966 118.403 135.342 117.608C135.722 116.804 136.76 115.67 137.679 115.053C138.984 114.179 139.333 113.709 139.333 112.826C139.333 111.265 138.714 111.051 137.901 112.33C137.523 112.926 135.983 114.873 134.48 116.657C132.977 118.441 130.936 120.946 129.944 122.222C127.442 125.443 126.166 126.834 125.714 126.834C125.148 126.834 125.243 126.222 125.892 125.683C126.203 125.425 126.977 124.31 127.612 123.204C128.248 122.098 129.918 119.968 131.323 118.47C132.728 116.972 133.88 115.603 133.882 115.428C133.884 115.252 134.382 114.377 134.987 113.483C137.113 110.342 137.03 110.019 134.692 112.343C133.885 113.145 132.805 114.181 132.291 114.645C131.778 115.11 130.395 116.744 129.218 118.278C126.894 121.307 124.778 124.022 124.143 124.792C123.621 125.423 122.605 125.419 122.605 124.785C122.605 124.514 123.352 123.42 124.264 122.354C125.177 121.287 126.183 119.89 126.501 119.248C126.819 118.606 128.036 117.118 129.207 115.941C134.106 111.015 135.865 108.586 133.329 110.248C132.131 111.033 131.941 111.04 131.941 110.301C131.941 109.405 131.014 109.606 129.967 110.727C129.448 111.283 128.323 112.093 127.468 112.528C126.612 112.962 125.088 114.039 124.082 114.921C120.566 118.002 119.49 118.747 118.89 118.516C117.893 118.134 118.818 117.015 121.762 115.04C123.247 114.043 124.729 113.125 125.055 113C125.381 112.875 125.748 112.369 125.872 111.875C126.001 111.364 126.663 110.709 127.41 110.354C128.132 110.012 128.943 109.466 129.212 109.141C129.628 108.64 129.558 108.55 128.75 108.55C128.227 108.55 126.83 109.294 125.647 110.203C120.185 114.402 117.376 116.108 116.487 115.767C115.683 115.458 116.472 114.535 118.274 113.673C119.907 112.892 120.218 112.21 119.103 111.856C117.951 111.491 118.277 110.521 119.831 109.689C120.553 109.303 121.515 108.658 121.971 108.257C123.126 107.239 124.766 106.163 126.614 105.211C128.343 104.32 128.032 103.59 126.232 104.314C125.628 104.558 124.783 104.898 124.355 105.07C123.928 105.243 122.948 105.575 122.179 105.81C121.384 106.052 120.56 106.647 120.271 107.189C119.709 108.238 117.438 109.045 112.703 109.878C111.196 110.143 109.103 110.743 108.054 111.21C106.026 112.114 105.451 112.04 106.123 110.963C106.812 109.856 109.223 108.722 111.999 108.198C113.446 107.925 116.03 107.278 117.742 106.759C120.785 105.837 120.87 105.777 121.574 104.071C122.256 102.414 122.372 102.326 123.848 102.326C125.543 102.326 127.662 101.109 127.662 100.136C127.662 99.6514 127.216 99.5993 124.966 99.821C122.633 100.051 122.027 99.9694 120.47 99.2159C118.571 98.2963 116.801 98.2871 112.296 99.1734C109.678 99.6884 103.288 99.7016 102.339 99.1939C100.864 98.4041 101.986 97.9458 104.734 98.2165C107.588 98.4978 110.706 98.0526 114.767 96.7836C117.152 96.0382 119.31 96.0065 122.216 96.6742C123.233 96.9079 124.532 96.3421 124.06 95.8708C123.91 95.7207 122.119 95.4572 120.079 95.2851C117.243 95.0458 116.008 95.1002 114.828 95.5164C112.715 96.262 109.173 96.5727 106.932 96.2091C104.225 95.7697 104.65 95.1039 107.541 95.2563C109.13 95.3401 110.995 95.1063 112.97 94.5756C114.904 94.0557 117.16 93.7671 119.291 93.7671C121.114 93.7671 122.605 93.6307 122.605 93.464C122.605 92.8849 116.666 92.2088 115.019 92.6004C112.846 93.1172 106.376 93.0924 106.051 92.5662C105.453 91.5997 106.881 91.407 114.763 91.39C119.295 91.3803 122.91 91.2226 122.797 91.0398C122.466 90.5044 118.881 89.9085 113.657 89.5205C108.667 89.1498 106.422 88.6238 106.853 87.9262C106.988 87.7083 107.291 87.6492 107.526 87.7948C107.762 87.9404 110.77 88.1953 114.21 88.3612C117.65 88.5271 121.034 88.7808 121.73 88.925C122.723 89.131 122.994 89.0585 122.994 88.5871C122.994 87.6363 119.122 86.7184 114.933 86.676C111.994 86.6462 111.085 86.4975 110.413 85.9366C109.593 85.2517 109.682 85.2343 114.046 85.2238C116.507 85.2179 119.133 85.3696 119.882 85.561C122.39 86.202 123.772 86.3592 123.772 86.0032C123.772 85.809 123.378 85.5398 122.897 85.4049C121.962 85.1432 120.499 84.5543 119.409 84.0011C119.042 83.8149 117.791 83.5508 116.63 83.4143C114.421 83.1547 113.304 82.7097 113.747 82.2662C113.997 82.0162 116.941 82.4374 121.343 83.3527C125.332 84.1824 124.174 82.7317 119.692 81.2862C116.712 80.3252 115.178 79.2528 115.839 78.5921C116.289 78.1421 117.93 78.6358 121.668 80.3454C124.226 81.5154 125.741 81.7538 125.999 81.0267C126.093 80.7592 125.937 80.5369 125.652 80.5326C125.125 80.5248 120.292 77.1004 118.092 75.1762C117.429 74.5961 116.554 73.9232 116.147 73.6809C115.741 73.4385 115.547 73.095 115.717 72.9176C115.888 72.7401 116.413 72.8403 116.885 73.1402C117.356 73.44 118.376 73.9954 119.15 74.3743C119.925 74.7532 121.592 75.7266 122.856 76.5375C124.12 77.3483 125.499 78.2317 125.922 78.5005C128.556 80.177 128.537 79.419 125.884 76.9694C124.651 75.831 122.84 74.1377 121.859 73.2064C120.879 72.2752 119.682 71.2484 119.201 70.9248C118.259 70.2913 118.017 69.2577 118.812 69.2604C119.734 69.2637 122.511 71.4027 123.821 73.1184C124.543 74.0645 125.352 74.9106 125.62 74.9987C126.386 75.2512 126.187 74.1208 125.328 73.3435C124.9 72.9562 124.55 72.5002 124.55 72.3301C124.55 71.6779 122.058 68.2307 120.747 67.0691C119.378 65.856 119.199 64.5905 120.397 64.5905C121.001 64.5905 124.054 67.8187 126.066 70.5851C127.651 72.7635 130.678 74.3567 133.409 74.4489L135.234 74.5106L135.46 72.8712C135.584 71.9696 135.981 70.9054 136.342 70.5065C137.261 69.4912 137.196 66.8912 136.221 65.6514C135.793 65.1074 135.443 64.5383 135.443 64.3868C135.443 64.2352 134.803 63.2406 134.022 62.1766C132.546 60.1653 131.853 57.7719 132.216 55.9348C132.531 54.3437 132.926 54.6248 133.661 56.961C134.024 58.1138 134.573 59.383 134.882 59.7814C135.416 60.4707 135.463 60.4724 135.856 59.8168C136.433 58.8531 136.998 59.3465 137.004 60.8205C137.012 62.4551 138.03 65.3741 138.32 64.5905C138.438 64.2696 138.583 62.9566 138.642 61.6728C138.723 59.905 138.891 59.3387 139.333 59.3387C139.808 59.3387 139.96 60.2433 140.152 64.2015C140.504 71.4566 140.951 72.9312 142.367 71.5151C142.73 71.152 142.938 71.152 143.301 71.5151C144.386 72.5999 144.696 71.9737 144.97 68.1456C145.299 63.5392 145.62 61.8183 146.141 61.855C146.376 61.8716 146.53 63.6822 146.53 66.4459V71.0094L147.456 70.9076C147.966 70.8517 148.587 71.0863 148.838 71.429C149.505 72.3412 149.98 71.5275 150.56 68.4807C151.258 64.8141 151.766 63.4234 152.408 63.4234C152.866 63.4234 152.925 63.8161 152.712 65.4658C152.567 66.5891 152.299 67.9134 152.115 68.4088C151.72 69.4759 151.675 71.3573 152.037 71.7192C152.462 72.1435 153.338 71.1664 153.327 70.2809C153.307 68.5755 155.856 60.3113 156.402 60.3113C157.005 60.3113 156.884 61.3418 155.854 64.9795C155.52 66.1563 155.143 68.2956 155.015 69.7336C154.784 72.3299 154.79 72.3509 155.882 72.7662C157.659 73.4418 158.573 73.1247 158.702 71.7874C158.85 70.2602 159.481 68.6487 160.683 66.7301C161.22 65.8743 161.696 64.5064 161.742 63.6904C161.857 61.6204 162.766 58.7202 163.246 58.8849C163.634 59.0177 163.631 59.9575 163.238 61.7701C162.974 62.9885 163.579 62.8621 164.878 61.4276C167.027 59.0544 167.346 58.7552 167.731 58.7552C168.884 58.7552 166.809 62.9903 165.111 64.1026C163.969 64.8511 162.571 66.978 161.977 68.8697C161.662 69.8744 161.672 70.9451 162.015 72.9545L162.479 75.6776L166.004 75.7885C169.489 75.8981 169.548 75.8845 171.271 74.5687C172.23 73.8368 173.875 71.9488 174.927 70.3731C176.956 67.3329 180.706 63.4234 181.594 63.4234C182.502 63.4234 182.169 63.9638 180.56 65.102C179.709 65.7043 179.013 66.4626 179.013 66.7871C179.013 67.1117 178.422 68.1069 177.7 68.9988C176.977 69.8906 176.119 71.1455 175.792 71.7874C175.466 72.4293 174.656 73.3536 173.993 73.8414C172.816 74.7077 172.368 75.8721 173.211 75.8721C174.088 75.8721 177.14 73.3189 178.643 71.3276C179.502 70.1898 180.462 69.2588 180.776 69.2588C181.09 69.2588 181.347 69.3448 181.347 69.4499C181.347 69.9111 178.341 73.5183 176.408 75.3771C174.709 77.0109 173.773 77.5653 171.651 78.1975C170.198 78.6302 168.809 78.9843 168.565 78.9843C168.065 78.9843 167.955 80.0034 168.423 80.2927C169.033 80.6699 173.582 79.447 176.118 78.224C177.855 77.3862 179.41 76.2326 180.777 74.7661C182.749 72.6521 183.618 72.2963 183.135 73.8004C183.01 74.191 182.424 74.8337 181.832 75.2286C181.241 75.6235 180.293 76.5864 179.726 77.3682C178.594 78.9304 175.239 80.5404 173.117 80.5404C171.917 80.5404 169.287 81.8695 169.287 82.4756C169.287 83.1319 170.486 83.2104 171.845 82.643C172.62 82.3191 173.543 82.1194 173.896 82.1992C174.847 82.4137 180.777 79.2486 183.681 76.9774C186.37 74.8742 188.53 73.7522 189.151 74.136C189.747 74.5045 189.216 75.0357 187.252 76.036C186.251 76.5459 184.906 77.4296 184.264 77.9999C182.954 79.164 173.382 84.1162 173.061 83.7958C172.757 83.4916 171.232 84.3893 171.232 84.8725C171.232 85.3269 173.259 85.1611 176.484 84.443C177.554 84.2048 179.304 83.8506 180.374 83.6559C183.409 83.1036 188.128 81.8532 189.06 81.3542C189.635 81.0464 189.905 81.0345 189.905 81.3169C189.905 81.5451 189.599 81.8458 189.224 81.9851C188.85 82.1244 188.106 82.5446 187.571 82.9189C187.036 83.2931 184.694 83.9696 182.365 84.4223C175.011 85.852 171.841 86.8477 172.112 87.6424C172.334 88.2922 174.385 88.2135 177.457 87.4375C178.847 87.0861 181.211 86.5174 182.708 86.1736C184.206 85.8298 186.897 85.2124 188.689 84.8015C191.748 84.1 192.628 84.0898 192.628 84.7558C192.628 85.2032 179.911 88.3389 178.149 88.3258C177.376 88.32 173.177 90.1741 173.177 90.5213C173.177 90.8426 176.083 90.4607 181.152 89.4734C183.506 89.015 186.307 88.4893 187.377 88.3053C188.446 88.1212 190.238 87.8134 191.358 87.6212C193.343 87.2807 193.795 87.3476 193.795 87.981C193.795 88.4629 189.134 89.5996 184.459 90.2575C175.416 91.5302 173.069 92.1017 172.87 93.0795C172.688 93.9727 173.529 95.7897 174.044 95.6177C174.305 95.531 174.617 95.0369 174.739 94.5198C174.992 93.452 175.593 93.2236 179.791 92.6015C181.395 92.3638 183.871 91.916 185.293 91.6066C186.714 91.2971 188.902 91.067 190.155 91.0952C192.005 91.1367 192.183 91.1917 191.103 91.3869C190.371 91.5192 189.692 91.8725 189.593 92.1719C189.451 92.6008 189.751 92.671 191.005 92.5028C192.121 92.3532 192.736 92.4551 193.058 92.843C193.647 93.5538 193.427 93.7496 191.725 94.0257C189.844 94.331 188.216 93.898 188.496 93.1673C188.743 92.5247 188.235 92.4707 185.486 92.8474C183.243 93.1548 183.103 93.9901 185.233 94.3501C186.087 94.4943 187.444 94.9245 188.248 95.306C189.053 95.6876 190.411 96.1249 191.267 96.2779C192.123 96.4309 193.085 96.789 193.406 97.0736C193.727 97.3582 194.591 97.7453 195.325 97.9338C196.834 98.3211 197.412 99.2134 196.155 99.2134C195.245 99.2134 190.571 98.0043 188.129 97.1368C185.404 96.1694 182.15 95.6395 180.571 95.9063C179.736 96.0474 178.258 96.6893 177.287 97.3329L175.52 98.503L173.816 97.852C171.088 96.8103 168.88 97.6352 171.438 98.7406C174.187 99.9288 174.575 100.269 175.579 102.371C176.886 105.107 179.043 106.755 182.708 107.817C186.354 108.873 188.19 109.675 188.99 110.558C190.344 112.054 188.932 111.988 184.07 110.326C177.055 107.928 175.181 106.756 173.966 104.01C173.449 102.842 172.672 101.988 171.376 101.166C169.259 99.8236 168.789 99.7223 168.967 100.647C169.037 101.007 169.868 101.755 170.814 102.309C171.932 102.962 172.666 103.721 172.91 104.474C173.556 106.471 178.31 112.44 179.254 112.44C179.386 112.44 180.071 112.922 180.777 113.51C181.483 114.098 182.516 114.897 183.073 115.285C184.089 115.992 184.102 116.719 183.099 116.719C181.898 116.719 176.728 111.735 173.927 107.877C171.277 104.226 169.584 102.715 168.145 102.715C167.486 102.715 168.328 104.129 170.299 106.332C171.767 107.973 173.559 111.592 173.571 112.941C173.573 113.2 174.271 114.288 175.123 115.358C176.787 117.45 176.967 117.886 176.164 117.886C175.371 117.886 172.104 112.688 171.422 110.342C170.408 106.852 167.185 103.493 164.852 103.493C163.828 103.493 164.137 104.189 165.847 105.731C167.771 107.466 168.878 109.707 168.89 111.894C168.895 112.959 169.144 113.709 169.641 114.159C170.533 114.966 171.443 117.027 171.072 117.399C170.572 117.899 169.482 116.83 168.947 115.315C168.653 114.483 167.659 112.221 166.737 110.288C165.332 107.342 164.835 106.667 163.66 106.106C162.889 105.739 161.783 105.439 161.202 105.44L160.145 105.442L161.147 106.315C163.031 107.958 164.884 110.686 165.119 112.162C165.419 114.056 167.056 117.629 168.299 119.106C169.531 120.57 170.64 122.888 170.281 123.247C169.464 124.064 165.128 116.024 162.93 109.617C162.69 108.917 160.884 107.876 160.528 108.232C160.419 108.341 160.692 109.247 161.134 110.246C161.575 111.244 162.163 113.247 162.439 114.696C163.044 117.872 163.266 118.303 166.856 123.24C169.648 127.082 170.218 128.39 169.098 128.39C168.471 128.39 166.564 125.643 166.564 124.739C166.564 124.434 165.947 123.446 165.193 122.543C163.731 120.794 161.118 116.54 161.118 115.911C161.118 115.703 160.775 114.556 160.355 113.362C159.422 110.707 157.837 108.55 156.819 108.55C155.764 108.55 155.848 109.77 156.976 110.83C157.479 111.303 158.104 112.428 158.364 113.329C159.676 117.87 162.148 123.402 164.267 126.538C166.391 129.682 167.107 131.365 166.187 131.048C165.331 130.754 161.74 126.068 160.498 123.624C158.713 120.114 156.766 117.128 155.487 115.941C154.48 115.007 152.465 111.211 152.441 110.203C152.428 109.625 151.54 109.553 151.2 110.103C151.069 110.315 151.19 111.479 151.469 112.69C151.873 114.444 152.225 115.055 153.201 115.696C153.875 116.139 154.835 117.163 155.335 117.972C155.835 118.781 156.358 119.443 156.497 119.443C157.421 119.443 159.199 124.744 159.757 129.168C159.906 130.345 160.36 132.074 160.767 133.011C161.174 133.947 161.507 134.954 161.507 135.247C161.507 135.814 160.888 135.981 160.608 135.49ZM140.422 115.475C140.679 115.218 140.888 114.474 140.886 113.821L140.883 112.635L140.11 113.802C138.971 115.522 139.191 116.705 140.422 115.475ZM157.031 114.093C156.876 113.719 156.659 113.063 156.547 112.635C156.249 111.492 154.472 109.717 153.626 109.717C152.959 109.717 152.948 109.773 153.504 110.328C153.84 110.665 154.115 111.15 154.115 111.407C154.115 112.026 156.395 114.774 156.909 114.774C157.139 114.774 157.191 114.484 157.031 114.093ZM125.392 108.793C126.177 108.124 126.833 107.446 126.851 107.286C126.928 106.601 125.525 107.082 124.296 108.161C123.565 108.803 122.623 109.328 122.202 109.328C121.765 109.328 121.438 109.591 121.438 109.942C121.438 110.898 123.692 110.243 125.392 108.793ZM129.123 106.313C129.341 105.651 128.748 105.701 127.834 106.422C127.102 106.998 127.108 107.013 128.021 106.908C128.539 106.848 129.035 106.581 129.123 106.313ZM149.108 106.197C149.612 105.444 149.731 105.431 151.236 105.964C153.329 106.705 153.875 106.37 153.294 104.702C152.699 102.997 153.226 102.464 154.922 103.055C156.833 103.721 157.167 103.606 157.3 102.232C157.481 100.362 158.583 100.344 159.196 102.201C159.615 103.471 159.724 103.568 159.984 102.903C160.149 102.478 160.297 101.475 160.312 100.672C160.334 99.5099 160.489 99.2134 161.076 99.2134C161.481 99.2134 161.918 99.4883 162.047 99.8242C162.188 100.191 162.632 100.385 163.158 100.311C163.863 100.21 164.059 99.8999 164.156 98.7271C164.251 97.5843 164.44 97.2683 165.031 97.2683C165.446 97.2683 165.786 97.5309 165.786 97.8518C165.786 99.3037 166.807 98.1193 167.713 95.615C167.927 95.0266 168.28 94.5452 168.5 94.5452C169.013 94.5452 169.021 93.1106 168.509 92.7946C167.856 92.3909 168.07 91.6007 169.147 90.4387L170.174 89.3307L169.094 87.3669C168.5 86.2869 167.366 84.6154 166.574 83.6525C165.782 82.6897 164.927 81.5129 164.674 81.0375C164.259 80.2572 159.102 77.4282 158.094 77.4282C157.867 77.4282 156.882 77.0856 155.905 76.6668C153.709 75.7254 145.836 75.2967 142.056 75.9128C134.471 77.1489 127.039 83.9448 126.831 89.8351C126.771 91.5214 127.094 92.4662 129.157 96.6536C130.474 99.3272 131.552 101.86 131.552 102.283C131.552 103.515 133.671 104.787 135.236 104.493C136.299 104.294 136.658 104.403 137.125 105.069C137.788 106.016 140.5 106.811 140.5 106.058C140.5 105.802 140.293 105.386 140.039 105.133C139.119 104.213 140.055 104.263 141.876 105.231C143.571 106.132 143.818 106.17 144.612 105.65C145.407 105.129 145.601 105.16 146.785 106.003C148.414 107.16 148.46 107.164 149.108 106.197ZM141.791 99.6662C140.896 99.0962 139.844 98.0306 139.453 97.2982C139.062 96.5657 138.219 95.6774 137.579 95.3242C136.092 94.5039 135.847 92.974 137.014 91.8066C137.802 91.0188 138.151 90.9755 142.581 91.1152C147.806 91.28 148.657 91.5646 151.781 94.191C152.744 95.0003 154.026 95.8493 154.63 96.0775C156.126 96.6428 155.859 97.708 154.115 98.1387C153.366 98.3236 152.484 98.7904 152.154 99.176C151.068 100.446 149.927 100.77 146.652 100.736C143.848 100.707 143.201 100.564 141.791 99.6662ZM150.15 97.4013C150.258 96.2915 150.145 96.1457 148.983 95.8928C148.275 95.7388 147.351 95.3726 146.929 95.079C146.022 94.448 143.87 94.3795 142.808 94.9479C141.706 95.5376 141.888 96.669 143.272 97.8333C144.374 98.7605 144.748 98.8459 147.259 98.7432L150.031 98.6299L150.15 97.4013ZM148.141 90.5595C146.887 89.8995 144.45 89.0773 142.723 88.7322C139.407 88.0692 138.598 87.4138 140.299 86.7671C142.394 85.9708 143.377 86.1891 148.586 88.6073C149.289 88.9337 149.97 89.0946 150.1 88.965C150.496 88.5691 148.563 87.1922 146.991 86.7499C145.914 86.4469 145.546 86.1521 145.645 85.6734C145.828 84.7928 147.183 84.9121 149.688 86.0291C151.796 86.969 153.726 89.3398 153.726 90.9875C153.726 92.2792 151.012 92.0712 148.141 90.5595ZM154.602 90.7908C154.334 90.6804 154.115 90.2108 154.114 89.7472C154.111 87.68 152.198 85.8062 148.183 83.9348C147.167 83.4611 146.335 82.8537 146.335 82.585C146.335 81.9381 147.876 81.9642 149.48 82.6384C150.584 83.1025 150.889 83.1018 151.604 82.6331C152.327 82.1591 152.635 82.1679 153.907 82.6992C154.714 83.0365 155.866 83.261 156.465 83.1981C157.76 83.0623 161.725 85.727 162.062 86.9593C162.401 88.1994 162.319 89.421 161.879 89.693C161.214 90.1037 160.34 89.0846 160.34 87.8993C160.34 87.2643 159.978 86.458 159.488 86.0019C158.161 84.7656 158.033 85.0533 159.031 87.0252C160.075 89.0879 160.177 89.9831 159.436 90.5981C158.821 91.1086 158.006 90.4703 158.006 89.4779C158.006 88.7379 156.181 86.9035 155.812 87.2725C155.674 87.4108 155.773 87.7802 156.033 88.0934C157.129 89.4133 156.075 91.3988 154.602 90.7908ZM162.356 131.699C161.919 131.143 161.444 130.158 161.302 129.511C160.739 126.946 162.319 127.874 163.068 130.548C163.662 132.669 163.423 133.055 162.356 131.699ZM132.902 130.083C133.345 127.13 134.666 125.641 134.663 128.098C134.662 129.274 133.428 131.891 132.875 131.891C132.741 131.891 132.753 131.078 132.902 130.083ZM120.297 121.728C120.54 121.274 122.057 119.654 123.668 118.13C125.28 116.605 127.457 114.499 128.508 113.448C129.866 112.091 130.538 111.659 130.835 111.956C131.131 112.252 130.995 112.579 130.363 113.087C129.874 113.48 129.147 114.152 128.747 114.58C128.346 115.008 126.513 116.977 124.674 118.956C122.726 121.052 121.021 122.555 120.591 122.555C119.961 122.555 119.918 122.436 120.297 121.728ZM182.903 80.9603C182.903 80.7294 183.144 80.5404 183.439 80.5404C183.734 80.5404 184.2 80.2691 184.475 79.9376C184.971 79.3404 187.3 78.1713 189.076 77.6283C190.711 77.1284 189.805 78.3083 187.539 79.6295C185.227 80.9774 182.903 81.6446 182.903 80.9603ZM156.463 69.9681C156.484 68.0444 158.415 61.0027 159.299 59.6241C160.076 58.4144 160.71 60.3667 159.999 61.7754C159.317 63.124 158.783 65.2626 158.754 66.7577C158.714 68.8076 157.891 70.9804 157.096 71.1351C156.596 71.2325 156.453 70.9683 156.463 69.9681ZM147.9 68.4064C147.91 66.6528 148.433 63.9187 148.836 63.5158C148.965 63.3866 149.267 63.4768 149.507 63.7163C149.828 64.0375 149.775 64.662 149.306 66.0975C148.956 67.1678 148.669 68.394 148.669 68.8226C148.669 69.2512 148.494 69.7101 148.28 69.8423C148.043 69.9887 147.895 69.4269 147.9 68.4064ZM142.229 65.4742C142.383 63.1787 142.606 61.143 142.725 60.9505C143.302 60.0168 143.594 62.203 143.363 65.7298C143.16 68.8217 142.984 69.6478 142.528 69.6478C142.035 69.6478 141.991 69.0328 142.229 65.4742ZM186.926 142.418C188.341 141.88 190.55 139.519 191.627 137.394C192.481 135.71 193.795 131.454 193.795 130.376C193.795 129.337 193.144 130.093 192.677 131.676C191.274 136.427 188.718 140.073 185.831 141.444C185.076 141.802 184.459 142.25 184.459 142.439C184.459 142.89 185.713 142.879 186.926 142.418ZM225.572 132.186C227.448 131.269 230.526 128.293 230.3 127.616C230.206 127.334 229.758 127.545 229.138 128.165C227.85 129.453 225.759 130.871 223.331 132.101C222.278 132.635 221.416 133.17 221.416 133.29C221.416 133.669 223.876 133.015 225.572 132.186ZM219.568 131.436C221.173 130.81 220.859 130.335 218.84 130.335C217.361 130.335 217.12 130.24 217.484 129.802C217.727 129.509 218.755 128.954 219.768 128.569C220.781 128.184 222.121 127.586 222.744 127.239C223.888 126.604 224.849 125.464 224.514 125.14C224.415 125.043 222.583 125.803 220.443 126.829C218.304 127.855 214.934 129.091 212.955 129.576C208.523 130.662 208.271 131.156 211.782 131.885C213.715 132.287 218.024 132.038 219.568 131.436ZM212.468 130.724C212.468 130.51 212.983 130.335 213.612 130.335C214.242 130.335 214.865 130.51 214.997 130.724C215.14 130.956 214.677 131.113 213.853 131.113C213.091 131.113 212.468 130.938 212.468 130.724ZM148.28 131.334C148.815 131.268 149.603 131.186 150.031 131.152C151.762 131.014 149.595 130.441 147.508 130.485C145.747 130.522 145.349 130.658 145.232 131.263C145.111 131.89 145.252 131.957 146.199 131.726C146.809 131.577 147.745 131.401 148.28 131.334ZM76.2821 130.74C76.6656 130.535 77.2619 129.936 77.6072 129.409L78.2349 128.451L76.9815 128.888C76.2921 129.129 74.649 129.334 73.3302 129.344C70.6817 129.365 70.1201 129.632 70.8575 130.52C71.4209 131.199 75.1426 131.35 76.2821 130.74ZM83.6481 127.709C83.6425 126.693 83.914 125.336 84.2516 124.694C84.5891 124.052 84.8663 123.341 84.8676 123.114C84.8713 122.476 86.8352 120.783 88.5917 119.903C89.4619 119.467 90.4024 118.835 90.6817 118.498C90.961 118.162 91.5183 117.886 91.92 117.886C92.3217 117.886 92.6504 117.711 92.6504 117.497C92.6504 116.988 91.2818 117.007 89.3512 117.543C87.2462 118.127 84.6546 119.975 83.5098 121.707C82.4028 123.382 81.8747 126.897 82.4911 128.487C83.1251 130.123 83.6596 129.764 83.6481 127.709ZM205.615 127.851C205.826 127.009 209.625 124.111 210.517 124.111C210.735 124.111 210.912 123.848 210.912 123.527C210.912 123.162 210.543 122.944 209.923 122.944C208.151 122.944 203.45 128.109 204.167 129.268C204.465 129.752 205.356 128.879 205.615 127.851ZM149.607 128.196C149.406 127.395 149.504 127.223 150.16 127.223C150.599 127.223 151.066 127.048 151.198 126.834C151.33 126.62 151.078 126.445 150.637 126.445C149.467 126.445 149.65 125.329 150.898 124.855C152.089 124.402 152.545 123.849 152.553 122.846C152.562 121.831 151.582 122.025 151.074 123.138C150.567 124.251 149.351 124.481 149.527 123.43C149.602 122.983 149.354 122.708 148.806 122.63C147.731 122.477 146.633 124.434 147.213 125.47C147.476 125.941 147.448 126.238 147.121 126.44C146.815 126.629 147.016 126.823 147.695 126.993C148.429 127.178 148.671 127.435 148.509 127.858C148.218 128.615 148.545 129.168 149.283 129.168C149.695 129.168 149.784 128.9 149.607 128.196ZM218.79 125.046C219.164 124.931 219.471 124.586 219.471 124.279C219.471 123.859 218.919 123.723 217.234 123.728C213.495 123.738 212.794 125.026 216.441 125.184C217.359 125.223 218.416 125.161 218.79 125.046ZM57.6784 122.526C60.5345 120.493 63.3974 119.729 69.1147 119.475C72.1102 119.343 74.7798 119.095 75.0473 118.926C75.3147 118.757 75.5335 118.293 75.5335 117.896C75.5335 117.388 76.0831 116.971 77.3814 116.495C79.2142 115.822 80.3363 114.918 80.0041 114.38C79.7748 114.009 77.8677 114.385 77.8677 114.801C77.8677 115.159 73.3788 117.886 72.7896 117.886C72.5871 117.886 72.4264 117.755 72.4326 117.595C72.4458 117.252 80.0514 112.275 81.1421 111.896C81.6294 111.727 81.7557 111.504 81.5066 111.255C80.8354 110.584 78.0531 111.835 75.339 114.027C74.2497 114.907 71.284 116.006 70.8018 115.708C70.4385 115.483 73.4956 113.238 76.3957 111.599C78.1217 110.624 78.2058 110.374 76.7006 110.693C75.9517 110.852 75.2515 111.101 75.1445 111.247C74.5055 112.117 70.4654 112.923 70.2197 112.229C69.9937 111.59 73.4448 110.106 75.1549 110.106C76.2414 110.106 76.7006 109.939 76.7006 109.545C76.7006 108.57 76.1667 108.579 72.7379 109.607C69.618 110.542 68.1422 110.602 68.1422 109.791C68.1422 109.605 68.8862 109.231 69.7955 108.961C72.6374 108.115 73.3426 107.759 72.9512 107.368C72.7217 107.139 72.0821 107.145 71.2412 107.387C70.5024 107.599 69.3007 107.772 68.5707 107.772C67.3016 107.772 67.2722 107.74 67.8982 107.048C68.5157 106.366 68.5029 106.292 67.6721 105.74C66.8785 105.213 66.8484 105.087 67.3685 104.46C67.9181 103.798 67.7872 103.778 64.6406 104.053C59.2193 104.526 57.8686 105.516 58.7993 108.336C59.4128 110.195 61.4845 111.362 64.3845 111.483C65.6341 111.534 66.832 111.752 67.0464 111.967C67.6133 112.534 66.727 113.996 65.8166 113.996C65.4085 113.996 63.8288 114.458 62.3063 115.022C57.9578 116.634 54.8916 120.293 55.8331 122.746C56.1271 123.512 56.327 123.489 57.6784 122.526ZM239.604 113.899C240.282 112.62 240.48 111.604 240.479 109.408C240.478 106.938 240.358 106.449 239.552 105.644C238.528 104.62 234.666 102.584 232.972 102.175C228.545 101.107 221.416 101.077 221.416 102.126C221.416 102.469 222.874 102.667 226.57 102.827C232.072 103.065 235.492 103.937 237.268 105.554C238.992 107.124 238.153 107.913 236.004 106.742C232.524 104.844 231.922 104.66 229.312 104.698L226.668 104.736L229.002 105.233C230.285 105.507 232.162 106.029 233.172 106.395C235.796 107.344 238.371 110.495 236.523 110.495C236.299 110.495 235.478 110.005 234.698 109.406C232.136 107.437 230.367 106.895 227.01 107.049C224.167 107.179 223.941 107.131 223.527 106.303C223.146 105.541 223.018 105.497 222.609 105.99C221.846 106.909 222.25 108.336 223.317 108.487C223.828 108.559 224.38 108.4 224.545 108.134C224.93 107.51 228.942 108.241 231.628 109.425C233.475 110.239 233.817 110.627 233.086 111.079C232.872 111.211 232.697 111.46 232.697 111.632C232.697 112.098 234.672 114.007 236.004 114.829C237.842 115.963 238.617 115.763 239.604 113.899ZM211.593 113.899C212.371 113.279 212.174 112.743 210.621 111.25C209.818 110.479 208.576 109.11 207.859 108.207C207.143 107.305 205.918 106.168 205.136 105.682C203.46 104.637 200.259 103.688 199.661 104.057C198.954 104.494 199.194 105.698 200.117 106.342C200.991 106.952 200.99 106.953 199.728 106.973C198.275 106.997 198.241 107.071 199.092 108.369C199.785 109.427 199.632 109.497 197.78 108.966C196.237 108.523 196.182 108.872 197.588 110.166C200.465 112.811 202.717 113.896 206.633 114.521C208.001 114.739 211.013 114.362 211.593 113.899ZM97.3573 111.55C98.0838 111.06 98.6886 110.404 98.7014 110.091C98.7475 108.965 99.3479 108.207 100.559 107.745C101.482 107.392 101.621 107.232 101.112 107.105C100.737 107.013 100.431 106.609 100.431 106.209C100.431 105.632 100.09 105.458 98.7775 105.363C97.6884 105.284 97.1585 105.073 97.225 104.746C97.3799 103.983 96.3273 103.763 94.8498 104.251C93.5199 104.69 89.5301 108.619 89.5469 109.473C89.5588 110.079 90.7394 111.472 91.6779 111.988C93.0559 112.746 95.9088 112.526 97.3573 111.55ZM87.5179 108.655C87.6154 107.996 87.2788 107.73 85.6706 107.196C83.9167 106.613 82.4422 105.293 80.7016 102.747C80.6407 102.658 80.4752 102.7 80.3339 102.842C80.014 103.162 81.5907 106.279 82.6446 107.41C83.5037 108.332 86.3927 109.768 87.0096 109.58C87.2236 109.515 87.4523 109.099 87.5179 108.655ZM89.5382 104.465C89.5382 104.144 89.376 103.882 89.1778 103.882C88.9795 103.882 88.2699 102.925 87.6008 101.755C86.626 100.052 86.4658 99.4772 86.7942 98.8634C87.5375 97.4745 87.2954 95.8787 86.2704 95.4117C85.7568 95.1777 85.2317 95.0912 85.1033 95.2196C84.1837 96.1392 86.1771 102.759 87.7994 104.173C88.9669 105.191 89.5382 105.287 89.5382 104.465ZM76.5872 101.256C76.9287 100.33 77.4806 100.004 78.72 99.9974C79.8777 99.9909 79.9798 99.8865 80.3523 98.3288L80.6103 97.2497L79.1417 97.8934C77.3961 98.6586 76.552 98.7677 76.3797 98.2506C76.3101 98.042 77.4873 97.4599 78.9957 96.9572L81.7381 96.043L80.889 94.8945C80.4072 94.2429 79.8087 93.8347 79.5055 93.9511C79.2116 94.0639 78.8384 94.1561 78.6763 94.1561C78.5142 94.1561 78.1822 94.5938 77.9384 95.1287C77.5609 95.9574 77.2351 96.1012 75.7364 96.1012C74.0062 96.1012 73.6347 95.8395 74.3287 95.1092C74.5219 94.906 74.7423 94.3896 74.8184 93.9616C74.9316 93.3252 75.3449 93.1482 77.0896 92.9891C78.7172 92.8406 79.2531 92.6333 79.3516 92.1138C79.4633 91.5254 79.157 91.433 77.0952 91.433C75.6039 91.433 74.7997 91.2872 74.95 91.044C75.0823 90.83 76.3208 90.6549 77.7022 90.6549C80.2006 90.6549 83.3139 89.9549 83.3139 89.3932C83.3139 89.2313 80.8631 89.0989 77.8677 89.0989C74.6685 89.0989 72.4214 88.9456 72.4214 88.7275C72.4214 88.2555 74.6605 87.8272 76.3662 87.9728C79.4467 88.2358 83.3959 86.8306 81.5582 86.1254C81.1862 85.9826 80.3349 86.0534 79.6665 86.2826C78.9981 86.5119 76.7389 86.7142 74.6461 86.7323C71.5542 86.759 70.7979 86.6526 70.6106 86.1646C70.2917 85.3336 70.6737 85.0628 71.5069 85.529C71.9615 85.7834 72.4527 85.7891 72.9085 85.5452C73.874 85.0284 73.3917 84.4306 72.0094 84.4306C71.0527 84.4306 70.8653 84.2735 70.8653 83.4717C70.8653 82.2841 69.5299 81.429 68.7222 82.0994C68.4266 82.3447 67.8986 83.4072 67.5487 84.4605C67.018 86.0582 66.7551 86.3757 65.9626 86.3757C64.4718 86.3757 61.8834 83.6856 60.3759 80.5697C59.6402 79.0488 58.8547 77.8649 58.6302 77.9386C57.8872 78.1828 57.9661 79.7059 58.8196 81.5948C60.0377 84.2902 60.3444 85.3912 60.9416 89.2117C61.3234 91.6543 61.8508 93.3141 62.7878 95.0216C64.1368 97.4801 64.505 97.7317 67.4846 98.231C68.4005 98.3845 69.565 99.02 70.533 99.8945C71.9476 101.172 73.1537 101.626 75.8375 101.888C76.1117 101.915 76.449 101.63 76.5872 101.256ZM232.303 97.8041C232.836 97.2482 232.763 97.2159 231.53 97.4628C230.781 97.6128 229.906 98.0028 229.585 98.3295C229.063 98.8607 229.145 98.8968 230.358 98.6707C231.104 98.5317 231.979 98.1417 232.303 97.8041ZM224.139 97.1024C226.6 96.8062 228.963 96.4408 229.391 96.2904C231.654 95.4951 233.791 94.3285 234.811 93.3315C235.442 92.7153 236.187 92.211 236.467 92.211C237.502 92.211 236.929 93.7544 235.323 95.2898C234.414 96.1594 233.867 96.8728 234.109 96.8751C235.188 96.8854 237.449 95.5966 238.058 94.6236C238.426 94.036 239.479 92.5695 240.399 91.3647C242.187 89.0216 242.887 86.709 241.979 86.1473C241.688 85.9673 238.999 85.7785 236.004 85.7278C233.009 85.6772 229.332 85.6002 227.835 85.5568C225.64 85.4933 224.453 85.7129 221.718 86.6891C217.771 88.0977 216.144 89.0395 216.698 89.594C216.945 89.8407 217.517 89.8205 218.332 89.5362C219.828 89.0148 222.194 88.958 222.194 89.4436C222.194 89.8374 220.169 90.8585 218.624 91.2435C218.051 91.3862 217.28 91.8373 216.91 92.246C216.266 92.9579 216.277 92.9888 217.174 92.983C218.26 92.976 221.244 92.2522 225.112 91.0578C229.116 89.821 229.585 89.7338 229.585 90.2263C229.585 90.9779 227.26 92.1264 224.374 92.8008C220.238 93.767 217.915 94.5603 217.915 95.0063C217.915 95.8085 226.484 94.1552 229.619 92.748C232.024 91.6688 233.602 91.7051 232.678 92.8184C231.815 93.8576 228.87 94.9589 224.964 95.7033C221.427 96.3772 217.778 97.5647 219.082 97.6175C219.403 97.6305 221.678 97.3987 224.139 97.1024ZM223.258 89.2555C222.797 88.7945 223.37 88.3208 224.389 88.3208C225.001 88.3208 225.31 88.5042 225.211 88.8071C225.031 89.3517 223.668 89.6649 223.258 89.2555ZM83.9524 83.8441C84.3246 82.8743 83.7237 80.5404 83.1018 80.5404C82.6937 80.5404 82.5359 81.0104 82.5359 82.2261C82.5359 83.1533 82.6526 84.0286 82.7952 84.1713C83.2264 84.6024 83.7144 84.4645 83.9524 83.8441ZM215.069 81.5078C215.844 81.1841 216.375 80.8165 216.25 80.691C215.96 80.4012 213.331 81.2553 213.034 81.7358C212.709 82.2626 213.466 82.1777 215.069 81.5078ZM219.631 78.4008C220.41 76.2536 221.207 75.3901 223.264 74.4657C224.387 73.9609 225.306 73.3643 225.306 73.1401C225.306 71.1747 209.652 69.3332 207.73 71.0725C207.063 71.6768 207.058 71.766 207.663 72.4341C208.068 72.8815 208.846 73.149 209.743 73.149C210.909 73.149 211.262 73.3376 211.637 74.1597C211.979 74.9108 212.27 75.0954 212.769 74.8784C214.262 74.2298 215.957 74.2185 216.201 74.8555C216.389 75.3462 216.772 75.4262 217.995 75.2307C219.376 75.0098 219.534 75.0642 219.412 75.7189C219.337 76.1241 218.707 76.7061 218.012 77.0122C216.608 77.6299 216.396 78.4345 217.428 79.2264C218.427 79.9923 219.152 79.7203 219.631 78.4008ZM92.1786 78.1525C92.0974 77.9089 91.2821 77.4168 90.3668 77.059C87.7039 76.0178 88.6821 75.3005 91.7751 76.0263C93.7056 76.4793 93.4014 75.4097 91.3287 74.4561C89.8337 73.7684 89.4922 73.7349 88.6214 74.1912C87.7307 74.6578 87.5819 74.633 87.22 73.9567C86.9973 73.5406 86.8151 73.0914 86.8151 72.9585C86.8151 72.6741 92.1962 72.9655 94.3037 73.364C95.467 73.5839 95.7626 73.5208 95.7626 73.0526C95.7626 72.2459 93.8204 71.5123 90.9599 71.2385C89.1929 71.0694 88.5657 70.8565 88.5657 70.4258C88.5657 69.7838 89.3538 69.7587 93.9663 70.2534C96.1737 70.4902 96.6124 70.4452 96.4657 69.997C96.2364 69.2966 94.0317 68.5308 92.1641 68.5027C91.3618 68.4906 90.7053 68.3203 90.7053 68.1241C90.7053 67.5401 91.5827 67.4203 93.2019 67.7833C94.9068 68.1655 95.7626 67.9769 95.7626 67.2189C95.7626 66.4447 90.4385 65.3273 88.7517 65.7476C88.0075 65.933 86.3483 66.3487 85.0645 66.6713C83.7808 66.994 81.4597 67.5523 79.9066 67.9121C78.3534 68.2719 76.9816 68.7297 76.8581 68.9296C76.439 69.6077 77.7559 71.0134 80.7248 73.0568C82.3528 74.1773 83.7907 75.0941 83.9201 75.0941C84.0496 75.0941 84.8852 75.6911 85.7771 76.4207C86.6689 77.1503 88.0113 77.9223 88.7602 78.1362C90.6706 78.6819 92.3577 78.6899 92.1786 78.1525ZM216.088 63.2908C217.33 62.9691 218.557 62.5306 218.815 62.3165C219.806 61.4934 223.989 61.3578 226.839 62.0563C230.214 62.8834 231.53 62.6502 231.53 61.2251C231.53 59.6164 229.248 57.6733 225.006 55.6701C223.073 54.7576 222.624 53.9487 223.508 52.972C224.876 51.4602 223.993 50.9886 219.777 50.9801C218.147 50.9767 216.465 51.2466 215.303 51.6979C213.228 52.5038 209.348 53.0063 208.629 52.5623C207.897 52.1097 208.558 50.9892 209.691 50.7629C210.256 50.6501 211.506 50.3006 212.468 49.9863C213.431 49.672 214.717 49.4157 215.325 49.4167C215.933 49.418 216.875 49.0685 217.419 48.6406C217.963 48.2127 218.665 47.8626 218.977 47.8626C219.575 47.8626 224.917 42.9108 224.917 42.3568C224.917 41.9546 228.161 37.6679 228.979 36.9889C229.312 36.7121 229.585 36.3159 229.585 36.1084C229.585 35.9009 229.935 35.286 230.363 34.742C231.262 33.5993 231.419 31.5237 230.606 31.5237C230.312 31.5237 229.061 31.9705 227.826 32.5166C224.829 33.8418 223.745 33.6886 223.199 31.8631L222.777 30.4519L219.665 32.2149C214.117 35.3575 213.937 35.4366 213.374 34.9694C213.09 34.7335 212.857 34.2119 212.857 33.8102C212.857 32.6689 211.772 32.9402 209.799 34.5749C208.807 35.3972 207.156 36.5789 206.13 37.2008C205.104 37.8227 203.616 38.7226 202.823 39.2005C202.03 39.6784 201.094 40.0722 200.742 40.0758C199.797 40.0852 199.557 39.019 200.217 37.7427C200.544 37.1112 200.798 35.5933 200.798 34.2751C200.798 32.1419 200.701 31.8693 199.728 31.2499C198.2 30.2776 198.087 30.0247 198.081 27.5592C198.078 26.3415 197.893 25.2329 197.671 25.0955C197.448 24.9581 196.486 25.1666 195.532 25.5588C193.986 26.1948 193.798 26.4076 193.797 27.5274C193.795 28.7503 191.993 32.586 190.776 33.9574C189.813 35.0415 190.451 35.1281 191.463 34.0508C192.374 33.0805 193.406 32.7576 193.406 33.4426C193.406 33.6422 192.982 34.643 192.463 35.6665C191.38 37.8029 191.514 38.4467 192.859 37.5657C193.741 36.9875 193.795 36.9973 193.795 37.7349C193.795 38.1654 193.445 39.4387 193.018 40.5643C192.149 42.8495 192.054 43.5833 192.628 43.5833C192.842 43.5833 193.017 43.2432 193.017 42.8274C193.017 42.0413 194.476 40.7541 195 41.0778C195.165 41.1797 195.029 42.0572 194.698 43.0278C194.368 43.9984 194.189 44.8846 194.301 44.9971C194.414 45.1096 194.985 44.8875 195.571 44.5036L196.636 43.8057L196.35 45.3478C196.193 46.196 195.792 47.1931 195.459 47.5635C194.963 48.1165 194.944 48.3445 195.354 48.8377C195.801 49.3762 195.932 49.3669 196.621 48.7477C197.361 48.0827 197.411 48.0897 197.975 48.9341L198.561 49.8111L199.971 48.9694C200.747 48.5065 201.829 47.718 202.375 47.2171C202.922 46.7163 203.534 46.3043 203.737 46.3016C203.939 46.2988 205.33 45.3404 206.828 44.1717C208.325 43.003 210.031 41.6799 210.618 41.2315C212.814 39.5541 216.86 37.7067 218.078 37.8256C219.066 37.922 219.276 38.1135 219.276 38.9151C219.276 39.7544 219.063 39.9172 217.72 40.1035C216.864 40.2222 215.77 40.5347 215.289 40.7979C214.807 41.0612 214.413 41.1666 214.413 41.0322C214.413 40.8977 213.582 41.468 212.566 42.2995C211.549 43.131 208.967 45.1051 206.828 46.6864C202 50.2545 200.798 51.3394 200.798 52.1293C200.798 53.0342 203.014 53.8735 205.429 53.8836C206.757 53.8892 207.594 54.0717 207.699 54.3787C207.807 54.6957 207.464 54.865 206.713 54.865C205.566 54.865 204.34 55.8133 204.84 56.3133C204.984 56.4576 205.887 56.3659 206.846 56.1094C207.805 55.8529 209.156 55.6549 209.848 55.6693C211.037 55.6942 211.058 55.7192 210.232 56.1178C209.75 56.35 209.356 56.7819 209.356 57.0777C209.356 57.4889 209.533 57.5207 210.109 57.2128C211.028 56.7209 213.51 56.681 213.802 57.1535C214.03 57.5221 210.586 59.1442 209.576 59.1442C209.241 59.1442 208.967 59.3005 208.967 59.4916C208.967 60.3132 210.216 60.1792 212.463 59.1166C214.797 58.0129 217.526 57.596 217.526 58.3432C217.526 58.8927 216.775 59.2773 214.444 59.9222C213.284 60.2432 212.254 60.7516 212.155 61.0521C211.892 61.8475 215.153 61.3382 216.817 60.324C217.998 59.6041 220.638 59.2162 220.638 59.7626C220.638 60.3091 218.804 61.4536 217.909 61.4654C217.371 61.4725 216.3 61.8161 215.53 62.2288C214.76 62.6416 213.494 63.0988 212.716 63.2447C211.938 63.3906 211.301 63.6848 211.301 63.8983C211.301 64.3383 212.758 64.1534 216.088 63.2908ZM211.462 48.9751C211.331 48.7627 211.285 48.5379 211.36 48.4756C212.585 47.4565 215.043 45.9175 215.444 45.9175C216.314 45.9175 216.035 47.4125 215.045 48.0616C213.7 48.9424 211.749 49.4399 211.462 48.9751ZM210.389 46.907C210.047 46.0154 213.457 42.9623 216.259 41.6509C219.239 40.2565 219.471 40.2279 219.471 41.2555C219.471 41.7827 218.992 42.2609 218.012 42.714C217.21 43.0847 215.415 44.1851 214.024 45.1593C210.594 47.5624 210.633 47.5434 210.389 46.907ZM174.25 61.028C174.591 60.6869 174.839 60.6926 175.271 61.0515C175.741 61.4408 176.004 61.3059 176.747 60.2955C177.244 59.619 178.299 58.8053 179.09 58.4872C181.684 57.4443 183.664 54.004 183.675 50.5203C183.682 48.3783 183.396 47.4736 182.71 47.4736C181.403 47.4736 176.996 49.9811 175.923 51.3357C174.543 53.0779 172.345 59.1442 173.094 59.1442C174.195 59.1442 175.836 58.0842 176.191 57.1443C176.692 55.8164 177.457 55.6757 177.457 56.9113C177.457 57.821 175.792 59.9222 175.071 59.9222C174.846 59.9222 174.217 60.2724 173.673 60.7003C173.068 61.176 172.9 61.4783 173.242 61.4783C173.549 61.4783 174.002 61.2757 174.25 61.028ZM89.2366 58.2128C89.5032 57.8061 89.1559 57.5754 87.4712 57.0398C86.2694 56.6578 87.1644 56.032 88.9128 56.032C89.8273 56.032 91.5472 56.2272 92.7348 56.4657C94.2363 56.7672 95.1136 56.7765 95.6146 56.4961C96.261 56.1343 96.2157 56.0654 95.1735 55.8253C94.5347 55.6781 93.2412 55.3072 92.2991 55.0012C91.357 54.6951 89.8204 54.3398 88.8845 54.2115C86.845 53.9319 86.4338 53.4659 87.7125 52.8833C88.4536 52.5456 89.2865 52.628 91.629 53.2707C95.1614 54.2398 97.8002 54.3293 98.4857 53.5034C98.9024 53.0013 98.754 52.9198 97.4234 52.9198C96.5727 52.9198 94.6702 52.4822 93.1955 51.9473C91.3385 51.2737 89.7134 50.9747 87.9096 50.9747C85.0079 50.9747 84.2356 50.494 86.0956 49.8456C87.9699 49.1922 90.6874 49.3345 93.2002 50.2177C95.5573 51.0462 97.349 51.098 97.5958 50.3449C97.6865 50.0682 97.369 49.9803 96.7238 50.1036C95.9591 50.2498 95.404 50.0018 94.47 49.0966C93.1024 47.771 90.3386 46.9271 85.9791 46.504C83.7592 46.2885 82.9719 46.4023 80.4243 47.3067C76.8225 48.5854 74.1181 50.7463 74.523 52.022C74.8573 53.0753 75.4329 53.2839 79.1928 53.7145C80.8844 53.9082 82.8579 54.2612 83.5783 54.499C84.8787 54.9282 84.8863 54.9446 84.6388 56.8101C84.4057 58.567 84.4494 58.7003 85.3106 58.8624C86.6039 59.1059 88.9004 58.7259 89.2366 58.2128ZM126.474 57.3676C126.092 56.9084 126.136 56.6435 126.695 56.0256C127.361 55.2902 127.362 55.1884 126.712 53.7475C125.45 50.9484 120.455 48.1789 118.265 49.0646C116.845 49.6393 116.754 50.3789 117.724 53.4889C118.773 56.853 119.782 57.7377 122.137 57.3611C123.136 57.2013 123.772 56.8921 123.772 56.5658C123.772 55.659 124.307 55.9844 125.523 57.631C126.362 58.7678 126.726 59.033 126.819 58.5756C126.89 58.2259 126.735 57.6823 126.474 57.3676ZM101.209 50.7441C101.209 49.9191 99.3618 46.0941 98.6969 45.5423C98.3668 45.2683 98.0967 44.7073 98.0967 44.2957C98.0967 43.8703 97.5923 43.261 96.9286 42.8845C96.2862 42.52 95.6656 41.9592 95.5495 41.6382C95.4335 41.3173 94.4651 40.3545 93.3977 39.4986C89.6673 36.5078 85.5452 30.6537 84.6455 27.0688C84.2004 25.2955 85.1718 25.9992 86.4315 28.3627C87.1014 29.6197 88.172 31.239 88.8105 31.9612L89.9714 33.2743L89.7241 31.7182C89.5881 30.8623 89.1518 29.4214 88.7546 28.5162C88.3401 27.5715 88.1875 26.7744 88.3963 26.6454C89.0189 26.2606 89.413 26.7652 90.3026 29.0857C92.3711 34.4814 93.1677 36.2202 94.032 37.2261C95.7473 39.2223 95.6005 38.2987 92.8164 29.5786C92.509 28.6157 92.2584 27.5216 92.2595 27.1472C92.2626 26.0794 93.2908 26.3507 93.7338 27.5362C94.5171 29.6325 94.6875 30.1973 95.4016 33.0627C95.7991 34.6581 96.5477 36.7588 97.0652 37.731C99.0743 41.5056 99.8583 42.799 100.139 42.8021C100.768 42.809 100.38 41.1532 99.3861 39.5881C98.8115 38.6831 98.2187 37.2423 98.0688 36.3864C97.3369 32.2086 96.4273 28.4238 95.7422 26.7063C94.8697 24.5187 94.7813 23.6107 95.463 23.8379C95.9385 23.9964 98.0527 29.6001 98.0816 30.7786C98.1535 33.7114 102.721 43.5833 104.007 43.5833C104.41 43.5833 104.27 41.105 103.704 38.2343C103.433 36.8586 103.882 36.587 104.842 37.5469C105.342 38.0466 106.604 41.6856 107.153 44.2089C107.534 45.961 105.8 47.036 104.71 45.723C104.176 45.0795 103.236 44.9761 102.45 45.4745C101.727 45.9328 103.446 46.9977 105.418 47.3129C106.685 47.5157 107.109 47.4082 107.811 46.7063C108.553 45.9645 108.631 45.5912 108.407 43.843C108.16 41.9187 107.678 40.0034 107.019 38.3316C104.231 31.2624 103.731 29.0188 104.998 29.2628C105.481 29.3558 105.751 29.9317 105.943 31.2752C106.092 32.3103 106.645 34.0588 107.174 35.1608C109.463 39.9291 109.768 40.6637 110.005 41.9898C110.44 44.4131 110.99 44.747 110.708 42.4163C110.442 40.2206 107.852 31.9057 106.799 29.8694C106.211 28.7326 106.339 27.3922 106.997 27.7987C107.321 27.999 109.858 34.1467 110.993 37.4809C111.27 38.2968 111.75 39.1721 112.058 39.426C112.54 39.8238 112.582 39.4663 112.362 36.8431C112.147 34.2793 111.795 33.1499 110.134 29.69C108.958 27.2387 108.304 25.4394 108.515 25.2294C108.949 24.7949 109.463 25.4264 110.155 27.2444C110.44 27.9933 111.288 29.4805 112.039 30.5494C113.083 32.0352 113.457 33.0222 113.628 34.7419C113.955 38.0315 114.615 37.694 114.714 34.1861C114.779 31.8985 114.669 31.158 114.239 30.9933C113.932 30.8753 113.156 29.622 112.515 28.2082C111.874 26.7944 110.647 24.73 109.789 23.6206C106.029 18.7592 105.291 18.2353 104.888 20.1448C104.481 22.0799 104.395 22.3612 103.547 24.5213C102.876 26.2319 102.705 27.4995 102.695 30.8429C102.684 34.583 102.61 35.0249 101.993 35.0249C101.157 35.0249 100.649 33.8199 99.8937 30.0382C98.9909 25.5203 95.696 19.3674 94.5565 20.0716C94.3467 20.2013 93.7443 20.9897 93.2179 21.8235C91.758 24.1362 91.0641 24.1718 83.3566 22.3289C80.4892 21.6432 80.1413 21.8578 80.486 24.0989C80.7336 25.7084 81.4089 27.1579 82.9843 29.4609C83.5986 30.359 84.207 31.8651 84.3362 32.8077C84.5365 34.2692 84.4391 34.6446 83.6746 35.3568C83.0829 35.9081 82.2743 36.1919 81.2955 36.1919C80.4643 36.1919 79.8128 36.3826 79.8128 36.6257C79.8128 37.0978 81.9278 39.1615 84.092 40.8012C84.8408 41.3685 85.6846 42.0513 85.967 42.3184C86.7401 43.0497 88.37 43.3511 88.8665 42.8546C89.5216 42.1995 90.5137 42.3205 92.1523 43.2553C94.9249 44.8371 95.5691 45.1346 96.2262 45.137C96.6719 45.1387 97.067 45.7361 97.45 46.9873C97.7979 48.1237 98.0313 48.4981 98.0562 47.9598C98.0785 47.4784 98.2656 47.0845 98.472 47.0845C99.0526 47.0845 99.639 48.4319 99.9059 50.3789C100.103 51.8151 100.248 52.0656 100.679 51.7085C100.97 51.4665 101.209 51.0325 101.209 50.7441ZM163.511 41.7355C164.476 40.5799 165.01 38.9585 165.438 35.8819C165.671 34.2074 166.257 32.1599 166.79 31.1582C167.308 30.1858 167.731 29.2251 167.731 29.0232C167.731 28.8213 168.112 28.251 168.577 27.7558C169.437 26.8402 170.454 26.5532 170.454 27.2261C170.454 28.0144 169.49 29.8033 168.726 30.4311C168.141 30.9119 167.803 31.9072 167.469 34.1268C167.219 35.7975 166.838 37.9523 166.624 38.9151C166.398 39.9271 166.379 40.8146 166.577 41.0188C167.064 41.5195 168.12 40.5437 168.12 39.5934C168.12 38.7586 168.776 36.1167 169.302 34.8304C169.477 34.4024 169.909 33.1353 170.262 32.0145C170.614 30.8937 171.059 29.8799 171.251 29.7615C171.442 29.6432 171.944 28.7658 172.366 27.8119C173.062 26.2387 173.303 26.0203 174.247 26.1029C174.736 26.1456 174.352 27.2201 173.152 29.1702C172.524 30.191 172.01 31.4087 172.01 31.8763C172.01 32.3438 171.578 33.5392 171.049 34.5326C170.498 35.5677 170.175 36.6865 170.292 37.1532C170.404 37.6011 170.225 38.4871 169.894 39.1221C169.563 39.7571 169.291 40.7081 169.29 41.2353C169.285 43.1806 170.415 41.1294 171.322 37.5483C171.808 35.6255 172.644 33.3521 173.178 32.4962C174.118 30.9911 175.477 27.2706 175.522 26.0774C175.535 25.7564 176.326 24.2684 177.282 22.7707C179.894 18.6748 179.943 18.4377 178.074 18.9067C177.304 19.0999 177.1 19.3432 177.267 19.8691C177.779 21.4829 173.758 25.1667 172.401 24.3275C171.855 23.9905 172.651 22.5762 173.386 22.5762C173.699 22.5762 173.955 22.4011 173.955 22.1872C173.955 21.4608 173.376 21.8002 171.128 23.8433C169.893 24.9651 168.337 26.3105 167.669 26.8331C165.687 28.3841 163.726 33.0042 163.458 36.7545C163.335 38.4777 163.021 40.27 162.76 40.7374C161.866 42.3364 162.408 43.0562 163.511 41.7355ZM154.88 40.1077C155.5 38.9494 155.361 38.7237 154.504 39.4986C153.671 40.253 153.491 40.8602 154.102 40.8602C154.308 40.8602 154.658 40.5216 154.88 40.1077ZM146.724 37.8298C146.724 36.8049 146.987 34.9582 147.308 33.7261C147.629 32.4939 147.895 31.1004 147.901 30.6294C147.906 30.1584 148.256 28.7393 148.679 27.4758C149.218 25.8636 149.447 24.1293 149.447 21.66C149.447 18.1147 148.928 17.3981 148.561 20.4366C148.293 22.6522 147.177 27.9726 146.643 29.5786C146.394 30.3274 146.156 32.078 146.113 33.4688C146.071 34.8595 145.906 36.829 145.746 37.8453C145.5 39.4128 145.552 39.6931 146.09 39.6931C146.588 39.6931 146.724 39.2928 146.724 37.8298ZM151.655 34.2468C152.866 30.774 153.315 25.8551 152.875 20.9043C152.65 18.3801 152.578 16.2035 152.714 16.0675C153.862 14.9194 154.907 23.9041 154.205 28.8866C153.477 34.0553 153.044 36.0678 152.34 37.551C151.637 39.0314 151.85 39.8256 152.698 38.8919C153.735 37.7514 155.696 32.5755 155.926 30.3715C156.197 27.7802 156.54 27.0137 157.235 27.4438C157.868 27.8345 157.45 33.2295 156.638 35.1748C155.957 36.8034 155.939 36.97 156.44 36.97C157.304 36.97 159.277 31.3045 159.285 28.8005C159.295 25.8701 157.799 20.8604 156.44 19.2695C156.075 18.8416 155.461 17.6162 155.077 16.5464C154.256 14.2607 152.359 12.0726 151.199 12.0726C150.227 12.0726 149.447 12.7641 149.447 13.6255C149.447 13.9661 148.674 15.004 147.728 15.932C146.767 16.8748 146.098 17.8521 146.212 18.1472C146.334 18.4651 146.017 18.8263 145.415 19.055C144.866 19.2639 143.899 20.1854 143.268 21.1028C142.636 22.0201 141.766 23.1289 141.335 23.5666C140.638 24.2732 140.619 24.4058 141.161 24.748C141.701 25.0886 141.716 25.5154 141.29 28.4258C140.661 32.73 140.827 34.2966 141.974 34.8648C142.463 35.1075 143.116 35.6366 143.425 36.0407C143.912 36.6783 144.038 36.6983 144.377 36.1919C144.591 35.871 144.77 35.0498 144.773 34.367C144.776 33.6843 144.954 33.0175 145.168 32.8853C145.382 32.753 145.557 32.0862 145.557 31.4035C145.558 30.1823 146.291 26.2142 147.081 23.1597C147.303 22.3039 147.488 20.8598 147.493 19.9507C147.501 18.5536 147.744 18.0483 149.067 16.6853C149.928 15.7984 150.759 15.2009 150.915 15.3575C151.489 15.9353 151.156 28.4954 150.484 31.6045C150.128 33.2537 149.847 35.7921 149.86 37.2453L149.884 39.8876L150.465 37.9425C150.784 36.8727 151.32 35.2097 151.655 34.2468ZM142.445 31.7802C142.445 29.6875 143.857 22.7962 144.495 21.7742C145.082 20.8345 145.68 20.7863 145.404 21.7009C144.921 23.3026 144.002 28.308 144.001 29.3389C144.001 30.7757 143.199 33.4688 142.772 33.4688C142.592 33.4688 142.445 32.7089 142.445 31.7802ZM161.549 37.1645C162.448 33.499 163.979 29.4742 164.882 28.4005C165.852 27.2481 166.004 26.6472 165.418 26.285C165.216 26.16 164.369 27.0687 163.535 28.3044C161.927 30.6891 159.715 37.8487 160.198 39.1066C160.553 40.0323 161.005 39.3823 161.549 37.1645ZM135.054 38.8071C135.054 38.5338 134.816 37.9649 134.526 37.5428C133.601 36.1961 132.381 31.8404 131.791 27.7781C130.927 21.827 128.184 16.4734 125.25 15.0096C123.741 14.2566 123.138 14.2485 122.858 14.9774C122.597 15.6577 123.573 19.1059 124.568 21.0186C124.958 21.7683 125.484 23.432 125.738 24.7158C126.546 28.8068 128.002 33.2085 129.277 35.4139C130.585 37.6766 131.174 37.5066 130.445 35.0771C128.838 29.7283 128.073 26.7948 127.843 25.1048C127.697 24.035 127.338 22.7779 127.045 22.3112C126.139 20.8679 124.935 17.3675 125.24 17.0626C126.414 15.8883 128.904 21.4778 130.381 28.606C131.186 32.4917 132.424 36.3038 133.38 37.8453C134.285 39.303 135.054 39.745 135.054 38.8071ZM127.674 36.2136C127.198 35.3243 126.495 34.8149 126.495 35.3591C126.495 36.1855 126.996 36.97 127.523 36.97C127.953 36.97 127.987 36.7986 127.674 36.2136ZM136.999 36.1773C136.999 35.9552 136.392 34.2032 135.651 32.2838C134.91 30.3644 133.946 27.2906 133.51 25.4532C133.073 23.6158 132.534 21.8229 132.31 21.469C131.96 20.9141 131.931 20.9326 132.1 21.6036C133.006 25.2107 133.178 26.1372 132.979 26.3362C132.853 26.4622 133.006 27.1771 133.318 27.9249C133.631 28.6727 133.886 29.6446 133.886 30.0847C133.886 31.3401 135.14 34.9723 135.96 36.0947C136.392 36.6845 136.999 36.7328 136.999 36.1773ZM139.602 33.5734C139.504 33.1949 139.416 33.4104 139.409 34.0523C139.401 34.6942 139.481 35.0039 139.588 34.7405C139.694 34.4771 139.701 33.9519 139.602 33.5734ZM140.111 31.3559C140.111 31.102 139.854 30.5545 139.54 30.1392C139.009 29.4377 138.968 29.5049 138.956 31.085C138.945 32.5536 139.023 32.7198 139.527 32.3017C139.848 32.0354 140.111 31.6097 140.111 31.3559ZM124.986 29.2104C124.757 28.4501 124.376 26.7776 124.14 25.4938C123.557 22.328 122.933 20.2421 122.57 20.2421C122.054 20.2421 121.757 21.7568 122.015 23.0712C122.904 27.6126 124.044 31.2773 124.807 32.0469C125.326 32.5696 125.442 30.7256 124.986 29.2104Z" fill="#E3A3C7"/>
<circle cx="244.286" cy="246.429" r="53.5714" fill="#F64C72"/>
<circle cx="55.7145" cy="246.429" r="53.5714" fill="#D567A4"/>
<path d="M62.78 262V213.4H73.94C76.14 213.4 78.04 213.64 79.64 214.12C81.28 214.6 82.64 215.34 83.72 216.34C84.8 217.34 85.6 218.62 86.12 220.18C86.64 221.7 86.9 223.5 86.9 225.58C86.9 227.58 86.64 229.32 86.12 230.8C85.64 232.24 84.88 233.38 83.84 234.22C82.84 235.06 81.54 235.6 79.94 235.84C81.9 236.28 83.48 237.04 84.68 238.12C85.88 239.16 86.76 240.52 87.32 242.2C87.92 243.84 88.22 245.82 88.22 248.14C88.22 250.22 87.98 252.12 87.5 253.84C87.02 255.56 86.26 257.02 85.22 258.22C84.22 259.42 82.92 260.36 81.32 261.04C79.76 261.68 77.9 262 75.74 262H62.78ZM69.56 257.14H74.12C77.16 257.14 79.18 256.44 80.18 255.04C81.22 253.6 81.74 251.3 81.74 248.14C81.74 246.1 81.46 244.4 80.9 243.04C80.38 241.64 79.52 240.6 78.32 239.92C77.16 239.2 75.58 238.84 73.58 238.84H69.56V257.14ZM69.56 233.68H73.58C75.5 233.68 77 233.42 78.08 232.9C79.16 232.34 79.92 231.46 80.36 230.26C80.8 229.06 81.02 227.5 81.02 225.58C81.02 223.34 80.68 221.72 80 220.72C79.32 219.72 78.26 219.1 76.82 218.86C75.38 218.58 73.5 218.44 71.18 218.44H69.56V233.68ZM101.445 262V213.4H120.285V218.44H108.225V234.52H118.005V239.32H108.225V257.14H120.405V262H101.445ZM133.078 262V213.4H139.858V257.14H152.278V262H133.078ZM164.486 262V213.4H171.146V262H164.486ZM186.209 262V213.4H205.049V218.44H192.989V234.52H202.769V239.32H192.989V257.14H205.169V262H186.209ZM217.843 262V213.4H236.623V218.26H224.623V234.46H233.923V239.26H224.623V262H217.843Z" fill="#FFE4EE"/>
</svg>
