<svg width="144" height="145" viewBox="0 0 144 145" fill="none" xmlns="http://www.w3.org/2000/svg">
<path d="M2 1.5C1.44772 1.5 1 1.94772 1 2.5V16.5C1 17.0523 1.44772 17.5 2 17.5V22.5C1.44772 22.5 1 22.9477 1 23.5V51.5C1 52.0523 1.44772 52.5 2 52.5V57.5C1.44772 57.5 1 57.9477 1 58.5V86.5C1 87.0523 1.44772 87.5 2 87.5V92.5C1.44772 92.5 1 92.9477 1 93.5V121.5C1 122.052 1.44772 122.5 2 122.5V127.5C1.44772 127.5 1 127.948 1 128.5V142.5C1 143.052 1.44772 143.5 2 143.5H16C16.5523 143.5 17 143.052 17 142.5H22C22 143.052 22.4477 143.5 23 143.5H51C51.5523 143.5 52 143.052 52 142.5H57C57 143.052 57.4477 143.5 58 143.5H86C86.5523 143.5 87 143.052 87 142.5H92C92 143.052 92.4477 143.5 93 143.5H121C121.552 143.5 122 143.052 122 142.5H127C127 143.052 127.448 143.5 128 143.5H142C142.552 143.5 143 143.052 143 142.5V128.5C143 127.948 142.552 127.5 142 127.5V122.5C142.552 122.5 143 122.052 143 121.5V93.5C143 92.9477 142.552 92.5 142 92.5V87.5C142.552 87.5 143 87.0523 143 86.5V72.5C143 67.4377 142.47 62.4981 141.462 57.734C141.348 57.1937 140.817 56.8483 140.277 56.9626C140.275 56.9631 140.272 56.9636 140.27 56.9641C139.875 55.2221 139.415 53.5046 138.893 51.8145C138.896 51.8138 138.898 51.8131 138.9 51.8123C139.425 51.6418 139.713 51.0777 139.542 50.5524C136.434 40.9783 131.346 32.2973 124.764 24.9914C124.394 24.5811 123.762 24.5481 123.351 24.9178C123.35 24.9194 123.348 24.921 123.346 24.9226C122.138 23.6193 120.881 22.362 119.577 21.1538C119.579 21.152 119.581 21.1503 119.582 21.1485C119.952 20.7382 119.919 20.1059 119.509 19.7362C112.203 13.1538 103.522 8.06645 93.9476 4.95752C93.4223 4.78695 92.8582 5.0745 92.6876 5.59978C92.6869 5.60207 92.6862 5.60435 92.6854 5.60664C90.9954 5.08461 89.2779 4.62487 87.5359 4.2301C87.5364 4.22777 87.5369 4.22542 87.5374 4.22308C87.6517 3.68275 87.3063 3.15207 86.766 3.03777C82.0019 2.02996 77.0623 1.5 72 1.5H58C57.4477 1.5 57 1.94772 57 2.5H52C52 1.94772 51.5523 1.5 51 1.5H23C22.4477 1.5 22 1.94772 22 2.5H17C17 1.94772 16.5523 1.5 16 1.5H2Z" fill="#E97D95" fill-opacity="0.51" stroke="#DA5C86" stroke-width="2" stroke-linecap="round" stroke-linejoin="round" stroke-dasharray="32 8"/>
<path d="M98.8457 93.1648L97.816 89.2321L97.9035 77.3265L98.4689 72.7882L98.8457 63.1673C97.1983 63.2973 95.9961 62.876 93.1925 64.438L89.6121 66.7979L82.4514 71.6991C81.3173 72.1593 81.0549 72.5355 78.3058 73.1513L76.5183 72.9545L71.7103 72.4252L66.0571 71.336C65.448 71.2445 64.852 71.1273 64.0737 71.3672C62.9331 71.7631 62.2426 72.0287 61.546 72.6809C61.0146 72.9952 60.054 73.2118 59.8387 74.0589C59.5877 74.4622 59.208 74.9068 59.4618 75.1481C60.8963 78.0454 63.3546 79.6279 65.3034 81.8647L70.0145 89.4887L72.4642 93.3008C73.3436 94.8652 74.2229 94.8261 75.1023 95.4791C78.8082 97.0123 82.5143 98.2239 86.2202 98.5652L88.8583 98.7467C90.7359 98.5352 92.4995 97.9173 93.5255 96.9314C95.7624 95.0303 98.2179 94.2356 98.8456 93.1646L98.8457 93.1648Z" fill="url(#paint0_linear_812_28)" stroke="#553D67" stroke-width="0.81238"/>
<path d="M98.8921 93.3912C101.472 93.3793 101.662 91.7043 102.425 90.9406C104.635 90.1782 105.509 87.5124 106.382 85.4947C107.366 82.5136 108.509 79.5631 108.644 76.4183C109.08 74.705 108.681 73.26 108.644 71.6985C108.032 69.3739 107.15 67.1355 106.006 64.982C104.459 62.2555 104.394 59.1608 101.628 56.6207C101.321 54.3919 101.68 52.3611 100.541 49.9153C98.4053 48.7652 96.2696 46.8298 94.134 46.194C92.3911 44.6767 91.6158 45.6064 90.3652 45.1956L97.149 51.7307L99.3655 56.4294C99.0067 59.9591 98.4061 63.3844 98.567 67.4064C97.8487 72.7502 96.934 78.0559 97.0595 83.5624L97.7809 89.2631L98.8921 93.3912Z" fill="url(#paint1_linear_812_28)" stroke="#553D67" stroke-width="0.81238"/>
<path d="M90.3652 45.1948L97.0548 51.7299L99.4103 55.9959C99.5532 56.867 98.9658 60.5524 98.6565 63.1662L96.1596 63.3931C95.6326 63.4987 94.8437 63.6494 94.1339 63.8923L91.4958 65.5261L94.7935 58.9912L95.6415 56.6313L96.4895 53.0915L90.3652 45.1948Z" fill="url(#paint2_linear_812_28)" stroke="#553D67" stroke-width="0.81238"/>
<path d="M79.1875 97.0571L77.1889 99.6244C76.7031 100.134 76.107 100.487 74.9237 100.009L72.6585 94.4901L70.0601 89.5482L73.4464 94.2631L76.3226 95.9019L79.1875 97.0571Z" fill="url(#paint3_linear_812_28)" stroke="#553D67" stroke-width="0.81238"/>
<path d="M74.3751 98.9207L71.9455 98.8259C66.6767 96.2587 58.8498 78.8663 66.8903 93.8862L63.6924 87.8534L61.1608 84.0026L59.1621 76.8145L62.7598 80.9219L66.6239 84.9011L68.8891 87.4683L71.8205 92.8594L74.3751 98.9207Z" fill="url(#paint4_linear_812_28)" stroke="#553D67" stroke-width="0.81238"/>
<path d="M67.9428 86.2211L64.0798 82.4998L58.992 76.8724L57.0133 73.7863L53.9431 68.2608L51.5486 66.8884L50.6064 65.3454V64.8916L53.2446 62.9854L54.8463 60.7163L55.6943 60.081L57.5788 56.7227L59.3689 54.4536L60.8764 53.7275L62.6666 52.5476L66.5296 51.1407L68.6967 49.2801L70.7224 46.4665L72.6069 42.5182L73.7846 42.4728C74.8137 42.3449 75.0319 42.8865 75.1979 43.4712L77.5534 44.8327L80.9454 45.0142L84.8083 45.9219C83.958 46.5354 83.3233 47.4813 81.8876 47.1926L78.4957 48.191L76.8939 49.1894L73.3136 49.8247H70.6754L68.5083 51.0954L66.4354 53.6368L64.551 56.3596L63.2319 57.7211L60.7822 57.6303L60.4053 58.8102L60.8764 59.1733L62.9493 59.9902L62.8551 61.0793L62.1955 63.8022V66.7975L62.5724 69.9743L62.5253 72.0164L59.9342 73.6955L59.1804 74.8755L60.4053 76.7816L65.1163 81.6828L67.9428 86.2211Z" fill="url(#paint5_linear_812_28)" stroke="#553D67" stroke-width="0.81238"/>
<path d="M86.0319 68.7036L86.503 63.167V58.901L86.1261 53.5459L85.3017 50.4372L84.5244 49.1892L84.6186 47.9185L86.2204 46.3755L86.4088 45.1956L87.4452 45.9217L88.9527 49.7337L90.4602 52.0936L93.4752 55.5426L95.2654 57.2671L94.6058 59.4455L92.6271 62.9853L91.4965 65.4359L86.5971 68.7034L86.0319 68.7036Z" fill="url(#paint6_linear_812_28)" stroke="#553D67" stroke-width="0.81238"/>
<path d="M62.8538 61.4418L66.34 68.3399L66.1515 71.2442L64.7382 71.1534L63.6076 71.4711L62.477 71.9703L62.0059 63.5293L62.8538 61.4418Z" fill="url(#paint7_linear_812_28)" stroke="#553D67" stroke-width="0.81238"/>
<path d="M85.1368 69.7926L80.7556 66.8428L78.1174 65.4359L72.5584 63.8022L68.6954 62.713L69.0723 61.4423L67.8474 54.3627V52.729L69.3549 53.9089L72.9353 59.8086L74.0659 55.4518L76.0446 51.9121L78.3059 49.5522L80.1904 48.6445H81.8864L84.8543 51.4582L85.4196 50.8682L84.6188 49.4614L84.4303 48.0999L86.2205 46.2845L86.3147 45.2861L83.2054 46.9199L79.3424 48.0998L78.2117 48.1906L76.7984 49.189L74.1603 49.6428L70.8626 49.8243L68.3186 51.1858L66.2457 53.6364L64.3613 56.5408L63.2306 57.6299H60.7809C60.5804 57.7563 60.379 57.8812 60.2651 58.1745C60.0602 58.6586 60.2715 58.8419 60.4041 59.0822L62.948 59.9898V61.8052L66.3399 68.6125L66.2457 71.2446L70.5799 72.1522L77.2694 72.9691L78.2116 73.2414L81.2266 72.243L83.5821 70.7908L85.1368 69.7926Z" fill="url(#paint8_linear_812_28)" stroke="#553D67" stroke-width="0.81238"/>
<path d="M69.2131 61.352C69.7927 60.6535 71.1429 61.1967 72.181 61.1704L75.3845 60.4897L79.6715 58.8559L83.2989 59.3551L84.3353 59.3098L86.4082 56.9954L86.5024 59.2645L86.3421 63.1647L86.1256 68.4315L86.6909 68.7038L84.7122 70.156L84.3353 69.2483L78.0226 65.4363L68.6006 62.8042L69.2131 61.352Z" fill="url(#paint9_linear_812_28)" stroke="#553D67" stroke-width="0.81238"/>
<path d="M68.9778 61.8964L67.6587 54.4539L67.9413 52.6385L69.5431 53.8184L72.8408 59.8088L74.1599 55.3614L76.1386 51.9123L78.3057 49.371L80.2844 48.5541L81.8861 48.7356L84.6184 51.3677L85.0895 51.4131L83.9589 53.183H82.9225C81.9563 52.7292 84.3214 53.8437 83.111 53.0922L80.096 51.2769L77.7405 53.183L76.3272 55.7243L75.2908 58.8104V60.6257L75.1966 60.7165L71.051 61.2611L69.6377 61.0795L68.9778 61.8964Z" fill="url(#paint10_linear_812_28)" stroke="#553D67" stroke-width="0.81238"/>
<path d="M77.4585 54.1818L77.647 55.9063L78.8718 57.3585L81.2273 57.4493L83.1118 56.9955L83.7713 53.5465L85.326 50.6874L86.1268 53.365L86.4095 56.9955L84.3366 59.3554L79.5314 58.9015L76.9875 60.263L75.3857 60.5353L75.2915 58.6292L76.6106 55.0894L77.4585 54.1818Z" fill="url(#paint11_linear_812_28)" stroke="#553D67" stroke-width="0.81238"/>
<path d="M77.9995 56.4047C77.9995 56.4047 79.3893 55.3609 79.3893 54.9979C79.3893 54.6348 80.1901 54.9525 80.1901 54.9525L81.7919 53.3641L82.6398 52.8195L83.8176 53.2733L83.0167 56.9039L81.6505 57.4031C81.0751 57.8019 79.719 57.3728 78.824 57.4485L77.9995 56.4047Z" fill="url(#paint12_linear_812_28)" stroke="#553D67" stroke-width="0.81238"/>
<path d="M77.0815 54.0901L77.6469 56.1777L78.4006 56.3593L79.3428 54.9978L80.0024 55.2701L81.6041 53.5456L82.7347 52.7287L80.1908 51.3672L78.1651 52.5472L77.0815 54.0901Z" fill="url(#paint13_linear_812_28)" stroke="#553D67" stroke-width="0.81238"/>
<path d="M63.7136 52.1098L63.5723 49.466L70.5173 44.3614L72.7906 41.2211L73.4568 38.6538L74.7893 37.7553L77.3209 37.3702L79.7193 39.1673H80.7853L81.718 40.8359L83.9832 41.6061L89.7128 44.6867L96.4417 53.0302C96.4138 54.7694 95.9334 56.0875 95.4309 57.2307C93.1513 56.104 90.4856 53.1802 89.1835 50.3319L87.318 46.2245L86.5186 45.0692L85.0529 45.8394L80.256 44.8125H77.1913L74.5263 42.6304L73.5936 42.3736L72.5276 42.502L70.7954 46.4812L68.5302 49.4335L65.8652 51.7439L64.8772 51.7362L63.7136 52.1098Z" fill="url(#paint14_linear_812_28)" stroke="#553D67" stroke-width="0.81238"/>
<path d="M82.1104 40.9502L83.4509 39.1675L87.1738 38.5101L89.3138 37.2421L90.5131 35.1882L94.7769 36.2151L102.772 40.7077L107.835 43.2749L110.9 46.7407L114.098 52.5169L117.296 59.3199L118.495 64.9678L118.362 68.6901L116.097 72.541L113.032 75.4933L109.967 76.7769L108.501 77.9322L108.901 74.5949L108.635 71.5143L107.2 67.5428L105.437 63.8125L103.305 58.6783L101.606 56.5283L101.07 51.7547L100.326 50.2001C99.2987 49.2411 97.743 48.0552 96.1092 47.0961L93.9772 46.1068L91.9396 45.3444H90.451L87.9811 43.7885L84.3834 41.7347L82.1104 40.9502Z" fill="url(#paint15_linear_812_28)" stroke="#553D67" stroke-width="0.81238"/>
<path d="M51.5469 64.1643V61.3507L52.6775 58.4463L53.8081 54.0896L57.3885 50.8221L58.5663 49.6875L60.4035 45.0585L61.44 43.0164L63.6071 42.1995L66.4336 43.3795H69.6371L71.5216 43.7425L67.5644 46.8285L63.6072 49.5514V52.2743L61.1575 53.545L59.0846 54.6341L56.2581 59.0816L55.5043 60.4431L53.196 63.1206L51.5469 64.1643Z" fill="url(#paint16_linear_812_28)" stroke="#553D67" stroke-width="0.81238"/>
<path d="M105.065 41.9278L103.558 38.6603L102.239 35.5743L98.8466 32.3067L94.1356 28.8577L89.99 27.0423L86.0328 25.7716L81.3218 25.5901L78.1182 26.3162L75.8569 27.4054L73.4072 30.4914L71.5227 32.3068L70.3921 35.0296L75.2915 37.3895L75.723 37.6903L77.322 37.3694L79.8894 39.1367L80.7865 38.9739L81.8403 40.7781C82.7362 41.1758 82.9588 39.6609 83.518 39.1024L87.0491 38.7173L89.1812 37.3053L90.6038 35.3728L94.9539 36.3958L105.065 41.9278Z" fill="url(#paint17_linear_812_28)" stroke="#553D67" stroke-width="0.81238"/>
<path d="M75.7624 37.5719L70.015 34.6675L69.167 34.1229L68.7901 33.7599L68.1306 33.306H67.2826L66.3404 33.9414L60.4987 35.8475L57.8606 36.3921L56.0704 37.4812L53.6207 38.3889L51.4536 39.9319L49.9461 42.201L49.0981 44.7423L49.0039 46.2853L49.1924 47.6468L49.0981 49.8251L49.5692 51.4589L50.8883 53.728L52.6785 58.4477L53.8091 54.3634L55.034 53.0019L58.8969 49.5529L60.1218 45.9224L61.4409 43.1088L63.608 42.2919L65.1155 42.9272L66.3404 43.381H69.4497L70.9572 43.4718L71.4283 43.5626L72.6532 41.6565L73.4069 38.9336L74.1136 38.3436L75.7624 37.5719Z" fill="url(#paint18_linear_812_28)" stroke="#553D67" stroke-width="0.81238"/>
<path d="M112.602 49.7341L113.544 49.6434L117.124 49.8249L119.951 49.4619L122.118 50.0972L128.242 52.0033L131.728 53.7278C133.39 54.4479 133.377 55.0396 133.236 55.5432L132.576 56.2693L130.88 57.6307L130.221 57.903C129.781 58.5081 129.781 58.8712 130.221 58.9922L132.011 59.3552L133.801 59.446L135.497 59.8998C136.461 60.0859 136.76 60.5923 136.722 61.2613L135.12 61.5335L134.932 62.1235L135.968 62.3504L136.722 62.532L137.758 62.895C138.458 63.2278 138.397 63.5606 138.229 63.8934L136.863 64.5287L135.403 65.5271L135.026 66.8886L135.497 68.3408L131.351 65.9809L130.692 65.4364L129.279 65.1641L127.394 64.2564L125.51 64.5287L123.154 65.4364L121.175 66.707L120.045 67.7962L118.443 68.7946V64.5741L117.359 59.4459L115.381 55.3162L112.602 49.7341Z" fill="url(#paint19_linear_812_28)" stroke="#553D67" stroke-width="0.81238"/>
<path d="M92.9228 99.652L91.6845 102.423L90.0923 104.756L90.8608 107.014L91.2848 108.327L91.9672 109.37L94.2162 109.611C95.0157 109.643 95.8151 110.115 96.6146 109.611L99.1462 109.226H101.278L106.475 107.942L115.003 106.017L119.533 104.476L123.131 103.835L127.661 100.754L130.326 96.5182L132.858 93.3093L134.99 91.5122L135.923 89.8436V88.0465L134.857 87.5331L133.924 87.4047L135.523 83.939L136.722 81.1151L138.587 78.1628L140.053 75.0821L139.92 73.7986L138.587 72.0015L137.655 70.2045L134.723 68.9209L131.22 68.3465L130.193 66.6104L128.327 65.8403L127.261 65.9686L124.635 66.6169L122.253 68.3465L120.599 69.5769L119.4 70.4612L117.268 74.3121L114.47 77.0076L112.737 77.7778L111.272 78.1628L109.673 79.7031L109.14 82.527L107.408 87.7898L105.409 91.1271L101.678 94.2077L100.212 94.7211L97.6808 96.5182L95.2824 97.8692L93.9109 99.0698L92.9228 99.652Z" fill="#88528C" stroke="#88528C" stroke-width="0.81238"/>
<path d="M66.137 95.402L61.4156 96.1926L54.4481 97.7737L51.3311 99.1792L50.0476 99.8819L47.8473 101.639C46.0027 102.959 45.0656 104.062 44.1802 105.152C43.0232 106.653 43.3628 107.197 43.6302 107.787L42.7134 109.017L41.7966 110.247L39.9631 113.936C39.0676 115.073 38.8284 116.21 39.6593 117.347L41.0632 119.207L43.4469 122.896L46.7472 126.761L51.3312 130.977L52.7018 132.558C53.8716 133.703 54.5021 133.555 55.3651 133.964L57.9321 135.545L60.4992 138.883L63.2496 137.829L68.9336 140.464L75.9011 141.518L81.7685 140.64L85.4356 138.707L88.736 136.599L90.3862 135.018L92.4031 132.383L93.6866 129.923L96.5036 119.686L97.4198 116.153L97.0526 112.768L94.7868 111.125L91.8532 110.95L90.3863 110.774L89.8363 109.896L89.2862 107.612L88.5528 106.558L88.2214 104.936L88.5966 101.548L89.1029 101.99L86.0316 101.683L79.0182 100.365L77.5514 102.122L76.6346 102.342C75.4167 102.372 73.6247 101.979 71.959 101.902C70.3852 100.277 69.5097 98.7644 67.146 97.2908C67.2675 95.9947 66.3361 96.0757 66.1375 95.4023L66.137 95.402Z" fill="#88528C" stroke="#88528C" stroke-width="0.788334"/>
<path d="M50.6051 65.1634L49.0976 64.9819L47.0247 64.8004L45.8941 64.6188C44.0484 65.0271 43.7292 66.0235 43.0676 66.8879C42.7238 66.8039 42.4956 67.4521 39.4872 69.7016L37.7912 71.1538L35.5299 71.3353L34.2108 70.9723C33.7712 70.5165 33.3315 70.6423 32.8918 71.1538L32.138 72.606C31.0635 74.5874 30.7014 76.3726 31.3843 77.8702L31.0074 80.2301C30.9525 82.3932 31.1919 83.9891 32.138 84.2236L31.7611 85.1313C31.7761 88.0213 33.8355 88.9419 34.9647 90.7587L38.1682 93.8447C38.9203 94.7912 39.8125 95.1772 40.6959 95.5977C42.6906 96.0858 42.2688 96.1135 43.0926 96.2738L45.5172 96.7491C46.687 96.6639 47.0939 96.3288 47.5901 96.023C48.7207 96.0915 49.8514 95.9329 50.982 95.66L55.693 94.0262L62.8538 92.3925L65.6803 91.8025L63.9843 88.7619L61.1578 83.906L59.2733 77.5071L55.3941 70.7586L53.997 68.2492L51.6887 66.9785L50.6051 65.1634Z" fill="url(#paint20_linear_812_28)" stroke="#553D67" stroke-width="0.81238"/>
<path d="M65.9578 91.8638L61.1056 92.6806L53.9448 94.3144L50.7413 95.7666L49.4222 96.4927L47.1609 98.3081C45.2652 99.6723 44.3021 100.812 43.3921 101.939C42.2031 103.489 42.5521 104.051 42.8268 104.661L41.8846 105.932L40.9424 107.203L39.0579 111.015C38.1376 112.19 37.8918 113.364 38.7457 114.539L40.1886 116.461L42.6383 120.273L46.0302 124.266L50.7412 128.623L52.1498 130.257C53.3521 131.439 54.0001 131.286 54.887 131.709L57.5251 133.343L60.1632 136.792L62.9898 135.703L68.8314 138.425L75.9922 139.515L82.0222 138.607L85.791 136.61L89.183 134.432L90.8789 132.798L92.9518 130.075L94.2709 127.534L97.0974 116.824L97.2859 114.101L96.1553 110.47L95.4015 108.11L92.3866 107.929L90.879 107.747L90.3137 106.84L89.7484 104.48L88.9947 103.391L91.256 100.123L91.9155 98.0809L89.56 98.6709L86.4036 98.3532L79.1959 96.9917L77.6884 98.8071L76.7462 99.034C75.4946 99.0654 73.6529 98.6597 71.941 98.5802C70.3235 96.9011 69.4237 95.3378 66.9943 93.8152C67.1193 92.4759 66.1619 92.5596 65.9578 91.8638Z" fill="url(#paint21_linear_812_28)" stroke="#553D67" stroke-width="0.81238"/>
<path d="M91.7255 98.0599C90.8117 99.2248 90.8022 99.9542 90.4873 100.831C89.9565 101.385 89.4258 101.622 88.895 103.164C88.9598 104.259 89.0725 104.271 90.1966 105.382C90.0311 106.144 89.9679 106.134 90.0875 106.735C90.3997 107.572 90.5569 107.513 90.7699 107.777C91.78 108.359 92.3026 108.002 93.0189 108.019C93.8184 108.051 94.6179 108.523 95.4173 108.019L97.949 107.633H100.081L105.278 106.35L113.805 104.425L118.336 102.884L122.015 102.084C124.184 101.655 125.226 100.331 126.464 99.1618L129.129 94.926L131.66 91.717L133.792 89.92L134.725 88.2513L134.561 86.9283L133.659 85.9409L133.136 85.4965L134.325 82.3469L135.525 79.523L137.39 76.5707L138.856 73.49L138.722 72.2064L138.046 70.3303L136.457 68.6123L133.526 67.3287L130.689 65.3424L128.996 65.0183L127.13 64.2482L126.064 64.3765C124.541 64.0933 123.877 64.4722 123.438 65.0248C122.768 65.4172 122.425 65.3244 121.056 66.7544L119.402 67.9848L118.203 68.8691L116.071 72.72L113.272 75.4155L111.54 76.1857L110.074 76.5707L108.476 78.1111L107.943 80.9349L106.21 86.1977L104.212 89.5349L100.481 92.6156L99.0151 93.129L96.4834 94.9261L94.085 96.2771L92.7135 97.4777L91.7255 98.0599Z" fill="url(#paint22_linear_812_28)" stroke="#553D67" stroke-width="0.81238"/>
<path d="M6.26452 36V10.89H9.76752V21.74H16.2155V10.89H19.7185V36H16.2155V24.251H9.76752V36H6.26452ZM8.64099 65V39.89H18.375V42.494H12.144V50.802H17.197V53.282H12.144V62.489H18.437V65H8.64099ZM5.96009 94L11.2921 68.89H14.6711L20.0341 94H16.7171L15.5701 87.676H10.4551L9.24609 94H5.96009ZM10.9201 85.165H15.1051L12.9971 73.85L10.9201 85.165ZM8.79236 123V97.89H12.2954V120.489H18.7124V123H8.79236Z" fill="#613861"/>
<defs>
<linearGradient id="paint0_linear_812_28" x1="89.8955" y1="98.0185" x2="73.4817" y2="53.3188" gradientUnits="userSpaceOnUse">
<stop stop-color="#FF83EE"/>
<stop offset="1" stop-color="#FFE4EE"/>
</linearGradient>
<linearGradient id="paint1_linear_812_28" x1="90.272" y1="69.1565" x2="108.738" y2="69.1565" gradientUnits="userSpaceOnUse">
<stop stop-color="#FF83EE"/>
<stop offset="1" stop-color="#FFE4EE"/>
</linearGradient>
<linearGradient id="paint2_linear_812_28" x1="90.2721" y1="55.3606" x2="99.5043" y2="55.3606" gradientUnits="userSpaceOnUse">
<stop stop-color="#F56695"/>
<stop offset="1" stop-color="#FFE4EE"/>
</linearGradient>
<linearGradient id="paint3_linear_812_28" x1="70.1664" y1="95.1307" x2="79.281" y2="95.1307" gradientUnits="userSpaceOnUse">
<stop stop-color="#FF83EE"/>
<stop offset="1" stop-color="#FFE4EE"/>
</linearGradient>
<linearGradient id="paint4_linear_812_28" x1="59.0683" y1="88.3667" x2="74.8444" y2="88.3667" gradientUnits="userSpaceOnUse">
<stop stop-color="#FF83EE"/>
<stop offset="1" stop-color="#FFE4EE"/>
</linearGradient>
<linearGradient id="paint5_linear_812_28" x1="50.5122" y1="64.3458" x2="84.9" y2="64.3458" gradientUnits="userSpaceOnUse">
<stop stop-color="#FF83EE"/>
<stop offset="1" stop-color="#FFE4EE"/>
</linearGradient>
<linearGradient id="paint6_linear_812_28" x1="84.4316" y1="56.9492" x2="95.3594" y2="56.9492" gradientUnits="userSpaceOnUse">
<stop stop-color="#F56695"/>
<stop offset="1" stop-color="#FFE4EE"/>
</linearGradient>
<linearGradient id="paint7_linear_812_28" x1="61.9138" y1="66.7053" x2="66.2454" y2="66.7053" gradientUnits="userSpaceOnUse">
<stop stop-color="#F56695"/>
<stop offset="1" stop-color="#FFE4EE"/>
</linearGradient>
<linearGradient id="paint8_linear_812_28" x1="60.3115" y1="59.2638" x2="86.4092" y2="59.2638" gradientUnits="userSpaceOnUse">
<stop stop-color="#F56695"/>
<stop offset="1" stop-color="#FFE4EE"/>
</linearGradient>
<linearGradient id="paint9_linear_812_28" x1="68.5081" y1="63.7564" x2="86.7858" y2="63.7564" gradientUnits="userSpaceOnUse">
<stop stop-color="#FF83EE"/>
<stop offset="1" stop-color="#FFE4EE"/>
</linearGradient>
<linearGradient id="paint10_linear_812_28" x1="67.5658" y1="55.2241" x2="84.8063" y2="55.2241" gradientUnits="userSpaceOnUse">
<stop stop-color="#FF83EE"/>
<stop offset="1" stop-color="#FFE4EE"/>
</linearGradient>
<linearGradient id="paint11_linear_812_28" x1="75.1978" y1="55.7237" x2="82.7771" y2="60.2343" gradientUnits="userSpaceOnUse">
<stop stop-color="#FF83EE"/>
<stop offset="1" stop-color="#FFE4EE"/>
</linearGradient>
<linearGradient id="paint12_linear_812_28" x1="78.2124" y1="55.1342" x2="83.6763" y2="55.1342" gradientUnits="userSpaceOnUse">
<stop stop-color="#FF83EE"/>
<stop offset="1" stop-color="#FFE4EE"/>
</linearGradient>
<linearGradient id="paint13_linear_812_28" x1="76.9885" y1="53.8619" x2="82.8273" y2="53.8619" gradientUnits="userSpaceOnUse">
<stop stop-color="#F56695"/>
<stop offset="1" stop-color="#FFE4EE"/>
</linearGradient>
<linearGradient id="paint14_linear_812_28" x1="89.4869" y1="59.5747" x2="70.5253" y2="36.924" gradientUnits="userSpaceOnUse">
<stop stop-color="#F56695"/>
<stop offset="1" stop-color="white"/>
</linearGradient>
<linearGradient id="paint15_linear_812_28" x1="82.1572" y1="56.5592" x2="118.588" y2="56.5592" gradientUnits="userSpaceOnUse">
<stop stop-color="#FF8BB1"/>
<stop offset="1" stop-color="#FFE4EE"/>
</linearGradient>
<linearGradient id="paint16_linear_812_28" x1="51.2654" y1="53.1826" x2="71.6156" y2="53.1826" gradientUnits="userSpaceOnUse">
<stop stop-color="#FF8BB1"/>
<stop offset="1" stop-color="#FFE4EE"/>
</linearGradient>
<linearGradient id="paint17_linear_812_28" x1="70.2989" y1="33.7585" x2="105.159" y2="33.7585" gradientUnits="userSpaceOnUse">
<stop stop-color="#FF8BB1"/>
<stop offset="1" stop-color="#FFE4EE"/>
</linearGradient>
<linearGradient id="paint18_linear_812_28" x1="71.7108" y1="58.7642" x2="57.7839" y2="40.0173" gradientUnits="userSpaceOnUse">
<stop stop-color="#FF8BB1"/>
<stop offset="1" stop-color="#FFE4EE"/>
</linearGradient>
<linearGradient id="paint19_linear_812_28" x1="112.508" y1="59.1272" x2="138.323" y2="59.1272" gradientUnits="userSpaceOnUse">
<stop stop-color="#FF8BB1"/>
<stop offset="1" stop-color="#FFE4EE"/>
</linearGradient>
<linearGradient id="paint20_linear_812_28" x1="30.9154" y1="80.6844" x2="65.3965" y2="80.6844" gradientUnits="userSpaceOnUse">
<stop stop-color="#FF83EE"/>
<stop offset="1" stop-color="#FFE4EE"/>
</linearGradient>
<linearGradient id="paint21_linear_812_28" x1="38.9652" y1="115.824" x2="97.3801" y2="115.824" gradientUnits="userSpaceOnUse">
<stop stop-color="#F56695"/>
<stop offset="1" stop-color="#FFE4EE"/>
</linearGradient>
<linearGradient id="paint22_linear_812_28" x1="89.4618" y1="86.1348" x2="138.95" y2="86.1348" gradientUnits="userSpaceOnUse">
<stop stop-color="#F56695"/>
<stop offset="1" stop-color="white"/>
</linearGradient>
</defs>
</svg>
