<svg width="403" height="351" viewBox="0 0 403 351" fill="none" xmlns="http://www.w3.org/2000/svg">
<rect x="70.3066" y="26.0661" width="298.271" height="298.271" fill="#553D67"/>
<path d="M284.457 285.364C284.18 281.684 283.211 278.051 281.548 274.759C280.429 274.032 280.436 275.927 280.262 276.58C277.908 290.498 272.083 303.549 266.338 316.364C265.505 317.866 265.037 319.705 263.764 320.893C263.843 318.748 265.24 316.87 265.937 314.883C270.321 305.06 274.694 295.15 277.46 284.729C278.263 281.056 279.388 277.376 279.551 273.611C278.944 272.484 277.582 273.831 276.781 274.063C267.366 278.708 260.457 288.421 259.901 299C259.024 307.36 260.211 315.746 260.55 324.098C260.761 325.601 260.531 327.179 260.825 328.649C261.818 329.577 262.599 327.752 263.25 327.23C270.338 319.257 278.286 311.55 282.467 301.538C284.43 296.744 285.21 291.485 284.549 286.335C284.52 286.011 284.486 285.688 284.457 285.364Z" fill="#89A02C"/>
<path d="M285.964 284.838C285.452 280.722 284.228 276.682 282.318 272.965C282.318 272.965 281.84 272.237 281.331 271.774C282.107 264.137 281.759 256.398 279.878 248.971C279.878 248.971 278.848 245.202 277.923 245.503C277.242 245.725 278.122 249.416 278.122 249.416C279.955 256.617 280.287 264.163 279.518 271.635C278.85 271.661 278.11 271.876 278.11 271.876C268.169 276.075 260.53 285.162 258.853 295.896C257.272 306.367 258.827 316.879 259.361 327.235C259.361 327.235 259.548 330.522 260.401 330.506C260.452 330.504 260.49 330.458 260.537 330.433C260.547 330.547 260.582 330.646 260.653 330.717C261.237 331.254 263.58 328.891 263.58 328.891C270.488 321.494 277.725 314.12 282.483 304.999C285.695 298.783 286.817 291.699 285.964 284.838ZM284.178 285.057C284.992 291.575 283.928 298.31 280.872 304.163C276.313 312.98 269.168 320.219 262.248 327.65C262.248 327.65 261.514 328.489 261.005 329.311C261.176 328.338 261.178 327.141 261.178 327.141C260.648 316.665 259.085 306.276 260.647 296.168C262.146 286.109 269.419 277.488 278.809 273.543C278.809 273.543 279.118 273.356 279.316 273.245C278.855 276.957 278.156 280.646 277.206 284.258C274.071 296.153 268.889 307.438 263.757 318.743C263.757 318.743 262.792 321.22 263.537 321.415C264.262 321.605 265.411 319.495 265.411 319.495C270.546 308.195 275.761 296.814 278.961 284.722C279.852 281.356 280.521 277.917 280.994 274.451C282.627 277.792 283.719 281.381 284.178 285.057Z" fill="#677821"/>
<path d="M305.441 273.424C301.07 269.164 295.952 265.647 290.342 263.132C290.342 263.132 289.123 262.735 288.113 262.671C281.987 253.183 274.477 244.612 265.492 237.807C265.492 237.807 260.844 234.423 260.059 235.618C259.481 236.5 263.883 239.931 263.883 239.931C272.605 246.521 279.92 254.886 285.903 264.177C285.16 264.821 284.506 265.748 284.506 265.748C276.943 279.706 276.516 297.166 284.452 311.039C292.257 324.522 303.703 335.171 313.833 346.579C313.833 346.579 317.067 350.184 318.032 349.381C318.09 349.331 318.091 349.245 318.122 349.172C318.238 349.294 318.369 349.375 318.516 349.391C319.681 349.472 320.201 344.604 320.201 344.604C321.341 329.758 322.879 314.636 319.966 299.785C317.945 289.692 312.725 280.522 305.441 273.424ZM303.589 275.316C310.514 282.057 315.48 290.772 317.346 300.305C320.211 314.625 318.654 329.507 317.53 344.402C317.53 344.402 317.458 346.042 317.629 347.453C316.931 346.178 315.834 344.8 315.834 344.8C305.599 333.252 294.257 322.751 286.764 309.703C279.243 296.769 279.677 280.181 286.842 267.021C286.842 267.021 287.024 266.522 287.15 266.213C290.031 270.901 292.619 275.781 294.845 280.805C302.172 297.351 306.589 315.078 311.081 332.782C311.081 332.782 312.247 336.515 313.283 336.054C314.29 335.607 313.671 332.126 313.671 332.126C309.188 314.426 304.723 296.558 297.287 279.725C295.219 275.038 292.827 270.472 290.186 266.055C295.133 268.394 299.685 271.515 303.589 275.316Z" fill="#677821"/>
<path d="M304.207 275.404C300.508 271.431 296.056 268.147 291.121 265.892C289.167 266.086 290.916 268.256 291.316 269.165C301.401 287.32 306.7 307.667 311.874 327.669C312.297 330.16 313.45 332.703 313.079 335.239C311.199 332.701 311.078 329.259 310.053 326.336C306.064 311.022 301.982 295.618 295.584 281.103C293.133 276.146 291.044 270.883 287.772 266.408C286.039 265.671 285.712 268.471 285.005 269.473C278.456 283.46 279.442 300.968 288.524 313.634C295.199 324.045 304.268 332.589 312.332 341.873C313.955 343.406 315.141 345.431 316.829 346.849C318.822 347.003 318.043 344.188 318.311 342.991C319.128 327.317 321.179 311.16 316.783 295.815C314.632 288.503 310.697 281.744 305.206 276.435C304.874 276.09 304.538 275.75 304.207 275.404Z" fill="#ABC837"/>
<path d="M42.4457 295.93C41.4457 294.062 42.4804 293.423 42.4804 293.423C48.1732 290.253 53.5707 286.598 57.2168 281.805C55.6418 281.791 54.0716 281.852 52.4954 281.797C52.4954 281.797 42.6681 281.04 42.9195 278.888C43.1308 277.013 52.6812 277.464 52.6812 277.464C54.3619 277.534 56.0396 277.468 57.7186 277.479C53.2655 268.818 48.0854 260.488 40.1927 256.266C40.1927 256.266 38.8971 255.32 39.7164 253.599C40.6365 251.648 42.2587 252.474 42.2587 252.474C52.0178 257.963 58.0268 267.868 62.6829 277.513C65.3721 277.443 68.0518 277.227 70.739 277.018C67.3504 266.375 64.1002 254.679 55.4944 250.699C55.4944 250.699 54.1515 249.857 54.8346 248.092C55.621 246.064 57.3852 246.888 57.3852 246.888C68.1886 252.566 72.1764 265.594 75.2094 276.519C75.2094 276.519 75.1389 276.659 75.1389 276.706C79.4373 276.263 83.7338 275.627 88.0188 274.89C86.1926 268.191 82.6994 261.612 76.8996 259.631C76.8996 259.631 76.0194 259.091 76.5522 257.253C77.1484 255.185 78.4137 255.622 78.4137 255.622C86.123 258.739 90.552 266.445 92.3564 274.085C102.497 272.132 112.554 269.452 122.528 266.422C121.305 263.285 119.651 260.387 117.832 257.594C115.628 261.09 112.954 264.169 110.396 267.124C110.396 267.124 109.795 267.721 108.189 266.35C106.717 265.094 107.077 264.284 107.077 264.284C109.365 261.594 111.543 258.955 113.408 256.218C108.748 259.263 103.299 260.71 98.0879 261.445C98.0879 261.445 97.0459 261.327 96.7712 259.421C96.4684 257.329 97.4238 257.104 97.4238 257.104C98.5717 256.916 99.7078 256.696 100.836 256.466C100.324 256.278 99.8666 255.991 99.6624 255.376C99.0521 253.503 102.17 252.305 102.17 252.305C105.394 251.366 108.733 250.688 112.103 250.188C110.033 247.89 107.843 245.683 105.42 243.665C99.6145 246.965 92.8977 246.726 86.9357 245.977C86.9357 245.977 86.0179 245.601 86.2362 243.683C86.4803 241.585 87.4286 241.611 87.4286 241.611C92.5533 242.104 97.6752 242.517 101.667 240.799C95.0941 235.952 87.7316 231.918 80.1107 228.731C80.1107 228.731 77.2889 227.294 77.9745 225.517C78.7468 223.521 81.7798 224.688 81.7798 224.688C85.5278 226.228 89.2067 228.032 92.8037 229.987C91.792 223.612 87.6153 217.812 81.912 214.379C81.912 214.379 80.9609 213.536 81.8647 211.854C82.8787 209.969 84.1559 210.654 84.1559 210.654C91.8139 215.336 97.0207 223.54 97.3411 232.594C101.984 235.437 106.349 238.676 110.329 242.296C111.414 236.286 109.052 229.655 104.382 225.605C104.382 225.605 103.699 224.701 104.863 223.186C106.176 221.495 107.246 222.35 107.246 222.35C111.026 225.698 113.5 230.255 114.443 235.122C119.296 238.472 123.509 243.239 124.961 249.249C127.438 249.296 129.88 249.528 132.303 249.857C132.063 249.692 131.615 249.279 131.786 247.779C132.03 245.686 132.882 245.693 132.882 245.693C133.094 245.711 133.324 245.696 133.54 245.709C131.617 242.019 128.527 238.757 124.963 236.19C123.458 236.331 121.953 236.377 120.46 236.307C120.46 236.307 119.485 236.011 119.607 234.075C119.748 231.972 120.621 231.944 120.621 231.944C125.652 232.108 130.672 231.176 134.518 228.568C127.885 222.649 120.078 217.704 111.762 213.647C108.13 217.758 102.908 219.049 98.3827 219.897C98.3827 219.897 97.6221 219.779 97.2207 217.904C96.7865 215.848 97.4768 215.601 97.4768 215.601C101.492 214.655 105.366 213.859 107.632 211.66C105.073 210.519 102.49 209.423 99.8913 208.447C99.8913 208.447 96.2607 206.836 96.8722 205.045C97.567 203.01 101.414 204.33 101.414 204.33C106.927 206.351 112.386 208.812 117.651 211.619C118.613 205.354 117.487 198.744 114.385 193.196C114.385 193.196 114.036 192.117 115.676 191.112C117.493 190 118.174 191.065 118.174 191.065C122.029 197.966 123.333 206.189 121.732 213.948C124.579 215.62 127.327 217.413 129.976 219.336C131.361 217.359 132.258 215.077 132.89 212.69C131.764 212.549 130.109 212.212 130.03 210.752C129.936 208.935 132.994 208.601 133.632 208.543C133.843 206.505 133.92 204.437 133.726 202.381C133.726 202.381 133.867 201.378 135.775 201.132C137.876 200.862 138.063 201.951 138.063 201.951C138.298 204.188 138.228 206.45 138.017 208.71C139.296 208.804 140.575 208.805 141.851 208.95C140.187 205.647 139.555 201.932 139.373 198.532C139.373 198.532 139.397 197.734 141.516 197.589C143.439 197.448 143.765 198.204 143.765 198.204C144.256 202.941 144.763 207.662 147.688 209.943C151.168 210.6 154.587 211.497 157.955 212.62C157.215 208.625 157.743 204.522 158.837 200.804C158.837 200.804 159.131 200.039 161.161 200.64C163.009 201.194 163.044 201.985 163.044 201.985C161.894 206.299 161.396 210.748 162.95 214.336C166.685 215.864 170.248 217.758 173.699 219.833C173.77 214.258 175.683 208.854 178.702 204.273C178.702 204.273 179.357 203.421 181.099 204.635C182.679 205.733 182.355 206.67 182.355 206.67C179.181 211.566 177.294 217.262 178.152 222.671C181.765 225.195 185.173 227.982 188.265 231.092C188.866 225.724 190.878 220.593 193.336 215.973C193.336 215.973 193.939 214.99 195.808 215.993C197.507 216.907 197.223 218.005 197.223 218.005C194.264 223.789 191.965 229.89 192.514 235.77C193.881 237.42 195.143 239.153 196.35 240.922C207.225 237.362 218.199 234.098 229.413 231.629C229.413 231.629 231.664 231.345 233.581 231.488C250.548 224.242 267.318 216.712 283.05 207.431C283.05 207.431 288.939 204.342 289.605 206.002C290.295 207.72 285.265 211.175 285.265 211.175C263.156 224.198 239.363 233.808 215.895 243.757C215.989 243.874 216.259 244.107 216.259 244.107C219.684 250.877 221.543 258.063 222.213 265.422C230.276 266.509 236.496 272.297 240.642 278.72C240.642 278.72 241.234 279.774 239.438 280.901C237.811 281.922 236.977 281.14 236.977 281.14C233.229 275.613 228.326 270.663 222.478 269.817C222.595 274.389 222.231 279.002 221.551 283.606C228.503 285.151 234.419 289.587 238.571 295.111C238.571 295.111 239.165 296.043 237.44 297.275C235.874 298.392 235.087 297.756 235.087 297.756C231.408 292.962 226.412 289.093 220.796 287.89C220.165 291.102 219.374 294.286 218.427 297.449C224.882 302.042 229.526 308.952 231.402 316.632C231.402 316.632 231.636 317.877 229.542 318.3C227.662 318.68 227.177 317.654 227.177 317.654C225.677 311.475 221.996 305.871 217.025 301.938C215.081 307.578 212.758 313.099 210.096 318.334C210.096 318.334 208.179 321.918 206.283 320.902C204.614 320.007 206.189 316.355 206.189 316.355C207.429 313.871 208.572 311.308 209.67 308.73C206.514 308.66 203.134 310.719 199.549 312.759C199.549 312.759 198.875 313.048 197.796 311.247C196.805 309.593 197.289 308.999 197.289 308.999C201.18 306.539 205.884 303.928 211.343 304.466C214.671 295.833 217.021 286.896 217.85 278.045C213.256 278.753 208.949 281.492 205.373 285.033C205.373 285.033 204.709 285.614 203.181 284.163C201.772 282.827 202.284 281.946 202.284 281.946C206.486 277.687 211.946 274.375 218.154 273.611C218.318 268.605 218.037 263.651 217.016 258.874C212.471 259.963 208.34 262.92 204.99 266.612C204.99 266.612 204.37 267.199 202.767 265.83C201.295 264.569 201.749 263.69 201.749 263.69C205.47 259.501 210.335 256.145 215.944 254.709C215.054 251.751 213.911 248.871 212.431 246.092C212.431 246.092 212.361 245.635 212.29 245.329C208.056 247.144 203.799 248.919 199.603 250.785C195.408 252.661 191.263 254.694 187.099 256.676C187.146 256.746 187.31 256.887 187.31 256.887C190.103 264.186 191.259 271.818 191.139 279.494C198.673 283.863 202.957 292.554 202.119 301.168C202.119 301.168 201.908 302.524 199.805 302.177C197.92 301.86 197.805 300.733 197.805 300.733C198.469 294.586 195.683 288.123 190.796 284.459C190.345 289.82 189.354 295.165 187.889 300.408C193.819 307.257 195.592 316.811 193.171 325.454C193.171 325.454 192.701 326.823 190.675 326.135C188.863 325.52 188.985 324.257 188.985 324.257C190.826 317.858 189.934 310.768 186.335 305.41C185.032 309.29 183.566 313.118 181.869 316.797C181.869 316.797 180.44 319.714 178.516 318.778C176.803 317.943 177.892 314.97 177.892 314.97C181.303 307.447 183.948 299.479 185.462 291.454C181.367 292.912 177.898 296.702 174.48 300.553C174.48 300.553 173.804 301.218 172.196 299.847C170.724 298.593 171.147 297.692 171.147 297.692C175.004 293.084 179.76 288.336 186.26 286.799C186.72 283.189 186.83 279.604 186.711 276.039C181.419 276.086 176.234 279.095 171.252 282.403C171.252 282.403 170.4 282.888 169.195 281.151C168.094 279.562 168.782 278.772 168.782 278.772C173.86 275.23 179.807 272.048 186.481 271.741C185.993 267.21 184.985 262.758 183.292 258.487C173.924 263.06 164.734 267.946 155.978 273.42C158.215 277.356 159.793 281.894 160.083 286.482C160.153 286.505 160.224 286.552 160.294 286.576C160.294 286.576 161.247 287.186 160.627 289.013C160.44 289.531 160.24 289.893 160.031 290.147C159.82 292.287 159.287 294.408 158.337 296.443C158.337 296.443 157.705 297.613 155.858 296.514C154.215 295.531 154.497 294.547 154.497 294.547C155.319 293.021 155.715 291.333 155.844 289.586C151.916 287.987 148.094 285.913 144.823 283.1C144.753 284.94 144.565 286.772 144.353 288.602C146.389 292.822 148.236 297.241 149.285 301.809C151.661 303.241 154.341 304.309 157.125 305.01C157.125 305.01 157.998 305.475 157.589 307.355C157.139 309.432 156.08 309.252 156.08 309.252C154.017 308.749 152.015 307.972 150.083 307.059C150.323 310.437 150.06 313.823 148.886 317.148C148.886 317.148 148.156 318.956 146.198 318.003C144.494 317.174 144.905 315.643 144.905 315.643C146.337 312.145 146.271 308.317 145.419 304.35C144.137 303.42 142.921 302.408 141.817 301.256C140.702 305.126 139.382 308.939 137.687 312.602C138.987 316.293 142.379 319.212 146.159 321.589C146.159 321.589 146.673 322.195 145.697 323.857C144.624 325.685 143.887 325.324 143.887 325.324C140.595 323.359 137.449 320.747 135.273 317.369C135.003 319.372 134.628 321.376 133.999 323.344C133.999 323.344 133.372 325.049 131.371 324.251C131.23 324.18 131.16 324.087 131.016 324.011C130.512 324.748 130.03 325.504 129.5 326.225C128.908 329.888 131.753 333.69 134.62 337.493C134.62 337.493 134.897 338.263 133.39 339.475C131.745 340.801 131.179 340.242 131.179 340.242C128.996 337.629 126.931 334.478 125.9 330.926C124.189 332.909 122.403 334.822 120.496 336.608C120.496 336.608 117.306 339.196 116.019 337.652C114.711 336.084 117.497 333.421 117.497 333.421C120.519 330.577 123.199 327.368 125.697 324.008C122.407 324.764 119.072 325.144 115.861 325.409C115.861 325.409 114.971 325.245 114.809 323.309C114.621 321.201 115.49 321.062 115.49 321.062C120.57 320.579 125.506 320.036 129.714 318.156C130.27 317.238 130.756 316.286 131.268 315.344C131.432 313.272 131.409 311.159 131.221 309.017C127.862 309.789 124.375 309.964 120.971 309.565C120.971 309.565 119.969 309.193 120.246 307.27C120.548 305.186 121.464 305.228 121.464 305.228C124.548 305.578 127.65 305.392 130.579 304.709C130.015 301.318 129.257 297.904 128.304 294.512C127.081 295.665 125.807 296.756 124.625 297.953C124.625 297.953 117.943 304.781 116.505 303.555C114.855 302.152 121.537 294.905 121.537 294.905C122.206 294.231 122.915 293.604 123.617 292.968C122.744 293.061 121.861 293.221 121 293.306C121 293.306 119.908 293.165 119.686 291.32C115.307 291.339 110.773 292.109 106.287 293.21C106.287 293.21 105.099 293.449 104.559 291.4C104.073 289.52 105.207 288.968 105.207 288.968C112.596 287.043 120.661 285.902 128.424 287.95C128.635 287.926 128.875 287.903 129.093 287.856C131.796 285.477 134.57 283.188 137.419 280.986C133.763 276.953 127.114 276.482 121.033 277.729C121.033 277.729 120.029 277.87 119.507 275.84C119.019 273.945 120.104 273.441 120.104 273.441C127.082 271.843 135.038 272.756 140.441 277.999C140.277 274.172 139.848 270.356 138.974 266.637C138.974 266.637 139.021 266.158 139.045 265.776C127.057 269.851 114.816 273.602 102.387 276.469C102.575 276.887 102.723 277.354 102.723 277.354C102.817 286.045 100.023 294.117 95.5079 301.343C100.143 307.912 100.957 316.413 99.1803 324.052C99.1803 324.052 98.636 325.269 96.7551 324.776C94.727 324.239 94.9148 323.077 94.9148 323.077C96.2669 316.89 95.9451 310.187 92.9498 305.146C90.9006 307.899 88.6208 310.493 86.1119 312.917C89.2062 318.421 89.3291 324.946 87.9662 330.8C87.9662 330.8 87.4874 331.731 85.6051 331.257C83.5653 330.743 83.6942 329.845 83.6942 329.845C84.7435 324.933 84.9055 319.773 82.8751 315.791C78.102 319.871 72.8474 323.43 67.326 326.203C67.326 326.203 64.2265 327.447 63.3986 325.66C62.5324 323.78 65.3281 322.282 65.3281 322.282C68.7209 320.529 71.9857 318.427 75.1389 316.172C71.2946 315.026 67.0774 314.599 62.7599 314.089C62.7599 314.089 61.9452 313.742 62.1682 311.819C62.41 309.721 63.2575 309.749 63.2575 309.749C68.4873 310.317 74.0226 310.89 79.3055 313.008C85.3593 308.008 90.4431 302.114 93.8671 295.607C89.5656 296.067 85.1313 297.635 80.3489 298.718C80.3489 298.718 79.4077 298.672 79.0039 296.784C78.5697 294.728 79.3678 294.465 79.3678 294.465C84.535 293.254 89.9618 291.211 95.9714 291.08L96.0183 291.151C97.699 286.777 98.5779 282.17 98.4167 277.423L98.44 277.352C91.6456 278.81 84.7972 279.931 77.9219 280.724C77.8045 288.525 72.4314 294.832 66.0652 298.509C66.0652 298.509 64.9292 298.88 63.9949 297.16C62.9903 295.317 63.8305 294.737 63.8305 294.737C69.1334 291.51 73.6825 286.638 73.6137 281.195C69.938 281.531 66.2599 281.751 62.5701 281.848C58.2933 288.854 51.4442 293.59 44.5897 297.283C44.5897 297.283 43.3705 297.644 42.4457 295.93ZM134.768 303.176C135.555 302.791 136.367 302.448 137.092 301.962C138.397 297.876 139.235 293.697 139.798 289.481C137.275 290.476 134.682 291.155 132.079 291.692C133.208 295.406 134.11 299.267 134.768 303.176ZM113.971 245.687C115.192 246.959 116.342 248.286 117.457 249.648C118.523 249.554 119.575 249.378 120.645 249.333C119.743 246.175 117.529 243.362 114.793 240.945C114.676 242.537 114.445 244.133 113.971 245.687ZM120.545 253.791C122.913 257.231 124.965 260.899 126.559 264.851C126.559 264.851 126.512 265.063 126.548 265.142C127.79 264.755 129.023 264.347 130.265 263.955C130.335 263.743 130.429 263.556 130.429 263.556C134.669 261.092 138.984 259.222 142.448 256.63C135.694 254.261 128.169 253.411 120.545 253.791ZM133.862 250.067C134.331 250.138 134.805 250.185 135.27 250.279C135.261 250.232 135.223 250.162 135.2 250.115C134.754 250.114 134.308 250.094 133.862 250.067ZM144.655 275.738C149.069 272.634 153.564 269.636 158.214 266.863C158.213 266.861 158.144 266.839 158.144 266.839C156.261 264.673 154.114 262.836 151.798 261.24C148.722 262.348 145.678 263.493 142.582 264.55C142.908 265.057 143.173 265.609 143.173 265.609C143.95 268.946 144.411 272.331 144.655 275.738ZM147.197 279.287C149.54 281.423 152.36 283.148 155.45 284.567C154.854 281.594 153.723 278.569 152.25 275.763C150.527 276.89 148.887 278.119 147.197 279.287ZM130.5 235.045C133.799 237.991 136.571 241.542 138.219 245.631C141.344 245.361 144.364 244.626 146.968 243.155C144.463 238.963 141.299 235.141 137.769 231.588C135.541 233.2 133.061 234.28 130.5 235.045ZM139.732 251.306C144.11 252.487 148.273 254.226 152.115 256.514C152.302 256.443 152.521 256.373 152.723 256.303C152.558 256.03 152.312 255.643 152.312 255.643C151.495 252.603 150.384 249.711 149.018 246.941C146.022 248.57 142.762 249.476 139.447 249.88C139.541 250.362 139.657 250.82 139.732 251.306ZM133.446 221.948C137.081 224.857 140.495 227.981 143.514 231.416C146.153 228.139 146.966 223.647 146.882 218.961C144.885 220.257 142.922 221.734 140.944 223.25C140.944 223.25 140.214 223.738 138.916 222.064C137.728 220.539 138.256 219.809 138.256 219.809C140.789 217.816 143.49 215.825 146.415 214.138C143.399 213.579 140.362 213.232 137.326 213.03C136.556 216.179 135.322 219.226 133.446 221.948ZM146.321 234.809C150.84 240.655 154.373 247.184 156.474 254.474C156.474 254.474 156.427 254.832 156.45 254.979C168.28 250.688 180.112 246.28 192.074 242.254C190.879 240.59 189.607 238.98 188.262 237.431C186.873 235.832 185.41 234.275 183.866 232.812C183.819 232.882 183.748 233.056 183.748 233.056C177.572 234.889 172.117 239.116 166.508 243.311C166.508 243.311 165.576 243.931 164.299 242.236C163.135 240.694 163.873 239.824 163.873 239.824C168.822 236.047 174.101 232.195 180.225 229.799C176.943 227.094 173.484 224.604 169.746 222.501C164.504 223.336 159.722 226.541 156.092 230.773C156.092 230.773 155.451 231.425 153.811 230.106C152.294 228.888 152.78 227.93 152.78 227.93C155.81 224.371 159.666 221.468 164.034 219.688C160.562 218.104 157.004 216.727 153.336 215.682C152.599 215.921 151.895 216.266 151.184 216.604C151.651 222.996 150.573 229.635 146.321 234.809ZM156.583 259.528C158.271 260.858 159.876 262.323 161.361 263.957C161.361 263.957 161.561 264.413 161.707 264.838C172.762 258.475 184.281 252.887 195.835 247.71C195.556 247.449 195.201 247.125 195.201 247.125C195.014 246.783 194.77 246.473 194.561 246.14C181.885 250.39 169.242 254.953 156.583 259.528ZM199.257 246.17C203.766 244.17 208.301 242.292 212.837 240.363C208.141 241.708 203.478 243.235 198.818 244.751C198.865 244.822 198.935 244.916 198.982 244.986C198.982 244.986 199.159 245.576 199.257 246.17Z" fill="#718A1B"/>
<path d="M192.586 15.0501C190.659 15.2848 190.56 16.5544 190.56 16.5544C191.49 24.2845 193.391 32.3915 198.347 38.9347C197.085 42.4033 195.947 45.9079 194.915 49.4514C189.824 47.5243 186.953 41.5083 185.89 35.3923C185.89 35.3923 185.655 34.404 183.573 34.6645C181.632 34.9039 181.559 36.0965 181.559 36.0965C182.653 43.3667 186.56 50.6665 193.774 53.6371C191.997 60.326 190.537 67.1105 189.407 73.9671C189.405 73.9659 189.36 73.9198 189.36 73.9198C184.883 72.333 180.917 69.8291 177.46 66.6661C177.472 66.6595 177.555 66.6431 177.555 66.6431C179.63 61.0018 179.714 55.2043 180.478 49.9522C180.478 49.9522 180.525 49.109 178.452 48.7616C176.542 48.4447 176.159 49.3089 176.159 49.3089C175.417 54.1559 175.255 58.856 174.11 63.0277C169.307 57.4608 165.68 50.5734 163.241 43.1103C167.145 38.9684 169.703 34.0259 172.145 29.3664C172.145 29.3664 172.48 28.5899 170.616 27.597C168.91 26.6862 168.288 27.3176 168.288 27.3176C166.236 31.1501 164.294 34.9182 161.822 38.0772C160.877 34.3175 160.116 30.5105 159.724 26.7109C159.724 26.7109 159.351 23.5612 157.286 23.6786C155.319 23.7959 155.345 27.1357 155.345 27.1357C155.906 33.2887 157.295 39.4814 159.348 45.4162C154.898 45.8481 150.155 43.8101 145.968 41.0365C145.968 41.0365 145.179 40.586 143.954 42.2972C142.825 43.877 143.517 44.6626 143.517 44.6626C148.467 48.0726 154.584 50.3434 160.839 49.4779C162.177 52.6994 163.758 55.7712 165.57 58.6852C159.783 59.6288 153.427 57.4764 148.163 53.9544C148.163 53.9544 147.149 53.3537 145.907 55.0461C144.755 56.6165 145.696 57.5684 145.696 57.5684C152.155 62.0147 160.364 64.3685 168.173 62.4575C173.248 69.3026 179.737 74.8693 187.86 77.9593C187.86 77.9593 188.353 77.9708 188.806 77.9593C186.929 90.5751 185.941 103.341 185.35 115.988C185.005 115.824 184.573 115.612 184.573 115.612C180.638 115.044 176.77 114.021 173.013 112.689C171.017 111.98 169.031 111.189 167.105 110.287C167.152 110.216 167.293 110.099 167.293 110.099C166.739 103.68 168.678 97.0572 170.532 90.3028C170.532 90.3028 170.766 89.2089 168.724 88.6408C166.863 88.1221 166.323 89.1265 166.323 89.1265C164.618 95.1141 162.964 101.438 162.974 108.014C159.256 105.948 155.673 103.64 152.348 100.93C151.208 95.746 152.443 90.123 155.054 85.1966C155.054 85.1966 155.427 84.3608 153.598 83.3162C151.911 82.3514 151.196 83.1522 151.196 83.1522C148.992 87.2734 147.7 91.9238 147.642 96.641C144.897 93.9888 142.315 91.1815 140 88.1501C139.789 83.5461 141.091 78.7532 142.499 73.8482C142.499 73.8482 142.687 72.9888 140.656 72.3926C138.802 71.8456 138.316 72.6039 138.316 72.6039C137.389 75.6904 136.523 78.9327 136.023 82.2718C133.809 78.7177 131.802 75.0497 130.261 71.197C130.261 71.197 128.801 67.6313 126.865 68.2736C124.956 68.9073 126.198 72.8224 126.198 72.8224C127.162 75.2505 128.289 77.6113 129.509 79.9307C125.827 79.5904 122.138 80.3607 118.907 81.4358C118.907 81.4358 118.18 81.7597 118.813 83.7761C119.389 85.6164 120.208 85.6443 120.208 85.6443C124.796 84.3674 129.375 83.1115 132.568 85.0011C134.453 87.9991 136.538 90.8538 138.816 93.5772C134.827 94.3495 131.205 96.35 128.141 98.7199C128.141 98.7199 127.535 99.274 128.845 100.941C130.035 102.457 130.787 102.201 130.787 102.201C134.381 99.5524 138.34 97.4625 142.25 97.6038C145.039 100.521 148.105 103.145 151.299 105.598C146.139 107.71 141.806 111.46 138.647 115.945C138.647 115.945 138.093 116.865 139.861 118.043C141.461 119.112 142.214 118.468 142.214 118.468C145.609 113.724 150.221 109.883 155.569 108.703C159.24 111.143 163.079 113.295 167.105 115.035C162.329 117.558 158.29 121.308 154.89 125.285C154.89 125.285 154.195 126.208 155.812 127.579C157.284 128.825 158.202 128.16 158.202 128.16C162.502 123.291 167.34 118.919 173.013 117.28C176.581 118.451 180.238 119.353 183.966 119.9C183.966 119.9 184.577 119.854 185.168 119.736C183.847 150.695 184.586 181.723 179.758 211.913C179.758 211.913 179.038 218.524 180.826 218.537C182.678 218.551 184.053 212.605 184.053 212.605C188.086 187.264 188.328 161.606 189.002 136.124C189.143 136.171 189.462 136.335 189.462 136.335C197.016 137.046 204.384 136.147 211.478 134.079C215.439 141.186 223.1 144.858 230.595 146.367C230.595 146.367 231.793 146.532 232.185 144.45C232.539 142.562 231.506 142.072 231.506 142.072C224.991 140.605 218.591 137.853 215.664 132.719C219.965 131.165 224.122 129.131 228.158 126.812C232.139 132.718 238.432 136.602 245.092 138.445C245.092 138.445 246.177 138.656 246.693 136.602C247.16 134.736 246.28 134.237 246.28 134.237C240.472 132.565 235.043 129.332 231.869 124.545C234.627 122.782 237.302 120.88 239.899 118.844C246.535 123.171 254.665 124.965 262.498 123.902C262.498 123.902 263.742 123.66 263.371 121.561C263.038 119.672 261.904 119.597 261.904 119.597C255.604 120.461 249.042 119.085 243.563 115.897C248.101 112.024 252.39 107.844 256.288 103.451C256.288 103.451 258.923 100.355 257.283 98.9635C255.839 97.7381 253.013 100.529 253.013 100.529C251.154 102.59 249.188 104.592 247.19 106.557C245.975 103.644 246.648 99.7469 247.237 95.6647C247.237 95.6647 247.261 94.9325 245.188 94.5851C243.285 94.2682 242.907 94.9368 242.907 94.9368C242.041 99.4583 241.331 104.791 243.829 109.675C237.012 115.93 229.553 121.387 221.619 125.396C220.597 120.862 221.572 115.851 223.56 111.227C223.56 111.227 223.856 110.397 221.947 109.505C220.189 108.683 219.557 109.482 219.557 109.482C217.13 114.95 216.045 121.243 217.604 127.3C213.006 129.286 208.291 130.832 203.473 131.631C202.825 127.003 204.064 122.077 206.275 117.609C206.275 117.609 206.594 116.817 204.735 115.824C203.024 114.916 202.37 115.66 202.37 115.66C199.833 120.656 198.489 126.411 199.204 132.157C196.126 132.411 193.028 132.392 189.9 132.04C189.9 132.04 189.444 132.134 189.134 132.181C189.275 127.576 189.369 122.964 189.571 118.377C189.782 113.787 190.158 109.185 190.482 104.585C190.552 104.6 190.749 104.702 190.749 104.702C198.565 104.632 206.09 102.916 213.19 99.9957C220.012 105.41 229.668 106.216 237.378 102.287C237.378 102.287 238.566 101.604 237.472 99.7636C236.489 98.1252 235.397 98.4305 235.397 98.4305C229.918 101.297 222.884 101.067 217.687 97.8603C222.512 95.4798 227.123 92.6022 231.467 89.3207C240.011 92.3344 249.551 90.4895 256.71 85.0748C256.71 85.0748 257.813 84.1381 256.431 82.5031C255.196 81.0408 254.065 81.6185 254.065 81.6185C248.783 85.6716 241.858 87.4358 235.554 86.0462C238.689 83.4134 241.715 80.6494 244.519 77.7244C244.519 77.7244 246.714 75.328 245.139 73.8797C243.735 72.591 241.366 74.6913 241.366 74.6913C235.612 80.6181 229.164 85.9951 222.249 90.34C222.108 85.9953 224.366 81.3795 226.701 76.7902C226.701 76.7902 227.072 75.9173 225.208 74.922C223.504 74.0112 222.818 74.7336 222.818 74.7336C219.94 80.0088 217.261 86.1725 218.209 92.7835C215.017 94.5323 211.72 95.9455 208.358 97.1382C206.471 92.194 207.371 86.2703 208.626 80.4229C208.626 80.4229 208.767 79.4508 206.711 78.9672C204.828 78.5236 204.345 79.4536 204.345 79.4536C202.907 85.4753 202.111 92.1741 204.275 98.4978C199.88 99.6997 195.369 100.392 190.774 100.378C191.603 89.9866 192.788 79.6467 194.68 69.4949C202.45 70.6099 211.242 69.307 216.963 63.272C216.963 63.272 217.832 62.2553 216.125 60.9431C214.609 59.7742 213.785 60.3966 213.785 60.3966C209.82 65.0816 202.419 65.916 195.517 65.1639C196.399 60.9065 197.378 56.6745 198.537 52.5117C198.584 52.5335 198.678 52.6528 198.678 52.6528C209.955 53.8265 223.539 54.8806 232.776 46.9034C232.776 46.9034 234.187 45.563 232.588 44.0888C231.194 42.8072 229.92 43.7486 229.92 43.7486C223.068 50.3019 210.982 49.0483 199.837 48.3089C200.625 45.7317 201.419 43.1596 202.336 40.631C213.016 39.8259 224.42 37.8561 233.098 30.7812C233.098 30.7812 234.459 29.5742 232.981 28.0032C231.678 26.6112 230.324 27.4702 230.324 27.4702C223.508 33.2717 213.861 35.045 204.171 36.022C204.796 34.4634 205.347 32.8767 206.028 31.3399C206.028 31.3399 209.939 22.6226 208.272 21.7329C206.361 20.7119 202.061 29.5813 202.061 29.5813C201.425 31.0249 200.916 32.5129 200.327 33.9725C197.201 28.8262 195.772 22.4649 194.904 16.0072C194.904 16.0072 194.691 14.8036 192.586 15.0501Z" fill="#718A1B"/>
<path d="M198.777 10.8261C198.777 12.0207 198.541 13.2037 198.084 14.3074C197.627 15.411 196.957 16.4138 196.112 17.2585C195.268 18.1032 194.265 18.7733 193.161 19.2304C192.058 19.6876 190.875 19.9226 189.68 19.9226C188.485 19.9226 187.303 19.6876 186.199 19.2304C185.095 18.7733 184.092 18.1032 183.248 17.2585C182.403 16.4138 181.733 15.411 181.276 14.3074C180.819 13.2037 180.583 12.0207 180.583 10.8261C180.584 8.41355 181.542 6.09985 183.248 4.39393C184.954 2.688 187.267 1.72963 189.68 1.72961C190.875 1.7296 192.057 1.96488 193.161 2.42202C194.265 2.87915 195.267 3.54924 196.112 4.39393C196.957 5.23861 197.627 6.24144 198.084 7.34508C198.541 8.44873 198.777 9.63151 198.777 10.8261Z" fill="#FF5555"/>
<path d="M189.248 3.68003C187.343 4.56597 185.584 5.43729 184.329 6.71916C183.049 7.94557 182.318 9.8049 182.351 11.6048C182.388 13.4816 182.994 15.3801 184.101 16.8463C184.87 17.9409 186.26 18.6366 187.704 18.8517C189.641 19.1171 191.655 18.9068 193.377 18.149C194.98 17.4589 196.349 16.1343 197.218 14.5621C198.036 13.0465 198.384 11.2479 197.99 9.67702C197.569 7.885 196.577 6.18263 195.234 4.90423C195.046 4.70288 194.819 4.53271 194.561 4.38444C194.561 4.38444 192.552 3.30277 192.796 2.01285C193.18 -0.022631 196.258 1.48021 196.258 1.48021C196.712 1.74746 197.151 2.06413 197.568 2.43572C199.408 4.1655 200.724 6.43298 201.299 8.90502C201.859 11.4263 201.409 14.0275 200.197 16.1966C198.992 18.4021 197.085 20.2185 194.743 21.2604C192.358 22.2983 189.728 22.5854 187.225 22.2157C184.984 21.9045 182.848 20.7678 181.384 18.8858C179.819 16.7921 178.987 14.2317 178.955 11.6584C178.918 8.92243 179.989 6.23573 181.953 4.29031C183.745 2.59164 185.817 1.49395 187.809 0.574695C187.809 0.574695 189.535 0.140986 190.198 1.36374C190.875 2.61394 189.248 3.68003 189.248 3.68003Z" fill="#DE8787"/>
<path d="M221.497 21.1984C220.983 22.277 220.262 23.244 219.375 24.044C218.488 24.844 217.452 25.4613 216.326 25.8609C215.2 26.2604 214.007 26.4343 212.814 26.3727C211.621 26.311 210.451 26.0146 209.373 25.501C208.294 24.9875 207.327 24.2669 206.527 23.3797C205.727 22.4925 205.11 21.4565 204.711 20.3307C204.311 19.2049 204.137 18.0114 204.199 16.8184C204.26 15.6254 204.557 14.4561 205.07 13.3776C206.107 11.1993 207.967 9.52231 210.241 8.71539C212.514 7.90847 215.015 8.03778 217.194 9.07486C218.272 9.58837 219.239 10.3092 220.039 11.1964C220.839 12.0836 221.456 13.1197 221.856 14.2455C222.255 15.3713 222.429 16.5647 222.368 17.7577C222.306 18.9507 222.01 20.1199 221.497 21.1984Z" fill="#FF5555"/>
<path d="M215.961 10.6578C213.861 10.6392 211.898 10.6694 210.213 11.2873C208.531 11.8446 207.072 13.2091 206.328 14.8485C205.554 16.5587 205.285 18.5333 205.655 20.3332C205.878 21.652 206.834 22.8778 208.045 23.6926C209.68 24.7647 211.589 25.4409 213.469 25.4966C215.213 25.5628 217.019 24.9555 218.479 23.9093C219.87 22.8926 220.957 21.4183 221.277 19.8308C221.667 18.0318 221.503 16.0682 220.84 14.3366C220.756 14.0738 220.624 13.8225 220.455 13.5777C220.455 13.5777 219.107 11.7376 219.881 10.6778C221.103 9.00528 223.236 11.6851 223.236 11.6851C223.531 12.1215 223.791 12.5962 224.008 13.1111C224.926 15.4637 225.14 18.077 224.596 20.5559C224.018 23.0731 222.493 25.2282 220.466 26.6657C218.431 28.1393 215.928 28.9595 213.365 28.8932C210.766 28.8051 208.268 27.9337 206.166 26.5237C204.278 25.2798 202.837 23.3352 202.324 21.0063C201.811 18.4432 202.161 15.7739 203.238 13.4366C204.381 10.9506 206.503 8.98513 209.113 8.07311C211.461 7.30976 213.804 7.20946 215.997 7.23567C215.997 7.23567 217.742 7.58613 217.815 8.9749C217.889 10.3948 215.961 10.6578 215.961 10.6578Z" fill="#DE8787"/>
<path d="M253.942 73.0472C253.428 74.1258 252.707 75.0928 251.82 75.8928C250.933 76.6927 249.897 77.3101 248.771 77.7096C247.645 78.1092 246.452 78.2831 245.259 78.2214C244.066 78.1597 242.897 77.8633 241.818 77.3498C240.74 76.8363 239.773 76.1157 238.973 75.2285C238.173 74.3413 237.555 73.3052 237.156 72.1794C236.756 71.0536 236.582 69.8602 236.644 68.6672C236.706 67.4742 237.002 66.3049 237.515 65.2263C238.553 63.0481 240.412 61.3711 242.686 60.5641C244.96 59.7572 247.461 59.8865 249.639 60.9236C250.717 61.4371 251.684 62.158 252.484 63.0452C253.284 63.9324 253.901 64.9684 254.301 66.0942C254.701 67.22 254.874 68.4135 254.813 69.6065C254.751 70.7995 254.455 71.9686 253.942 73.0472Z" fill="#FF5555"/>
<path d="M248.406 62.5057C246.306 62.4871 244.343 62.5173 242.659 63.1352C240.976 63.6925 239.517 65.057 238.773 66.6964C237.999 68.4066 237.73 70.3812 238.1 72.1811C238.323 73.4999 239.28 74.7257 240.491 75.5405C242.125 76.6126 244.035 77.2888 245.914 77.3445C247.659 77.4107 249.465 76.8034 250.925 75.7572C252.315 74.7405 253.402 73.2662 253.722 71.6787C254.112 69.8797 253.948 67.9161 253.285 66.1845C253.202 65.9217 253.07 65.6704 252.9 65.4256C252.9 65.4256 251.552 63.5855 252.327 62.5257C253.549 60.8532 255.681 63.533 255.681 63.533C255.976 63.9694 256.237 64.4441 256.454 64.959C257.371 67.3116 257.585 69.9249 257.041 72.4038C256.463 74.921 254.938 77.0761 252.912 78.5136C250.876 79.9872 248.373 80.8074 245.811 80.7411C243.211 80.653 240.713 79.7816 238.612 78.3716C236.723 77.1277 235.283 75.1831 234.769 72.8542C234.256 70.2911 234.606 67.6218 235.683 65.2845C236.826 62.7985 238.948 60.833 241.558 59.921C243.906 59.1577 246.249 59.0574 248.442 59.0836C248.442 59.0836 250.187 59.434 250.26 60.8228C250.334 62.2427 248.406 62.5057 248.406 62.5057Z" fill="#DE8787"/>
<path d="M162.336 16.617C163.051 17.5738 163.571 18.6623 163.865 19.82C164.16 20.9777 164.224 22.182 164.053 23.3643C163.882 24.5467 163.48 25.6837 162.87 26.7106C162.259 27.7376 161.452 28.6341 160.496 29.3493C159.539 30.0645 158.451 30.5844 157.293 30.879C156.135 31.1736 154.931 31.2373 153.749 31.0664C152.566 30.8955 151.429 30.4935 150.402 29.8832C149.375 29.2729 148.479 28.4662 147.763 27.5093C146.319 25.577 145.701 23.15 146.047 20.7622C146.392 18.3745 147.671 16.2217 149.603 14.7772C150.56 14.062 151.648 13.5424 152.806 13.2478C153.964 12.9531 155.168 12.8895 156.35 13.0603C157.533 13.2312 158.67 13.6332 159.697 14.2435C160.724 14.8538 161.621 15.6602 162.336 16.617Z" fill="#FF5555"/>
<path d="M150.435 16.5874C149.44 18.437 148.553 20.1884 148.315 21.9666C148.024 23.715 148.552 25.6418 149.656 27.0636C150.809 28.545 152.431 29.7029 154.196 30.2143C155.467 30.6307 156.997 30.3556 158.282 29.6635C159.992 28.7168 161.48 27.342 162.405 25.7046C163.276 24.1918 163.58 22.3111 163.334 20.5318C163.082 18.828 162.284 17.1791 161.028 16.1565C159.618 14.9732 157.804 14.2036 155.963 13.9837C155.692 13.9353 155.408 13.935 155.112 13.9707C155.112 13.9707 152.856 14.3069 152.279 13.1277C151.368 11.2672 154.733 10.6285 154.733 10.6285C155.257 10.5708 155.798 10.5615 156.355 10.6092C158.864 10.8935 161.276 11.9212 163.216 13.5574C165.174 15.2415 166.371 17.5945 166.699 20.0574C167.055 22.5451 166.615 25.1418 165.362 27.3787C164.073 29.6379 162.139 31.4425 159.912 32.6451C157.932 33.737 155.54 34.1056 153.24 33.4749C150.733 32.7349 148.534 31.1821 146.967 29.1403C145.3 26.9708 144.549 24.1778 144.958 21.4434C145.376 19.0099 146.379 16.8901 147.424 14.9613C147.424 14.9613 148.547 13.5805 149.809 14.1632C151.1 14.7591 150.435 16.5874 150.435 16.5874Z" fill="#DE8787"/>
<path d="M131.82 58.7603C132.535 59.7171 133.055 60.8055 133.35 61.9632C133.644 63.1209 133.708 64.3253 133.537 65.5076C133.366 66.6899 132.964 67.827 132.354 68.8539C131.744 69.8808 130.937 70.7773 129.98 71.4925C129.023 72.2077 127.935 72.7277 126.777 73.0222C125.62 73.3168 124.415 73.3805 123.233 73.2097C122.051 73.0388 120.914 72.6368 119.887 72.0265C118.86 71.4161 117.963 70.6094 117.248 69.6526C115.803 67.7202 115.186 65.2932 115.531 62.9055C115.876 60.5177 117.155 58.3649 119.088 56.9205C120.045 56.2053 121.133 55.6856 122.29 55.391C123.448 55.0964 124.653 55.0327 125.835 55.2036C127.017 55.3744 128.154 55.7765 129.181 56.3868C130.208 56.9971 131.105 57.8034 131.82 58.7603Z" fill="#FF5555"/>
<path d="M119.918 58.7316C118.923 60.5812 118.036 62.3326 117.798 64.1108C117.507 65.8592 118.035 67.786 119.139 69.2079C120.292 70.6892 121.914 71.8471 123.679 72.3585C124.95 72.775 126.48 72.4998 127.765 71.8078C129.475 70.861 130.963 69.4863 131.888 67.8488C132.759 66.336 133.063 64.4553 132.817 62.676C132.565 60.9722 131.767 59.3233 130.511 58.3007C129.101 57.1174 127.287 56.3479 125.446 56.128C125.175 56.0796 124.891 56.0792 124.595 56.115C124.595 56.115 122.339 56.4512 121.762 55.2719C120.851 53.4114 124.216 52.7727 124.216 52.7727C124.739 52.715 125.281 52.7057 125.838 52.7534C128.347 53.0377 130.759 54.0654 132.699 55.7016C134.657 57.3857 135.854 59.7387 136.182 62.2016C136.538 64.6893 136.098 67.286 134.845 69.5229C133.556 71.7821 131.622 73.5867 129.395 74.7893C127.414 75.8813 125.023 76.2498 122.723 75.6191C120.216 74.8791 118.017 73.3263 116.45 71.2846C114.783 69.115 114.032 66.322 114.441 63.5876C114.859 61.1542 115.862 59.0343 116.907 57.1056C116.907 57.1056 118.03 55.7247 119.292 56.3075C120.583 56.9034 119.918 58.7316 119.918 58.7316Z" fill="#DE8787"/>
<path d="M414.286 184.418C414.028 183.804 413.554 183.189 412.599 183.21C412.398 183.216 412.275 183.291 412.112 183.333C411.353 181.975 408.84 182.194 408.84 182.194C399.05 184.108 388.999 185.76 379.354 189.38C369.599 192.956 360.146 199.716 356.264 209.754C356.264 209.754 356.114 210.755 356.505 211.556C346.047 214.852 335.305 217.36 324.369 219.027C330.706 213.409 336.843 207.388 342.421 200.913C343.21 202.152 344.882 201.962 344.882 201.962C355.167 198.225 364.401 191.158 369.858 181.523C374.845 172.563 374.615 161.219 369.248 152.568C369.248 152.568 367.332 149.728 365.583 151.172C365.483 151.238 365.506 151.356 365.437 151.435C365.319 151.331 365.173 151.284 365.013 151.228C364.976 151.015 365.022 150.818 364.904 150.59C364.152 148.94 362.257 149.381 362.257 149.381C344.776 157.564 334.86 177.889 339.394 196.587C339.394 196.587 339.622 197.021 339.736 197.299C333.453 204.648 326.376 211.491 319.097 217.862C319.097 217.862 318.32 218.809 318.112 219.813C307.258 221.185 296.287 221.941 285.338 222.04C277.711 222.096 270.033 222.359 262.363 222.849C271.917 218.092 280.937 212.102 288.945 205.017C289.667 205.809 290.912 205.888 290.912 205.888C302.243 204.44 312.659 197.563 317.863 187.262C322.659 177.505 324.173 166.763 325.251 156.33C325.251 156.33 325.527 152.971 323.419 152.754C323.121 152.724 322.908 152.887 322.672 153.009C321.836 152.487 320.796 152.623 320.796 152.623C301.315 159.886 287.744 179.336 287.942 200.079C278.071 209.185 266.394 216.627 254.086 221.978C254.086 221.978 252.896 222.72 252.359 223.683C229.677 225.882 207.332 230.746 187.026 241.025C187.026 241.025 180.483 244.821 181.803 246.323C182.927 247.598 188.984 244.877 188.984 244.877C213.715 232.266 241.945 228.018 270.289 226.813C271.015 227.305 271.798 227.557 271.798 227.557C282.933 229.287 293.449 233.535 302.995 239.53C302.995 239.533 302.979 239.612 302.979 239.612C303.671 259.824 319.357 278.853 339.5 281.165C339.5 281.165 340.368 281.063 341.014 280.545C341.442 280.748 341.88 280.822 342.302 280.621C343.028 280.273 343.08 279.354 342.953 278.401C344.344 277.82 344.493 275.215 344.493 275.215C343.839 253.846 327.619 233.29 306.257 234.116C306.257 234.116 304.956 234.37 304.456 235.287C298.412 231.596 291.967 228.612 285.239 226.418C285.289 226.416 285.335 226.404 285.387 226.408C300.36 226.287 315.399 225.004 330.165 222.411C330.99 222.841 331.889 223.003 331.889 223.003C342.816 223.022 353.553 225.084 363.96 228.562C365.913 239.801 373.004 249.88 382.106 256.549C392.071 263.876 406.472 264.121 415.88 256.154C415.88 256.154 417.241 254.496 416.341 253.278C416.448 253.23 416.543 253.213 416.652 253.137C418.195 252.039 416.565 249.149 416.565 249.149C410.973 240.694 406.161 231.141 398.269 223.74C389.197 215.69 375.94 215.762 365.465 221.064C365.465 221.064 363.439 222.51 364.495 224.07C364.51 224.089 364.534 224.104 364.574 224.139C364.565 224.148 364.554 224.154 364.535 224.168C357.83 221.995 350.966 220.437 343.987 219.54C350.008 218.089 355.978 216.448 361.832 214.462C362.617 215.115 363.587 215.514 363.587 215.514C373.998 218.39 385.42 217.325 395.135 212.596C405.57 207.493 413.147 197.173 414.562 185.647C414.562 185.647 414.538 185.033 414.286 184.418ZM409.703 188.144C407.667 196.9 401.402 204.721 393.233 208.679C385.557 212.415 376.596 213.599 368.187 212.079C374.513 209.667 380.761 207.032 386.797 203.908C386.797 203.908 389.285 202.55 391.578 200.954C392.189 201.302 392.742 201.172 392.742 201.172C399.309 197.61 404.359 192.398 409.703 188.144ZM403.247 187.773C399.077 191.376 395.164 195 390.695 197.357C390.695 197.357 390.622 197.489 390.578 197.507C387.778 198.577 384.803 200.049 384.803 200.049C377.063 204.073 369.012 207.434 360.759 210.248C364.112 202.383 372.331 196.792 380.896 193.455C387.99 190.753 395.576 189.253 403.247 187.773ZM411.419 249.18C398.003 239.307 383.233 230.812 367.57 225.296C367.515 225.166 367.459 225.088 367.389 224.977C367.391 224.977 367.436 224.971 367.436 224.971C376.651 220.355 388.275 220.043 395.322 226.934C401.873 232.929 406.3 241.165 411.419 249.18ZM411.164 254.318C403.596 259.444 392.357 258.773 384.706 253.054C377.168 247.401 371.045 239.267 368.752 230.357C383.661 236.021 397.85 244.43 410.804 254.111C410.804 254.111 411.103 254.282 411.164 254.318ZM367.084 157.688C370.1 164.496 369.783 172.857 366.063 179.393C361.689 187.234 354.216 193.143 345.81 196.771C355.511 184.627 363.099 171.06 366.111 155.858C366.457 156.454 366.799 157.056 367.084 157.688ZM362.048 154.481C362.044 154.533 361.926 154.82 361.926 154.82C359.304 168.825 352.283 181.491 343.194 193.006C340.586 177.944 348.512 161.804 362.048 154.481ZM320.736 157.438C319.652 167.241 318.218 176.915 313.979 185.333C310.053 193.374 302.116 199.076 293.318 201.042C303.378 191.137 311.441 179.417 316.106 166.137C316.106 166.137 317.543 161.743 315.421 161.135C313.642 160.626 312.019 164.705 312.019 164.705C308.026 176.22 301.149 186.507 292.601 195.451C294.135 178.946 305.28 163.793 320.736 157.438ZM337.229 261.249C338.531 264.615 339.445 268.159 339.879 271.752C332.101 258.605 321.63 246.984 309.159 238.349C321.768 238.701 332.328 248.672 337.229 261.249ZM337.676 276.521C322.109 273.745 309.542 258.751 307.589 242.676C319.884 251.453 330.272 263.186 337.676 276.521Z" fill="#677821"/>
<path d="M409.641 189.444C407.679 187.184 405.354 190.988 403.645 191.926C394.459 200.841 381.928 204.429 370.691 210.055C365.705 211.269 369.529 214.699 373 213.535C383.752 214.185 395.217 210.626 402.801 202.789C405.936 199.087 409.114 194.749 409.769 189.848L409.678 189.527L409.641 189.444Z" fill="#7B9122"/>
<path d="M410.157 245.52C405.107 237.408 400.166 228.396 391.805 223.23C384.176 219.388 374.498 220.235 367.158 224.222C366.543 227.463 372.461 227.493 374.629 229.219C386.551 234.173 397.649 240.768 408.321 247.906C409.9 248.59 411.004 246.886 410.157 245.52Z" fill="#AFC15C"/>
<path d="M402.226 188.034C400.2 186.389 397.201 188.395 394.857 188.428C385.761 190.668 376.622 193.774 368.787 199.002C365.764 201.901 361.791 204.756 360.714 208.965C361.661 211.549 364.97 209.485 366.795 209.089C376.261 205.043 385.989 201.304 394.786 195.919C397.334 193.623 401.182 191.896 402.393 188.567C402.377 188.381 402.317 188.196 402.226 188.034Z" fill="#A1BB34"/>
<path d="M368.235 157.613C367.791 155.474 364.802 155.585 364.713 157.857C361.514 171.109 354.582 183.203 346.803 194.195C345.726 196.502 348.942 197.02 350.234 195.684C360.296 190.273 369.195 180.574 370.026 168.736C370.006 164.992 369.583 161.127 368.235 157.613Z" fill="#95B134"/>
<path d="M362.291 155.046C360.298 152.843 357.804 156.431 356.136 157.484C346.198 165.468 340.62 178.729 342.103 191.403C342.371 194.134 345.482 192.705 346.116 190.963C353.492 180.312 360.429 168.658 362.454 155.682C362.434 155.463 362.389 155.244 362.291 155.046Z" fill="#A3B53C"/>
<path d="M410.694 253.518C405.891 248.412 399.314 245.276 393.451 241.527C385.803 237.376 378.326 232.449 369.93 230C366.774 230.168 368.701 234.09 369.535 235.661C374.92 246.972 385.02 258.049 398.349 258.607C402.485 258.484 407.299 258.299 410.648 255.664C411.103 255.038 411.077 254.171 410.694 253.518Z" fill="#718A1B"/>
<path d="M337.149 258.858C332.627 248.346 323.223 239.276 311.61 237.602C309.353 237.382 309.456 240.33 311.325 240.944C321.39 249.174 330.316 258.682 337.511 269.532C338.774 271.62 341.234 269.497 340.195 267.625C339.484 264.609 338.355 261.705 337.149 258.858Z" fill="#9EB134"/>
<path d="M336.846 273.168C329.687 261.29 320.061 250.984 309.074 242.582C306.169 241.839 306.947 245.871 307.519 247.516C310.339 256.2 314.708 264.744 322.257 270.237C326.793 273.68 332.113 276.823 337.832 277.241C339.264 275.936 337.347 274.436 336.846 273.168Z" fill="#7F9327"/>
<path d="M320.403 156.948C318.471 158.12 314.315 158.076 314.029 160.901C314.739 162.077 316.125 163.006 315.326 164.644C311.191 177.796 303.134 189.458 293.676 199.372C292.944 203.144 297.725 200.266 299.623 199.697C310.524 195.784 316.545 184.723 318.974 174.01C320.163 168.57 321.549 162.892 321.316 157.378L320.815 157.142L320.403 156.948Z" fill="#B6CB26"/>
<path d="M313.044 161.151C305.499 164.275 300.545 171.742 296.736 178.731C294.358 183.592 292.247 188.843 291.938 194.283C293.483 196.961 295.811 193.284 296.967 192.046C304.283 183.247 310.545 173.188 313.852 162.241C314.095 161.617 313.313 161.515 313.044 161.151Z" fill="#9AB627"/>
<path d="M218.807 59.7521C217.732 59.8929 216.938 60.8434 216.938 60.8434C206.237 80.3238 205.678 104.85 218.624 122.89C218.624 122.89 218.997 123.218 219.157 123.399C219.298 135.157 220.424 146.768 225.125 157.606C225.125 157.606 225.552 158.391 226.047 159.074C218.458 168.37 212.01 178.567 207.209 189.581C207.209 189.581 203.922 197.535 206.106 198.315C207.742 198.899 211.189 191.316 211.189 191.316C213.732 185.465 216.752 179.839 220.177 174.455C220.816 174.29 221.621 174.114 221.621 174.114C229.505 170.958 237.814 169.353 246.33 168.571C246.969 169.916 248.732 171.215 248.732 171.215C272.499 186.04 304.286 186.899 328.233 172.307C328.233 172.307 329.447 171.309 329.712 170.208C330.71 170.02 331.64 169.612 331.701 168.643C331.818 166.823 327.601 166.047 327.601 166.047C314.567 164.246 301.935 158 288.274 154.741C273.786 151.229 257.395 153.781 246.51 164.166C246.51 164.166 246.486 164.213 246.463 164.236C238.901 164.926 231.43 166.215 224.192 168.616C234.282 154.524 247.158 142.309 261.686 132.686C263.726 131.334 265.812 130.059 267.897 128.78C284.614 135.378 304.141 134.727 319.851 125.772C334.399 117.388 345.322 103.572 351.365 87.9982C351.365 87.9982 352.261 85.4099 352.043 83.6553C352.55 83.2281 352.888 82.7425 352.759 82.151C352.355 80.3107 347.325 81.0474 347.325 81.0474C330.598 84.2602 313.145 85.4119 296.378 90.6061C281.247 95.2975 268.165 107.035 264.257 122.436C264.257 122.436 263.964 124.595 264.706 125.65C262.891 126.772 261.068 127.868 259.283 129.047C248.055 136.47 237.753 145.392 228.909 155.539C224.527 145.57 223.589 134.506 223.535 123.006C224.613 122.543 225.573 121.574 225.573 121.574C239.682 103.376 239.654 75.4558 222.285 60.3037C222.285 60.3037 220.945 59.4993 219.872 59.9523C219.496 59.788 219.142 59.7028 218.807 59.7521ZM220.178 64.1788C234.561 76.8089 234.783 100.719 223.562 116.934C223.75 105.149 224.426 93.0369 223.029 81.1739C223.029 81.1739 222.313 78.4214 220.506 78.8206C218.793 79.1986 218.675 81.6707 218.675 81.6707C219.922 92.6461 219.335 104.197 219.161 115.721C210.507 100.295 211.646 80.4677 220.178 64.1788ZM347.86 85.371C347.673 85.7325 347.302 86.4014 347.302 86.4014C341.563 101.131 331.277 114.228 317.692 121.991C304.319 129.723 287.586 130.695 272.798 125.861C291.965 114.739 312.69 106.101 333.109 96.7119C333.109 96.7119 338.271 93.9334 337.234 92.3937C336.236 90.9149 331.29 92.7576 331.29 92.7576C310.233 102.425 288.593 111.378 268.492 123.301C271.819 109.703 283.895 99.072 297.689 94.7595C313.693 89.7517 330.872 88.619 347.86 85.371ZM277.057 157.643C280.49 157.737 283.936 158.19 287.27 158.976C299.299 161.863 311.121 167.403 323.867 169.784C302.063 182.07 273.506 181.083 251.971 168.075C269.718 167.27 288.347 169.974 306.557 171.883C306.557 171.883 309.772 171.848 309.796 170.017C309.819 168.24 307.03 167.53 307.03 167.53C289.66 165.605 271.59 163.085 253.96 163.697C260.53 159.329 268.756 157.412 277.057 157.643Z" fill="#88AA00"/>
<path d="M274.265 157.055C267.139 157.068 259.407 158.351 253.834 162.973C254.983 166.133 260.006 163.946 262.759 164.761C277.438 165.338 292.146 166.447 306.694 168.684C307.918 168.552 310 170.815 307.504 170.539C294.703 170.134 281.873 167.833 268.979 167.367C263.932 167.392 258.607 166.179 253.693 167.435C251.529 169.615 255.552 171.221 257.136 171.91C268.559 177.471 281.344 179.922 294.017 179.055C304.49 178.697 315.056 175.815 324.066 170.569C324.934 167.832 320.623 168.411 318.756 167.583C306.75 164.504 295.306 159.198 283.018 157.293C280.111 156.999 277.183 157.047 274.265 157.055Z" fill="#D0DF6C"/>
<path d="M346.665 84.7864C329.426 87.4152 311.884 89.2223 295.241 94.6812C282.983 99.1323 271.998 108.876 268.025 121.497C268.489 124.742 272.17 122.389 273.722 121.39C292.509 111.445 311.76 102.238 331.416 94.1009C332.693 93.8531 335.153 92.3652 336 93.3003C330.22 97.686 323.005 99.8586 316.571 103.151C301.838 109.962 287.07 116.761 272.864 124.629C270.962 127.292 275.56 127.512 277.362 128.102C286.21 130.453 295.541 129.903 304.451 128.239C322.593 123.474 337.434 109.545 345.403 92.801C346.299 90.4118 348.589 88.0986 348.196 85.4528C347.793 84.9739 347.301 84.6742 346.665 84.7864Z" fill="#BBE121"/>
<path d="M220.223 63.6243C217.427 65.4223 217.094 69.4897 215.672 72.3114C212.188 81.6618 212.042 91.9688 213.169 101.772C214.084 106.079 215.17 110.691 217.692 114.304C220.615 115.095 220.074 110.746 220.267 108.992C220.698 99.7736 220.111 90.535 220.006 81.3378C219.898 79.5481 222.414 80.1682 222.009 81.8022C223.42 93.1278 222.156 104.928 222.974 116.324C225.216 118.358 226.391 113.817 227.471 112.202C233.644 99.7551 234.375 84.0969 227.475 71.8005C225.426 69.0016 223.845 65.3209 220.701 63.6277L220.257 63.6213L220.223 63.6243Z" fill="#ABC837"/>
<path d="M38.9926 102.8C39.3776 102.366 39.9405 101.992 40.7215 102.278C40.885 102.339 40.9655 102.436 41.0882 102.516C42.0947 101.61 44.1025 102.497 44.1025 102.497C51.6294 106.822 59.4445 111.004 66.3726 116.693C73.4034 122.377 79.2921 130.599 79.6714 139.957C79.6714 139.957 79.5145 140.823 78.9672 141.373C86.656 147.024 94.8003 152.105 103.34 156.548C99.6977 150.142 96.3329 143.46 93.556 136.56C92.5582 137.36 91.234 136.733 91.234 136.733C83.8121 130.768 78.1897 122.355 76.3997 112.887C74.807 104.107 78.1818 94.8277 85.0309 89.2086C85.0309 89.2086 87.4065 87.4074 88.4414 89.0877C88.5049 89.1703 88.4532 89.2605 88.4879 89.345C88.6147 89.2929 88.748 89.2953 88.8955 89.2939C88.9856 89.1285 89.0027 88.9537 89.1644 88.7993C90.247 87.6511 91.6838 88.546 91.6838 88.546C103.785 100.194 106.247 119.719 97.2639 133.847C97.2639 133.847 96.9536 134.14 96.7818 134.337C99.8943 142.155 103.802 149.778 108.009 157.069C108.009 157.069 108.383 158.067 108.273 158.952C116.828 163.129 125.653 166.832 134.643 169.987C140.91 172.175 147.16 174.547 153.34 177.104C146.806 170.503 141.058 163.037 136.451 154.953C135.634 155.403 134.586 155.118 134.586 155.118C125.659 150.745 119.011 142.157 117.616 132.21C116.405 122.828 118.173 113.554 120.214 104.658C120.214 104.658 120.929 101.814 122.727 102.227C122.981 102.286 123.11 102.48 123.271 102.647C124.106 102.451 124.924 102.856 124.924 102.856C138.931 114.307 144.65 134.137 138.663 151.168C144.237 161.439 151.766 170.847 160.402 178.71C160.402 178.71 161.174 179.655 161.346 180.598C179.412 188.778 196.451 199.057 210.291 213.224C210.291 213.224 214.615 218.187 213.105 219.054C211.822 219.789 207.597 215.847 207.597 215.847C190.767 198.517 168.707 187.093 145.699 178.144C144.963 178.344 144.247 178.333 144.247 178.333C134.589 176.632 124.735 177.178 115.189 179.436C115.189 179.439 115.18 179.509 115.18 179.509C108.936 195.963 90.6729 207.233 73.4331 203.483C73.4331 203.483 72.7461 203.155 72.36 202.547C71.9506 202.594 71.5687 202.532 71.2771 202.248C70.7775 201.758 70.9926 200.986 71.3641 200.237C70.3823 199.367 70.9902 197.18 70.9902 197.18C77.5277 179.762 96.659 167.384 114.023 174.061C114.023 174.061 115.023 174.636 115.177 175.532C121.192 174.188 127.338 173.539 133.496 173.621C133.455 173.606 133.421 173.583 133.377 173.571C121.078 169.269 109.05 163.99 97.616 157.709C96.8151 157.831 96.0295 157.713 96.0295 157.713C87.0243 154.66 77.6013 153.345 68.0528 153.288C63.2886 161.997 54.6185 168.308 45.2497 171.246C34.9842 174.484 23.0539 170.643 17.5411 161.439C17.5411 161.439 16.8861 159.692 17.969 158.941C17.8942 158.871 17.8209 158.831 17.7526 158.738C16.7895 157.4 18.9435 155.477 18.9435 155.477C25.9235 150.083 32.5685 143.565 41.1464 139.685C50.8787 135.6 61.7782 139.382 68.918 146.689C68.918 146.689 70.1805 148.449 68.8734 149.438C68.8551 149.449 68.831 149.455 68.7887 149.472C68.7934 149.483 68.8008 149.49 68.813 149.507C74.9451 149.6 81.0367 150.243 87.0368 151.464C82.4847 148.578 78.0278 145.551 73.7639 142.271C72.9343 142.589 72.023 142.645 72.023 142.645C62.64 142.091 53.5307 138.007 46.8565 131.385C39.6938 124.252 36.3501 113.625 38.42 103.734C38.42 103.734 38.6127 103.235 38.9926 102.8ZM41.7214 107.155C40.9402 114.939 43.9055 123.139 49.5226 128.692C54.7961 133.925 61.8453 137.416 69.1978 138.525C64.6651 134.762 60.2584 130.838 56.1635 126.57C56.1635 126.57 54.4954 124.752 53.055 122.794C52.4533 122.909 52.0345 122.647 52.0345 122.647C47.6257 117.87 44.9287 112.159 41.7214 107.155ZM47.1437 108.662C49.5669 112.8 51.7727 116.884 54.7918 120.08C54.7918 120.08 54.8152 120.209 54.846 120.236C56.8521 121.904 58.8894 123.951 58.8894 123.951C64.1351 129.439 69.8229 134.467 75.8309 139.101C75.277 131.682 70.0764 124.77 63.9581 119.616C58.8739 115.399 53.0465 112.034 47.1437 108.662ZM23.1739 156.948C36.9959 152.582 51.5459 149.73 65.9962 149.585C66.0775 149.493 66.1456 149.444 66.2348 149.373C66.2335 149.372 66.1975 149.354 66.1975 149.354C59.9031 142.965 50.4162 139.445 42.6773 143.143C35.5984 146.242 29.6402 151.782 23.1739 156.948ZM21.9416 161.251C26.7356 167.597 36.1819 170.2 44.0891 167.637C51.8851 165.097 59.2115 160.116 63.6019 153.421C49.7314 153.901 35.6839 156.844 22.2958 161.182C22.2958 161.182 22.0015 161.238 21.9416 161.251ZM85.3763 94.0333C80.9809 98.794 78.894 105.77 80.1236 112.198C81.5255 119.884 86.0218 126.849 91.9275 132.197C87.3453 119.471 84.9046 106.167 86.691 92.7989C86.2387 93.1932 85.7878 93.5926 85.3763 94.0333ZM90.4243 92.8053C90.4129 92.8495 90.4299 93.1191 90.4299 93.1191C88.6579 105.39 90.8848 117.794 95.1388 129.83C101.515 118.156 99.518 102.637 90.4243 92.8053ZM123.622 106.839C121.763 115.217 120.228 123.588 121.356 131.712C122.333 139.437 127.27 146.362 133.964 150.452C128.459 139.468 125.108 127.551 124.993 115.303C124.993 115.303 125.044 111.281 126.962 111.376C128.57 111.456 128.762 115.271 128.762 115.271C128.818 125.877 131.595 136.281 136.125 146.048C139.495 132.022 134.569 116.412 123.622 106.839ZM80.894 187.716C78.8767 190.122 77.1291 192.785 75.7632 195.623C85.8604 186.978 97.7478 180.345 110.443 176.733C99.9587 173.484 88.462 178.732 80.894 187.716ZM76.239 200.169C89.8406 202.253 104.401 193.431 110.523 180.738C97.9307 184.516 86.0805 191.264 76.239 200.169Z" fill="#89A02C"/>
<path d="M41.4325 108.245C43.6829 106.934 44.53 110.72 45.6745 111.973C50.7383 121.894 60.0525 128.367 67.7283 136.156C71.4951 138.555 67.3821 140.307 64.8502 138.374C55.8116 135.891 47.3669 129.741 43.3202 121.156C41.7771 117.228 40.3772 112.762 41.2134 108.541L41.3788 108.303L41.4325 108.245Z" fill="#ABCD36"/>
<path d="M25.271 154.291C31.7078 149.027 38.3069 142.991 46.6443 141.083C54.0073 140.06 61.7404 143.474 66.6668 148.82C66.2638 151.662 61.3812 150.025 59.1105 150.838C47.9002 151.572 36.9077 153.888 26.1129 156.771C24.6203 156.892 24.1898 155.179 25.271 154.291Z" fill="#AAC031"/>
<path d="M47.9248 109.161C50.0556 108.375 51.9627 110.869 53.8837 111.554C60.7473 115.953 67.4025 121.077 72.3883 127.583C74.0645 130.82 76.5361 134.286 76.2417 138.056C74.7358 139.917 72.5896 137.288 71.1974 136.451C64.5366 130.461 57.5734 124.649 51.8394 117.745C50.3855 115.138 47.7001 112.635 47.6374 109.554C47.7027 109.405 47.8043 109.269 47.9248 109.161Z" fill="#C3DD48"/>
<path d="M84.4841 93.6524C85.4505 92.0153 87.8814 92.9458 87.3167 94.8419C86.2312 106.656 88.5462 118.563 91.8679 129.801C92.1076 132.003 89.3128 131.527 88.6233 130.064C81.8543 122.782 77.248 112.295 79.8868 102.311C80.954 99.2332 82.3878 96.1681 84.4841 93.6524Z" fill="#C2D920"/>
<path d="M90.0983 93.2054C92.359 91.9508 93.4061 95.606 94.4837 96.9416C100.429 106.308 101.3 118.796 96.5205 128.819C95.533 130.993 93.3723 128.943 93.3387 127.33C90.2535 116.487 87.8113 104.94 89.7862 93.6838C89.8635 93.5088 89.9619 93.3412 90.0983 93.2054Z" fill="#A8CD51"/>
<path d="M22.5615 160.723C27.9508 157.867 34.248 157.129 40.1296 155.688C47.5951 154.415 55.1366 152.456 62.7402 152.796C65.2923 153.821 62.6036 156.51 61.4758 157.57C53.8651 165.375 42.4364 171.663 31.301 168.381C27.9288 167.118 24.0154 165.614 21.9965 162.504C21.7974 161.861 22.0624 161.154 22.5615 160.723Z" fill="#C9D68B"/>
<path d="M81.6538 185.769C88.3295 178.38 98.6213 173.549 108.657 175.43C110.578 175.883 109.665 178.282 107.953 178.263C97.352 182.217 87.3313 187.543 78.3593 194.459C76.7326 195.825 75.3018 193.385 76.6835 192.135C78.1154 189.851 79.861 187.775 81.6538 185.769Z" fill="#BAC86F"/>
<path d="M77.893 197.644C87.1243 189.871 97.9468 184.084 109.355 180.248C111.956 180.451 110.184 183.554 109.251 184.748C104.49 191.109 98.4928 196.92 90.7326 199.325C86.0303 200.888 80.7655 201.984 75.9373 200.723C75.1248 199.246 77.1249 198.548 77.893 197.644Z" fill="#788B36"/>
<path d="M124.054 106.53C125.317 108.039 128.752 109.169 128.194 111.577C127.28 112.346 125.877 112.722 126.075 114.295C125.789 126.289 129.152 138.157 134.159 148.978C133.703 152.29 130.573 148.578 129.17 147.576C121.289 141.293 119.435 130.491 120.441 120.985C120.989 116.171 121.442 111.105 123.181 106.628L123.661 106.575L124.054 106.53Z" fill="#D0DF6C"/>
<path d="M128.905 112.054C134.244 116.745 136.227 124.286 137.403 131.112C137.998 135.784 138.262 140.701 136.989 145.269C134.965 147.041 134.08 143.359 133.475 142.015C129.919 132.714 127.585 122.67 127.935 112.725C127.909 112.143 128.582 112.278 128.905 112.054Z" fill="#92A237"/>
<path d="M190.265 127.595C188.268 127.665 186.245 127.999 184.2 128.625C168.958 134.252 162.84 152.444 166.794 167.83C166.794 167.83 166.864 168.018 166.888 168.018C166.817 168.011 166.463 167.947 166.463 167.947C150.944 167.854 133.752 174.381 129.114 189.6C125.69 205.987 143.749 216 159.743 218.603C152.658 231.524 156.68 249.222 170.162 256.352C184.855 263.421 203.055 255.371 209.101 240.608C209.101 240.608 209.11 240.466 209.113 240.466C209.324 240.56 209.803 240.83 209.803 240.83C223.767 245.353 240.423 246.726 252.138 237.094C256.801 232.977 258.447 226.342 256.529 220.513C253.58 212.116 247.018 205.972 240.298 200.922C240.369 200.851 240.712 200.655 240.712 200.655C245.28 196.842 251.93 193.921 255.486 187.372C260.78 176.789 258.921 162.922 249.664 155.178C241.321 148.573 229.614 148.001 220.114 152.34C215.954 138.738 203.923 127.08 190.265 127.595ZM190.477 131.646L190.465 131.67C201.794 130.916 212.654 142.152 216.217 154.474C216.217 154.474 217.123 156.542 218.423 156.852C218.635 156.899 218.825 157.016 219.055 156.969C219.077 156.963 219.078 156.946 219.102 156.923C220.022 156.97 220.898 156.734 220.898 156.734C229.178 152.547 239.962 152.778 246.905 158.565C254.518 164.495 255.981 176.582 251.563 185.422C249.385 190.34 243.104 192.8 237.868 197.321C237.868 197.321 234.399 200.6 236.267 202.089C236.455 203.237 237.443 204.284 237.443 204.284C243.943 209.273 250.094 214.765 252.375 221.909C253.805 226.021 252.587 231.084 249.282 233.784C239.774 242.303 224.512 240.61 211.12 236.562C211.12 236.562 206.983 235.356 206.28 237.278C206.233 237.395 206.26 237.529 206.257 237.653C205.562 238.254 205.093 239.024 205.093 239.024C200.21 251.496 184.002 258.77 172.111 252.465C160.653 247.053 157.225 230.918 163.68 220.162C163.68 220.162 165.889 216.654 164.504 215.419C164.142 215.098 163.729 215.07 163.302 215.164C162.574 214.668 161.809 214.386 161.809 214.386C146.783 211.58 128.741 203.295 133.303 190.769C136.34 178.092 152.137 172.669 166.467 172.453C166.467 172.453 168.136 172.358 169.512 171.882C169.803 171.975 170.108 171.999 170.434 171.869C170.909 171.682 171.113 171.107 171.223 170.45C171.226 170.427 171.246 170.402 171.246 170.379C171.248 170.357 171.233 170.332 171.234 170.308C171.445 168.78 171.046 166.73 171.046 166.73C167.652 153.171 172.814 136.715 185.603 132.729C187.22 132.1 188.859 131.754 190.477 131.646ZM197.233 146.493C186.405 145.421 175.098 151.089 172.051 161.863C172.051 161.863 171.957 163.508 173.835 163.743C175.581 163.954 176.175 162.893 176.175 162.893C178.527 151.635 195.147 147.243 205.324 153.565C205.324 153.565 206.96 154.544 208.211 152.922C209.446 151.321 207.58 149.877 207.58 149.877C204.401 147.962 200.843 146.851 197.233 146.493ZM215.647 157.678C215.647 157.678 214.278 157.537 213.755 159.305C213.255 160.995 214.07 161.718 214.07 161.718C223.496 165.321 229.886 176.17 228.311 186.076C228.311 186.076 228.099 187.661 230.118 188.137C232.052 188.592 232.593 186.717 232.593 186.717C234.33 174.608 227.033 162.203 215.647 157.678ZM205.81 157.934C188.172 158.434 173.019 171.999 169.503 189.339C169.503 189.339 169.485 191.273 171.334 191.461C173.083 191.625 173.76 190.174 173.76 190.174C176.691 174.78 190.45 162.368 205.893 162.227C205.893 162.227 208.349 162.179 208.489 160.139C208.607 158.12 205.81 157.934 205.81 157.934ZM230.118 159.499C230.118 159.499 228.865 159.244 228.177 160.967C227.522 162.606 228.165 163.345 228.165 163.345C236.18 167.187 239.376 178.3 237.057 187.411C237.057 187.411 236.733 188.874 238.707 189.533C240.577 190.158 241.29 188.514 241.29 188.514C244.162 177.656 240.203 164.887 230.118 159.499ZM200.545 163.515C200.545 163.515 198.646 163.817 198.787 165.686C198.928 167.425 200.352 167.869 200.352 167.869C207.895 168.209 215.383 172.881 217.577 179.878C219.805 186.448 218.929 194.121 215.455 200.172C215.455 200.172 214.319 202.197 215.976 203.386C217.622 204.564 219.239 202.344 219.239 202.344C223.353 195.199 224.335 186.337 221.702 178.483C218.542 169.594 209.744 163.935 200.545 163.515ZM198.979 172.964C195.901 173.201 192.857 174.143 190.185 175.742C183.419 179.753 178.27 186.556 176.684 194.361C175.329 203.309 182.846 210.933 191.41 211.902C200.141 212.984 209.626 207.789 211.473 198.753C212.802 193.778 213.41 186.289 207.725 182.292C203.252 180.328 198.707 182.221 195.898 184.754C192.745 186.963 189.731 190.515 189.433 195.162C189.806 197.612 191.064 199.395 192.72 200.597C192.72 200.597 194.429 201.803 196.553 201.968C198.701 202.132 200.444 201.362 200.447 200.343C200.451 198.754 194.891 197.008 194.891 197.008C193.875 196.59 193.354 196.038 193.788 195.249C193.624 192.776 196.067 190.34 198.555 188.202C201.153 186.563 204.113 184.796 205.627 186.115C208.855 187.007 207.51 192.984 207.167 198.038C206.465 204.3 198.593 208.301 191.919 207.585C185.647 206.822 179.379 200.923 180.954 195.224C182.219 188.768 186.689 182.927 192.417 179.491C196.579 177.024 202.067 176.469 206.27 178.351C206.27 178.351 209.892 179.869 210.697 178.714C211.976 176.881 208.004 174.469 208.004 174.469C205.172 173.209 202.057 172.729 198.979 172.964ZM159.119 174.893C146.21 180.194 144.39 199.102 154.206 208.907C154.206 208.907 155.833 210.411 157.178 208.665C158.328 207.184 157.226 205.838 157.226 205.838C149.551 198.45 150.864 181.901 160.586 178.873C160.586 178.873 161.583 178.216 161.06 176.496C160.527 174.749 159.119 174.893 159.119 174.893ZM165.427 179.454C164.314 179.757 163.512 181.006 163.512 181.006C158.139 193.501 160.482 208.829 169.637 218.997C178.41 228.556 192.751 231.878 204.827 227.526C204.827 227.526 208.738 225.952 207.653 223.91C206.825 222.352 203.347 223.462 203.347 223.462C193.011 227.246 180.242 224.309 172.864 216.075C164.875 207.354 162.789 193.57 167.502 182.729C167.502 182.729 168.216 180.264 166.617 179.551C166.195 179.363 165.798 179.36 165.427 179.454ZM228.177 193.137C226.357 192.529 225.217 195.005 225.217 195.005C222.479 202.691 219.231 210.198 213.196 214.584C206.93 219.562 197.653 219.068 189.142 216.986C189.142 216.986 187.282 216.892 186.874 218.648C186.465 220.392 188.05 221.243 188.05 221.243C197.169 223.673 207.686 223.914 215.816 218.065C222.886 212.596 226.637 204.416 229.365 196.461C229.365 196.461 230.195 193.813 228.177 193.137ZM232.883 203.666C231.005 203.901 230.895 205.692 230.895 205.692C231.409 216.72 221.839 227.239 210.747 227.805C210.747 227.805 209.535 228.216 209.606 230.014C209.676 231.819 211.026 232.125 211.026 232.125C224.558 231.073 235.469 219.058 235.189 205.547C235.189 205.547 235.047 203.396 232.883 203.666ZM166.628 221.146C164.811 221.31 164.59 222.857 164.59 222.857C165.635 230.849 171.255 238.128 179.389 239.973C186.579 241.395 194.124 239.616 200.144 235.618C200.144 235.618 202.071 234.217 200.726 232.501C199.567 231.022 197.73 231.968 197.73 231.968C192.588 235.346 186.137 236.925 180.251 235.704C174.216 234.685 169.759 228.647 168.921 222.3C168.921 222.3 168.405 220.981 166.628 221.146Z" fill="#FF8080"/>
<path d="M191.15 130.772C180.824 131.004 172.549 139.62 170.276 149.292C167.849 156.273 170.134 163.841 169.841 170.806C158.843 172.072 146.469 172.955 138.079 181.192C132.594 186.398 129.04 196.106 134.706 202.441C142.207 210.737 153.837 213.305 163.959 216.287C162.354 221.271 159.489 226.04 159.614 231.493C158.874 242.468 166.671 253.865 177.927 255.347C189.52 257.231 201.377 250.022 206.042 239.435C206.829 237.071 209.027 236.689 211.05 237.642C222.899 240.771 236.824 243.434 247.718 236.118C253.077 233.009 255.521 225.963 252.659 220.347C249.577 212.965 242.934 208.03 237.621 202.474C235.49 199.456 239.843 197.42 241.632 195.741C246.779 191.993 252.825 188.104 254.036 181.316C257.412 170.643 251.772 157.578 240.772 154.176C234.409 152.568 227.512 152.826 221.472 155.329C219.906 156.058 217.917 156.352 217.399 154.139C213.78 144.799 207.645 135.493 197.834 131.912C195.697 131.145 193.425 130.721 191.15 130.772ZM194.224 147.45C198.802 147.711 204.325 148.091 207.618 151.645C207.364 153.69 204.234 151.757 203.068 151.511C196.348 148.534 188.096 149.64 181.907 153.411C178.417 155.452 176.559 159.168 174.731 162.526C173.483 162.933 172.514 162.252 173.423 160.985C176.438 152.421 185.477 147.525 194.224 147.45ZM215.358 158.785C226.123 163.018 233.36 175.323 231.374 186.815C229.663 187.651 228.656 186.039 229.457 184.583C230.2 175.394 224.313 166.371 216.564 161.801C215.528 161.18 213.634 159.914 215.358 158.785ZM205.645 159.04C207.644 158.482 207.766 161.605 205.682 161.263C191.641 161.484 178.614 172.078 174.14 185.331C173.266 186.618 173.34 191.306 170.832 190.061C171.164 183.992 174.464 178.355 178.025 173.55C184.619 165.165 194.808 159.131 205.645 159.04ZM229.992 160.775C234.702 162.658 237.312 167.724 239.409 172.08C241.545 177.162 241.336 183.069 240.161 188.33C238.352 189.437 237.905 186.962 238.296 185.641C239.239 178.475 237.876 170.631 232.493 165.424C231.487 164.249 227.837 162.64 229.645 160.808C229.755 160.765 229.875 160.762 229.992 160.775ZM204.003 164.977C213.073 166.697 220.878 174.172 221.776 183.545C222.354 189.895 221.877 196.985 217.79 202.154C216.448 203.275 215.672 201.449 216.602 200.383C218.861 195.904 219.832 190.966 219.39 185.957C220.006 176.228 211.359 168.304 202.184 167.025C200.521 167.097 198.767 165.519 200.526 164.235C201.547 164.229 202.889 164.775 204.003 164.977ZM200.845 173.961C204.122 173.992 208.263 174.841 209.853 177.935C205.881 177.694 201.938 175.661 197.83 176.663C189.118 178.374 182.353 186.235 180.115 194.572C178.296 202.098 185.91 208.447 192.959 208.455C200.159 208.996 207.969 203.978 208.322 196.296C208.601 192.538 209.629 186.809 205.37 184.914C200.922 184.378 197.032 187.986 194.356 191.157C192.564 193.136 191.99 197.012 195.075 198.054C196.307 198.681 198.81 199.303 199.018 200.562C193.875 202.393 188.309 196.151 191.425 191.395C194.226 185.807 201.319 180.59 207.625 183.584C212.447 187.427 211.389 194.693 209.934 199.952C207.757 207.747 199.095 211.799 191.626 210.724C184.364 210.072 176.84 203.654 177.845 195.846C178.118 188.92 182.741 182.773 188.008 178.516C191.682 175.737 196.199 173.937 200.845 173.961ZM159.728 176.193C161.248 178.597 156.914 179.101 155.924 180.738C149.053 187.781 150.49 199.691 156.454 206.847C157.351 207.94 155.091 209.46 154.592 207.684C146.806 199.619 146.954 184.389 156.361 177.614C157.385 176.977 158.488 176.235 159.728 176.193ZM166.248 180.594C166.972 182.715 165.204 185.407 164.935 187.683C161.291 201.968 168.909 218.373 182.796 223.869C189.364 226.585 197.255 226.946 203.737 224.07C203.847 220.893 199.127 222.433 197.036 221.757C194.109 221.173 190.29 221.598 187.974 219.535C187.148 217.459 190.535 218.43 191.528 218.48C200.3 220.403 211.04 219.674 217.048 212.086C221.725 207.114 223.669 200.436 226.898 194.614C228.067 192.819 228.444 196.019 227.991 196.738C225.553 204.862 221.296 213.148 213.995 217.898C211.398 219.728 208.198 220.404 205.431 221.788C204.009 223.239 206.422 223.953 206.7 224.817C202.645 228.584 196.509 228.042 191.362 228.347C183.122 227.56 175.108 223.754 169.707 217.602C161.828 207.716 159.241 193.491 164.359 181.781C164.666 180.974 165.366 180.457 166.248 180.594ZM233.358 204.654C235.305 207.243 233.327 210.85 232.817 213.665C229.783 222.837 221.052 230.306 211.327 230.937C210.064 230.158 211.333 228.231 212.719 228.571C223.436 226.604 231.767 216.656 232.099 205.809C232.061 204.87 232.535 204.714 233.358 204.654ZM166.511 222.181C168.942 222.305 168.193 226.035 169.48 227.517C172.377 235.478 181.977 238.627 189.666 236.383C193.142 235.863 196.131 233.381 199.463 232.813C201.202 234.628 197.719 235.832 196.527 236.565C188.667 240.155 178.04 241.166 171.495 234.474C168.362 231.312 165.533 226.792 166.032 222.252C166.179 222.18 166.351 222.184 166.511 222.181Z" fill="#FFAAAA"/>
<path d="M272.061 184.836C270.659 184.065 269.131 183.464 267.469 183.057C254.683 180.671 243.014 190.666 239.42 202.864C239.42 202.864 239.391 203.022 239.407 203.031C239.362 202.998 239.144 202.809 239.144 202.809C228.516 196.378 214.02 193.811 204.588 202.37C195.512 212.229 203.818 226.521 213.743 234.872C203.572 240.847 199.076 254.662 205.419 265.094C212.618 275.981 228.431 277.914 238.643 270.246C238.643 270.246 238.708 270.153 238.71 270.154C238.817 270.306 239.035 270.688 239.035 270.688C246.778 279.525 257.664 287.302 269.668 285.487C274.562 284.57 278.416 280.685 279.489 275.891C280.906 268.91 278.917 261.994 276.369 255.766C276.447 255.746 276.763 255.752 276.763 255.752C281.468 255.006 287.237 255.726 292.368 252.683C300.349 247.58 304.76 237.286 301.573 228.165C298.549 220.202 290.736 215.006 282.426 214.091C285.147 203.035 281.659 190.086 272.061 184.836ZM270.544 187.708L270.526 187.719C278.622 191.849 281.478 204.028 278.872 213.959C278.872 213.959 278.646 215.753 279.413 216.499C279.539 216.618 279.621 216.777 279.799 216.839C279.816 216.844 279.824 216.832 279.85 216.826C280.463 217.236 281.162 217.433 281.162 217.433C288.572 217.952 295.889 222.535 298.288 229.361C301.088 236.561 297.135 245.469 290.471 249.733C286.956 252.22 281.63 251.335 276.176 252.294C276.176 252.294 272.447 253.124 273.12 254.914C272.778 255.78 273.028 256.905 273.028 256.905C275.449 263.002 277.424 269.3 276.061 275.147C275.357 278.56 272.442 281.54 269.063 282.041C259.032 283.996 249.236 276.571 241.691 268.294C241.691 268.294 239.343 265.767 238.071 266.801C237.99 266.862 237.954 266.965 237.901 267.049C237.177 267.177 236.538 267.514 236.538 267.514C228.065 274.083 213.94 272.434 208.353 263.221C202.697 254.801 206.961 242.304 215.81 237.559C215.81 237.559 218.767 236.053 218.322 234.636C218.205 234.267 217.933 234.078 217.601 233.967C217.304 233.328 216.894 232.821 216.894 232.821C207.717 224.727 198.714 211.631 206.988 204.892C214.277 197.424 227.36 200.177 237.299 205.907C237.299 205.907 238.485 206.527 239.626 206.764C239.787 206.948 239.988 207.089 240.265 207.134C240.668 207.199 241.044 206.888 241.39 206.482C241.401 206.468 241.425 206.458 241.435 206.442C241.445 206.428 241.445 206.405 241.455 206.389C242.227 205.425 242.794 203.853 242.794 203.853C246.023 193.139 256.323 183.946 266.749 186.453C268.119 186.684 269.387 187.118 270.544 187.708ZM269.097 200.685C262.094 195.506 251.996 194.763 245.482 200.919C245.482 200.919 244.742 202.011 245.936 202.943C247.05 203.805 247.894 203.319 247.894 203.319C254.129 196.545 267.355 200.345 271.757 208.866C271.757 208.866 272.48 210.21 274.005 209.608C275.511 209.014 274.82 207.256 274.82 207.256C273.421 204.635 271.431 202.412 269.097 200.685ZM277.166 215.928C277.166 215.928 276.283 215.269 275.198 216.27C274.161 217.226 274.424 218.058 274.424 218.058C279.425 224.402 279.367 234.48 274.22 240.643C274.22 240.643 273.424 241.646 274.617 242.801C275.759 243.908 276.9 242.84 276.9 242.84C283.062 235.23 283.136 223.709 277.166 215.928ZM270.299 212.068C257.97 205.175 241.989 208.284 232.458 218.76C232.458 218.76 231.652 220.082 232.846 220.97C233.981 221.8 235.042 221.081 235.042 221.081C243.371 211.701 257.922 208.814 268.595 215.053C268.595 215.053 270.302 216.027 271.236 214.683C272.145 213.344 270.299 212.068 270.299 212.068ZM286.366 223.117C286.366 223.117 285.609 222.427 284.429 223.329C283.307 224.187 283.445 224.958 283.445 224.958C287.378 230.888 285.016 239.837 279.684 245.149C279.684 245.149 278.861 246.021 279.948 247.285C280.977 248.481 282.142 247.644 282.142 247.644C288.57 241.359 291.088 230.957 286.366 223.117ZM264.39 213.744C264.39 213.744 262.961 213.173 262.291 214.515C261.674 215.769 262.472 216.658 262.472 216.658C267.517 219.986 270.747 226.269 269.385 231.979C268.221 237.41 264.471 242.324 259.601 245.058C259.601 245.058 257.989 245.985 258.64 247.482C259.288 248.967 261.311 248.104 261.311 248.104C267.069 244.88 271.38 239.191 272.792 232.713C274.267 225.306 270.541 217.807 264.39 213.744ZM259.437 219.597C257.224 218.497 254.745 217.895 252.252 217.899C245.956 217.88 239.626 220.444 235.333 225.158C230.732 230.753 232.771 239.077 238.26 243.257C243.817 247.583 252.469 247.903 257.446 242.449C260.4 239.575 263.89 234.677 261.622 229.597C259.353 226.412 255.453 225.849 252.482 226.438C249.409 226.662 245.88 227.867 243.768 230.939C243.02 232.776 243.153 234.518 243.798 236.023C243.798 236.023 244.478 237.554 245.871 238.538C247.28 239.532 248.794 239.718 249.214 239.019C249.869 237.928 246.763 234.447 246.763 234.447C246.236 233.743 246.104 233.15 246.727 232.786C247.628 231.018 250.307 230.346 252.894 229.897C255.353 229.837 258.112 229.836 258.612 231.364C260.464 233.301 257.088 236.858 254.779 240.192C251.727 244.208 244.675 243.729 240.381 240.499C236.382 237.401 234.494 230.775 237.915 227.503C241.433 223.585 246.902 221.403 252.248 221.392C256.121 221.403 260.122 223.273 262.238 226.291C262.238 226.291 264.106 228.82 265.133 228.357C266.764 227.621 265.023 224.334 265.023 224.334C263.594 222.306 261.649 220.698 259.437 219.597ZM231.247 204.57C220.199 202.918 211.19 215.168 213.916 225.935C213.916 225.935 214.417 227.637 216.058 226.988C217.456 226.442 217.25 225.064 217.25 225.064C215.005 216.838 222.697 206.001 230.622 207.908C230.622 207.908 231.577 207.865 231.923 206.468C232.274 205.049 231.247 204.57 231.247 204.57ZM233.712 210.293C232.823 210.045 231.758 210.574 231.758 210.574C222.939 216.959 218.261 228.457 220.383 239.202C222.491 249.371 230.986 257.538 241.073 259.501C241.073 259.501 244.407 260.024 244.499 258.175C244.569 256.764 241.723 256.1 241.723 256.1C233.065 254.461 225.493 247.204 223.8 238.517C221.886 229.244 226.107 218.914 233.795 213.396C233.795 213.396 235.296 211.994 234.49 210.848C234.277 210.546 234.005 210.381 233.712 210.293ZM271.231 245.442C270.23 244.278 268.43 245.512 268.43 245.512C263.395 249.671 258.082 253.499 252.135 254.038C245.786 254.889 239.611 250.744 234.615 245.821C234.615 245.821 233.375 244.994 232.374 246.033C231.378 247.064 232.118 248.299 232.118 248.299C237.39 253.711 244.52 258.191 252.508 257.506C259.611 256.647 265.546 252.563 270.684 248.214C270.684 248.214 272.341 246.735 271.231 245.442ZM270.146 254.61C268.759 254.001 267.949 255.187 267.949 255.187C263.778 262.979 252.884 266.283 245.027 262.121C245.027 262.121 244.026 261.907 243.337 263.172C242.645 264.442 243.447 265.205 243.447 265.205C253.18 270.034 265.609 266.251 270.96 256.849C270.96 256.849 271.745 255.313 270.146 254.61ZM217.433 239.444C216.117 238.812 215.33 239.784 215.33 239.784C212.77 245.706 213.646 253.015 218.481 257.621C222.839 261.548 228.756 263.421 234.534 263.142C234.534 263.142 236.434 262.97 236.213 261.238C236.023 259.746 234.372 259.643 234.372 259.643C229.452 259.855 224.37 258.294 220.824 255.04C217.094 251.864 216.508 245.885 218.536 241.178C218.536 241.178 218.722 240.06 217.433 239.444Z" fill="#A02C2C"/>
<path d="M271.374 187.389C264.18 183.312 254.957 185.84 249.427 191.556C244.894 195.359 243.361 201.498 240.302 206.166C232.222 202.524 223.355 198.054 214.208 200.274C208.302 201.603 201.877 206.818 203.173 213.497C204.925 222.276 211.866 228.813 217.6 235.015C214.452 237.783 210.526 239.886 208.375 243.685C203.364 250.926 204.047 261.958 211.176 267.595C218.372 273.646 229.48 273.555 237.03 268.191C238.541 266.89 240.209 267.529 241.208 269.014C248.069 276.026 256.549 283.569 267.038 283.009C271.997 283.071 276.568 279.23 276.905 274.196C277.815 267.857 275.273 261.739 273.901 255.741C273.674 252.792 277.501 253.178 279.42 252.758C284.496 252.293 290.247 252.101 293.864 247.931C300.563 241.98 302.047 230.685 295.881 223.834C292.167 220.119 287.32 217.467 282.141 216.709C280.766 216.567 279.278 215.953 279.83 214.22C281.174 206.315 280.775 197.401 275.5 190.915C274.346 189.511 272.958 188.287 271.374 187.389ZM266.644 200.114C269.683 202.172 273.324 204.699 274.13 208.493C273.116 209.795 271.758 207.181 271.058 206.534C267.659 201.731 261.533 199.106 255.732 199.158C252.495 199.13 249.694 200.922 247.06 202.48C246.035 202.248 245.649 201.382 246.793 200.884C252.379 196.234 260.601 196.577 266.644 200.114ZM276.521 216.576C282.184 223.902 282.111 235.33 276.031 242.414C274.512 242.287 274.481 240.766 275.629 240.094C279.909 234.082 279.564 225.465 276.113 219.144C275.655 218.292 274.873 216.645 276.521 216.576ZM269.74 212.767C271.343 213.203 270.145 215.399 268.854 214.31C259.111 208.701 245.81 210.64 237.298 217.913C236.169 218.44 234.297 221.693 233.084 219.807C235.802 215.773 240.383 213.251 244.801 211.409C252.774 208.351 262.253 208.383 269.74 212.767ZM285.764 223.948C288.229 227.174 287.945 231.727 287.599 235.582C286.982 239.951 284.415 243.926 281.449 247.06C279.752 247.079 280.46 245.195 281.271 244.447C284.858 239.908 287.139 233.957 285.575 228.169C285.366 226.949 283.517 224.346 285.511 223.828C285.605 223.843 285.689 223.891 285.764 223.948ZM266.176 216.174C271.704 221.077 274.002 229.418 270.775 236.229C268.567 240.831 265.33 245.508 260.401 247.385C259.018 247.605 259.234 246.031 260.31 245.68C263.7 243.528 266.394 240.532 268.145 236.908C272.56 230.473 269.867 221.479 264.085 216.835C262.912 216.203 262.354 214.398 264.09 214.237C264.794 214.652 265.493 215.578 266.176 216.174ZM260.319 221.054C262.559 222.419 265.057 224.702 264.88 227.481C262.25 225.686 260.373 222.671 257.138 221.674C250.448 219.277 242.572 221.904 237.614 226.717C233.276 231.144 235.905 238.632 240.747 241.53C245.474 244.855 252.901 244.61 256.296 239.474C258.029 237.005 261.086 233.489 258.936 230.439C256.098 228.246 251.944 229.13 248.804 230.212C246.76 230.837 244.775 233.266 246.468 235.248C247.058 236.184 248.523 237.639 248.15 238.589C243.864 237.738 242.598 231.164 246.691 229.173C250.909 226.481 257.925 225.805 261.031 230.45C262.769 235.07 259.061 239.631 255.904 242.648C251.21 247.113 243.593 246.345 238.9 242.542C234.176 239.114 231.637 231.616 235.531 226.662C238.56 222.013 244.26 219.684 249.626 218.918C253.292 218.516 257.135 219.131 260.319 221.054ZM231.14 205.72C231.199 207.996 228.013 206.564 226.661 207.283C219.048 209.306 215.15 218.082 216.314 225.447C216.481 226.567 214.305 226.685 214.691 225.259C212.647 216.521 218.997 206.113 228.243 205.315C229.208 205.297 230.271 205.24 231.14 205.72ZM233.816 211.419C233.444 213.175 231.124 214.299 230.006 215.754C221.64 224.078 220.147 238.48 227.437 247.955C230.838 252.517 236.114 256.002 241.749 256.684C243.128 254.546 239.252 253.667 238.092 252.345C236.32 250.743 233.52 249.468 232.775 247.1C233.059 245.334 234.988 247.392 235.651 247.833C240.891 252.754 248.573 256.659 255.816 253.908C261.07 252.409 265.146 248.616 269.754 245.938C271.295 245.184 270.241 247.539 269.634 247.847C264.625 252.431 258.3 256.38 251.333 256.651C248.797 256.843 246.32 255.994 243.85 255.81C242.277 256.225 243.643 257.706 243.48 258.413C239.147 259.339 235.151 256.449 231.488 254.548C226.147 250.626 222.2 244.722 221.012 238.277C219.651 228.249 223.709 217.41 232.031 211.46C232.573 211.032 233.266 210.964 233.816 211.419ZM270.076 255.49C270.352 258.068 267.513 259.737 266.007 261.462C260.159 266.522 251.093 268.075 244.149 264.518C243.601 263.465 245.263 262.661 246.077 263.463C254.251 266.508 264.059 263.087 268.736 255.768C269.096 255.107 269.486 255.194 270.076 255.49ZM216.936 240.114C218.556 241.196 216.511 243.453 216.788 244.999C215.513 251.66 220.82 257.764 227.026 259.376C229.628 260.444 232.702 259.964 235.225 260.941C235.675 262.902 232.787 262.301 231.667 262.315C224.792 261.559 217.072 257.893 215.319 250.609C214.462 247.15 214.372 242.882 216.578 239.966C216.708 239.977 216.825 240.05 216.936 240.114Z" fill="#FF8080"/>
<path d="M112.121 228.852C111.165 229.304 110.252 229.891 109.391 230.623C103.164 236.552 104.004 246.672 109.149 253.319C109.149 253.319 109.222 253.395 109.234 253.39C109.198 253.402 109.013 253.445 109.013 253.445C101.453 256.652 94.4682 263.426 95.404 271.792C97.1741 280.471 108.047 281.552 116.363 279.465C115.628 287.228 121.292 294.984 129.336 295.622C137.956 295.978 145.112 288.253 144.955 279.813C144.955 279.813 144.93 279.742 144.932 279.742C145.054 279.743 145.343 279.774 145.343 279.774C153.075 279.045 161.455 276.222 165.129 269.087C166.531 266.11 165.941 262.541 163.787 260.111C160.595 256.649 156.119 255.039 151.796 253.993C151.816 253.945 151.941 253.777 151.941 253.777C153.362 250.967 155.981 248.155 156.336 244.227C156.69 237.976 152.881 231.628 146.761 229.806C141.323 228.345 135.515 230.52 131.809 234.619C126.937 228.883 118.649 225.74 112.121 228.852ZM113.073 230.776L113.072 230.79C118.419 228.05 126.05 231.233 130.363 236.473C130.363 236.473 131.236 237.288 131.933 237.166C132.046 237.144 132.163 237.162 132.265 237.091C132.274 237.083 132.271 237.074 132.278 237.058C132.734 236.888 133.111 236.59 133.111 236.59C136.256 232.82 141.544 230.673 146.13 232.03C151.072 233.315 154.315 238.881 154.021 244.102C153.994 246.948 151.458 249.46 149.861 252.754C149.861 252.754 148.863 255.073 150.082 255.405C150.414 255.924 151.114 256.225 151.114 256.225C155.317 257.287 159.456 258.666 162.062 261.659C163.618 263.358 164.088 266.073 163.048 268.077C160.214 274.209 152.444 276.585 145.089 277.424C145.089 277.424 142.826 277.705 142.887 278.786C142.889 278.853 142.93 278.912 142.954 278.973C142.743 279.411 142.676 279.884 142.676 279.884C142.917 286.966 136.567 293.897 129.468 293.325C122.767 293.097 117.72 285.976 118.603 279.398C118.603 279.398 118.941 277.23 118.009 276.921C117.766 276.84 117.559 276.913 117.372 277.048C116.914 276.96 116.483 276.983 116.483 276.983C108.595 278.768 98.0929 278.524 97.6842 271.482C96.5032 264.687 103.042 258.742 109.959 255.633C109.959 255.633 110.75 255.238 111.319 254.718C111.48 254.703 111.633 254.65 111.764 254.519C111.955 254.328 111.934 254.006 111.85 253.664C111.847 253.652 111.851 253.636 111.846 253.624C111.843 253.613 111.83 253.604 111.826 253.593C111.608 252.806 110.985 251.894 110.985 251.894C106.494 246.017 105.554 236.94 110.932 232.324C111.586 231.679 112.309 231.167 113.073 230.776ZM119.467 236.574C113.981 238.322 109.675 243.445 110.453 249.318C110.453 249.318 110.752 250.137 111.713 249.858C112.606 249.594 112.672 248.954 112.672 248.954C111.456 242.992 118.611 237.375 124.88 238.314C124.88 238.314 125.88 238.447 126.148 237.396C126.412 236.36 125.203 236.05 125.203 236.05C123.257 235.785 121.296 235.991 119.467 236.574ZM130.757 238.149C130.757 238.149 130.063 238.367 130.179 239.336C130.29 240.262 130.837 240.442 130.837 240.442C136.172 240.218 141.55 244.15 142.861 249.293C142.861 249.293 143.09 250.107 144.171 249.915C145.206 249.731 145.076 248.707 145.076 248.707C143.382 242.46 137.237 237.961 130.757 238.149ZM126.031 240.335C117.566 244.274 113.047 254.04 114.973 263.202C114.973 263.202 115.369 264.145 116.307 263.849C117.191 263.562 117.216 262.715 117.216 262.715C115.414 254.622 119.498 245.708 126.972 242.403C126.972 242.403 128.155 241.865 127.795 240.845C127.429 239.839 126.031 240.335 126.031 240.335ZM138.17 236.001C138.17 236.001 137.507 236.14 137.534 237.121C137.559 238.055 138.027 238.279 138.027 238.279C142.726 238.466 146.607 243.196 147.39 248.108C147.39 248.108 147.539 248.887 148.636 248.794C149.676 248.705 149.678 247.757 149.678 247.757C148.798 241.88 144.199 236.505 138.17 236.001ZM124.643 244.15C124.643 244.15 123.784 244.695 124.244 245.573C124.677 246.388 125.462 246.305 125.462 246.305C129.198 244.89 133.815 245.591 136.347 248.53C138.807 251.256 139.989 255.167 139.569 258.835C139.569 258.835 139.441 260.057 140.496 260.288C141.542 260.515 141.863 259.097 141.863 259.097C142.364 254.764 140.984 250.253 138.059 246.989C134.661 243.332 129.2 242.426 124.643 244.15ZM125.862 249.069C124.417 249.829 123.135 250.924 122.172 252.261C119.725 255.628 118.649 260.012 119.514 264.137C120.731 268.768 125.981 270.897 130.344 269.573C134.813 268.269 138.333 263.758 137.337 258.98C136.94 256.285 135.666 252.519 132.066 251.768C129.481 251.751 127.67 253.623 126.836 255.443C125.767 257.177 125.047 259.534 125.876 261.854C126.571 262.966 127.555 263.569 128.612 263.806C128.612 263.806 129.695 264.034 130.761 263.669C131.839 263.299 132.525 262.559 132.313 262.063C131.982 261.29 128.915 261.607 128.915 261.607C128.333 261.617 127.965 261.458 128.01 260.984C127.412 259.817 128.089 258.121 128.849 256.561C129.768 255.22 130.836 253.742 131.848 254.065C133.603 253.822 134.202 257.008 135.095 259.535C136.066 262.725 133.08 266.318 129.687 267.369C126.48 268.313 122.198 266.76 121.769 263.661C121.031 260.26 121.979 256.485 124.042 253.615C125.547 251.544 128.097 250.125 130.533 250.158C130.533 250.158 132.611 250.137 132.76 249.407C132.998 248.248 130.563 247.909 130.563 247.909C128.923 247.89 127.308 248.31 125.862 249.069ZM106.9 258.359C101.739 263.64 104.817 273.208 111.641 275.914C111.641 275.914 112.747 276.304 113.034 275.174C113.283 274.213 112.465 273.791 112.465 273.791C107.188 271.809 104.358 263.494 108.447 259.985C108.447 259.985 108.794 259.457 108.179 258.731C107.554 257.994 106.9 258.359 106.9 258.359ZM110.921 259.253C110.444 259.633 110.315 260.408 110.315 260.408C110.323 267.605 114.674 274.561 121.253 277.583C127.518 280.389 135.182 278.998 140.137 274.352C140.137 274.352 141.708 272.769 140.753 272.004C140.024 271.42 138.567 272.688 138.567 272.688C134.338 276.693 127.519 277.942 122.208 275.487C116.499 272.924 112.597 266.664 112.615 260.409C112.615 260.409 112.446 259.062 111.519 259.051C111.275 259.048 111.081 259.13 110.921 259.253ZM144.276 252.751C143.264 252.837 143.229 254.279 143.229 254.279C143.509 258.587 143.504 262.916 141.491 266.311C139.49 270.042 134.879 271.747 130.308 272.519C130.308 272.519 129.385 272.863 129.554 273.801C129.721 274.734 130.669 274.816 130.669 274.816C135.61 274.085 140.769 271.999 143.494 267.453C145.783 263.314 145.891 258.554 145.55 254.117C145.55 254.117 145.398 252.657 144.276 252.751ZM148.769 256.881C147.905 257.388 148.227 258.282 148.227 258.282C150.788 263.532 148.343 270.648 143.072 273.248C143.072 273.248 142.57 273.701 142.981 274.56C143.393 275.422 144.113 275.288 144.113 275.288C150.467 271.941 153.25 263.817 150.283 257.311C150.283 257.311 149.764 256.296 148.769 256.881ZM120.241 279.258C119.393 279.718 119.61 280.516 119.61 280.516C121.792 284.18 126.048 286.539 130.387 285.731C134.178 284.915 137.471 282.47 139.558 279.266C139.558 279.266 140.201 278.181 139.188 277.629C138.314 277.153 137.62 277.998 137.62 277.998C135.83 280.717 133.027 282.836 129.911 283.476C126.765 284.246 123.334 282.246 121.597 279.338C121.597 279.338 121.07 278.805 120.241 279.258Z" fill="#FF8080"/>
<path d="M113.227 230.207C108.259 232.484 106.044 238.405 106.966 243.58C107.25 247.481 109.946 250.678 111.263 254.124C106.185 257.044 100.358 260.066 98.0079 265.826C96.434 269.505 96.7417 274.966 100.822 276.857C106.205 279.315 112.394 278.126 117.936 277.453C118.201 280.211 117.808 283.129 119.012 285.752C120.952 291.24 127.128 295.143 132.908 293.504C138.936 291.99 143.185 286.003 143.233 279.882C143.121 278.568 144.108 277.922 145.291 277.961C151.704 276.998 159.027 275.374 162.787 269.537C164.739 266.903 164.45 262.968 161.883 260.839C158.838 257.898 154.576 256.892 150.831 255.306C149.163 254.286 150.851 252.385 151.369 251.194C153.084 248.295 155.207 245.138 154.373 241.586C153.776 235.694 148.298 230.527 142.241 231.18C138.812 231.732 135.515 233.303 133.105 235.785C132.497 236.467 131.592 237.027 130.877 236.06C127.162 232.281 122.23 229.045 116.714 229.361C115.514 229.436 114.322 229.706 113.227 230.207ZM118.216 237.666C120.494 236.834 123.257 235.861 125.602 236.898C125.908 237.945 123.981 237.661 123.364 237.786C119.474 237.748 115.697 240.015 113.48 243.144C112.212 244.867 112.088 247.062 111.904 249.076C111.383 249.535 110.769 249.408 110.946 248.601C110.615 243.809 113.981 239.536 118.216 237.666ZM130.859 238.745C136.976 238.546 143.071 243.008 144.514 249.007C143.858 249.772 143.031 249.2 143.115 248.325C141.551 243.704 136.8 240.554 132.077 239.958C131.443 239.873 130.258 239.655 130.859 238.745ZM126.193 240.904C127.048 240.214 127.761 241.706 126.677 241.977C119.901 245.027 115.793 252.903 116.396 260.28C116.241 261.089 117.259 263.351 115.78 263.271C114.669 260.253 115.091 256.823 115.814 253.742C117.261 248.286 120.947 243.22 126.193 240.904ZM138.386 236.645C141.069 236.573 143.399 238.487 145.331 240.164C147.433 242.186 148.569 245.099 149.101 247.902C148.454 248.819 147.718 247.71 147.632 246.986C146.588 243.307 144.282 239.782 140.575 238.38C139.84 238.02 137.73 238.003 138.224 236.734C138.269 236.69 138.327 236.663 138.386 236.645ZM126.64 244.133C131.407 243.068 136.765 245.064 139.166 249.43C140.777 252.394 142.031 255.939 141.129 259.306C140.712 260.132 139.952 259.408 140.181 258.695C140.339 256.045 139.777 253.443 138.512 251.102C136.773 246.246 130.911 244.208 126.185 245.509C125.392 245.893 124.209 245.493 124.795 244.501C125.29 244.284 126.056 244.268 126.64 244.133ZM126.988 249.159C128.586 248.488 130.777 248.033 132.197 249.203C130.217 249.918 127.875 249.757 126.089 251.104C122.215 253.761 120.575 258.998 121.235 263.517C121.929 267.556 126.958 269.045 130.385 267.571C133.997 266.326 136.739 262.251 135.301 258.444C134.649 256.56 133.948 253.561 131.482 253.533C129.208 254.205 128.074 256.773 127.439 258.874C126.983 260.212 127.516 262.215 129.233 262.075C129.964 262.121 131.31 261.899 131.675 262.467C129.56 264.434 125.547 262.568 126.064 259.604C126.254 256.302 128.607 252.281 132.299 252.414C135.447 253.271 136.455 257.023 136.851 259.883C137.426 264.126 134.067 267.91 130.213 268.953C126.548 270.158 121.547 268.617 120.4 264.613C119.081 261.19 120.039 257.235 121.705 254.063C122.908 251.943 124.726 250.122 126.988 249.159ZM107.479 258.86C108.721 259.71 106.721 260.863 106.583 261.866C104.721 266.728 107.914 272.213 112.312 274.44C112.976 274.783 112.197 275.995 111.583 275.237C106.11 272.95 102.99 265.519 106.141 260.257C106.505 259.732 106.885 259.141 107.479 258.86ZM111.569 259.632C112.365 260.511 112.07 262.19 112.416 263.352C113.639 271.056 120.778 277.43 128.677 277.19C132.438 277.133 136.347 275.655 138.893 272.899C138.281 271.333 136.311 273.07 135.153 273.18C133.609 273.51 131.842 274.516 130.285 273.999C129.448 273.164 131.298 272.926 131.791 272.742C136.455 271.838 141.521 269.233 142.85 264.288C144.08 260.892 143.625 257.24 143.974 253.734C144.166 252.617 145.02 254.093 144.95 254.537C145.468 258.995 145.136 263.913 142.585 267.751C141.706 269.184 140.293 270.184 139.238 271.436C138.852 272.439 140.174 272.28 140.49 272.641C139.309 275.321 136.214 276.344 133.778 277.571C129.609 278.915 124.918 278.745 121.005 276.888C115.105 273.736 110.867 267.367 110.9 260.605C110.88 260.148 111.111 259.751 111.569 259.632ZM149.217 257.259C150.705 258.108 150.5 260.276 150.842 261.75C151.29 266.842 148.613 272.301 144.02 274.645C143.244 274.531 143.456 273.33 144.201 273.204C148.996 270.002 150.959 263.423 148.847 258.084C148.632 257.636 148.83 257.46 149.217 257.259ZM120.411 279.782C121.619 279.333 122.036 281.303 122.972 281.753C126.048 285.014 131.372 284.532 134.638 281.831C136.217 280.85 137.149 279.017 138.649 278.043C139.875 278.56 138.435 279.875 138.009 280.481C134.943 283.873 129.991 286.591 125.409 284.711C123.224 283.831 120.902 282.228 120.194 279.918C120.25 279.852 120.334 279.818 120.411 279.782Z" fill="#FFD5D5"/>
</svg>
