<svg width="299" height="299" viewBox="0 0 299 299" fill="none" xmlns="http://www.w3.org/2000/svg">
<path d="M0 0.067627H149.466C232.014 0.067627 298.932 66.9859 298.932 149.534V299H0V0.067627Z" fill="#E97D95" fill-opacity="0.51"/>
<path d="M218.141 203.555L216.226 195.963L216.388 172.979L217.44 164.218L218.141 145.644C215.077 145.895 212.841 145.082 207.627 148.097L200.969 152.653L187.652 162.115C185.542 163.003 185.054 163.73 179.942 164.919L176.618 164.539L167.676 163.517L157.163 161.414C156.03 161.237 154.922 161.011 153.474 161.474C151.353 162.239 150.069 162.751 148.773 164.011C147.785 164.617 145.999 165.035 145.598 166.671C145.131 167.449 144.425 168.308 144.897 168.773C147.565 174.367 152.137 177.422 155.761 181.74L164.522 196.459L169.078 203.818C170.713 206.838 172.349 206.763 173.984 208.023C180.876 210.983 187.769 213.322 194.661 213.981L199.567 214.332C203.059 213.923 206.338 212.73 208.246 210.827C212.406 207.157 216.973 205.623 218.14 203.555L218.141 203.555Z" fill="url(#paint0_linear_803_2)" stroke="#553D67" stroke-width="0.81238"/>
<path d="M218.227 203.992C223.026 203.97 223.379 200.736 224.798 199.261C228.908 197.79 230.532 192.643 232.157 188.748C233.986 182.993 236.112 177.297 236.362 171.226C237.174 167.918 236.431 165.128 236.362 162.114C235.224 157.626 233.585 153.305 231.456 149.147C228.579 143.884 228.459 137.909 223.315 133.006C222.743 128.703 223.412 124.782 221.293 120.061C217.322 117.84 213.35 114.104 209.378 112.876C206.137 109.947 204.695 111.742 202.369 110.949L214.985 123.565L219.107 132.636C218.44 139.451 217.323 146.063 217.622 153.828C216.287 164.144 214.586 174.387 214.819 185.018L216.161 196.023L218.227 203.992Z" fill="url(#paint1_linear_803_2)" stroke="#553D67" stroke-width="0.81238"/>
<path d="M202.369 110.947L214.81 123.564L219.19 131.799C219.456 133.481 218.364 140.596 217.788 145.642L213.145 146.08C212.165 146.284 210.698 146.575 209.378 147.044L204.471 150.198L210.604 137.582L212.181 133.026L213.758 126.192L202.369 110.947Z" fill="url(#paint2_linear_803_2)" stroke="#553D67" stroke-width="0.81238"/>
<path d="M181.581 211.07L177.864 216.026C176.961 217.009 175.852 217.691 173.652 216.769L169.439 206.114L164.607 196.573L170.904 205.676L176.253 208.84L181.581 211.07Z" fill="url(#paint3_linear_803_2)" stroke="#553D67" stroke-width="0.81238"/>
<path d="M172.631 214.667L168.112 214.484C158.314 209.528 143.758 175.952 158.711 204.948L152.764 193.302L148.056 185.867L144.339 171.99L151.029 179.92L158.216 187.602L162.428 192.558L167.88 202.966L172.631 214.667Z" fill="url(#paint4_linear_803_2)" stroke="#553D67" stroke-width="0.81238"/>
<path d="M160.669 190.15L153.485 182.966L144.023 172.102L140.343 166.144L134.634 155.477L130.18 152.828L128.428 149.849V148.973L133.334 145.293L136.313 140.912L137.89 139.686L141.395 133.202L144.724 128.822L147.528 127.42L150.857 125.142L158.041 122.426L162.071 118.834L165.838 113.402L169.343 105.78L171.533 105.693C173.447 105.446 173.853 106.491 174.162 107.62L178.542 110.248L184.85 110.599L192.034 112.351C190.453 113.535 189.273 115.361 186.603 114.804L180.295 116.732L177.316 118.659L170.657 119.886H165.751L161.721 122.339L157.866 127.245L154.361 132.502L151.908 135.13L147.352 134.955L146.651 137.233L147.528 137.933L151.383 139.51L151.207 141.613L149.981 146.87V152.652L150.682 158.785L150.594 162.728L145.775 165.969L144.373 168.247L146.651 171.927L155.413 181.389L160.669 190.15Z" fill="url(#paint5_linear_803_2)" stroke="#553D67" stroke-width="0.81238"/>
<path d="M194.31 156.332L195.186 145.643V137.408L194.485 127.069L192.952 121.068L191.507 118.659L191.682 116.206L194.661 113.227L195.011 110.949L196.939 112.351L199.742 119.71L202.546 124.266L208.153 130.924L211.482 134.253L210.255 138.459L206.575 145.293L204.473 150.024L195.361 156.332L194.31 156.332Z" fill="url(#paint6_linear_803_2)" stroke="#553D67" stroke-width="0.81238"/>
<path d="M151.205 142.313L157.688 155.63L157.337 161.237L154.709 161.062L152.606 161.675L150.504 162.639L149.628 146.343L151.205 142.313Z" fill="url(#paint7_linear_803_2)" stroke="#553D67" stroke-width="0.81238"/>
<path d="M192.645 158.434L184.497 152.74L179.591 150.024L169.252 146.87L162.068 144.767L162.769 142.314L160.491 128.647V125.492L163.295 127.77L169.953 139.16L172.056 130.749L175.736 123.915L179.941 119.36L183.446 117.607H186.6L192.12 123.039L193.171 121.9L191.681 119.184L191.331 116.556L194.66 113.051L194.835 111.124L189.053 114.278L181.869 116.556L179.766 116.731L177.138 118.658L172.232 119.534L166.099 119.885L161.368 122.513L157.513 127.244L154.008 132.851L151.905 134.954H147.35C146.977 135.198 146.602 135.439 146.39 136.005C146.009 136.94 146.402 137.294 146.649 137.758L151.38 139.51V143.014L157.688 156.156L157.513 161.238L165.573 162.99L178.014 164.567L179.766 165.093L185.373 163.165L189.754 160.362L192.645 158.434Z" fill="url(#paint8_linear_803_2)" stroke="#553D67" stroke-width="0.81238"/>
<path d="M163.031 142.139C164.109 140.791 166.62 141.84 168.551 141.789L174.509 140.475L182.481 137.321L189.227 138.285L191.155 138.197L195.01 133.729L195.185 138.109L194.887 145.639L194.484 155.807L195.535 156.332L191.856 159.136L191.155 157.384L179.415 150.024L161.892 144.943L163.031 142.139Z" fill="url(#paint9_linear_803_2)" stroke="#553D67" stroke-width="0.81238"/>
<path d="M162.594 143.191L160.141 128.822L160.667 125.318L163.646 127.596L169.779 139.16L172.232 130.574L175.912 123.916L179.942 119.01L183.622 117.433L186.601 117.783L191.682 122.864L192.558 122.952L190.455 126.369H188.528C186.731 125.493 191.13 127.644 188.878 126.194L183.271 122.689L178.891 126.369L176.262 131.275L174.335 137.233V140.737L174.16 140.913L166.45 141.964L163.822 141.614L162.594 143.191Z" fill="url(#paint10_linear_803_2)" stroke="#553D67" stroke-width="0.81238"/>
<path d="M178.365 128.297L178.716 131.626L180.994 134.43L185.374 134.605L188.879 133.729L190.105 127.071L192.997 121.551L194.486 126.72L195.012 133.729L191.157 138.285L182.22 137.409L177.489 140.037L174.51 140.563L174.335 136.883L176.788 130.049L178.365 128.297Z" fill="url(#paint11_linear_803_2)" stroke="#553D67" stroke-width="0.81238"/>
<path d="M179.371 132.589C179.371 132.589 181.956 130.574 181.956 129.873C181.956 129.172 183.445 129.785 183.445 129.785L186.424 126.719L188.001 125.667L190.191 126.543L188.702 133.552L186.161 134.516C185.091 135.286 182.569 134.458 180.905 134.604L179.371 132.589Z" fill="url(#paint12_linear_803_2)" stroke="#553D67" stroke-width="0.81238"/>
<path d="M177.665 128.12L178.716 132.15L180.118 132.501L181.87 129.873L183.097 130.398L186.076 127.069L188.178 125.492L183.447 122.864L179.68 125.142L177.665 128.12Z" fill="url(#paint13_linear_803_2)" stroke="#553D67" stroke-width="0.81238"/>
<path d="M152.804 124.297L152.541 119.193L165.457 109.338L169.685 103.276L170.924 98.3198L173.402 96.5852L178.11 95.8418L182.57 99.311H184.553L186.287 102.532L190.5 104.019L201.156 109.967L213.669 126.074C213.618 129.431 212.724 131.976 211.79 134.183C207.55 132.008 202.593 126.364 200.171 120.865L196.702 112.935L195.215 110.705L192.489 112.192L183.569 110.209H177.869L172.913 105.997L171.178 105.501L169.196 105.749L165.974 113.431L161.762 119.13L156.805 123.591L154.968 123.576L152.804 124.297Z" fill="url(#paint14_linear_803_2)" stroke="#553D67" stroke-width="0.81238"/>
<path d="M187.018 102.753L189.511 99.3114L196.434 98.0423L200.414 95.5943L202.645 91.6293L210.574 93.6118L225.442 102.285L234.859 107.241L240.559 113.932L246.506 125.083L252.453 138.216L254.683 149.12L254.436 156.306L250.223 163.74L244.523 169.44L238.824 171.918L236.098 174.148L236.841 167.706L236.346 161.758L233.677 154.091L230.398 146.89L226.433 136.978L223.274 132.827L222.278 123.611L220.894 120.61C218.984 118.759 216.09 116.469 213.052 114.618L209.087 112.708L205.297 111.236H202.529L197.936 108.233L191.245 104.268L187.018 102.753Z" fill="url(#paint15_linear_803_2)" stroke="#553D67" stroke-width="0.81238"/>
<path d="M130.178 147.569V142.137L132.28 136.53L134.383 128.119L141.042 121.811L143.232 119.621L146.649 110.684L148.576 106.742L152.606 105.165L157.863 107.443H163.821L167.325 108.144L159.966 114.101L152.607 119.358V124.615L148.051 127.068L144.196 129.17L138.939 137.756L137.538 140.385L133.245 145.554L130.178 147.569Z" fill="url(#paint16_linear_803_2)" stroke="#553D67" stroke-width="0.81238"/>
<path d="M229.707 104.64L226.903 98.3323L224.45 92.3746L218.142 86.0665L209.381 79.408L201.671 75.9033L194.312 73.4502L185.551 73.0997L179.593 74.5015L175.387 76.6042L170.832 82.5619L167.327 86.0665L165.224 91.3231L174.336 95.8789L175.138 96.4597L178.112 95.8402L182.887 99.2519L184.555 98.9378L186.515 102.421C188.181 103.189 188.595 100.264 189.635 99.1857L196.202 98.4423L200.167 95.7165L202.813 91.9857L210.903 93.9606L229.707 104.64Z" fill="url(#paint17_linear_803_2)" stroke="#553D67" stroke-width="0.81238"/>
<path d="M175.212 96.231L164.523 90.624L162.946 89.5727L162.245 88.8718L161.019 87.9957H159.442L157.69 89.2222L146.826 92.902L141.92 93.9534L138.59 96.0561L134.034 97.8083L130.004 100.787L127.201 105.168L125.624 110.074L125.448 113.053L125.799 115.681L125.624 119.886L126.5 123.04L128.953 127.421L132.282 136.533L134.385 128.648L136.663 126.019L143.847 119.361L146.125 112.352L148.578 106.92L152.608 105.343L155.412 106.57L157.69 107.446H163.472L166.276 107.621L167.152 107.796L169.43 104.117L170.831 98.8599L172.146 97.721L175.212 96.231Z" fill="url(#paint18_linear_803_2)" stroke="#553D67" stroke-width="0.81238"/>
<path d="M243.722 119.711L245.475 119.535L252.133 119.886L257.39 119.185L261.42 120.412L272.809 124.091L279.293 127.421C282.384 128.811 282.358 129.953 282.096 130.925L280.87 132.327L277.716 134.955L276.489 135.481C275.672 136.649 275.672 137.35 276.489 137.584L279.818 138.285L283.148 138.46L286.302 139.336C288.095 139.695 288.651 140.673 288.58 141.964L285.601 142.49L285.25 143.629L287.178 144.067L288.58 144.417L290.507 145.118C291.808 145.761 291.696 146.403 291.383 147.046L288.842 148.272L286.126 150.2L285.426 152.828L286.302 155.632L278.592 151.076L277.365 150.024L274.737 149.499L271.232 147.747L267.728 148.272L263.347 150.024L259.667 152.478L257.565 154.58L254.586 156.508V148.36L252.571 138.46L248.891 130.487L243.722 119.711Z" fill="url(#paint19_linear_803_2)" stroke="#553D67" stroke-width="0.81238"/>
<path d="M207.126 216.079L204.823 221.428L201.862 225.934L203.291 230.291L204.08 232.827L205.349 234.839L209.531 235.305C211.018 235.367 212.505 236.278 213.992 235.305L218.7 234.562H222.665L232.329 232.084L248.188 228.367L256.614 225.393L263.304 224.154L271.73 218.207L276.686 210.029L281.394 203.834L285.359 200.365L287.094 197.144V193.674L285.111 192.683L283.377 192.435L286.35 185.745L288.58 180.293L292.05 174.593L294.776 168.646L294.528 166.168L292.05 162.699L290.315 159.23L284.863 156.752L278.348 155.643L276.438 152.291L272.969 150.804L270.986 151.052L266.103 152.304L261.673 155.643L258.596 158.018L256.366 159.725L252.401 167.159L247.197 172.363L243.976 173.85L241.25 174.594L238.276 177.567L237.285 183.019L234.064 193.179L230.347 199.621L223.408 205.569L220.682 206.56L215.974 210.029L211.514 212.637L208.963 214.955L207.126 216.079Z" fill="#88528C" stroke="#88528C" stroke-width="0.81238"/>
<path d="M157.311 207.874L148.53 209.401L135.572 212.453L129.776 215.166L127.389 216.523L123.297 219.915C119.866 222.463 118.123 224.592 116.477 226.698C114.325 229.594 114.957 230.645 115.454 231.785L113.749 234.159L112.044 236.533L108.634 243.655C106.969 245.85 106.524 248.045 108.069 250.24L110.68 253.83L115.113 260.953L121.251 268.414L129.776 276.554L132.325 279.606C134.5 281.815 135.673 281.53 137.278 282.32L142.052 285.372L146.826 291.816L151.941 289.781L162.511 294.868L175.469 296.903L186.381 295.208L193.201 291.477L199.338 287.407L202.407 284.355L206.158 279.267L208.545 274.519L213.784 254.756L215.488 247.935L214.805 241.399L210.591 238.229L205.136 237.89L202.408 237.551L201.385 235.855L200.362 231.446L198.998 229.411L198.381 226.28L199.079 219.739L200.021 220.593L194.309 220L181.266 217.456L178.538 220.847L176.833 221.271C174.568 221.33 171.236 220.572 168.138 220.424C165.211 217.286 163.583 214.366 159.187 211.521C159.413 209.019 157.681 209.175 157.311 207.875L157.311 207.874Z" fill="#88528C" stroke="#88528C" stroke-width="0.788334"/>
<path d="M128.426 149.498L125.622 149.147L121.767 148.797L119.665 148.446C116.232 149.234 115.638 151.158 114.408 152.827C113.769 152.665 113.344 153.916 107.749 158.259L104.595 161.062L100.39 161.413L97.9369 160.712C97.1192 159.832 96.3015 160.075 95.4837 161.062L94.082 163.866C92.0838 167.691 91.4103 171.137 92.6802 174.029L91.9793 178.584C91.8772 182.76 92.3225 185.841 94.082 186.294L93.3811 188.046C93.4089 193.626 97.2389 195.403 99.3388 198.91L105.297 204.868C106.695 206.695 108.354 207.44 109.997 208.252C113.707 209.194 112.922 209.248 114.455 209.557L118.964 210.475C121.139 210.31 121.896 209.664 122.819 209.073C124.921 209.205 127.024 208.899 129.127 208.372L137.888 205.218L151.205 202.064L156.462 200.925L153.308 195.055L148.051 185.681L144.546 173.328L137.332 160.299L134.734 155.455L130.441 153.002L128.426 149.498Z" fill="url(#paint20_linear_803_2)" stroke="#553D67" stroke-width="0.81238"/>
<path d="M156.977 201.044L147.954 202.621L134.637 205.775L128.679 208.578L126.226 209.98L122.02 213.485C118.495 216.118 116.704 218.318 115.011 220.494C112.8 223.486 113.449 224.572 113.96 225.75L112.208 228.203L110.456 230.656L106.951 238.016C105.239 240.284 104.782 242.551 106.37 244.819L109.054 248.529L113.609 255.888L119.918 263.598L128.679 272.009L131.298 275.163C133.534 277.445 134.739 277.15 136.389 277.966L141.295 281.12L146.201 287.779L151.458 285.676L162.322 290.933L175.639 293.035L186.853 291.283L193.862 287.428L200.17 283.223L203.324 280.069L207.179 274.812L209.632 269.906L214.889 249.23L215.239 243.973L213.137 236.964L211.735 232.408L206.128 232.058L203.324 231.707L202.273 229.955L201.222 225.399L199.82 223.297L204.025 216.989L205.252 213.046L200.871 214.185L195.001 213.572L181.597 210.943L178.793 214.448L177.041 214.886C174.713 214.947 171.288 214.163 168.105 214.01C165.097 210.768 163.423 207.75 158.905 204.811C159.138 202.225 157.357 202.387 156.977 201.044Z" fill="url(#paint21_linear_803_2)" stroke="#553D67" stroke-width="0.81238"/>
<path d="M204.898 213.006C203.199 215.254 203.181 216.662 202.595 218.354C201.608 219.425 200.621 219.882 199.634 222.86C199.755 224.974 199.964 224.997 202.055 227.141C201.747 228.612 201.63 228.592 201.852 229.753C202.432 231.368 202.725 231.256 203.121 231.766C204.999 232.889 205.971 232.2 207.304 232.231C208.79 232.293 210.277 233.205 211.764 232.231L216.472 231.488H220.437L230.101 229.01L245.961 225.293L254.386 222.319L261.229 220.775C265.261 219.945 267.2 217.389 269.502 215.133L274.458 206.955L279.166 200.76L283.131 197.291L284.866 194.07L284.561 191.516L282.883 189.609L281.911 188.751L284.122 182.671L286.353 177.219L289.822 171.52L292.548 165.572L292.3 163.094L291.042 159.473L288.087 156.156L282.636 153.678L277.359 149.843L274.21 149.217L270.741 147.731L268.759 147.978C265.926 147.432 264.691 148.163 263.875 149.23C262.629 149.987 261.991 149.808 259.445 152.569L256.369 154.944L254.138 156.652L250.173 164.086L244.97 169.29L241.748 170.776L239.022 171.52L236.049 174.494L235.057 179.945L231.836 190.105L228.119 196.548L221.181 202.495L218.455 203.486L213.747 206.956L209.286 209.564L206.736 211.882L204.898 213.006Z" fill="url(#paint22_linear_803_2)" stroke="#553D67" stroke-width="0.81238"/>
<path d="M5.339 49V6.07H14.826V23.454H21.451V6.07H30.991V49H21.451V30.238H14.826V49H5.339ZM5.18 100V57.07H24.472V63.536H14.667V74.189H22.14V80.761H14.667V93.587H24.578V100H5.18ZM3.113 151L11.222 108.07H22.034L30.037 151H21.292L19.861 141.937H13.554L12.07 151H3.113ZM14.402 136.266H18.96L16.681 119.518L14.402 136.266ZM5.18 202V159.07H14.667V195.587H24.525V202H5.18Z" fill="#E6A7CA"/>
<defs>
<linearGradient id="paint0_linear_803_2" x1="201.496" y1="212.926" x2="168.902" y2="127.419" gradientUnits="userSpaceOnUse">
<stop stop-color="#FF83EE"/>
<stop offset="1" stop-color="#FFE4EE"/>
</linearGradient>
<linearGradient id="paint1_linear_803_2" x1="202.196" y1="157.206" x2="236.538" y2="157.206" gradientUnits="userSpaceOnUse">
<stop stop-color="#FF83EE"/>
<stop offset="1" stop-color="#FFE4EE"/>
</linearGradient>
<linearGradient id="paint2_linear_803_2" x1="202.196" y1="130.573" x2="219.365" y2="130.573" gradientUnits="userSpaceOnUse">
<stop stop-color="#F56695"/>
<stop offset="1" stop-color="#FFE4EE"/>
</linearGradient>
<linearGradient id="paint3_linear_803_2" x1="164.804" y1="207.351" x2="181.755" y2="207.351" gradientUnits="userSpaceOnUse">
<stop stop-color="#FF83EE"/>
<stop offset="1" stop-color="#FFE4EE"/>
</linearGradient>
<linearGradient id="paint4_linear_803_2" x1="144.164" y1="194.292" x2="173.503" y2="194.292" gradientUnits="userSpaceOnUse">
<stop stop-color="#FF83EE"/>
<stop offset="1" stop-color="#FFE4EE"/>
</linearGradient>
<linearGradient id="paint5_linear_803_2" x1="128.253" y1="147.919" x2="192.205" y2="147.919" gradientUnits="userSpaceOnUse">
<stop stop-color="#FF83EE"/>
<stop offset="1" stop-color="#FFE4EE"/>
</linearGradient>
<linearGradient id="paint6_linear_803_2" x1="191.334" y1="133.64" x2="211.657" y2="133.64" gradientUnits="userSpaceOnUse">
<stop stop-color="#F56695"/>
<stop offset="1" stop-color="#FFE4EE"/>
</linearGradient>
<linearGradient id="paint7_linear_803_2" x1="149.456" y1="152.474" x2="157.512" y2="152.474" gradientUnits="userSpaceOnUse">
<stop stop-color="#F56695"/>
<stop offset="1" stop-color="#FFE4EE"/>
</linearGradient>
<linearGradient id="paint8_linear_803_2" x1="146.477" y1="138.108" x2="195.011" y2="138.108" gradientUnits="userSpaceOnUse">
<stop stop-color="#F56695"/>
<stop offset="1" stop-color="#FFE4EE"/>
</linearGradient>
<linearGradient id="paint9_linear_803_2" x1="161.72" y1="146.781" x2="195.712" y2="146.781" gradientUnits="userSpaceOnUse">
<stop stop-color="#FF83EE"/>
<stop offset="1" stop-color="#FFE4EE"/>
</linearGradient>
<linearGradient id="paint10_linear_803_2" x1="159.969" y1="130.309" x2="192.031" y2="130.309" gradientUnits="userSpaceOnUse">
<stop stop-color="#FF83EE"/>
<stop offset="1" stop-color="#FFE4EE"/>
</linearGradient>
<linearGradient id="paint11_linear_803_2" x1="174.161" y1="131.274" x2="188.527" y2="139.51" gradientUnits="userSpaceOnUse">
<stop stop-color="#FF83EE"/>
<stop offset="1" stop-color="#FFE4EE"/>
</linearGradient>
<linearGradient id="paint12_linear_803_2" x1="179.767" y1="130.136" x2="189.929" y2="130.136" gradientUnits="userSpaceOnUse">
<stop stop-color="#FF83EE"/>
<stop offset="1" stop-color="#FFE4EE"/>
</linearGradient>
<linearGradient id="paint13_linear_803_2" x1="177.492" y1="127.68" x2="188.35" y2="127.68" gradientUnits="userSpaceOnUse">
<stop stop-color="#F56695"/>
<stop offset="1" stop-color="#FFE4EE"/>
</linearGradient>
<linearGradient id="paint14_linear_803_2" x1="200.735" y1="138.708" x2="163.913" y2="96.3351" gradientUnits="userSpaceOnUse">
<stop stop-color="#F56695"/>
<stop offset="1" stop-color="white"/>
</linearGradient>
<linearGradient id="paint15_linear_803_2" x1="187.105" y1="132.887" x2="254.856" y2="132.887" gradientUnits="userSpaceOnUse">
<stop stop-color="#FF8BB1"/>
<stop offset="1" stop-color="#FFE4EE"/>
</linearGradient>
<linearGradient id="paint16_linear_803_2" x1="129.654" y1="126.368" x2="167.5" y2="126.368" gradientUnits="userSpaceOnUse">
<stop stop-color="#FF8BB1"/>
<stop offset="1" stop-color="#FFE4EE"/>
</linearGradient>
<linearGradient id="paint17_linear_803_2" x1="165.051" y1="88.8693" x2="229.881" y2="88.8693" gradientUnits="userSpaceOnUse">
<stop stop-color="#FF8BB1"/>
<stop offset="1" stop-color="#FFE4EE"/>
</linearGradient>
<linearGradient id="paint18_linear_803_2" x1="167.677" y1="137.144" x2="140.517" y2="101.924" gradientUnits="userSpaceOnUse">
<stop stop-color="#FF8BB1"/>
<stop offset="1" stop-color="#FFE4EE"/>
</linearGradient>
<linearGradient id="paint19_linear_803_2" x1="243.549" y1="137.844" x2="291.557" y2="137.844" gradientUnits="userSpaceOnUse">
<stop stop-color="#FF8BB1"/>
<stop offset="1" stop-color="#FFE4EE"/>
</linearGradient>
<linearGradient id="paint20_linear_803_2" x1="91.8083" y1="179.461" x2="155.934" y2="179.461" gradientUnits="userSpaceOnUse">
<stop stop-color="#FF83EE"/>
<stop offset="1" stop-color="#FFE4EE"/>
</linearGradient>
<linearGradient id="paint21_linear_803_2" x1="106.779" y1="247.299" x2="215.414" y2="247.299" gradientUnits="userSpaceOnUse">
<stop stop-color="#F56695"/>
<stop offset="1" stop-color="#FFE4EE"/>
</linearGradient>
<linearGradient id="paint22_linear_803_2" x1="200.688" y1="189.984" x2="292.724" y2="189.984" gradientUnits="userSpaceOnUse">
<stop stop-color="#F56695"/>
<stop offset="1" stop-color="white"/>
</linearGradient>
</defs>
</svg>
