<svg width="340" height="341" viewBox="0 0 340 341" fill="none" xmlns="http://www.w3.org/2000/svg">
<rect x="56.6667" y="57.1667" width="226.667" height="226.667" fill="#553D67"/>
<mask id="mask0_74_4738" style="mask-type:luminance" maskUnits="userSpaceOnUse" x="0" y="0" width="340" height="341">
<path d="M0 0.499995H340V340.5H0V0.499995Z" fill="white"/>
</mask>
<g mask="url(#mask0_74_4738)">
<path d="M199.092 139.765C203.762 99.9711 219.556 77.1752 240.007 60.9894C209.492 72.4894 187.977 103.581 183.403 158.137C236.571 145.081 263.912 118.963 270.493 87.0244C257.708 109.757 237.666 128.924 199.092 139.765Z" fill="url(#paint0_linear_74_4738)"/>
<path d="M267.964 59.1203C235.418 73.0359 213.867 102.789 209.835 127.186C233.298 119.386 259.313 93.4433 267.964 59.1203Z" fill="url(#paint1_linear_74_4738)"/>
<path d="M214.655 167.268C243.812 139.786 270.562 132.476 296.633 133.222C265.865 122.416 229.398 132.405 190.827 171.257C239.948 195.431 277.681 192.997 303.251 172.762C278.846 181.958 251.171 183.758 214.655 167.268Z" fill="url(#paint2_linear_74_4738)"/>
<path d="M319.249 149.76C285.373 139.499 249.738 148.439 230.969 164.537C253.957 173.645 290.561 170.493 319.249 149.76Z" fill="url(#paint3_linear_74_4738)"/>
<path d="M208.898 198.34C248.898 196.029 274.089 207.624 293.58 224.955C276.958 196.899 242.601 181.11 188.08 186.079C210.171 236.172 240.638 258.563 273.236 259.499C248.629 250.854 226.272 234.443 208.898 198.34Z" fill="url(#paint4_linear_74_4738)"/>
<path d="M300.273 252.16C280.919 222.525 247.875 206.468 223.149 206.734C234.905 228.489 264.971 249.602 300.273 252.16Z" fill="url(#paint5_linear_74_4738)"/>
<path d="M184.515 218.442C216.642 242.382 228.486 267.458 232.278 293.263C237.577 261.086 221.408 226.908 176.449 195.669C161.173 248.24 170.119 284.977 194.488 306.646C181.194 284.207 174.616 257.267 184.515 218.442Z" fill="url(#paint6_linear_74_4738)"/>
<path d="M219.92 318.407C224.14 283.263 209.149 249.723 190.036 234.032C185.059 258.254 194.519 293.755 219.92 318.407Z" fill="url(#paint7_linear_74_4738)"/>
<path d="M152.915 218.168C162.138 257.159 155.092 283.98 141.408 306.186C166.151 284.944 175.735 248.368 161.374 195.537C115.879 225.99 99.118 259.883 103.859 292.148C108.098 266.414 120.377 241.547 152.915 218.168Z" fill="url(#paint8_linear_74_4738)"/>
<path d="M115.779 317.502C141.603 293.296 151.678 257.966 147.123 233.662C127.739 249.017 112.168 282.291 115.779 317.502Z" fill="url(#paint9_linear_74_4738)"/>
<path d="M128.885 197.645C110.887 233.441 88.2478 249.46 63.4947 257.677C96.103 257.307 126.954 235.449 149.912 185.747C95.4842 179.832 60.8591 195.023 43.7515 222.785C63.5412 205.795 88.9312 194.639 128.885 197.645Z" fill="url(#paint10_linear_74_4738)"/>
<path d="M36.5852 249.87C71.9281 247.926 102.354 227.339 114.488 205.791C89.7696 205.096 56.4525 220.577 36.5852 249.87Z" fill="url(#paint11_linear_74_4738)"/>
<path d="M123.667 166.478C86.8703 182.331 59.2322 180.051 34.989 170.433C60.2058 191.11 97.8892 194.196 147.423 170.88C109.532 131.364 73.242 120.744 42.2928 131.013C68.372 130.719 94.993 138.494 123.667 166.478Z" fill="url(#paint12_linear_74_4738)"/>
<path d="M19.3926 147.157C47.7168 168.385 84.2583 172.172 107.403 163.465C88.9146 147.043 53.4413 137.486 19.3926 147.157Z" fill="url(#paint13_linear_74_4738)"/>
<path d="M139.705 139.249C101.326 127.74 81.62 108.228 69.231 85.2768C75.2563 117.325 102.141 143.913 155.073 157.891C151.447 103.263 130.475 71.8026 100.164 59.7752C120.331 76.3139 135.727 99.38 139.705 139.249Z" fill="url(#paint14_linear_74_4738)"/>
<path d="M72.2456 57.4223C80.2974 91.8892 105.857 118.28 129.183 126.487C125.576 102.023 104.546 71.9006 72.2456 57.4223Z" fill="url(#paint15_linear_74_4738)"/>
<path d="M169.493 128.7C147.491 95.2138 144.937 67.5996 150.199 42.0543C134.215 70.4782 137.719 108.126 169.282 152.858C201.619 108.681 205.776 71.0993 190.288 42.4028C195.106 68.0342 192.073 95.6014 169.493 128.7Z" fill="url(#paint16_linear_74_4738)"/>
<path d="M170.413 22.6538C154.426 54.2329 157.041 90.8775 169.636 112.159C182.596 91.1002 185.849 54.5054 170.413 22.6538Z" fill="url(#paint17_linear_74_4738)"/>
</g>
<defs>
<linearGradient id="paint0_linear_74_4738" x1="226.948" y1="158.137" x2="226.948" y2="60.9894" gradientUnits="userSpaceOnUse">
<stop stop-color="#DE8DBA"/>
<stop offset="1" stop-color="#70499A"/>
</linearGradient>
<linearGradient id="paint1_linear_74_4738" x1="238.899" y1="127.186" x2="238.899" y2="59.1203" gradientUnits="userSpaceOnUse">
<stop stop-color="#DE8DBA"/>
<stop offset="1" stop-color="#70499A"/>
</linearGradient>
<linearGradient id="paint2_linear_74_4738" x1="247.039" y1="188.665" x2="247.039" y2="129.142" gradientUnits="userSpaceOnUse">
<stop stop-color="#DE8DBA"/>
<stop offset="1" stop-color="#70499A"/>
</linearGradient>
<linearGradient id="paint3_linear_74_4738" x1="275.109" y1="169.367" x2="275.109" y2="145.383" gradientUnits="userSpaceOnUse">
<stop stop-color="#DE8DBA"/>
<stop offset="1" stop-color="#70499A"/>
</linearGradient>
<linearGradient id="paint4_linear_74_4738" x1="240.83" y1="259.499" x2="240.83" y2="185.172" gradientUnits="userSpaceOnUse">
<stop stop-color="#DE8DBA"/>
<stop offset="1" stop-color="#70499A"/>
</linearGradient>
<linearGradient id="paint5_linear_74_4738" x1="261.711" y1="252.16" x2="261.711" y2="206.731" gradientUnits="userSpaceOnUse">
<stop stop-color="#DE8DBA"/>
<stop offset="1" stop-color="#70499A"/>
</linearGradient>
<linearGradient id="paint6_linear_74_4738" x1="201.083" y1="306.646" x2="201.083" y2="195.669" gradientUnits="userSpaceOnUse">
<stop stop-color="#DE8DBA"/>
<stop offset="1" stop-color="#70499A"/>
</linearGradient>
<linearGradient id="paint7_linear_74_4738" x1="204.697" y1="318.407" x2="204.697" y2="234.032" gradientUnits="userSpaceOnUse">
<stop stop-color="#DE8DBA"/>
<stop offset="1" stop-color="#70499A"/>
</linearGradient>
<linearGradient id="paint8_linear_74_4738" x1="135.588" y1="306.186" x2="135.588" y2="195.537" gradientUnits="userSpaceOnUse">
<stop stop-color="#DE8DBA"/>
<stop offset="1" stop-color="#70499A"/>
</linearGradient>
<linearGradient id="paint9_linear_74_4738" x1="131.719" y1="317.502" x2="131.719" y2="233.662" gradientUnits="userSpaceOnUse">
<stop stop-color="#DE8DBA"/>
<stop offset="1" stop-color="#70499A"/>
</linearGradient>
<linearGradient id="paint10_linear_74_4738" x1="96.8317" y1="257.677" x2="96.8317" y2="184.479" gradientUnits="userSpaceOnUse">
<stop stop-color="#DE8DBA"/>
<stop offset="1" stop-color="#70499A"/>
</linearGradient>
<linearGradient id="paint11_linear_74_4738" x1="75.5367" y1="249.87" x2="75.5367" y2="205.768" gradientUnits="userSpaceOnUse">
<stop stop-color="#DE8DBA"/>
<stop offset="1" stop-color="#70499A"/>
</linearGradient>
<linearGradient id="paint12_linear_74_4738" x1="91.2059" y1="187.18" x2="91.2059" y2="127.338" gradientUnits="userSpaceOnUse">
<stop stop-color="#DE8DBA"/>
<stop offset="1" stop-color="#70499A"/>
</linearGradient>
<linearGradient id="paint13_linear_74_4738" x1="63.3979" y1="167.825" x2="63.3979" y2="143.284" gradientUnits="userSpaceOnUse">
<stop stop-color="#DE8DBA"/>
<stop offset="1" stop-color="#70499A"/>
</linearGradient>
<linearGradient id="paint14_linear_74_4738" x1="112.152" y1="157.891" x2="112.152" y2="59.7752" gradientUnits="userSpaceOnUse">
<stop stop-color="#DE8DBA"/>
<stop offset="1" stop-color="#70499A"/>
</linearGradient>
<linearGradient id="paint15_linear_74_4738" x1="100.714" y1="126.487" x2="100.714" y2="57.4223" gradientUnits="userSpaceOnUse">
<stop stop-color="#DE8DBA"/>
<stop offset="1" stop-color="#70499A"/>
</linearGradient>
<linearGradient id="paint16_linear_74_4738" x1="169.935" y1="152.858" x2="169.935" y2="42.0543" gradientUnits="userSpaceOnUse">
<stop stop-color="#DE8DBA"/>
<stop offset="1" stop-color="#70499A"/>
</linearGradient>
<linearGradient id="paint17_linear_74_4738" x1="170.011" y1="112.159" x2="170.011" y2="22.6538" gradientUnits="userSpaceOnUse">
<stop stop-color="#DE8DBA"/>
<stop offset="1" stop-color="#70499A"/>
</linearGradient>
</defs>
</svg>
