<svg width="245" height="243" viewBox="0 0 245 243" fill="none" xmlns="http://www.w3.org/2000/svg">
<g style="mix-blend-mode:lighten">
<g style="mix-blend-mode:multiply">
<path d="M146.931 111.212C159.19 89.7146 173.671 80.5657 189.205 76.299C169.08 75.473 149.344 87.9578 133.578 117.871C166.957 123.279 188.804 115.029 200.254 98.4583C187.499 108.298 171.479 114.358 146.931 111.212Z" fill="#DA5C86" fill-opacity="0.44"/>
<path d="M205.55 81.9832C183.688 82.0405 164.255 93.7554 156.075 106.653C171.297 107.881 192.349 99.4097 205.55 81.9832Z" fill="#DA5C86" fill-opacity="0.44"/>
<path d="M149.142 130.605C172.352 122.017 189.324 124.316 203.967 131.032C189.082 117.463 165.938 114.342 134.632 127.122C156.726 152.721 178.766 160.444 198.187 155.11C182.092 154.448 165.924 148.793 149.142 130.605Z" fill="#DA5C86" fill-opacity="0.44"/>
<path d="M212.834 145.893C196.051 131.884 173.633 128.367 159.077 132.989C169.948 143.715 191.52 150.757 212.834 145.893Z" fill="#DA5C86" fill-opacity="0.44"/>
<path d="M138.37 146.881C161.67 155.221 173.194 167.893 180.093 182.45C177.413 162.488 161.69 145.219 129.493 134.886C129.964 168.698 141.882 188.781 160.19 197.18C148.286 186.327 139.535 171.601 138.37 146.881Z" fill="#DA5C86" fill-opacity="0.44"/>
<path d="M177.333 199.533C173.481 178.013 158.569 160.91 144.447 155.093C145.881 170.299 157.879 189.559 177.333 199.533Z" fill="#DA5C86" fill-opacity="0.44"/>
<path d="M119.656 152.426C132.144 173.791 132.827 190.906 128.755 206.492C139.533 189.477 138.588 166.143 120.566 137.532C99.1939 163.734 95.414 186.78 104.04 204.981C101.897 189.015 104.658 172.111 119.656 152.426Z" fill="#DA5C86" fill-opacity="0.44"/>
<path d="M115.66 217.805C126.541 198.843 126.113 176.156 119.033 162.622C110.357 175.193 107.168 197.659 115.66 217.805Z" fill="#DA5C86" fill-opacity="0.44"/>
<path d="M101.756 144.644C97.5895 169.038 87.111 182.587 73.9722 191.909C93.166 185.804 107.442 167.321 112.027 133.819C78.8114 140.153 61.1024 155.378 56.0113 174.866C64.632 161.258 77.614 150.083 101.756 144.644Z" fill="#DA5C86" fill-opacity="0.44"/>
<path d="M56.6702 192.158C77.1943 184.628 91.4486 166.972 94.7243 152.055C79.9978 156.108 63.1146 171.268 56.6702 192.158Z" fill="#DA5C86" fill-opacity="0.44"/>
<path d="M93.0466 127.176C74.1751 143.185 57.4378 146.829 41.3817 145.526C60.0103 153.185 82.8255 148.204 107.873 125.486C78.3556 108.988 55.0037 109.269 38.5773 120.924C53.9288 116.041 71.0565 115.826 93.0466 127.176Z" fill="#DA5C86" fill-opacity="0.44"/>
<path d="M27.9663 134.594C48.5295 142.018 70.7966 137.656 82.8956 128.333C69.0097 121.973 46.3311 122.734 27.9663 134.594Z" fill="#DA5C86" fill-opacity="0.44"/>
<path d="M97.6017 108.197C72.8551 108.331 57.692 100.364 46.2297 89.0447C55.5766 106.886 76.2566 117.735 110.046 116.433C98.0395 84.822 79.9699 70.0261 59.8956 68.3955C74.7937 74.5224 88.0526 85.3672 97.6017 108.197Z" fill="#DA5C86" fill-opacity="0.44"/>
<path d="M42.9798 72.0472C53.9603 90.9522 73.822 101.924 89.0823 102.559C82.5337 88.7608 64.6718 74.7664 42.9798 72.0472Z" fill="#DA5C86" fill-opacity="0.44"/>
<path d="M113.292 96.5872C94.249 80.7817 87.7541 64.9321 86.2492 48.8934C81.9407 68.5682 90.8091 90.1728 117.53 110.894C128.652 78.9612 124.321 56.013 109.991 41.8598C117.465 56.1298 120.652 72.9596 113.292 96.5872Z" fill="#DA5C86" fill-opacity="0.44"/>
<path d="M94.6852 33.7843C90.945 55.3236 99.1081 76.4965 110.389 86.7917C114.242 72.0122 109.555 49.811 94.6852 33.7843Z" fill="#DA5C86" fill-opacity="0.44"/>
<path d="M132.773 97.7779C128.345 73.4297 133.558 57.1135 142.714 43.8597C126.767 56.1626 119.673 78.4126 126.823 111.462C155.869 94.1495 167.303 73.7857 165.422 53.7325C161.976 69.4682 153.599 84.4093 132.773 97.7779Z" fill="#DA5C86" fill-opacity="0.44"/>
<path d="M158.889 37.708C142.178 51.8039 134.822 73.2693 136.846 88.408C149.297 79.5632 159.978 59.5424 158.889 37.708Z" fill="#DA5C86" fill-opacity="0.44"/>
</g>
<g style="mix-blend-mode:hard-light">
<path d="M140.969 102.517C143.853 77.938 153.608 63.8582 166.24 53.8611C147.393 60.964 134.104 80.1679 131.279 113.864C164.118 105.8 181.005 89.6683 185.07 69.9416C177.173 83.9826 164.794 95.821 140.969 102.517Z" fill="#DA5C86"/>
<path d="M183.507 52.7067C163.406 61.3016 150.095 79.6783 147.604 94.7472C162.096 89.9295 178.164 73.9061 183.507 52.7067Z" fill="#DA5C86"/>
<path d="M150.581 119.504C168.59 102.529 185.112 98.0144 201.214 98.4753C182.211 91.8012 159.687 97.9706 135.864 121.967C166.203 136.898 189.509 135.395 205.302 122.897C190.228 128.577 173.135 129.689 150.581 119.504Z" fill="#DA5C86"/>
<path d="M215.184 108.69C194.26 102.352 172.25 107.874 160.658 117.817C174.856 123.442 197.464 121.496 215.184 108.69Z" fill="#DA5C86"/>
<path d="M147.025 138.695C171.731 137.268 187.29 144.43 199.329 155.134C189.062 137.806 167.842 128.053 134.167 131.122C147.812 162.062 166.63 175.892 186.763 176.47C171.565 171.13 157.756 160.994 147.025 138.695Z" fill="#DA5C86"/>
<path d="M203.463 171.937C191.509 153.633 171.1 143.716 155.828 143.88C163.089 157.317 181.659 170.357 203.463 171.937Z" fill="#DA5C86"/>
<path d="M131.965 151.111C151.809 165.898 159.124 181.386 161.466 197.324C164.739 177.45 154.752 156.34 126.983 137.045C117.548 169.516 123.074 192.207 138.125 205.59C129.914 191.731 125.851 175.091 131.965 151.111Z" fill="#DA5C86"/>
<path d="M153.833 212.854C156.44 191.148 147.181 170.432 135.376 160.741C132.302 175.701 138.144 197.628 153.833 212.854Z" fill="#DA5C86"/>
<path d="M112.448 150.942C118.144 175.025 113.792 191.591 105.341 205.306C120.623 192.186 126.542 169.595 117.673 136.964C89.5725 155.773 79.2202 176.707 82.1483 196.635C84.7666 180.741 92.3504 165.382 112.448 150.942Z" fill="#DA5C86"/>
<path d="M89.5108 212.296C105.461 197.344 111.684 175.523 108.87 160.512C96.8979 169.996 87.2803 190.548 89.5108 212.296Z" fill="#DA5C86"/>
<path d="M97.6052 138.266C86.4888 160.376 72.506 170.27 57.2173 175.344C77.3577 175.116 96.4127 161.616 110.593 130.917C76.9755 127.264 55.5894 136.647 45.0229 153.793C57.246 143.3 72.9281 136.41 97.6052 138.266Z" fill="#DA5C86"/>
<path d="M40.5972 170.523C62.4266 169.322 81.2191 156.606 88.7137 143.297C73.4464 142.868 52.8681 152.43 40.5972 170.523Z" fill="#DA5C86"/>
<path d="M94.3825 119.016C71.6552 128.808 54.5846 127.399 39.6108 121.458C55.1859 134.23 78.461 136.136 109.055 121.735C85.6521 97.3276 63.2377 90.7683 44.122 97.111C60.2298 96.9297 76.6721 101.732 94.3825 119.016Z" fill="#DA5C86"/>
<path d="M29.978 107.082C47.4724 120.194 70.0421 122.532 84.3375 117.155C72.9181 107.012 51.0081 101.109 29.978 107.082Z" fill="#DA5C86"/>
<path d="M104.289 102.198C80.5843 95.0897 68.4128 83.0378 60.7607 68.8622C64.4823 88.6564 81.0873 105.078 113.781 113.712C111.541 79.9715 98.588 60.5399 79.8665 53.1111C92.3226 63.3262 101.832 77.573 104.289 102.198Z" fill="#DA5C86"/>
<path d="M62.6226 51.6579C67.5957 72.9463 83.3828 89.2464 97.7895 94.3155C95.5617 79.2053 82.5725 60.6004 62.6226 51.6579Z" fill="#DA5C86"/>
<path d="M122.687 95.6822C109.097 74.9997 107.52 57.9438 110.77 42.1659C100.898 59.7218 103.062 82.9748 122.557 110.604C142.529 83.3178 145.097 60.1054 135.531 42.3811C138.507 58.2123 136.634 75.2391 122.687 95.6822Z" fill="#DA5C86"/>
<path d="M123.256 30.1832C113.381 49.688 114.997 72.3214 122.775 85.4656C130.781 72.4589 132.79 49.8563 123.256 30.1832Z" fill="#DA5C86"/>
</g>
<g style="mix-blend-mode:plus-darker">
<path d="M131.65 96.6803C124.288 73.0536 127.473 56.2232 134.946 41.9526C120.617 56.1074 116.288 79.0562 127.413 110.988C154.132 90.2644 162.998 68.6589 158.688 48.9843C157.185 65.0231 150.692 80.8731 131.65 96.6803Z" fill="#DA5C86" fill-opacity="0.53"/>
<path d="M150.251 33.8749C135.383 49.9028 130.697 72.1047 134.551 86.8837C145.831 76.5882 153.992 55.4148 150.251 33.8749Z" fill="#DA5C86" fill-opacity="0.53"/>
<path d="M147.34 108.289C156.888 85.4575 170.145 74.6128 185.043 68.4843C164.968 70.1167 146.9 84.914 134.897 116.526C168.687 117.826 189.366 106.974 198.71 89.1323C187.25 100.452 172.087 108.42 147.34 108.289Z" fill="#DA5C86" fill-opacity="0.53"/>
<path d="M201.959 72.1339C180.267 74.8547 162.406 88.8514 155.859 102.65C171.118 102.014 190.98 91.0398 201.959 72.1339Z" fill="#DA5C86" fill-opacity="0.53"/>
<path d="M151.897 127.268C173.887 115.915 191.014 116.129 206.366 121.011C189.938 109.357 166.586 109.079 137.071 125.579C162.12 148.295 184.936 153.275 203.564 145.613C187.508 146.918 170.771 143.274 151.897 127.268Z" fill="#DA5C86" fill-opacity="0.53"/>
<path d="M216.977 134.68C198.611 122.821 175.933 122.062 162.048 128.424C174.146 137.746 196.415 142.106 216.977 134.68Z" fill="#DA5C86" fill-opacity="0.53"/>
<path d="M143.19 144.736C167.332 150.173 180.314 161.346 188.937 174.954C183.843 155.467 166.133 140.244 132.917 133.912C137.505 167.413 151.782 185.895 170.976 191.999C157.838 182.678 147.358 169.13 143.19 144.736Z" fill="#DA5C86" fill-opacity="0.53"/>
<path d="M188.28 192.246C181.832 171.356 164.948 156.198 150.222 152.145C153.498 167.063 167.754 184.718 188.28 192.246Z" fill="#DA5C86" fill-opacity="0.53"/>
<path d="M125.29 152.519C140.289 172.203 143.052 189.107 140.909 205.074C149.534 186.873 145.753 163.827 124.378 137.625C106.358 166.237 105.415 189.572 116.196 206.586C112.123 191.001 112.804 173.886 125.29 152.519Z" fill="#DA5C86" fill-opacity="0.53"/>
<path d="M129.292 217.898C137.782 197.752 134.591 175.286 125.915 162.717C118.836 176.251 118.409 198.938 129.292 217.898Z" fill="#DA5C86" fill-opacity="0.53"/>
<path d="M106.576 146.977C105.413 171.696 96.6636 186.422 84.7607 197.277C103.067 188.876 114.984 168.792 115.451 134.981C83.2547 145.317 67.5338 162.586 64.8551 182.549C71.7534 167.991 83.2771 155.318 106.576 146.977Z" fill="#DA5C86" fill-opacity="0.53"/>
<path d="M67.6162 199.632C87.0701 189.656 99.0659 170.396 100.499 155.189C86.3773 161.007 71.4674 178.112 67.6162 199.632Z" fill="#DA5C86" fill-opacity="0.53"/>
<path d="M95.8019 130.701C79.0222 148.891 62.8544 154.547 46.759 155.21C66.182 160.543 88.2201 152.817 110.312 127.217C79.0049 114.439 55.8604 117.564 40.9772 131.133C55.6186 124.416 72.5926 122.115 95.8019 130.701Z" fill="#DA5C86" fill-opacity="0.53"/>
<path d="M32.1113 145.995C53.4262 150.858 74.9959 143.814 85.8681 133.087C71.3105 128.466 48.8939 131.985 32.1113 145.995Z" fill="#DA5C86" fill-opacity="0.53"/>
<path d="M98.011 111.309C73.4647 114.456 57.4435 108.397 44.6872 98.5591C56.138 115.128 77.9869 123.377 111.365 117.966C95.5962 88.0537 75.8591 75.5706 55.7347 76.3989C71.2688 80.6644 85.7508 89.8116 98.011 111.309Z" fill="#DA5C86" fill-opacity="0.53"/>
<path d="M39.3908 82.0849C52.5928 99.51 73.6449 107.98 88.8678 106.751C80.6868 93.8532 61.2532 82.1399 39.3908 82.0849Z" fill="#DA5C86" fill-opacity="0.53"/>
<path d="M112.169 97.8727C91.3416 84.5056 82.9637 69.5658 79.5153 53.83C77.637 73.8836 89.0718 94.246 118.119 111.557C125.267 78.5066 118.171 56.2567 102.223 43.9557C111.381 57.2076 116.595 73.5243 112.169 97.8727Z" fill="#DA5C86" fill-opacity="0.53"/>
<path d="M86.0472 37.8052C84.9596 59.64 95.6413 79.6596 108.094 88.5035C110.117 73.3653 102.759 51.8996 86.0472 37.8052Z" fill="#DA5C86" fill-opacity="0.53"/>
</g>
</g>
</svg>
