<svg width="305" height="310" viewBox="0 0 305 310" fill="none" xmlns="http://www.w3.org/2000/svg">
<path d="M49.6934 55.1158C49.6934 54.0113 50.5888 53.1158 51.6934 53.1158H152.002C208.505 53.1158 254.31 98.9208 254.31 155.424V255.732C254.31 256.837 253.415 257.732 252.31 257.732H152.002C95.4983 257.732 49.6934 211.928 49.6934 155.424V55.1158Z" fill="#E97D95" fill-opacity="0.79"/>
<path d="M140.592 14.9532C136.398 23.692 124.398 42.3349 123.116 59.6958C121.835 77.0566 130.107 104.787 132.903 119.118C135.7 133.449 136.049 140.906 139.894 145.683C143.739 150.46 151.08 153.374 155.973 147.781C160.867 142.189 165.527 127.275 169.256 112.127C172.984 96.9804 181.84 74.3765 178.345 56.899C174.849 39.4216 154.575 14.2538 148.283 7.26278C141.991 0.271803 144.787 6.21432 140.592 14.9532Z" fill="#CC1577"/>
<path d="M153.177 149.179C156.323 143.47 163.663 113.991 164.362 99.5427C165.062 85.0947 159.236 70.763 157.372 62.4905C155.508 54.218 155.041 50.4903 153.177 49.9077C151.312 49.3252 148.167 53.7521 146.186 58.9952C144.205 64.2384 141.409 68.8993 141.293 81.3665C141.176 93.8337 143.506 122.496 145.486 133.798C147.467 145.1 150.031 154.888 153.177 149.179Z" fill="#F08BB9"/>
<path d="M248.593 53.3941C239.647 56.6902 218.641 61.7195 205.306 72.8942C191.97 84.0688 177.162 108.688 168.579 120.442C159.995 132.195 154.834 137.585 153.805 143.414C152.777 149.243 155.293 156.076 162.408 155.416C169.523 154.756 183.219 147.491 196.497 139.454C209.775 131.418 231.66 121.584 242.074 107.194C252.488 92.8044 257.895 62.0839 258.982 53.1172C260.068 44.1506 257.539 50.0979 248.593 53.3941Z" fill="#CC1577"/>
<path d="M159.639 154.548C165.739 152.661 191.632 137.075 202.5 127.534C213.367 117.993 220.044 104.252 224.842 97.3035C229.639 90.3549 232.036 87.4688 231.283 85.8425C230.531 84.2162 225.356 85.2162 220.326 87.5455C215.296 89.8747 210.173 91.2659 201.102 99.8179C192.031 108.37 172.811 129.736 165.901 138.858C158.99 147.979 153.539 156.436 159.639 154.548Z" fill="#F08BB9"/>
<path d="M283.534 207.322C273.842 208.722 252.139 214.756 235.253 210.497C218.368 206.239 194.866 189.134 182.222 181.77C169.579 174.407 162.629 171.679 159.393 166.316C156.158 160.954 155.864 152.695 162.809 149.594C169.755 146.492 185.457 146.597 201.066 147.706C216.676 148.815 241.076 147.184 256.466 156.25C271.857 165.315 288.897 193.585 293.408 202.097C297.919 210.609 293.227 205.922 283.534 207.322Z" fill="#CC1577"/>
<path d="M160.543 151.94C167.012 150.62 197.419 152.695 211.348 156.606C225.277 160.517 236.903 170.905 244.117 175.405C251.331 179.905 254.707 181.56 254.633 183.608C254.558 185.655 249.305 187.383 243.67 187.688C238.035 187.993 232.677 189.298 220.822 185.437C208.966 181.577 182.583 170.107 172.536 164.524C162.49 158.942 154.075 153.26 160.543 151.94Z" fill="#F08BB9"/>
<path d="M31.1655 83.6429C35.8148 92.1483 43.9526 112.772 57.3035 123.943C70.6545 135.114 98.0013 144.576 111.271 150.668C124.541 156.759 130.801 160.826 136.924 160.491C143.047 160.156 149.697 155.895 148.01 148.658C146.324 141.42 136.931 128.933 126.806 117.067C116.681 105.2 103.491 84.8193 87.2582 77.4599C71.0251 70.1005 38.7562 71.8797 29.4075 72.9102C20.0587 73.9407 26.5161 75.1375 31.1655 83.6429Z" fill="#CC1577"/>
<path d="M147.514 151.744C144.713 145.858 125.056 122.696 113.731 113.698C102.406 104.7 87.3678 101.068 79.5618 97.7549C71.7559 94.4418 68.4564 92.6456 66.8955 93.8196C65.3346 94.9937 67.0943 100.131 70.1965 104.799C73.2987 109.467 75.4523 114.458 85.5088 121.827C95.5653 129.196 120.202 144.029 130.536 149.015C140.87 154.001 150.315 157.631 147.514 151.744Z" fill="#F08BB9"/>
<path d="M16.0137 194.158C22.9753 187.424 36.8622 170.175 52.9205 163.456C68.9788 156.737 97.8895 155.751 112.363 153.845C126.837 151.938 134.019 149.902 139.764 152.017C145.509 154.133 150.592 160.141 146.835 166.537C143.078 172.933 130.407 182.067 117.222 190.394C104.036 198.721 85.399 214.257 67.7206 216.501C50.0421 218.746 19.7689 207.585 11.1511 203.861C2.53324 200.137 9.0521 200.892 16.0137 194.158Z" fill="#CC1577"/>
<path d="M147.277 163.452C142.857 168.235 117.221 184.521 103.741 189.765C90.2609 195.01 74.8294 194.056 66.3954 194.92C57.9615 195.784 54.2791 196.527 53.1375 194.951C51.996 193.375 55.2 189 59.5462 185.465C63.8923 181.931 67.4287 177.811 79.2145 173.745C91.0003 169.679 118.917 162.785 130.261 161.07C141.605 159.354 151.697 158.669 147.277 163.452Z" fill="#F08BB9"/>
<path d="M131.497 291.825C137.295 284.057 152.66 268.073 157.259 251.284C161.859 234.494 159.079 205.69 159.094 191.088C159.109 176.487 160.201 169.102 157.348 163.674C154.494 158.246 147.852 153.974 141.973 158.52C136.094 163.066 128.65 176.804 122.075 190.95C115.501 205.096 102.459 225.573 102.525 243.397C102.591 261.22 117.641 289.82 122.47 297.892C127.298 305.963 125.698 299.593 131.497 291.825Z" fill="#CC1577"/>
<path d="M144.988 157.687C140.802 162.684 127.924 190.198 124.457 204.242C120.99 218.285 123.947 233.47 124.184 241.947C124.421 250.423 124.161 254.171 125.879 255.102C127.596 256.032 131.535 252.294 134.488 247.53C137.441 242.766 141.082 238.73 143.597 226.519C146.111 214.307 149.342 185.732 149.574 174.26C149.806 162.788 149.175 152.69 144.988 157.687Z" fill="#F08BB9"/>
<path d="M231.716 270.763C231.114 261.088 232.493 238.96 225.141 223.18C217.79 207.401 197.039 187.231 187.606 176.086C178.173 164.94 174.23 158.602 168.543 156.308C162.856 154.013 155.026 155.052 153.483 162.321C151.94 169.591 155.149 184.883 159.285 199.924C163.42 214.965 166.718 239.017 178.297 252.567C189.875 266.118 219.852 278.195 228.755 281.228C237.658 284.26 232.318 280.437 231.716 270.763Z" fill="#CC1577"/>
<path d="M155.244 159.736C155.283 166.254 163.258 195.568 169.697 208.521C176.136 221.474 188.214 231.142 193.877 237.453C199.541 243.764 201.767 246.791 203.678 246.39C205.59 245.989 206.176 240.59 205.347 235.047C204.517 229.503 204.684 224.071 198.703 213.131C192.722 202.192 176.704 178.309 169.461 169.41C162.218 160.51 155.204 153.217 155.244 159.736Z" fill="#F08BB9"/>
<path d="M138.496 147.081C142.808 147.547 146.536 148.712 149.682 144.984C152.828 141.256 155.741 124.245 157.372 124.711C159.004 125.177 155.391 144.985 159.469 147.781C163.547 150.577 179.976 140.906 181.841 141.489C183.705 142.071 169.49 146.499 170.655 151.276C171.82 156.053 189.414 168.288 188.831 170.152C188.249 172.016 171.471 159.899 167.16 162.462C162.849 165.025 165.062 183.9 162.965 185.532C160.867 187.163 157.605 172.016 154.576 172.249C151.546 172.482 146.769 187.396 144.788 186.93C142.808 186.464 146.42 170.967 142.692 169.452C138.963 167.938 124.048 179.822 122.417 177.841C120.786 175.861 132.671 163.51 132.904 157.568C133.137 151.626 122.883 143.935 123.815 142.187C124.748 140.44 134.185 146.615 138.496 147.081Z" fill="#88528C"/>
<path d="M152.043 152.062C153.332 152.837 154.499 155.117 154.743 156.707C154.987 158.298 154.312 160.318 153.505 161.604C152.698 162.889 151.255 164.097 149.903 164.42C148.551 164.743 146.504 164.466 145.393 163.543C144.282 162.62 143.521 160.282 143.237 158.883C142.953 157.484 143.06 156.289 143.689 155.152C144.318 154.014 145.619 152.572 147.011 152.057C148.404 151.542 150.755 151.287 152.043 152.062Z" fill="#881F63"/>
<path d="M135.354 169.836C135.885 168.378 137.849 166.816 139.306 166.32C140.763 165.824 142.765 166.216 144.097 166.858C145.428 167.499 146.783 168.814 147.294 170.17C147.804 171.525 147.857 173.695 147.16 174.991C146.462 176.286 144.381 177.434 143.11 177.944C141.84 178.453 140.701 178.525 139.536 178.045C138.37 177.566 136.817 176.434 136.12 175.066C135.423 173.698 134.823 171.294 135.354 169.836Z" fill="#881F63"/>
<path d="M151.128 159.489C152.57 159.119 154.909 159.927 156.127 160.905C157.345 161.882 158.178 163.836 158.434 165.352C158.69 166.869 158.434 168.789 157.665 170.002C156.896 171.216 155.23 172.496 153.82 172.631C152.41 172.766 150.327 171.62 149.206 170.811C148.084 170.003 147.379 169.059 147.091 167.778C146.803 166.498 146.803 164.51 147.476 163.129C148.148 161.747 149.686 159.86 151.128 159.489Z" fill="#881F63"/>
<path d="M161.79 153.177C163.109 153.892 164.37 156.117 164.679 157.694C164.989 159.272 164.398 161.322 163.646 162.643C162.893 163.964 161.501 165.237 160.164 165.622C158.827 166.007 156.77 165.823 155.622 164.952C154.474 164.081 153.617 161.78 153.275 160.396C152.933 159.011 152.99 157.813 153.571 156.647C154.153 155.482 155.393 153.982 156.763 153.404C158.132 152.825 160.47 152.462 161.79 153.177Z" fill="#881F63"/>
<path d="M129.562 152.845C130.654 151.787 133.074 151.306 134.589 151.543C136.104 151.78 137.731 153.067 138.653 154.264C139.574 155.462 140.232 157.274 140.116 158.727C140 160.179 139.13 162.147 137.958 162.982C136.785 163.817 134.436 163.872 133.082 163.734C131.729 163.596 130.678 163.128 129.837 162.154C128.996 161.179 128.082 159.439 128.036 157.887C127.991 156.336 128.47 153.902 129.562 152.845Z" fill="#881F63"/>
<path d="M173.005 152.171C172.131 153.433 169.848 154.403 168.318 154.484C166.788 154.564 164.953 153.637 163.826 152.652C162.7 151.668 161.717 150.027 161.559 148.579C161.402 147.13 161.889 145.021 162.883 143.961C163.877 142.901 166.171 142.362 167.524 142.219C168.877 142.075 169.995 142.317 171.001 143.099C172.007 143.882 173.227 145.4 173.561 146.912C173.895 148.424 173.879 150.909 173.005 152.171Z" fill="#881F63"/>
<path d="M147.89 146.925C147.829 145.366 149.046 143.114 150.197 142.052C151.349 140.99 153.335 140.517 154.799 140.553C156.263 140.588 158.003 141.232 158.982 142.265C159.961 143.298 160.825 145.269 160.672 146.749C160.519 148.229 159.039 150.149 158.063 151.145C157.088 152.142 156.069 152.682 154.818 152.726C153.568 152.77 151.715 152.377 150.56 151.41C149.405 150.444 147.95 148.485 147.89 146.925Z" fill="#881F63"/>
<path d="M167.21 171.702C167.819 173.126 167.489 175.692 166.797 177.129C166.105 178.566 164.43 179.784 163.059 180.325C161.688 180.866 159.845 180.951 158.571 180.377C157.296 179.803 155.795 178.313 155.413 176.88C155.03 175.447 155.721 173.084 156.273 171.777C156.825 170.47 157.579 169.569 158.724 169.038C159.868 168.506 161.727 168.144 163.141 168.588C164.556 169.032 166.6 170.279 167.21 171.702Z" fill="#881F63"/>
</svg>
