<?xml version="1.0" encoding="UTF-8"?>
<svg xmlns="http://www.w3.org/2000/svg" id="a" width="865.76" height="682.89" viewBox="0 0 865.76 682.89">
  <g>
    <path d="M671.95,103.66c-14.93,0-31.46-2.37-46.7-9.81-1.74,.81-15.69,7-33.37,7.01-11.24,0-23.98-2.5-36.05-10.49l-.18-.12V51.81h238.7v39.48l-.13,.12c-.26,.23-26.18,23.01-74.56,4.83-1.9,.65-22.5,7.42-47.71,7.42Zm-46.69-10.69l.18,.09c41.77,20.49,93.58,2.57,94.1,2.38l.14-.05,.14,.05c46.25,17.44,71.71-2.79,73.75-4.51V52.61h-237.1v37.21c31.79,20.87,68.26,3.41,68.63,3.23l.18-.09Z" fill="#002346"></path>
    <path d="M671.95,110.86c-14.93,0-31.46-2.37-46.7-9.81-1.74,.81-15.69,7-33.37,7.01-11.24,0-23.98-2.5-36.05-10.49l-.18-.12v-7.42h.8v6.98c31.79,20.87,68.26,3.41,68.63,3.23l.18-.09,.18,.09c41.77,20.49,93.58,2.57,94.1,2.38l.14-.05,.14,.05c46.25,17.44,71.71-2.79,73.75-4.51v-7.02h.8v7.38l-.13,.12c-.26,.23-26.18,23.01-74.56,4.83-1.9,.65-22.5,7.42-47.71,7.42Z" fill="#002346"></path>
    <path d="M671.95,120.46c-14.93,0-31.46-2.37-46.7-9.81-1.74,.81-15.69,7-33.37,7.01-11.24,0-23.98-2.5-36.05-10.49l-.18-.12v-9.82h.8v9.38c31.79,20.87,68.26,3.41,68.63,3.23l.18-.09,.18,.09c41.77,20.49,93.58,2.57,94.1,2.38l.14-.05,.14,.05c46.25,17.44,71.71-2.79,73.75-4.51v-9.42h.8v9.78l-.13,.12c-.26,.23-26.18,23.01-74.56,4.83-1.9,.65-22.5,7.42-47.71,7.42Z" fill="#002346"></path>
    <polygon points="782.64 401.03 565.93 401.03 565.93 111.99 566.73 111.99 566.73 400.23 781.84 400.23 781.84 114.71 782.64 114.71 782.64 401.03" fill="#002346"></polygon>
    <polygon points="762.75 371.43 585.82 371.43 585.82 117.1 586.62 117.1 586.62 370.63 761.95 370.63 761.95 119.44 762.75 119.44 762.75 371.43" fill="#002346"></polygon>
    <rect x="586.22" y="133.07" width="176.13" height=".8" fill="#002346"></rect>
    <rect x="586.22" y="212.28" width="176.13" height=".8" fill="#002346"></rect>
    <rect x="587.02" y="291.48" width="176.13" height=".8" fill="#002346"></rect>
    <rect x="644.3" y="117.1" width=".8" height="253.93" fill="#002346"></rect>
    <rect x="706.41" y="117.1" width=".8" height="253.93" fill="#002346"></rect>
    <rect x="558.45" y="385.43" width="35.66" height=".8" transform="translate(-65.56 648.52) rotate(-56.06)" fill="#002346"></rect>
    <rect x="771.89" y="368" width=".8" height="35.66" transform="translate(-83.93 496.23) rotate(-33.89)" fill="#002346"></rect>
  </g>
  <g>
    <path d="M199.95,103.66c-14.93,0-31.46-2.37-46.7-9.81-1.74,.81-15.69,7-33.37,7.01-11.24,0-23.98-2.5-36.05-10.49l-.18-.12V51.81h238.7v39.48l-.13,.12c-.26,.23-26.18,23.01-74.56,4.83-1.9,.65-22.5,7.42-47.71,7.42Zm-46.69-10.69l.18,.09c41.77,20.49,93.58,2.57,94.1,2.38l.14-.05,.14,.05c46.25,17.44,71.71-2.79,73.75-4.51V52.61H84.45v37.21c31.79,20.87,68.26,3.41,68.63,3.23l.18-.09Z" fill="#002346"></path>
    <path d="M199.95,110.86c-14.93,0-31.46-2.37-46.7-9.81-1.74,.81-15.69,7-33.37,7.01-11.24,0-23.98-2.5-36.05-10.49l-.18-.12v-7.42h.8v6.98c31.79,20.87,68.26,3.41,68.63,3.23l.18-.09,.18,.09c41.77,20.49,93.58,2.57,94.1,2.38l.14-.05,.14,.05c46.25,17.44,71.71-2.79,73.75-4.51v-7.02h.8v7.38l-.13,.12c-.26,.23-26.18,23.01-74.56,4.83-1.9,.65-22.5,7.42-47.71,7.42Z" fill="#002346"></path>
    <path d="M199.95,120.46c-14.93,0-31.46-2.37-46.7-9.81-1.74,.81-15.69,7-33.37,7.01-11.24,0-23.98-2.5-36.05-10.49l-.18-.12v-9.82h.8v9.38c31.79,20.87,68.26,3.41,68.63,3.23l.18-.09,.18,.09c41.77,20.49,93.58,2.57,94.1,2.38l.14-.05,.14,.05c46.25,17.44,71.71-2.79,73.75-4.51v-9.42h.8v9.78l-.13,.12c-.26,.23-26.18,23.01-74.56,4.83-1.9,.65-22.5,7.42-47.71,7.42Z" fill="#002346"></path>
    <polygon points="310.64 401.03 93.93 401.03 93.93 111.99 94.73 111.99 94.73 400.23 309.84 400.23 309.84 114.71 310.64 114.71 310.64 401.03" fill="#002346"></polygon>
    <polygon points="290.75 371.43 113.82 371.43 113.82 117.1 114.62 117.1 114.62 370.63 289.95 370.63 289.95 119.44 290.75 119.44 290.75 371.43" fill="#002346"></polygon>
    <rect x="114.22" y="133.07" width="176.13" height=".8" fill="#002346"></rect>
    <rect x="114.22" y="212.28" width="176.13" height=".8" fill="#002346"></rect>
    <rect x="115.02" y="291.48" width="176.13" height=".8" fill="#002346"></rect>
    <rect x="172.3" y="117.1" width=".8" height="253.93" fill="#002346"></rect>
    <rect x="234.41" y="117.1" width=".8" height="253.93" fill="#002346"></rect>
    <rect x="86.45" y="385.43" width="35.66" height=".8" transform="translate(-274.04 256.93) rotate(-56.06)" fill="#002346"></rect>
    <rect x="299.89" y="368" width=".8" height="35.66" transform="translate(-164.13 233.02) rotate(-33.89)" fill="#002346"></rect>
  </g>
  <g>
    <rect x="609.02" y="520.27" width="111.9" height=".25" fill="red"></rect>
    <g>
      <rect x="609.02" y="477.82" width="111.9" height="108.25" fill="#F64C72"></rect>
      <path d="M721.42,586.57h-112.9v-109.25h112.9v109.25Zm-111.9-1h110.9v-107.25h-110.9v107.25Z" fill="#002346"></path>
    </g>
    <g>
      <rect x="609.02" y="505.19" width="111.9" height="1.22" fill="#002346"></rect>
      <rect x="609.02" y="531.95" width="111.9" height="1.22" fill="#002346"></rect>
      <rect x="609.02" y="547.76" width="111.9" height="1.22" fill="#002346"></rect>
      <rect x="609.02" y="561.14" width="111.9" height="1.22" fill="#002346"></rect>
      <rect x="609.02" y="574.52" width="111.9" height="1.22" fill="#002346"></rect>
    </g>
    <path d="M660.28,515.53s12,13.38,12,28l47.09-20.62-59.09-7.38Z" fill="#F64C72"></path>
    <g>
      <polygon points="562.8 465.66 587.1 603.24 593.21 604.32 571.45 448.48 562.8 465.66" fill="#e6e7e8"></polygon>
      <path d="M593.8,604.93l-7.13-1.26-.06-.34-24.33-137.74,9.45-18.76,22.08,158.11Zm-6.27-2.12l5.09,.9-21.44-153.57-7.86,15.6,24.21,137.07Z" fill="#002346"></path>
    </g>
    <g>
      <path d="M557.95,261.32s62-7.3,62,28c0,0,10.94,175.15-45.94,185.13l-69.67,7-9.67-31.6,63.28-188.53Z" fill="#fff"></path>
      <path d="M503.98,481.99l-9.84-32.14,.05-.15,63.38-188.83,.31-.04c.38-.05,38.1-4.29,54.68,10.46,5.23,4.65,7.88,10.72,7.88,18.04,.03,.41,2.69,44.31-1.64,88.87-2.54,26.19-6.97,47.49-13.16,63.3-7.78,19.88-18.4,31.14-31.55,33.45l-70.12,7.05Zm-8.79-32.13l9.5,31.05,69.26-6.96c29.03-5.1,39.88-54.94,43.85-95.85,4.32-44.48,1.67-88.32,1.64-88.75,0-7.06-2.54-12.88-7.54-17.32-15.46-13.74-49.93-10.62-53.59-10.25l-63.13,188.07Z" fill="#002346"></path>
    </g>
    <g>
      <path d="M513.21,596.14l-.53,.69c-4.17,5.45-9.99,9.41-16.59,11.28-18.6,5.12-37.89-.14-37.89-.14-10.95-2.43-9.13-9.31-9.13-9.31h0c.13,.89,.57,1.7,1.24,2.3,.91,.87,2.07,1.43,3.32,1.61,7.75,1.3,42.27,6.31,52-5.54l7.45-6.3h0c1.32,1.54,1.38,3.8,.13,5.41Z" fill="#fff"></path>
      <path d="M478.36,610.83c-11.37,0-20.16-2.35-20.29-2.38-4.21-.93-7.11-2.64-8.58-5.06-1.51-2.48-.93-4.77-.9-4.86l.62-2.33,.36,2.39c.12,.77,.5,1.48,1.08,2,.85,.81,1.91,1.32,3.06,1.49,6.93,1.16,41.92,6.35,51.54-5.36l7.89-6.68,.32,.38c1.47,1.72,1.53,4.26,.15,6.04l-.53,.69c-4.21,5.5-10.19,9.57-16.85,11.46-6.1,1.68-12.29,2.24-17.87,2.24Zm-28.78-9.91c.12,.6,.35,1.28,.78,1.97,1.33,2.17,4.01,3.71,7.95,4.59,.21,.06,19.4,5.17,37.65,.15,6.45-1.83,12.25-5.77,16.33-11.1l.53-.69c.99-1.28,1.05-3.05,.18-4.38l-7.04,5.96c-9.91,12.08-45.39,6.83-52.41,5.65-1.34-.19-2.59-.8-3.58-1.74-.14-.12-.27-.26-.39-.4Z" fill="#002346"></path>
    </g>
    <g>
      <path d="M384.04,596.09s-1.25,7,7.26,7c12.06,.61,24.14-1,35.62-4.76l24.12-4.34c2.22-.4,3.99-2.09,4.48-4.3,.19-.72,.29-1.46,.31-2.21l-8.58-3.85-63.21,12.46Z" fill="#fff"></path>
      <path d="M396.35,603.72c-1.69,0-3.38-.04-5.07-.13h0c-2.9,0-5.06-.8-6.39-2.39-1.85-2.21-1.36-5.08-1.34-5.2l.06-.34,.33-.07,63.37-12.49,9.03,4.05v.33c-.03,.78-.14,1.56-.33,2.32-.53,2.39-2.45,4.23-4.88,4.67l-24.12,4.34c-9.92,3.25-20.22,4.9-30.66,4.9Zm-11.85-7.21c-.06,.75-.05,2.61,1.16,4.06,1.13,1.34,3.03,2.02,5.64,2.02,12.07,.61,24-.98,35.46-4.74l24.19-4.36c2.03-.36,3.63-1.9,4.08-3.92,.15-.59,.25-1.19,.28-1.78l-8.12-3.65-62.69,12.36Z" fill="#002346"></path>
    </g>
    <g>
      <path d="M444.8,408.53s-66.88,10.91-62,35.24c0,0,.41,13.65,13,44.53l33.25,72s21.69,2.11,29.68-4.89c0,0-17.11-75.8-27.68-93.7,0,0,22.11-8.57,36.18-16.28l54.46-31.76-6.33-19.73-24.15-5.64-46.41,20.23Z" fill="#881F63"></path>
      <path d="M436.47,561.11c-4.11,0-7.14-.28-7.47-.31l-.29-.03-33.37-72.26c-12.49-30.63-13.04-44.59-13.05-44.73-.73-3.61,.1-7.22,2.47-10.64,11.72-16.93,57.19-24.65,59.89-25.1l46.5-20.27,.16,.04,24.43,5.7,6.54,20.38-54.81,31.96c-12.73,6.97-32.22,14.73-35.71,16.1,10.51,18.64,27.28,92.58,27.44,93.33l.07,.29-.22,.2c-5.11,4.48-15.47,5.33-22.59,5.33Zm-7.09-1.29c2.55,.21,21.38,1.53,28.79-4.6-1.18-5.19-17.48-76.19-27.56-93.26l-.3-.51,.55-.21c.22-.09,22.24-8.65,36.12-16.25l54.1-31.55-6.12-19.08-23.71-5.54-46.38,20.2c-.48,.08-47.71,7.96-59.29,24.69-2.21,3.19-2.98,6.54-2.3,9.96,.01,.22,.58,14.04,12.97,44.44l33.12,71.72Z" fill="#002346"></path>
    </g>
    <g>
      <path d="M513.08,590.72l-7.45,6.3c-9.69,11.85-44.17,6.85-51.95,5.54-1.36-.23-2.66-.84-3.57-1.87-.6-.67-.91-1.36-.99-2.05-.61-4.83,10.47-9.84,18.05-12.67,3.39-1.29,6.96-2.04,10.58-2.24,9.66-.47,9.73-7,9.73-7l21.81-6.45c2.42,7.27,3.79,20.43,3.79,20.43Z" fill="#F64C72"></path>
      <path d="M478.4,605.27c-10.16,0-20.1-1.43-24.79-2.21-1.56-.26-2.93-.98-3.86-2.03-.65-.73-1.02-1.51-1.12-2.32-.63-5,9.64-9.94,18.37-13.2,3.44-1.31,7.05-2.07,10.73-2.27,9.04-.44,9.25-6.26,9.26-6.51v-.37s.36-.11,.36-.11l22.27-6.59,.15,.46c2.41,7.24,3.8,20.4,3.81,20.54l.03,.26-7.65,6.47c-5.03,6.15-16.42,7.87-27.56,7.87Zm9.55-28.15c-.2,1.46-1.52,6.7-10.17,7.12-3.57,.2-7.08,.94-10.43,2.21-11.69,4.37-18.15,8.79-17.73,12.14,.07,.61,.36,1.21,.87,1.78,.78,.88,1.94,1.48,3.28,1.71,6.92,1.16,41.9,6.34,51.48-5.37l7.31-6.19c-.2-1.84-1.49-12.96-3.59-19.6l-21.02,6.22Z" fill="#002346"></path>
    </g>
    <g>
      <path d="M569.95,377.25h0c-5.87,9.5-27,17-27,17-11.38,4.86-27.57,0-27.57,0l-43.76-39.8-3.93-3.57c-4.33-3.8-12.54-21.62-14.91-26.89-.25-.54-.88-.77-1.42-.53-.13,.06-.25,.14-.34,.25-15.33,16.23-28.09,24.35-28.09,24.35l-16.17-1.75h-.14l-10.89-1.18c5.68-5.37,5.27-27.48,5.27-27.48,9.13-7.47,16-23.45,19.44-32.84,1.24-3.4,2.14-6.9,2.95-10.43,2.43-10.66,11.24-12.8,11.24-12.8l54-20.57,13.07-4.43c35-2,52.76,20.38,52.76,20.38,15.1,17.72,14.61,46.13,13.2,60.4-.88,8.94-.81,17.95,.17,26.89,1.44,13.05,3.49,26.9,3.49,26.9,.36,2.13-.13,4.32-1.36,6.09Z" fill="#F64C72"></path>
      <path d="M530.71,396.93c-8,0-15.03-2.07-15.47-2.2l-.19-.11-47.69-43.37c-4.39-3.85-12.61-21.68-15.03-27.06-.13-.28-.46-.41-.75-.28-.07,.03-.13,.08-.18,.13-15.2,16.09-28.06,24.35-28.19,24.43l-.15,.09-16.34-1.77h-.09s-12.02-1.3-12.02-1.3l.79-.74c5.46-5.16,5.12-26.89,5.11-27.11v-.24s.18-.15,.18-.15c9.12-7.46,15.99-23.64,19.28-32.62,1.32-3.61,2.22-7.27,2.93-10.37,2.47-10.84,11.51-13.15,11.61-13.17l53.94-20.55,13.22-4.46c34.87-1.98,53,20.34,53.18,20.57,15.05,17.67,14.8,45.65,13.31,60.76-.87,8.83-.81,17.84,.17,26.78,1.42,12.89,3.46,26.74,3.49,26.88,.38,2.26-.13,4.55-1.44,6.44-5.9,9.53-26.38,16.89-27.25,17.2-3.88,1.66-8.27,2.21-12.41,2.21Zm-15.08-3.13c1.42,.4,16.52,4.52,27.12-.01,.24-.09,21.06-7.56,26.77-16.8l.02-.02c1.17-1.68,1.62-3.71,1.28-5.72-.02-.15-2.07-14.02-3.49-26.93-.99-9.01-1.05-18.09-.17-26.99,1.48-14.95,1.74-42.63-13.08-60.03-.19-.23-17.99-22.13-52.28-20.21l-13.01,4.41-53.98,20.56c-.14,.04-8.6,2.22-10.93,12.44-.71,3.13-1.62,6.82-2.97,10.49-3.3,9.02-10.2,25.22-19.4,32.9,.03,2.45,.08,20.71-4.75,26.86l9.92,1.07h.09s16.05,1.73,16.05,1.73c1.46-.96,13.61-9.1,27.85-24.18,.14-.15,.31-.27,.5-.36,.79-.36,1.72-.01,2.08,.78,2.4,5.33,10.54,23,14.79,26.72l47.61,43.3Z" fill="#002346"></path>
    </g>
    <g>
      <path d="M477.62,258.89c-8.52,14.59-7.3,32.84-7.3,32.84-2.43-4.87-3.65-14.6-3.65-14.6-.28-2.54-.56-4.75-.83-6.64-.79-5.67-3.01-11.05-6.45-15.63l-2.45-3.27,6.61-30.18,8,2.17,17,17-10.93,18.31Z" fill="#f2b3c1"></path>
      <path d="M470.96,294.11l-1.08-2.16c-2.44-4.89-3.65-14.36-3.7-14.76-.28-2.51-.56-4.74-.83-6.63-.78-5.58-2.98-10.9-6.36-15.41l-2.58-3.45,.05-.22,6.72-30.68,8.62,2.34,17.36,17.36-11.12,18.63c-8.34,14.29-7.25,32.38-7.23,32.56l.16,2.41Zm-13.5-42.63l2.32,3.09c3.48,4.64,5.74,10.12,6.54,15.85,.27,1.9,.55,4.14,.83,6.66,0,.08,.9,7.07,2.63,12.07,.02-5.61,.83-19.21,7.42-30.5h0s10.74-17.99,10.74-17.99l-16.64-16.64-7.38-2-6.45,29.47Z" fill="#002346"></path>
    </g>
    <g>
      <path d="M503.23,267.38c-8.45-5.04-29.02-13.15-32.87,24.36,0,0-1.22-18.25,7.3-32.84l10.96-18.25-3.29-3.29s16.43-9.26,16.73,2.8c.07,1.92,.3,3.84,.67,5.73l3.28,18.95,.09,.56c.27,1.62-1.47,2.83-2.88,1.99Z" fill="#fff"></path>
      <path d="M470.86,291.78l-1-.02c-.01-.18-1.13-18.57,7.37-33.12l10.76-17.92-3.48-3.48,.57-.32c.39-.22,9.73-5.42,14.63-2.65,1.82,1.03,2.78,3.01,2.85,5.87,.07,1.88,.29,3.78,.66,5.65l3.38,19.52c.16,.95-.24,1.87-1.03,2.42-.79,.54-1.78,.57-2.6,.08-4.37-2.61-12.76-6.45-19.84-2.89-6.65,3.34-10.78,12.38-12.27,26.87Zm15.3-54.31l3.09,3.09-11.16,18.58c-4.89,8.37-6.54,18.06-7.06,24.67,2.09-10.32,5.99-16.97,11.65-19.8,7.51-3.77,16.26,.22,20.8,2.93h0c.48,.29,1.05,.27,1.52-.05,.37-.25,.72-.76,.61-1.42l-.09-.56-3.28-18.95c-.38-1.9-.6-3.86-.68-5.8-.06-2.49-.85-4.18-2.34-5.03-3.75-2.13-10.96,1.26-13.06,2.34Z" fill="#002346"></path>
    </g>
    <g>
      <path d="M467.23,280.52h0c-4.33-8.67-6.6-9.5-6.6-9.5-5.31-3.19-9.28,9.09-10.21,12.27-.06,.19-.34,.18-.38-.01-1.7-7.31-1.64-15.8,.18-23.03,3-.83,6-1.83,9.76-4.73l4.3,5.73c1.21,4.93,2.83,18.34,2.95,19.27Z" fill="#fff"></path>
      <path d="M450.24,283.93h-.02c-.32,0-.59-.23-.66-.54-1.73-7.45-1.66-15.92,.18-23.26l.07-.28,.28-.08c2.93-.81,5.86-1.77,9.59-4.64l.4-.31,4.69,6.32c.73,2.99,1.74,9.52,2.91,18.89l.43,3.37-1.32-2.65c-4.1-8.21-6.32-9.25-6.34-9.26-.9-.53-1.71-.62-2.53-.29-2.86,1.12-5.5,7.06-7.01,12.24-.09,.3-.36,.5-.67,.5Zm.4-23.28c-1.65,6.75-1.77,14.46-.35,21.38,1.18-3.76,3.73-10.4,7.27-11.78,1.12-.44,2.24-.33,3.34,.33,.15,.05,2.03,.89,5.5,7.23-1.01-7.9-1.92-13.65-2.57-16.35l-3.94-5.25c-3.56,2.66-6.42,3.64-9.25,4.43Z" fill="#002346"></path>
    </g>
    <g>
      <path d="M486.34,263.28s-5.72,31.54-10.27,39.13h-5.77l-12.27-31.74s-1.83-.61-5.09,6c7.65,11.56,13.52,24.21,17.42,37.51l1.26,39.89,20.18,18.34-10.49-57.61v-12.13s16.73-26.59,18.7-37c-4.1-2.46-8.97-3.31-13.67-2.39Z" fill="#881F63"></path>
      <path d="M492.56,373.77l-21.43-19.48-1.26-40.04c-3.89-13.25-9.72-25.8-17.34-37.31l-.16-.24,.13-.26c3.29-6.67,5.33-6.38,5.7-6.25l.22,.08,.08,.22,12.15,31.42h5.14c4.43-7.84,10.01-38.41,10.06-38.72l.06-.34,.33-.07c4.82-.95,9.81-.08,14.02,2.45l.3,.18-.06,.34c-1.92,10.13-17.31,34.84-18.69,37.05v11.99l10.75,58.97Zm-20.44-19.93l18.93,17.2-10.22-56.16v-12.36s.07-.12,.07-.12c.17-.26,16.34-26.05,18.56-36.48-3.84-2.21-8.32-2.99-12.68-2.21-.66,3.6-5.93,31.71-10.27,38.96l-.15,.24h-6.4l-.12-.32-12.14-31.41c-.49,.16-1.94,.99-4.18,5.45,7.61,11.55,13.44,24.13,17.32,37.4l.02,.12,1.25,39.68Z" fill="#002346"></path>
    </g>
    <g>
      <path d="M234.41,372.52l254.16,29.7,60.31-39.34-180.69-21.28-133.79,30.72c-.11,.03-.1,.19,.01,.2Z" fill="#fff"></path>
      <path d="M488.69,402.74l-.18-.02-254.16-29.7c-.29-.03-.52-.27-.53-.57s.18-.56,.47-.62l133.87-30.74h.09s182.06,21.45,182.06,21.45l-61.62,40.19Zm-251.94-30.45l251.69,29.41,59-38.49-179.23-21.11-131.46,30.18Zm-2.24,.51h0s0,0,0,0Z" fill="#002346"></path>
    </g>
    <g>
      <polygon points="263.98 275.04 339.38 270.62 363.32 376.87 283.13 370.79 263.98 275.04" fill="#F64C72"></polygon>
      <path d="M363.96,377.42l-81.24-6.16-19.34-96.69,.57-.03,75.82-4.45,.09,.41,24.09,106.91Zm-80.41-7.1l79.14,6-23.7-105.18-74.4,4.36,18.96,94.81Z" fill="#002346"></path>
    </g>
    <g>
      <polygon points="362.33 372.45 414.38 366.83 414.38 370.79 363.32 376.87 362.33 372.45" fill="#F64C72"></polygon>
      <path d="M362.93,377.42l-1.21-5.41,53.16-5.74v4.96l-.44,.05-51.51,6.13Zm0-4.53l.77,3.43,50.17-5.97v-2.96l-50.94,5.5Z" fill="#002346"></path>
    </g>
    <g>
      <path d="M414.22,366.81l-54.73-6.97,2.84,12.61,51.89-5.6s.02-.04,0-.04Z" fill="#fff"></path>
      <path d="M361.94,373l-3.09-13.74,55.87,7.1,.02,.93-.47,.06-52.32,5.65Zm-1.81-12.57l2.58,11.48,47.38-5.12-49.96-6.36Z" fill="#002346"></path>
    </g>
    <g>
      <path d="M504.42,457.15c7.29,17,4.86,113.11,4.86,113.11-3.95,6.78-10.53,8-16.44,7.46-4.44-.53-8.75-1.82-12.75-3.81l-25.54-114.33c-12.17-41.36,29.07-43.39,29.07-43.39,27.84-3.25,31.75-22.29,31.75-22.29,0,0,16.19,4.86,27.57,0,0,0,12.46-4.43,20.9-10.79,2.4-1.69,4.48-3.8,6.12-6.23l5,29.18c12.17,51.09-70.54,51.09-70.54,51.09Z" fill="#881F63"></path>
      <path d="M495.26,578.34c-.8,0-1.62-.04-2.47-.12-4.52-.54-8.87-1.83-12.93-3.86l-.21-.11-25.59-114.56c-3.72-12.63-2.85-22.93,2.59-30.58,8.8-12.38,26.76-13.41,26.94-13.42,27.13-3.17,31.25-21.71,31.28-21.89l.11-.54,.52,.16c.16,.05,16.15,4.75,27.23,.02,.15-.06,12.52-4.49,20.79-10.73,2.38-1.67,4.39-3.72,6.01-6.11l.7-1.03,5.21,30.41c2.71,11.39,.92,21.21-5.35,29.14-16.39,20.75-58.84,22.39-64.95,22.52,6.92,18.58,4.72,108.75,4.63,112.63v.13s-.07,.11-.07,.11c-3.03,5.2-7.88,7.82-14.45,7.82Zm-14.74-4.77c3.9,1.91,8.06,3.14,12.37,3.66,7.35,.67,12.69-1.72,15.88-7.11,.1-4.03,2.22-96.35-4.82-112.77l-.3-.7h.76c.47,0,47.61-.26,64.9-22.15,6.07-7.68,7.8-17.21,5.15-28.32l-4.8-28.03c-1.55,2.07-3.41,3.88-5.54,5.37-8.39,6.32-20.89,10.81-21.02,10.85-10.41,4.45-24.52,.94-27.38,.15-.9,3.11-6.76,19.21-32.05,22.17-.21,.01-17.7,1.02-26.21,13-5.25,7.39-6.07,17.4-2.43,29.75l25.5,114.13Z" fill="#002346"></path>
    </g>
    <g>
      <path d="M429.01,560.3s.47,11.76-13.75,17.55c0,0-38.56,15.52-30,20.39,0,0,24.32,1.21,41.35-4.87,0,0,23.25-6.89,29.26-5.88v-30.23s-7.4,5.24-26.86,3.04Z" fill="#F64C72"></path>
      <path d="M390.28,598.83c-3.08,0-4.98-.09-5.04-.09h-.12s-.1-.06-.1-.06c-1.31-.75-1.53-1.69-1.49-2.34,.42-6.24,28.36-17.66,31.55-18.95,13.71-5.58,13.45-16.6,13.44-17.07l-.02-.58,.58,.06c18.98,2.14,26.44-2.9,26.51-2.95l.79-.55v31.78s-.58-.1-.58-.1c-5.83-.99-28.8,5.8-29.04,5.87-12.24,4.37-28.4,4.98-36.47,4.98Zm-4.87-1.09c1.88,.08,24.91,.91,41.04-4.85,.95-.28,22.15-6.55,28.93-5.97v-28.79c-2.35,1.25-10.08,4.41-25.87,2.72-.14,2.48-1.48,12.34-14.05,17.46-8.49,3.42-30.61,13.33-30.93,18.09-.01,.19-.05,.77,.88,1.35Z" fill="#002346"></path>
    </g>
    <g>
      <polygon points="226.93 590.72 256.78 384.17 272.96 384.17 236.88 590.72 226.93 590.72" fill="#e6e7e8"></polygon>
      <path d="M237.3,591.22h-10.95l.08-.57,29.91-206.98h17.21l-.1,.59-36.15,206.96Zm-9.79-1h8.95l35.91-205.55h-15.15l-29.71,205.55Z" fill="#002346"></path>
    </g>
    <g>
      <polygon points="461.85 406.06 496.09 608.11 504.36 608.11 476.48 410.59 461.85 406.06" fill="#e6e7e8"></polygon>
      <path d="M504.94,608.61h-9.27l-.07-.42-34.38-202.85,15.71,4.86,.04,.31,27.96,198.09Zm-8.42-1h7.27l-27.76-196.64-13.55-4.2,34.03,200.83Z" fill="#002346"></path>
    </g>
    <g>
      <path d="M738,348.84l-42.62,92.49s-30.41-35.66-60.82-39.11h0c.54-.64,17.65-21.65,27.6-68.73,0,.03,0,.06,0,.09,.39,1.43,6.64,22.25,75.84,15.26Z" fill="#fff"></path>
      <path d="M695.51,442.25l-.51-.59c-.3-.35-30.63-35.55-60.5-38.94l-.93-.11,.6-.71c.17-.21,17.47-21.11,27.49-68.51l.99,.14c.59,2.17,7.89,21.63,75.29,14.82l.87-.09-43.31,93.99Zm-60.01-40.42c27.81,3.73,55.65,33.98,59.75,38.59l41.93-91c-59.29,5.84-72.2-8.96-74.88-14.18-9.08,41.73-23.76,62.61-26.79,66.59Z" fill="#002346"></path>
    </g>
    <g>
      <path d="M679.62,374.28s-20.5,14.24-44.7,27.75c-.06,.04-.14-.04-.09-.09,2.07-2.6,17.95-23.8,27.39-68.47,0,.03,0,.06,0,.09,.14,1.85,3.21,31.13,17.4,40.72Z" fill="#e6e7e8"></path>
      <path d="M634.81,402.67l-.35-.32c-.18-.2-.18-.5-.01-.71,1.79-2.26,17.81-23.4,27.29-68.26l.99,.14c.02,.32,2.93,30.73,17.18,40.36l.6,.41-.6,.42c-.21,.14-20.8,14.41-44.74,27.78l-.36,.2Zm-.13-1.07s0,0-.01,0c0,0,0,0,.01,0Zm27.39-65.06c-8.42,37.76-21.36,58.12-25.61,64.06,20.89-11.78,38.85-23.96,42.28-26.32-11.68-8.51-15.61-29.9-16.68-37.74Z" fill="#002346"></path>
    </g>
    <g>
      <path d="M269.67,206.58l-52.3,94.88c-18.25-19.46-47.44-47.44-47.44-47.44,20.68-9.73,55.95-65.68,55.95-65.68,7.07,36.51,41.5,19.42,43.68,18.31l.11-.07Z" fill="#fff"></path>
      <path d="M217.48,302.3l-.47-.5c-18.03-19.23-47.13-47.14-47.42-47.42l-.53-.5,.66-.31c20.31-9.56,55.39-64.94,55.74-65.49l.67-1.07,.24,1.24c2.01,10.39,6.46,17.33,13.21,20.63,12.16,5.94,27.99-1.77,29.75-2.67l.07-.05,1.65-1.04-53.57,97.19Zm-46.68-48.15c3.96,3.81,29.73,28.66,46.47,46.46l51.21-92.89c-4.55,2.07-18.33,7.42-29.33,2.05-6.78-3.31-11.32-10.08-13.5-20.12-5.03,7.86-35.54,54.7-54.85,64.5Z" fill="#002346"></path>
    </g>
    <g>
      <path d="M269.67,206.58l-51.28,93.03c-.22,.39-.82,.2-.76-.25l8.25-67.23,43.68-25.48,.11-.07Z" fill="#e6e7e8"></path>
      <path d="M218.04,300.32c-.09,0-.19-.01-.29-.05-.42-.14-.67-.54-.62-.97l8.28-67.48,43.99-25.67,1.65-1.04-52.22,94.74c-.16,.3-.47,.47-.79,.47Zm8.31-67.89l-8.16,66.51,50.17-91.02-42.01,24.5Z" fill="#002346"></path>
    </g>
    <g>
      <rect x="408.39" y="187.68" width="54.47" height="76.66" rx="27.23" ry="27.23" transform="translate(-36.4 360.32) rotate(-43.3)" fill="#f2b3c1"></rect>
      <path d="M443.26,261.81c-.28,0-.56,0-.84-.01-7.4-.22-14.27-3.31-19.35-8.7l-15.22-16.15c-10.48-11.12-9.96-28.7,1.16-39.18,11.12-10.48,28.7-9.96,39.18,1.16l15.22,16.15c10.48,11.12,9.96,28.7-1.16,39.18h0c-5.18,4.89-11.9,7.55-18.99,7.55Zm-15.25-70.61c-6.58,0-13.18,2.41-18.34,7.27-10.73,10.12-11.23,27.08-1.12,37.81l15.22,16.15c4.9,5.2,11.53,8.18,18.67,8.39,7.13,.21,13.94-2.37,19.14-7.27,10.73-10.12,11.23-27.08,1.12-37.81l-15.22-16.15c-5.25-5.57-12.36-8.39-19.47-8.39Z" fill="#002346"></path>
    </g>
    <path d="M403.62,229.89s-7.43,1-7.43-6.28v-11.64s-6.08-44.31,29.2-34.58c0,0-2.44-4.69,0-6.6,0,0,1.21-1.91,6.08,4.17,0,0-3.34-8.91,3.19-4.45,0,0,5.32,5.67,9,10.53,0,0,10.95-12.16,15.81-6.08,0,0,1.22,4.52-2.43,10.17,0,0,6.08-6.52,10.95-2.87,0,0,2.43,2.43-3.65,9.73,0,0,21.47,1,6.48,18.14,0,0-13.78,8.62-21.08-4.76,0,0-4.41,7.92-13.76-5.77,0,0-8.13,19.15-10.56,4.55,0,0-3.65,14.6-9.73,4.87,0,0-4.79-4.68-13.34,14.69,.21,2.1,.63,4.17,1.27,6.18Z" fill="#002346" stroke="#002346" stroke-miterlimit="10" stroke-width="0"></path>
    <g>
      <path d="M404.47,207.3l-8.2,4.2v12.13s-.5,4.19,3.38,5.75c1.28,.47,2.64,.66,4,.55,1.41-.12,1.4,4.06,1.4,4.06-.89,4.26-7.39,14.8-7.39,14.8l1.47,31.71s0,.06,0,.09l1.83,34.25c-.04,25.97-4.04,28.97-4.04,28.97-1.9,2-5.64,4.01-7.96,4.55-7.77,1.67-15.48-3.06-17.5-10.74-7.52-27.64,7.69-95.79,7.69-95.79l1.29-28s0-7.29,3.68-9.72c0,0,14.63-13.33,20.71-13.32,0,0,8-.67,.31,6.34,0,0,10.94-3.47,4.08,3,.07,.02,7.04,1.81-4.75,7.17Z" fill="#f2b3c1"></path>
      <path d="M385.8,349.18c-6.83,0-13-4.57-14.81-11.44-7.46-27.43,7.53-95.33,7.69-96.02l1.28-27.92c0-.29,.04-7.56,3.9-10.1,.54-.5,14.77-13.4,20.97-13.4h0c.29-.03,3.27-.23,3.99,1.42,.47,1.07-.18,2.53-1.99,4.44,1.88-.45,4.35-.8,4.98,.27,.45,.77-.07,1.87-1.7,3.51,.71,.32,1.61,.92,1.7,1.93,.14,1.7-2.19,3.62-7.13,5.87l-7.93,4.06v11.83c-.02,.21-.4,3.9,3.08,5.3,1.19,.44,2.51,.62,3.78,.52,.32-.03,.64,.08,.89,.32,.99,.91,1.03,3.68,1.03,4.22-.86,4.18-6.6,13.66-7.38,14.93l1.47,31.62v.03s1.83,34.25,1.83,34.25c-.04,25.94-4.06,29.26-4.23,29.38-1.96,2.08-5.82,4.09-8.14,4.63-1.1,.24-2.19,.35-3.27,.35Zm19.06-157.91c-5.87,0-20.27,13.06-20.42,13.19-3.48,2.3-3.52,9.29-3.52,9.36l-1.29,28.02c-.16,.76-15.11,68.43-7.71,95.64,1.96,7.45,9.4,12.01,16.93,10.39,2.14-.5,5.83-2.43,7.71-4.41,.09-.08,3.87-3.6,3.91-28.64l-1.83-34.28v-.06s-1.47-31.83-1.47-31.83l.08-.13c.06-.1,6.46-10.52,7.33-14.64,0-1.08-.23-2.95-.73-3.41-.07-.07-.12-.07-.16-.07-1.42,.11-2.88-.09-4.21-.58-4.19-1.68-3.7-6.22-3.69-6.26v-12.37s8.48-4.35,8.48-4.35c6.07-2.76,6.62-4.35,6.57-4.91-.06-.71-1.17-1.19-1.74-1.35l-.84-.22,.63-.6c2.4-2.26,2.1-2.83,2.09-2.86-.3-.5-3.01-.18-5.69,.67l-2.1,.67,1.63-1.49c3.32-3.03,3.29-4.27,3.12-4.66-.37-.86-2.38-.89-3.06-.84h0Z" fill="#002346"></path>
    </g>
    <g>
      <ellipse cx="467.02" cy="214.73" rx="6.9" ry="10.57" transform="translate(-44.79 262.28) rotate(-30)" fill="#f2b3c1"></ellipse>
      <path d="M469.89,224.99c-3.2,0-6.91-2.5-9.26-6.57-1.46-2.53-2.19-5.28-2.05-7.75,.14-2.55,1.18-4.51,2.92-5.51,1.74-1.01,3.96-.93,6.23,.23,2.21,1.12,4.23,3.13,5.69,5.65,3.05,5.28,2.66,11.23-.87,13.27-.81,.47-1.71,.69-2.66,.69Zm-5.7-19.56c-.8,0-1.55,.19-2.21,.57h0c-1.45,.84-2.31,2.52-2.44,4.73-.13,2.29,.56,4.85,1.92,7.21,2.78,4.81,7.53,7.3,10.6,5.53,3.06-1.77,3.29-7.12,.51-11.94-1.37-2.36-3.24-4.24-5.29-5.27-1.08-.55-2.13-.82-3.1-.82Z" fill="#002346"></path>
    </g>
    <g>
      <path d="M233.82,372.41c.57-.45,0,11.72,0,11.72l255.19,29.46-.39-11.37-254.8-29.81Z" fill="#e6e7e8"></path>
      <path d="M489.53,414.15l-.58-.07-255.65-29.51,.02-.47c.19-4.04,.35-9.9,.18-11.23l-.94-.11,1.2-.95,.27,.11,255.07,29.84,.42,12.38Zm-255.19-30.47l254.15,29.34-.36-10.36-253.65-29.68c.14,1.24,.16,4.07-.14,10.7Z" fill="#002346"></path>
    </g>
    <g>
      <polygon points="489.01 413.63 488.57 402.22 550.12 362.17 550.12 371.91 489.01 413.63" fill="#e6e7e8"></polygon>
      <path d="M488.55,414.55l-.49-12.6,.24-.15,62.32-40.55v10.92l-.22,.15-61.86,42.23Zm.54-12.07l.39,10.22,60.14-41.06v-8.55l-60.54,39.39Z" fill="#002346"></path>
    </g>
    <g>
      <path d="M555.18,346.33c4.36,4.85,3.03,12.55-2.68,15.7-1.11,.61-2.32,1.23-3.58,1.78-4,1.75-6.69,2.37-23.83,4.54l-46.22,1.22s-14.17,6-25.93,1.19c-2.27-.11-4.51,.48-6.43,1.69,0,0-6.89,4.1-7.32,0,0,0-10.18,2-11.4-1.66,0,0-3.65,2.43-4.87-4.87,0,0-3,1.16-3.91-3.08-.51-1.94,.05-4.01,1.48-5.43l9.73-7.3s2.43-3.65,9.73-1.22l13,1.12c3.9,.47,7.82,.68,11.75,.63,5.67-.06,12.26-.73,17.13-3,0,0,44.49-18.23,56.65-13.36,0,.01,10.67,5.36,16.7,12.05Z" fill="#f2b3c1"></path>
      <path d="M441.28,374.76c-.49,0-.96-.08-1.35-.28-.41-.21-.91-.62-1.13-1.46-2.13,.37-9.49,1.42-11.24-1.57-.5,.2-1.33,.38-2.21,0-1.34-.58-2.29-2.24-2.81-4.93-.49,.07-1.23,.08-1.97-.32-1-.54-1.68-1.63-2.03-3.25-.55-2.08,.07-4.34,1.61-5.88l9.72-7.3c.41-.55,3.15-3.67,10.18-1.35l12.94,1.12c3.88,.46,7.81,.67,11.7,.63,7.19-.08,12.89-1.07,16.93-2.96,1.85-.76,44.83-18.26,57.04-13.37l.5,.2-.03,.05c2.92,1.55,11.31,6.27,16.4,11.93,2.17,2.41,3.1,5.64,2.56,8.86-.55,3.24-2.5,6-5.36,7.58-1.25,.69-2.47,1.29-3.62,1.8-4.02,1.76-6.71,2.39-23.97,4.58l-46.18,1.22c-1.22,.49-14.82,5.76-26.14,1.19-2.14-.09-4.25,.47-6.07,1.62-.39,.23-3.26,1.9-5.48,1.9Zm-1.67-2.88l.06,.53c.06,.61,.29,1.01,.69,1.21,1.44,.72,4.75-.89,5.9-1.58,2-1.26,4.32-1.87,6.7-1.76l.16,.04c11.43,4.67,25.42-1.13,25.56-1.19l.18-.04,46.22-1.22c17.08-2.17,19.74-2.79,23.65-4.5,1.13-.49,2.32-1.09,3.54-1.76,2.6-1.44,4.38-3.95,4.88-6.89,.49-2.93-.36-5.86-2.33-8.05h0c-5.18-5.76-13.89-10.55-16.44-11.88-.04-.02-.07-.04-.1-.05-11.88-4.7-55.82,13.19-56.27,13.37-4.15,1.93-9.98,2.96-17.31,3.04-3.93,.06-7.91-.17-11.81-.63l-13.1-1.14c-6.82-2.27-9.08,.89-9.17,1.03l-.11,.12-9.73,7.3c-1.25,1.25-1.77,3.15-1.3,4.92,.29,1.34,.8,2.21,1.53,2.61,.84,.46,1.72,.14,1.73,.14l.55-.21,.1,.58c.55,3.29,1.57,4.37,2.32,4.71,.91,.4,1.77-.14,1.8-.16l.53-.34,.2,.59c.89,2.67,8.13,1.87,10.85,1.34l.52-.1Z" fill="#002346"></path>
    </g>
    <rect x="647.94" y="557.98" width="111.9" height=".25" fill="red"></rect>
    <g>
      <rect x="647.94" y="515.53" width="111.9" height="108.25" fill="#F64C72"></rect>
      <path d="M760.34,624.28h-112.9v-109.25h112.9v109.25Zm-111.9-1h110.9v-107.25h-110.9v107.25Z" fill="#002346"></path>
    </g>
    <g>
      <rect x="647.94" y="542.9" width="111.9" height="1.22" fill="#002346"></rect>
      <rect x="647.94" y="569.65" width="111.9" height="1.22" fill="#002346"></rect>
      <rect x="647.94" y="585.47" width="111.9" height="1.22" fill="#002346"></rect>
      <rect x="647.94" y="598.85" width="111.9" height="1.22" fill="#002346"></rect>
      <rect x="647.94" y="612.23" width="111.9" height="1.22" fill="#002346"></rect>
    </g>
    <g>
      <path d="M699.2,553.23s12,13.38,12,28l47.09-20.62-59.09-7.38Z" fill="#F64C72"></path>
      <path d="M710.7,582v-.76c0-14.25-11.75-27.53-11.87-27.67l-.89-1,62.22,7.77-49.46,21.66Zm-10.3-28.11c2.68,3.31,10.95,14.51,11.29,26.59l44.74-19.59-56.03-7Z" fill="#002346"></path>
    </g>
    <g>
      <rect x="578.61" y="522.83" width="111.9" height="108.25" fill="#fff"></rect>
      <path d="M691.01,631.58h-112.9v-109.25h112.9v109.25Zm-111.9-1h110.9v-107.25h-110.9v107.25Z" fill="#002346"></path>
    </g>
    <g>
      <rect x="578.61" y="550.19" width="111.9" height="1.22" fill="#002346"></rect>
      <rect x="578.61" y="576.95" width="111.9" height="1.22" fill="#002346"></rect>
      <rect x="578.61" y="592.76" width="111.9" height="1.22" fill="#002346"></rect>
      <rect x="578.61" y="606.14" width="111.9" height="1.22" fill="#002346"></rect>
      <rect x="578.61" y="619.52" width="111.9" height="1.22" fill="#002346"></rect>
    </g>
    <g>
      <path d="M684.43,558.1l-99.74,10.95,79.76,18.44s5.39-19.66,19.98-29.39Z" fill="#F64C72"></path>
      <path d="M664.81,588.09l-.47-.11-82.63-19.1,104.7-11.5-1.7,1.14c-14.26,9.51-19.72,28.91-19.78,29.11l-.13,.46Zm-77.13-18.86l76.43,17.67c.89-2.92,6.25-18.94,18.46-28.09l-94.89,10.42Z" fill="#002346"></path>
    </g>
    <g>
      <path d="M593.21,534.47s10.94,10.25,10.94,18.76c0,0,26.76-13.38,40.14-13.38l-51.08-5.38Z" fill="#F64C72"></path>
      <path d="M603.65,554.04v-.81c0-8.2-10.67-18.29-10.78-18.39l-1.09-1.02,52.56,5.54-.05,1c-13.11,0-39.65,13.19-39.92,13.33l-.72,.36Zm-9.07-18.92c2.66,2.72,9.54,10.37,10.04,17.32,3.83-1.88,21.93-10.5,34.63-12.62l-44.67-4.71Z" fill="#002346"></path>
    </g>
    <g>
      <rect x="189.39" y="447.41" width="172.72" height="124.06" fill="#e6e7e8"></rect>
      <path d="M362.61,571.97H188.89v-125.06h173.72v125.06Zm-172.72-1h171.72v-123.06H189.89v123.06Z" fill="#002346"></path>
    </g>
    <g>
      <rect x="184.53" y="421.87" width="182.45" height="30.41" fill="#fff"></rect>
      <path d="M367.48,452.78H184.03v-31.41h183.45v31.41Zm-182.45-1h181.45v-29.41H185.03v29.41Z" fill="#002346"></path>
    </g>
    <rect x="257.5" y="526.36" width="111.91" height=".25" fill="red"></rect>
    <g>
      <rect x="257.5" y="483.9" width="111.9" height="108.25" fill="#F64C72"></rect>
      <path d="M369.9,592.65h-112.9v-109.25h112.9v109.25Zm-111.9-1h110.9v-107.25h-110.9v107.25Z" fill="#002346"></path>
    </g>
    <g>
      <rect x="257.5" y="511.27" width="111.9" height="1.22" fill="#002346"></rect>
      <rect x="257.5" y="538.03" width="111.9" height="1.22" fill="#002346"></rect>
      <rect x="257.5" y="553.84" width="111.9" height="1.22" fill="#002346"></rect>
      <rect x="257.5" y="567.22" width="111.9" height="1.22" fill="#002346"></rect>
      <rect x="257.5" y="580.6" width="111.9" height="1.22" fill="#002346"></rect>
    </g>
    <g>
      <path d="M308.76,521.61s12,13.38,12,28l47.09-20.63-59.09-7.37Z" fill="#F64C72"></path>
      <path d="M320.26,550.38v-.76c0-14.25-11.75-27.53-11.87-27.67l-.89-1,62.22,7.76-49.46,21.67Zm-10.3-28.11c2.68,3.31,10.95,14.51,11.29,26.59l44.74-19.6-56.03-6.99Z" fill="#002346"></path>
    </g>
    <g>
      <rect x="76.27" y="466.88" width="172.72" height="124.06" fill="#881F63"></rect>
      <path d="M249.49,591.44H75.77v-125.06H249.49v125.06Zm-172.72-1H248.49v-123.06H76.77v123.06Z" fill="#002346"></path>
    </g>
    <g>
      <rect x="71.41" y="441.33" width="182.45" height="30.41" fill="#F64C72"></rect>
      <path d="M254.36,472.24H70.91v-31.41H254.36v31.41Zm-182.45-1H253.36v-29.41H71.91v29.41Z" fill="#002346"></path>
    </g>
    <path d="M381.37,242.87c-.59,0-.98-.06-1.03-.06-.27-.04-.46-.3-.42-.57,.04-.27,.3-.46,.57-.42,.03,0,3.1,.45,5.28-1.44,1.52-1.32,2.28-3.48,2.25-6.42l.9-18.67c0-.17,.1-.32,.25-.41l9.5-5.5c.24-.14,.54-.06,.68,.18,.14,.24,.06,.54-.18,.68l-9.26,5.36-.88,18.37c.04,3.22-.84,5.63-2.6,7.16-1.71,1.48-3.82,1.73-5.05,1.73Z" fill="#002346"></path>
    <path d="M389.67,207.61c-.16,0-.32-.08-.42-.23-.15-.23-.08-.54,.15-.69l15.47-9.98c.23-.15,.54-.08,.69,.15,.15,.23,.08,.54-.15,.69l-15.47,9.98c-.08,.05-.18,.08-.27,.08Z" fill="#002346"></path>
    <path d="M397.66,249.29h0l-7.99-.03c-.28,0-.5-.23-.5-.5,0-.28,.22-.5,.5-.5h0l7.99,.03c.28,0,.5,.23,.5,.5,0,.28-.22,.5-.5,.5Z" fill="#002346"></path>
    <path d="M470.36,314.68c-.27,0-.5-.22-.5-.49,0-.28,.21-.5,.49-.51l6.12-.11c.24-.04,.5,.21,.51,.49s-.21,.5-.49,.51l-6.12,.11h0Z" fill="#002346"></path>
    <path d="M422.92,366.42c-.14,0-.29-.06-.39-.18-.17-.21-.14-.53,.07-.7l10.5-8.61c.22-.17,.53-.14,.7,.07,.17,.21,.14,.53-.07,.7l-10.5,8.61c-.09,.08-.21,.11-.32,.11Z" fill="#002346"></path>
    <path d="M427.79,371.29c-.15,0-.3-.07-.4-.2-.17-.22-.13-.53,.09-.7l9.13-6.98c.22-.17,.53-.13,.7,.09,.17,.22,.13,.53-.09,.7l-9.13,6.98c-.09,.07-.2,.1-.3,.1Z" fill="#002346"></path>
    <path d="M439.19,372.95c-.16,0-.32-.08-.41-.22-.16-.23-.1-.54,.13-.69l7.51-5.15c.23-.16,.54-.1,.69,.13,.16,.23,.1,.54-.13,.69l-7.51,5.15c-.09,.06-.18,.09-.28,.09Z" fill="#002346"></path>
    <path d="M513.08,337.44c-.11,0-.22-.03-.31-.11-.22-.17-.26-.48-.09-.7l10.54-13.49c3.24-4.15,4.68-9.52,3.95-14.73l-5.98-42.73c-.04-.27,.15-.53,.43-.56,.26-.03,.53,.15,.56,.43l5.98,42.73c.77,5.48-.75,11.12-4.15,15.48l-10.54,13.49c-.1,.13-.25,.19-.39,.19Z" fill="#002346"></path>
    <path d="M504.42,457.65c-.08,0-.15-.02-.22-.05l-9.75-4.87c-.25-.12-.35-.42-.22-.67,.12-.25,.42-.35,.67-.22l9.75,4.87c.25,.12,.35,.42,.22,.67-.09,.17-.26,.28-.45,.28Z" fill="#002346"></path>
    <g>
      <ellipse cx="421.3" cy="211.26" rx="23" ry="9.18" transform="translate(-46.03 272.35) rotate(-34.08)" fill="#002346"></ellipse>
      <path d="M407.52,226.74c-2.63,0-4.63-.75-5.69-2.31-3.04-4.5,3.13-13.8,14.04-21.19,10.91-7.38,21.85-9.65,24.89-5.15h0c3.04,4.5-3.13,13.8-14.04,21.18-7.12,4.82-14.26,7.46-19.2,7.46Zm27.63-29.93c-4.72,0-11.87,2.63-18.72,7.27-10.1,6.83-16.41,15.9-13.77,19.8,2.64,3.9,13.4,1.41,23.5-5.42,10.1-6.83,16.41-15.9,13.77-19.8-.85-1.25-2.54-1.85-4.78-1.85Z" fill="#002346"></path>
    </g>
  </g>
</svg>
