<?xml version="1.0" encoding="UTF-8"?>
<svg xmlns="http://www.w3.org/2000/svg" id="a" width="865.76" height="682.89" viewBox="0 0 865.76 682.89">
  <g>
    <path d="M184.99,664.52s-49.1,3.4-48.25-58.45c0,0,1.91-51.64,19.72-98.17,0,0,10.17-23.27-8.91-64.13,0,0-70.58-119.73-44.83-172.5,0,0,123-235.49,302.36-245.14,0,0,204.11-27.24,318.57,20.43,0,0,80.11,20.43,26.7,134.48,0,0-77.55,114.06-28.61,183,0,0,116.36,150.73-38.15,300.5l-498.6-.02Z" fill="#F64C72"></path>
    <g opacity=".7">
      <path d="M721.72,364.02s116.36,150.73-38.15,300.5H184.97s-49.1,3.4-48.25-58.45c0,0,1.91-51.64,19.72-98.17,0,0,10.17-23.27-8.91-64.12,0,0-70.58-119.74-44.82-172.51,0,0,119.77-229.23,295.19-244.63,2.37-.21,4.75-.38,7.16-.51,3.61-.19,123.73-16.51,232.54-1.33,30.95,4.32,60.69,11.2,86,21.76,0,0,80.11,20.43,26.7,134.49,.03-.03-77.52,114.05-28.58,182.97Z" fill="#fff"></path>
    </g>
    <g opacity=".7">
      <ellipse cx="450.63" cy="611.23" rx="187.39" ry="38.62" fill="#fff"></ellipse>
    </g>
    <g>
      <path d="M357.04,574.54s2.49,7.52,7.65,3.71c0,0,3.26-5.7,7.33-5.43l-.7-2.92s-5.1,3.38-14.28,4.64Z" fill="#f2b3c1"></path>
      <path d="M361.89,579.83c-.39,0-.77-.06-1.15-.18-2.8-.89-4.12-4.79-4.17-4.95l-.19-.57,.6-.08c8.94-1.23,14.02-4.53,14.07-4.56l.6-.39,1.03,4.27-.68-.04c-3.72-.28-6.83,5.13-6.86,5.18l-.14,.15c-1.06,.78-2.1,1.18-3.1,1.18Zm-4.15-4.88c.45,1.04,1.56,3.2,3.31,3.75,1,.32,2.1,.05,3.27-.79,.44-.75,3.32-5.31,7.08-5.58l-.39-1.64c-1.57,.9-6.12,3.19-13.26,4.26Z" fill="#002346"></path>
    </g>
    <g>
      <path d="M357.04,574.54s-2.4,11.59,1.67,14.58c0,0,8.15,3.53,12.5,7.33,0,0,9.77,12.76,25,6.25,0,0,2.17-1.36-1.63-6-7.85-6.07-14.4-13.64-19.28-22.27-.61-1.23-1.97-1.89-3.31-1.61,0,0-3-.81-7.33,5.43,.03,0-4.41,4.26-7.62-3.71Z" fill="#F64C72"></path>
      <path d="M387.69,605.01c-10.4,0-16.8-8.16-16.88-8.26-4.17-3.63-12.22-7.14-12.3-7.17l-.1-.06c-4.28-3.14-1.96-14.6-1.86-15.08l.34-1.62,.62,1.53c1.06,2.64,2.4,4.18,3.86,4.48,1.5,.3,2.74-.75,2.91-.9,4.02-5.77,7.04-5.71,7.71-5.62,1.53-.27,3.07,.49,3.76,1.9,4.86,8.6,11.3,16.04,19.14,22.1l.08,.08c1.77,2.16,2.55,3.96,2.32,5.34-.16,.96-.75,1.35-.81,1.4-3.17,1.35-6.11,1.89-8.78,1.89Zm-28.73-16.33c.78,.34,8.35,3.7,12.58,7.39,.46,.58,9.79,12.44,24.47,6.17-.03,.02,.23-.21,.3-.72,.1-.75-.18-2.12-2.08-4.46-7.92-6.13-14.44-13.66-19.36-22.38-.52-1.05-1.65-1.6-2.77-1.37l-.12,.02-.12-.03s-2.77-.56-6.79,5.23h-.02c-.37,.53-1.62,1.09-2.12,1.22-1.59,.42-3.79,.07-5.67-3.53-.47,3.19-1.15,10.29,1.7,12.46Z" fill="#002346"></path>
    </g>
    <g opacity=".32">
      <path d="M476.13,168.19s-9.1,7.2-17.36-16.93c0,0-8.88-31.32,16.93-35.76,0,0,27.94-8.89,25.61,35.76,0,0-4,18.63,18,14,0,0,35.34-18.62,53.75-43,0,0,8.47-23.91,4-55.87,0,0-4.65-10.15-10.58-16.93,0,0,2.33-3.38,7.2,3.39-.65-6.81-2.45-13.45-5.31-19.66-.27-.58-.02-1.27,.56-1.54,.07-.03,.15-.06,.22-.08l1.24-.29c.55-.13,1.11,.16,1.33,.68,1.99,4.72,3.64,9.58,4.92,14.54,0,0-2.5-10.35-3.73-14.66-.16-.57,.14-1.16,.68-1.39l.13-.05c.57-.23,1.22,.03,1.48,.59,1.16,2.51,4.11,9.25,4.61,13.82,0,0-.85-8.15-2.39-12.89-.19-.6,.14-1.25,.75-1.45,.11-.04,.23-.06,.35-.05h.52c.47,0,.9,.29,1.07,.73,1.69,4.37,2.67,8.99,2.88,13.67,.43-3.21,.31-6.47-.36-9.64-.12-.63,.3-1.23,.93-1.35,.07-.01,.14-.02,.21-.02h0c.53,0,1,.37,1.12,.89,2.44,10.53,4.28,21.18,5.5,31.92,0,0,19.47,68.35-5.5,85.07l-19.85,20.27s-25.65,20.57-9.78,60.57c0,0,28.79,73.43,26,136.49l.85,97.14-26.88-3.6s-11-90.78-26.24-114.7l-23.63,51.07c-4.33,9.37-5.94,19.76-4.64,30l6.69,52.49-28.36,2.11-6.69-84.28c-.34-4.18-.19-8.38,.44-12.53l12.19-80.7c1.76-11.64,.76-23.53-2.91-34.71-7.55-22.96-20.24-43.89-37.09-61.21l-50.37-29.21s-17.35-7.19-14-35.13c0,0,7.4-41.05,15.23-59.68,0,0,2.75-24.35,9.39-31.81,.37-.41,1-.45,1.41-.09,.03,.03,.06,.06,.09,.09h0c.32,.29,.42,.75,.25,1.15-.95,1.87-3.44,7.24-2.4,10.35,0,0,2.59-11.65,5.86-14,.36-.27,.84-.27,1.2,0l.14,.09c.46,.31,.58,.93,.27,1.39,0,.01-.01,.02-.02,.03-1.28,1.87-4.14,6.67-3.64,11.46l6-12.52c.21-.51,.8-.75,1.31-.54,.11,.05,.21,.11,.3,.2l.14,.12c.33,.28,.45,.73,.29,1.13l-5.26,14.36,8.52-15.25c.25-.49,.86-.68,1.35-.43,.07,.03,.13,.07,.18,.12l1.06,.82c.43,.31,.54,.91,.25,1.36l-4.89,8c-1.75,2.85-2.81,6.08-3.08,9.42h0l3.09-2.81c.78-.71,1.98-.65,2.68,.13,.04,.05,.09,.1,.13,.15h0c.59,.81,.45,1.93-.31,2.57-8,6.86-13.09,16.52-14.21,27-.05,.47-.06,.95-.05,1.42,.13,5.53,1.08,41.36,4,48.38,0,0,36.19,30.48,65.6,23.92-.01-.07,3.17-1.13,.63-4.1Z" fill="#F64C72"></path>
    </g>
    <g>
      <polygon points="233.79 559.24 234.06 569.29 248.18 575.27 249.54 572.01 250.36 557.89 233.79 559.24" fill="#f2b3c1"></polygon>
      <path d="M248.45,575.92l-14.88-6.3-.29-10.85,17.62-1.43-.89,14.86-1.55,3.72Zm-13.9-6.97l13.36,5.66,1.13-2.72,.78-13.46-15.52,1.26,.25,9.26Z" fill="#002346"></path>
    </g>
    <g>
      <path d="M211.09,340.19c.61,2.13,4.12,12.4,15.04,14.49,.16,.03,.31-.11,.27-.27-.42-1.87-3.06-11.11-15.02-14.5-.17-.05-.34,.11-.29,.28Z" fill="#F64C72"></path>
      <path d="M226.17,355.19s-.09,0-.14-.01c-11.22-2.15-14.81-12.74-15.42-14.84-.07-.25,0-.52,.18-.71,.19-.19,.47-.26,.72-.19,12.21,3.46,14.94,12.99,15.37,14.87,.05,.24-.02,.49-.19,.66-.14,.15-.33,.22-.53,.22Zm-14.45-14.65c.89,2.75,4.44,11.5,14.09,13.57-.65-2.43-3.54-10.38-14.09-13.57Z" fill="#002346"></path>
    </g>
    <g>
      <path d="M327.99,329.49c-1.36,19-4.89,22.27-4.89,22.27-10.55,3.62-21.56,5.76-32.7,6.34-25.34,1-37.37-8.78-37.37-8.78l-2.17-11.41-24.25,16.71c-.1,.07-.23,.02-.27-.09-3.5-10.14-13.24-13.97-15.1-14.61-.13-.05-.16-.22-.05-.31l32.6-26.13-9-34.22c-2.72-15.75,15.2-25.8,15.2-25.8l21.59-10.91,8.18-4.14c2.34,5,16.13,2.29,16.13,2.29,22.54-3.26,44.27,26.88,44.27,26.88l22.26,28.79c9.05,27.66-34.44,33.13-34.44,33.13Z" fill="#F64C72"></path>
      <path d="M286.85,358.67c-22.83,0-34.02-8.87-34.14-8.96l-.14-.12-2.06-10.84-23.62,16.27c-.17,.12-.39,.15-.59,.09-.2-.07-.36-.22-.43-.43-3.42-9.9-12.92-13.65-14.79-14.3-.23-.08-.4-.28-.44-.52-.04-.24,.05-.49,.24-.65l32.35-25.93-8.92-33.91c-2.76-15.96,15.26-26.26,15.44-26.36l30.25-15.29,.22,.47c1.78,3.81,11.85,2.74,15.58,2.01,22.6-3.28,44.55,26.77,44.77,27.08l22.3,28.84,.03,.08c2.11,6.44,1.57,12.24-1.59,17.23-7.92,12.51-29.5,16.02-32.86,16.5-1.38,18.62-4.87,22.06-5.02,22.2l-.18,.11c-10.6,3.64-21.65,5.78-32.84,6.37-1.22,.05-2.41,.07-3.58,.07Zm-33.37-9.63c1.42,1.06,13.5,9.48,36.89,8.56,11.05-.58,21.96-2.69,32.44-6.27,.45-.55,3.45-4.82,4.67-21.88l.03-.41,.41-.05c.24-.03,24.38-3.21,32.54-16.1,2.98-4.71,3.49-10.19,1.51-16.3l-22.21-28.72c-.23-.31-21.82-29.86-43.8-26.69-.54,.11-13.38,2.57-16.4-2.12l-29.34,14.83c-.16,.09-17.56,10.06-14.93,25.27l9.07,34.49-32.41,25.98c2.76,1.06,11.31,5.02,14.72,14.33l24.53-16.9,2.28,11.98Zm-27.16,5.17s0,0,0,0h0Z" fill="#002346"></path>
    </g>
    <path d="M309.56,334.92s-8.69-4.88-10.05-19.55c0,0,9.23,2.45,10.05,19.55Z" fill="#F64C72"></path>
    <g>
      <path d="M309.53,334.9c-.51-.3-8.61-5.26-10-19.28-.01-.12,.11-.22,.22-.18,1.47,.54,9.05,4.03,9.8,19.44,0,.01-.01,.02-.02,.02Z" fill="#F64C72"></path>
      <path d="M309.57,335.48l-.29-.15c-.36-.21-8.82-5.33-10.24-19.66-.02-.23,.07-.45,.26-.6,.18-.14,.42-.18,.63-.1,1.56,.57,9.37,4.19,10.13,19.88v.29s-.49,.33-.49,.33Zm-9.48-19.35c1.26,11.07,6.82,16.23,8.91,17.8-.9-12.96-6.79-16.83-8.91-17.8Z" fill="#002346"></path>
    </g>
    <g>
      <path d="M213.99,341.17s-27.16,17.38-19.83,26.07c-.56,1.29,.03,2.79,1.32,3.36,.19,.08,.38,.14,.58,.17,0,0,.27,2.45,3.26,1.9,.63,.91,1.8,1.3,2.85,.94,.86-.31,1.51-1.03,1.74-1.92,.89-3.25,4.18-13.54,10.35-14.22l.44,5.59c.03,.46,.43,.8,.89,.76,.16-.01,.32-.07,.45-.17,1.1-.89,2.61-3.06,3.1-8.36,0,0,0-5.88,4.23-6.47-.02,0-5.6-6.56-9.38-7.65Z" fill="#f2b3c1"></path>
      <path d="M201.37,374.24c-.86,0-1.69-.37-2.27-1.03-1,.13-1.82-.04-2.46-.52-.63-.47-.9-1.11-1.01-1.51-.12-.04-.24-.08-.36-.13-1.45-.63-2.16-2.25-1.69-3.72-1-1.3-1.37-2.83-1.11-4.57,1.4-9.22,20.42-21.49,21.23-22.01l.19-.12,.22,.06c3.27,.94,7.74,5.69,9.51,7.68l.09,.1-.33,.3,.04,.54c-3.75,.52-3.8,5.92-3.8,5.98-.5,5.45-2.06,7.76-3.29,8.75-.21,.17-.46,.26-.73,.28-.35,.03-.7-.08-.97-.32-.27-.23-.43-.55-.46-.91l-.4-5.05c-5.54,1.15-8.59,10.78-9.41,13.77-.27,1.04-1.03,1.89-2.05,2.26-.32,.11-.64,.16-.97,.16Zm-1.83-2.12l.18,.27c.5,.73,1.44,1.04,2.28,.75,.7-.25,1.23-.84,1.42-1.57,.89-3.25,4.29-13.88,10.78-14.59l.51-.06,.48,6.1c0,.09,.05,.17,.11,.23,.07,.06,.15,.08,.24,.08,.07,0,.13-.03,.18-.07,.87-.71,2.42-2.69,2.91-8.01,0-1.96,.82-5.71,3.79-6.72-3.28-3.61-6.36-6.12-8.37-6.81-2.04,1.34-19.33,12.89-20.59,21.19-.24,1.56,.11,2.88,1.07,4.01l.2,.24-.12,.28c-.45,1.04,.03,2.25,1.06,2.7,.15,.07,.31,.11,.46,.14l.37,.06,.04,.38s.1,.74,.7,1.18c.47,.34,1.13,.44,1.97,.28l.32-.06Z" fill="#002346"></path>
    </g>
    <path d="M194.14,367.74s-.09,0-.14-.02c-.26-.08-.42-.36-.34-.62,.11-.38,2.81-9.42,6.42-12.25,.22-.17,.53-.13,.7,.08,.17,.22,.13,.53-.08,.7-3.37,2.64-6.05,11.66-6.08,11.75-.06,.22-.26,.36-.48,.36Z" fill="#002346"></path>
    <path d="M196.04,371.27c-.05,0-.11,0-.17-.03-.26-.09-.4-.38-.31-.64,.15-.41,3.6-10.19,7.15-14.28,.18-.21,.5-.23,.71-.05,.21,.18,.23,.5,.05,.71-3.43,3.95-6.93,13.86-6.97,13.96-.07,.21-.27,.33-.47,.33Z" fill="#002346"></path>
    <path d="M199.3,373.17c-.05,0-.1,0-.15-.02-.26-.08-.41-.37-.32-.63,.11-.35,2.78-8.54,5.77-12.63,.16-.22,.48-.27,.7-.11,.22,.16,.27,.48,.11,.7-2.9,3.96-5.6,12.27-5.63,12.35-.07,.21-.26,.35-.48,.35Z" fill="#002346"></path>
    <g opacity=".2">
      <path d="M284.54,241.17c-1.09,6.25-4.62,11.86-8.84,16.5-4.35,4.61-9.55,8.34-15.3,11,2.75-1.52,5.39-3.23,7.91-5.1,7.43-5.61,13.89-13.23,16.23-22.39h0Z"></path>
    </g>
    <g>
      <path d="M303.4,329.25c-2.38,1.7-4.96,3.12-7.67,4.22-1.14,.48-2.18,1.15-3.08,2l-6.3,5.91c-.56,.51-1.4,.55-2,.09h0c-.67-.52-.79-1.49-.27-2.16,.05-.06,.1-.12,.15-.17l4.81-4.64c.38-.35,.4-.95,.04-1.33-.13-.13-.29-.23-.46-.27h0c-.32-.08-.66,.01-.89,.24l-7.6,7.37c-.51,.5-1.33,.48-1.82-.03-.02-.02-.04-.04-.06-.06h0c-.43-.49-.43-1.21,0-1.7l6.08-6.73c.36-.42,.32-1.05-.1-1.41-.03-.02-.06-.05-.09-.07h0c-.39-.26-.91-.21-1.25,.12l-7.69,7.7c-.68,.68-1.79,.68-2.47,0h0c-.67-.68-.67-1.77,0-2.45l5-5.21c.4-.38,.41-1.02,.02-1.41-.06-.06-.12-.11-.19-.16h0c-.35-.26-.84-.26-1.19,0l-5.9,4.47c-.64,.49-1.55,.36-2.03-.27-.06-.07-.11-.15-.15-.24h0c-.33-.65-.12-1.45,.49-1.86l11.5-7.68c.22-.15,.13-.47-.13-.49-1.63-.14-3.07-1.15-3.76-2.64-.13-.28,.07-.61,.38-.6,1.82,.08,7.2,.18,10.46-1.12,.52-.21,1-.41,1.58-.58,3.17-1,6.39-1.84,9.64-2.51,.71-.13,1.45,.02,2.05,.43,2.39,1.53,4.21,3.81,5.16,6.48,.77,2.5-.14,5.22-2.26,6.76Z" fill="#f2b3c1"></path>
      <path d="M285.29,342.29c-.44,0-.88-.14-1.25-.43-.43-.34-.71-.82-.77-1.36-.07-.54,.08-1.08,.41-1.51,.06-.08,.13-.15,.2-.22l4.81-4.64c.09-.08,.14-.19,.14-.31,0-.12-.04-.23-.12-.32-.06-.06-.13-.11-.22-.13-.15-.04-.31,0-.42,.11l-7.6,7.37c-.34,.33-.78,.5-1.25,.5,0,0-.02,0-.03,0-.48,0-.92-.2-1.26-.54l-.07-.08c-.59-.67-.59-1.69,0-2.36l6.08-6.74c.08-.09,.12-.22,.11-.36,0-.13-.07-.25-.17-.34-.23-.16-.5-.13-.66,.03l-7.69,7.7c-.88,.87-2.3,.87-3.18,0-.86-.87-.86-2.29,0-3.15l5-5.21c.11-.11,.16-.23,.17-.36,0-.13-.05-.26-.14-.36-.03-.03-.06-.06-.1-.08-.21-.15-.45-.15-.63-.02l-5.9,4.47c-.41,.32-.92,.45-1.44,.38-.52-.07-.97-.33-1.29-.75-.08-.1-.14-.21-.2-.32-.44-.87-.16-1.95,.66-2.5l11.01-7.34c-1.56-.33-2.9-1.37-3.57-2.84-.14-.3-.11-.64,.07-.91,.18-.26,.47-.4,.79-.4,1.6,.07,7.05,.19,10.25-1.09l.13-.05c.48-.2,.94-.38,1.5-.54,3.16-1,6.42-1.85,9.68-2.52,.86-.16,1.72,.02,2.43,.5,2.46,1.57,4.36,3.96,5.35,6.73,.84,2.73-.14,5.67-2.44,7.33h0c-2.42,1.72-5.03,3.16-7.77,4.28-1.08,.45-2.07,1.09-2.93,1.9l-6.3,5.91c-.39,.37-.89,.55-1.4,.55Zm3.1-9.92c.12,0,.24,.01,.35,.04,.27,.07,.52,.21,.71,.41,.26,.28,.4,.65,.39,1.03s-.17,.74-.46,1l-4.8,4.63s-.07,.08-.11,.12c-.17,.22-.24,.49-.21,.77,.03,.28,.17,.52,.39,.69,.41,.31,.98,.29,1.35-.06l6.3-5.91c.95-.89,2.03-1.59,3.23-2.1,2.67-1.09,5.22-2.49,7.57-4.17,1.95-1.41,2.78-3.91,2.07-6.21-.9-2.53-2.67-4.75-4.95-6.21-.51-.34-1.1-.47-1.69-.36-3.21,.67-6.44,1.5-9.58,2.5-.52,.15-.95,.33-1.41,.51l-.13,.05c-3.22,1.28-8.32,1.25-10.52,1.16,.63,1.26,1.88,2.11,3.29,2.23,.34,.03,.61,.26,.69,.58,.08,.32-.04,.64-.32,.83l-11.5,7.67c-.4,.27-.54,.79-.32,1.22,.03,.06,.06,.11,.1,.16,.15,.2,.38,.33,.63,.37,.25,.04,.5-.03,.7-.19l5.9-4.47c.54-.4,1.26-.4,1.79,0,.07,.04,.17,.12,.26,.21,.28,.29,.43,.67,.42,1.07,0,.4-.17,.77-.46,1.05l-4.99,5.2c-.48,.49-.48,1.27,0,1.75,.48,.48,1.27,.48,1.76,0l7.69-7.7c.51-.49,1.29-.57,1.88-.18,.06,.04,.1,.07,.15,.11,.3,.26,.48,.62,.51,1.02s-.1,.79-.36,1.09l-6.09,6.74c-.26,.29-.26,.74,0,1.04,.19,.19,.38,.28,.59,.28,.21-.01,.41-.08,.56-.22l7.6-7.37c.27-.26,.64-.41,1.01-.41Z" fill="#002346"></path>
    </g>
    <g>
      <path d="M373.65,569.56c-11.14,6.52-28.79,5.16-28.79,5.16-13.85-22.81-31.23-94-31.23-94-11.84-23.87-25.86-59.7-29.64-69.59-.18-.46-.71-.69-1.17-.5-.26,.1-.45,.32-.53,.58-4.59,15.87-21.19,48.38-26.31,58.23-.97,1.88-1.35,4.01-1.08,6.11,5.64,45-3.69,87.22-3.69,87.22h-25l-8.42-88.53c-4.05-30.71,17.4-76.51,22.73-87.29,.84-1.69,1.62-3.41,2.31-5.17,4.15-10.58,7.58-21.42,10.27-32.46,0,0,22.27,18.19,70.07,2.44,14.66,19,27.7,112.16,27.7,112.16l22.79,105.64Z" fill="#881F63"></path>
      <path d="M348.7,575.33c-2.35,0-3.83-.11-3.88-.11l-.26-.02-.13-.22c-13.57-22.35-30.71-91.77-31.28-94.09-12.89-26-27.96-65.2-29.63-69.58-.08-.2-.31-.3-.52-.22-.11,.05-.2,.14-.24,.26-4.62,15.97-21.33,48.68-26.35,58.32-.93,1.8-1.28,3.81-1.03,5.82,5.59,44.57-3.6,86.97-3.7,87.39l-.09,.39h-25.86l-8.46-88.98c-4.01-30.36,16.42-74.69,22.78-87.56,.91-1.84,1.66-3.51,2.29-5.13,4.13-10.52,7.57-21.42,10.25-32.4l.19-.77,.61,.5c.22,.18,22.65,17.82,69.6,2.35l.34-.11,.22,.28c14.57,18.89,27.27,108.59,27.8,112.4l22.86,105.96-.31,.18c-7.97,4.66-19.32,5.34-25.2,5.34Zm-3.54-1.09c2.18,.13,17.77,.82,27.93-4.93l-22.71-105.28c-.14-.96-13.07-92.37-27.39-111.68-14.23,4.65-26.23,6.28-36.06,6.28-19.86,0-30.87-6.65-33.51-8.47-2.66,10.78-6.06,21.47-10.11,31.8-.64,1.64-1.4,3.34-2.32,5.21-4.5,9.11-26.75,56.13-22.68,87l8.38,88.1h24.14c.91-4.38,8.88-44.55,3.6-86.66-.28-2.21,.11-4.42,1.13-6.4,5-9.62,21.68-42.25,26.27-58.14,.12-.42,.42-.75,.83-.91,.72-.29,1.53,.07,1.82,.78,1.68,4.39,16.75,43.6,29.62,69.55l.04,.1c.17,.71,17.41,70.91,31.04,93.64Z" fill="#002346"></path>
    </g>
    <path d="M349.48,465.8c-.23,0-.44-.16-.49-.39l-20-90.37c-2.47-.14-15.67-1.48-21.62-13.97-.12-.25-.01-.55,.24-.67,.25-.12,.55-.01,.67,.24,6.28,13.19,20.98,13.42,21.12,13.42,.23,0,.44,.16,.49,.39l20.08,90.74c.06,.27-.11,.54-.38,.6-.04,0-.07,.01-.11,.01Z" fill="#002346"></path>
    <g>
      <path d="M251.07,581.7c.25-3.84,.37-11.88-3.16-11l-8.69-3.26s-4.59-3.43-8.15,1.9c-.52,.79-14.7,10.17-22.52,14.73-.84,.47-1.45,1.26-1.69,2.19-.58,2.39,1.25,6,21.23,2.36,0,0,12.6-3.73,20.93-4.71,1.13-.14,2-1.07,2.05-2.21Z" fill="#F64C72"></path>
      <path d="M214.44,590.66c-3.78,0-6.26-.61-7.41-1.83-.68-.72-.91-1.65-.65-2.69,.28-1.06,.98-1.97,1.93-2.51,7.88-4.59,21.62-13.71,22.36-14.59,1.19-1.78,2.63-2.83,4.29-3.12,2.27-.38,4.14,.81,4.5,1.06l8.49,3.19c.7-.14,1.35,.03,1.87,.46,1.94,1.62,2.02,6.92,1.75,11.08-.06,1.39-1.11,2.51-2.49,2.68-8.19,.96-20.72,4.66-20.85,4.69-5.7,1.04-10.3,1.56-13.79,1.56Zm21.42-23.8c-.24,0-.49,.02-.74,.06-1.37,.24-2.59,1.15-3.63,2.7-.63,.95-15.26,10.55-22.68,14.88-.72,.41-1.25,1.09-1.46,1.89-.17,.71-.04,1.28,.41,1.76,1.35,1.43,5.96,2.59,20.25-.02,.07-.02,12.68-3.74,20.96-4.71,.89-.11,1.57-.84,1.61-1.74h0c.35-5.41-.17-9.24-1.39-10.27-.32-.27-.69-.34-1.15-.23l-.15,.04-8.96-3.38s-1.36-.99-3.07-.99Z" fill="#002346"></path>
    </g>
    <g>
      <rect x="241.16" y="198.55" width="33.07" height="53.81" rx="16.53" ry="16.53" transform="translate(-83.59 197.86) rotate(-36.56)" fill="#f2b3c1"></rect>
      <path d="M263.91,250.82c-.84,0-1.69-.06-2.54-.19-4.5-.67-8.47-3.05-11.18-6.7l-12.35-16.66c-2.71-3.66-3.84-8.15-3.17-12.65,.67-4.5,3.05-8.47,6.7-11.18,3.65-2.71,8.15-3.84,12.65-3.17,4.5,.67,8.47,3.05,11.18,6.7l12.35,16.66c2.71,3.66,3.84,8.15,3.17,12.65-.67,4.5-3.05,8.47-6.7,11.18-2.97,2.2-6.48,3.36-10.11,3.36Zm-22.24-46.98l.3,.4c-3.44,2.55-5.68,6.29-6.31,10.53-.63,4.24,.43,8.46,2.98,11.91l12.35,16.66c2.55,3.44,6.29,5.68,10.53,6.31,4.24,.63,8.46-.43,11.9-2.98,3.44-2.55,5.68-6.29,6.31-10.53s-.43-8.46-2.98-11.9l-12.35-16.66c-2.55-3.44-6.29-5.68-10.53-6.31-4.24-.63-8.46,.43-11.9,2.98l-.3-.4Z" fill="#002346"></path>
    </g>
    <g>
      <path d="M241.12,212.45s8.55,11.63,7.13,21.16l-1.35,8.85s2.1,2.3,2.1,4.75c0,0-1.36,2.44-4.35-1.09,0,0-1.08-3-8.69-4.89,0,0-14.93-6.79-6.24-19.55,0,0-5.71-15.48,7.33-17.92,0,0,8.15-1.36,9.78-8.15,0,0,6.24-11.14,10.59,3,0,0,11-4.39,9.29,11.11l-3-3.9s-3.76-3.61-7.62-4.6c.03-.01-4.65,9.32-14.97,11.23Z" fill="#002346"></path>
      <path d="M247.57,248.53c-1.02,0-2.13-.7-3.3-2.09l-.09-.15s-1.17-2.79-8.34-4.57c-.38-.16-7.22-3.34-8.95-9.51-.94-3.35-.17-6.91,2.28-10.59-.48-1.41-2.59-8.39,.28-13.45,1.47-2.58,3.99-4.23,7.51-4.89,.09-.01,7.85-1.39,9.39-7.78l.05-.13c.11-.19,2.7-4.76,5.93-4.41,2.16,.23,3.98,2.59,5.42,7.01,1.22-.37,4.37-1.06,6.78,.78,2.39,1.82,3.29,5.53,2.68,11.03l-.14,1.23-3.76-4.88s0,0,0,0c0,0-3.43-3.25-6.98-4.32-1.04,1.85-5.58,9.01-14.37,10.98,1.77,2.59,8.04,12.44,6.78,20.9l-1.32,8.62c.51,.62,2.07,2.67,2.07,4.9v.13l-.06,.11s-.55,.96-1.65,1.07c-.07,0-.14,0-.21,0Zm-2.49-2.68c1.25,1.46,2.1,1.7,2.6,1.67,.43-.04,.7-.32,.82-.47-.08-2.17-1.95-4.24-1.97-4.26l-.16-.18,1.39-9.09c1.37-9.21-6.95-20.67-7.04-20.79l-.47-.64,.78-.14c9.07-1.68,13.62-9.14,14.46-10.66l-.87-.97,1.59,.41c3.94,1.01,7.68,4.57,7.84,4.72l2.27,2.95c.31-4.42-.5-7.4-2.41-8.86-2.54-1.94-6.28-.49-6.32-.47l-.5,.2-.16-.52c-1.31-4.26-2.94-6.61-4.72-6.8-2.41-.26-4.63,3.35-4.92,3.84-1.73,6.97-9.82,8.4-10.17,8.46-3.2,.6-5.5,2.08-6.81,4.39-2.92,5.13-.16,12.78-.13,12.86l.09,.24-.14,.21c-2.39,3.5-3.15,6.86-2.28,9.97,1.6,5.73,8.25,8.81,8.31,8.84,7.03,1.74,8.65,4.51,8.91,5.08Z" fill="#002346"></path>
    </g>
    <g>
      <path d="M246.93,242.48c.35,.32,3.66,3.51,3.15,10.95,0,.02,0,.03,.01,.04l6.73,11.05s.07,.05,.11,.02c.8-.64,9.27-7.52,13.43-15.6,.03-.07-.03-.14-.1-.11-1.54,.74-11.45,4.96-19.66-5.22,0,0,0,0,0,0l-2.9-4.13c-.04-.05-.12-.04-.14,.03l-.65,2.9s0,.05,.02,.07Z" fill="#f2b3c1"></path>
      <path d="M257.06,265.08l-.28-.03c-.16-.03-.31-.13-.39-.27l-6.82-11.18v-.2c.49-7.17-2.62-10.21-2.98-10.54l-.22-.19,.04-.36,.72-3.22,.38-.12c.22-.04,.45,.05,.58,.23l2.89,4.11c7.89,9.77,17.26,5.95,19.05,5.08l.32-.16,.33,.27c.18,.18,.22,.45,.1,.67-4.19,8.12-12.62,15.01-13.56,15.76l-.18,.14Zm-6.48-11.75l6.41,10.52c1.81-1.5,8.48-7.26,12.35-14.08-3.35,1.26-11.82,3.17-19.09-5.78l-.08-.1-2.34-3.34-.39,1.73c.81,.83,3.57,4.19,3.14,11.04Zm19.9-4.04s0,0,0,0c0,0,0,0,0,0Z" fill="#002346"></path>
    </g>
    <g>
      <ellipse cx="244.42" cy="237.49" rx="4.9" ry="7.21" transform="translate(-88.64 165.29) rotate(-31.94)" fill="#f2b3c1"></ellipse>
      <path d="M246.32,244.65c-.74,0-1.54-.18-2.34-.53-1.6-.71-3.07-2.04-4.14-3.76s-1.62-3.63-1.56-5.37c.07-1.82,.8-3.25,2.06-4.03,1.26-.78,2.86-.81,4.52-.07,1.6,.71,3.07,2.04,4.14,3.76,1.07,1.72,1.62,3.63,1.56,5.37-.07,1.82-.8,3.25-2.06,4.03-.65,.4-1.39,.61-2.18,.61Zm-3.79-13.3c-.61,0-1.17,.15-1.66,.45h0c-.97,.6-1.53,1.75-1.59,3.22-.06,1.55,.44,3.25,1.41,4.8,.97,1.55,2.28,2.75,3.69,3.38,1.35,.6,2.62,.59,3.59,0,.97-.6,1.53-1.75,1.59-3.22,.06-1.55-.44-3.25-1.41-4.8s-2.28-2.75-3.69-3.38c-.67-.3-1.33-.45-1.93-.45Z" fill="#002346"></path>
    </g>
    <g opacity=".7">
      <path d="M637.99,611.23c-23,42.68-192,38.32-192,38.32-184-3-182.78-38.32-182.78-38.32l70.68-306.54c4.84-6.04,11.97-9.79,19.68-10.37,0,0,20.74,1.7,16.29-12.48,0,0-1.27-14.18-31.11-6.56L397.9,26.64c2.37-.21,4.75-.38,7.16-.51,3.61-.19,123.73-16.51,232.54-1.33V180.68s-13.76-76.39-71.32-88.25c0,0-25.4-8-51.64-.42,0,0,12.07-1.27,16.93,.42,0,0-18.2,1.06-21.37,5.51,0,0,19.89-4.24,27.72,.63,0,0-5.88,.21-8,2.53,.69-.17,22.39-5.53,34.26,5.09,0,0,27.3,21.16,34.29,52.69,0,0,12.17,40.74,.4,44.41-2.57,.77-5.3-.61-6.22-3.13-3.89-10.34-19.66-45.14-48.17-18.42,0,0-19.6,24.42,14.51,39.15,6.06,2.57,12.63,3.72,19.21,3.37,5.27-.25,11.49,1.66,7.13,13.56,0,0-69.2,48.46-117.46,43.59,0,0-24.54,2.33-35.12-9.31l-11.43-17.14c-1.5,3.15-1.5,6.8,0,9.95,0,0-8-1.06-19.26-11.64,0,0-3.17,3.81,.85,6.56,0,0-3.39,1.27,1.69,6.77,0,0-3.81,3.6,1.27,6.56,0,0-1.69,3.39,7.62,8,0,0,61,38,151.94,15.53,21.74-5.44,44.5,3.8,56.3,22.86,7.94,12.91,14,31.85,14.17,59.59l2.09,232.09Z" fill="#fff"></path>
    </g>
    <path d="M260.4,269.17c-.2,0-.38-.12-.46-.31-.11-.26,.02-.55,.27-.65,.18-.08,18.19-7.69,23.85-27.17,.08-.27,.35-.42,.62-.34,.27,.08,.42,.35,.34,.62-5.8,19.95-24.24,27.74-24.43,27.81-.06,.03-.13,.04-.19,.04Z" fill="#002346"></path>
    <g>
      <path d="M246.28,255.59s.16,9.24,7.61,11.94" fill="#F64C72"></path>
      <path d="M253.72,268c-7.68-2.79-7.94-12.3-7.94-12.4l1-.02c0,.09,.25,8.93,7.28,11.48l-.34,.94Z" fill="#002346"></path>
    </g>
    <path d="M249.34,286.73s-.08,0-.12-.01c-.27-.06-.43-.33-.37-.6l5-21c.06-.27,.33-.44,.6-.37,.27,.06,.43,.33,.37,.6l-5,21c-.05,.23-.26,.38-.49,.38Z" fill="#002346"></path>
    <path d="M263.34,279.73c-.21,0-.4-.13-.47-.34-3.02-9.06-1.32-14.11-1.25-14.32,.09-.26,.38-.4,.64-.31,.26,.09,.4,.38,.31,.64-.02,.05-1.65,4.98,1.25,13.68,.09,.26-.05,.54-.32,.63-.05,.02-.11,.03-.16,.03Z" fill="#002346"></path>
    <path d="M242.99,293.47c-.15,0-.31-.07-.4-.21l-6.24-8.56c-.16-.22-.11-.54,.11-.7,.22-.16,.54-.11,.7,.11l6.24,8.56c.16,.22,.11,.54-.11,.7-.09,.06-.19,.1-.29,.1Z" fill="#002346"></path>
    <path d="M250.85,338.41c-.27,0-.49-.21-.5-.48l-.95-19.69c0-.17,.28-13.37-3.06-19.47-.13-.24-.04-.55,.2-.68,.24-.13,.55-.04,.68,.2,3.47,6.34,3.19,19.39,3.18,19.94l.95,19.65c.01,.28-.2,.51-.48,.52,0,0-.02,0-.02,0Z" fill="#002346"></path>
    <path d="M232.98,350.72c-.19,0-.38-.11-.46-.3-4.22-9.7-12.32-13.71-12.4-13.75-.25-.12-.35-.42-.23-.67,.12-.25,.42-.35,.67-.23,.35,.17,8.51,4.19,12.89,14.25,.11,.25,0,.55-.26,.66-.06,.03-.13,.04-.2,.04Z" fill="#002346"></path>
    <g>
      <line x1="299.51" y1="281.23" x2="308.13" y2="281.76" fill="#F64C72"></line>
      <rect x="303.32" y="277.17" width="1" height="8.64" transform="translate(4.11 567.37) rotate(-86.46)" fill="#002346"></rect>
    </g>
    <path d="M309.56,335.42c-.11,0-.22-.04-.31-.11-.13-.1-.2-.26-.19-.42,0-.12,.47-11.74-9.84-19.12-.14-.1-.22-.26-.21-.43,0-.17,.1-.32,.25-.41l29.25-17.13-29.98-22.68c-.22-.17-.26-.48-.1-.7,.17-.22,.48-.26,.7-.1l30.57,23.13c.13,.1,.21,.26,.2,.43s-.1,.32-.25,.4l-29.25,17.13c8.71,6.64,9.58,16.2,9.64,18.83l17.79-5.24c.26-.08,.54,.07,.62,.34,.08,.27-.07,.54-.34,.62l-18.43,5.43s-.09,.02-.14,.02Z" fill="#002346"></path>
    <path d="M288.69,363.72c-20.31,0-33.8-7.94-33.99-8.06-.24-.14-.31-.45-.17-.69,.14-.24,.45-.31,.69-.17,.28,.17,28.85,16.96,65.55,1.11,.25-.11,.55,0,.66,.26,.11,.25,0,.55-.26,.66-11.88,5.13-22.93,6.88-32.47,6.88Z" fill="#002346"></path>
    <path d="M283.99,411.63c-.26,0-.48-.21-.5-.47,0-.12-.71-11.89-5.59-20.68-.13-.24-.05-.55,.19-.68,.24-.13,.55-.05,.68,.19,5,9,5.71,21,5.71,21.12,.02,.28-.2,.51-.47,.53,0,0-.02,0-.03,0Z" fill="#002346"></path>
  </g>
  <g>
    <ellipse cx="247" cy="215.5" rx="10" ry="7.5" transform="translate(-50.24 353.69) rotate(-66.04)" fill="#002346"></ellipse>
    <path d="M245.32,225.64c-.9,0-1.77-.18-2.59-.54-1.98-.88-3.38-2.72-3.94-5.17-.55-2.41-.23-5.13,.89-7.67,2.35-5.29,7.54-8.14,11.57-6.35,4.03,1.79,5.4,7.55,3.05,12.84-1.13,2.54-2.94,4.6-5.09,5.8-1.29,.72-2.62,1.09-3.9,1.09Zm3.36-19.27c-3.06,0-6.37,2.45-8.08,6.29-1.04,2.34-1.34,4.84-.83,7.04,.49,2.14,1.69,3.74,3.37,4.48,1.68,.75,3.67,.57,5.59-.5,1.97-1.1,3.62-2.99,4.67-5.34,2.13-4.79,.99-9.96-2.54-11.52-.69-.31-1.43-.45-2.18-.45Z" fill="#002346"></path>
  </g>
</svg>
