<?xml version="1.0" encoding="UTF-8"?>
<svg xmlns="http://www.w3.org/2000/svg" id="a" width="865.76" height="682.89" viewBox="0 0 865.76 682.89">
  <ellipse cx="402.1" cy="196.69" rx="14.77" ry="15.02" transform="translate(-37.4 111.78) rotate(-15.13)" fill="#002346" stroke="#002346" stroke-miterlimit="10" stroke-width="1.03"></ellipse>
  <ellipse cx="396.12" cy="207.83" rx="11.36" ry="11.56" transform="translate(-40.52 110.61) rotate(-15.13)" fill="#f58f74" stroke="#002346" stroke-miterlimit="10" stroke-width="1.03"></ellipse>
  <g>
    <path d="M753.05,588.96c.15-115-18-177-18-177-22.28-100.26-95.17-187.69-95.17-187.69l-45.85-55.29-9.86-27.86c-3.43-10.71-13.29-18.85-13.29-18.85-12,5.57,1.29,18,1.29,18l2.6,20.14s-12-13.71-13.32-14.52c-1.32-.81-22.28-15.43-22.28-15.43-14.57,9,9.86,20.57,9.86,20.57,11.14,11.52,10.74,22.67,10.74,22.67-8.14-9-38.57-27-38.57-27-13.72,12.42,15.86,24.85,15.86,24.85,5.14,3.86,12.85,18,12.85,18l-38.57-13.28c-6.89,8.14,3.43,11.62,3.43,11.62l34.57,17.57c25.14,16.57,9.72,22.86,9.72,22.86l-11.43,3.43c-22.29-6.29-21.72,8-21.72,8l22.86,5.14,46.56-4c5.21-.43,10.34,1.49,14,5.23,25.64,26.12,52,79.26,52,79.26,50,101.62,35.78,228.11,32.36,252.82-4-.55-8.11-1.09-12.32-1.62-1-18.48-6.6-95.75-30.51-138.42-1.18-2.04-1.44-4.48-.71-6.72,1.57-4.62,2.36-15.72-9-39.43-1.07-2.24-1.71-4.66-1.87-7.14l-2-30.47c-.12-1.91-.65-3.78-1.54-5.48l-15.36-29.33c-.98-1.85-3.28-2.56-5.14-1.58-.25,.13-.49,.29-.7,.48-4.49,3.85-9,13.15,8.82,33l-1.2,13.2-4.8-9.6-29.47-25.72c-1.78-1.55-4.47-1.37-6.02,.41-.35,.4-.63,.87-.81,1.37-1.2,3.32-1.11,8.13,4.51,13.75l21.59,17.39,1.8,16.8-18.59-3-31.5,1.08c-2.12,.07-3.79,1.86-3.71,3.98,0,.03,0,.05,0,.08,.34,5.39,4.83,13.66,31.61,6.85l13.8,7.2-16.8,4.8-16,9c-1.55,.87-2.11,2.83-1.25,4.38,.15,.27,.34,.52,.57,.74,3,2.83,8.9,5.42,18.58-1.61,2-1.44,4.52-1.97,6.93-1.44l5.41,1.18c2.61,.56,4.62,2.63,5.12,5.25,1.8,9.35,6.79,31.28,15.2,38.42,2.23,1.95,3.95,4.41,5,7.18,5.89,14.89,19.66,58.13,5.11,107.85-55-4.73-119.53-7.46-188.6-7.46-62.38,0-121.08,2.22-172.36,6.14-36.56-138.3-6.6-346.07,.93-392.88,.86-5.31,4.61-9.7,9.72-11.38,19.15-6.36,33.94-26.15,38.92-33.54,1.1-1.63,3.19-2.25,5-1.48l10.47,4.46c3.44,1.48,6.24,4.14,7.89,7.5,6.13,12.22,12.87,12.58,17.1,11.1,2.14-.77,3.25-3.13,2.49-5.27-.09-.25-.21-.5-.35-.73l-8.62-14.5c-2.13-5.46-10-13.28-14.49-17.38-.63-.57-.68-1.55-.11-2.18,.3-.33,.74-.52,1.19-.5l10.48,.21c3.94,.06,7.71,1.61,10.56,4.34,4.36,4.03,8.96,7.78,13.79,11.23,9.92,6.91,16.26-.09,19.16-4.89,1.18-1.94,.57-4.47-1.37-5.66l-33.64-20.75-19.26-7.17c-1.02-.42-1.5-1.59-1.08-2.61,.07-.17,.17-.33,.28-.48l9.57-11.26c2.02-2.38,4.89-3.87,8-4.16,39.66-3.66,42.66-15.2,41.33-21.2-.46-2.13-2.53-3.5-4.67-3.09l-47.93,9.05c-2.21,.42-4.26,1.46-5.91,3l-4.76,4.4c-.47,.43-1.21,.4-1.64-.08-.31-.34-.39-.83-.2-1.25l3.13-6.79c1.32-2.83,3.69-5.02,6.61-6.11,6-2.26,16.61-7.25,23.38-16.09,7.05-9.18,3.15-14.21,.35-16.33-1.12-.83-2.65-.87-3.81-.1l-35.42,23c-2.04,1.33-3.76,3.12-5,5.22l-6.26,10.53c-6,10.66-17.54,24.38-17.54,24.38l-21,14.62c-14.57,11.43-17.2,20.81-17.34,25.79-.06,2.88-1,5.67-2.7,8-96.51,130-47.84,411.89-41.47,446.15-6.67,.76-13.15,1.55-19.46,2.37-39.85-63.3-35.6-201.22-35.6-201.22,4.36-15.1,1.63-42.82,.24-54.13-.41-3.34,.11-6.74,1.51-9.8l6.39-14.07c6.86-16.28-.43-17.14-.43-17.14-6.85-2.66-18.09,25.07-20.52,31.33-.07,.17-.27,.24-.43,.17-.11-.05-.18-.15-.2-.26l-2.55-22.66c-.42-3.62-.61-7.26-.58-10.9,.21-19.48-6.15-16.11-6.15-16.11-7.89-3.76-8.2,34.39-8.16,43.79,0,.23-.17,.42-.4,.42-.18,0-.35-.11-.4-.28-3-8.18-7.54-31.6-9-39.3-.38-2.21-1.77-4.11-3.75-5.15-1.59-.88-3.53-.88-5.12,0-2.03,1.14-3.25,3.32-3.15,5.65l.33,12.24c.31,11.54,2.06,23,5.2,34.11l-7.26-15c-12-30.86-18.86-24-18.86-24-11.07,3.56,12.53,53.11,16.24,60.73,.31,.64,.37,1.37,.18,2.05l-1.78,6.22c-.43,1.54-2.03,2.44-3.57,2.01-.19-.05-.37-.12-.55-.21l-15.26-7.8c-11-6.51-15.34-2.56-17,.88-.78,1.63-.1,3.59,1.52,4.39,6.91,3.49,16.34,13.59,16.34,13.59,4.28,8.14,14.14,13.23,14.14,13.23,5.31,2.8,13.46,10.27,18.5,15.13,2.77,2.68,3.99,6.57,3.24,10.35-15.35,77.72,7.66,172.47,13,192.73-33.7,7.8-53.13,17-53.13,26.77,0,28.36,162.55,51.35,363.06,51.35s363.07-23,363.07-51.35c.01-9.49-18.14-18.37-49.86-26Z" fill="#881F63" opacity=".5"></path>
    <path d="M440.64,646.21s-5.75,6.08-.34,7.09c6.5,.79,13.05,1.12,19.6,1,0,0,4.89,.51,7.48-5.64,.72-1.77,1.8-3.36,3.19-4.67,2.05-1.87,4.3-5.58,.82-11.66l-30.75,13.88Z" fill="#fff" stroke="#002346" stroke-miterlimit="10"></path>
    <path d="M453.82,619.17s-1.69,13.86-8.45,19.6c0,0-12.17,11.83-3,12.17,0,0,10.8,1.93,17.98-.34,2.73-.86,4.91-2.98,5.81-5.69,.47-1.43,1.38-3.25,3.05-4.11,1.14-.59,2.09-1.52,2.44-2.76s.45-3.08-.22-5.69l-2-12.84-6.76-3.38-5.07-2.37-3.78,5.41Z" fill="#F64C72" stroke="#002346" stroke-miterlimit="10"></path>
    <path d="M425.35,614.51s-2.29,5.67,2.78,5c0,0,12.04-.55,16.67-13.72,.8-2.27,1.19-4.65,1.34-7.05,.26-4.3,1.16-13.8,4.25-17.72,.99-1.21,1.81-2.56,2.43-4,1.56-3.78,3.23-9.94-2.38-9.94l-12.17,24-12.92,23.43Z" fill="#fff" stroke="#002346" stroke-miterlimit="10"></path>
    <path d="M454.83,609.37l-1,9.8s4.16-3.86,6.35-1.56c.39,.43,.84,.81,1.33,1.12,1.86,1.08,6,3.11,7.86,.78l.68-14.87-15.22,4.73Z" fill="#f1b2c0" stroke="#002346" stroke-miterlimit="10"></path>
    <path d="M420.7,561.72l6.76,13.17s8.02,0,14.55-7.48c1.34-1.53,.97-3.91-.72-5.04-2.29-1.54-5.6-4.83-9.44-11.82l-11.15,11.17Z" fill="#f1b2c0" stroke="#002346" stroke-miterlimit="10"></path>
    <path d="M425.35,614.52c-.06-.76-.04-2.32,.45-5.05,.78-4.41,1.3-8.87,1.43-13.35,.07-2.51,.11-5.3,.05-8.03-.1-4.76-1.12-9.43-2.53-13.98-.61-1.98-.4-4.62,5.08-4.62,0,0,10.14,.68,9.13-8.45l11.49,6.08s2.63,4.39-2.18,11.54c-1.03,1.54-1.87,3.2-2.49,4.94-1.57,4.25-2.56,8.69-2.95,13.2-.33,3.81-1.44,7.54-3.48,10.78-2.49,3.96-6.66,7.86-13.35,7.6-.36-.01-.65-.3-.66-.66Z" fill="#F64C72" stroke="#002346" stroke-miterlimit="10"></path>
    <rect x="361.13" y="217.1" width="43.26" height="61.53" rx="21.63" ry="21.63" transform="translate(-72.66 224.59) rotate(-30)" fill="#f1b2c0" stroke="#002346" stroke-miterlimit="10"></rect>
    <path d="M354.26,313.95s-11.79-1.91-10-12.29c.28-1.45,.82-2.84,1.6-4.1,1.31-2.18,3.23-7.12-2.38-11.85,0,0-12.59-7.48-1.57-20.07,3.29-2.76,6.14-6,8.47-9.61,2.72-4.42,3.7-9.69,2.74-14.79-1.54-8.67-1.59-29.37,29.73-38.58,0,0,29.52-7.48,42.11,17.32,0,0,4.33-2.76,7.88,8.66,1.29,3.3,4.81,5.14,8.26,4.33,0,0,13.78-1.58,14.17,11.41,0,0-14.56-8.26-18.89-.78l-16.93,16.53s.79-5.91-6.69-6.69l-10.23-.4s3.23-6.73,1-12.22c0,0-11.26,8.68-20.7-7.85,0,0-9.06-15.75-16.14-8.27,0,0-9.94,10.43-6,28.14l-6.43,61.11Z" fill="#002346" stroke="#002346" stroke-miterlimit="10"></path>
    <path d="M389.68,277.35s-3.42,19.98-2.15,24.9c0,0-8.84,20.6-25.84,18.82-2.98-.28-5.61-2.08-6.95-4.76-2.48-5.09-4.66-16.22,.64-39.7,0,0,2.22-15.67,5.31-23.77l8,14s6.98,12.02,20.99,10.51Z" fill="#F64C72" stroke="#002346" stroke-miterlimit="10"></path>
    <path d="M483.45,455.35c-10.17,23.06-11.02,45.28-10.5,57.31,.18,4.14,.74,8.27,1.81,12.27,6,22.38-2.45,80.21-2.45,80.21,0,8.82-17.63,6.37-17.63,6.37-6.37-.49-4.9-5.38-4.9-5.38,6.36-31.34-10.29-86.68-10.29-86.68-4.89-18.6-2-29.87-2-29.87,.49-15.67,5.38-53.37,5.38-53.37-6.36,4.9-14.69,28.4-14.69,28.4-2.79,10-9.48,27.4-11.86,33.54-.53,1.36-.44,2.89,.25,4.18,3.36,6.3,5.79,13.06,7.21,20.06,.42,8.78,8,22.18,10.17,25.93,.44,.76,.73,1.59,.84,2.46,1.52,12.06-9.94,14.26-15.26,14.64-1.57,.1-3.08-.66-3.92-2l-29.54-46.43c-15-27,19.57-127.86,20.55-130.68,1.39,1.52,3.19,2.59,5.18,3.09,0,0,35.79,16.5,77.86-17.5,12.34,19.16,4.4,52.61-.74,69.16-1.52,4.88-3.41,9.63-5.47,14.3Z" fill="#881F63" stroke="#002346" stroke-miterlimit="10"></path>
    <path d="M439.99,418.63s4.4,12.74,2.93,18.61" fill="none" stroke="#002346" stroke-linecap="round" stroke-linejoin="round"></path>
    <path d="M402.49,253.04s3.52-22.58-1.65-33.41c-.81-1.7-2.1-3.11-3.67-4.15-4.03-2.65-13.82-9.62-10.07-12.33,0,0,.33-2,7.36,4.35,0,0,4.35,4.68,7,3.34,0,0,3.68-2-4.68-6,0,0-12.71-7-4.68-7.69,3.18-.73,6.52-.26,9.36,1.34,0,0,6.23-2.65,12.71,3.68,1.34,.67,3.68,4.35,3.68,4.35,0,0,8.36,.33,5.69,16l-7,32.11s-2.68-1.86-14.05-1.59Z" fill="#f1b2c0" stroke="#002346" stroke-miterlimit="10"></path>
    <path d="M489.66,372.89c-42.07,34-77.81,17.59-77.81,17.59-1.99-.5-3.79-1.57-5.18-3.09h0c-3.07-3.69-.29-8.43-.29-8.43,1.68-3.62,2.84-10,3.6-16,.99-7.67,.36-15.46-1.83-22.88-1.38-4.65-2.45-9.4-3.21-14.19-.08,.03-.16,.06-.24,.09-6.43,2.42-13.62-1.2-15.55-7.79-6.04-20.58,3.11-52.24,3.11-52.24,1.15-15.27,10.23-12.91,10.23-12.91l9.36,.23c7.78-.29,7.57,6.86,7.57,6.86l16.92-16.53c4.89-7.09,18.89,.78,18.89,.78,21.77,13.3,26.93,69.41,26.93,69.41,.87,21.9,7.21,44.94,7.21,44.94,3.17,12.4,.29,14.16,.29,14.16Z" fill="#F64C72" stroke="#002346" stroke-miterlimit="10"></path>
    <path d="M418.19,306s.94-7-.13-13.65c-.34-2.09-.63-4.18-.75-6.29-.09-1.54-.14-3.07-.16-4.61-.06-4.24,.42-8.47,1.25-12.63,.53-2.65,1.05-5.98,1.01-8.68" fill="none" stroke="#002346" stroke-linecap="round" stroke-linejoin="round"></path>
    <path d="M404.69,325.83s13.25-5.14,27.91-23.29l21-21.9" fill="none" stroke="#002346" stroke-linecap="round" stroke-linejoin="round"></path>
    <path d="M392.12,197.13l12.07,6.06s4.12,2.39,4.31,5.02" fill="none" stroke="#002346" stroke-linecap="round" stroke-linejoin="round"></path>
    <path d="M401.69,198.83l8.5,4.36s4.12,2.39,4.31,5.02" fill="none" stroke="#002346" stroke-linecap="round" stroke-linejoin="round"></path>
    <path d="M417.85,206.52s3.34,3.82,2.34,8.82" fill="none" stroke="#002346" stroke-linecap="round" stroke-linejoin="round"></path>
    <line x1="377.19" y1="275.62" x2="374.19" y2="294.33" fill="none" stroke="#002346" stroke-linecap="round" stroke-linejoin="round"></line>
  </g>
</svg>
