<svg width="911" height="512" viewBox="0 0 911 512" fill="none" xmlns="http://www.w3.org/2000/svg">
<mask id="mask0_878_3227" style="mask-type:luminance" maskUnits="userSpaceOnUse" x="0" y="0" width="911" height="512">
<path d="M910.222 0H0V512H910.222V0Z" fill="white"/>
</mask>
<g mask="url(#mask0_878_3227)">
<path d="M910.222 0H0V512H910.222V0Z" fill="white"/>
</g>
<mask id="mask1_878_3227" style="mask-type:luminance" maskUnits="userSpaceOnUse" x="0" y="0" width="911" height="512">
<path d="M910.222 0H0V512H910.222V0Z" fill="white"/>
</mask>
<g mask="url(#mask1_878_3227)">
<path d="M910.222 0H0V512H910.222V0Z" fill="#222B45"/>
</g>
<mask id="mask2_878_3227" style="mask-type:luminance" maskUnits="userSpaceOnUse" x="329" y="25" width="276" height="430">
<path d="M604.163 25.4092H329.137V454.421H604.163V25.4092Z" fill="white"/>
</mask>
<g mask="url(#mask2_878_3227)">
<path d="M416.43 299.486L392.537 273.76L368.391 299.486V153.155H416.43" fill="black"/>
<path d="M566.298 299.486L542.152 273.76L518.195 299.486V153.155H566.298" fill="black"/>
<path d="M491.081 25.4092H442.852V455.23H491.081V25.4092Z" fill="black"/>
<path d="M605.428 124.965H329.074V169.648H605.428V124.965Z" fill="black"/>
<path d="M426.986 135.331C404.168 105.559 411.184 121.551 385.9 120.287C384.446 120.413 370.856 118.643 369.718 119.465C365.673 125.786 372.183 137.922 374.775 144.559C395.95 191.65 460.488 226.479 503.028 186.341C506.757 178.06 494.811 178.25 489.754 176.923C464.899 170.179 442.885 155.591 426.986 135.331Z" fill="black"/>
<path d="M502.272 138.744C529.579 103.093 521.488 122.878 550.754 120.918L566.936 119.781C570.349 118.959 571.992 122.056 571.36 125.154C565.482 160.741 539.439 190.829 508.53 208.022C486.849 220.348 460.806 223.887 437.671 214.027C429.897 211.245 415.99 207.2 412.261 198.983C407.9 189.248 421.995 189.375 428 187.795C457.266 180.02 483.815 162.7 502.272 138.744Z" fill="black"/>
</g>
<mask id="mask3_878_3227" style="mask-type:luminance" maskUnits="userSpaceOnUse" x="0" y="0" width="911" height="512">
<path d="M910.222 0H0V512H910.222V0Z" fill="white"/>
</mask>
<g mask="url(#mask3_878_3227)">
<path d="M28.8231 -29.6455H22.3125V336.63H28.8231V-29.6455Z" fill="black"/>
<path d="M133.311 24.8428H126.801V336.682H133.311V24.8428Z" fill="black"/>
<path d="M237.792 -29.6455H231.281V336.63H237.792V-29.6455Z" fill="black"/>
<path d="M239.311 101.579H-330.273V108.109H239.311V101.579Z" fill="black"/>
<path d="M236.09 324.646H-330.207V331.176H236.09V324.646Z" fill="black"/>
<path d="M8.28125 105.181L25.98 87.4824L43.6788 105.181L25.98 122.817L8.28125 105.181Z" fill="black"/>
<path d="M112.828 105.118L130.527 87.4824L148.226 105.118L130.527 122.817L112.828 105.118Z" fill="black"/>
<path d="M217.441 105.181L235.14 87.4824L252.839 105.181L235.14 122.817L217.441 105.181Z" fill="black"/>
<path d="M22.9451 381.346H-75.5359V257.328C-75.4616 250.864 -74.1139 244.479 -71.5696 238.537C-69.0254 232.594 -65.3347 227.212 -60.7085 222.697C-56.0824 218.183 -50.6115 214.624 -44.609 212.226C-38.6064 209.827 -32.1899 208.636 -25.7265 208.719C-14.2169 208.806 -3.10454 212.938 5.66613 220.392C14.4368 227.845 20.3071 238.145 22.2498 249.49C22.313 250.059 22.3762 250.691 22.5027 251.323C22.7549 253.315 22.8816 255.32 22.8819 257.328L22.9451 381.346ZM28.8869 251.323V251.133C28.0782 243.938 25.8434 236.975 22.313 230.653C15.2299 217.77 3.31918 208.228 -10.799 204.127C-24.9172 200.025 -40.0865 201.7 -52.9699 208.783C-61.684 213.543 -68.9541 220.564 -74.0152 229.107C-79.0764 237.649 -81.7416 247.398 -81.7304 257.328V387.54H29.2029V257.328C29.2029 255.305 29.0765 253.346 28.8869 251.323Z" fill="black"/>
<path d="M126.862 381.22H28.4446V257.328C28.4446 255.432 28.571 253.472 28.7606 251.576V251.323C30.3952 239.3 36.406 228.302 45.6427 220.434C54.8793 212.565 66.6931 208.379 78.8233 208.676C90.9534 208.974 102.548 213.734 111.388 222.045C120.228 230.357 125.692 241.636 126.736 253.725V254.231C126.799 255.242 126.799 256.38 126.799 257.391L126.862 381.22ZM132.994 253.662C132.532 245.93 130.42 238.386 126.799 231.539C112.64 204.422 79.0757 193.992 51.9586 208.151C42.1358 213.32 34.0637 221.282 28.7606 231.033C25.3957 237.307 23.2913 244.178 22.566 251.26C22.5028 252.335 22.3764 253.409 22.3132 254.547C22.25 255.685 22.25 256.507 22.25 257.265V387.541H133.183V257.328C133.183 256.104 133.12 254.88 132.994 253.662Z" fill="black"/>
<path d="M231.28 381.347H132.863V257.329C132.863 256.128 132.926 254.927 132.989 253.726C133.052 252.525 133.179 251.83 133.305 250.945C135.165 238.868 141.443 227.912 150.922 220.202C160.401 212.491 172.405 208.575 184.607 209.212C196.81 209.85 208.341 214.996 216.964 223.653C225.588 232.31 230.689 243.86 231.28 256.065V381.347ZM231.28 231.792C226.3 222.222 218.639 214.311 209.234 209.026C199.828 203.742 189.087 201.313 178.323 202.037C167.559 202.762 157.239 206.608 148.626 213.105C140.014 219.601 133.481 228.468 129.828 238.619C128.157 243.35 127.116 248.281 126.731 253.284V253.726C126.668 254.927 126.668 256.128 126.668 257.329V387.541H237.601V257.329C237.617 248.428 235.446 239.659 231.28 231.792Z" fill="black"/>
<path d="M99.9965 23.0724H99.8068L99.6172 22.8828" fill="black"/>
<path d="M183.179 218.391C190.23 218.391 195.947 212.703 195.947 205.686C195.947 198.669 190.23 192.98 183.179 192.98C176.127 192.98 170.41 198.669 170.41 205.686C170.41 212.703 176.127 218.391 183.179 218.391Z" fill="black"/>
<path d="M77.6864 218.391C84.7382 218.391 90.4547 212.703 90.4547 205.686C90.4547 198.669 84.7382 192.98 77.6864 192.98C70.6346 192.98 64.918 198.669 64.918 205.686C64.918 212.703 70.6346 218.391 77.6864 218.391Z" fill="black"/>
<path d="M185.71 272.688H179.199V387.459H185.71V272.688Z" fill="black"/>
<path d="M197.091 290.83L182.236 276.102L167.445 290.893L181.92 261.311" fill="black"/>
<path d="M82.2958 272.688H75.7852V387.459H82.2958V272.688Z" fill="black"/>
<path d="M93.551 290.83L78.8231 276.102L63.9688 290.893L78.507 261.311" fill="black"/>
<path d="M911.675 -29.582H905.164V336.694H911.675V-29.582Z" fill="black"/>
<path d="M807.128 24.8428H800.617V336.682H807.128V24.8428Z" fill="black"/>
<path d="M702.636 -29.582H696.125V336.694H702.636V-29.582Z" fill="black"/>
<path d="M1264.19 101.579H694.605V108.109H1264.19V101.579Z" fill="black"/>
<path d="M1264.13 324.646H697.836V331.176H1264.13V324.646Z" fill="black"/>
<path d="M890.312 105.181L908.011 87.4824L925.71 105.181L908.011 122.817L890.312 105.181Z" fill="black"/>
<path d="M785.699 105.181L803.398 87.4824L821.097 105.181L803.398 122.817L785.699 105.181Z" fill="black"/>
<path d="M681.02 105.181L698.718 87.4824L716.417 105.181L698.718 122.817L681.02 105.181Z" fill="black"/>
<path d="M911.104 257.329C911.104 255.321 911.231 253.316 911.483 251.324C911.547 250.692 911.61 250.186 911.736 249.491C913.795 237.355 920.325 226.43 930.039 218.869C939.753 211.308 951.947 207.66 964.217 208.644C976.488 209.627 987.944 215.171 996.33 224.183C1004.72 233.194 1009.42 245.02 1009.52 257.329V381.22H911.104V257.329ZM904.846 257.329V387.541H1015.78V257.329C1015.8 245.013 1011.72 233.042 1004.18 223.304C996.638 213.566 986.07 206.617 974.142 203.551C962.215 200.486 949.606 201.48 938.305 206.376C927.005 211.272 917.657 219.792 911.736 230.591C908.206 236.89 905.971 243.832 905.162 251.008V251.261C904.931 253.275 904.826 255.301 904.846 257.329Z" fill="black"/>
<path d="M807.062 257.329C807.062 256.254 807.062 255.179 807.125 254.168V253.662C808.168 241.574 813.633 230.294 822.473 221.982C831.313 213.671 842.908 208.911 855.038 208.613C867.168 208.316 878.982 212.502 888.218 220.371C897.455 228.239 903.466 239.237 905.1 251.26V251.513C905.333 253.421 905.439 255.343 905.416 257.265V381.22H807.062V257.329ZM800.867 257.329V387.541H911.801V257.329C911.801 256.444 911.801 255.495 911.737 254.61C911.674 253.726 911.548 252.651 911.484 251.324C910.204 239.504 905.157 228.409 897.089 219.677C889.021 210.945 878.359 205.038 866.678 202.828C854.996 200.618 842.914 202.221 832.213 207.402C821.513 212.584 812.762 221.068 807.251 231.602C806.027 233.851 804.991 236.198 804.154 238.618C802.378 243.476 801.314 248.564 800.994 253.726C800.93 254.927 800.867 256.128 800.867 257.329Z" fill="black"/>
<path d="M702.577 257.328V256.064C702.899 243.68 707.877 231.872 716.519 222.995C725.16 214.118 736.83 208.825 749.202 208.171C761.573 207.517 773.736 211.55 783.265 219.466C792.795 227.382 798.99 238.599 800.616 250.881C800.679 251.766 800.869 252.714 800.932 253.662C800.995 254.61 801.122 256.064 801.122 257.265V381.219H702.704L702.577 257.328ZM696.383 257.328V387.54H807.316V257.328C807.316 256.127 807.316 254.926 807.253 253.725V253.283C806.838 248.284 805.797 243.357 804.156 238.618C799.697 226.366 791.072 216.072 779.79 209.537C768.507 203.003 755.286 200.644 742.44 202.875C729.594 205.105 717.941 211.782 709.521 221.736C701.102 231.691 696.451 244.29 696.383 257.328Z" fill="black"/>
<path d="M833.988 23.0724H834.115L834.304 22.8828" fill="black"/>
<path d="M750.679 218.391C757.73 218.391 763.447 212.703 763.447 205.686C763.447 198.669 757.73 192.98 750.679 192.98C743.627 192.98 737.91 198.669 737.91 205.686C737.91 212.703 743.627 218.391 750.679 218.391Z" fill="black"/>
<path d="M856.3 218.391C863.351 218.391 869.068 212.703 869.068 205.686C869.068 198.669 863.351 192.98 856.3 192.98C849.248 192.98 843.531 198.669 843.531 205.686C843.531 212.703 849.248 218.391 856.3 218.391Z" fill="black"/>
<path d="M754.725 272.688H748.215V387.459H754.725V272.688Z" fill="black"/>
<path d="M736.898 290.83L751.626 276.102L766.481 290.893L751.942 261.311" fill="black"/>
<path d="M858.198 272.688H851.688V387.459H858.198V272.688Z" fill="black"/>
<path d="M840.375 290.83L855.103 276.102L869.894 290.893L855.419 261.311" fill="black"/>
<path d="M1230.95 383.18H-298.859V500.573H1230.95V383.18Z" fill="black"/>
<path d="M416.549 299.743L415.601 300.059L410.671 301.892L403.528 304.736C403.528 304.736 399.735 308.403 398.661 312.764C398.428 313.521 398.321 314.311 398.345 315.103C398.345 320.412 400.241 325.469 398.345 329.768C396.448 334.066 390.127 340.071 390.127 340.071V346.012L390.38 377.049H366.108L367.245 374.899C367.245 374.899 371.038 339.249 369.395 337.1C367.751 334.951 353.023 327.998 350.811 323.194C348.598 318.39 345.059 311.31 345.059 310.489C345.059 309.667 343.731 301.955 345.059 299.553C345.628 298.605 346.133 297.278 346.702 296.077C347.271 294.876 348.535 292.79 349.926 293.485C351.316 294.18 353.466 299.553 353.213 300.628C352.96 301.702 352.391 306.759 352.391 306.759C353.821 309.372 355.426 311.885 357.195 314.281C357.601 314.877 358.116 315.392 358.712 315.798C360.608 316.873 363.642 308.655 363.642 307.834C363.642 307.012 362.568 300.944 361.177 293.359C359.787 285.773 363.642 275.154 363.642 275.154C363.642 275.154 365.855 272.373 368.067 272.183C368.375 272.161 368.684 272.199 368.977 272.297C369.27 272.395 369.541 272.549 369.774 272.752C372.429 274.901 372.681 281.854 371.291 283.119C369.9 284.383 368.573 290.83 368.573 291.652C368.573 292.474 368.826 295.508 370.09 297.341C370.291 297.702 370.584 298.003 370.939 298.214C371.294 298.425 371.699 298.538 372.113 298.542C375.147 298.542 373.44 287.417 373.756 282.613C374.072 277.809 380.077 269.339 380.077 269.339C380.077 269.339 386.588 267.19 388.294 268.011H388.421C390.001 268.833 391.518 271.994 391.328 272.942C391.139 273.89 385.576 278.82 385.576 278.82L382.542 288.681C382.542 288.681 382.858 295.192 383.427 297.91C383.553 298.542 383.743 299.048 383.87 299.048L387.473 298.226L388.294 282.55L394.742 276.292L398.155 273.005L405.803 273.574C405.803 273.574 407.889 273.827 408.585 274.838C408.783 275.141 408.867 275.505 408.821 275.865C408.775 276.224 408.601 276.555 408.332 276.798L408.016 277.303C406.376 279.199 404.321 280.692 402.011 281.665L401.505 281.854L400.683 282.929L397.144 288.175V301.26L397.333 300.881C398.022 299.898 398.782 298.969 399.609 298.099C400.326 297.307 401.157 296.625 402.074 296.077C403.197 295.37 404.479 294.957 405.803 294.876H416.739C416.739 294.876 420.089 298.605 416.549 299.743Z" fill="black"/>
<path d="M288.612 388.615C288.612 388.615 290.761 364.469 289.749 363.015C288.738 361.562 280.71 356.884 279.509 353.597C278.308 350.31 276.286 345.506 276.286 344.937C276.286 344.368 275.59 339.122 276.286 337.542C276.981 335.962 277.676 332.675 279.004 333.433C280.331 334.192 281.026 337.542 280.837 338.237C280.647 338.932 280.394 342.409 280.394 342.409C280.394 342.409 282.733 347.845 283.871 348.54C285.009 349.236 286.589 343.673 286.589 343.104C286.589 342.535 285.957 338.427 285.261 333.244C284.566 328.06 286.589 320.918 286.589 320.918C286.589 320.918 288.612 317.82 290.002 319.337C291.393 320.854 291.582 325.469 290.824 326.354C290.065 327.239 289.307 331.6 289.307 332.106C289.307 332.611 289.623 336.846 291.266 336.846C292.91 336.846 292.088 329.261 292.151 326.038C292.214 322.814 295.691 316.999 295.691 316.999C295.691 316.999 299.231 315.608 300.242 316.114C300.741 316.549 301.144 317.082 301.427 317.68C301.71 318.279 301.866 318.929 301.886 319.59C301.759 320.285 298.725 323.509 298.725 323.509L297.018 330.209C297.018 330.209 297.334 337.099 297.714 337.226C298.093 337.352 299.736 336.657 299.736 336.657L300.242 326.038L305.615 319.464L309.85 319.906C309.85 319.906 312.568 320.285 311.051 322.435C310.148 323.77 308.904 324.839 307.448 325.532L305.046 329.83V338.68C305.046 338.68 307.258 334.381 309.913 334.381H315.981C315.981 334.381 318.004 336.91 315.981 337.605C313.959 338.3 308.712 341.018 308.712 341.018C308.712 341.018 305.868 344.495 305.868 348.035C305.868 351.574 306.879 355.051 305.868 358.022C304.856 360.993 301.317 364.975 301.317 364.975L301.506 390.069H288.043L288.612 388.615Z" fill="black"/>
<path d="M343.353 383.496C343.353 383.496 341.899 371.549 342.531 370.917C343.163 370.285 348.662 367.883 349.547 366.303C350.432 364.722 351.696 362.32 351.696 362.004C351.696 361.688 352.202 359.097 351.696 358.338C351.191 357.58 350.748 355.936 349.863 356.252C348.978 356.568 348.536 358.338 348.662 358.654C348.838 359.337 348.944 360.036 348.978 360.74C348.978 360.74 347.335 363.332 346.576 363.711C345.818 364.09 344.743 361.372 344.743 361.119C344.743 360.867 345.186 358.781 345.691 356.252C346.197 353.724 344.743 350.184 344.743 350.184C344.743 350.184 343.416 348.667 342.468 349.426C341.52 350.184 341.33 352.46 341.899 352.902C342.468 353.345 342.91 355.431 342.91 355.747C342.91 356.063 342.784 358.085 341.583 358.085C340.382 358.085 341.014 354.356 340.951 352.776C340.887 351.196 338.549 348.288 338.549 348.288C338.549 348.288 336.083 347.593 335.451 347.845C335.139 348.002 334.872 348.235 334.673 348.522C334.474 348.809 334.351 349.142 334.314 349.489C334.952 350.223 335.673 350.88 336.463 351.448L337.601 354.735C337.601 354.735 337.348 358.085 337.095 358.212C336.645 358.215 336.198 358.152 335.767 358.022L335.451 352.776L331.785 349.552L328.878 349.742C328.878 349.742 327.044 349.868 328.119 351.006C328.809 351.699 329.654 352.219 330.584 352.523L332.228 354.672V359.034C332.228 359.034 330.837 356.884 329.004 356.884H324.832C324.832 356.884 323.505 358.149 324.832 358.465C326.16 358.781 329.763 360.171 329.763 360.171C329.763 360.171 331.785 361.815 331.785 363.648C331.785 365.481 331.09 367.124 331.785 368.515C332.481 369.906 334.882 371.992 334.882 371.992V384.318H344.048L343.353 383.496Z" fill="black"/>
<path d="M364.023 373.065C364.023 373.065 374.958 366.364 395.881 365.859C416.803 365.353 456.815 374.266 456.815 374.266L476.031 385.77H351.887C351.887 385.77 361.495 374.329 364.023 373.065Z" fill="black"/>
<path d="M407.952 372.876C407.952 372.876 422.806 359.918 435.511 358.59C448.216 357.263 486.648 351.7 504.6 366.997C522.551 382.294 516.799 385.707 516.799 385.707C516.799 385.707 420.214 386.845 407.825 385.707C395.436 384.569 407.952 372.876 407.952 372.876Z" fill="black"/>
<path d="M464.274 315.228L464.211 327.996L463.579 328.186L456.815 329.829L447.144 332.231L451.063 357.199L451.759 361.814L440.128 361.687L434.818 335.266L416.361 339.88L414.465 330.335L421.165 329.071L432.796 325.278L429.193 307.58L440.697 304.798L442.783 304.229L445.374 321.233" fill="black"/>
<path d="M456.817 329.83L447.146 332.232L451.065 357.2H450.812L446.324 332.169L456.817 329.83Z" fill="black"/>
<path d="M464.277 315.228L464.213 327.996L463.581 328.186L463.771 315.923L444.934 321.802L442.027 304.925L440.699 304.798L442.785 304.229L445.377 321.233" fill="black"/>
<path d="M661.867 378.564C661.867 378.564 670.148 357.072 671.981 356.503C673.814 355.934 686.708 358.02 689.743 356.187C692.777 354.354 697.644 351.763 697.897 351.32C698.149 350.878 701.563 347.085 701.247 345.189C700.931 343.292 701.626 340.195 699.54 339.753C697.454 339.31 695.115 341.775 694.926 342.471C694.736 343.166 693.662 346.2 693.662 346.2C693.662 346.2 688.036 348.918 686.329 348.792C684.623 348.665 685.002 342.787 685.191 342.344C685.381 341.902 688.162 338.868 691.512 335.138C694.863 331.409 695.368 324.013 695.368 324.013C695.368 324.013 694.167 320.031 691.576 320.221C688.984 320.411 686.709 324.077 687.277 325.341C687.846 326.605 686.898 330.777 686.645 331.283C686.392 331.788 684.117 334.949 681.968 333.748C679.819 332.547 684.433 326.858 685.697 324.077C686.961 321.295 685.191 314.153 685.191 314.153C685.191 314.153 681.083 310.297 679.629 310.107C678.175 309.918 676.026 311.055 675.9 311.688C675.773 312.32 678.302 317.25 678.302 317.25L677.417 323.95C677.417 323.95 673.877 329.323 673.182 329.197C672.486 329.07 670.843 327.3 670.843 327.3L675.204 318.135L671.032 308.843L665.28 305.999C665.28 305.999 661.551 304.355 662.562 307.2C663.346 309.121 664.482 310.879 665.912 312.383L667.113 317.756L663.068 325.025C663.068 325.025 662.246 319.968 658.707 317.945L650.742 313.584C650.742 313.584 646.949 314.216 649.225 316.302C651.501 318.388 657.189 324.393 657.189 324.393C657.189 324.393 659.402 329.323 657.695 332.294C655.989 335.265 653.081 337.288 653.207 340.511C653.334 343.735 655.862 349.55 655.862 349.55L636.141 382.293L661.867 379.954V378.564Z" fill="black"/>
<path d="M543.222 348.602C543.222 349.234 540.124 355.112 538.165 359.095C536.205 363.077 523.437 368.766 521.983 370.472C520.529 372.179 523.943 401.509 523.943 401.509L524.891 403.278H503.652L503.905 372.875C503.905 372.875 498.406 367.881 496.762 364.341C495.119 360.801 496.762 356.756 496.762 352.331C496.762 347.907 492.211 343.861 492.211 343.861C492.211 343.861 483.931 340.574 480.834 339.689C477.736 338.804 480.834 335.77 480.834 335.77H490.315C494.613 335.77 497.837 341.017 497.837 341.017V330.334L494.044 325.025C491.855 324.262 489.882 322.983 488.292 321.295C486.775 319.652 487.913 318.83 488.924 318.514L490.125 318.261L496.826 317.882L505.359 325.783V326.226L506.054 338.678C506.054 338.678 508.456 339.563 509.152 339.31C509.847 339.057 510.353 330.777 510.353 330.777L507.761 322.686C507.761 322.686 502.957 318.767 502.704 317.882C502.451 316.997 503.273 315.606 504.284 314.532C504.583 314.203 504.95 313.944 505.359 313.773C506.813 313.141 512.502 314.848 512.502 314.848C514.257 317.225 515.781 319.765 517.053 322.433C517.566 323.484 517.887 324.619 518.001 325.783C518.254 329.639 516.8 338.868 519.455 338.868C522.11 338.868 522.552 333.874 522.552 333.242C522.552 332.61 521.351 327.363 520.15 326.226C519.759 325.791 519.534 325.23 519.518 324.645C519.202 322.496 519.771 319.02 521.478 317.629C523.184 316.238 526.092 318.83 526.724 319.462L526.85 319.652C526.85 319.652 530.201 328.375 529 334.633C527.799 340.89 526.85 345.884 526.85 346.516C526.85 347.148 529.505 353.912 531.149 353.09C531.886 352.567 532.509 351.9 532.982 351.13C534.291 349.393 535.494 347.577 536.585 345.694C536.585 345.694 536.142 341.522 535.889 340.637C535.637 339.753 536.585 335.644 538.734 334.759C538.968 334.644 539.231 334.601 539.489 334.635C539.748 334.669 539.991 334.778 540.188 334.949C541.389 335.77 542.084 338.362 542.969 339.753C543.854 341.143 543.222 347.97 543.222 348.602Z" fill="black"/>
<path d="M631.341 256.885L618.573 293.294L627.233 296.075L622.871 309.539L638.737 318.009L621.291 371.674L626.601 375.467L623.251 385.96L631.784 388.741L626.601 404.733L535.895 382.799L545.945 364.595L554.478 363.647L558.397 351.7L565.161 351.89H565.35L578.624 300.184L595.122 299.742L602.202 288.048L607.574 289.754L618.826 248.478L618.699 248.415L596.007 241.083L600.495 227.24L601.127 225.407L622.682 232.423L629.319 200.755L631.405 201.45L653.212 208.53L637.22 238.807L661.05 245.318L651.885 263.522" fill="black"/>
<path d="M96.011 316.239L96.8328 316.429L101.068 318.073L107.136 320.538C107.136 320.538 110.296 323.635 111.245 327.301C111.422 327.917 111.507 328.556 111.497 329.198C111.497 333.622 109.917 337.92 111.497 341.523C113.078 345.126 118.451 350.31 118.451 350.31V355.24L118.261 381.409H138.741L137.793 379.576C137.793 379.576 134.632 349.551 135.96 347.718C137.287 345.885 149.739 340.07 151.573 336.087C153.406 332.105 156.44 326.037 156.44 325.342C156.44 324.646 157.577 318.199 156.44 316.239C155.997 315.418 155.555 314.28 155.112 313.269C154.67 312.257 153.595 310.487 152.331 311.056C151.067 311.625 149.36 316.239 149.487 317.061C149.613 317.883 150.245 322.244 150.245 322.244C149.029 324.44 147.7 326.571 146.263 328.629C145.924 329.125 145.495 329.554 144.999 329.893C143.355 330.778 140.827 323.888 140.827 323.193C140.827 322.497 141.775 317.314 142.913 310.993C144.051 304.672 140.827 295.633 140.827 295.633C140.827 295.633 138.994 293.231 137.161 293.105C136.634 293.109 136.123 293.287 135.707 293.61C133.558 295.443 133.305 301.259 134.443 302.397C135.58 303.534 136.781 308.907 136.781 309.539C136.728 311.236 136.296 312.899 135.517 314.406C135.335 314.7 135.085 314.945 134.788 315.121C134.49 315.297 134.155 315.399 133.811 315.418C131.282 315.418 132.61 305.999 132.483 301.954C132.357 297.909 127.174 290.766 127.174 290.766C127.174 290.766 121.674 288.933 120.284 289.628H120.094C118.767 290.45 117.502 292.978 117.692 293.863C117.882 294.748 122.559 298.794 122.559 298.794L125.151 307.074C125.015 309.678 124.741 312.274 124.329 314.849C124.266 315.418 124.076 315.797 123.95 315.797L120.916 315.165L120.157 301.954L114.784 296.708L111.877 293.926L105.429 294.432C105.429 294.432 103.659 294.559 103.027 295.507C102.9 295.785 102.855 296.095 102.9 296.398C102.945 296.701 103.077 296.984 103.28 297.213L103.596 297.593C105.03 299.156 106.774 300.405 108.716 301.259L109.095 301.385L109.728 302.397L112.762 306.758V317.757L112.509 317.44C111.987 316.578 111.349 315.791 110.613 315.102C109.991 314.467 109.289 313.914 108.527 313.458C107.616 312.77 106.508 312.393 105.366 312.384H96.011C96.011 312.384 93.1034 315.355 96.011 316.239Z" fill="black"/>
<path d="M203.85 391.207C203.85 391.207 202.144 370.79 202.839 369.652C203.534 368.515 210.487 364.469 211.499 361.751C212.51 359.033 214.217 354.925 214.217 354.419C214.217 353.913 214.849 349.552 214.217 348.224C213.585 346.897 213.142 344.052 211.941 344.685C210.74 345.317 210.235 348.224 210.424 348.856C210.614 349.489 210.803 352.333 210.803 352.333C210.803 352.333 208.717 356.884 207.833 357.516C206.948 358.148 205.557 353.408 205.557 352.965C205.557 352.523 205.999 348.983 206.632 344.685C207.264 340.386 205.557 334.255 205.557 334.255C205.557 334.255 203.85 331.727 202.649 332.928C201.448 334.129 201.322 338.111 201.954 338.806C202.586 339.501 203.218 343.168 203.218 343.673C203.218 344.179 202.965 347.655 201.575 347.655C200.184 347.655 200.943 341.271 200.753 338.49C200.563 335.709 197.782 330.968 197.782 330.968C197.782 330.968 194.811 329.767 193.99 330.146C193.572 330.502 193.229 330.936 192.98 331.424C192.73 331.912 192.579 332.444 192.536 332.991C192.725 333.623 195.254 336.341 195.254 336.341L196.708 342.03C196.708 342.03 196.455 347.845 196.076 347.908C195.483 347.832 194.907 347.662 194.369 347.403L193.99 338.427L189.375 332.928L185.772 333.244C185.772 333.244 183.497 333.56 184.761 335.393C185.504 336.514 186.559 337.392 187.795 337.921L189.818 341.587V349.109C189.818 349.109 188.111 345.443 185.772 345.443H180.652C180.652 345.443 179.009 347.592 180.652 348.161C182.296 348.73 186.784 351.006 186.784 351.006C186.784 351.006 189.186 353.85 189.186 356.884C189.186 359.918 188.301 362.763 189.186 365.228C190.071 367.693 193.041 371.106 193.041 371.106L192.852 392.218H204.166L203.85 391.207Z" fill="black"/>
<path d="M157.708 386.845C157.708 386.845 158.909 376.794 158.467 376.162C158.024 375.53 153.284 373.571 152.525 372.243C151.852 371.075 151.24 369.872 150.692 368.64C150.692 368.451 150.313 366.302 150.692 365.543C151.071 364.785 151.514 363.584 152.335 363.836C153.157 364.089 153.41 365.543 153.347 365.796C153.284 366.049 153.094 367.566 153.094 367.566C153.094 367.566 154.485 369.778 155.117 370.094C155.749 370.41 156.697 368.135 156.697 367.882C156.502 366.519 156.228 365.168 155.875 363.836C155.433 361.751 156.697 358.716 156.697 358.716C156.697 358.716 157.835 357.452 158.593 358.084C159.352 358.716 159.478 360.613 159.099 361.055C158.585 361.734 158.278 362.546 158.214 363.394C158.214 363.647 158.34 365.353 159.352 365.353C160.363 365.353 159.731 362.193 159.857 360.866C159.984 359.538 161.88 357.136 161.88 357.136C161.88 357.136 163.966 356.504 164.472 356.757C164.738 356.893 164.968 357.089 165.144 357.331C165.32 357.573 165.436 357.852 165.483 358.148C164.919 358.765 164.306 359.336 163.65 359.854L162.639 362.635C162.639 362.635 162.828 365.48 163.081 365.543C163.448 365.547 163.812 365.483 164.156 365.353L164.409 360.929L167.506 358.211L169.908 358.4C169.908 358.4 171.488 358.59 170.666 359.412C170.078 360.003 169.366 360.457 168.58 360.739L167.19 362.509V366.175C167.19 366.175 168.391 364.342 169.971 364.342H173.511C173.511 364.342 174.649 365.417 173.511 365.733C172.373 366.049 169.339 367.123 169.339 367.123C169.339 367.123 167.695 368.577 167.695 370.094C167.695 371.611 168.328 373.065 167.695 374.266C166.966 375.367 166.071 376.348 165.041 377.174V387.351H157.329L157.708 386.845Z" fill="black"/>
<path d="M140.262 377.996C140.262 377.996 131.096 372.307 113.524 371.928C95.9514 371.549 62.1974 378.944 62.1974 378.944L46.0156 388.616H150.628C150.628 388.616 142.474 379.071 140.262 377.996Z" fill="black"/>
<path d="M103.287 377.869C103.287 377.869 90.7717 366.997 80.026 365.796C69.2804 364.595 36.9801 360.044 21.873 372.938C6.76579 385.833 11.5697 388.741 11.5697 388.741C11.5697 388.741 93.0473 389.689 103.477 388.741C113.907 387.793 103.287 377.869 103.287 377.869Z" fill="black"/>
<path d="M55.7461 329.261L55.9357 340.133L56.3782 340.259L62.1303 341.65L70.2844 343.61L66.9343 364.722L66.3653 368.577L76.0997 368.451L80.6508 346.264L96.1372 350.057L97.7807 342.029L92.155 340.955L82.2942 337.794L85.3283 322.813L75.6572 320.475L73.9505 320.032L71.675 334.381" fill="black"/>
<path d="M62.1328 341.649L70.2869 343.609L67 364.721H67.1896L70.919 343.609L62.1328 341.649Z" fill="black"/>
<path d="M55.7461 329.261L55.9357 340.133L56.3782 340.259L56.1886 329.83L72.1174 334.887L74.5826 320.664L75.6572 320.475L73.9505 320.032L71.675 334.381" fill="black"/>
<path d="M1043.66 371.548C1043.66 371.548 1030.63 363.521 1005.6 362.888C980.572 362.256 932.533 372.876 932.533 372.876L909.461 386.719H1058.45C1058.45 386.719 1046.88 373.128 1043.66 371.548Z" fill="black"/>
<path d="M991.005 371.359C991.005 371.359 973.243 355.873 957.883 354.166C942.523 352.459 896.57 346.012 874.952 364.343C853.334 382.674 860.414 386.719 860.414 386.719C860.414 386.719 976.34 388.11 991.195 386.719C1006.05 385.328 991.005 371.359 991.005 371.359Z" fill="black"/>
<path d="M-12.0077 -51.5784C-22.1212 -39.6318 -24.46 -24.4614 -23.5751 -9.85992C-23.5751 -9.41745 -23.5119 -8.97498 -23.5119 -8.59572C-25.7242 -13.21 -28.379 -16.6866 -31.5395 -17.1291C-30.5914 -15.6752 -30.4017 -13.5893 -29.3904 -12.2619C-32.3612 -11.6298 -35.1425 -10.1128 -36.4067 -7.58437C-37.7341 -9.54387 -39.4407 -10.3656 -41.2106 -11.7562C-39.2511 -6.76264 -40.7682 -2.14832 -35.2057 0.19045C-36.5025 0.0708864 -37.7557 -0.33963 -38.8719 -1.01054C-50.8185 -9.41745 -63.903 -16.1809 -79.3894 -13.7157C-86.7849 -12.5147 -105.179 -8.34289 -114.281 10.4304C-102.019 -0.50486 -79.8319 -3.09646 -73.5741 12.9588C-74.0166 3.79342 -60.8689 5.56329 -59.2254 13.5277C-58.9726 4.61514 -46.8995 2.40279 -46.7099 11.3154C-45.8249 6.51144 -37.418 5.24724 -27.5573 8.47094C-23.8993 10.5104 -20.1208 12.3258 -16.2427 13.907C-16.8116 12.0107 -17.5701 8.66057 -18.7079 4.86798C-19.2768 -5.18239 -12.6398 -12.5779 -7.7726 -10.7449C-15.2946 -15.612 -7.07729 -24.651 0.634313 -20.2263C-5.24421 -25.7888 0.191847 -37.7987 7.65061 -32.6787C-2.77902 -46.4584 11.0007 -63.9044 26.74 -68.7083C5.88073 -70.8575 -7.1405 -57.3305 -12.0077 -51.5784Z" fill="black"/>
<path d="M156.189 453.342C164.67 455.515 172.638 459.34 179.639 464.598C186.639 469.856 192.534 476.443 196.984 483.982C201.435 491.521 204.355 499.864 205.576 508.534C206.797 517.203 206.296 526.028 204.102 534.504L167.377 676.347L38.1758 643.035L74.9007 501.192C79.347 484.075 90.4046 469.421 105.645 460.45C120.886 451.479 139.065 448.922 156.189 453.342Z" fill="#FCD12A"/>
<path d="M162.747 382.812L140.605 468.426L162.281 474.032L184.423 388.418L162.747 382.812Z" fill="#FCD12A"/>
<path d="M131.325 399.892L125.723 421.556L196.857 439.952L202.46 418.289L131.325 399.892Z" fill="#FCD12A"/>
<path d="M173.38 394.999L183.936 388.805L162.255 383.242L151.699 389.437" fill="#FCD12A"/>
<path d="M186.973 444.113L197.529 437.919L203.091 416.301L192.598 422.495" fill="#FCD12A"/>
<path d="M132.106 397.907L121.613 404.102L147.656 410.802L157.2 404.102" fill="#FCD12A"/>
<path d="M145.694 459.537C154.177 461.717 162.148 465.549 169.148 470.813C176.149 476.077 182.044 482.669 186.494 490.214C190.944 497.758 193.863 506.106 195.084 514.779C196.304 523.453 195.802 532.282 193.607 540.762L156.819 682.605L27.5547 649.23L64.3428 507.387C73.5083 471.736 109.917 450.308 145.694 459.537Z" fill="black"/>
<path d="M152.955 388.508L130.848 474.286L152.565 479.883L174.673 394.106L152.955 388.508Z" fill="black"/>
<path d="M121.806 404.566L116.203 426.229L187.252 444.604L192.855 422.94L121.806 404.566Z" fill="black"/>
<path d="M384.443 411.939C401.668 407.9 419.792 410.863 434.832 420.179C449.873 429.495 460.6 444.401 464.656 461.622L498.158 604.35L368.261 634.754L334.76 492.026C330.741 474.819 333.715 456.719 343.031 441.703C352.346 426.687 367.241 415.982 384.443 411.939Z" fill="#FCD12A"/>
<path d="M379.551 341.348L357.766 346.458L377.96 432.558L399.745 427.449L379.551 341.348Z" fill="#FCD12A"/>
<path d="M409.557 357.51L338.109 374.268L343.218 396.047L414.665 379.289L409.557 357.51Z" fill="#FCD12A"/>
<path d="M372.686 352.459L379.197 342.093L357.326 347.213L350.879 357.516" fill="#FCD12A"/>
<path d="M407.636 389.627L414.083 379.261L408.963 357.453L402.516 367.82" fill="#FCD12A"/>
<path d="M337.475 374.203L331.027 384.506L357.259 378.375L362.569 367.945" fill="#FCD12A"/>
<path d="M377.99 422.37C395.207 418.331 413.323 421.297 428.354 430.614C443.384 439.931 454.099 454.837 458.14 472.053L491.642 614.654L361.745 645.058L328.244 502.457C324.244 485.241 327.235 467.142 336.56 452.129C345.886 437.115 360.785 426.413 377.99 422.37Z" fill="black"/>
<path d="M373.059 351.774L351.273 356.884L371.468 442.984L393.253 437.874L373.059 351.774Z" fill="black"/>
<path d="M403.069 367.948L331.621 384.706L336.729 406.485L408.177 389.727L403.069 367.948Z" fill="black"/>
</g>
<g style="mix-blend-mode:color">
<rect width="910" height="512" fill="#881F63"/>
</g>
</svg>
