<svg width="750" height="474" viewBox="0 0 750 474" fill="none" xmlns="http://www.w3.org/2000/svg">
<path d="M98.5808 256.123C115.446 212.273 150.922 185.172 207.683 182.147C258.862 179.356 297.129 199.246 321.322 235.303C379.13 222.159 418.096 235.07 439.381 286.249C472.647 279.735 502.074 284.504 523.243 308.116C539.993 326.842 542.319 346.964 529.176 367.552C516.148 387.907 495.212 398.259 466.366 399.771C454.735 400.353 442.405 403.493 432.402 408.262C410.07 418.73 387.97 420.708 364.707 411.984C322.951 473.049 232.807 477.934 189.306 424.662C162.205 425.709 138.128 430.129 115.795 426.756C91.1367 423.034 77.5279 405.819 70.7817 386.046C69.2696 381.626 64.6171 376.276 59.7319 374.647C15.1836 359.992 -6.2182 335.1 1.57485 305.789C10.7637 271.244 40.5401 255.193 91.8346 257.054C93.2303 256.937 94.7424 256.588 98.5808 256.123Z" fill="#881F63"/>
<path d="M467.061 75.604C477.995 47.3397 500.792 29.8926 537.431 27.9153C570.465 26.1706 595.123 38.9651 610.593 62.1116C647.813 53.6207 672.937 61.9953 686.662 94.9122C708.18 90.7249 727.14 93.749 740.748 108.986C751.566 121.083 752.961 133.994 744.587 147.254C736.212 160.397 722.72 167.027 704.109 167.957C696.665 168.306 688.64 170.4 682.242 173.424C667.819 180.17 653.629 181.45 638.625 175.75C611.756 215.065 553.599 218.205 525.567 183.892C508.12 184.59 492.534 187.382 478.228 185.172C462.293 182.729 453.569 171.679 449.149 158.885C448.219 156.093 445.194 152.604 442.054 151.557C413.324 142.136 399.599 126.084 404.601 107.125C410.533 84.9092 429.725 74.5572 462.758 75.7203C463.572 76.0693 464.619 75.8367 467.061 75.604Z" fill="#881F63"/>
<path d="M237.342 318.817C239.203 319.747 240.017 320.212 240.715 320.561C243.391 316.607 245.949 312.768 248.974 308.348C250.137 310.209 250.835 311.14 251.184 311.838C256.418 306.953 261.536 301.951 266.77 297.066C267.235 297.415 267.7 297.88 268.282 298.229C261.768 313.699 262.233 329.75 263.397 347.081C266.537 345.104 268.631 343.475 270.957 342.312C275.144 340.218 279.448 338.008 283.868 336.496C285.845 335.798 288.637 335.915 290.498 336.845C296.197 339.637 301.664 342.894 306.665 345.802C300.152 351.036 292.94 356.27 286.427 362.318C283.752 364.761 281.425 368.483 280.495 372.088C273.283 399.073 252.347 407.215 227.572 405.703C223.385 405.471 218.965 405.238 215.01 403.959C201.169 399.539 188.49 403.144 175.928 408.727C165.925 413.264 155.457 415.59 144.524 414.427C142.663 414.194 140.918 413.613 137.777 413.031C145.803 409.542 152.666 406.517 159.412 403.493C159.412 403.028 159.295 402.563 159.295 402.098C153.363 400.353 146.501 401.051 141.15 395.235C149.292 393.723 156.737 392.327 164.064 390.931C171.508 389.536 179.069 388.256 186.513 386.86C194.073 385.465 199.656 381.161 204.076 374.531C201.75 372.903 198.61 371.972 197.679 369.995C194.888 364.528 189.886 361.504 186.164 357.2C185.699 356.619 186.28 355.107 186.397 353.943C181.162 350.803 175.347 348.011 174.765 339.869C176.277 339.986 177.324 339.986 178.487 340.218C194.306 342.894 210.125 345.569 225.943 348.477C229.317 349.058 230.363 347.895 231.061 344.522C232.69 336.031 235.132 327.657 237.342 318.817Z" fill="#F64C72"/>
<path d="M352.963 136.785C353.777 137.251 354.242 137.483 354.591 137.6C355.754 135.739 357.034 133.994 358.429 131.9C359.011 132.714 359.244 133.18 359.476 133.529C361.919 131.319 364.245 128.992 366.688 126.666C366.92 126.899 367.153 127.015 367.386 127.248C364.361 134.459 364.594 141.787 365.059 149.813C366.571 148.882 367.502 148.184 368.549 147.603C370.526 146.672 372.503 145.625 374.597 144.927C375.528 144.578 376.807 144.695 377.738 145.044C380.413 146.323 382.855 147.835 385.182 149.115C382.158 151.557 378.901 154 375.76 156.791C374.481 157.954 373.434 159.699 372.969 161.328C369.596 173.89 359.942 177.612 348.426 176.914C346.449 176.797 344.472 176.681 342.611 176.099C336.213 174.006 330.398 175.751 324.582 178.309C319.93 180.403 315.161 181.45 310.043 180.985C309.229 180.868 308.414 180.636 306.902 180.287C310.624 178.658 313.765 177.263 316.905 175.867C316.905 175.634 316.905 175.402 316.789 175.285C313.998 174.471 310.857 174.82 308.414 172.029C312.253 171.331 315.626 170.633 318.999 170.051C322.488 169.47 325.978 168.772 329.351 168.19C332.84 167.609 335.399 165.515 337.493 162.491C336.446 161.793 334.934 161.328 334.469 160.397C333.189 157.838 330.863 156.442 329.118 154.465C328.886 154.232 329.235 153.535 329.235 152.953C326.792 151.557 324.117 150.161 323.884 146.439C324.582 146.556 325.047 146.556 325.629 146.556C332.957 147.835 340.284 148.998 347.612 150.394C349.241 150.627 349.706 150.161 349.939 148.533C350.869 144.695 351.916 140.856 352.963 136.785Z" fill="#F19B9B"/>
<path d="M405.534 274.036C406.464 274.967 406.929 275.432 407.278 275.664C409.605 273.803 411.815 271.826 414.49 269.616C414.839 271.012 415.072 271.71 415.188 272.175C419.259 270.081 423.33 267.988 427.401 265.894C427.633 266.243 427.866 266.592 428.099 266.825C421.352 275.083 418.794 284.97 416.351 295.787C418.677 295.089 420.189 294.507 421.818 294.275C424.726 293.693 427.75 293.228 430.774 293.112C432.053 292.995 433.798 293.693 434.729 294.507C437.753 297.183 440.428 300.207 442.987 302.882C438.102 304.859 432.751 306.837 427.633 309.279C425.54 310.326 423.446 312.187 422.283 314.164C413.094 329.402 398.788 330.565 383.899 325.214C381.34 324.284 378.781 323.353 376.572 321.841C368.895 316.607 360.52 316.607 351.913 317.77C345.05 318.701 338.188 318.352 331.674 315.676C330.627 315.211 329.581 314.513 327.836 313.583C333.419 312.885 338.072 312.303 342.724 311.605C342.724 311.373 342.84 311.024 342.84 310.791C339.584 308.698 335.28 307.883 332.954 303.347C338.188 303.812 342.957 304.278 347.726 304.859C352.495 305.325 357.38 305.906 362.149 306.371C367.034 306.837 371.105 305.208 375.059 302.068C373.896 300.672 372.152 299.509 371.919 298.113C371.221 294.275 368.662 291.483 367.15 288.226C366.917 287.761 367.615 286.947 367.848 286.249C365.173 283.457 362.149 280.666 363.312 275.548C364.126 275.897 364.824 276.13 365.522 276.479C374.711 281.015 383.899 285.435 393.088 289.971C395.065 290.902 395.88 290.436 396.926 288.459C399.602 283.806 402.51 279.154 405.534 274.036Z" fill="#F64C72"/>
<path d="M487.885 5.35045C488.583 5.93202 488.815 6.28096 489.048 6.51359C490.56 5.23413 492.072 3.95468 493.933 2.55892C494.166 3.48943 494.398 3.95468 494.398 4.18731C497.074 2.79154 499.865 1.39577 502.54 0C502.657 0.232628 502.889 0.465259 503.006 0.697887C498.469 6.28096 496.841 12.7946 495.213 20.006C496.725 19.5408 497.771 19.1918 498.818 18.9592C500.796 18.6103 502.773 18.2613 504.75 18.145C505.681 18.145 506.728 18.4939 507.426 19.0755C509.403 20.9365 511.264 22.9139 513.009 24.6586C509.752 26.0544 506.146 27.3338 502.773 28.9622C501.377 29.6601 499.981 30.9395 499.167 32.219C493.003 42.4546 483.465 43.1525 473.578 39.6631C471.833 39.0815 470.089 38.3837 468.693 37.4531C463.575 33.9637 457.992 33.9637 452.176 34.7779C447.524 35.4758 442.988 35.1269 438.684 33.3821C437.986 33.0332 437.288 32.6843 436.125 31.9864C439.847 31.5211 442.988 31.0559 446.128 30.7069C446.128 30.4743 446.244 30.358 446.244 30.1253C444.034 28.7296 441.127 28.148 439.614 25.1238C443.104 25.4728 446.361 25.8217 449.501 26.0544C452.758 26.4033 455.898 26.7522 459.155 27.1012C462.412 27.4501 465.203 26.287 467.762 24.1933C466.948 23.2628 465.901 22.5649 465.669 21.5181C465.204 18.9592 463.575 17.0982 462.528 14.8882C462.412 14.6556 462.877 14.074 462.994 13.6088C461.249 11.7477 459.155 9.88669 459.969 6.51359C460.551 6.74621 461.016 6.86253 461.481 7.09516C467.646 10.1193 473.811 13.0272 479.859 16.1677C481.139 16.8655 481.72 16.5166 482.418 15.1208C483.93 11.864 485.907 8.72355 487.885 5.35045Z" fill="#DE8DBA"/>
<path d="M443.451 395.817C444.846 397.096 445.428 397.794 446.01 398.259C449.266 395.584 452.523 392.793 456.362 389.652C456.943 391.629 457.176 392.56 457.408 393.258C463.224 390.35 468.923 387.326 474.739 384.418C475.088 384.883 475.437 385.348 475.67 385.814C466.016 397.678 462.41 411.752 458.92 427.105C462.177 426.175 464.387 425.244 466.713 424.895C470.901 424.081 475.204 423.383 479.508 423.151C481.369 423.034 483.812 423.848 485.207 425.128C489.511 428.966 493.349 433.27 497.071 436.992C490.093 439.9 482.416 442.691 475.204 446.181C472.18 447.693 469.272 450.368 467.528 453.16C454.384 474.91 434.029 476.539 412.86 468.978C409.254 467.699 405.532 466.303 402.392 464.209C391.458 456.765 379.478 456.649 367.149 458.394C357.262 459.789 347.608 459.208 338.303 455.37C336.791 454.788 335.279 453.741 332.836 452.462C340.745 451.415 347.375 450.601 354.121 449.67C354.238 449.205 354.238 448.856 354.354 448.391C349.585 445.367 343.537 444.203 340.28 437.69C347.84 438.388 354.587 439.086 361.333 439.783C368.195 440.481 375.058 441.296 381.92 441.993C388.899 442.691 394.831 440.365 400.414 435.829C398.786 433.851 396.343 432.223 395.995 430.246C394.948 424.779 391.458 420.824 389.132 416.172C388.899 415.59 389.714 414.427 390.179 413.38C386.457 409.309 382.037 405.354 383.665 398.143C384.945 398.608 385.875 398.957 386.806 399.422C399.949 405.82 413.093 412.217 426.12 418.731C428.911 420.126 430.074 419.312 431.587 416.521C435.076 409.658 439.263 403.028 443.451 395.817Z" fill="#F19B9B"/>
<path d="M333.187 222.392C327.371 227.394 320.508 231.116 314.227 235.303C308.179 239.491 300.153 243.562 291.314 242.631C287.126 242.166 283.172 244.725 279.333 245.888C270.842 248.563 263.631 247.051 256.07 243.329C254.209 242.398 251.999 240.188 249.557 241.933C246.765 243.91 248.161 246.702 248.51 249.145C249.441 256.472 250.72 263.8 251.65 271.128C251.999 274.152 252.348 277.06 248.161 278.688C244.323 280.2 240.95 280.666 238.391 277.525C236.53 275.199 234.552 274.617 231.877 274.152C229.086 273.687 227.69 271.593 227.573 268.453C227.341 260.311 219.431 254.844 211.638 257.403C207.567 258.682 206.288 257.403 204.194 253.681C201.17 248.214 202.101 241.817 198.146 236.815C195.471 233.442 197.797 231 201.286 229.953C207.916 227.975 214.779 226.812 221.758 226.463C226.061 226.231 231.179 226.929 233.854 221.578C232.226 220.531 230.714 219.019 228.969 218.67C215.826 216.344 211.406 205.178 204.427 195.989C199.309 189.243 197.448 181.45 195.006 174.238C192.098 165.747 188.725 156.326 190.702 146.672C191.167 144.578 190.702 143.299 189.422 141.554C187.212 138.879 185.468 135.738 183.258 132.365C188.027 132.714 188.027 132.714 191.749 134.575C191.865 130.621 188.492 128.76 187.561 125.852C186.98 123.991 183.607 122.711 185.468 120.501C187.329 118.408 189.19 121.781 191.4 121.548C193.377 118.64 190.586 116.198 190.469 113.406C190.353 111.429 187.91 108.986 190.12 107.59C192.679 105.962 192.679 110.498 195.122 110.615C195.122 107.241 195.122 103.985 195.122 100.379C197.564 101.658 196.401 105.38 199.077 105.613C202.333 105.846 199.425 101.426 202.915 101.077C203.264 103.17 203.613 105.613 203.845 107.939C205.474 126.084 218.036 137.948 229.202 150.161C239.554 161.56 246.184 175.634 257.001 186.684C260.258 189.941 262.119 190.406 265.724 187.963C269.098 185.637 272.354 183.427 275.262 180.403C282.357 173.075 285.033 173.308 291.314 181.682C292.011 182.613 293.407 182.962 294.221 184.241C288.406 185.521 282.823 185.405 282.357 193.081C281.66 206.574 282.241 209.365 291.895 213.32C303.643 218.205 315.856 221.694 328.767 220.88C330.744 220.299 332.721 219.019 333.187 222.392Z" fill="#F19B9B"/>
<path d="M582.099 222.276C580.122 223.905 577.796 225.184 575.702 226.58C573.608 227.976 570.933 229.371 568.025 229.022C566.629 228.906 565.35 229.72 563.954 230.069C561.046 231 558.72 230.418 556.161 229.139C555.58 228.79 554.765 228.092 553.951 228.673C553.021 229.371 553.486 230.302 553.602 231.116C553.951 233.559 554.3 236.001 554.649 238.444C554.765 239.491 554.882 240.421 553.486 241.003C552.207 241.468 551.043 241.701 550.229 240.654C549.648 239.84 548.95 239.723 548.019 239.491C547.089 239.374 546.623 238.676 546.623 237.513C546.507 234.722 543.948 232.977 541.273 233.791C539.877 234.257 539.528 233.791 538.83 232.512C537.784 230.651 538.133 228.557 536.853 226.812C535.923 225.649 536.737 224.835 537.9 224.486C540.11 223.788 542.436 223.439 544.762 223.323C546.158 223.207 547.903 223.439 548.833 221.695C548.252 221.346 547.787 220.88 547.205 220.764C542.785 219.95 541.273 216.228 538.947 213.204C537.202 210.994 536.62 208.318 535.806 205.876C534.876 202.968 533.713 199.828 534.41 196.687C534.527 195.989 534.41 195.524 533.945 194.942C533.247 194.012 532.666 192.965 531.852 191.918C533.48 192.035 533.48 192.034 534.643 192.616C534.643 191.337 533.596 190.639 533.247 189.708C533.015 189.127 531.968 188.661 532.549 187.964C533.131 187.266 533.829 188.429 534.527 188.312C535.225 187.266 534.294 186.451 534.178 185.637C534.178 184.939 533.364 184.125 534.062 183.66C534.876 183.078 534.876 184.59 535.69 184.707C535.69 183.544 535.69 182.497 535.69 181.217C536.504 181.683 536.155 182.846 536.969 182.962C538.016 183.078 537.086 181.566 538.249 181.45C538.365 182.148 538.481 182.962 538.598 183.776C539.179 189.825 543.367 193.779 547.089 197.967C550.578 201.805 552.788 206.457 556.394 210.18C557.441 211.226 558.139 211.459 559.302 210.645C560.465 209.831 561.512 209.133 562.442 208.086C564.768 205.643 565.699 205.76 567.793 208.551C568.025 208.9 568.491 209.016 568.723 209.482C566.746 209.947 564.885 209.831 564.768 212.506C564.536 217.042 564.768 217.973 568.025 219.252C571.98 220.88 576.051 222.044 580.355 221.811C581.285 221.578 581.983 221.113 582.099 222.276Z" fill="#F56695"/>
<path d="M434.845 112.243C431.006 112.708 427.168 112.359 423.446 112.359C419.724 112.359 415.304 111.894 411.931 109.102C410.303 107.706 407.976 107.706 405.999 107.125C401.695 105.845 399.136 103.286 397.043 99.6807C396.577 98.7502 396.229 97.2381 394.716 97.3544C392.972 97.3544 392.855 98.9828 392.274 100.03C390.645 103.286 389.133 106.776 387.505 110.033C386.807 111.312 386.226 112.708 384.016 112.243C382.038 111.777 380.526 111.079 380.293 109.102C380.177 107.59 379.479 106.892 378.549 105.962C377.502 105.031 377.502 103.752 378.316 102.356C380.41 98.8665 378.665 94.4466 374.71 93.3998C372.617 92.8182 372.5 91.8877 372.617 89.794C372.849 86.7699 375.059 84.3273 374.71 81.0705C374.478 78.9768 376.106 78.5116 377.851 79.0931C381.224 80.14 384.248 81.5357 387.272 83.2804C389.133 84.3273 390.994 86.072 393.67 84.5599C393.321 83.6294 393.088 82.5826 392.506 82.001C387.621 77.4647 388.901 71.5327 388.552 65.8333C388.319 61.646 389.599 57.8077 390.645 54.2019C391.809 49.8983 392.972 45.0131 396.461 41.5237C397.275 40.7095 397.392 40.1279 397.275 39.0811C397.159 37.3364 397.275 35.5917 397.159 33.6143C399.02 35.0101 399.02 35.0101 400.067 36.8711C401.23 35.2427 400.299 33.6143 400.765 32.1022C400.997 31.1717 399.951 29.6597 401.346 29.3107C402.742 28.9618 402.509 30.8228 403.44 31.4044C405.068 30.7065 404.603 28.9618 405.301 27.7986C405.766 26.9844 405.417 25.2397 406.697 25.2397C408.209 25.2397 406.929 27.1007 407.976 27.9149C408.907 26.5192 409.837 25.1234 410.768 23.6113C411.466 24.7745 409.954 26.0539 411 26.8681C412.28 27.7986 412.28 25.2397 413.792 26.0539C413.327 26.9844 412.861 28.1476 412.28 29.1944C407.976 37.2201 409.954 45.5947 411.233 53.7367C412.396 61.2971 411.349 68.9738 412.745 76.5342C413.21 78.7442 413.908 79.5584 416.002 79.4421C417.979 79.4421 420.073 79.3258 422.05 78.9768C427.052 77.8137 427.982 78.7442 428.331 83.862C428.331 84.4436 428.796 84.9088 428.796 85.723C426.005 84.6762 423.679 83.0478 421.469 86.1883C417.398 91.5387 416.932 92.9345 419.84 97.2381C423.33 102.472 427.517 107.241 433.1 110.498C434.38 110.614 435.543 110.614 434.845 112.243Z" fill="#DE8DBA"/>
<path d="M436.59 212.39C434.38 213.553 431.937 214.251 429.611 215.181C427.401 216.112 424.493 216.809 421.818 215.995C420.538 215.53 419.026 216.112 417.747 216.228C414.839 216.461 412.629 215.53 410.419 213.785C409.838 213.32 409.372 212.506 408.442 212.855C407.395 213.32 407.628 214.251 407.628 215.065C407.395 217.507 407.279 219.95 407.162 222.393C407.046 223.323 406.93 224.37 405.534 224.602C404.254 224.835 403.091 224.719 402.51 223.556C402.044 222.625 401.463 222.393 400.649 222.044C399.835 221.695 399.486 220.88 399.602 219.95C400.067 217.275 397.973 215.065 395.298 215.297C393.902 215.414 393.554 214.948 393.205 213.553C392.623 211.575 393.321 209.598 392.39 207.737C391.809 206.457 392.623 205.876 393.902 205.76C396.229 205.527 398.439 205.76 400.649 205.992C402.044 206.225 403.673 206.806 404.836 205.294C404.371 204.829 404.022 204.248 403.44 204.015C399.369 202.387 398.671 198.432 397.159 195.059C395.996 192.5 395.88 189.941 395.647 187.382C395.298 184.474 394.833 181.217 396.112 178.193C396.345 177.495 396.345 177.146 396.112 176.448C395.647 175.402 395.298 174.355 394.717 173.075C396.229 173.541 396.229 173.541 397.276 174.355C397.625 173.075 396.694 172.261 396.578 171.214C396.461 170.516 395.531 169.935 396.345 169.353C397.043 168.772 397.392 170.051 398.206 170.051C399.02 169.237 398.322 168.306 398.439 167.376C398.555 166.678 397.973 165.748 398.671 165.515C399.602 165.166 399.253 166.562 400.067 166.794C400.3 165.748 400.532 164.701 400.765 163.538C401.463 164.119 400.881 165.282 401.696 165.515C402.742 165.748 402.044 164.235 403.208 164.352C403.208 165.05 403.091 165.864 402.975 166.678C402.277 172.61 405.418 177.263 408.209 182.032C410.768 186.451 411.931 191.337 414.606 195.64C415.421 196.92 416.002 197.152 417.282 196.687C418.561 196.222 419.724 195.64 420.887 194.942C423.679 193.081 424.493 193.314 425.889 196.454C426.005 196.803 426.47 197.036 426.587 197.501C424.609 197.501 422.865 197.152 422.167 199.479C421.004 203.782 421.004 204.713 423.795 206.69C427.168 209.016 430.89 210.994 435.078 211.692C435.892 211.459 436.706 211.226 436.59 212.39Z" fill="#F64C72"/>
<path d="M521.731 166.097C519.288 167.376 516.497 168.19 513.938 169.237C511.495 170.284 508.239 171.098 505.214 170.051C503.702 169.586 502.19 170.168 500.678 170.284C497.421 170.633 494.979 169.47 492.536 167.609C491.955 167.143 491.373 166.213 490.326 166.562C489.163 167.027 489.512 168.19 489.396 169.121C489.163 171.796 489.047 174.587 488.814 177.263C488.698 178.309 488.582 179.473 486.953 179.705C485.441 179.938 484.278 179.822 483.58 178.542C483.115 177.612 482.417 177.146 481.486 176.797C480.556 176.448 480.207 175.518 480.323 174.355C480.905 171.447 478.462 168.888 475.438 169.121C473.926 169.237 473.577 168.772 473.112 167.26C472.414 165.05 473.344 162.84 472.298 160.746C471.6 159.35 472.647 158.652 473.926 158.536C476.485 158.303 478.928 158.42 481.486 158.885C482.999 159.118 484.743 159.816 486.255 158.071C485.79 157.606 485.325 156.908 484.743 156.675C480.207 154.814 479.509 150.51 477.764 146.672C476.485 143.881 476.369 140.973 476.136 138.181C475.787 134.924 475.322 131.319 476.718 127.945C477.066 127.248 476.95 126.782 476.601 126.084C476.02 124.921 475.671 123.758 475.089 122.362C476.718 122.828 476.718 122.828 477.881 123.875C478.23 122.479 477.183 121.548 477.066 120.385C476.95 119.687 475.903 118.989 476.718 118.291C477.532 117.71 477.997 118.989 478.695 119.106C479.625 118.175 478.811 117.128 478.928 116.081C479.044 115.384 478.346 114.337 479.276 113.988C480.323 113.639 479.974 115.267 480.789 115.5C481.021 114.337 481.254 113.174 481.603 111.778C482.417 112.476 481.719 113.639 482.65 113.988C483.813 114.337 483.115 112.476 484.394 112.592C484.278 113.406 484.278 114.22 484.162 115.151C483.347 121.781 486.953 127.015 489.977 132.249C492.769 137.134 494.048 142.717 497.073 147.486C498.003 148.882 498.585 149.231 500.097 148.649C501.492 148.068 502.888 147.486 504.051 146.672C507.192 144.578 508.122 144.927 509.634 148.3C509.751 148.649 510.216 148.882 510.449 149.464C508.239 149.464 506.261 148.998 505.563 151.674C504.284 156.442 504.284 157.489 507.424 159.699C511.263 162.374 515.334 164.584 519.986 165.282C521.033 165.166 521.847 164.817 521.731 166.097Z" fill="#DE8DBA"/>
<path d="M552.555 112.824C551.043 113.639 549.531 114.104 548.019 114.685C546.507 115.267 544.646 115.732 542.901 115.151C541.971 114.918 541.04 115.267 540.226 115.267C538.365 115.383 536.853 114.802 535.457 113.639C535.108 113.406 534.759 112.824 534.178 113.057C533.48 113.29 533.712 113.988 533.596 114.569C533.48 116.197 533.363 117.71 533.247 119.338C533.131 120.036 533.131 120.617 532.2 120.734C531.386 120.85 530.572 120.85 530.223 120.036C529.99 119.454 529.525 119.222 529.06 118.989C528.478 118.756 528.245 118.291 528.362 117.593C528.711 115.849 527.315 114.336 525.57 114.569C524.64 114.685 524.407 114.336 524.174 113.406C523.826 112.126 524.291 110.847 523.709 109.568C523.244 108.753 523.942 108.288 524.64 108.288C526.152 108.172 527.664 108.288 529.06 108.521C529.99 108.637 531.037 109.102 531.851 108.055C531.502 107.823 531.27 107.358 530.921 107.241C528.246 106.194 527.78 103.636 526.733 101.309C525.919 99.6809 525.919 97.9362 525.687 96.3078C525.454 94.3304 525.221 92.2368 526.036 90.2594C526.268 89.7942 526.152 89.5615 526.036 89.0963C525.687 88.3984 525.454 87.7005 525.105 86.8863C526.036 87.2353 526.036 87.2353 526.733 87.7005C526.966 86.8863 526.268 86.3048 526.268 85.7232C526.268 85.2579 525.57 84.909 526.036 84.56C526.501 84.2111 526.733 85.0253 527.199 85.0253C527.78 84.4437 527.315 83.8622 527.315 83.2806C527.431 82.8153 526.966 82.2338 527.548 82.0011C528.129 81.7685 527.897 82.699 528.478 82.9316C528.594 82.2338 528.827 81.5359 528.943 80.7217C529.409 81.0706 528.943 81.8848 529.525 82.0011C530.223 82.2338 529.758 81.0706 530.572 81.1869C530.572 81.6522 530.572 82.1174 530.455 82.699C529.99 86.6537 532.084 89.6779 533.829 92.702C535.457 95.6099 536.271 98.8667 538.016 101.658C538.597 102.472 538.946 102.705 539.761 102.356C540.575 102.007 541.389 101.658 542.087 101.193C543.948 99.9135 544.413 100.146 545.46 102.24C545.576 102.472 545.809 102.589 545.925 102.938C544.646 102.938 543.483 102.705 543.017 104.217C542.203 107.009 542.203 107.59 544.064 108.87C546.274 110.382 548.717 111.778 551.508 112.126C552.206 112.243 552.671 112.01 552.555 112.824Z" fill="#F56695"/>
<path d="M593.614 51.9926C592.335 52.6905 591.055 53.0394 589.776 53.5047C588.496 53.9699 586.984 54.4352 585.472 53.9699C584.774 53.7373 583.96 53.9699 583.262 54.0862C581.634 54.2025 580.471 53.7373 579.191 52.6905C578.842 52.4578 578.61 51.9926 578.028 52.2252C577.446 52.4578 577.563 53.0394 577.563 53.5047C577.446 54.7841 577.446 56.1799 577.33 57.5756C577.33 58.1572 577.214 58.6225 576.4 58.7388C575.702 58.8551 575.004 58.8551 574.771 58.1572C574.539 57.692 574.19 57.4593 573.724 57.343C573.259 57.1104 573.026 56.7615 573.143 56.1799C573.375 54.6678 572.212 53.5047 570.7 53.621C569.886 53.7373 569.77 53.3883 569.537 52.6905C569.188 51.6436 569.653 50.4805 569.072 49.4337C568.723 48.7358 569.188 48.3868 569.886 48.3868C571.165 48.2705 572.445 48.3868 573.608 48.5032C574.422 48.6195 575.236 48.9684 575.934 48.1542C575.702 47.9216 575.469 47.5726 575.236 47.4563C573.026 46.5258 572.678 44.4322 571.747 42.4548C571.049 41.0591 571.049 39.6633 570.933 38.2675C570.7 36.6391 570.468 34.8944 571.165 33.266C571.282 32.9171 571.282 32.6844 571.165 32.3355C570.933 31.7539 570.7 31.1724 570.468 30.4745C571.282 30.7071 571.282 30.7071 571.863 31.1724C572.096 30.4745 571.514 30.0092 571.514 29.4276C571.514 29.0787 570.933 28.7298 571.398 28.3808C571.863 28.0319 571.98 28.7298 572.445 28.8461C572.91 28.3808 572.561 27.9156 572.561 27.334C572.561 26.9851 572.329 26.4035 572.678 26.2872C573.143 26.0545 573.026 26.8687 573.492 26.9851C573.608 26.4035 573.724 25.8219 573.841 25.124C574.19 25.473 573.841 26.0545 574.306 26.1709C574.887 26.2872 574.539 25.473 575.12 25.473C575.12 25.8219 575.12 26.2872 575.004 26.7524C574.539 30.0092 576.4 32.5681 577.912 35.2434C579.307 37.6859 579.889 40.3612 581.401 42.8038C581.866 43.5017 582.215 43.618 582.913 43.3853C583.611 43.1527 584.309 42.8038 584.891 42.4548C586.403 41.408 586.868 41.5243 587.682 43.269C587.798 43.5017 588.031 43.618 588.147 43.8506C587.1 43.8506 586.054 43.618 585.705 45.0137C585.007 47.34 585.123 47.9216 586.635 48.9684C588.496 50.2479 590.59 51.411 592.916 51.7599C593.265 51.5273 593.73 51.411 593.614 51.9926Z" fill="#F56695"/>
</svg>
