<svg width="735" height="735" viewBox="0 0 735 735" fill="none" xmlns="http://www.w3.org/2000/svg">
<g clip-path="url(#clip0_879_3305)">
<mask id="mask0_879_3305" style="mask-type:luminance" maskUnits="userSpaceOnUse" x="0" y="0" width="735" height="735">
<path d="M725 0H10C4.47715 0 0 4.47715 0 10V725C0 730.523 4.47715 735 10 735H725C730.523 735 735 730.523 735 725V10C735 4.47715 730.523 0 725 0Z" fill="white"/>
</mask>
<g mask="url(#mask0_879_3305)">
<path d="M327.493 351.745C347.611 351.745 363.92 335.436 363.92 315.318C363.92 295.2 347.611 278.891 327.493 278.891C307.375 278.891 291.066 295.2 291.066 315.318C291.066 335.436 307.375 351.745 327.493 351.745Z" fill="white"/>
<path d="M-0.0351562 319.507V435.787H735.037V368.998C735.037 368.998 707.331 340.969 698.251 345.096C689.171 349.223 683.393 354.176 665.197 358.303C647.002 362.43 594.138 381.38 575.942 367.383C557.747 353.35 444.554 317.067 410.675 316.242C376.796 315.416 367.716 324.496 345.393 334.401C323.071 344.307 290.017 347.608 277.635 343.481C265.254 339.354 261.952 335.227 253.662 331.1C245.407 326.972 242.106 322.845 231.339 326.147C220.608 329.449 212.318 336.052 199.111 340.179C185.904 344.307 194.984 346.783 178.439 344.307C161.895 341.83 154.466 329.449 154.466 329.449C154.466 329.449 100.776 289.002 94.1726 286.526C87.5691 284.049 90.8709 291.478 74.3262 298.907C57.7815 306.336 59.4683 307.987 49.5271 310.464C39.5859 312.94 42.9236 315.416 32.9824 310.464C23.0413 305.511 17.335 293.955 -0.0351562 319.507Z" fill="#81B2DA"/>
<path d="M21.75 419.026C21.75 419.026 109.713 351.412 120.695 351.95C131.677 352.489 151.488 366.234 164.12 375.027C176.753 383.82 180.055 389.885 188.848 387.121C197.64 384.358 222.368 351.95 236.113 340.933C249.858 329.951 277.349 308.489 277.349 308.489C277.349 308.489 338.36 362.932 352.679 365.122C366.999 367.311 383.472 367.311 393.377 370.074C403.282 372.838 413.152 379.98 418.105 382.707C423.057 385.435 430.199 412.387 413.152 426.132C396.105 439.878 371.377 478.35 290.018 483.877C208.658 489.404 144.31 482.765 144.31 482.765C144.31 482.765 105.837 480.575 78.8848 462.99C51.9324 445.405 21.75 419.026 21.75 419.026Z" fill="#689DC7"/>
<path d="M134.438 443.692C140.215 442.041 286.175 389.248 293.604 387.598C301.033 385.947 327.411 398.328 334.014 399.979C340.618 401.63 345.57 401.63 352.999 402.455C360.427 403.281 480.01 317.507 504.737 310.078C529.464 302.649 527.812 301.824 548.448 312.554C569.048 323.285 601.241 348.012 605.369 348.012C609.496 348.012 624.353 332.329 636.698 334.805C649.08 337.282 734.424 432.315 734.424 432.315L421.438 552.542C421.438 552.542 277.13 532.767 256.494 522.037C235.894 511.306 134.438 443.692 134.438 443.692Z" fill="#4F8F8E"/>
<path d="M477.212 589.646H479.034L478.055 588.109L477.212 588.646C478.055 588.109 478.055 588.109 478.054 588.108L478.052 588.105L478.046 588.095L478.022 588.057C478.001 588.025 477.97 587.977 477.929 587.914C477.846 587.789 477.724 587.605 477.56 587.363C477.233 586.88 476.741 586.168 476.076 585.246C474.747 583.403 472.729 580.721 469.963 577.349C464.431 570.605 455.906 561.102 443.917 550.035C419.937 527.901 382.103 499.514 326.64 474.435C314.594 468.969 301.687 463.684 287.956 458.652C276.488 454.446 264.41 450.42 251.721 446.645C240.075 443.159 227.891 439.888 215.171 436.834C201.549 433.563 187.246 430.58 172.334 427.921H172.333C162.236 426.125 151.815 424.472 141.107 422.998C131.623 421.705 121.886 420.519 111.898 419.477C102.446 418.471 92.7806 417.645 82.9036 416.927L82.9025 416.926C70.8669 416.064 58.5089 415.418 45.7927 414.986C36.6664 414.663 27.362 414.484 17.8801 414.412H17.8787C11.9888 414.376 6.02726 414.376 -0.0059523 414.412L-1 414.418V415.412V588.646V589.646H0H477.212Z" fill="#709917"/>
<path d="M68.8689 512.562H39.189C50.3503 466.409 29.7502 431.095 17.8711 415.447C27.3457 415.519 36.6409 415.698 45.7566 416.021C76.585 460.918 68.8689 512.562 68.8689 512.562Z" fill="#85B718"/>
<path d="M131.96 512.562H102.28C112.867 468.777 94.8508 434.719 82.8281 417.959C92.6975 418.677 102.352 419.502 111.79 420.507C139.173 464.291 131.96 512.562 131.96 512.562Z" fill="#85B718"/>
<path d="M194.657 524.513H164.978C177.036 474.699 152.022 437.447 141.004 424.024C151.699 425.496 162.106 427.147 172.191 428.941C202.23 473.623 194.657 524.513 194.657 524.513Z" fill="#85B718"/>
<path d="M271.641 550.496H238.659C251.041 496.95 228.144 455.966 214.973 437.842C227.677 440.892 239.844 444.158 251.471 447.639C279.213 497.345 271.641 550.496 271.641 550.496Z" fill="#85B718"/>
<path d="M340.904 567.399H307.922C319.299 518.232 300.924 479.616 287.609 459.59C301.319 464.614 314.203 469.89 326.226 475.345C347.436 521.677 340.904 567.399 340.904 567.399Z" fill="#85B718"/>
<g style="mix-blend-mode:luminosity">
<path d="M64.8473 240.471C64.298 241.317 64.2104 242.382 64.6143 243.306C65.0181 244.231 65.8592 244.89 66.8531 245.062L67.3633 242.105C66.8531 245.062 66.8547 245.062 66.8574 245.062L66.8686 245.064L66.9115 245.072L67.0788 245.1C67.2265 245.125 67.446 245.162 67.736 245.211C68.316 245.308 69.1779 245.451 70.3102 245.635C72.5749 246.002 75.9212 246.532 80.2575 247.186C88.9299 248.494 101.563 250.298 117.422 252.282C149.138 256.249 193.767 260.939 245.432 263.83C348.705 269.61 480.329 268.219 593.158 239.377C594.445 239.048 595.362 237.912 595.412 236.585C595.463 235.257 594.634 234.055 593.376 233.629L592.415 236.471C593.376 233.629 593.375 233.628 593.375 233.628H593.372L593.365 233.625L593.34 233.617L593.249 233.586C593.17 233.56 593.054 233.522 592.905 233.473C592.606 233.376 592.169 233.236 591.61 233.061C590.492 232.712 588.883 232.226 586.899 231.671C582.936 230.563 577.457 229.174 571.411 228.061C565.377 226.95 558.703 226.099 552.369 226.097C546.086 226.096 539.848 226.926 534.873 229.408L534.869 229.41C534.031 229.83 532.738 229.893 530.425 228.469C528.111 227.044 525.402 224.482 522.306 220.946C518.138 216.186 513.656 210.13 508.84 203.623C506.482 200.437 504.045 197.144 501.525 193.841C493.996 183.973 485.783 174.106 477.301 167.956C468.763 161.765 459.195 158.862 449.742 164.606C432.816 174.891 424.426 193.945 420.223 209.87C418.103 217.898 417.005 225.295 416.436 230.682C416.332 231.665 416.246 232.583 416.174 233.426C414.205 231.954 411.72 230.319 408.994 229.059C405.694 227.535 401.701 226.402 397.72 227.152C394.795 227.702 392.158 229.213 389.973 231.804C389.328 230.953 388.578 229.982 387.735 228.926C384.759 225.194 380.599 220.347 375.924 215.994C371.302 211.691 365.933 207.636 360.525 205.792C357.783 204.858 354.896 204.444 352.036 204.974C350.622 205.236 349.266 205.72 347.984 206.433C347.912 206.233 347.838 206.027 347.761 205.816C346.843 203.303 345.524 200.016 343.826 196.303C340.437 188.895 335.489 179.681 329.134 171.518C322.811 163.395 314.881 156.035 305.45 152.769C295.815 149.431 285.028 150.513 273.553 158.498C251.521 173.829 241.892 189.801 237.854 202.167C235.842 208.327 235.237 213.535 235.143 217.243C235.138 217.412 235.135 217.577 235.133 217.739C232.24 216.5 228.2 215.125 223.852 214.778C219.484 214.429 214.595 215.107 210.326 218.237C207.024 220.659 204.351 224.357 202.539 229.589C202.406 229.474 202.27 229.358 202.132 229.241C199.54 227.051 195.814 224.339 191.392 222.426C186.966 220.511 181.682 219.33 176.102 220.455C171.161 221.45 166.283 224.194 161.756 229.279C161.197 228.901 160.551 228.484 159.822 228.048C157.114 226.427 153.222 224.508 148.522 223.363C139.238 221.104 127.049 221.956 115.046 233.312C114.947 233.297 114.844 233.282 114.737 233.266C113.585 233.098 111.937 232.874 109.937 232.645C105.943 232.187 100.511 231.705 94.7987 231.623C89.1138 231.541 83.0133 231.85 77.7374 233.034C72.5921 234.189 67.5379 236.328 64.8473 240.471Z" fill="#BE5599"/>
<path d="M64.8473 240.471C64.298 241.317 64.2104 242.382 64.6143 243.306C65.0181 244.231 65.8592 244.89 66.8531 245.062L67.3633 242.105C66.8531 245.062 66.8547 245.062 66.8574 245.062L66.8686 245.064L66.9115 245.072L67.0788 245.1C67.2265 245.125 67.446 245.162 67.736 245.211C68.316 245.308 69.1779 245.451 70.3102 245.635C72.5749 246.002 75.9212 246.532 80.2575 247.186C88.9299 248.494 101.563 250.298 117.422 252.282C149.138 256.249 193.767 260.939 245.432 263.83C348.705 269.61 480.329 268.219 593.158 239.377C594.445 239.048 595.362 237.912 595.412 236.585C595.463 235.257 594.634 234.055 593.376 233.629L592.415 236.471C593.376 233.629 593.375 233.628 593.375 233.628H593.372L593.365 233.625L593.34 233.617L593.249 233.586C593.17 233.56 593.054 233.522 592.905 233.473C592.606 233.376 592.169 233.236 591.61 233.061C590.492 232.712 588.883 232.226 586.899 231.671C582.936 230.563 577.457 229.174 571.411 228.061C565.377 226.95 558.703 226.099 552.369 226.097C546.086 226.096 539.848 226.926 534.873 229.408L534.869 229.41C534.031 229.83 532.738 229.893 530.425 228.469C528.111 227.044 525.402 224.482 522.306 220.946C518.138 216.186 513.656 210.13 508.84 203.623C506.482 200.437 504.045 197.144 501.525 193.841C493.996 183.973 485.783 174.106 477.301 167.956C468.763 161.765 459.195 158.862 449.742 164.606C432.816 174.891 424.426 193.945 420.223 209.87C418.103 217.898 417.005 225.295 416.436 230.682C416.332 231.665 416.246 232.583 416.174 233.426C414.205 231.954 411.72 230.319 408.994 229.059C405.694 227.535 401.701 226.402 397.72 227.152C394.795 227.702 392.158 229.213 389.973 231.804C389.328 230.953 388.578 229.982 387.735 228.926C384.759 225.194 380.599 220.347 375.924 215.994C371.302 211.691 365.933 207.636 360.525 205.792C357.783 204.858 354.896 204.444 352.036 204.974C350.622 205.236 349.266 205.72 347.984 206.433C347.912 206.233 347.838 206.027 347.761 205.816C346.843 203.303 345.524 200.016 343.826 196.303C340.437 188.895 335.489 179.681 329.134 171.518C322.811 163.395 314.881 156.035 305.45 152.769C295.815 149.431 285.028 150.513 273.553 158.498C251.521 173.829 241.892 189.801 237.854 202.167C235.842 208.327 235.237 213.535 235.143 217.243C235.138 217.412 235.135 217.577 235.133 217.739C232.24 216.5 228.2 215.125 223.852 214.778C219.484 214.429 214.595 215.107 210.326 218.237C207.024 220.659 204.351 224.357 202.539 229.589C202.406 229.474 202.27 229.358 202.132 229.241C199.54 227.051 195.814 224.339 191.392 222.426C186.966 220.511 181.682 219.33 176.102 220.455C171.161 221.45 166.283 224.194 161.756 229.279C161.197 228.901 160.551 228.484 159.822 228.048C157.114 226.427 153.222 224.508 148.522 223.363C139.238 221.104 127.049 221.956 115.046 233.312C114.947 233.297 114.844 233.282 114.737 233.266C113.585 233.098 111.937 232.874 109.937 232.645C105.943 232.187 100.511 231.705 94.7987 231.623C89.1138 231.541 83.0133 231.85 77.7374 233.034C72.5921 234.189 67.5379 236.328 64.8473 240.471Z" stroke="#DE8DBA" stroke-width="6" stroke-linejoin="round"/>
</g>
<path d="M63.451 75.0431C63.451 75.0431 231.625 117.607 240.849 115.849C250.072 114.054 227.103 108.491 217.449 104.221C207.795 99.9498 203.273 93.8129 194.05 92.5927C184.791 91.3725 186.19 93.2746 180.161 92.485C174.132 91.6955 172.804 92.3773 172.804 89.3986C172.804 86.4198 172.265 84.1947 168.066 84.9484C163.868 85.6662 161.068 75.9044 151.845 77.6989C142.621 79.4933 140.037 80.4264 138.099 79.7445C136.161 79.0626 134.654 71.5978 124.569 70.7006C114.485 69.8034 109.532 70.0187 108.384 69.4445C107.235 68.8703 84.8048 27.9213 72.8179 41.2719C60.8311 54.6225 61.4412 55.9862 61.4412 55.9862C61.4412 55.9862 52.5767 39.4416 48.629 50.89C44.6812 62.3385 34.3453 63.1281 63.451 75.0431Z" fill="#CDF3FE"/>
<path d="M45.8281 84.6973C45.8281 84.6973 155.289 110.609 207.686 116.172C205.21 116.279 146.352 109.819 141.148 109.137C135.909 108.456 227.784 125.216 257.069 129.486C255.813 129.738 97.8308 115.418 79.061 108.707C79.061 108.707 120.512 113.731 112.258 111.363C104.004 108.994 39.5117 95.428 39.5117 95.428C39.5117 95.428 75.8311 95.9304 74.2161 95.7151C72.6011 95.4998 45.8281 84.6973 45.8281 84.6973Z" fill="#E8F6F9"/>
<path d="M64.4922 155.506C64.4922 155.506 233.743 160.064 242.069 158.018C242.069 158.018 199.685 162.576 180.771 161.786C180.771 161.786 202.699 163.294 197.173 162.791C191.646 162.289 144.201 169.861 97.7969 162.791C99.8066 161.033 142.442 162.038 141.438 162.038C140.433 162.038 68.7629 158.521 64.4922 155.506Z" fill="#CDF3FE"/>
<path d="M673.445 86.994C673.445 86.994 431.053 148.364 417.738 145.78C404.424 143.232 437.549 135.193 451.474 129.056C465.398 122.919 471.894 114.054 485.209 112.331C498.524 110.573 496.55 113.3 505.235 112.152C513.92 111.004 515.822 112.008 515.858 107.666C515.894 103.359 516.647 100.165 522.677 101.242C528.706 102.283 532.761 88.2142 546.04 90.7982C559.355 93.3463 563.051 94.7101 565.887 93.7411C568.686 92.7721 570.839 82.0055 585.374 80.7135C599.945 79.4215 607.051 79.7086 608.702 78.8832C610.353 78.0577 642.688 19.0209 659.951 38.2931C677.213 57.5653 676.28 59.5392 676.28 59.5392C676.28 59.5392 689.057 35.7091 694.763 52.182C700.469 68.6549 715.399 69.8033 673.445 86.994Z" fill="#CDF3FE"/>
<path d="M698.855 100.883C698.855 100.883 541.124 138.207 465.542 146.282C469.095 146.426 553.9 137.166 561.437 136.161C568.973 135.156 436.544 159.345 394.375 165.482C396.205 165.877 623.883 145.205 650.907 135.515C650.907 135.515 591.153 142.729 603.104 139.32C615.019 135.91 707.934 116.315 707.934 116.315C707.934 116.315 655.573 117.033 657.906 116.71C660.202 116.423 698.855 100.883 698.855 100.883Z" fill="#E8F6F9"/>
<path d="M671.938 202.914C671.938 202.914 428.002 209.446 416.016 206.539C416.016 206.539 477.098 213.071 504.338 211.994C504.338 211.994 472.72 214.183 480.723 213.465C488.726 212.748 557.058 223.658 623.955 213.465C621.048 210.917 559.606 212.389 561.078 212.389C562.549 212.389 665.765 207.292 671.938 202.914Z" fill="#CDF3FE"/>
<path d="M207.078 560.473L192.22 479.687L167.241 541.308L169.359 492.93L156.977 532.875L146.031 467.342C146.031 467.342 130.814 534.992 130.707 533.233C130.599 531.511 119.186 486.901 118.756 488.516C118.325 490.095 115.992 520.206 115.992 520.206L94.7461 446.275L76.3711 510.803C76.3711 510.803 66.8247 482.63 65.8557 484.102C64.8867 485.537 53.7253 516.725 52.5769 514.679C51.3926 512.669 47.7319 432.602 45.3992 437.088C43.0664 441.574 21.7126 517.263 22.0356 513.925C22.3586 510.588 11.3049 434.037 11.3049 434.037L0 476.493L0.287109 513.459L207.078 560.473Z" fill="#557B14"/>
<path d="M226.493 543.175C226.78 542.098 210.881 492.93 210.881 492.93L188.092 533.52L180.017 492.392L165.088 520.565L158.484 490.921L143.483 515.074L133.254 475.632L121.447 506.066L110.214 470.356L91.3004 498.601L78.9906 466.875L66.0348 498.421L55.6989 465.799L38.5441 491.674L28.7824 452.556L10.192 480.585C10.192 480.585 1.25576 506.64 2.11709 506.604C2.97841 506.532 226.493 543.175 226.493 543.175Z" fill="#587A19"/>
<path d="M358.135 581.756L347.44 523.652L329.459 567.974L330.967 533.162L322.066 561.909L314.171 514.787C314.171 514.787 303.225 563.452 303.153 562.196C303.081 560.94 294.863 528.892 294.54 530.004C294.217 531.153 292.53 552.793 292.53 552.793L277.277 499.606L264.142 546.046C264.142 546.046 257.287 525.805 256.57 526.846C255.888 527.887 247.849 550.317 247.023 548.846C246.198 547.374 243.542 489.809 241.855 493.039C240.168 496.269 224.808 550.712 225.059 548.307C225.275 545.903 217.343 490.85 217.343 490.85L202.629 546.011L358.135 581.756Z" fill="#557B14"/>
<path d="M372.131 569.338C372.346 568.584 360.898 533.198 360.898 533.198L344.496 562.376L338.682 532.803L327.952 553.081L323.214 531.763L312.448 549.133L305.091 520.781L296.585 542.673L288.51 516.977L274.908 537.29L266.08 514.464L256.749 537.146L249.32 513.675L236.974 532.265L229.94 504.2L216.589 524.37C216.589 524.37 210.165 543.103 210.775 543.068C211.349 542.996 372.131 569.338 372.131 569.338Z" fill="#587A19"/>
<path d="M735.445 431.745L736.436 431.758L736.432 432.749L736.289 471.904L736.145 516.764L735.894 590.731L735.607 676.828L735.603 677.904L734.53 677.821L149.581 632.925L146.449 632.684L149.143 631.07L149.657 631.927C149.143 631.07 149.144 631.069 149.144 631.069L149.147 631.067L149.158 631.061L149.2 631.035L149.37 630.934C149.52 630.844 149.744 630.71 150.041 630.534C150.633 630.181 151.513 629.658 152.665 628.977C154.968 627.613 158.36 625.616 162.711 623.077C171.415 617.999 183.96 610.757 199.33 602.099C230.068 584.782 272.109 561.796 317.311 539.123C326.971 534.275 336.773 529.464 346.645 524.689C355.408 520.451 364.242 516.286 373.074 512.193L373.468 513.043L373.075 512.193C385.787 506.303 398.501 500.629 411.037 495.277V495.276C427.738 488.165 444.157 481.59 459.827 475.948C474.165 470.773 487.9 466.314 500.779 462.789C505.997 461.349 511.037 460.089 515.935 459.009C521.427 457.788 526.815 456.603 532.169 455.489L532.374 456.468C556.204 451.479 578.635 447.531 599.306 444.409L735.445 431.745ZM735.445 431.745L735.432 432.745ZM735.445 431.745L735.432 432.745ZM735.432 432.745C735.445 431.745 735.446 431.745 735.445 431.745H735.443H735.44H735.425H735.368C735.319 431.744 735.244 431.743 735.146 431.743C734.948 431.741 734.654 431.74 734.266 431.739C733.489 431.737 732.333 431.739 730.814 431.753C727.777 431.781 723.288 431.858 717.477 432.051C705.855 432.437 688.942 433.291 667.766 435.159L667.854 436.155L735.432 432.745Z" fill="#DED748"/>
<path d="M735.445 431.745L736.436 431.758L736.432 432.749L736.289 471.904L736.145 516.764L735.894 590.731L735.607 676.828L735.603 677.904L734.53 677.821L149.581 632.925L146.449 632.684L149.143 631.07L149.657 631.927C149.143 631.07 149.144 631.069 149.144 631.069L149.147 631.067L149.158 631.061L149.2 631.035L149.37 630.934C149.52 630.844 149.744 630.71 150.041 630.534C150.633 630.181 151.513 629.658 152.665 628.977C154.968 627.613 158.36 625.616 162.711 623.077C171.415 617.999 183.96 610.757 199.33 602.099C230.068 584.782 272.109 561.796 317.311 539.123C326.971 534.275 336.773 529.464 346.645 524.689C355.408 520.451 364.242 516.286 373.074 512.193L373.468 513.043L373.075 512.193C385.787 506.303 398.501 500.629 411.037 495.277V495.276C427.738 488.165 444.157 481.59 459.827 475.948C474.165 470.773 487.9 466.314 500.779 462.789C505.997 461.349 511.037 460.089 515.935 459.009C521.427 457.788 526.815 456.603 532.169 455.489L532.374 456.468C556.204 451.479 578.635 447.531 599.306 444.409L735.445 431.745ZM735.445 431.745L735.432 432.745M735.445 431.745C735.446 431.745 735.445 431.745 735.432 432.745M735.445 431.745H735.443H735.44H735.425H735.368C735.319 431.744 735.244 431.743 735.146 431.743C734.948 431.741 734.654 431.74 734.266 431.739C733.489 431.737 732.333 431.739 730.814 431.753C727.777 431.781 723.288 431.858 717.477 432.051C705.855 432.437 688.942 433.291 667.766 435.159L667.854 436.155L735.432 432.745" stroke="#881F63" stroke-width="2"/>
<path d="M465.834 599.268L424.204 606.697C409.633 568.117 354.292 548.773 317.758 540.016C327.412 535.171 337.209 530.362 347.079 525.589C423.809 543.067 465.834 599.268 465.834 599.268Z" fill="#B0C42F"/>
<path d="M558.894 586.349L508.363 595.357C489.916 546.477 417.457 523.041 373.457 513.136C386.162 507.25 398.866 501.58 411.391 496.232C506.676 516.51 558.894 586.349 558.894 586.349Z" fill="#B0C42F"/>
<path d="M667.853 591.337L611.184 593.419C596.901 529.968 502.729 491.352 460.129 476.924C474.448 471.756 488.158 467.306 501.006 463.789C615.599 496.161 667.853 591.337 667.853 591.337Z" fill="#B0C42F"/>
<path d="M735.142 516.761L734.891 590.728C699.397 512.634 570.593 468.168 532.371 456.504C556.201 451.515 578.632 447.568 599.303 444.445C656.331 460.308 701.335 488.337 735.142 516.761Z" fill="#B0C42F"/>
<path d="M735.43 432.745L735.286 471.9C715.153 456.97 691.072 445.234 667.852 436.191C710.164 432.422 735.43 432.745 735.43 432.745Z" fill="#B0C42F"/>
<path d="M296.617 547.338C295.146 548.102 294.574 549.913 295.338 551.383C296.102 552.854 297.913 553.426 299.383 552.662L296.617 547.338ZM351.366 522.265L350.117 519.537C350.071 519.558 350.026 519.58 349.982 519.603L351.366 522.265ZM404.228 498.06L403.144 495.263C403.088 495.284 403.033 495.307 402.979 495.332L404.228 498.06ZM473.2 471.333L472.332 468.462C472.259 468.484 472.187 468.509 472.116 468.536L473.2 471.333ZM499.883 463.265L499.197 460.344C499.136 460.359 499.075 460.375 499.014 460.393L499.883 463.265ZM532.103 455.701L531.634 452.738C531.561 452.749 531.489 452.763 531.418 452.78L532.103 455.701ZM602.083 444.607L601.683 441.634C601.659 441.637 601.636 441.64 601.613 441.644L602.083 444.607ZM669.545 435.53L669.386 432.534C669.305 432.538 669.225 432.546 669.145 432.557L669.545 435.53ZM299.383 552.662L352.749 524.927L349.982 519.603L296.617 547.338L299.383 552.662ZM352.614 524.993L405.477 500.787L402.979 495.332L350.117 519.537L352.614 524.993ZM405.312 500.857L474.284 474.131L472.116 468.536L403.144 495.263L405.312 500.857ZM474.068 474.205L500.751 466.137L499.014 460.393L472.332 468.462L474.068 474.205ZM500.568 466.186L532.789 458.621L531.418 452.78L499.197 460.344L500.568 466.186ZM532.573 458.664L602.552 447.57L601.613 441.644L531.634 452.738L532.573 458.664ZM602.483 447.58L669.945 438.503L669.145 432.557L601.683 441.634L602.483 447.58ZM669.704 438.526L736.159 434.996L735.841 429.004L669.386 432.534L669.704 438.526Z" fill="#881F63"/>
<path d="M387 506L337.5 479L272 453.5L204.5 433.5L136 421.5L77 416L38 413.5H-0.5" stroke="#881F63" stroke-width="5" stroke-linecap="round" stroke-linejoin="round"/>
<path d="M485.861 678.471L487.684 678.472L486.705 676.934L485.862 677.471C486.705 676.934 486.705 676.933 486.704 676.932L486.702 676.928L486.694 676.915L486.663 676.867L486.638 676.83C486.613 676.791 486.581 676.742 486.542 676.682C486.435 676.52 486.275 676.281 486.062 675.968C485.635 675.343 484.991 674.423 484.121 673.237C482.38 670.864 479.73 667.425 476.083 663.142C468.789 654.577 457.507 642.635 441.535 629.097C409.59 602.019 358.887 568.56 283.809 542.947C264.541 536.368 243.658 530.33 221.09 525.011C203.443 520.842 184.72 517.141 164.92 514.05C142.462 510.529 118.605 507.763 93.3131 505.894H93.3116C81.8873 505.068 70.1406 504.421 58.1073 503.954C39.498 503.236 20.1715 503.02 0.0922779 503.344L-0.891624 503.36V504.344V504.451L-0.927513 541.523V576.623L-0.99929 677.147L-1 678.147L0.000132442 678.148L62.1232 678.183L106.518 678.219L485.861 678.471Z" fill="#5E8915" stroke="#DA5C86" stroke-width="2"/>
<path d="M339.651 661.177L297.984 658.414C309.72 607.093 263.639 558.643 220.859 525.984C243.397 531.296 264.249 537.325 283.485 543.893C350.094 607.703 339.651 661.177 339.651 661.177Z" fill="#689222"/>
<path d="M276.988 658.521L232.127 660.639C240.238 588 146.066 532.229 93.2383 506.892C118.504 508.758 142.334 511.521 164.764 515.038C282.982 582.796 276.988 658.521 276.988 658.521Z" fill="#689222"/>
<path d="M189.023 658.521L144.163 660.639C152.561 585.56 51.6775 528.497 0.105469 504.451V504.344C20.1672 504.021 39.4753 504.236 58.0657 504.954C195.627 575.008 189.023 658.521 189.023 658.521Z" fill="#689222"/>
<path d="M106.552 681.634L61.6912 683.751C61.9424 681.562 62.0859 679.373 62.1577 677.183C63.3062 637.634 34.5234 603.324 0.0703125 576.587V541.488C96.0007 598.623 105.727 660.423 106.516 677.183C106.66 680.09 106.552 681.634 106.552 681.634Z" fill="#689222"/>
<path d="M514.246 588.397L549.417 514.179L557.671 580.142L568.115 532.877L569.766 574.651L597.257 514.179C597.257 514.179 594.493 583.444 595.067 581.793C595.606 580.142 618.144 540.019 618.144 541.67C618.144 543.321 612.653 573.001 612.653 573.001L652.238 507.037L653.351 574.113C653.351 574.113 669.859 549.386 670.398 551.037C670.936 552.687 673.699 585.669 675.35 584.018C677.001 582.367 701.19 505.96 702.303 510.913C703.415 515.866 704.492 594.498 705.066 591.196C705.605 587.894 736.038 516.799 736.038 516.799V596.149L514.246 588.397Z" fill="#557B14"/>
<path d="M498.961 575.684C498.961 574.572 526.99 531.146 526.99 531.146L538.546 576.223L556.957 538.575L564.099 569.655L578.131 542.703L586.386 569.906L606.448 534.448L610.036 566.892L630.098 535.274L641.08 567.43L661.142 539.939L665.556 573.746L683.967 544.892L693.872 574.321L713.396 539.15L724.126 571.055C724.126 571.055 726.064 598.545 725.239 598.258C724.378 597.971 498.961 575.684 498.961 575.684Z" fill="#628914"/>
<g style="mix-blend-mode:color">
<path d="M735 0H0V735H735V0Z" fill="#881F63"/>
</g>
<path d="M132.872 598.014L113.994 579.136L131.329 590.37L126.125 559.505L108.719 543.607H124.294L99.7825 504.739L99.4954 504.309L99.2441 504.739L74.7322 543.607H90.3079L72.866 559.505L67.698 590.37L89.9131 581.9L66.1548 598.014L57.6133 620.947H98.0239H101.003H141.413L132.872 598.014Z" fill="#DE8DBA"/>
<path d="M100.032 534.455H99.0273V662.362H100.032V534.455Z" fill="#613861"/>
<path d="M108.263 533.055L99.0898 545.286L99.8938 545.889L109.067 533.658L108.263 533.055Z" fill="#613861"/>
<path d="M85.546 559.391L84.957 560.205L99.3211 570.596L99.91 569.782L85.546 559.391Z" fill="#613861"/>
<path d="M107.913 553.418L99.2031 559.685L99.79 560.5L108.5 554.233L107.913 553.418Z" fill="#613861"/>
<path d="M111.329 588.424L99.1055 606.76L99.9416 607.318L112.165 588.982L111.329 588.424Z" fill="#613861"/>
<path d="M87.5294 590.09L86.9414 590.905L99.0188 599.619L99.6067 598.804L87.5294 590.09Z" fill="#613861"/>
<path d="M181.621 591.277L162.313 572.005L180.042 583.453L174.73 551.907L156.93 535.649H172.864L147.814 495.921L147.527 495.454L147.24 495.921L122.189 535.649H138.124L120.287 551.907L114.976 583.453L137.729 574.804L113.433 591.277L104.676 614.712H145.984H149.034H190.378L181.621 591.277Z" fill="#71084C"/>
<path d="M148.028 526.282H147.023V657.061H148.028V526.282Z" fill="#F08BB9"/>
<path d="M156.465 524.914L147.098 537.403L147.902 538.006L157.269 525.517L156.465 524.914Z" fill="#F08BB9"/>
<path d="M133.237 551.805L132.648 552.619L147.332 563.241L147.921 562.427L133.237 551.805Z" fill="#F08BB9"/>
<path d="M156.117 545.67L147.203 552.083L147.79 552.899L156.704 546.485L156.117 545.67Z" fill="#F08BB9"/>
<path d="M159.631 581.451L147.129 600.205L147.965 600.762L160.467 582.008L159.631 581.451Z" fill="#F08BB9"/>
<path d="M135.268 583.217L134.68 584.032L147.019 592.936L147.607 592.121L135.268 583.217Z" fill="#F08BB9"/>
<path d="M84.0813 585.018L64.522 565.458L82.5022 577.122L77.1189 545.073L59.031 528.601H75.2168L49.7717 488.262L49.4846 487.831L49.1975 488.262L23.7883 528.601H39.9382L21.8862 545.073L16.467 577.122L39.5435 568.329L14.8879 585.018L6.02344 608.812H47.9414H51.0278H92.9817L84.0813 585.018Z" fill="#553D67"/>
<path d="M50.0212 519.09H48.9805V651.77H50.0212V519.09Z" fill="#F28F8F"/>
<path d="M58.5567 517.669L49.0391 530.359L49.8717 530.984L59.3893 518.294L58.5567 517.669Z" fill="#F28F8F"/>
<path d="M35.0123 544.975L34.4023 545.818L49.2898 556.588L49.8997 555.745L35.0123 544.975Z" fill="#F28F8F"/>
<path d="M58.2063 538.766L49.1758 545.264L49.7836 546.108L58.8142 539.611L58.2063 538.766Z" fill="#F28F8F"/>
<path d="M61.7631 575.084L49.082 594.107L49.9481 594.684L62.6291 575.662L61.7631 575.084Z" fill="#F28F8F"/>
<path d="M37.0621 576.854L36.4531 577.698L48.967 586.727L49.576 585.883L37.0621 576.854Z" fill="#F28F8F"/>
<path d="M737 597.372L735.343 597.083L735 599.054C735.343 597.083 735.343 597.083 735.343 597.083H735.342L735.338 597.082L735.322 597.08L735.262 597.069L735.024 597.028C734.813 596.992 734.5 596.939 734.087 596.87C733.26 596.731 732.033 596.528 730.425 596.268C727.21 595.75 722.475 595.008 716.386 594.114C704.21 592.326 686.62 589.927 664.954 587.484C619.579 582.347 556.27 576.993 487.31 576.561C463.158 576.382 438.356 576.849 413.371 578.143C368.58 580.444 323.255 585.406 280.387 594.296L280.383 594.297C268.004 596.888 255.833 599.768 243.942 603.047C243.426 603.19 242.901 603.332 242.371 603.476L242.368 603.477C241.841 603.62 241.308 603.764 240.784 603.909L240.775 603.911C207.709 613.19 179.033 619.561 154.207 623.711C90.2845 634.391 51.9757 630.346 29.7501 623.761C18.6434 620.47 11.5506 616.545 7.27366 613.501C5.13397 611.978 3.6939 610.672 2.80503 609.771C2.36042 609.32 2.05314 608.969 1.86477 608.743C1.77057 608.629 1.70605 608.547 1.66893 608.498C1.65036 608.474 1.63864 608.458 1.63348 608.451C1.63297 608.45 1.63253 608.45 1.63215 608.449L-2 603.271V609.605V735V737H0H735H737V735V599.054V597.372Z" fill="#94779D"/>
<path d="M735.343 597.083L737 597.372V599.054V735V737H735H0H-2V735V609.605V603.271L1.63215 608.449C1.63253 608.45 1.63297 608.45 1.63348 608.451C1.63864 608.458 1.65036 608.474 1.66893 608.498C1.70605 608.547 1.77057 608.629 1.86477 608.743C2.05314 608.969 2.36042 609.32 2.80503 609.771C3.6939 610.672 5.13397 611.978 7.27366 613.501C11.5506 616.545 18.6434 620.47 29.7501 623.761C51.9757 630.346 90.2845 634.391 154.207 623.711C179.033 619.561 207.709 613.19 240.775 603.911L240.784 603.909C241.308 603.764 241.841 603.62 242.368 603.477L242.371 603.476C242.901 603.332 243.426 603.19 243.942 603.047C255.833 599.768 268.004 596.888 280.383 594.297L280.387 594.296C323.255 585.406 368.58 580.444 413.371 578.143C438.356 576.849 463.158 576.382 487.31 576.561C556.27 576.993 619.579 582.347 664.954 587.484C686.62 589.927 704.21 592.326 716.386 594.114C722.475 595.008 727.21 595.75 730.425 596.268C732.033 596.528 733.26 596.731 734.087 596.87C734.5 596.939 734.813 596.992 735.024 597.028L735.262 597.069L735.322 597.08L735.338 597.082L735.342 597.083H735.343ZM735.343 597.083L735 599.054C735.343 597.083 735.343 597.083 735.343 597.083Z" stroke="#553D67" stroke-width="4"/>
<path d="M573.284 735H499.318C393.338 656.261 217.915 632.072 154.535 625.683C179.442 621.52 208.189 615.132 241.314 605.837C242.355 605.55 243.431 605.263 244.472 604.976C400.373 615.132 516.472 689.852 573.284 735Z" fill="#70547E"/>
<path d="M358.277 735H267.048C181.668 695.666 73.1052 683.751 0 680.485V651.128C159.992 635.373 289.263 693.8 358.277 735Z" fill="#70547E"/>
<path d="M731.124 735H656.834C560.473 633.651 353.934 603.827 280.793 596.255C323.536 587.39 368.756 582.438 413.473 580.141C589.794 606.447 706.684 711.35 731.124 735Z" fill="#70547E"/>
<path d="M735 625.683V677.219C666.92 623.709 566.898 594.352 487.297 578.525C556.167 578.956 619.403 584.303 664.73 589.436C690.786 600.848 714.293 613.302 735 625.683Z" fill="#70547E"/>
</g>
</g>
<defs>
<clipPath id="clip0_879_3305">
<rect width="735" height="735" fill="white"/>
</clipPath>
</defs>
</svg>
