<?xml version="1.0" encoding="utf-8"?>
<!-- Generator: Adobe Illustrator 27.5.0, SVG Export Plug-In . SVG Version: 6.00 Build 0)  -->
<svg version="1.1" xmlns="http://www.w3.org/2000/svg" xmlns:xlink="http://www.w3.org/1999/xlink" x="0px" y="0px"
	 viewBox="0 0 750 500" style="enable-background:new 0 0 750 500;" xml:space="preserve">
<g id="BACKGROUND">
	<g>
		<rect y="-0.005" style="fill:#F7E5CD;" width="750" height="500"/>
	</g>
</g>
<g id="OBJECTS">
	<g>
		<g>
			<path style="fill:#D62900;" d="M735.05-0.005c-0.46,0.54-0.91,1.07-1.37,1.6c-36.67,42.8-76.76,81.57-123.15,108.56
				c-2.32,1.35-4.66,2.67-7.01,3.95c-0.18,0.1-0.35,0.19-0.53,0.29c-0.22,0.12-0.44,0.24-0.66,0.36c-0.69,0.38-1.38,0.75-2.07,1.11
				c-0.93,0.5-1.86,0.99-2.8,1.48c-1.1,0.58-2.21,1.14-3.32,1.7c-1.25,0.63-2.51,1.26-3.77,1.87c-0.71,0.35-1.42,0.69-2.13,1.02
				c-0.66,0.32-1.31,0.64-1.98,0.94c-0.92,0.44-1.84,0.87-2.77,1.29c-0.95,0.43-1.89,0.85-2.84,1.27c-0.67,0.3-1.35,0.59-2.02,0.88
				c-0.37,0.16-0.73,0.32-1.1,0.48c-0.37,0.16-0.74,0.32-1.11,0.47c-0.07,0.03-0.13,0.06-0.2,0.09c-0.82,0.34-1.63,0.68-2.45,1.02
				c-1.13,0.47-2.26,0.92-3.39,1.37c-0.08,0.03-0.15,0.06-0.23,0.09c-1.11,0.44-2.23,0.88-3.35,1.3c-1.16,0.45-2.33,0.88-3.51,1.31
				c-1.14,0.42-2.28,0.83-3.43,1.23c-1.22,0.43-2.45,0.85-3.68,1.26c-40.66,13.59-85.56,17.48-128.99,21.24
				c-32.37,2.81-65.84,5.71-98.67,12.51c-1.49,0.31-2.97,0.63-4.46,0.95c-0.13,0.03-0.26,0.06-0.4,0.09
				c-1.49,0.33-2.99,0.66-4.49,1.01c-1.99,0.46-3.98,0.94-5.97,1.43c-0.08,0.02-0.16,0.04-0.24,0.06c-2.03,0.5-4.06,1.02-6.09,1.55
				c-2.11,0.56-4.21,1.12-6.31,1.71c-2.01,0.56-4,1.13-6,1.72c-1.09,0.33-2.18,0.65-3.27,0.98c-1.98,0.6-3.95,1.21-5.93,1.84
				c-1.2,0.38-2.4,0.77-3.6,1.17c-0.92,0.3-1.85,0.61-2.77,0.92c-1.02,0.34-2.04,0.69-3.06,1.04c-0.9,0.3-1.79,0.61-2.68,0.93
				c-1.15,0.4-2.29,0.81-3.44,1.22c-0.98,0.35-1.96,0.71-2.94,1.07c-1.05,0.38-2.1,0.77-3.15,1.17c-0.74,0.28-1.48,0.56-2.22,0.84
				c-0.38,0.15-0.76,0.29-1.14,0.44c-1.82,0.7-3.64,1.41-5.45,2.14c-0.38,0.15-0.77,0.31-1.15,0.46c-0.73,0.29-1.45,0.59-2.18,0.89
				c-0.2,0.08-0.4,0.16-0.59,0.24c-1.27,0.52-2.53,1.04-3.8,1.58c-0.17,0.07-0.35,0.14-0.52,0.22c-1.38,0.58-2.75,1.17-4.13,1.77
				c-0.46,0.19-0.91,0.39-1.35,0.59c-1.55,0.67-3.1,1.36-4.65,2.06c-1.1,0.5-2.2,1-3.3,1.51c-0.81,0.36-1.62,0.73-2.42,1.11
				c-0.09,0.04-0.18,0.08-0.26,0.12c-1.22,0.57-2.44,1.15-3.66,1.73c-0.76,0.36-1.53,0.73-2.29,1.1c-1.02,0.49-2.03,0.99-3.05,1.49
				c-0.91,0.45-1.83,0.9-2.74,1.36c-1.03,0.51-2.06,1.03-3.09,1.56c-0.65,0.33-1.29,0.66-1.94,0.99c-1.32,0.68-2.63,1.36-3.95,2.06
				c-1.97,1.04-3.94,2.09-5.91,3.17c-1.7,0.92-3.4,1.86-5.1,2.81c-0.76,0.42-1.51,0.85-2.26,1.28c-0.87,0.49-1.74,0.98-2.6,1.48
				c-0.87,0.49-1.73,0.99-2.6,1.5c-0.63,0.37-1.27,0.73-1.9,1.11c-0.96,0.56-1.92,1.13-2.87,1.7c-0.15,0.09-0.3,0.18-0.45,0.27
				c-1.5,0.89-2.99,1.8-4.48,2.72c-0.95,0.59-1.91,1.17-2.87,1.77c-0.96,0.59-1.91,1.19-2.86,1.79c-0.8,0.5-1.59,1-2.38,1.51
				c-1.36,0.86-2.71,1.73-4.06,2.62c-0.95,0.61-1.89,1.23-2.82,1.85c-0.67,0.44-1.33,0.88-1.99,1.32c-0.93,0.62-1.86,1.25-2.79,1.88
				c-0.73,0.49-1.45,0.98-2.17,1.48c-2.06,1.4-4.1,2.83-6.14,4.27c-0.54,0.38-1.07,0.75-1.6,1.13c-0.12,0.08-0.24,0.17-0.36,0.25
				c-0.56,0.4-1.12,0.8-1.68,1.21c-0.65,0.46-1.3,0.93-1.95,1.41c-0.88,0.64-1.76,1.28-2.64,1.93c-0.67,0.49-1.35,0.98-2.02,1.49
				c-0.03,0.02-0.07,0.05-0.1,0.07c-1.11,0.83-2.22,1.66-3.32,2.49c-0.31,0.23-0.62,0.46-0.93,0.7
				c-27.98,21.23-54.34,45.6-78.49,72.74c-0.68,0.76-1.36,1.53-2.04,2.31c-0.82,0.94-1.64,1.88-2.46,2.83
				c-0.55,0.63-1.1,1.27-1.65,1.92c-1.38,1.61-2.76,3.24-4.14,4.9c-0.69,0.83-1.38,1.67-2.07,2.51c-3.46,4.21-6.93,8.59-10.36,13.12
				c-0.61,0.8-1.22,1.6-1.83,2.41c-1.45,1.94-2.9,3.9-4.33,5.9c-0.68,0.94-1.36,1.88-2.04,2.84c-0.68,0.95-1.35,1.9-2.02,2.87
				c-0.67,0.96-1.34,1.93-2.01,2.91c-0.67,0.97-1.33,1.95-1.99,2.94c-0.67,0.99-1.32,1.98-1.98,2.98c-0.6,0.9-1.19,1.82-1.78,2.73
				c-0.71,1.09-1.42,2.2-2.12,3.32c-0.65,1.01-1.29,2.04-1.92,3.07c-1.27,2.06-2.53,4.14-3.77,6.24c-0.1,0.16-0.19,0.33-0.29,0.49
				c-0.49,0.83-0.98,1.66-1.45,2.5c-0.88,1.51-1.75,3.04-2.6,4.58c-0.49,0.88-0.98,1.76-1.47,2.65c-0.13,0.24-0.26,0.49-0.39,0.73
				c-0.42,0.77-0.84,1.54-1.24,2.31c-0.51,0.96-1.02,1.92-1.52,2.88c-0.97,1.87-1.93,3.76-2.86,5.66c-0.06,0.11-0.12,0.22-0.17,0.33
				v-26.02c1.01-1.75,2.04-3.48,3.08-5.2c0.89-1.48,1.79-2.95,2.69-4.41c6.35-10.21,13.04-19.92,19.85-29.04
				c0.57-0.76,1.14-1.52,1.7-2.27c1.71-2.25,3.42-4.47,5.14-6.66c0.57-0.73,1.14-1.45,1.71-2.17c5.73-7.19,11.47-13.97,17.09-20.29
				c25.8-29.01,54.09-54.91,84.17-77.3c0.22-0.16,0.44-0.33,0.66-0.48c0.91-0.68,1.82-1.35,2.74-2.02c1.83-1.34,3.66-2.67,5.5-3.98
				c0.93-0.66,1.85-1.31,2.77-1.96c0.93-0.65,1.85-1.3,2.78-1.94c0.73-0.51,1.45-1.01,2.18-1.51c0.6-0.42,1.2-0.83,1.8-1.23
				c1.47-1,2.93-1.99,4.4-2.97c0.94-0.63,1.88-1.25,2.82-1.86c0.94-0.62,1.88-1.24,2.82-1.85c1.88-1.22,3.77-2.43,5.67-3.62
				c0.94-0.6,1.89-1.19,2.84-1.78c1.59-0.99,3.18-1.96,4.77-2.93c1.1-0.67,2.21-1.33,3.31-1.99c0.96-0.57,1.92-1.15,2.89-1.71
				c2.24-1.32,4.48-2.61,6.73-3.89c1.78-1.01,3.57-2.01,5.37-3c2.91-1.61,5.84-3.19,8.77-4.73c1.82-0.96,3.64-1.9,5.47-2.84
				c1.12-0.57,2.24-1.14,3.37-1.7c0.98-0.49,1.97-0.98,2.96-1.47c0.99-0.49,1.97-0.97,2.96-1.45c0.99-0.48,1.98-0.96,2.98-1.43
				c1.98-0.94,3.97-1.87,5.96-2.79c1-0.46,1.99-0.91,2.99-1.36c1.99-0.91,3.99-1.79,6-2.67c1-0.43,2-0.86,3.01-1.29
				c3.01-1.29,6.03-2.54,9.06-3.77c1-0.4,2.01-0.81,3.03-1.21c1.93-0.76,3.88-1.51,5.82-2.26c0.08-0.03,0.17-0.06,0.25-0.09
				c1.95-0.74,3.91-1.47,5.86-2.18c0.08-0.03,0.16-0.05,0.23-0.08c1.97-0.72,3.94-1.42,5.91-2.11c0.07-0.02,0.14-0.04,0.21-0.07
				c1.97-0.68,3.95-1.36,5.94-2.02c0.06-0.02,0.12-0.04,0.19-0.06c3.07-1.02,6.14-2,9.22-2.95c3.05-0.94,6.1-1.85,9.15-2.72
				c0.04-0.01,0.08-0.02,0.11-0.03c3.07-0.88,6.13-1.71,9.21-2.52c0.03-0.01,0.06-0.01,0.09-0.02c2.04-0.54,4.09-1.06,6.15-1.57
				c1.05-0.26,2.11-0.51,3.17-0.76c1.67-0.4,3.35-0.79,5.03-1.17c2.47-0.56,4.95-1.1,7.43-1.61c33.54-6.95,67.38-9.88,100.11-12.72
				c42.71-3.7,86.86-7.53,126.13-20.65c1.1-0.37,2.2-0.74,3.3-1.13c1.1-0.38,2.19-0.77,3.28-1.17c1.09-0.39,2.18-0.8,3.27-1.21
				c2.17-0.82,4.32-1.67,6.46-2.55c1.07-0.43,2.14-0.88,3.21-1.34c1.06-0.45,2.12-0.91,3.18-1.37c1.06-0.46,2.11-0.93,3.17-1.42
				c0.95-0.43,1.91-0.87,2.86-1.32c0.65-0.3,1.29-0.61,1.94-0.92c0.91-0.43,1.81-0.86,2.71-1.31c0.89-0.44,1.79-0.89,2.69-1.34
				c0.89-0.45,1.78-0.9,2.67-1.36c1.78-0.92,3.55-1.86,5.31-2.82c2.17-1.17,4.33-2.38,6.48-3.62
				c42.74-24.54,80.19-59.66,114.6-98.83c0.47-0.53,0.94-1.06,1.4-1.6H735.05z"/>
			<path style="fill:#FF9B55;" d="M750-0.005v1.42c-0.05,0.06-0.1,0.12-0.15,0.18c-39.12,46.67-82.05,89.36-132.49,118.83
				c-2.5,1.46-5.02,2.89-7.56,4.27c-15.79,8.69-32.32,16.07-49.69,21.88c-42.05,14.05-87.69,18-131.83,21.83
				c-32.02,2.78-65.12,5.64-97.24,12.3c-65.5,13.58-129.49,43.85-186.55,87.6c-0.39,0.29-0.79,0.6-1.18,0.9
				c-26.18,20.16-50.87,43.16-73.56,68.68c-25.33,28.49-53.23,66.71-69.75,110.67v-30.87c0.05-0.11,0.11-0.22,0.17-0.33
				c0.93-1.9,1.89-3.79,2.86-5.66c0.5-0.96,1.01-1.92,1.52-2.88c0.41-0.77,0.82-1.54,1.24-2.31c0.13-0.24,0.26-0.49,0.39-0.73
				c0.49-0.89,0.98-1.77,1.47-2.65c0.85-1.54,1.72-3.07,2.6-4.58c0.47-0.84,0.96-1.67,1.45-2.5c0.1-0.16,0.19-0.33,0.29-0.49
				c1.25-2.1,2.5-4.18,3.77-6.24c0.63-1.03,1.27-2.06,1.92-3.07c0.7-1.12,1.41-2.23,2.12-3.32c0.59-0.91,1.18-1.83,1.78-2.73
				c0.66-1,1.31-1.99,1.98-2.98c0.66-0.99,1.32-1.97,1.99-2.94c0.67-0.98,1.34-1.95,2.01-2.91c0.67-0.97,1.34-1.92,2.02-2.87
				c0.68-0.96,1.36-1.9,2.04-2.84c1.43-2,2.88-3.96,4.33-5.9c0.61-0.81,1.22-1.61,1.83-2.41c3.43-4.53,6.9-8.91,10.36-13.12
				c0.69-0.84,1.38-1.68,2.07-2.51c1.38-1.66,2.76-3.29,4.14-4.9c0.55-0.65,1.1-1.29,1.65-1.92c0.82-0.95,1.64-1.89,2.46-2.83
				c0.68-0.78,1.36-1.55,2.04-2.31c24.15-27.14,50.51-51.51,78.49-72.74c0.31-0.24,0.62-0.47,0.93-0.7c1.1-0.83,2.21-1.66,3.32-2.49
				c0.03-0.02,0.07-0.05,0.1-0.07c0.68-0.5,1.34-0.99,2.02-1.49c0.88-0.65,1.76-1.29,2.64-1.93c0.65-0.48,1.3-0.95,1.95-1.41
				c0.56-0.41,1.12-0.81,1.68-1.21c0.12-0.08,0.24-0.17,0.36-0.25c0.53-0.38,1.06-0.75,1.6-1.13c2.04-1.44,4.08-2.87,6.14-4.27
				c0.72-0.5,1.44-0.99,2.17-1.48c0.93-0.63,1.86-1.26,2.79-1.88c0.66-0.44,1.32-0.88,1.99-1.32c0.93-0.62,1.87-1.24,2.82-1.85
				c1.35-0.89,2.7-1.76,4.06-2.62c0.79-0.51,1.58-1.01,2.38-1.51c0.95-0.6,1.9-1.2,2.86-1.79c0.96-0.6,1.92-1.18,2.87-1.77
				c1.49-0.92,2.98-1.83,4.48-2.72c0.15-0.09,0.3-0.18,0.45-0.27c0.95-0.57,1.91-1.14,2.87-1.7c0.63-0.38,1.27-0.74,1.9-1.11
				c0.87-0.51,1.73-1.01,2.6-1.5c0.86-0.5,1.73-0.99,2.6-1.48c0.75-0.43,1.5-0.86,2.26-1.28c1.7-0.95,3.4-1.89,5.1-2.81
				c1.97-1.08,3.94-2.13,5.91-3.17c1.32-0.7,2.63-1.38,3.95-2.06c0.65-0.33,1.29-0.66,1.94-0.99c1.03-0.53,2.06-1.05,3.09-1.56
				c0.91-0.46,1.83-0.91,2.74-1.36c1.02-0.5,2.03-1,3.05-1.49c0.76-0.37,1.53-0.74,2.29-1.1c1.22-0.58,2.44-1.16,3.66-1.73
				c0.08-0.04,0.17-0.08,0.26-0.12c0.8-0.38,1.61-0.75,2.42-1.11c1.1-0.51,2.2-1.01,3.3-1.51c1.55-0.7,3.1-1.39,4.65-2.06
				c0.44-0.2,0.89-0.4,1.35-0.59c1.38-0.6,2.75-1.19,4.13-1.77c0.17-0.08,0.35-0.15,0.52-0.22c1.27-0.54,2.53-1.06,3.8-1.58
				c0.19-0.08,0.39-0.16,0.59-0.24c0.73-0.3,1.45-0.6,2.18-0.89c0.38-0.15,0.77-0.31,1.15-0.46c1.81-0.73,3.63-1.44,5.45-2.14
				c0.38-0.15,0.76-0.29,1.14-0.44c0.74-0.28,1.48-0.56,2.22-0.84c1.05-0.4,2.1-0.79,3.15-1.17c0.98-0.36,1.96-0.72,2.94-1.07
				c1.15-0.41,2.29-0.82,3.44-1.22c0.89-0.32,1.78-0.63,2.68-0.93c1.02-0.35,2.04-0.7,3.06-1.04c0.92-0.31,1.85-0.62,2.77-0.92
				c1.2-0.4,2.4-0.79,3.6-1.17c1.98-0.63,3.95-1.24,5.93-1.84c1.09-0.33,2.18-0.65,3.27-0.98c2-0.59,3.99-1.16,6-1.72
				c2.1-0.59,4.2-1.15,6.31-1.71c2.03-0.53,4.06-1.05,6.09-1.55c0.08-0.02,0.16-0.04,0.24-0.06c1.99-0.49,3.98-0.97,5.97-1.43
				c1.5-0.35,3-0.68,4.49-1.01c0.14-0.03,0.27-0.06,0.4-0.09c1.49-0.32,2.97-0.64,4.46-0.95c32.83-6.8,66.3-9.7,98.67-12.51
				c43.43-3.76,88.33-7.65,128.99-21.24c1.23-0.41,2.46-0.83,3.68-1.26c1.15-0.4,2.29-0.81,3.43-1.23c1.18-0.43,2.35-0.86,3.51-1.31
				c1.12-0.42,2.24-0.86,3.35-1.3c0.08-0.03,0.15-0.06,0.23-0.09c1.13-0.45,2.26-0.9,3.39-1.37c0.82-0.34,1.63-0.68,2.45-1.02
				c0.07-0.03,0.13-0.06,0.2-0.09c0.37-0.15,0.74-0.31,1.11-0.47c0.37-0.16,0.73-0.32,1.1-0.48c0.67-0.29,1.35-0.58,2.02-0.88
				c0.95-0.42,1.89-0.84,2.84-1.27c0.93-0.42,1.85-0.85,2.77-1.29c0.67-0.3,1.32-0.62,1.98-0.94c0.71-0.33,1.42-0.67,2.13-1.02
				c1.26-0.61,2.52-1.24,3.77-1.87c1.11-0.56,2.22-1.12,3.32-1.7c0.94-0.49,1.87-0.98,2.8-1.48c0.69-0.36,1.38-0.73,2.07-1.11
				c0.22-0.12,0.44-0.24,0.66-0.36c0.18-0.1,0.35-0.19,0.53-0.29c2.35-1.28,4.69-2.6,7.01-3.95
				c46.39-26.99,86.48-65.76,123.15-108.56c0.46-0.53,0.91-1.06,1.37-1.6H750z"/>
			<g>
				<path style="fill:#FFFFFF;" d="M750,1.415v28.37c-36.76,41.9-77.16,79.81-124.13,107.04c-2.79,1.62-5.61,3.21-8.46,4.76
					c-16.3,8.86-33.4,16.42-51.39,22.44c-44.16,14.75-90.92,18.81-136.14,22.73c-31.47,2.72-64.02,5.54-95.06,11.97
					c-64.02,13.27-126.62,43.26-182.29,86.68c-0.51,0.39-1.03,0.8-1.54,1.2c-23.89,18.77-46.5,40.01-67.37,63.47
					c-32.54,36.58-69.56,89.91-77.99,149.92H0v-51.44c16.52-43.96,44.42-82.18,69.75-110.67c22.69-25.52,47.38-48.52,73.56-68.68
					c0.39-0.3,0.79-0.61,1.18-0.9c57.06-43.75,121.05-74.02,186.55-87.6c32.12-6.66,65.22-9.52,97.24-12.3
					c44.14-3.83,89.78-7.78,131.83-21.83c17.37-5.81,33.9-13.19,49.69-21.88c2.54-1.38,5.06-2.81,7.56-4.27
					c50.44-29.47,93.37-72.16,132.49-118.83C749.9,1.535,749.95,1.475,750,1.415z"/>
			</g>
			<path style="fill:#A40061;" d="M750,38.735v18.3c-35.31,38.04-74.18,72.13-119.06,97.34c-2.7,1.52-5.43,3.01-8.18,4.45
				c-16.49,8.73-33.76,16.24-51.96,22.32c-46.94,15.68-95.18,19.86-141.85,23.91c-30.77,2.66-62.57,5.42-92.17,11.55
				c-61.54,12.75-121.82,42.02-175.3,84.46c-0.47,0.37-0.93,0.74-1.4,1.11c-21.59,17.26-42.06,36.67-61.04,58.02
				c-30.65,34.47-65.64,84.67-72.41,139.8H14.21c6.72-58.8,43.43-111.79,75.58-147.93c19.85-22.32,41.3-42.58,63.94-60.55
				c0.49-0.39,0.97-0.77,1.46-1.16c54.65-43.03,116.18-72.74,179.08-85.76c30.31-6.29,62.5-9.07,93.61-11.77
				c45.93-3.98,93.45-8.1,138.99-23.32c18.34-6.14,35.75-13.8,52.34-22.74c2.71-1.46,5.4-2.95,8.07-4.48
				C673.69,115.735,713.68,79.235,750,38.735z"/>
			<path style="fill:#D462A7;" d="M750,20.125v18.61c-36.32,40.5-76.31,77-122.72,103.55c-2.67,1.53-5.36,3.02-8.07,4.48
				c-16.59,8.94-34,16.6-52.34,22.74c-45.54,15.22-93.06,19.34-138.99,23.32c-31.11,2.7-63.3,5.48-93.61,11.77
				c-62.9,13.02-124.43,42.73-179.08,85.76c-0.49,0.39-0.97,0.77-1.46,1.16c-22.64,17.97-44.09,38.23-63.94,60.55
				c-32.15,36.14-68.86,89.13-75.58,147.93H1.8c6.66-62.51,45.11-118.24,78.74-156.07c20.88-23.46,43.48-44.7,67.37-63.47
				c0.51-0.4,1.02-0.8,1.53-1.2c55.67-43.41,118.28-73.41,182.31-86.68c31.03-6.43,63.59-9.25,95.06-11.97
				c45.22-3.92,91.98-7.98,136.13-22.73c18.17-6.08,35.43-13.74,51.88-22.72c2.68-1.46,5.34-2.95,7.97-4.48
				C671.07,102.685,712.41,63.405,750,20.125z"/>
		</g>
		<g>
			<g>
				<path style="fill:#CFA488;" d="M623.82,236.105l-0.01,0.01c-4.45,19.47-12.35,38.44-23.04,56.93c-2.2,3.79-4.46,7.53-6.79,11.2
					c-0.31,0.51-0.63,1.02-0.97,1.53c-15.53,24.33-33.77,46.15-53.56,66.37c-0.58,0.59-1.16,1.18-1.74,1.76
					c-15.14,15.34-31.17,29.76-47.58,43.69c-8.4,7.13-16.92,14.08-25.53,20.93c-1.38,1.1-2.76,2.19-4.14,3.28
					c-24.73,19.54-50.07,38.29-74.9,57.69c-0.22,0.17-0.44,0.34-0.66,0.5h-12.1c-26.26-18.62-52.07-37.84-77.02-58.19
					c-1.34-1.09-2.67-2.18-4.01-3.28c-24.56-20.24-48.26-41.6-70.71-64.62c-0.57-0.58-1.14-1.17-1.71-1.76
					c-4.13-4.25-8.21-8.56-12.24-12.93c-13.78-14.93-26.95-30.39-38.46-47.15c-1.42-2.07-2.83-4.17-4.2-6.29
					c-0.33-0.51-0.66-1.02-0.98-1.53c-0.48-0.76-0.96-1.51-1.43-2.28c-2.15-3.41-4.22-6.89-6.2-10.43
					c-1.98-3.54-3.88-7.14-5.69-10.81c-1.58-3.19-3.08-6.44-4.52-9.74c-1.05-2.42-2.05-4.84-2.99-7.27
					c-1.55-3.96-2.95-7.93-4.22-11.92c-1.31-4.13-2.48-8.27-3.48-12.41c-0.27-1.09-0.53-2.18-0.77-3.27v-0.01
					c-0.72-3.22-1.36-6.45-1.9-9.68c-3.13-18.68-3.19-37.34-0.04-55.38c0.26-1.54,0.56-3.07,0.87-4.6
					c4.76-23.09,14.86-45.08,30.57-64.68c0.1-0.13,0.2-0.25,0.3-0.38c1.64-2.05,3.34-4.06,5.11-6.05
					c53.33-60.01,147.12-60.93,201.45-1.51c2.18,2.39,4.44,4.72,7.14,7.56c0.12,0.12,0.25,0.25,0.36,0.38
					c0.39,0.4,0.77,0.8,1.17,1.22c0.34-0.41,0.68-0.82,1.02-1.22c0.11-0.13,0.21-0.25,0.32-0.38
					c15.95-18.86,34.36-32.47,55.89-41.82c49.92-21.68,108.24-7.25,146.92,30.14c2.96,2.86,5.81,5.86,8.53,8.99
					c0.77,0.88,1.53,1.78,2.28,2.69c0.1,0.13,0.21,0.25,0.31,0.38c1.72,2.09,3.38,4.24,4.98,6.44c2.37,3.23,4.6,6.58,6.68,10.04
					c3.1,5.11,5.89,10.47,8.32,16.04c1.52,3.43,2.89,6.95,4.12,10.54c0.09,0.27,0.19,0.54,0.27,0.81c1.35,3.96,2.53,7.9,3.57,11.82
					c0.8,3.01,1.51,6.01,2.13,8.99c0.22,1.08,0.44,2.16,0.64,3.23c0.09,0.46,0.18,0.91,0.26,1.37
					C629.45,193.375,628.64,215.035,623.82,236.105z"/>
			</g>
		</g>
	</g>
	<g>
		<defs>
			<rect id="SVGID_1_" x="95.169" y="83.225" width="499.404" height="416.775"/>
		</defs>
		<clipPath id="SVGID_00000105400373575616598020000015050015956241619864_">
			<use xlink:href="#SVGID_1_"  style="overflow:visible;"/>
		</clipPath>
		<g style="clip-path:url(#SVGID_00000105400373575616598020000015050015956241619864_);">
			<g>
				<g>
					<g>
						<path style="fill:#746D36;" d="M323.456,375.716c26.186,3.389,127.858-53.491,156.591-67.733
							c28.733-14.242,38.933,6.35,61.278,11.996c-12.503,13.941-16.251,32.24-33.132,41.01
							c-63.341,62.544-149.337,140.498-213.639,91.326c-64.303-49.172-48.108-64.606-36.129-83.413
							C270.405,350.095,297.27,372.328,323.456,375.716z"/>
					</g>
				</g>
				<g>
					<g>
						<path style="fill:#8F8851;" d="M407.85,385.615c0,0-7.89,5.92-27.62,11.18l-5.26,34.2c-73.53,3.01-122.04-29.33-123.64-58.54
							c-1.53-28.01,40.15-51.95,46.04-55.24c0.62,0.25,1.25,0.51,1.88,0.78c9.16,3.76,18.65,8.08,28.37,13.03
							c2.96,1.51,5.87,3.04,8.72,4.6C365.3,351.335,388.98,369.015,407.85,385.615z"/>
					</g>
					<g>
						<path style="fill:#010101;" d="M306.61,368.815l-26.41-1.94c0,0-11.54-40.08,19.05-48.88c9.16,3.76,18.65,8.08,28.37,13.03
							c2.96,1.51,5.87,3.04,8.72,4.6c-3.77,1.48-11.82,4.81-23.93,10.64C295.02,354.645,306.61,368.815,306.61,368.815z"/>
					</g>
				</g>
				<g>
					<g>
						<path style="fill:#222433;" d="M394.7,499.385l-21.23,0.34l-1.11,0.02l-37.49,0.6l-1.11,0.01l-63.56,1.02l-1.01,0.02
							l-80.34,1.28c0,0,2.63-34.2,5.26-74.31c2.63-40.12,30.26-52.62,30.26-52.62l67.73-23.02c0,0,14.94,12.14,37.33,30.42
							l0.01,0.01c1.31,1.08,2.65,2.17,4.02,3.29c9.17,7.49,19.44,15.89,30.33,24.82c20.4,16.72,28.05,39.22,30.63,57.3v0.01
							c0.13,0.91,0.25,1.81,0.35,2.69c0,0.01,0.01,0.01,0.01,0.02C396.7,487.415,394.7,499.385,394.7,499.385z"/>
					</g>
					<g>
						<g>
							<path style="fill:#8F8851;" d="M334.87,500.345l-1.11,0.01c-2.71-5.39-5.53-10.71-8.45-15.98
								c-4.36-7.86-8.94-15.59-13.76-23.17c-4.27-6.72-8.76-13.31-13.65-19.6c-4.86-6.25-10.11-12.22-15.9-17.64
								c-5.34-4.99-11.13-9.49-17.38-13.26l3.25,0.85c6.06,3.94,11.67,8.57,16.83,13.62c5.66,5.53,10.79,11.57,15.56,17.88
								c4.83,6.38,9.28,13.04,13.53,19.82c4.88,7.79,9.53,15.73,13.93,23.81C330.19,491.195,332.57,495.755,334.87,500.345z"/>
						</g>
					</g>
					<g>
						<g>
							<path style="fill:#8F8851;" d="M373.47,499.725l-1.11,0.02c-2.58-5.3-5.33-10.53-8.23-15.67
								c-4.41-7.83-9.16-15.47-14.24-22.89c-5.09-7.44-10.5-14.66-16.22-21.63c-5.73-6.97-11.76-13.69-18.07-20.14
								c-6.03-6.17-12.33-12.07-18.86-17.71l0.63-0.77c0.57,0.49,1.14,0.99,1.72,1.49c6.79,5.94,13.31,12.18,19.55,18.7
								c6.27,6.54,12.25,13.35,17.92,20.42c5.63,7.01,10.96,14.27,15.96,21.74c5.04,7.53,9.75,15.28,14.11,23.21
								C369.02,490.845,371.3,495.265,373.47,499.725z"/>
						</g>
					</g>
					<g>
						<g>
							<g>
								<path style="fill:#8F8851;" d="M394.77,471.265c-1.76-3.21-3.52-6.42-5.33-9.61c-4.86-8.57-10.16-16.88-16.5-24.45
									c-6.75-8.06-14.5-15.33-22.6-22.02c-8.03-6.63-16.56-12.65-25.41-18.12c-8.4-5.2-17.08-9.89-25.98-14.18l-0.31-1.25
									c0.97,0.45,1.94,0.92,2.91,1.39c9.35,4.6,18.48,9.67,27.26,15.3c8.75,5.6,17.15,11.76,25.04,18.51
									c8.04,6.89,15.69,14.35,22.25,22.68c6.02,7.65,11.07,15.98,15.8,24.48c0.85,1.52,1.69,3.05,2.52,4.57v0.01
									C394.55,469.485,394.67,470.385,394.77,471.265z"/>
							</g>
						</g>
					</g>
					<g>
						<g>
							<path style="fill:#8F8851;" d="M333.46,386.445c-4.59-2.53-9.27-4.91-14.03-7.12c-7.25-3.38-14.68-6.38-22.24-8.99
								c-0.61-0.21-0.35-1.18,0.26-0.97c4.28,1.48,8.53,3.08,12.72,4.81c6.55,2.7,12.98,5.69,19.26,8.97l0.01,0.01
								C330.75,384.235,332.09,385.325,333.46,386.445z"/>
						</g>
					</g>
					<g>
						<g>
							<path style="fill:#8F8851;" d="M270.2,501.375l-1.01,0.02c-0.11-0.61-0.23-1.21-0.35-1.82c-1.77-9.07-3.75-18.09-5.94-27.06
								c-2.19-8.98-4.58-17.9-7.19-26.76c-2.61-8.9-5.44-17.74-8.47-26.51c-2.75-7.98-5.67-15.89-8.77-23.74l1.11,0.11
								c0.09,0.21,0.17,0.43,0.26,0.65c3.37,8.6,6.53,17.27,9.5,26.02c2.96,8.75,5.72,17.56,8.28,26.44
								c2.55,8.87,4.9,17.81,7.03,26.79C266.69,484.095,268.55,492.715,270.2,501.375z"/>
						</g>
					</g>
				</g>
			</g>
			<g>
				<g>
					<g>
						<path style="fill:#F9B399;" d="M510.27,202.805c-2.34,5.96-5.42,11.71-9.11,17.09c-4.31,6.28-9.61,13.33-15.43,19.91
							c-4.97,5.62-10.33,10.73-16.2,15.4l-20.2,17.83c-4.95,5.35-11.12,9.25-16.81,13.73c-4.51,3.57-9.13,7.18-14.34,9.7
							c-17.55,8.5-39.8,18.18-45.18,15.49c-9.21-4.6-3.29-17.76-3.29-17.76s-2.3,0-4.23-0.81c-2.08-0.87-3.73-2.68-1.69-6.42
							c0.09-0.16,0.16-0.31,0.24-0.47c1.56-3.17,0.92-5.44-0.66-7.53c-0.01-0.01-0.02-0.02-0.02-0.02
							c-0.34-0.44-0.72-0.88-1.12-1.31c-1.23-1.29-2.71-2.56-4.15-4.01c-0.76-0.76-1.5-1.56-2.18-2.44c-0.97-1.25-1.42-2.5-1.52-3.7
							c-0.35-4.46,4.15-8.14,4.15-8.14l-21.7-5.92l26.96-35.52l-2.63-10.52c0,0-30.25-61.16,67.08-82.86
							c28.08-6.26,62.88-5.73,79.12,22.13C517.72,164.435,517.43,184.615,510.27,202.805z"/>
					</g>
					<path style="fill:#D362A4;" d="M385.81,281.125c-2.76,4.61-7.85,8.38-12.92,10.06c-2.11,0.7-4.85,1.5-7.41,2.2
						c-2.08-0.87-3.73-2.68-1.69-6.42c0.09-0.16,0.16-0.31,0.24-0.47c1.3-2.75,0.8-5.31-0.66-7.53c-0.01-0.01-0.02-0.02-0.02-0.02
						c-0.3-0.45-0.63-0.88-1-1.3c-0.04,0-0.08,0-0.12-0.01c-1.23-1.29-2.71-2.56-4.15-4.01c-0.76-0.76-1.5-1.56-2.18-2.44
						c-0.97-1.25-1.42-2.5-1.52-3.7c0.37-0.45,0.85-0.85,1.48-1.16c3.52-1.77,7.5-0.26,10.8,1.26c3.22,1.48,5.4,4.29,8.57,5.93
						c3.08,1.6,6.05,1.9,9.37,2.51c1.25,0.23,1.98,0.59,2.31,1.09C387.51,278.005,386.88,279.325,385.81,281.125z"/>
					<g>
						<g>
							<g>
								<g>
									<path style="fill:#D362A4;" d="M389.505,217.964c-3.488-2.316-7.408-3.39-11.602-3.345
										c-2.08,0.022-4.171,0.315-6.215,0.679c-0.964,0.171-1.923,0.369-2.879,0.58c-1.081,0.238-2.26,0.714-3.316,0.191
										c-0.841-0.417-1.442-1.642-0.691-2.48c1.014-1.131,2.2-1.249,3.64-1.508c1.1-0.198,2.204-0.378,3.313-0.52
										c2.355-0.302,4.725-0.419,7.095-0.221c4.366,0.364,8.928,1.855,11.917,5.21
										C391.464,217.331,390.369,218.538,389.505,217.964L389.505,217.964z"/>
								</g>
							</g>
						</g>
					</g>
					<g style="opacity:0.48;">
						<g>
							<path style="fill:#FD8876;" d="M431.498,242.282c1.496,7.366-6.297,15.167-17.406,17.422
								c-11.109,2.256-21.327-1.887-22.823-9.254c-1.496-7.367,6.297-15.167,17.406-17.423
								C419.784,230.773,430.002,234.916,431.498,242.282z"/>
						</g>
					</g>
					<g>
						<g>
							<path style="fill:#222431;" d="M364.402,229.035c2.11,0.323,4.256,0.706,6.3,1.324c0.79,0.95,0.948,2.162,0.42,3.139
								c-0.528,0.976-0.804,1.718-0.05,2.519c9.702-3.964,10.608-2.604,19.599-10.261c-15.142,5.091-12.591,3.031-27.26,2.973
								L364.402,229.035z"/>
						</g>
					</g>
				</g>
				<path style="fill:#C64C8F;" d="M385.82,279.565c0,0-11.89,3.6-21.13,4.88c0.32-1.98-0.23-3.82-1.32-5.48
					c-0.01-0.01-0.02-0.02-0.02-0.02c-0.3-0.45-0.63-0.88-1-1.3c-0.04,0-0.08,0-0.12-0.01c-1.23-1.29-2.71-2.56-4.15-4.01
					c-0.76-0.76-1.5-1.56-2.18-2.44c-0.97-1.25-1.42-2.5-1.52-3.7c0.37-0.45,0.85-0.85,1.48-1.16c1.43-0.72,2.93-0.9,4.44-0.75
					c0.01,0,0.01,0,0.01,0c1.51,0.5,3.93,1.29,7.01,2.34c2.87,1.54,4.96,4.08,7.91,5.6c3.08,1.6,6.05,1.9,9.37,2.51
					c0.54,0.1,0.98,0.22,1.33,0.37C387.18,278.295,385.82,279.565,385.82,279.565z"/>
			</g>
			<g>
				<g>
					<g>
						<g>
							<path style="fill:#FA846A;" d="M372.96,247.485c-0.51,4.08-14.811,12.109-13.792,15.179c0,0,0.049,1.169,1.586,2.082
								c2.561,1.52,4.701,2.67,5.65,3.568c1.469,1.389-1.46,2.288-1.924,8.292c-0.382,4.938-0.714,8.474,1.36,11.09
								c2.6,3.28,1.1,3.14-0.54,6.84c-0.21,0.46-0.32,1.05-0.36,1.73v0.01c-0.29,4.68,2.64,13.76-1.42,18.78
								c-4.65,5.75-33.25,11.63-43.92,10.95c-10.67-0.69-31.88,0.41-38.04-1.65c-6.16-2.05-40.5-11.63-45.97-20.11
								c0,0-68.25,22.72-74.04-29.02c-5.79-51.74,26.9-94.98,26.9-94.98s57.19-21.79,86.8-19.4c29.62,2.38,41.54,7.49,41.54,7.49
								s28.59,27.57,24.51,51.06l-1.03,10.21c0,0,27.07,10.22,30.13,11.75C373.47,242.885,373.47,243.395,372.96,247.485z"/>
						</g>
						<g>
							<path style="fill:#222431;" d="M339.21,253.57c0,0,0.087-8.925-1.842-11.907c-0.396-0.611-0.745-1.153-1.181-1.592
								c0.368,3.77,0.271,7.652-0.882,11.083c-0.186,0.554-0.424,1.071-0.685,1.569c-0.38,1.167-0.977,1.964-1.798,2.476
								c-1.69,1.734-3.959,2.873-6.39,3.029c-0.528,0.034-1.077,0.027-1.558,0.248c-4.414,2.029,3.121,3.822,4.241,3.952
								c2.006,0.233,7.133,1.223,8.52-0.894C339.298,258.995,339.21,253.57,339.21,253.57z"/>
						</g>
						<g>
							<g>
								<path d="M323.214,247.766c1.496-3.911,4.064-7.061,7.505-9.459c1.706-1.189,3.579-2.164,5.455-3.055
									c0.885-0.42,1.78-0.816,2.681-1.2c1.019-0.434,2.255-0.731,2.811-1.769c0.443-0.828,0.221-2.174-0.877-2.421
									c-1.482-0.333-2.516,0.26-3.84,0.885c-1.011,0.477-2.014,0.972-2.999,1.5c-2.093,1.121-4.091,2.402-5.905,3.938
									c-3.344,2.831-6.193,6.693-6.679,11.16C321.251,248.388,322.844,248.735,323.214,247.766L323.214,247.766z"/>
							</g>
						</g>
						<g>
							<g>
								<path style="fill:#B96B85;" d="M365.369,294.568c-0.14,0.344-0.347,1.215-0.321,1.544c0.026,0.329,0.111,0.01-0.183,0.267
									c-4.421-0.509-24.699,5.397-21.222-6.332c1.074-3.624,18.973-16.45,21.234-22.735c4.03,2.239,1.812,6.181,0.403,9.588
									c-1.409,3.408,0.257,7.539,1.319,10.72C367.661,290.801,366.489,291.816,365.369,294.568z"/>
							</g>
						</g>
						<g>
							<path style="fill:#FFFFFF;" d="M361.512,278.721c1.42,1.559,1.946,4.526,1.206,6.562c-1.141,3.138,0.856,5.99-3.708,5.705
								c-4.564-0.285-10.269-0.285-10.269-0.285C354.739,290.701,359.052,283.149,361.512,278.721z"/>
						</g>
					</g>
					<g>
						<g>
							<g>
								<path style="fill:#FA846A;" d="M294.838,346.897c-0.07,0.95-0.1,1.92-0.07,2.92c0.659,23.627,7.864,44.643,7.89,44.72
									c1.265,3.686-8.984,11.936-11.399,13.597c-6.874,4.727-14.714,6.063-22.847,3.911c-8.324-2.203-15.551-7.299-22.376-12.548
									c-10.454-8.039-21.361-15.222-33.089-21.25c-1.86-0.992,2-28.737,2.231-32.054c0.729-10.477,1.532-20.948,2.299-31.423
									c0.99-13.527,1.924-27.06,2.971-40.583l103.25,44.72c0,0-8.01,1.96-15.6,7.17
									C301.708,330.457,295.628,337.147,294.838,346.897z"/>
							</g>
							<g>
								<g>
									<path style="fill:#DD513A;" d="M309.749,325.244c-2.586,0.084-8.872,8.009-10.234,9.914
										c-2.738,3.829-4.331,8.227-5.117,12.793c0.694-4.034-14.136-11.613-16.646-12.749c-5.176-2.343-10.298-4.824-15.457-7.183
										c-4.04-1.848-9.1-2.786-12.045-6.385c-2.205-2.695-3.973-7.323-1.587-9.593c2.242-2.132,9.98-3.492,13.027-4.036
										c2.69-0.48,13.87,19.21,44.75,17.09C306.77,325.075,309.439,325.254,309.749,325.244z"/>
								</g>
							</g>
						</g>
						<g>
							<g>
								<path style="fill:#DD513A;" d="M256.191,375.134c-15.536,0-28.175-13.815-28.175-30.796
									c0-16.981,12.639-30.797,28.175-30.797c15.535,0,28.174,13.816,28.174,30.797
									C284.366,361.319,271.727,375.134,256.191,375.134z M256.191,315.541c-14.433,0-26.175,12.918-26.175,28.797
									c0,15.878,11.742,28.796,26.175,28.796c14.433,0,26.174-12.918,26.174-28.796
									C282.366,328.459,270.624,315.541,256.191,315.541z"/>
							</g>
							<g>
								<path style="fill:#FFFFFF;" d="M262.039,371.955c-15.536,0-28.175-14.491-28.175-32.303
									c0-17.812,12.639-32.303,28.175-32.303c15.536,0,28.175,14.491,28.175,32.303
									C290.214,357.464,277.574,371.955,262.039,371.955z M262.039,309.35c-14.433,0-26.175,13.594-26.175,30.303
									c0,16.709,11.742,30.303,26.175,30.303c14.433,0,26.175-13.594,26.175-30.303
									C288.214,322.944,276.471,309.35,262.039,309.35z"/>
							</g>
						</g>
					</g>
					<g>
						<g>
							<path d="M321.699,171.216c0,0-19.73-11.838-58.532-13.811c-22.352-1.137-44.447,4.539-65.46,11.622
								c-4.019,1.355-8.074,2.796-11.561,5.211c-13.059,9.045-18.559,36.62-22.73,51.058c-5.663,19.605-9.407,39.705-12.399,59.873
								c-0.327,2.205-0.642,4.411-0.952,6.619c-3.055,11.556-6.189,23.09-9.406,34.601c-1.878,6.717-3.601,13.502-5.897,20.092
								c-3.393,9.74-6.939,19.419-9.74,29.353c-1.613,5.719-3.021,11.512-3.94,17.386c-0.805,5.148-1.325,10.445-0.748,15.646
								c0.456,4.116,1.61,8.352,4.482,11.468c1.364,1.48,3.029,2.512,4.837,3.207c-5.229,28.218-6.568,46.909-6.568,46.909
								c48.009-90.757,99.307-61.82,99.964-105.225c0.658-43.406,24.333-42.09,24.333-42.09s48.009-25.649,61.162-41.432
								c13.153-15.784,13.811-67.081,10.522-86.153C315.78,176.477,321.699,171.216,321.699,171.216z M127.556,420.154
								c-2.019,0.129-4.322-5.715-5.011-9.78c-0.817-4.821-0.46-9.855,0.182-14.674c0.763-5.72,2.063-11.368,3.562-16.935
								c2.736-10.157,6.273-20.058,9.775-29.968c1.786-5.054,3.229-10.176,4.687-15.338c2.473-8.758,4.884-17.533,7.263-26.317
								c-3.016,19.743-13.792,90.002-17.144,105.883C130.337,415.556,129.287,420.043,127.556,420.154z"/>
						</g>
					</g>
				</g>
				<g>
					<path style="fill:#8F8851;" d="M221.077,378.379c0,0-15.126,28.937,7.892,70.369c23.018,41.433,27.622,71.027,27.622,71.027
						s-153.234-2.631-150.604-7.234c2.631-4.604,10.522-76.946,48.667-97.991C192.798,393.505,221.077,378.379,221.077,378.379z"/>
				</g>
			</g>
			<g>
				<g>
					<g>
						<path style="fill:#F9B399;" d="M213.908,411.513c9.929,10.531,16.462,16.25,21.027,19.345c0.299,0.203,1.2,0.796,1.046,1.235
							c-0.923,2.639-48.649-12.082-52.575,0.483c-4.294,13.741-6.012,24.906-6.012,24.906l10.306,12.882l-3.435,13.741l9.447,8.588
							l5.153,14.6c0,0,69.564,9.447,93.61,7.729c24.047-1.718,27.482-17.176,27.482-17.176l-63.552-77.293
							c-5.929-2.994-11.04-5.277-14.912-6.917c-11.075-4.691-14.743-5.276-18.39-4.951
							C219.062,409.043,215.886,410.443,213.908,411.513z"/>
					</g>
					<g>
						<path style="fill:#D362A4;" d="M212.343,407.711c-0.2-0.4-0.383-0.807-0.54-1.222c-0.149-0.394-0.185-0.874,0.075-1.205
							c0.169-0.215,0.435-0.331,0.698-0.405c1.574-0.444,3.375,0.117,4.896,0.532c2.103,0.573,4.159,1.32,6.183,2.124
							c0.714,0.284,1.426,0.575,2.131,0.883c1.883,0.823,3.231,2.636,4.143,4.415c0.942,1.837,1.467,3.889,1.498,5.955
							c0.007,0.477-0.018,0.977-0.258,1.389c-0.71,1.216-2.442,0.91-3.555,0.61c-1.875-0.505-3.559-1.435-5.263-2.334
							c-1.698-0.895-3.435-1.798-4.878-3.084c-1.399-1.247-2.371-2.882-3.306-4.484C213.56,409.844,212.888,408.802,212.343,407.711
							z"/>
					</g>
					<g>
						<g>
							<path d="M228.524,431.774c3.765,1.84,4.065,8.206,0.307,10.241c-2.994,1.621-6.735,0.399-9.753-0.508
								c-3.727-1.119-7.438-2.291-11.132-3.515c-4.233-1.402-8.443-2.874-12.629-4.411c-1.21-0.444-1.732,1.488-0.532,1.929
								c8.023,2.946,16.135,5.661,24.328,8.096c3.457,1.028,7.511,1.98,10.85,0.069c2.278-1.304,3.454-3.892,3.52-6.446
								c0.075-2.871-1.288-5.879-3.95-7.18C228.381,429.484,227.366,431.208,228.524,431.774L228.524,431.774z"/>
						</g>
					</g>
					<g>
						<g>
							<path d="M176.229,457.917c5.366,7.151,11.943,13.336,19.438,18.217c2.097,1.366,4.262,2.622,6.485,3.772
								c1.142,0.59,2.154-1.135,1.01-1.727c-7.682-3.974-14.633-9.268-20.498-15.626c-1.662-1.802-3.236-3.684-4.707-5.645
								c-0.324-0.431-0.864-0.654-1.368-0.359C176.162,456.798,175.902,457.483,176.229,457.917L176.229,457.917z"/>
						</g>
					</g>
					<g>
						<g>
							<path d="M184.848,485.609c6.316,3.646,12.632,7.292,18.948,10.939c1.117,0.645,2.125-1.083,1.009-1.727
								c-6.316-3.646-12.632-7.292-18.948-10.939C184.74,483.237,183.732,484.965,184.848,485.609L184.848,485.609z"/>
						</g>
					</g>
				</g>
				<g>
					<g>
						<g>
							<path style="fill:#0B3B49;" d="M439.464,356.751c-13.845,18.947-59.964,86.759-61.389,101.958
								c-1.425,15.199,9.88,37.725,15.258,51.759c66.974,7.667,99.812,5.028,164.869-1.571
								c6.555-47.493,21.777-86.719,24.424-134.784c-14.668-22.563-52.805-79.098-80.506-73.04S453.309,337.805,439.464,356.751z"/>
						</g>
					</g>
					<g>
						<g>
							<g>
								<g>
									<path style="fill:#F9B399;" d="M536.51,327.735l-83.94,28.94c0,0-1.08-4.04-3.17-10.13c-0.78-2.27-1.7-4.82-2.76-7.56
										c-2.79-7.27-6.56-15.85-11.21-23.79c-1.03-1.78-2.11-3.52-3.24-5.21c-3.29-4.93-6.54-8.34-9.56-10.68
										c-0.17-0.14-0.33-0.27-0.5-0.38c-0.16-0.13-0.33-0.25-0.49-0.36c-0.17-0.13-0.34-0.24-0.5-0.35
										c-0.16-0.11-0.32-0.22-0.48-0.32c-0.16-0.11-0.33-0.22-0.49-0.31c-0.95-0.6-1.88-1.09-2.77-1.49
										c-0.27-0.12-0.54-0.24-0.8-0.34c-0.17-0.07-0.34-0.14-0.51-0.2c-5.49-2.05-9.27-0.8-9.54-0.71l31-40.69l6.35-8.33
										l2.61-3.43l6.99-9.18l2.58-3.39l5.15-6.75l2.38-3.13l6.06-7.95l16.06,27.81l17.41,30.15l18.07,31.3l4.07,7.03
										L536.51,327.735z"/>
								</g>
								<g>
									<path style="fill:#FE8675;" d="M435.43,315.195c-1.03-1.78-2.11-3.52-3.24-5.21c-5.85-8.76-11.56-12.73-16.1-14.43
										c13.21-6.64,26.71-14.56,32.26-21.84C459.34,259.285,447.84,301.705,435.43,315.195z"/>
								</g>
							</g>
							<g>
								<g>
									<g>
										<path style="fill:#F9B399;" d="M500.62,365.115c-34.35,9.45-89.31,86.74-94.46,91.89c-1.67,1.67-5.24,0.47-9.44-2
											c-0.58-0.33-1.17-0.7-1.77-1.09c-1.38-0.88-2.81-1.87-4.25-2.92c12.77-23.05,25.53-46.11,38.29-69.16
											c6.42-11.58,12.83-23.17,19.25-34.75c0.37-0.22,0.74-0.44,1.11-0.66h0.01c11.35-6.77,22.7-13.52,34.05-20.28
											c8.57-5.1,17.14-10.2,25.71-15.3c4.37-2.61,8.75-5.21,13.12-7.81c0.12-0.07,0.23-0.14,0.35-0.21
											c0.07,0.41,0.14,0.81,0.22,1.2c0.38,1.93,0.87,3.63,1.42,5.14c0.95,2.64,2.07,4.66,3.02,6.14
											c2.08,3.25,4.28,5.61,6.5,7.65c4.61,4.25,9.31,7.13,13.25,13.82C555.58,351.375,534.97,355.665,500.62,365.115z"/>
									</g>
								</g>
								<g>
									<g>
										<path style="fill:#0B3B49;" d="M449.4,346.545c10.38-2.4,20.5-5.78,30.32-9.97c11.91-5.08,23.26-11.47,33.76-19.04
											c4.05-2.92,8-6,11.8-9.25l-4.07-7.03c-2.41,2.12-4.88,4.15-7.4,6.11c-9.28,7.13-19.27,13.33-29.77,18.48
											c-2.82,1.38-5.69,2.68-8.57,3.91c-8.98,3.76-18.28,6.78-27.76,8.99c-0.36,0.08-0.71,0.16-1.07,0.24L449.4,346.545z"/>
									</g>
								</g>
							</g>
						</g>
						<g>
							<g>
								<path style="fill:#EE9682;" d="M416.5,422.805c-2.13,1.88-4.14,3.9-6.01,6.04c-6.53,7.51-11.27,16.52-13.77,26.16
									c-0.58-0.33-1.17-0.7-1.77-1.09c0.67-2.53,1.5-5.02,2.48-7.45c3.86-9.58,9.91-18.23,17.65-25.07
									C416.04,420.545,417.46,421.955,416.5,422.805z"/>
							</g>
						</g>
						<g>
							<g>
								<path style="fill:#EE9682;" d="M448.42,374.142c7.699,0.212,15.398,0.424,23.097,0.637c1.287,0.035,1.286-1.965,0-2
									c-7.699-0.212-15.398-0.424-23.097-0.637C447.133,372.107,447.133,374.107,448.42,374.142L448.42,374.142z"/>
							</g>
						</g>
						<g>
							<g>
								<path style="fill:#EE9682;" d="M436.111,368.117c0.049,1.635,0.519,3.247,1.386,4.637c0.276,0.444,0.905,0.657,1.368,0.359
									c0.445-0.287,0.655-0.893,0.359-1.368c-0.193-0.309-0.367-0.629-0.517-0.961c-0.02-0.044-0.136-0.259-0.015-0.028
									c-0.044-0.084-0.073-0.182-0.106-0.271c-0.059-0.159-0.113-0.32-0.163-0.483c-0.098-0.325-0.176-0.657-0.234-0.992
									c-0.011-0.064-0.093-0.373-0.018-0.094c-0.018-0.068-0.017-0.147-0.024-0.217c-0.019-0.193-0.03-0.387-0.036-0.581
									c-0.016-0.522-0.449-1.025-1-1C436.583,367.14,436.095,367.556,436.111,368.117L436.111,368.117z"/>
							</g>
						</g>
					</g>
					<g>
						<g>
							<g>
								<path style="fill:#F9B399;" d="M575.435,403.91c-3.182-25.123-31.775-39.973-68.585-28.088
									c-2.178,0.703-4.364,1.78-6.55,3.163l0.411-0.946c0,0-18.199,8.548-56.776,57.013
									c-22.586,28.375-14.629,39.332-4.153,43.543c-6.396,15.696-10.505,27.139-11.229,28.307l107.413,7.507
									C535.966,514.41,578.617,429.034,575.435,403.91z"/>
							</g>
							<g>
								<g>
									<path d="M449.656,434.267c1.802,0.082,3.738,0.307,5.365,1.143c0.695,0.357,1.345,0.826,1.746,1.51
										c0.554,0.945,0.454,2.027,0.134,3.037c-0.441,1.393-1.161,2.714-1.774,4.037c-0.622,1.343-1.245,2.686-1.869,4.028
										c-1.248,2.684-2.501,5.367-3.758,8.047c-5.047,10.758-10.168,21.481-15.361,32.169c-2.911,5.991-5.846,11.971-8.802,17.94
										c-0.57,1.15,1.155,2.164,1.727,1.009c5.512-11.127,10.946-22.293,16.299-33.497c2.659-5.565,5.298-11.139,7.917-16.723
										c1.31-2.792,2.614-5.586,3.914-8.383c0.659-1.417,1.316-2.834,1.972-4.253c0.613-1.325,1.328-2.654,1.731-4.062
										c0.735-2.565-0.19-5.004-2.475-6.37c-2.004-1.199-4.473-1.528-6.765-1.633C448.37,432.208,448.372,434.209,449.656,434.267
										L449.656,434.267z"/>
								</g>
							</g>
						</g>
						<g>
							<g>
								<path style="fill:#EE9682;" d="M507.582,441.125c-0.458-3.58,0.614-7.455,3.389-9.882c2.492-2.18,6.091-2.306,8.861-0.562
									c1.457,0.917,2.462,2.316,2.738,4.024c0.136,0.843,1.461,0.972,1.828,0.239c1.639-3.274,5.05-5.53,8.704-5.814
									c3.775-0.293,7.302,1.627,9.331,4.793c1.146,1.788,1.76,3.838,1.697,5.966c-0.031,1.05,1.337,1.282,1.864,0.505
									c1.326-1.956,4.396-2.001,6.169-0.666c2.251,1.695,2.516,4.984,1.637,7.458c-0.432,1.215,1.5,1.738,1.929,0.532
									c1.205-3.389,0.434-7.702-2.685-9.807c-2.756-1.86-6.877-1.328-8.776,1.473c0.621,0.168,1.242,0.336,1.864,0.505
									c0.133-4.436-2.334-8.731-6.081-11.056c-3.777-2.344-8.565-2.202-12.393-0.05c-2.112,1.187-3.897,2.98-4.984,5.152
									c0.609,0.08,1.219,0.159,1.828,0.239c-0.636-3.943-4.507-6.425-8.274-6.691c-4.286-0.303-7.949,2.635-9.592,6.439
									c-0.976,2.26-1.363,4.757-1.05,7.203c0.069,0.536,0.41,1,1,1C507.069,442.125,507.651,441.664,507.582,441.125
									L507.582,441.125z"/>
							</g>
						</g>
						<g>
							<g>
								<path style="fill:#EE9682;" d="M506.424,442.757c12.163,3.767,24.771,6.654,37.527,7.237
									c3.504,0.16,7.017,0.127,10.514-0.153c1.274-0.102,1.285-2.103,0-2c-12.579,1.008-25.276-1.062-37.438-4.161
									c-3.382-0.862-6.738-1.819-10.071-2.851C505.724,440.446,505.197,442.376,506.424,442.757L506.424,442.757z"/>
							</g>
						</g>
						<g>
							<g>
								<path style="fill:#EE9682;" d="M522.063,430.266c0.69-8.385,4.453-16.439,10.287-22.48
									c6.101-6.318,14.439-10.144,23.186-10.827c5.071-0.396,10.167,0.225,14.975,1.892c1.219,0.423,1.742-1.509,0.532-1.929
									c-8.894-3.085-18.924-2.707-27.599,0.925c-8.349,3.495-15.193,9.973-19.286,18.038c-2.278,4.488-3.68,9.364-4.093,14.381
									C519.957,431.549,521.958,431.542,522.063,430.266L522.063,430.266z"/>
							</g>
						</g>
						<g>
							<g>
								<path style="fill:#EE9682;" d="M531.09,428.372c0.91-6.374,5.062-11.702,10.177-15.395
									c5.473-3.951,12.149-6.437,18.895-6.877c3.626-0.236,7.275,0.129,10.714,1.335c1.217,0.427,1.74-1.505,0.532-1.929
									c-6.601-2.315-14.028-1.74-20.589,0.419c-6.715,2.209-13.033,6.177-17.329,11.858c-2.222,2.938-3.805,6.396-4.328,10.056
									c-0.076,0.534,0.131,1.074,0.698,1.23C530.329,429.199,531.013,428.91,531.09,428.372L531.09,428.372z"/>
							</g>
						</g>
						<g>
							<g>
								<path style="fill:#EE9682;" d="M540.7,430.343c2.006-4.328,5.314-7.962,9.441-10.357c4.389-2.547,9.59-3.522,14.612-2.786
									c2.934,0.43,5.76,1.409,8.322,2.902c1.114,0.649,2.122-1.079,1.009-1.727c-4.92-2.867-10.735-3.944-16.361-3.126
									c-5.2,0.756-10.058,3.292-13.771,6.993c-2.055,2.048-3.759,4.459-4.979,7.092c-0.227,0.49-0.138,1.078,0.359,1.368
									C539.764,430.954,540.472,430.835,540.7,430.343L540.7,430.343z"/>
							</g>
						</g>
						<g>
							<g>
								<path style="fill:#EE9682;" d="M482.502,460.588c-3.177,5.638-6.354,11.276-9.531,16.914
									c-0.633,1.123,1.094,2.132,1.727,1.009c3.177-5.638,6.354-11.276,9.531-16.914
									C484.861,460.474,483.134,459.465,482.502,460.588L482.502,460.588z"/>
							</g>
						</g>
						<g>
							<g>
								<path style="fill:#EE9682;" d="M469.877,469.648c3.961,3.286,8.992,5.09,14.147,4.978c1.285-0.028,1.29-2.028,0-2
									c-4.602,0.1-9.182-1.447-12.733-4.392C470.308,467.418,468.885,468.825,469.877,469.648L469.877,469.648z"/>
							</g>
						</g>
						<g>
							<g>
								<path style="fill:#EE9682;" d="M481.458,466.085c-1.709-0.899-3.287-2.099-4.259-3.801
									c-0.874-1.531-1.122-3.349-0.816-5.078c0.639-3.617,3.631-6.29,7.259-6.775c3.524-0.472,6.71,1.596,7.948,4.893
									c1.2,3.198,0.636,7.083-2.263,9.179c-3.149,2.276-7.955,2.165-10.742-0.646c-0.907-0.915-2.322,0.499-1.414,1.414
									c3.094,3.121,8.11,3.59,11.966,1.677c4.034-2.002,5.744-6.532,4.782-10.812c-0.955-4.25-4.452-7.611-8.895-7.763
									c-4.308-0.147-8.627,2.571-10.136,6.638c-0.89,2.399-0.841,5.179,0.198,7.515c1.051,2.363,3.114,4.103,5.363,5.286
									C481.587,468.411,482.599,466.685,481.458,466.085L481.458,466.085z"/>
							</g>
						</g>
						<g>
							<g>
								<path style="fill:#EE9682;" d="M514.756,478.195c-0.145-0.202-0.158-0.201-0.186-0.354c-0.033-0.181,0.01,0.237-0.01-0.069
									c-0.001-0.024,0.034-0.322-0.002-0.125c0.059-0.331,0.184-0.562,0.374-0.817c0.46-0.618,1.191-1.141,1.855-1.429
									c1.686-0.731,3.404,0.242,4.218,1.836c0.733,1.435,0.378,3.291-0.676,4.49c-0.541,0.616-1.193,1.055-1.999,1.182
									c-0.685,0.108-1.353-0.098-1.998-0.487c-0.744-0.449-1.368-1.107-1.725-1.913c-0.111-0.249-0.199-0.663-0.196-0.914
									c0.003-0.361,0.086-0.566,0.345-0.925c0.316-0.438,0.076-1.114-0.359-1.368c-0.504-0.295-1.051-0.08-1.368,0.359
									c-1.433,1.986-0.148,4.598,1.54,5.95c0.945,0.757,2.082,1.291,3.31,1.321c1.235,0.03,2.403-0.489,3.334-1.271
									c1.868-1.569,2.707-4.448,1.823-6.743c-0.966-2.509-3.648-4.426-6.385-3.587c-1.285,0.394-2.47,1.212-3.284,2.279
									c-0.787,1.032-1.148,2.46-0.339,3.595c0.313,0.439,0.872,0.649,1.368,0.359C514.831,479.31,515.072,478.637,514.756,478.195
									L514.756,478.195z"/>
							</g>
						</g>
						<g>
							<g>
								<path style="fill:#EE9682;" d="M520.634,474.641c0.72-2.373,1.454-4.921,3.114-6.833c1.338-1.542,3.549-2.73,5.632-2.177
									c1.745,0.464,2.729,2.126,2.838,3.855c0.125,1.993-0.608,3.786-2.001,5.202c-1.89,1.921-4.483,2.966-6.987,3.827
									c-1.21,0.416-0.69,2.349,0.532,1.929c2.664-0.916,5.347-2.023,7.456-3.944c1.881-1.713,3.05-4.051,3.016-6.621
									c-0.031-2.316-1.094-4.713-3.257-5.769c-2.53-1.236-5.464-0.415-7.576,1.263c-2.666,2.119-3.746,5.608-4.695,8.737
									C518.331,475.344,520.261,475.871,520.634,474.641L520.634,474.641z"/>
							</g>
						</g>
						<g>
							<g>
								<path style="fill:#EE9682;" d="M516.024,474.432c-1.765-2.217-2.077-5.226-0.984-7.815c0.56-1.327,1.46-2.489,2.55-3.422
									c0.528-0.451,1.157-0.927,1.809-1.178c0.222-0.086,0.603-0.231,0.842-0.14c0.293,0.111,0.237,0.47,0.241,0.744
									c0.031,2.478-0.011,4.959-0.016,7.438c-0.003,1.287,1.997,1.289,2,0c0.003-1.345,0.006-2.69,0.009-4.034
									c0.003-1.289,0.114-2.633-0.017-3.916c-0.114-1.109-0.772-2.017-1.912-2.199c-1.036-0.165-2.047,0.251-2.909,0.793
									c-3.151,1.977-5.334,5.511-5.241,9.287c0.054,2.177,0.869,4.168,2.215,5.859c0.337,0.423,1.063,0.352,1.414,0
									C516.442,475.428,516.362,474.856,516.024,474.432L516.024,474.432z"/>
							</g>
						</g>
						<g>
							<g>
								<path style="fill:#EE9682;" d="M514.202,471.057c-2.133-3.305-6.977-3.774-9.521-0.668
									c-2.765,3.376-0.892,7.894,2.404,10.094c2.06,1.375,4.534,1.947,6.929,2.418c1.257,0.247,1.795-1.68,0.532-1.929
									c-2.163-0.425-4.385-0.9-6.271-2.099c-1.548-0.985-2.904-2.685-2.968-4.585c-0.058-1.714,1.076-3.35,2.725-3.867
									c1.648-0.516,3.512,0.202,4.443,1.645C513.17,473.144,514.902,472.143,514.202,471.057L514.202,471.057z"/>
							</g>
						</g>
						<g>
							<g>
								<path style="fill:#EE9682;" d="M511.816,480.401c-3.121,1.533-5.759,4.888-4.208,8.467c0.718,1.658,2.289,2.691,4.1,2.695
									c1.943,0.005,3.753-1.021,5.251-2.168c1.768-1.353,3.241-3.041,4.341-4.978c0.637-1.121-1.091-2.13-1.727-1.009
									c-0.961,1.692-2.232,3.195-3.781,4.38c-1.333,1.021-3.406,2.329-5.145,1.567c-1.339-0.586-1.732-2.34-1.367-3.635
									c0.48-1.704,2.03-2.849,3.545-3.593C513.98,481.56,512.968,479.835,511.816,480.401L511.816,480.401z"/>
							</g>
						</g>
						<g>
							<g>
								<path style="fill:#EE9682;" d="M518.624,485.267c1.148,3.253,4.831,4.998,8.133,4.267c3.509-0.777,5.185-4.38,4.572-7.719
									c-0.336-1.831-1.429-3.515-3.047-4.457c-1.115-0.648-2.123,1.079-1.009,1.727c2.04,1.187,2.709,4.027,1.829,6.148
									c-0.437,1.053-1.337,1.905-2.401,2.245c-1.164,0.372-2.3,0.289-3.486-0.158c-1.16-0.437-2.252-1.421-2.662-2.584
									c-0.18-0.509-0.683-0.849-1.23-0.698C518.829,484.173,518.444,484.756,518.624,485.267L518.624,485.267z"/>
							</g>
						</g>
					</g>
				</g>
			</g>
			<g>
				<g>
					<g>
						<g>
							<path style="fill:#C57171;" d="M487.5,242.865l14.4,24.94c-9.62-1.77-19.21-3.79-28.38-6.88
								c-2.43-1.39-16.87-3.36-19.01-5.17c0.99-4.24,12.85-9.03,11.9-14.39c-1.12-6.32-3.18-12.86-5.18-18.29
								c-0.61-1.67-1.22-3.23-1.79-4.65c-0.12-0.01-0.25-0.01-0.36-0.03c-9.16-0.93-26,21.06-26,21.06s-8.23-3.36-11.04-16.47
								c-1.4-6.55-4.21-11.24-6.67-14.28c-1.03-1.27-2.07-2.31-2.99-3.13c-0.58-0.52-1.11-0.96-1.57-1.32
								c28.7-0.42,57.4-0.84,86.1-1.25c0.89-0.01,1.77-0.03,2.66-0.04c3.57-0.05,7.14-0.1,10.7-0.16
								c-2.34,5.96-5.42,11.71-9.11,17.09c-0.61,0.89-1.24,1.79-1.89,2.7c-3.93,5.56-8.54,11.56-13.54,17.21L487.5,242.865z"/>
						</g>
						<g>
							<g>
								<path style="fill:#D362A4;" d="M515.09,196.365c-2.8,11.66-8.09,22.74-15.82,26.23c-1.6,0.74-3.3,1.14-5.11,1.15
									c-0.61,0-1.23,0-1.87-0.02c-12.1-0.29-28.38-4.02-38.14-10.46c-4.18-2.77-7.86-5.64-11.82-7.32
									c-0.6-0.26-1.22-0.49-1.84-0.69c-3.34-1.06-6.95-1.17-11.27,0.39c-4.08,1.48-10.84,0.69-16.84-0.07
									c-2.98-0.38-5.77-0.75-7.95-0.83c-0.77-0.03-1.53-0.05-2.3-0.08c-0.1-1.26-0.2-2.53-0.3-3.8c-0.29-3.73-0.6-7.52-1.61-11.1
									c-0.29-1.05-0.65-2.08-1.08-3.08c-0.31,1.2-0.67,2.47-1.05,3.78c0,0.01,0,0.01,0,0.02c-1.28,4.39-2.8,9.29-3.55,13.91
									c-1.93-0.07-3.87-0.14-5.8-0.21c-3.04-0.11-6.07-0.22-9.11-0.33c-1.67-0.06-3.58,0.1-5.61,0.33h-11.95
									c-1.46,0-3.13-0.14-4.82-0.35c-0.61-0.08-1.23-0.16-1.84-0.25v-0.01c-0.02-1.64-0.63-3.86-1.1-5.94
									c-0.01-0.01-0.01-0.01,0-0.02c-0.27-1.25-0.5-2.43-0.51-3.41c-1,1.56-1.26,3.85-1.71,5.92c0,0-0.01,0,0,0.01
									c-0.21,0.99-0.47,1.91-0.88,2.7c-2.87-0.56-4.98-1.09-4.98-1.09s1.2-4.47,2.89-10.72c3.21-11.9,8.16-30.25,9.9-36.5
									c0.35-0.46,0.7-0.9,1.07-1.34c16.27-20.01,39.98-32.78,65.68-37.35c33.8-6.02,60.8,4.27,73.23,10.29
									c0.05,0.64,0.22,1.29,0.55,1.96c5.91,11.87,12.07,25.37,16.62,39.42C518.14,173.585,517.75,185.235,515.09,196.365z"/>
							</g>
							<g style="opacity:0.36;">
								<path style="fill:#D362A4;" d="M504.78,158.705c0.27,10.92-0.41,26.49-5.21,44.26c-0.26,0.98-0.54,1.97-0.83,2.96
									c-2.01,6.88-4.28,12.81-6.45,17.8c-2.719,6.229-5.283,10.995-7.009,14.355c0.271,0.435,0.543,0.869,0.816,1.304
									c4.858-5.527,9.34-11.366,13.173-16.789c7.73-3.49,13.02-14.57,15.82-26.23C513.38,185.155,504.78,158.705,504.78,158.705z"
									/>
							</g>
						</g>
					</g>
					<g>
						<g>
							<path style="fill:#C64C8F;" d="M357.05,182.425c-1.32,4.98-2.24,10.06-2.74,15.19c-0.27-1.25-0.5-2.43-0.51-3.41
								c-1,1.56-1.26,3.85-1.71,5.92c0.44-6.16,1.45-12.27,3.03-18.23C355.45,180.655,357.38,181.185,357.05,182.425z"/>
						</g>
						<g>
							<path style="fill:#C64C8F;" d="M400.22,189.765c-0.29-1.05-0.65-2.08-1.08-3.08c-0.31,1.2-0.67,2.47-1.05,3.78
								c0-0.06,0.01-0.13,0.02-0.19c1.08-5.8,1.47-11.7,1.18-17.59c-0.07-1.29,1.94-1.28,2,0
								C401.56,178.405,401.2,184.135,400.22,189.765z"/>
						</g>
						<g>
							<path style="fill:#C64C8F;" d="M440.49,205.255c0.02-0.07,0.05-0.14,0.08-0.22c0.19-0.4,0.36-0.81,0.5-1.22
								c0.74-1.99,1.03-4.12,1.04-6.25c0.04-4.79-1.16-9.52-2.13-14.18c-1.08-5.2-2.16-10.4-3.24-15.6
								c-0.26-1.26,1.67-1.79,1.93-0.53c0.64,3.06,1.27,6.12,1.91,9.19c1.06,5.08,2.3,10.17,3.06,15.31
								c0.59,4.03,0.75,8.16-0.47,12.03c-0.22,0.73-0.5,1.45-0.84,2.16L440.49,205.255z"/>
						</g>
					</g>
				</g>
				<g>
					<g>
						<path style="fill:#D362A4;" d="M579.089,263.796c-1.91-3.651-3.831-7.302-5.751-10.963c0.507,3.946,1.014,7.882,1.521,11.827
							l-36.524,7.472c-1.631-3.598-3.081-7.284-4.35-11.028c-0.034,3.98-0.077,7.96-0.12,11.939l-25.258,5.164
							c0,0,11.64-88.778,2.016-103.114c-9.624-14.326-21.048-26.901-21.048-26.901s-0.126-1.322-0.242-3.483
							c-0.56-10.957-0.603-43.659,19.377-38.991c23.95,5.602,44.341,11.155,50.007,61.9c5.666,50.735,28.309,94.555,28.309,94.555
							L579.089,263.796z"/>
					</g>
					<g>
						<path style="fill:#0B3B49;" d="M508.882,160.136c-1.614,0-2.947-1.283-2.997-2.908c-0.161-5.285-1.482-13.221-6.859-21.017
							c-4.611-6.685-10.385-10.536-14.416-12.588c-1.477-0.752-2.064-2.558-1.313-4.035c0.753-1.478,2.561-2.062,4.035-1.312
							c4.648,2.367,11.309,6.81,16.633,14.528c6.207,8.999,7.731,18.149,7.918,24.24c0.05,1.656-1.251,3.04-2.907,3.09
							C508.944,160.136,508.913,160.136,508.882,160.136z"/>
					</g>
					<g>
						<g>
							<path style="fill:#C64C8F;" d="M496.1,122.875l6.56,0.57c0.01,0,0.01,0,0.01,0c6.16,1.55,11.53,6,15.01,11.3
								c5.41,8.24,6.92,18.35,8.25,27.92c1.55,11.05,2.84,22.14,3.89,33.25c1.06,11.15,1.87,22.32,2.43,33.51
								c0.57,11.14,0.88,22.29,0.96,33.44c0.01,1.39,0.01,2.78,0.01,4.16c0,1.29,2,1.29,2,0c-0.01-11.39-0.28-22.78-0.8-34.16
								c-0.52-11.38-1.3-22.75-2.33-34.09c-1.03-11.34-2.32-22.66-3.86-33.94c-1.35-10-2.67-20.41-7.74-29.32
								c-2.78-4.9-6.97-9.28-12-11.95c-1.78-0.95-3.66-1.68-5.63-2.14c-0.01,0-0.01,0-0.01,0L496.1,122.875z"/>
						</g>
					</g>
					<g>
						<g>
							<g>
								<path style="fill:#C64C8F;" d="M502.67,123.445c0,0,0,0-0.01,0l-6.56-0.57c0.56-0.21,1.12-0.39,1.69-0.55
									c1.66-0.48,3.36-0.77,5.06-0.9c0,0,0,0,0.01,0c7.68-0.61,15.51,2.06,21.85,6.33c8.6,5.79,14.4,14.67,18.56,24.01
									c2.19,4.89,3.99,9.94,5.68,15.03c1.91,5.74,3.74,11.51,5.57,17.27c3.77,11.89,7.43,23.81,10.99,35.76
									c3.57,11.99,7.03,24.01,10.39,36.06c0.35,1.25-1.58,1.77-1.93,0.53c-0.4-1.46-0.81-2.91-1.22-4.37
									c-3.32-11.8-6.73-23.56-10.25-35.3c-3.52-11.74-7.13-23.44-10.85-35.11c-1.75-5.49-3.48-10.98-5.34-16.42
									c-1.69-4.98-3.52-9.91-5.78-14.66c-4.28-8.93-10.2-17.24-18.86-22.36c-4-2.36-8.54-4.05-13.18-4.63
									C506.56,123.325,504.61,123.275,502.67,123.445L502.67,123.445z"/>
							</g>
						</g>
					</g>
				</g>
			</g>
			<g>
				<g>
					<g>
						<g>
							<path style="fill:#F9B399;" d="M466.966,238.004c-1.527,13.234-10.401,23.082-19.823,21.995
								c-9.421-1.087-15.821-12.697-14.295-25.931c1.527-13.235,10.402-23.082,19.823-21.995
								C462.093,213.16,468.493,224.769,466.966,238.004z"/>
						</g>
						<g>
							<g>
								<path style="fill:#AE5A52;" d="M451.853,222.774c-2.515,3.364-4.845,7.307-6.036,11.345
									c-1.195,4.053-1.015,6.338,1.649,9.576c0.67,0.814,0.359,2.051-0.645,2.397c-4.809,1.657-5.871-5.922-5.504-9.052
									c0.769-6.551,4.012-12.312,9.214-16.243C451.753,219.876,452.515,221.889,451.853,222.774L451.853,222.774z"/>
							</g>
						</g>
						<g>
							<g>
								<path style="fill:#AE5A52;" d="M442.619,236.602c1.114-2.965,3.093-5.503,6.103-6.656c2.605-0.998,6.933-1.471,8.8,1.112
									c0.685,0.947,0.258,2.303-0.977,2.402c-2.203,0.176-4.131-0.812-6.409-0.181c-2.386,0.661-4.58,1.994-5.849,4.141
									C443.717,238.386,442.228,237.643,442.619,236.602L442.619,236.602z"/>
							</g>
						</g>
					</g>
					<g>
						<path style="fill:#F7CF8F;" d="M457.579,220.051c0,0.824-0.668,1.491-1.491,1.491s-1.491-0.668-1.491-1.491
							s0.668-1.491,1.491-1.491S457.579,219.228,457.579,220.051z"/>
					</g>
				</g>
				<g>
					<g>
						<g>
							
								<rect x="447.583" y="253.331" transform="matrix(0.9999 -0.0118 0.0118 0.9999 -3.1681 5.3226)" style="fill:#D362A4;" width="3" height="35.148"/>
						</g>
					</g>
					<g>
						<g>
							<path style="fill:#D362A4;" d="M444.283,319.856c-0.204-0.019-0.409-0.066-0.609-0.143c-0.897-0.343-1.462-1.186-1.439-2.147
								l0.171-7.296l-7.277,0.573c-0.962,0.075-1.83-0.444-2.222-1.32c-0.392-0.877-0.196-1.874,0.499-2.536l5.282-5.041
								l-5.551-4.741c-0.731-0.623-0.982-1.606-0.639-2.505c0.343-0.898,1.186-1.463,2.148-1.44l7.296,0.171l-0.573-7.277
								c-0.075-0.958,0.443-1.83,1.32-2.222c0.88-0.394,1.874-0.195,2.536,0.499l5.04,5.281l4.741-5.551
								c0.623-0.732,1.609-0.985,2.505-0.639c0.897,0.342,1.463,1.185,1.44,2.146l-0.17,7.298l7.277-0.573
								c0.955-0.074,1.831,0.443,2.222,1.32c0.392,0.877,0.195,1.873-0.499,2.536l-5.281,5.04l5.551,4.741
								c0.731,0.625,0.981,1.608,0.638,2.505c-0.343,0.897-1.186,1.462-2.146,1.44l-7.297-0.17l0.573,7.277
								c0.075,0.958-0.443,1.83-1.32,2.222c-0.88,0.392-1.874,0.194-2.536-0.499l-5.041-5.281l-4.741,5.551
								C445.694,319.643,444.992,319.921,444.283,319.856z M443.388,307.215c0.494,0.046,0.966,0.256,1.332,0.601
								c0.461,0.436,0.717,1.049,0.702,1.682l-0.14,6.007l3.901-4.567c0.41-0.482,1.009-0.768,1.641-0.786
								c0.629-0.02,1.245,0.235,1.685,0.693l4.148,4.347l-0.472-5.99c-0.05-0.629,0.171-1.256,0.606-1.717
								c0.435-0.46,1.049-0.715,1.683-0.699l6.003,0.141l-4.568-3.902c-0.481-0.408-0.767-1.007-0.786-1.64
								c-0.018-0.634,0.235-1.248,0.694-1.686l4.346-4.147l-5.99,0.472c-0.633,0.05-1.259-0.173-1.719-0.608
								c-0.459-0.435-0.713-1.048-0.698-1.681l0.141-6.004l-3.902,4.569c-0.408,0.481-1.007,0.767-1.64,0.786
								c-0.634,0.016-1.248-0.235-1.686-0.694l-4.147-4.346l0.472,5.99c0.049,0.631-0.171,1.256-0.607,1.715
								c-0.435,0.46-1.047,0.716-1.679,0.701l-6.007-0.14l4.567,3.901c0.483,0.412,0.768,1.011,0.786,1.643
								c0.017,0.632-0.235,1.245-0.693,1.683l-4.347,4.148l5.99-0.472C443.134,307.202,443.262,307.203,443.388,307.215z
								 M443.245,310.203l-0.002,0.001C443.243,310.203,443.244,310.203,443.245,310.203z M461.856,300.741l0.002,0.001
								C461.857,300.742,461.857,300.741,461.856,300.741z M449.716,290.35c0,0-0.001,0.001-0.001,0.002L449.716,290.35z
								 M455.949,285.597L455.949,285.597C455.949,285.598,455.949,285.598,455.949,285.597L455.949,285.597z"/>
						</g>
					</g>
				</g>
				<g>
					<g>
						<path style="fill:#F7CF8F;" d="M457.562,242.105c1.505,2.564,4.56,3.794,7.444,3.332c2.822-0.452,4.982-2.891,5.421-5.665
							c0.262-1.654,0.034-3.34-0.839-4.79c-0.405-0.672-1.365-0.981-2.052-0.538c-0.676,0.436-0.971,1.333-0.538,2.052
							c0.063,0.105,0.125,0.211,0.181,0.319c0.057,0.11,0.142,0.331,0.051,0.085c0.092,0.247,0.174,0.495,0.233,0.753
							c0.027,0.118,0.043,0.239,0.069,0.358c0.037,0.171-0.014-0.081-0.014-0.097c0.002,0.061,0.012,0.121,0.015,0.182
							c0.013,0.286,0.012,0.567-0.004,0.853c-0.003,0.061-0.013,0.122-0.017,0.183c0.001-0.018,0.051-0.266,0.013-0.096
							c-0.027,0.119-0.043,0.241-0.069,0.361c-0.058,0.26-0.14,0.51-0.223,0.763c-0.09,0.273,0.09-0.165-0.035,0.094
							c-0.053,0.11-0.106,0.22-0.164,0.327c-0.058,0.107-0.119,0.213-0.184,0.316c-0.038,0.06-0.249,0.376-0.16,0.248
							c0.095-0.137-0.112,0.133-0.151,0.177c-0.081,0.091-0.164,0.178-0.251,0.263c-0.086,0.084-0.189,0.157-0.27,0.245
							c-0.109,0.118,0.044-0.03,0.065-0.045c-0.066,0.048-0.132,0.095-0.2,0.141c-0.119,0.079-0.242,0.153-0.367,0.221
							c-0.049,0.027-0.363,0.186-0.205,0.11c0.155-0.075-0.161,0.059-0.217,0.078c-0.134,0.045-0.27,0.085-0.408,0.118
							c-0.118,0.029-0.237,0.051-0.356,0.075c-0.29,0.057,0.213-0.006-0.083,0.008c-0.265,0.013-0.526,0.025-0.792,0.011
							c-0.057-0.003-0.418-0.031-0.226-0.013c0.189,0.018-0.165-0.03-0.223-0.041c-0.26-0.052-0.517-0.121-0.768-0.207
							c-0.056-0.019-0.115-0.048-0.173-0.062c-0.202-0.048,0.204,0.105,0.019,0.012c-0.146-0.073-0.294-0.139-0.437-0.218
							c-0.124-0.069-0.247-0.141-0.366-0.219c-0.062-0.04-0.36-0.266-0.242-0.167c0.12,0.1-0.165-0.15-0.217-0.199
							c-0.103-0.098-0.199-0.201-0.296-0.304c-0.042-0.044-0.077-0.094-0.119-0.137c0.087,0.09,0.103,0.147,0.012,0.015
							c-0.093-0.135-0.181-0.271-0.264-0.412c-0.397-0.677-1.371-0.978-2.052-0.538
							C457.418,240.492,457.137,241.381,457.562,242.105L457.562,242.105z"/>
					</g>
				</g>
			</g>
			<g>
				<g>
					<g>
						<path style="fill:#FA846A;" d="M587.89,380.565c-0.84,3.4-1.58,5.43-1.58,5.43s-22.72-31.28-21.81-40.71
							c0.23-2.38-0.13-3.14-0.95-3.17c-0.4-0.01-0.9,0.15-1.51,0.38c-1.47,0.57-3.5,1.55-5.9,1.46c-0.23,0-0.46-0.02-0.69-0.05
							c-2.45-0.29-5.23-1.77-8.15-5.87c-3.36-4.72-9.18-10.31-15.39-15.65c-4.71-9.19-12.76-24.19-17.08-32.19
							c5.79-4.31,15.25-7.46,30.13-3.3c27.39,7.67,39.37,39.57,43.54,58.75c0.47,2.17,0.84,4.19,1.12,5.98
							C591.43,363.105,589.48,374.215,587.89,380.565z"/>
					</g>
					<g>
						<g>
							<path d="M549.659,304.055c2.365,7.673,5.36,15.11,8.73,22.394c1.319,2.85,2.781,5.688,3.751,8.683
								c0.176,0.544,0.332,1.096,0.449,1.656c0.113,0.543,0.147,0.733,0.166,1.323c0.007,0.23,0.004,0.46-0.013,0.69
								c-0.008,0.104-0.017,0.208-0.031,0.311c0.028-0.21-0.023,0.104-0.037,0.168c-0.045,0.214-0.105,0.422-0.173,0.629
								c-0.019,0.058-0.116,0.304-0.041,0.127c-0.046,0.108-0.097,0.214-0.151,0.319c-0.102,0.198-0.22,0.384-0.341,0.57
								c-0.028,0.043-0.059,0.084-0.089,0.126c-0.085,0.12,0.152-0.182-0.016,0.022c-0.073,0.089-0.148,0.177-0.225,0.261
								c-0.425,0.463-0.753,0.716-1.26,1.026c-1.624,0.992-3.577,1.4-5.444,1.619c-0.536,0.063-1,0.415-1,1c0,0.492,0.46,1.063,1,1
								c3.006-0.353,6.465-1.108,8.444-3.621c1.362-1.729,1.581-3.837,1.171-5.946c-0.564-2.902-1.972-5.657-3.202-8.32
								c-1.908-4.129-3.818-8.253-5.498-12.482c-1.578-3.971-3.002-8.004-4.26-12.087
								C551.21,302.297,549.279,302.82,549.659,304.055L549.659,304.055z"/>
						</g>
					</g>
					<g>
						<g>
							<path d="M571.53,317.147c4.783,13.847,5.931,28.553,6.244,43.102c0.089,4.129,0.112,8.259,0.133,12.389
								c0.006,1.287,2.006,1.289,2,0c-0.073-14.757-0.176-29.659-3.202-44.167c-0.837-4.015-1.908-7.979-3.247-11.857
								C573.041,315.406,571.108,315.925,571.53,317.147L571.53,317.147z"/>
						</g>
					</g>
					<g>
						<path d="M560.802,336.4c-1.067-2.928-5.596-12.227-9.628-11.214c-1.084,0.272-1.951,1.149-2.403,2.171
							c-1.429,3.225-0.04,7.873,1.728,10.691c1.987,3.167,4.988,5.557,8.071,7.68c0.833,0.574,2.452,1.444,3.168,0.223
							c0.237-0.404,0.282-0.889,0.306-1.357C562.194,341.681,561.731,338.949,560.802,336.4z"/>
					</g>
				</g>
				<g>
					<g>
						<path d="M587.743,346.599c0.802,10.089,0.934,20.228,0.38,30.334c-0.157,2.875-0.372,5.747-0.638,8.615
							c-0.05,0.538,0.495,1,1,1c0.582,0,0.95-0.46,1-1c0.935-10.077,1.201-20.214,0.781-30.326c-0.12-2.877-0.296-5.752-0.524-8.622
							C589.641,345.325,587.641,345.314,587.743,346.599L587.743,346.599z"/>
					</g>
				</g>
			</g>
		</g>
	</g>
	<g>
		<g>
			<g>
				<path style="fill:#FFFFFF;" d="M485.843,114.522c23.179-0.951,26.895-4.985,25.926-28.159
					c0.962,23.156,4.977,26.872,28.151,25.923c-23.168,0.947-26.886,4.957-25.917,28.149
					C513.033,117.256,509.021,113.565,485.843,114.522z"/>
			</g>
		</g>
		<g>
			<g>
				<path style="fill:#FFFFFF;" d="M132.568,181.208c23.17-0.961,26.885-4.976,25.928-28.153
					c0.957,23.178,4.981,26.883,28.157,25.921c-23.175,0.963-26.893,4.972-25.926,28.159
					C159.761,183.935,155.754,180.242,132.568,181.208z"/>
			</g>
		</g>
		<g>
			<g>
				<path style="fill:#FFFFFF;" d="M271.665,328.541c12.138-0.503,14.085-2.607,13.584-14.749
					c0.501,12.142,2.61,14.084,14.751,13.579c-12.141,0.504-14.089,2.605-13.582,14.752
					C285.912,329.969,283.812,328.035,271.665,328.541z"/>
			</g>
		</g>
	</g>
</g>
</svg>
