<svg width="810" height="810" viewBox="0 0 810 810" fill="none" xmlns="http://www.w3.org/2000/svg">
<g clip-path="url(#clip0_876_165)">
<path d="M473.66 227.728H597.833C597.833 227.728 591.661 219.69 584.854 218.685C584.854 218.685 571.617 179.276 549.453 178.994C528.849 178.733 520.588 203.231 520.588 203.231C520.588 203.231 511.043 192.242 501.923 197.267C492.802 202.291 487.639 216.675 487.639 216.675C487.639 216.675 477.381 222.202 473.66 227.728Z" fill="#DDE8FE"/>
<path d="M183.574 193.316H267.91C267.91 193.316 263.717 187.857 259.094 187.175C259.094 187.175 250.104 160.409 235.051 160.218C221.056 160.04 215.446 176.679 215.446 176.679C215.446 176.679 208.964 169.216 202.77 172.629C196.575 176.041 193.067 185.811 193.067 185.811C193.067 185.811 186.101 189.565 183.574 193.316Z" fill="#DDE8FE"/>
<path d="M229.874 260.744H72.8477C72.8477 260.744 72.8477 250.708 94.4828 248.745C94.4828 248.745 114.232 204.894 144.385 210.785C163.164 214.452 172.764 240.236 172.764 240.236C172.764 240.236 186.954 219.947 198.305 223.874C209.657 227.801 216.396 249.399 216.396 249.399C216.396 249.399 228.102 255.072 229.874 260.744Z" fill="#DDE8FE"/>
<path d="M709.36 109.648H602.586C602.586 109.648 612.662 100.27 617.14 100.27C621.619 100.27 634.689 68.7853 651.392 70.1251C668.094 71.4648 676.954 94.9111 676.954 94.9111C676.954 94.9111 697.254 88.5461 709.36 109.648Z" fill="#DDE8FE"/>
<path d="M737.153 278.781H681.57C681.57 278.781 686.816 273.899 689.147 273.899C691.478 273.899 698.282 257.509 706.977 258.206C715.671 258.902 720.283 271.109 720.283 271.109C720.283 271.109 730.851 267.796 737.153 278.781Z" fill="#DDE8FE"/>
<path d="M473.66 328.165H382.352C382.352 328.165 386.891 322.254 391.897 321.515C391.897 321.515 401.63 292.535 417.927 292.329C433.079 292.138 439.152 310.151 439.152 310.151C439.152 310.151 446.171 302.072 452.877 305.765C459.583 309.459 463.381 320.038 463.381 320.038C463.381 320.038 470.922 324.101 473.66 328.165Z" fill="#DDE8FE"/>
<path d="M64.8281 423.651C64.8281 423.651 194.096 365.606 288.508 365.606C380.927 365.606 506.275 394.93 540.345 401.498C629.824 418.746 745.008 423.651 745.008 423.651H64.8281Z" fill="#70547E"/>
<path d="M745.008 423.651C745.008 423.651 674.542 384.739 594.938 384.739C539.377 384.739 459.628 400.406 384.516 409.215C355.922 412.569 207.047 423.65 207.047 423.65H745.008V423.651Z" fill="#C08EBB"/>
<path d="M532.485 387.302C532.485 387.302 542.302 409.168 526.236 409.168C510.171 409.168 520.584 386.556 520.584 386.556C520.584 386.556 516.865 384.92 521.179 372.722C525.493 360.523 527.421 360.523 529.211 360.523C531.476 360.523 533.583 365.804 532.038 373.911C532.039 373.914 537.691 384.029 532.485 387.302Z" fill="#F64C72"/>
<path d="M524.812 423.672L526.361 390.729L527.908 423.672H524.812Z" fill="#881F63"/>
<path d="M525.73 404.541L531.569 397.721L526.989 405.444L525.73 404.541Z" fill="#DE8DBA"/>
<path d="M82.9361 384.347C82.9361 384.347 93.552 407.991 76.1807 407.991C58.8094 407.991 70.0684 383.542 70.0684 383.542C70.0684 383.542 66.0476 381.773 70.7116 368.583C75.3756 355.393 77.4605 355.393 79.3964 355.393C81.8442 355.393 84.1235 361.103 82.4533 369.869C82.4533 369.869 88.5672 380.809 82.9361 384.347Z" fill="#F64C72"/>
<path d="M74.6406 423.672L76.3157 388.053L77.9892 423.672H74.6406Z" fill="#881F63"/>
<path d="M75.6367 402.987L81.9482 395.612L76.9975 403.962L75.6367 402.987Z" fill="#DE8DBA"/>
<path d="M312.103 386.286C312.103 386.286 317.136 384.288 321.131 391.24C325.228 398.368 320.093 403.064 316.019 400.268C316.019 400.268 312.822 406.98 306.432 405.381C300.039 403.783 299.001 398.669 299.001 398.669C299.001 398.669 293.327 399.069 293.169 394.835C293.008 390.6 297.164 386.845 297.164 386.845C297.164 386.845 297.403 376.299 304.274 376.378C311.144 376.457 312.103 386.286 312.103 386.286Z" fill="#F64C72"/>
<path d="M307.428 423.661L305.989 392.278L304.551 423.661H307.428Z" fill="#881F63"/>
<path d="M306.604 403.695L310.826 395.269L305.371 402.954L306.604 403.695Z" fill="#DE8DBA"/>
<path d="M726.044 387.302C726.044 387.302 716.227 409.168 732.292 409.168C748.358 409.168 737.944 386.556 737.944 386.556C737.944 386.556 741.664 384.92 737.35 372.722C733.036 360.523 731.108 360.523 729.316 360.523C727.053 360.523 724.944 365.804 726.489 373.911C726.491 373.914 720.839 384.029 726.044 387.302Z" fill="#F64C72"/>
<path d="M733.719 423.672L732.17 390.729L730.621 423.672H733.719Z" fill="#881F63"/>
<path d="M732.799 404.541L726.961 397.721L731.539 405.444L732.799 404.541Z" fill="#DE8DBA"/>
<path d="M717.15 386.286C717.15 386.286 722.183 384.288 726.178 391.24C730.275 398.368 725.14 403.064 721.066 400.268C721.066 400.268 717.869 406.98 711.478 405.381C705.086 403.783 704.047 398.669 704.047 398.669C704.047 398.669 698.374 399.069 698.215 394.835C698.055 390.6 702.21 386.845 702.21 386.845C702.21 386.845 702.45 376.299 709.321 376.378C716.191 376.459 717.15 386.286 717.15 386.286Z" fill="#F64C72"/>
<path d="M712.475 423.661L711.036 392.278L709.598 423.661H712.475Z" fill="#A6A6A6"/>
<path d="M711.652 403.695L715.873 395.269L710.418 402.954L711.652 403.695Z" fill="#A6A6A6"/>
<path d="M105.058 374.944C105.058 374.944 111.596 372.349 116.785 381.379C122.107 390.637 115.435 396.738 110.143 393.106C110.143 393.106 105.991 401.823 97.6899 399.748C89.3874 397.673 88.038 391.031 88.038 391.031C88.038 391.031 80.6702 391.549 80.4629 386.05C80.2555 380.55 85.6517 375.672 85.6517 375.672C85.6517 375.672 85.9628 361.973 94.8873 362.077C103.812 362.179 105.058 374.944 105.058 374.944Z" fill="#F64C72"/>
<path d="M98.9857 423.489L97.1179 382.727L95.25 423.489H98.9857Z" fill="#881F63"/>
<path d="M97.917 397.557L103.401 386.612L96.3164 396.594L97.917 397.557Z" fill="#DE8DBA"/>
<path d="M638.289 719.316C697.229 719.316 745.009 711.96 745.009 702.886C745.009 693.812 697.229 686.456 638.289 686.456C579.35 686.456 531.57 693.812 531.57 702.886C531.57 711.96 579.35 719.316 638.289 719.316Z" fill="#94779D"/>
<path d="M64.8281 423.671L149.872 423.277L234.913 423.134L404.999 422.862L575.084 423.133L660.126 423.275L745.17 423.671L660.126 424.068L575.084 424.21L404.999 424.479L234.913 424.209L149.872 424.064L64.8281 423.671Z" fill="#263238"/>
<path d="M719.729 503.89L495.345 535.448C476.034 538.375 465.098 559.184 473.637 576.748L579.169 810H198.635L274.414 638.122C282.837 620.818 272.355 600.266 253.404 596.922L90.2656 565.283V542.231L303.876 540.452C314.896 540.366 324.914 534.033 329.718 524.114L378.831 438.231H398.957L421.922 470.124C429.024 479.383 437.172 486.632 448.433 486.46L719.728 482.547L719.729 503.89Z" fill="#455A64"/>
<path d="M389.997 451.656H387.777L388.328 438.243H389.462L389.997 451.656Z" fill="#F57590"/>
<path d="M392.377 510.397H385.379L387.339 462.64H390.45L392.377 510.397Z" fill="#F57590"/>
<path d="M396.412 610.627H381.281L381.476 605.961L384.57 530.323H393.172L396.218 605.961L396.412 610.627Z" fill="#F57590"/>
<path d="M401.498 736.793H376.145L376.533 727.089L379.984 642.46H397.691L401.109 727.089L401.498 736.793Z" fill="#F57590"/>
<path d="M404.447 810H373.148L374.218 783.951H403.394L404.447 810Z" fill="#F57590"/>
<path d="M90.2656 550.897L103.841 551.464L102.529 554.154L90.2656 553.311V550.897Z" fill="#F57590"/>
<path d="M113.773 551.886L148.247 553.344L146.384 557.183L112.461 554.85L113.773 551.886Z" fill="#F57590"/>
<path d="M161.139 553.895L204.669 555.741L202.093 561.039L159.309 558.074L161.139 553.895Z" fill="#F57590"/>
<path d="M271.172 558.544L268.078 565.591L223.398 562.513L225.974 556.632L271.172 558.544Z" fill="#F57590"/>
<path d="M524.978 498.928L528.023 503.917L476.588 506.574L473.105 500.856L524.978 498.928Z" fill="#F57590"/>
<path d="M604.048 495.963L606.43 499.868L551.69 502.686L548.547 498.037L604.032 495.963H604.048Z" fill="#F57590"/>
<path d="M669.609 493.517L671.423 496.498L622.888 499.009L620.426 495.364L669.593 493.517H669.609Z" fill="#F57590"/>
<path d="M719.732 491.654V494.003L684.367 495.833L682.504 493.047L719.732 491.654Z" fill="#F57590"/>
<path d="M364.18 438.236H413.421L388.8 424.009L364.18 438.236Z" fill="#455A64"/>
<path d="M90.267 579.566V530.323L64.8281 550.086L90.267 579.566Z" fill="#455A64"/>
<path d="M719.734 518.643V469.4L745.172 489.161L719.734 518.643Z" fill="#455A64"/>
<path d="M326.577 98.6724L309.112 119.545L254.777 135.331V100.955L309.112 83.8105L326.577 98.6724Z" fill="#455A64"/>
<path d="M309.111 83.8107L303.786 82.9116L250.961 99.4324L251.578 135.332H254.776V100.955L309.111 83.8107Z" fill="#37474F"/>
<path d="M370.126 167.493L351.822 183.784L253.902 178.914L255.626 144.58L353.545 149.451L370.126 167.493Z" fill="#881F63"/>
<path d="M353.545 149.452L358.375 152.317L373.996 169.018L353.545 187.065L254.604 181.879L253.902 178.915L351.822 183.784L370.126 167.494L353.545 149.452Z" fill="#881F63"/>
<path opacity="0.1" d="M353.545 149.452L358.375 152.317L373.996 169.018L353.545 187.065L254.604 181.879L253.902 178.915L351.822 183.784L370.126 167.494L353.545 149.452Z" fill="black"/>
<path d="M134.445 144.481L153.234 160.216L250.961 152.409L248.198 118.143L150.472 125.95L134.445 144.481Z" fill="#263238"/>
<path d="M134.445 144.481L153.234 160.216L250.961 152.409L250.578 158.332L154.92 165.875L136.78 150.969L134.445 144.481Z" fill="#37474F"/>
<path d="M263.473 501.996H236.66L242.904 68.6344C242.98 63.1555 246.025 58.7734 249.759 58.7734H250.372C254.106 58.7734 257.152 63.1555 257.228 68.6344L263.473 501.996Z" fill="#881F63"/>
<path opacity="0.4" d="M263.473 501.996H236.66L242.904 68.6344C242.98 63.1555 246.025 58.7734 249.759 58.7734H250.372C254.106 58.7734 257.152 63.1555 257.228 68.6344L263.473 501.996Z" fill="black"/>
<g opacity="0.3">
<path d="M247.672 75.4434C247.109 91.3404 246.705 107.242 246.373 123.144C246.015 139.046 245.741 154.95 245.668 170.855C245.595 186.758 245.664 202.665 246.078 218.561L246.498 230.477L247.139 242.381C247.424 246.344 247.789 250.296 248.118 254.257C248.495 258.225 248.776 262.202 248.908 266.182C249.498 282.112 248.648 298.031 247.609 313.901C246.543 329.775 245.233 345.629 244.235 361.501C242.213 393.224 241.445 425.125 244.499 456.816C242.869 440.991 242.109 425.078 242.095 409.168C242.065 393.255 242.748 377.35 243.711 361.471C244.666 345.59 245.934 329.73 246.956 313.86C247.953 297.996 248.756 282.091 248.124 266.215C247.988 262.246 247.677 258.288 247.321 254.337C247.003 250.371 246.65 246.402 246.376 242.431L245.769 230.508L245.383 218.578C245.016 202.67 244.996 186.758 245.118 170.85C245.374 139.033 246.286 107.226 247.672 75.4434Z" fill="black"/>
<path d="M248.746 66.2744C249.193 72.6054 249.585 78.9396 249.959 85.2754L250.865 104.294C251.414 116.976 251.852 129.663 252.121 142.356C252.312 155.05 252.373 167.748 252.119 180.442C251.886 193.133 251.413 205.836 250.07 218.464L250.719 208.967L251.121 199.459C251.291 196.292 251.311 193.119 251.413 189.948C251.515 186.778 251.562 183.606 251.579 180.434C251.745 167.746 251.586 155.057 251.312 142.372C251.134 129.684 250.786 116.998 250.327 104.315L249.566 85.2948C249.323 78.9542 249.062 72.6135 248.746 66.2744Z" fill="black"/>
<path d="M245.504 410.575C246.499 404.41 247.362 398.225 248.183 392.037C249.036 385.853 249.837 379.662 250.557 373.462C252.021 361.064 253.204 348.632 253.998 336.179C254.508 329.959 254.751 323.723 255.068 317.493C255.213 311.256 255.439 305.017 255.297 298.78L255.256 294.1C255.222 292.541 255.112 290.985 255.044 289.426L254.809 284.752C254.744 283.194 254.659 281.637 254.471 280.088C254.151 276.988 253.908 273.874 253.528 270.778L251.964 261.546C254.798 273.736 255.569 286.291 255.836 298.769C256.024 305.017 255.843 311.265 255.744 317.514C255.47 323.756 255.277 330.004 254.804 336.234C253.918 348.699 252.645 361.132 251.09 373.527C249.562 385.923 247.751 398.289 245.504 410.575Z" fill="black"/>
<path d="M255.108 198.006C254.298 205.369 253.585 212.74 252.965 220.114C252.367 227.489 251.826 234.878 251.793 242.263C251.8 245.944 251.813 249.668 252.573 253.237C252.778 254.104 253.005 255.04 253.46 255.688C253.741 256.001 253.805 256.041 254.092 255.784C254.348 255.518 254.56 255.118 254.732 254.714C255.401 253.057 255.756 251.228 256.039 249.419C256.581 245.779 256.715 242.074 256.579 238.386C256.449 234.698 256.01 231.007 255.11 227.413C257.117 234.552 257.536 242.116 256.642 249.503C256.383 251.348 256.088 253.2 255.37 254.985C255.179 255.429 254.97 255.873 254.588 256.281C254.405 256.472 254.082 256.702 253.676 256.645C253.282 256.579 253.059 256.326 252.893 256.119C252.281 255.236 252.096 254.313 251.86 253.396C251.053 249.709 251.021 245.966 250.988 242.257C251.068 234.827 251.623 227.429 252.338 220.055C253.07 212.684 253.993 205.33 255.108 198.006Z" fill="black"/>
<path d="M256.94 357.074C255.563 371.997 254.061 386.911 252.112 401.776C251.619 405.491 251.112 409.205 250.515 412.909C249.974 416.627 249.112 420.285 248.569 423.975C247.461 431.362 246.943 438.855 247.218 446.313C247.39 450.034 247.714 453.77 248.59 457.365C249.05 459.14 249.641 460.938 250.722 462.351C251.263 463.04 251.976 463.587 252.792 463.692C253.575 463.9 254.092 463.135 254.476 462.33C255.211 460.689 255.551 458.828 255.843 457C256.118 455.16 256.295 453.302 256.421 451.439C256.664 447.713 256.703 443.969 256.586 440.235C256.452 436.502 256.201 432.76 255.542 429.092C255.368 428.179 255.174 427.268 254.894 426.39C254.612 425.551 254.273 424.566 253.615 424.15C253.308 423.975 252.896 424.147 252.622 424.456C252.337 424.769 252.123 425.175 251.948 425.593C251.6 426.436 251.38 427.343 251.198 428.253C250.503 431.911 250.351 435.675 250.382 439.41C250.408 441.28 250.497 443.152 250.696 445.012C250.797 445.942 250.926 446.87 251.114 447.786C251.328 448.683 251.503 449.65 252.112 450.376C251.488 449.66 251.294 448.693 251.064 447.797C250.858 446.882 250.712 445.953 250.594 445.024C250.361 443.162 250.238 441.288 250.176 439.414C250.08 435.666 250.15 431.897 250.798 428.176C250.978 427.249 251.193 426.324 251.555 425.431C251.738 424.987 251.958 424.545 252.303 424.161C252.626 423.787 253.246 423.458 253.813 423.753C254.761 424.378 255.002 425.373 255.333 426.249C255.627 427.155 255.832 428.078 256.013 429.003C256.703 432.71 256.98 436.465 257.139 440.215C257.281 443.967 257.267 447.726 257.047 451.479C256.931 453.355 256.768 455.231 256.501 457.099C256.212 458.962 255.898 460.836 255.111 462.63C254.902 463.074 254.663 463.519 254.276 463.905C254.074 464.088 253.852 464.279 253.546 464.363C253.233 464.464 252.943 464.436 252.697 464.408C251.626 464.276 250.75 463.579 250.142 462.814C248.927 461.238 248.328 459.385 247.835 457.559C246.897 453.875 246.575 450.101 246.44 446.344C246.212 438.821 246.781 431.301 247.94 423.879C248.514 420.158 249.394 416.516 249.951 412.82C250.566 409.129 251.093 405.421 251.605 401.711C253.58 386.857 255.315 371.971 256.94 357.074Z" fill="black"/>
<path d="M243.892 501.996C243.406 496.661 242.961 491.322 242.569 485.979L241.461 469.946L240.539 453.901C240.256 448.552 240.024 443.203 239.836 437.852C240.324 443.192 240.769 448.533 241.161 453.874L242.268 469.902L243.188 485.94C243.471 491.288 243.703 496.64 243.892 501.996Z" fill="black"/>
<path d="M250.95 501.996C252.157 497.709 252.531 493.233 252.225 488.843C251.904 484.451 250.74 480.124 248.705 476.225C246.515 472.288 245.262 467.926 244.277 463.587C243.297 459.231 242.682 454.807 242.273 450.375C242.847 454.791 243.718 459.16 244.757 463.474C245.847 467.775 247.184 472.026 249.348 475.883C251.535 479.833 252.684 484.313 252.927 488.799C253.144 493.285 252.518 497.819 250.95 501.996Z" fill="black"/>
<path d="M256.943 371.824C256.266 382.709 256.123 393.626 256.492 404.514C256.706 409.956 257.085 415.397 257.881 420.777C258.778 426.143 259.629 431.557 260.186 436.985C260.75 442.416 261.2 447.87 261.194 453.343C261.174 458.802 260.944 464.318 259.606 469.669C258.004 474.889 257.085 480.251 256.57 485.675C256.057 491.092 255.781 496.545 255.906 501.998C255.421 491.132 255.961 480.045 259.026 469.522C260.288 464.257 260.465 458.774 260.429 453.351C260.325 447.916 260.047 442.477 259.506 437.058C258.997 431.631 258.226 426.255 257.356 420.858C256.586 415.444 256.235 409.987 256.052 404.534C255.705 393.616 256.128 382.698 256.943 371.824Z" fill="black"/>
<path d="M251.965 59.0571C252.566 65.61 253.089 72.171 253.527 78.7369C253.977 85.3028 254.319 91.8751 254.664 98.4474C254.933 105.023 255.19 111.6 255.294 118.184C255.373 124.763 255.39 131.361 254.829 137.922C254.965 134.633 254.976 131.346 254.908 128.058C254.873 124.771 254.777 121.484 254.672 118.197C254.439 111.625 254.187 105.052 253.855 98.4831L251.965 59.0571Z" fill="black"/>
</g>
<path d="M179.464 423.672H114.332C114.332 423.672 114.483 413.978 120.885 411.406C127.287 408.833 131.094 413.852 131.094 413.852C131.094 413.852 133.706 396.027 145.639 396.027C157.571 396.027 163.282 411.404 163.282 411.404C163.282 411.404 165.955 406.756 172.579 407.621C179.202 408.486 179.464 423.672 179.464 423.672Z" fill="#37474F"/>
<path d="M259.239 506.953H194.105C194.105 506.953 194.256 497.259 200.658 494.687C207.061 492.116 210.868 497.133 210.868 497.133C210.868 497.133 213.479 479.308 225.412 479.308C237.345 479.308 243.055 494.685 243.055 494.685C243.055 494.685 245.728 490.037 252.353 490.902C258.975 491.769 259.239 506.953 259.239 506.953Z" fill="#37474F"/>
<path d="M745.169 423.672C745.169 423.672 743.172 414.356 739.185 412.92C735.196 411.485 732.771 415.666 732.771 415.666C732.771 415.666 731.832 406.764 726.178 404.101C720.524 401.438 716.28 406.892 716.28 406.892C716.28 406.892 711.941 395.596 704.19 395.596C696.438 395.596 692.527 412.123 692.527 412.123C692.527 412.123 687.954 407.199 683.264 409.98C678.574 412.762 678.574 423.674 678.574 423.674H745.169V423.672Z" fill="#37474F"/>
<path d="M126.005 423.672H65.9453C65.9453 423.672 67.9233 415.204 71.9053 414.605C75.8889 414.006 77.7405 417.932 77.7405 417.932C77.7405 417.932 77.5607 406.123 84.9981 404.111C92.4355 402.099 98.6742 412.533 98.6742 412.533C98.6742 412.533 103.338 406.583 109.693 406.965C116.049 407.346 117.662 417.176 117.662 417.176C117.662 417.176 123.449 413.763 126.005 423.672Z" fill="#455A64"/>
<path d="M307.9 506.953H247.84C247.84 506.953 249.818 498.486 253.8 497.886C257.783 497.287 259.635 501.214 259.635 501.214C259.635 501.214 259.455 489.404 266.893 487.392C274.332 485.38 280.569 495.814 280.569 495.814C280.569 495.814 285.233 489.864 291.588 490.246C297.943 490.627 299.557 500.457 299.557 500.457C299.557 500.457 305.343 497.044 307.9 506.953Z" fill="#455A64"/>
<path d="M682.881 423.672H645.98C645.98 423.672 646.066 418.18 649.694 416.722C653.321 415.266 655.477 418.109 655.477 418.109C655.477 418.109 656.956 408.012 663.716 408.012C670.476 408.012 673.712 416.724 673.712 416.724C673.712 416.724 675.226 414.09 678.978 414.581C682.732 415.068 682.881 423.672 682.881 423.672Z" fill="#455A64"/>
<path d="M180.102 423.672H217.002C217.002 423.672 216.916 418.18 213.289 416.722C209.662 415.266 207.504 418.109 207.504 418.109C207.504 418.109 206.025 408.012 199.265 408.012C192.504 408.012 189.269 416.724 189.269 416.724C189.269 416.724 187.754 414.09 184.003 414.581C180.251 415.068 180.102 423.672 180.102 423.672Z" fill="#455A64"/>
<path d="M663.151 282.813C667.674 283.366 672.001 275.972 673.591 270.647C673.714 270.235 672.74 266.368 671.734 261.596C671.135 258.698 670.537 255.455 670.203 252.458L651.91 259.112C651.91 259.112 654.455 265.191 655.004 270.42C655.045 270.857 655.046 271.269 655.011 271.664C655.011 271.721 655.003 271.792 655.006 271.872C654.884 274.251 658.781 282.275 663.151 282.813Z" fill="#AD6359"/>
<path d="M655.005 271.671L655.011 271.871C655.6 271.897 656.244 271.849 656.944 271.758C667.128 270.399 668.921 257.698 669.222 252.815L651.914 259.116C651.914 259.116 654.459 265.192 654.999 270.425C655.037 270.853 655.05 271.269 655.005 271.671Z" fill="#263238"/>
<path d="M677.629 227.994C679.636 236.098 675.3 255.885 669.353 260.719C660.731 267.726 647.23 267.716 641.432 257.494C635.812 247.584 641.615 222.635 648.2 218.304C657.901 211.928 674.666 216.02 677.629 227.994Z" fill="#AD6359"/>
<path d="M642.768 229.693C642.768 229.693 642.187 234.5 645.258 236.081C645.505 236.207 654.891 259.872 671.891 258.581C671.891 258.581 685.086 244.523 682.22 231.252C680.369 222.674 674.618 220.08 674.618 220.08C674.618 220.08 662.979 208.972 648.921 213.811C634.861 218.653 637.596 228.904 642.768 229.693Z" fill="#263238"/>
<path d="M682.279 273.441C704.265 287.388 743.474 328.426 739.904 339.101C732.704 360.63 703.836 389.352 696.258 394.901C691.851 398.128 659.404 368.969 663.605 364.911C668.51 360.174 698.736 334.693 698.945 332.041C699.104 330.021 683.709 307.531 672.481 288.489C659.458 266.406 671.799 266.794 682.279 273.441Z" fill="#AD6359"/>
<path d="M668.215 362.237C668.215 362.237 653.807 370.509 644.64 376.36C639.525 379.626 631.255 386.005 628.595 390.122C624.616 396.281 611.906 424.579 618.702 427.808C624.853 430.73 632.684 405.032 632.684 405.032C632.684 405.032 622.488 430.265 630.541 432.423C638.594 434.581 643.582 404.37 643.582 404.37C643.582 404.37 633.688 430.53 642.344 431.442C648.886 432.13 654.946 405.021 654.946 405.021C654.946 405.021 646.597 427.565 653.294 428.563C660.694 429.666 667.857 404.995 667.857 404.995C685.308 404.668 696.013 398.274 699.684 389.54C700.423 387.789 668.215 362.237 668.215 362.237Z" fill="#AD6359"/>
<path d="M635.65 396.08C634.346 399.001 633.005 401.948 631.965 404.974C630.923 408 629.988 411.067 629.234 414.176C627.384 421.802 627.418 426.868 627.45 426.556C628.207 419.151 631.764 408.258 632.806 405.23C633.844 402.21 634.732 399.137 635.769 396.114C635.793 396.04 635.681 396.01 635.65 396.08Z" fill="#263238"/>
<path d="M646.646 399.639C645.141 403.442 643.508 407.159 642.17 411.03C640.84 414.88 639.913 418.649 638.852 422.58C638.77 422.883 638.959 422.828 639.055 422.527C640.273 418.64 641.699 415.141 642.964 411.271C644.223 407.414 645.342 403.477 646.74 399.669C646.761 399.609 646.669 399.583 646.646 399.639Z" fill="#263238"/>
<path d="M656.633 400.999C654.036 406.69 652.492 412.855 651.122 418.937C651.053 419.24 651.29 419.141 651.377 418.835C653.096 412.838 654.404 408.12 656.83 401.088C656.869 400.977 656.688 400.879 656.633 400.999Z" fill="#263238"/>
<path d="M670.86 357.699L702.866 394.161C702.866 394.161 743.247 351.036 741.64 336.471C740.033 321.905 704.537 285.966 684.784 273.668C665.031 261.371 662.703 272.821 670.985 288.504C679.266 304.189 697.72 332.045 697.294 332.776C696.868 333.505 670.86 357.699 670.86 357.699Z" fill="#881F63"/>
<path d="M680.886 348.559C680.141 349.32 679.461 350.147 679.023 351.216C680.076 350.778 680.903 350.098 681.68 349.353C682.409 348.575 683.09 347.749 683.543 346.696C682.474 347.133 681.648 347.814 680.886 348.559ZM722.294 327.126C721.565 327.888 720.884 328.714 720.431 329.783C721.5 329.346 722.326 328.665 723.087 327.92C723.833 327.143 724.513 326.316 724.967 325.263C723.897 325.701 723.071 326.381 722.294 327.126ZM703.161 287.825C702.854 288.246 702.578 288.716 702.351 289.235C702.886 289.008 703.372 288.732 703.809 288.408C703.583 288.214 703.372 288.02 703.161 287.825ZM705.008 312.109C704.247 311.38 703.421 310.683 702.351 310.246C702.805 311.315 703.485 312.141 704.214 312.903C704.992 313.648 705.818 314.328 706.871 314.766C706.434 313.713 705.753 312.887 705.008 312.109ZM721.403 348.559C720.625 347.814 719.799 347.133 718.73 346.696C719.183 347.765 719.864 348.591 720.593 349.353C721.37 350.098 722.196 350.778 723.266 351.216C722.812 350.147 722.132 349.32 721.403 348.559ZM686.022 274.817C685.244 274.071 684.418 273.391 683.349 272.954C683.802 274.007 684.483 274.833 685.228 275.61C685.989 276.339 686.816 277.036 687.885 277.473C687.431 276.404 686.751 275.578 686.022 274.817ZM704.101 386.062C703.323 385.333 702.497 384.636 701.444 384.199C701.882 385.268 702.562 386.094 703.307 386.856C704.069 387.601 704.895 388.281 705.964 388.719C705.51 387.666 704.83 386.84 704.101 386.062ZM703.696 359.526C702.627 359.543 701.574 359.656 700.505 360.093C701.574 360.531 702.627 360.628 703.696 360.644C704.765 360.628 705.834 360.531 706.904 360.093C705.834 359.656 704.765 359.543 703.696 359.526ZM741.555 335.858C740.535 335.453 739.498 335.356 738.494 335.34C737.424 335.372 736.355 335.469 735.286 335.907C736.355 336.344 737.424 336.441 738.494 336.474C739.498 336.441 740.535 336.344 741.555 335.955H741.572C741.62 335.939 741.636 335.923 741.685 335.907C741.636 335.891 741.604 335.874 741.555 335.858ZM716.591 300.623C716.494 300.639 716.397 300.688 716.3 300.72C716.494 300.801 716.688 300.866 716.883 300.931C716.802 300.834 716.688 300.737 716.591 300.623ZM702.189 332.699C701.736 333.768 701.639 334.838 701.622 335.907C701.639 336.976 701.752 338.029 702.189 339.098C702.627 338.029 702.724 336.976 702.74 335.907C702.724 334.838 702.627 333.768 702.189 332.699ZM685.617 296.103C685.179 297.173 685.082 298.226 685.05 299.295C685.082 300.364 685.179 301.433 685.617 302.502C686.054 301.433 686.151 300.364 686.184 299.295C686.168 298.226 686.054 297.173 685.617 296.103Z" fill="#AF95B3"/>
<path opacity="0.1" d="M670.86 357.699L702.866 394.161C702.866 394.161 743.247 351.036 741.64 336.471C740.033 321.905 704.537 285.966 684.784 273.668C665.031 261.371 662.703 272.821 670.985 288.504C679.266 304.189 697.72 332.045 697.294 332.776C696.868 333.505 670.86 357.699 670.86 357.699Z" fill="black"/>
<path d="M693.248 369.402C690.946 367.014 688.699 364.573 686.452 362.132C685.373 360.96 684.283 359.796 683.243 358.59C682.123 357.293 680.869 356.048 679.847 354.675C679.776 354.579 679.886 354.467 679.98 354.545C681.31 355.622 682.496 356.927 683.75 358.095C684.914 359.178 686.029 360.319 687.157 361.443C689.504 363.787 691.85 366.13 694.142 368.527C698.735 373.331 703.173 378.247 707.565 383.234C707.671 383.354 707.504 383.519 707.387 383.407C702.587 378.819 697.857 374.184 693.248 369.402Z" fill="#263238"/>
<path d="M719.189 603.506C719.189 603.506 720.735 664.597 720.737 664.639C720.699 675.93 720.468 685.83 719.868 690.939C719.87 690.967 719.87 690.994 719.857 691.022C719.633 692.95 719.358 694.181 719.013 694.507C718.987 694.534 718.974 694.563 718.946 694.578C715.578 696.844 625.33 699.187 622.156 698.208C618.968 697.244 621.518 688.104 624.949 685.219C628.406 682.332 662.545 665.983 662.545 665.983L661.558 604.924L719.189 603.506Z" fill="#AD6359"/>
<path d="M720.839 652.516C720.839 652.516 720.735 664.596 720.737 664.639C720.699 675.93 720.468 685.83 719.868 690.939C719.87 690.967 719.87 690.994 719.857 691.022C719.523 692.927 719.222 694.184 719.013 694.507C718.987 694.534 718.974 694.563 718.946 694.578C715.578 696.844 625.33 699.187 622.156 698.208C618.968 697.244 621.518 688.104 624.949 685.219C628.406 682.332 662.545 665.983 662.545 665.983L662.48 653.679L720.839 652.516Z" fill="#AF95B3"/>
<path d="M657.016 666.016C663.026 665.026 670.329 666.102 674.813 670.464C674.987 670.633 674.745 670.877 674.553 670.813C668.685 668.825 663.196 667.513 657.026 666.774C656.588 666.72 656.585 666.087 657.016 666.016Z" fill="#263238"/>
<path d="M652.637 668.528C658.647 667.538 665.95 668.612 670.434 672.977C670.609 673.145 670.364 673.39 670.173 673.325C664.305 671.337 658.815 670.025 652.646 669.286C652.211 669.233 652.206 668.599 652.637 668.528Z" fill="#263238"/>
<path d="M648.262 671.041C654.272 670.051 661.575 671.125 666.06 675.489C666.233 675.658 665.99 675.903 665.799 675.838C659.931 673.85 654.442 672.538 648.272 671.799C647.834 671.746 647.831 671.112 648.262 671.041Z" fill="#263238"/>
<path d="M622.156 698.21C625.336 699.19 715.576 696.849 718.952 694.576C720.25 693.735 720.676 680.565 720.733 664.639C720.731 664.472 720.731 664.307 720.729 664.14L662.494 665L662.541 665.986C662.541 665.986 628.401 682.332 624.949 685.224C621.525 688.104 618.974 697.244 622.156 698.21Z" fill="#37474F"/>
<path d="M720.739 664.132V664.647C720.67 680.567 720.258 693.737 718.952 694.578C717.425 695.608 697.865 696.657 676.725 697.411C651.431 698.304 623.886 698.751 622.151 698.218C618.974 697.24 621.532 688.103 624.95 685.219C628.402 682.334 662.541 665.987 662.541 665.987L662.489 665.008L681.911 664.717L720.739 664.132Z" fill="#881F63"/>
<path d="M623.089 694.685C638.291 693.917 699.679 692.253 714.765 692.649C714.888 692.652 714.89 692.735 714.767 692.744C699.715 693.835 638.315 695.001 623.094 694.934C622.775 694.933 622.768 694.701 623.089 694.685Z" fill="#263238"/>
<path opacity="0.1" d="M681.911 664.715C680.485 674.469 678.323 688.842 676.725 697.411C651.431 698.304 623.886 698.751 622.151 698.218C618.974 697.24 621.532 688.103 624.95 685.219C628.402 682.334 662.541 665.987 662.541 665.987L662.489 665.008L681.911 664.715Z" fill="black"/>
<path d="M725.983 664.972L660.678 665.591C660.678 665.591 656.975 559.264 656.691 523.804C656.369 483.304 658.664 361.811 658.664 361.811H707.49C707.49 361.811 720.594 388.584 713.104 418.715L711.034 527.106L725.983 664.972Z" fill="#263238"/>
<path d="M721.141 653.537C719.456 653.229 717.65 653.244 715.941 653.122C714.012 652.985 712.087 652.842 710.154 652.759C706.44 652.602 702.723 652.538 699.006 652.523C691.508 652.494 684.008 652.554 676.513 652.787C672.248 652.92 667.986 653.09 663.727 653.333C663.56 653.343 663.568 653.595 663.733 653.602C671.167 653.872 678.605 653.989 686.042 654.132C693.464 654.274 700.914 654.422 708.337 654.277C710.469 654.235 712.601 654.217 714.729 654.096C716.832 653.976 719.037 654.094 721.119 653.788C721.238 653.769 721.29 653.563 721.141 653.537Z" fill="#37474F"/>
<path d="M665.382 594.844C664.623 577.264 664.059 559.669 663.578 542.078C662.614 506.893 662.372 471.694 662.816 436.498C663.066 416.751 663.592 397.01 664.182 377.27C664.188 377.045 663.845 377.058 663.834 377.28C661.964 412.616 661.253 448.021 661.213 483.401C661.172 518.601 661.909 553.805 663.646 588.962C664.621 608.696 665.823 628.438 667.68 648.11C667.696 648.28 667.955 648.277 667.947 648.102C667.153 630.348 666.15 612.603 665.382 594.844Z" fill="#37474F"/>
<path d="M649.328 613.212C649.328 613.212 648.829 672.256 648.83 672.298C648.795 683.59 648.561 693.489 647.962 698.599C647.964 698.626 647.964 698.654 647.951 698.681C647.727 700.609 647.452 701.839 647.107 702.166C647.081 702.194 647.068 702.221 647.04 702.236C643.672 704.502 553.424 706.845 550.25 705.866C547.062 704.902 549.612 695.762 553.041 692.877C556.498 689.99 590.637 673.641 590.637 673.641L591.696 614.626L649.328 613.212Z" fill="#AD6359"/>
<path d="M648.932 660.176C648.932 660.176 648.829 672.258 648.83 672.298C648.795 683.59 648.561 693.489 647.962 698.599C647.964 698.627 647.964 698.654 647.951 698.682C647.617 700.585 647.316 701.844 647.107 702.166C647.081 702.194 647.068 702.221 647.04 702.236C643.672 704.502 553.424 706.845 550.25 705.866C547.062 704.902 549.612 695.762 553.041 692.877C556.498 689.99 590.637 673.641 590.637 673.641L590.572 661.337L648.932 660.176Z" fill="#AF95B3"/>
<path d="M585.11 673.677C591.12 672.687 598.423 673.761 602.907 678.125C603.081 678.294 602.839 678.538 602.646 678.473C596.779 676.486 591.29 675.174 585.12 674.435C584.682 674.381 584.679 673.748 585.11 673.677Z" fill="#263238"/>
<path d="M580.731 676.189C586.741 675.2 594.044 676.274 598.528 680.638C598.703 680.806 598.459 681.051 598.267 680.986C592.4 678.998 586.91 677.686 580.741 676.947C580.303 676.894 580.3 676.261 580.731 676.189Z" fill="#263238"/>
<path d="M576.355 678.702C582.365 677.712 589.668 678.788 594.152 683.15C594.326 683.319 594.083 683.563 593.89 683.499C588.022 681.511 582.534 680.199 576.363 679.46C575.929 679.407 575.926 678.772 576.355 678.702Z" fill="#263238"/>
<path d="M550.249 705.871C553.429 706.851 643.67 704.51 647.046 702.237C648.344 701.395 648.77 688.226 648.826 672.3C648.825 672.133 648.825 671.966 648.823 671.801L590.587 672.661L590.636 673.648C590.636 673.648 556.496 689.993 553.044 692.885C549.619 695.764 547.068 704.904 550.249 705.871Z" fill="#881F63"/>
<path d="M551.179 702.346C566.381 701.578 627.769 699.914 642.855 700.309C642.978 700.313 642.979 700.395 642.856 700.405C627.805 701.495 566.405 702.662 551.184 702.595C550.865 702.594 550.858 702.362 551.179 702.346Z" fill="#263238"/>
<path d="M679.163 424.312C679.151 424.352 652.375 508.753 651.889 524.274C651.476 537.503 653.169 673.275 653.169 673.275L585.348 673.678C585.348 673.678 591.076 535.222 592.135 521.431C594.115 495.648 616.703 424.867 632.856 361.811H705.973C705.973 361.811 705.338 394.833 690.319 418.715C690.319 418.715 683.52 421.862 679.163 424.312Z" fill="#263238"/>
<path d="M649.568 660.772C641.734 660.545 633.609 660.315 625.772 660.509C618.002 660.702 610.209 660.822 602.447 661.284C598.044 661.546 593.652 661.693 589.259 662.128C589.113 662.142 589.119 662.354 589.264 662.364C597.093 662.819 604.955 662.729 612.794 662.657C620.575 662.586 628.349 662.503 636.125 662.147C640.528 661.944 644.92 661.723 649.317 661.418C649.792 661.384 650.043 660.785 649.568 660.772Z" fill="#37474F"/>
<path d="M634.738 401.594C632.321 409.662 630.282 417.853 628.119 425.992C625.938 434.197 623.764 442.404 621.603 450.614C617.422 466.498 613.291 482.41 610.158 498.54C607.004 514.772 605.092 531.12 604.737 547.658C604.376 564.469 604.726 581.306 604.841 598.118C604.956 615.025 605.099 631.928 605.39 648.831C605.426 650.933 605.471 653.035 605.549 655.136C605.557 655.338 605.859 655.33 605.863 655.128C606.312 638.315 606.074 621.467 606.019 604.65C605.964 587.831 605.742 571.004 605.884 554.185C606.027 537.451 607.308 520.864 610.197 504.37C613.032 488.187 617.019 472.235 621.153 456.342C623.512 447.277 625.893 438.216 628.245 429.149C630.614 420.022 633.146 410.914 635.227 401.718C635.297 401.398 634.829 401.285 634.738 401.594Z" fill="#37474F"/>
<path d="M662.393 425.942C665.771 425.882 669.139 425.652 672.465 425.028C675.823 424.399 678.959 423.283 682.224 422.322C685.321 421.41 688.615 421.269 691.791 420.757C695.014 420.239 698.229 419.397 701.17 417.965C701.309 417.897 701.425 418.106 701.286 418.175C698.369 419.669 695.431 421.083 692.298 422.071C689.083 423.085 685.721 423.225 682.458 424.023C679.102 424.845 675.868 425.937 672.416 426.335C669.071 426.722 665.687 426.711 662.359 426.165C662.225 426.144 662.27 425.943 662.393 425.942Z" fill="#37474F"/>
<path d="M658.116 493.115C658.757 490.614 659.363 488.104 660.042 485.613C661.414 480.573 662.807 475.528 664.332 470.53C667.359 460.598 670.217 450.606 673.42 440.727C675.236 435.125 676.864 429.452 678.996 423.959C679.049 423.824 679.242 423.883 679.213 424.024C678.142 429.144 676.626 434.157 675.267 439.208C673.911 444.254 672.457 449.276 671.001 454.296C668.109 464.271 665.278 474.266 662.119 484.161C661.233 486.936 660.324 489.702 659.366 492.452C658.388 495.261 657.618 498.163 656.445 500.901C656.382 501.05 656.178 500.986 656.206 500.829C656.654 498.219 657.458 495.678 658.116 493.115Z" fill="#37474F"/>
<path d="M628.869 336.697L622.27 372.015C622.27 372.015 700.459 373.105 718.82 371.813C718.82 371.813 699.621 297.033 679.878 275.598C670.003 264.876 658.408 265.677 651.02 273.172C649.15 275.069 626.841 304.555 624.489 315.819C622.44 325.758 628.869 336.697 628.869 336.697Z" fill="#881F63"/>
<path d="M694.412 299.416C696.284 303.528 698.076 307.683 699.805 311.868C699.529 310.603 699.222 309.347 698.875 308.103C698.823 307.917 699.097 307.86 699.16 308.032C699.839 309.878 700.31 311.771 700.565 313.706C706.097 327.295 710.858 341.225 714.738 355.347C715.47 358.013 716.211 360.688 716.828 363.382C717.468 366.178 718.313 368.973 718.675 371.824C718.696 371.984 718.49 372.035 718.432 371.884C717.524 369.515 716.905 367.001 716.212 364.563C715.546 362.219 714.84 359.885 714.14 357.549C712.711 352.774 711.271 348 709.778 343.246C706.824 333.851 703.563 324.554 700.252 315.28C698.358 309.976 696.273 304.733 694.221 299.489C694.18 299.382 694.363 299.311 694.412 299.416Z" fill="#263238"/>
<path d="M680.883 348.559C680.138 349.32 679.458 350.147 679.02 351.216C680.073 350.778 680.9 350.098 681.677 349.353C682.406 348.575 683.087 347.749 683.54 346.696C682.471 347.133 681.645 347.814 680.883 348.559ZM656.907 273.537C656.162 274.298 655.482 275.124 655.044 276.194C656.097 275.74 656.924 275.06 657.701 274.331C658.43 273.553 659.111 272.727 659.564 271.674C658.495 272.111 657.669 272.792 656.907 273.537ZM634.195 339.811C633.45 340.572 632.769 341.399 632.332 342.468C633.401 342.03 634.227 341.35 634.989 340.605C635.734 339.827 636.414 339.001 636.852 337.948C635.783 338.385 634.956 339.066 634.195 339.811ZM639.525 359.688C638.747 358.959 637.921 358.263 636.852 357.825C637.305 358.895 637.986 359.721 638.715 360.482C639.492 361.227 640.319 361.908 641.388 362.345C640.934 361.292 640.254 360.466 639.525 359.688ZM665.105 310.878C664.343 310.149 663.517 309.452 662.448 309.015C662.885 310.084 663.582 310.91 664.311 311.672C665.088 312.417 665.915 313.097 666.968 313.535C666.53 312.482 665.85 311.655 665.105 310.878ZM703.693 359.526C702.624 359.543 701.571 359.656 700.502 360.093C701.571 360.531 702.624 360.628 703.693 360.644C704.762 360.628 705.831 360.531 706.901 360.093C705.831 359.656 704.762 359.543 703.693 359.526ZM684.48 321.554C683.411 321.586 682.341 321.683 681.272 322.121C682.341 322.558 683.411 322.655 684.48 322.688C685.533 322.671 686.602 322.558 687.671 322.121C686.602 321.683 685.533 321.586 684.48 321.554ZM642.781 316.953C641.728 316.985 640.659 317.082 639.59 317.52C640.659 317.957 641.728 318.054 642.781 318.087C643.85 318.054 644.919 317.957 645.989 317.52C644.919 317.082 643.85 316.969 642.781 316.953ZM662.448 358.959C661.379 358.992 660.326 359.089 659.256 359.526C660.326 359.964 661.379 360.061 662.448 360.093C663.517 360.077 664.586 359.964 665.655 359.526C664.586 359.089 663.517 358.992 662.448 358.959ZM665.655 287.728C664.586 287.76 663.517 287.858 662.448 288.295C663.517 288.732 664.586 288.83 665.655 288.862C666.708 288.83 667.778 288.732 668.847 288.295C667.778 287.858 666.708 287.76 665.655 287.728ZM644.433 290.579C643.996 291.648 643.899 292.718 643.866 293.771C643.899 294.84 643.996 295.909 644.433 296.978C644.871 295.909 644.968 294.84 645 293.771C644.984 292.718 644.871 291.648 644.433 290.579ZM681.839 370.834C681.629 371.369 681.483 371.903 681.402 372.438H682.277C682.196 371.903 682.05 371.369 681.839 370.834ZM660.342 332.699C659.904 333.768 659.807 334.838 659.791 335.907C659.807 336.976 659.904 338.029 660.342 339.098C660.779 338.029 660.893 336.976 660.909 335.907C660.893 334.838 660.795 333.768 660.342 332.699ZM702.186 332.699C701.733 333.768 701.636 334.838 701.619 335.907C701.636 336.976 701.749 338.029 702.186 339.098C702.624 338.029 702.721 336.976 702.737 335.907C702.721 334.838 702.624 333.768 702.186 332.699ZM685.614 296.103C685.176 297.173 685.079 298.226 685.047 299.295C685.079 300.364 685.176 301.433 685.614 302.502C686.051 301.433 686.148 300.364 686.181 299.295C686.165 298.226 686.051 297.173 685.614 296.103Z" fill="#AF95B3"/>
<path d="M642.323 285.752C630.727 302.776 620.03 324.298 605.988 348.37C590.319 375.229 576.974 403.046 573.716 408.883C569.523 416.395 616.115 420.703 618.196 415.177C619.53 411.639 630.409 384.878 640.269 360.435C650.13 335.993 655.51 308.56 659.422 291.026C663.94 270.788 650.867 273.208 642.323 285.752Z" fill="#AD6359"/>
<path d="M580.019 396.633C580.019 396.633 578.37 399.213 571.444 412.386C566.656 421.495 560.814 446.743 579.749 468.606C587.003 476.983 596.049 475.553 590.058 465.51C585.838 458.439 582.306 453.9 581.576 451.207C581.576 451.207 593.371 455.656 599.43 451.575C602.137 449.751 609.411 444.601 614.501 439.783C614.501 439.783 613.749 438.393 612.547 436.765C612.547 436.765 620.393 425.281 618.199 415.177L580.019 396.633Z" fill="#AD6359"/>
<path d="M568.262 421.809C569.511 427.056 572.344 438.134 577.813 446.388C583.888 455.557 598.062 471.582 604.785 467.028C609.714 463.689 604.84 457.094 604.84 457.094C604.84 457.094 612.094 462.482 615.886 458.492C619.344 454.855 615.268 449.981 615.268 449.981C615.268 449.981 620.23 452.494 622.885 448.35C626.078 443.365 615.153 438.918 614.025 431.075C613.771 429.315 568.262 421.809 568.262 421.809Z" fill="#AD6359"/>
<path d="M586.43 438.352C588.415 443.094 595.682 452.709 604.611 457.112C604.814 457.211 604.997 457.112 604.833 456.982C596.032 450.045 589.207 441.918 586.518 438.294C586.48 438.247 586.407 438.3 586.43 438.352Z" fill="#263238"/>
<path d="M595.866 432.49C597.997 436.405 605.932 445.979 615.134 450.131C615.34 450.224 615.518 450.112 615.346 449.989C605.851 443.12 598.85 435.884 595.948 432.426C595.909 432.381 595.838 432.439 595.866 432.49Z" fill="#263238"/>
<path d="M577.012 395.15L623.467 413.889C623.467 413.889 641.16 369.629 646.743 354.321C652.326 339.014 659.217 300.64 660.973 286.607C662.729 272.575 652.776 271.588 643.129 283.542C633.483 295.498 609.857 340.114 608.803 341.344C607.751 342.573 577.012 395.15 577.012 395.15Z" fill="#881F63"/>
<path d="M644.434 290.579C643.996 291.649 643.899 292.718 643.867 293.771C643.899 294.84 643.996 295.909 644.434 296.979C644.871 295.909 644.968 294.84 645.001 293.771C644.985 292.718 644.871 291.649 644.434 290.579ZM618.157 349.596C617.704 350.665 617.607 351.734 617.59 352.804C617.607 353.857 617.72 354.926 618.157 355.995C618.595 354.926 618.692 353.857 618.708 352.804C618.692 351.734 618.595 350.665 618.157 349.596ZM642.781 316.953C641.728 316.985 640.659 317.083 639.59 317.52C640.659 317.957 641.728 318.055 642.781 318.087C643.851 318.055 644.92 317.957 645.989 317.52C644.92 317.083 643.851 316.969 642.781 316.953ZM618.157 372.908C617.088 372.924 616.019 373.021 614.95 373.459C616.019 373.896 617.088 374.009 618.157 374.026C619.21 374.009 620.28 373.912 621.349 373.459C620.28 373.021 619.21 372.924 618.157 372.908ZM624.249 407.203C624.816 407.43 625.383 407.576 625.95 407.657C626.079 407.349 626.209 407.041 626.322 406.717C625.626 406.782 624.929 406.912 624.249 407.203ZM594.262 400.383C593.258 400.399 592.237 400.496 591.233 400.885C591.168 400.901 591.12 400.918 591.055 400.95C591.444 401.112 591.849 401.225 592.237 401.29C592.254 401.306 592.27 401.306 592.286 401.306C592.95 401.452 593.598 401.485 594.262 401.501C595.332 401.485 596.385 401.387 597.454 400.95C596.385 400.496 595.332 400.399 594.262 400.383ZM618.546 329.379C617.914 328.779 617.25 328.212 616.424 327.775C616.343 327.904 616.278 328.034 616.197 328.164C616.618 328.941 617.169 329.573 617.752 330.172C618.53 330.917 619.356 331.598 620.409 332.051C619.972 330.982 619.291 330.156 618.546 329.379ZM639.525 359.689C638.748 358.96 637.921 358.263 636.852 357.826C637.306 358.895 637.986 359.721 638.715 360.482C639.493 361.228 640.319 361.908 641.388 362.345C640.935 361.292 640.254 360.466 639.525 359.689ZM599.446 381.542C598.685 380.797 597.859 380.117 596.79 379.679C597.227 380.749 597.907 381.575 598.653 382.336C599.43 383.081 600.256 383.762 601.309 384.199C600.872 383.146 600.192 382.32 599.446 381.542ZM634.195 339.811C633.45 340.573 632.77 341.399 632.332 342.468C633.402 342.031 634.228 341.35 634.989 340.605C635.734 339.827 636.415 339.001 636.852 337.948C635.783 338.386 634.957 339.066 634.195 339.811ZM616.505 392.413C615.76 393.174 615.079 394 614.642 395.069C615.695 394.632 616.521 393.935 617.299 393.206C618.028 392.429 618.724 391.603 619.162 390.55C618.093 390.987 617.266 391.667 616.505 392.413ZM581.14 389.27C580.411 390.031 579.731 390.857 579.277 391.927C580.347 391.489 581.173 390.809 581.934 390.064C582.679 389.286 583.36 388.46 583.813 387.407C582.744 387.844 581.918 388.525 581.14 389.27ZM599.317 359.689C598.588 360.466 597.907 361.292 597.454 362.345C598.523 361.908 599.349 361.228 600.111 360.482C600.856 359.721 601.536 358.895 601.99 357.826C600.921 358.279 600.094 358.96 599.317 359.689ZM655.515 275.271C655.336 275.562 655.174 275.87 655.045 276.194C655.579 275.967 656.033 275.692 656.47 275.368C656.163 275.303 655.839 275.271 655.515 275.271Z" fill="#AF95B3"/>
<path d="M604.323 395.841C601.255 394.579 598.216 393.247 595.178 391.915C593.72 391.275 592.253 390.649 590.816 389.963C589.269 389.225 587.621 388.59 586.132 387.744C586.029 387.686 586.085 387.538 586.202 387.571C587.853 388.022 589.463 388.74 591.082 389.306C592.583 389.83 594.064 390.427 595.546 391.003C598.637 392.205 601.728 393.409 604.79 394.682C610.925 397.234 616.968 399.952 622.992 402.752C623.138 402.82 623.051 403.037 622.9 402.983C616.66 400.709 610.466 398.366 604.323 395.841Z" fill="#263238"/>
<path d="M636.125 381.939C638.208 375.514 640.457 369.156 642.731 362.806C643.838 359.619 645.053 356.473 646.216 353.307C647.473 350.153 648.384 347.014 649.202 343.73C650.961 337.248 652.34 330.647 653.823 324.075L658.219 304.32C657.363 311.021 656.257 317.68 655.045 324.322C653.811 330.961 652.419 337.569 650.767 344.142C649.913 347.39 648.886 350.727 647.595 353.824C646.363 356.964 645.181 360.124 643.893 363.243C641.375 369.503 638.834 375.753 636.125 381.939Z" fill="#263238"/>
<path d="M655.477 320.486C655.815 318.831 656.377 317.269 656.993 315.727C657.636 314.197 658.334 312.689 659.258 311.275C658.921 312.931 658.359 314.494 657.741 316.034C657.097 317.564 656.398 319.07 655.477 320.486Z" fill="#263238"/>
<path d="M668.791 216.545C670.341 216.709 677.061 215.787 681.683 221.817C686.055 227.521 687.918 245.114 688.908 248.934C689.896 252.754 694.947 253.227 696.227 257.661C697.327 261.474 694.565 262.942 694.336 265.761C694.16 267.948 696.425 271.175 694.503 274.444C692.755 277.418 689.556 276.864 687.652 277.823C685.749 278.783 684.644 283.26 681.109 284.537C677.574 285.812 674.357 282.632 672.471 282.692C670.586 282.752 668.465 288.593 662.29 288.214C656.116 287.837 654.225 282.658 651.658 281.682C649.09 280.707 642.74 282.615 639.757 279.499C636.773 276.382 636.182 272.144 634.835 270.61C633.489 269.074 630.748 269.382 629.038 265.8C627.327 262.216 630.643 259.85 631.051 256.702C631.335 254.51 629.352 252.543 630.646 249.175C632.427 244.544 638.066 245.409 640.109 240.651C641.711 236.918 644.849 220.77 654.478 216.609C661.131 213.733 668.791 216.545 668.791 216.545Z" fill="#263238"/>
<path d="M688.7 248.016C689.013 248.86 689.739 249.466 690.39 250.047L692.433 251.738C693.784 252.846 695.151 253.989 696.06 255.414C696.992 256.793 697.286 258.557 696.753 260.081C696.493 260.849 696.028 261.549 695.509 262.246C695.004 262.949 694.39 263.636 694.037 264.617C693.705 265.682 694.066 266.693 694.348 267.511C694.652 268.361 694.988 269.166 695.244 269.984C695.778 271.601 695.937 273.335 695.185 274.817C694.83 275.544 694.272 276.15 693.533 276.51C692.799 276.879 691.945 277.025 691.085 277.093C690.222 277.172 689.339 277.164 688.451 277.195C687.581 277.236 686.615 277.284 685.895 277.833C686.671 277.383 687.584 277.44 688.449 277.462C689.326 277.506 690.209 277.592 691.108 277.587C692.004 277.569 692.932 277.464 693.803 277.087C694.68 276.72 695.419 276.009 695.875 275.172C696.877 273.495 696.646 271.405 696.123 269.712C695.866 268.842 695.537 268.01 695.261 267.193C694.984 266.372 694.769 265.576 694.997 264.925C695.496 263.508 697.058 262.217 697.623 260.375C698.226 258.552 697.849 256.446 696.702 254.977C695.616 253.469 694.158 252.385 692.733 251.343L690.557 249.835C689.868 249.308 689.11 248.806 688.7 248.016Z" fill="#263238"/>
<path d="M645.688 225.864C644.065 228.603 643.083 231.644 641.821 234.524C641.189 235.964 640.606 237.427 639.877 238.796C639.505 239.464 639.129 240.159 638.653 240.688C638.541 240.837 638.421 240.961 638.294 241.043C638.176 241.142 638.061 241.246 637.877 241.33C637.549 241.513 637.199 241.677 636.846 241.837C635.443 242.5 633.946 243.097 632.552 243.943C631.168 244.772 629.828 245.927 629.153 247.492C628.821 248.26 628.625 249.122 628.712 249.976C628.79 250.83 629.124 251.606 629.482 252.314C630.25 253.702 630.972 255.097 631.053 256.705C631.213 255.102 630.54 253.535 629.932 252.106C629.626 251.389 629.368 250.663 629.349 249.93C629.32 249.2 629.525 248.487 629.856 247.824C630.549 246.514 631.688 245.484 633.021 244.734C634.347 243.962 635.809 243.412 637.274 242.752C637.637 242.579 638.001 242.401 638.359 242.192C638.693 242.005 639.158 241.643 639.382 241.32C639.947 240.656 640.308 239.935 640.692 239.221C641.408 237.777 642.017 236.308 642.542 234.809L644.083 230.319C644.57 228.811 645.032 227.302 645.688 225.864Z" fill="#263238"/>
<path d="M633.305 269.568C633.998 270.462 634.11 271.64 634.39 272.722C634.651 273.82 634.912 274.928 635.231 276.028C635.539 277.132 635.94 278.22 636.486 279.264C637.039 280.294 637.755 281.308 638.803 282.016C640.988 283.349 643.538 283.132 645.741 282.682C646.864 282.452 647.958 282.162 649.056 281.958C650.148 281.729 651.269 281.6 652.374 281.901C651.343 281.376 650.12 281.397 648.988 281.467C647.844 281.577 646.726 281.781 645.615 281.914C643.435 282.194 641.1 282.278 639.354 281.169C638.507 280.621 637.859 279.741 637.322 278.805C636.768 277.869 636.371 276.825 635.965 275.784C635.565 274.737 635.224 273.662 634.863 272.584C634.669 272.05 634.471 271.514 634.248 270.987C634.003 270.482 633.792 269.902 633.305 269.568Z" fill="#263238"/>
<path d="M688.005 284.425C688.696 283.841 685.859 274.292 683.359 272.584C680.86 270.877 665.107 270.703 663.268 273.72C661.429 276.738 663.882 286.369 665.013 286.55C666.142 286.733 669.162 286.458 669.745 285.802C670.328 285.146 668.617 279.09 669.495 278.006C670.649 276.584 679.578 276.736 680.426 277.666C681.273 278.596 682.211 283.96 682.381 284.305C682.546 284.65 686.891 285.368 688.005 284.425Z" fill="#881F63"/>
<path d="M641.826 369.885C645.14 376.504 656.746 385.224 663.689 386.514C670.623 387.792 716.576 394.463 724.08 384.87C730.909 376.139 718.549 312.959 705.647 292.82C704.479 290.989 703.303 289.515 702.141 288.478C702.044 288.386 701.955 288.314 701.866 288.233C689.522 277.856 664.658 283.044 661.533 283.882C656.666 285.197 649.798 289.327 646.214 298.54C642.621 307.753 638.5 363.264 641.826 369.885Z" fill="#455A64"/>
<path d="M668.042 366.083C668.713 370.724 675.893 381.725 684.469 384.552C693.034 387.387 724.086 384.873 731.092 378.871C731.877 378.198 732.437 376.809 732.78 374.861C735.23 360.96 726.994 318.651 717.279 305.736C716.224 304.333 715.15 303.27 714.058 302.64C712.707 301.846 711.184 301.161 709.551 300.57C701.667 297.744 690.926 297.186 682.533 299.073C677.117 300.302 672.674 302.549 670.618 305.875C665.382 314.322 667.371 361.449 668.042 366.083Z" fill="#881F63"/>
<path opacity="0.1" d="M668.042 366.083C668.713 370.724 675.893 381.725 684.469 384.552C693.034 387.387 724.086 384.873 731.093 378.871C731.877 378.199 732.437 376.809 732.781 374.861C727.308 378.119 720.938 379.77 714.607 380.288C709.99 380.667 705.301 380.549 700.697 380.097C696.122 379.639 691.432 378.612 687.696 375.689C680.641 370.181 678.285 359.802 677.404 351.133C676.456 341.676 677.174 331.978 678.088 322.543C678.857 314.591 680.108 306.659 682.531 299.071C677.116 300.301 672.672 302.548 670.616 305.874C665.382 314.322 667.371 361.449 668.042 366.083Z" fill="black"/>
<path d="M674.044 347.561L676.155 347.473C675.726 337.713 675.687 311.292 680.571 306.227C685.318 301.297 703.737 300.736 711.33 303.222C713.799 304.032 715.775 304.926 717.272 305.739C716.217 304.33 715.143 303.267 714.055 302.637C712.704 301.848 711.187 301.159 709.545 300.568C700.311 298.621 683.989 299.633 679.045 304.769C672.537 311.516 673.986 346.098 674.044 347.561Z" fill="#263238"/>
<path d="M649.262 338.922L651.368 339.014C653.236 299.805 655.108 298.386 662.986 292.418L663.257 292.207C670.931 286.401 688.882 287.388 695.895 288.736C701.524 289.81 705.38 292.617 705.647 292.818C704.479 290.987 703.303 289.513 702.142 288.476C700.52 287.77 698.537 287.096 696.3 286.665C691.38 285.714 671.124 283.605 661.99 290.535L661.719 290.735C653.406 297.027 651.17 298.721 649.262 338.922Z" fill="#263238"/>
<path d="M636.201 368.637C637.288 373.768 649.109 384.129 654.972 386.4C656.156 386.868 666.084 389.031 666.596 385.022C666.631 384.759 666.659 384.487 666.685 384.213C667.676 373.724 663.644 350.882 662.63 347.797C661.434 344.162 650.269 337.165 643.574 335.662C642.104 335.327 640.842 335.262 639.958 335.549C635.009 337.169 635.522 365.384 636.201 368.637Z" fill="#37474F"/>
</g>
<defs>
<clipPath id="clip0_876_165">
<rect width="810" height="810" fill="white"/>
</clipPath>
</defs>
</svg>
