<svg id="a70bf153-4576-40dd-b8de-1cda7ed0fe8d" data-name="Layer 1" xmlns="http://www.w3.org/2000/svg" width="865.76" height="682.89" viewBox="0 0 865.76 682.89"><g id="b81d3a5e-b584-462c-ba54-d6a99c17f0dd" data-name="freesvgillustration--background-complete--inject-5"><rect x="565.36" y="1.78" width="1.08" height="436.53" fill="#dbdbdb"/><path d="M565.15,438.77l.47-1.35c.3-.9,3.08-8.8,6.34-9.82a2.35,2.35,0,0,1,2.17.39,2.17,2.17,0,0,1,.93,1.87c-.2,3.25-7.78,7.7-8.66,8.2Zm7.53-10.19a1.27,1.27,0,0,0-.39.06c-1.93.6-4,4.91-5.11,7.68,2.62-1.66,6.68-4.63,6.79-6.5a1.08,1.08,0,0,0-.5-.94A1.21,1.21,0,0,0,572.68,428.58Z" fill="#dbdbdb"/><path d="M566.75,438.77l-1.25-.71c-.81-.47-7.92-4.63-8.1-7.7a2,2,0,0,1,.88-1.77,2.22,2.22,0,0,1,2.05-.37c3.06.95,5.67,8.36,5.95,9.2Zm-7.11-9.58a1.21,1.21,0,0,0-.71.26,1,1,0,0,0-.46.85c.1,1.6,3.48,4.25,6.24,6-1-2.58-2.94-6.5-4.71-7.06A1,1,0,0,0,559.64,429.19Z" fill="#dbdbdb"/><polygon points="587.07 465.27 625.63 502.63 609.95 530.27 585.06 481.19 587.07 465.27" fill="#a6a6a6"/><polygon points="618.47 397.44 554.12 476.23 561.41 439.79 618.47 397.44" fill="#dbdbdb"/><polygon points="618.47 397.44 554.12 476.23 561.41 439.79 618.47 397.44" fill="#fff" opacity="0.1" style="isolation:isolate"/><polygon points="604.72 442.95 554.12 476.23 618.47 397.44 604.72 442.95" fill="#dbdbdb"/><polygon points="561.41 439.79 540.23 467.57 554.12 476.23 561.41 439.79" fill="#c7c7c7"/><polygon points="604.72 442.95 572.96 483.1 569.42 466.17 604.72 442.95" fill="#c7c7c7"/><polygon points="561.41 439.79 548.61 419.54 540.23 467.57 561.41 439.79" fill="#dbdbdb"/><polygon points="572.96 483.1 587.07 465.27 585.06 481.19 572.96 483.1" fill="#dbdbdb"/><polygon points="548.61 419.54 528.54 441.86 545.22 438.95 548.61 419.54" fill="#c7c7c7"/><polygon points="548.61 419.54 561.41 439.79 565.06 437.08 548.61 419.54" fill="#a6a6a6"/><polygon points="585.06 481.19 587.07 465.27 620.88 502.88 605.27 531.52 585.06 481.19" fill="#c7c7c7"/><polygon points="246.17 487.16 233.32 487.16 204.79 500.6 224.93 509.68 246.17 487.16" fill="#ebebeb"/><polygon points="246.17 487.16 233.32 487.16 204.79 500.6 224.93 509.68 246.17 487.16" opacity="0.2" style="isolation:isolate"/><polygon points="236.75 398.47 259.79 415.65 270.22 454.33 259.54 460.19 235.73 430.54 236.75 398.47" fill="#ebebeb"/><polygon points="236.75 398.47 259.79 415.65 270.22 454.33 259.54 460.19 235.73 430.54 236.75 398.47" opacity="0.2" style="isolation:isolate"/><polygon points="262.08 449.63 252.66 430.67 204.55 402.03 215.25 441.1 262.08 449.63" fill="#ebebeb"/><polygon points="262.08 449.63 252.66 430.67 204.55 402.03 215.25 441.1 262.08 449.63" opacity="0.1" style="isolation:isolate"/><polygon points="286.63 439.19 301.91 448.86 289.44 452.55 262.08 449.63 286.63 439.19" fill="#ebebeb"/><polygon points="286.63 439.19 301.91 448.86 289.44 452.55 262.08 449.63 286.63 439.19" opacity="0.1" style="isolation:isolate"/><polygon points="243.11 465.53 274.93 474.44 246.17 487.16 230.77 487.16 243.11 465.53" fill="#ebebeb"/><polygon points="243.11 465.53 274.93 474.44 246.17 487.16 230.77 487.16 243.11 465.53" opacity="0.1" style="isolation:isolate"/><polygon points="262.08 449.63 274.93 474.44 243.11 465.53 215.25 441.1 262.08 449.63" fill="#ebebeb"/><polygon points="289.44 452.55 274.93 474.44 262.08 449.63 289.44 452.55" fill="#ebebeb"/><polygon points="289.44 452.55 274.93 474.44 262.08 449.63 289.44 452.55" opacity="0.2" style="isolation:isolate"/><polygon points="246.17 487.16 230.77 487.16 206.21 494.43 224.54 506.26 246.17 487.16" fill="#ebebeb"/><polygon points="246.17 487.16 230.77 487.16 206.21 494.43 224.54 506.26 246.17 487.16" opacity="0.2" style="isolation:isolate"/><rect x="265.25" y="1.78" width="1.08" height="447.23" fill="#dbdbdb"/><path d="M265,449.49l.46-1.36c.32-.9,3.1-8.8,6.36-9.81a2.25,2.25,0,0,1,2.16.39,2.07,2.07,0,0,1,.93,1.86c-.18,3.25-7.78,7.71-8.66,8.21Zm7.57-10.21a1.12,1.12,0,0,0-.4.07c-1.91.59-4,4.92-5.1,7.68,2.61-1.66,6.67-4.63,6.79-6.49a1.06,1.06,0,0,0-.5-.93,1.27,1.27,0,0,0-.83-.33Z" fill="#dbdbdb"/><path d="M266.64,449.49l-1.25-.71c-.81-.47-7.92-4.65-8.1-7.7a2,2,0,0,1,.88-1.78,2.17,2.17,0,0,1,2.05-.36c3.06.95,5.66,8.34,5.95,9.19Zm-7.1-9.58a1.12,1.12,0,0,0-.72.26.9.9,0,0,0-.45.84c.1,1.6,3.47,4.26,6.23,6-1-2.58-2.94-6.49-4.71-7.07A1.34,1.34,0,0,0,259.54,439.91Z" fill="#dbdbdb"/><polygon points="385.02 84.46 394.31 99.78 382.19 86.41 372.31 87.84 385.02 84.46" fill="#ebebeb"/><polygon points="385.02 84.46 394.31 99.78 382.19 86.41 372.31 87.84 385.02 84.46" opacity="0.4" style="isolation:isolate"/><polygon points="374.65 130.93 335.62 114.29 403.82 105.69 374.65 130.93" fill="#ebebeb"/><polygon points="374.65 130.93 335.62 114.29 403.82 105.69 374.65 130.93" opacity="0.4" style="isolation:isolate"/><polygon points="367.25 148.25 374.65 130.93 335.62 114.29 335.47 134.19 367.25 148.25" fill="#ebebeb"/><polygon points="367.25 148.25 374.65 130.93 335.62 114.29 335.47 134.19 367.25 148.25" opacity="0.3" style="isolation:isolate"/><polygon points="367.25 148.25 382.19 86.41 372.31 87.84 349.05 149.14 367.25 148.25" fill="#ebebeb"/><polygon points="367.25 148.25 382.19 86.41 372.31 87.84 349.05 149.14 367.25 148.25" opacity="0.2" style="isolation:isolate"/><polygon points="358.5 153.98 382.19 86.41 372.31 87.84 340.31 136.33 358.5 153.98" fill="#ebebeb"/><polygon points="358.5 153.98 382.19 86.41 372.31 87.84 340.31 136.33 358.5 153.98" opacity="0.1" style="isolation:isolate"/><polygon points="382.19 86.41 380.72 90.61 394.31 99.78 382.19 86.41" fill="#ebebeb"/><polygon points="382.19 86.41 380.72 90.61 394.31 99.78 382.19 86.41" opacity="0.2" style="isolation:isolate"/><polygon points="352.13 133.13 351.76 118.97 327.49 105.39 322.4 120.02 352.13 133.13" fill="#ebebeb"/><polygon points="352.13 133.13 351.76 118.97 327.49 105.39 322.4 120.02 352.13 133.13" opacity="0.2" style="isolation:isolate"/><polygon points="358.5 153.98 355.17 134.48 336.58 140.25 337.23 148.47 358.5 153.98" fill="#ebebeb"/><polygon points="358.5 153.98 355.17 134.48 336.58 140.25 337.23 148.47 358.5 153.98" opacity="0.3" style="isolation:isolate"/><polygon points="337.23 148.47 324.05 148.57 323.05 140.59 336.58 140.25 337.23 148.47" fill="#ebebeb"/><polygon points="337.23 148.47 324.05 148.57 323.05 140.59 336.58 140.25 337.23 148.47" opacity="0.4" style="isolation:isolate"/><polygon points="355.17 134.48 322.4 120.02 281.56 157.6 355.17 134.48" fill="#ebebeb"/><polygon points="322.4 120.02 327.49 105.39 298.19 47.01 322.4 120.02" fill="#ebebeb"/><polygon points="322.4 120.02 327.49 105.39 298.19 47.01 322.4 120.02" opacity="0.1" style="isolation:isolate"/><rect x="348.22" y="-5.26" width="1.08" height="123.84" fill="#dbdbdb"/><path d="M348,119.06l.47-1.36c.3-.9,3.08-8.81,6.34-9.81a2.33,2.33,0,0,1,2.17.38,2.17,2.17,0,0,1,.93,1.87c-.2,3.25-7.79,7.71-8.66,8.19Zm7.53-10.21a1,1,0,0,0-.39.07c-1.93.59-4,4.92-5.11,7.68,2.62-1.66,6.68-4.63,6.78-6.49a1,1,0,0,0-.49-.93A1.3,1.3,0,0,0,355.54,108.85Z" fill="#dbdbdb"/><path d="M349.6,119.06l-1.24-.73c-.81-.46-7.93-4.63-8.11-7.68a2,2,0,0,1,.89-1.78,2.27,2.27,0,0,1,2-.38c3.07,1,5.68,8.36,6,9.21Zm-7.1-9.57a1.21,1.21,0,0,0-.71.26.91.91,0,0,0-.46.84c.1,1.6,3.48,4.26,6.24,6-1-2.57-2.95-6.49-4.71-7.06A1.49,1.49,0,0,0,342.5,109.49Z" fill="#dbdbdb"/></g><polygon points="420.86 195.76 431.35 242.72 380.89 204 420.86 195.76" fill="#F64C72"/><polygon points="431.35 242.72 403.92 199.25 420.86 195.76 431.35 242.72" fill="#fff" opacity="0.4" style="isolation:isolate"/><polygon points="380.89 204 372.18 211.97 388.64 209.95 380.89 204" fill="#F64C72"/><polygon points="380.89 204 372.18 211.97 388.64 209.95 380.89 204" opacity="0.4" style="isolation:isolate"/><polygon points="413.83 197.21 392.6 179.41 372.18 211.97 380.89 204 413.83 197.21" fill="#F64C72"/><polygon points="413.83 197.21 392.6 179.41 372.18 211.97 380.89 204 413.83 197.21" opacity="0.2" style="isolation:isolate"/><polygon points="392.6 179.41 398.04 200.47 380.89 204 372.18 211.97 392.6 179.41" opacity="0.2" style="isolation:isolate"/><polygon points="423.14 205.99 447.69 181.71 413.83 193.27 381.85 157.6 377.2 190.59 382.34 195.76 392.6 179.41 413.83 197.21 420.86 195.76 423.14 205.99" fill="#F64C72"/><polygon points="447.69 181.71 420.86 195.76 423.14 205.99 447.69 181.71" opacity="0.2" style="isolation:isolate"/><polygon points="377.2 190.59 382.34 195.76 391.51 181.13 381.85 157.6 377.2 190.59" fill="#fff" opacity="0.4" style="isolation:isolate"/><polygon points="345.06 184.25 352.25 166.48 356.38 175.91 345.06 184.25" fill="#F64C72"/><polygon points="345.06 184.25 352.25 166.48 356.38 175.91 345.06 184.25" opacity="0.2" style="isolation:isolate"/><polygon points="372.18 211.97 382.34 195.76 352.25 166.48 372.18 211.97" fill="#F64C72"/><polygon points="196.41 356.98 183.01 416.97 247.47 367.51 196.41 356.98" fill="#F64C72"/><polygon points="183.01 416.97 218.05 361.44 196.41 356.98 183.01 416.97" fill="#fff" opacity="0.4" style="isolation:isolate"/><polygon points="247.47 367.51 258.61 377.7 237.57 375.11 247.47 367.51" fill="#F64C72"/><polygon points="247.47 367.51 258.61 377.7 237.57 375.11 247.47 367.51" opacity="0.4" style="isolation:isolate"/><polygon points="205.39 358.83 232.52 336.09 258.61 377.7 247.47 367.51 205.39 358.83" fill="#F64C72"/><polygon points="205.39 358.83 232.52 336.09 258.61 377.7 247.47 367.51 205.39 358.83" opacity="0.2" style="isolation:isolate"/><polygon points="232.52 336.09 225.56 363 247.47 367.51 258.61 377.7 232.52 336.09" opacity="0.2" style="isolation:isolate"/><polygon points="193.49 370.06 162.12 339.03 205.39 353.8 246.24 308.23 252.19 350.38 245.62 356.98 232.52 336.09 205.39 358.83 196.41 356.98 193.49 370.06" fill="#F64C72"/><polygon points="162.12 339.03 196.41 356.98 193.49 370.06 162.12 339.03" opacity="0.2" style="isolation:isolate"/><polygon points="252.19 350.38 245.62 356.98 233.9 338.3 246.24 308.23 252.19 350.38" fill="#fff" opacity="0.4" style="isolation:isolate"/><polygon points="293.25 342.27 284.07 319.58 278.79 331.62 293.25 342.27" fill="#F64C72"/><polygon points="293.25 342.27 284.07 319.58 278.79 331.62 293.25 342.27" opacity="0.2" style="isolation:isolate"/><polygon points="258.61 377.7 245.62 356.98 284.07 319.58 258.61 377.7" fill="#F64C72"/><rect x="231.73" y="1.78" width="0.54" height="335.83" fill="#881F63"/><g id="b5e6bdd0-7c08-4dca-879d-ee34533b4fb5" data-name="freesvgillustration--Shadow--inject-238"><ellipse id="be105ac4-f1ba-433e-ac14-9ba56c743522" data-name="freesvgillustration--path--inject-238" cx="468.83" cy="656.4" rx="265.35" ry="21.23" fill="#f5f5f5"/></g><path d="M482.25,557.43l40.27-2-3.92,35s-28,5.33-40.42-14.56Z" fill="#f9b499"/><polygon points="548.48 567.67 539.31 593.07 518.6 590.48 522.52 555.46 548.48 567.67" fill="#f9b499"/><path d="M443.58,614.26A164.28,164.28,0,0,0,485,583.52l-2.75-26.09c-38.07,5.62-60,13.67-60,13.67s14.1-50.55,1.2-69L388,508.54s-37.65,78.26-12.32,105.72Z" fill="#F64C72"/><path d="M443.56,614.28A164.83,164.83,0,0,0,485,583.56l-2.74-26.13c-36.84,5.4-58.62,13.13-60,13.63.47-1.87,13.81-50.85,1.17-68.93L388,508.54a275.73,275.73,0,0,0-17.28,48.89c-5.06,21.36-6.54,44.38,5,56.85Z" fill="#fff" opacity="0.7" style="isolation:isolate"/><path d="M414.4,614.26c12.51-79.27,1.42-99.42,1.42-99.42l-45,42.53c-5.06,21.37-6.55,44.38,5,56.86Z" opacity="0.2" style="isolation:isolate"/><path d="M406.57,614.26c8.44-40.06,17.92-102.79,16.89-112.14C422,488.54,348.08,430.35,284,472.71c-13.13,8.65-19.83,101.94-22.12,141.55Z" fill="#F64C72"/><path d="M406.57,614.26c8.44-40.07,17.92-102.82,16.89-112.16-1.5-13.56-75.4-71.75-139.51-29.38-4.75,3.17-8.65,17.49-11.88,36.39-4.27,25.74-7.24,59.92-9,85.69-.49,7.3-.9,13.9-1.22,19.46Z" fill="#fff" opacity="0.7" style="isolation:isolate"/><path d="M374.93,300.56c-22.23-9-74.64,23.26-79.24,80.76s24.56,41.57,24.56,41.57,5.19,21.93,26.43,15.16c0,0,17.54,19.86,33.86,11.78,0,0,20.31,21.16,31.21,10,0,0,11.86,13.53,22.68,3.29s41.76-114.81-6.77-139S374.93,300.56,374.93,300.56Z" fill="#881F63"/><path d="M375,535.89l-2.13-.19c2.47-27.68-3.62-39.93-3.76-40.05l1.88-1C371.31,495.09,377.5,507.41,375,535.89Z" fill="#881F63"/><path d="M385,536.13c-14.73-34.68,1.88-42.77,2.55-43.14l.88,1.88-.45-1,.45,1c-.15,0-15.3,7.67-1.46,40.31Z" fill="#881F63"/><path d="M370.63,501.26s-28.42-22.51-72.54-35.19l-14.16,6.64s-23.75-29.39,15.83-39,93.42,16.89,106.93,39.58-23.49,30-23.49,30S379.8,498.67,370.63,501.26Z" fill="#F64C72"/><path d="M370.63,501.26s-28.42-22.51-72.54-35.19l-14.16,6.64s-23.75-29.39,15.83-39,93.42,16.89,106.93,39.58-23.49,30-23.49,30S379.8,498.67,370.63,501.26Z" fill="#fff" opacity="0.6" style="isolation:isolate"/><path d="M387.78,535.72a1.88,1.88,0,1,1-1.88-1.87A1.88,1.88,0,0,1,387.78,535.72Z" fill="#fff"/><path d="M375.6,535.72a1.88,1.88,0,1,1-1.87-1.87A1.88,1.88,0,0,1,375.6,535.72Z" fill="#fff"/><path d="M355.53,395.2c-1.73,20.13-7.9,56-24.27,63.78,0,0,18.31,3.75,46.89,40,16.27-11.4,10.11-19.19,10.11-19.19-19-12.47-14.08-27.85-6.39-41.26Z" fill="#f9b499"/><path d="M366.24,412.85l15.59,25.7a59.67,59.67,0,0,0-4.71,9.76c-7.5-4-15.72-16.74-14.16-25.44A29.6,29.6,0,0,1,366.24,412.85Z" fill="#f7a48b"/><path d="M353.34,352.64c-5.24,31.62-8.13,44.87,3.6,65.22,17.61,30.63,56.65,32.08,71,3.11,12.91-26.07,19.3-73.42-7.64-94.31C393.72,306.06,358.53,321,353.34,352.64Z" fill="#f9b499"/><path d="M418.11,309c20.5,11.37,40,46.9,10.86,38-4.41,8.53-20.11.71-29.24-9.53-1.54,7.11-18.35,14.23-30.73,3.22,6,8.63-4.2,30.41-14.8,26.66s-34.39-8.69-13.32-42.26S396.22,296.87,418.11,309Z" fill="#881F63"/><path d="M337.37,375.37a25.71,25.71,0,0,0,12,15.59c7.64,4.18,13.13-3,12.57-11.89-.58-8.05-5.27-19.91-13.64-20.37S335.1,367.06,337.37,375.37Z" fill="#f9b499"/><path d="M395.17,391.92a14,14,0,0,1-5.63-1.18,14.3,14.3,0,0,1-7.77-9.08,19,19,0,0,1,9.93-22.23,14,14,0,0,1,18.77,6.26,13.84,13.84,0,0,1,1,2.55,18.44,18.44,0,0,1-1,12.91h0a18.49,18.49,0,0,1-9,9.38A15.09,15.09,0,0,1,395.17,391.92Zm2.94-31.8a13.23,13.23,0,0,0-5.38,1.31A16.89,16.89,0,0,0,384,381.09a11.82,11.82,0,0,0,14.45,8.4,11.63,11.63,0,0,0,2.34-.89,16.32,16.32,0,0,0,7.93-8.24l1,.43-1-.43a16.37,16.37,0,0,0,.85-11.42,12.08,12.08,0,0,0-6.6-7.75,11.29,11.29,0,0,0-4.81-1.07Z" fill="#881F63"/><path d="M426.38,401.48a13.33,13.33,0,0,1-5.63-1.18,14.32,14.32,0,0,1-7.78-9.08A19,19,0,0,1,422.91,369a14,14,0,0,1,18.74,6.21,14.48,14.48,0,0,1,1,2.61,18.39,18.39,0,0,1-.94,12.91h0A17.44,17.44,0,0,1,426.38,401.48Zm3-31.89a13.26,13.26,0,0,0-5.48,1.24,16.46,16.46,0,0,0-7.94,8.26,16.15,16.15,0,0,0-.84,11.4,12.11,12.11,0,0,0,6.6,7.77c6.57,2.94,14.71-.88,18.12-8.5h0a16.48,16.48,0,0,0,.85-11.42,12.14,12.14,0,0,0-6.61-7.75,11.67,11.67,0,0,0-4.7-.9Z" fill="#881F63"/><path d="M413,381.92a.94.94,0,0,0-.55-.6,3.9,3.9,0,0,0-2.42.36l-.93-1.88a5.72,5.72,0,0,1,4.12-.43,3.08,3.08,0,0,1,1.88,1.87Z" fill="#881F63"/><polygon points="361.05 363.48 361.69 361.85 385.23 367.85 384.59 369.48 361.05 363.48" fill="#881F63"/><path d="M355.74,559.26s-49.36,37.82-92.67,35.65c1.76-25.78,4.73-60,9-85.69,4.43-4.88,7.34-7.85,7.34-7.85L305.67,521l-6.4,8s39.75-2,53.6,0Z" opacity="0.2" style="isolation:isolate"/><polygon points="478.19 558.03 489.51 556.13 489.51 586.45 480.54 587.91 478.19 558.03" fill="#407bff"/><polygon points="478.19 558.03 489.51 556.13 489.51 586.45 480.54 587.91 478.19 558.03" fill="#fff" opacity="0.6" style="isolation:isolate"/><path d="M710,654.69H230c-3.36,0-6.08-3.73-6.08-8.33h0V626.1H716.05v20.26c0,4.6-2.72,8.33-6.08,8.33Z" fill="#bcbec0"/><rect x="223.92" y="626.08" width="492.13" height="14.29" opacity="0.2" style="isolation:isolate"/><path d="M213.61,629.82H726.37c3.24,0,5.87-3.6,5.88-8.05h0c0-4.46-2.63-8.07-5.88-8.07H213.61c-3.25,0-5.88,3.61-5.88,8.07h0C207.74,626.22,210.37,629.82,213.61,629.82Z" fill="#d1d3d4"/><polygon points="404.46 488.93 387.83 516.39 409.56 492.42 427.28 494.99 404.46 488.93" fill="#F64C72"/><polygon points="404.46 488.93 387.83 516.39 409.56 492.42 427.28 494.99 404.46 488.93" opacity="0.5" style="isolation:isolate"/><polygon points="423.06 572.2 493.02 542.39 370.79 526.98 423.06 572.2" fill="#F64C72"/><polygon points="423.06 572.2 493.02 542.39 370.79 526.98 423.06 572.2" opacity="0.5" style="isolation:isolate"/><polygon points="436.32 603.24 423.06 572.2 493.02 542.39 493.28 578.05 436.32 603.24" fill="#F64C72"/><polygon points="436.32 603.24 423.06 572.2 493.02 542.39 493.28 578.05 436.32 603.24" opacity="0.4" style="isolation:isolate"/><polygon points="436.32 603.24 409.56 492.42 427.28 494.99 468.95 604.84 436.32 603.24" fill="#F64C72"/><polygon points="436.32 603.24 409.56 492.42 427.28 494.99 468.95 604.84 436.32 603.24" opacity="0.2" style="isolation:isolate"/><polygon points="452 613.52 409.56 492.42 427.28 494.99 484.61 581.89 452 613.52" fill="#F64C72"/><polygon points="452 613.52 409.56 492.42 427.28 494.99 484.61 581.89 452 613.52" opacity="0.1" style="isolation:isolate"/><polygon points="409.56 492.42 412.2 499.95 387.83 516.39 409.56 492.42" fill="#F64C72"/><polygon points="409.56 492.42 412.2 499.95 387.83 516.39 409.56 492.42" opacity="0.2" style="isolation:isolate"/><polygon points="463.42 576.15 464.08 550.77 507.58 526.42 516.71 552.66 463.42 576.15" fill="#F64C72"/><polygon points="463.42 576.15 464.08 550.77 507.58 526.42 516.71 552.66 463.42 576.15" opacity="0.2" style="isolation:isolate"/><polygon points="452 613.52 457.98 578.56 491.29 588.9 490.12 603.64 452 613.52" fill="#F64C72"/><polygon points="490.12 603.64 513.76 603.81 515.54 589.52 491.29 588.9 490.12 603.64" fill="#F64C72"/><polygon points="490.12 603.64 513.76 603.81 515.54 589.52 491.29 588.9 490.12 603.64" opacity="0.5" style="isolation:isolate"/><polygon points="457.98 578.56 516.71 552.66 589.89 619.99 457.98 578.56" fill="#F64C72"/><polygon points="516.71 552.66 507.58 526.42 560.07 421.81 516.71 552.66" fill="#F64C72"/><polygon points="516.71 552.66 507.58 526.42 560.07 421.81 516.71 552.66" opacity="0.1" style="isolation:isolate"/><path d="M360.84,529l39.51-8.07,1.4,35.23s-26.8,9.49-42.15-8.27Z" fill="#f9b499"/><polygon points="427.85 529.06 422.63 555.55 401.75 556.13 400.35 520.9 427.85 529.06" fill="#f9b499"/><path d="M298.09,466.07A45.69,45.69,0,0,0,271,481.75c-11.92,14-53.9,55.57-44.58,89.5s99.11,8.69,126.53-10.71L348.74,529l-62.19,4.56,19.18-12.63C318.88,484.3,298.09,466.07,298.09,466.07Z" fill="#F64C72"/><path d="M298.09,466.07A45.69,45.69,0,0,0,271,481.75c-11.92,14-53.9,55.57-44.58,89.5s99.11,8.69,126.53-10.71L348.74,529l-62.19,4.56,19.18-12.63C318.88,484.3,298.09,466.07,298.09,466.07Z" fill="#fff" opacity="0.7" style="isolation:isolate"/><polygon points="360.84 528.95 362.77 556.13 352.94 560.54 348.74 528.95 360.84 528.95" fill="#F64C72"/><polygon points="360.84 528.95 362.77 556.13 352.94 560.54 348.74 528.95 360.84 528.95" fill="#fff" opacity="0.6" style="isolation:isolate"/><polygon points="540.48 294.42 557.68 371.4 474.96 307.93 540.48 294.42" fill="#F64C72"/><polygon points="557.68 371.4 512.72 300.14 540.48 294.42 557.68 371.4" fill="#fff" opacity="0.4" style="isolation:isolate"/><polygon points="474.96 307.93 460.67 321 487.67 317.68 474.96 307.93" fill="#F64C72"/><polygon points="474.96 307.93 460.67 321 487.67 317.68 474.96 307.93" opacity="0.4" style="isolation:isolate"/><polygon points="528.97 296.79 494.15 267.6 460.67 321 474.96 307.93 528.97 296.79" fill="#F64C72"/><polygon points="528.97 296.79 494.15 267.6 460.67 321 474.96 307.93 528.97 296.79" opacity="0.2" style="isolation:isolate"/><polygon points="494.15 267.6 503.08 302.13 474.96 307.93 460.67 321 494.15 267.6" opacity="0.2" style="isolation:isolate"/><polygon points="544.23 311.19 584.49 271.38 528.97 290.33 476.54 231.85 468.91 285.94 477.34 294.42 494.15 267.6 528.97 296.79 540.48 294.42 544.23 311.19" fill="#F64C72"/><polygon points="584.49 271.38 540.48 294.42 544.23 311.19 584.49 271.38" opacity="0.2" style="isolation:isolate"/><polygon points="468.91 285.94 477.34 294.42 492.37 270.44 476.54 231.85 468.91 285.94" fill="#fff" opacity="0.4" style="isolation:isolate"/><polygon points="416.21 275.54 428 246.41 434.77 261.87 416.21 275.54" fill="#F64C72"/><polygon points="416.21 275.54 428 246.41 434.77 261.87 416.21 275.54" opacity="0.2" style="isolation:isolate"/><polygon points="460.67 321 477.34 294.42 428 246.41 460.67 321" fill="#F64C72"/><polygon points="270.72 249.6 260.23 296.56 310.68 257.84 270.72 249.6" fill="#F64C72"/><polygon points="260.23 296.56 287.65 253.09 270.72 249.6 260.23 296.56" fill="#fff" opacity="0.4" style="isolation:isolate"/><polygon points="310.68 257.84 319.4 265.81 302.93 263.79 310.68 257.84" fill="#F64C72"/><polygon points="310.68 257.84 319.4 265.81 302.93 263.79 310.68 257.84" opacity="0.4" style="isolation:isolate"/><polygon points="277.74 251.05 298.98 233.25 319.4 265.81 310.68 257.84 277.74 251.05" fill="#F64C72"/><polygon points="277.74 251.05 298.98 233.25 319.4 265.81 310.68 257.84 277.74 251.05" opacity="0.2" style="isolation:isolate"/><polygon points="298.98 233.25 293.54 254.31 310.68 257.84 319.4 265.81 298.98 233.25" opacity="0.2" style="isolation:isolate"/><polygon points="268.43 259.84 243.88 235.55 277.74 247.11 309.72 211.44 314.37 244.43 309.23 249.6 298.98 233.25 277.74 251.05 270.72 249.6 268.43 259.84" fill="#F64C72"/><polygon points="243.88 235.55 270.72 249.6 268.43 259.84 243.88 235.55" opacity="0.2" style="isolation:isolate"/><polygon points="314.37 244.43 309.23 249.6 300.06 234.98 309.72 211.44 314.37 244.43" fill="#fff" opacity="0.4" style="isolation:isolate"/><polygon points="346.52 238.09 339.33 220.32 335.2 229.75 346.52 238.09" fill="#F64C72"/><polygon points="346.52 238.09 339.33 220.32 335.2 229.75 346.52 238.09" opacity="0.2" style="isolation:isolate"/><polygon points="319.4 265.81 309.23 249.6 339.33 220.32 319.4 265.81" fill="#F64C72"/><polygon points="542.71 216.34 532.22 263.3 582.67 224.59 542.71 216.34" fill="#F64C72"/><polygon points="532.22 263.3 559.64 219.84 542.71 216.34 532.22 263.3" fill="#fff" opacity="0.4" style="isolation:isolate"/><polygon points="582.67 224.59 591.39 232.56 574.92 230.53 582.67 224.59" fill="#F64C72"/><polygon points="582.67 224.59 591.39 232.56 574.92 230.53 582.67 224.59" opacity="0.4" style="isolation:isolate"/><polygon points="549.73 217.79 570.97 199.99 591.39 232.56 582.67 224.59 549.73 217.79" fill="#F64C72"/><polygon points="549.73 217.79 570.97 199.99 591.39 232.56 582.67 224.59 549.73 217.79" opacity="0.2" style="isolation:isolate"/><polygon points="570.97 199.99 565.52 221.05 582.67 224.59 591.39 232.56 570.97 199.99" opacity="0.2" style="isolation:isolate"/><polygon points="540.42 226.58 515.87 202.29 549.73 213.85 581.71 178.18 586.36 211.17 581.22 216.34 570.97 199.99 549.73 217.79 542.71 216.34 540.42 226.58" fill="#F64C72"/><polygon points="515.87 202.29 542.71 216.34 540.42 226.58 515.87 202.29" opacity="0.2" style="isolation:isolate"/><polygon points="586.36 211.17 581.22 216.34 572.05 201.72 581.71 178.18 586.36 211.17" fill="#fff" opacity="0.4" style="isolation:isolate"/><polygon points="618.5 204.83 611.31 187.06 607.18 196.49 618.5 204.83" fill="#F64C72"/><polygon points="618.5 204.83 611.31 187.06 607.18 196.49 618.5 204.83" opacity="0.2" style="isolation:isolate"/><polygon points="591.39 232.56 581.22 216.34 611.31 187.06 591.39 232.56" fill="#F64C72"/><rect x="493.91" y="1.78" width="0.54" height="266.17" fill="#881F63"/><rect x="298.3" y="1.78" width="0.54" height="231.46" fill="#881F63"/><rect x="392.73" y="1.78" width="0.54" height="177.62" fill="#881F63"/><rect x="570.29" y="1.78" width="0.54" height="198.21" fill="#881F63"/><path d="M682.33,550.69s-8.43-13.26-28.91-25.3c-14.46-8.51-22.89-32.53-22.89-32.53s27.71,1.2,39.75,18.07S682.33,550.69,682.33,550.69Z" fill="#F64C72"/><path d="M682.42,551a.41.41,0,0,1-.4-.31C678.13,536,669.6,525.37,663.13,519a69.81,69.81,0,0,0-13.22-10.37.41.41,0,1,1,.4-.72,70,70,0,0,1,13.4,10.5c6.54,6.43,15.17,17.22,19.11,32.1a.42.42,0,0,1-.29.51Z" fill="#881F63"/><path d="M678.7,550.38s-2.41-4.82-13.25-3.61-16.87,7.23-36.14-3.62c0,0,14.45-12,30.11-9.63S676.29,542,678.7,550.38Z" fill="#F64C72"/><path d="M678.75,550.8a.41.41,0,0,1-.35-.2c0-.07-4.9-7.69-12.7-9.11-13.63-2.48-22.9,1.88-23,1.92a.41.41,0,0,1-.36-.74c.1,0,9.6-4.52,23.51-2,8.16,1.48,13,9.16,13.25,9.48a.42.42,0,0,1-.13.57A.36.36,0,0,1,678.75,550.8Z" fill="#881F63"/><path d="M683.43,549.22s-.94-5.31,8.47-10.81,17.85-4.28,26.83-24.49c0,0-18.79-1-29.91,10.26S680.33,541,683.43,549.22Z" fill="#F64C72"/><path d="M683.39,549.66a.41.41,0,0,1-.41-.38c0-.38-.7-9.45,5-15.52,9.64-10.33,19.94-12.42,20-12.44a.41.41,0,1,1,.16.81c-.1,0-10.15,2.07-19.6,12.19-5.41,5.8-4.75,14.81-4.74,14.9a.41.41,0,0,1-.38.44Z" fill="#881F63"/><rect x="665.29" y="548.91" width="32.07" height="6.85" rx="2.57" fill="#881F63"/><path d="M681.44,614.76c-21.54,0-35.24-3.43-33-18.6,1.4-9.63,8.91-19.07,14.21-24.67.74-.79,1.45-1.51,2.08-2.13,2-2,3.29-3.06,3.29-3.06l.06-.36.38-2.12.43-2.45,1-5.6.34-2,11.26-.49,11.75.49.27,2,.42,3.07.69,5,.29,2.12,0,.36s1.32,1.11,3.29,3.06c.63.62,1.33,1.34,2.08,2.13,5.3,5.6,12.81,15,14.21,24.67C716.69,611.33,703,614.76,681.44,614.76Z" fill="#881F63"/><g opacity="0.2"><polygon points="694.86 565.95 668.04 565.95 668.42 563.82 694.57 563.82 694.86 565.95"/></g><g opacity="0.2"><path d="M700.28,571.49H662.61c.74-.79,1.45-1.51,2.08-2.13H698.2C698.83,570,699.53,570.7,700.28,571.49Z"/></g><g opacity="0.2"><polygon points="693.88 558.84 668.85 561.37 669.84 555.77 693.46 555.77 693.88 558.84"/></g></svg>