<svg width="807" height="727" viewBox="0 0 807 727" fill="none" xmlns="http://www.w3.org/2000/svg">
<path d="M764.387 342.543C732.476 424.932 657.9 487.431 580.404 517.171C520.249 540.256 456.249 537.975 392.456 518.149C331.927 499.337 276.276 468.828 214.181 482.582C165.406 493.387 110.417 508.852 66.3407 464.344C44.3345 442.123 29.7317 411.986 20.0881 381.138C-10.5275 283.199 4.84572 179.578 70.3967 115.291C126.557 60.2161 206.836 33.6677 284.289 38.3727C299.019 39.2665 313.794 41.3553 328.414 44.9121C366.674 54.2191 408.429 68.7938 447.697 63.5092C493.959 57.284 526.065 22.1055 568.213 5.97117C611.745 -10.6943 656.889 8.99683 691.575 46.524C764.18 125.068 802.838 243.27 764.387 342.543Z" fill="#DDE8FE"/>
<path d="M450.949 69.2998V377.859H643.404V69.2998H450.949ZM544.337 76.7798V144.93H457.975V76.7798H544.337ZM457.977 219.84V152.41H544.339V219.84H457.977ZM544.337 227.32V296.191H457.975V227.32H544.337ZM457.977 303.669H544.339V370.379H457.977V303.669ZM636.375 370.379H551.364V303.669H635.827V296.189H551.364V227.319H635.827V219.839H551.364V152.41H635.827V144.93H551.364V76.7798H636.375V370.379Z" fill="#881F63"/>
<path opacity="0.7" d="M450.949 69.2998V377.859H643.404V69.2998H450.949ZM544.337 76.7798V144.93H457.975V76.7798H544.337ZM457.977 219.84V152.41H544.339V219.84H457.977ZM544.337 227.32V296.191H457.975V227.32H544.337ZM457.977 303.669H544.339V370.379H457.977V303.669ZM636.375 370.379H551.364V303.669H635.827V296.189H551.364V227.319H635.827V219.839H551.364V152.41H635.827V144.93H551.364V76.7798H636.375V370.379Z" fill="#881F63"/>
<path d="M139.766 69.2998V377.859H332.22V69.2998H139.766ZM233.155 76.7798V144.93H146.793V76.7798H233.155ZM146.793 219.84V152.41H233.155V219.84H146.793ZM233.155 227.32V296.191H146.793V227.32H233.155ZM146.793 303.669H233.155V370.379H146.793V303.669ZM325.193 370.379H240.183V303.669H324.645V296.189H240.183V227.319H324.645V219.839H240.183V152.41H324.645V144.93H240.183V76.7798H325.193V370.379Z" fill="#F64C72"/>
<path opacity="0.7" d="M139.766 69.2998V377.859H332.22V69.2998H139.766ZM233.155 76.7798V144.93H146.793V76.7798H233.155ZM146.793 219.84V152.41H233.155V219.84H146.793ZM233.155 227.32V296.191H146.793V227.32H233.155ZM146.793 303.669H233.155V370.379H146.793V303.669ZM325.193 370.379H240.183V303.669H324.645V296.189H240.183V227.319H324.645V219.839H240.183V152.41H324.645V144.93H240.183V76.7798H325.193V370.379Z" fill="#F64C72"/>
<path d="M44.4897 429.44C44.4897 429.44 38.5207 436.262 35.108 449.907C31.6971 463.553 47.0479 473.787 41.9297 488.285C36.8134 502.783 27.4316 509.605 29.9898 524.103C32.5479 538.601 43.6352 539.454 35.1061 555.658C26.577 571.861 18.9025 577.83 21.4607 593.181C24.0189 608.532 56.4259 628.146 56.4259 628.146C56.4259 628.146 78.5985 603.414 79.4531 587.21C80.3059 571.007 59.8387 560.772 63.2496 546.274C66.6605 531.776 75.1895 519.836 74.3368 506.191C73.4841 492.545 57.2805 482.311 57.2805 472.078C57.2805 461.843 64.1023 455.874 64.1023 443.935C64.1023 431.995 48.7515 421.76 48.7515 414.938C48.7515 408.117 52.1624 399.587 52.1624 399.587C52.1624 399.587 35.9625 409.826 44.4897 429.44Z" fill="#881F63"/>
<path opacity="0.5" d="M44.4897 429.44C44.4897 429.44 38.5207 436.262 35.108 449.907C31.6971 463.553 47.0479 473.787 41.9297 488.285C36.8134 502.783 27.4316 509.605 29.9898 524.103C32.5479 538.601 43.6352 539.454 35.1061 555.658C26.577 571.861 18.9025 577.83 21.4607 593.181C24.0189 608.532 56.4259 628.146 56.4259 628.146C56.4259 628.146 78.5985 603.414 79.4531 587.21C80.3059 571.007 59.8387 560.772 63.2496 546.274C66.6605 531.776 75.1895 519.836 74.3368 506.191C73.4841 492.545 57.2805 482.311 57.2805 472.078C57.2805 461.843 64.1023 455.874 64.1023 443.935C64.1023 431.995 48.7515 421.76 48.7515 414.938C48.7515 408.117 52.1624 399.587 52.1624 399.587C52.1624 399.587 35.9625 409.826 44.4897 429.44Z" fill="#881F63"/>
<path d="M53.0179 623.032L51.3125 438.822" stroke="#F64C72" stroke-width="2" stroke-miterlimit="10" stroke-linecap="round" stroke-linejoin="round"/>
<path d="M70.2219 580.865L53.5097 597.577L34.5703 580.865" stroke="#F64C72" stroke-width="2" stroke-miterlimit="10" stroke-linecap="round" stroke-linejoin="round"/>
<path d="M64.6508 507.337L52.3967 526.276L41.8125 509.007" stroke="#F64C72" stroke-width="2" stroke-miterlimit="10" stroke-linecap="round" stroke-linejoin="round"/>
<path d="M44.5977 451.631L51.8402 460.546L57.9663 449.961" stroke="#F64C72" stroke-width="2" stroke-miterlimit="10" stroke-linecap="round" stroke-linejoin="round"/>
<path d="M57.9726 670.79H48.0597C39.022 670.79 31.6953 663.463 31.6953 654.425V623.032H74.3369V654.425C74.3369 663.463 67.0103 670.79 57.9726 670.79Z" fill="#D35F9F"/>
<path d="M196.209 423.513L182.947 397.632V361.44H170.251V397.632L156.989 423.513C155.432 426.551 157.638 430.162 161.053 430.162H192.145C195.558 430.162 197.765 426.551 196.209 423.513Z" fill="#881F63"/>
<path d="M209.791 368.92H143.406L160.003 311.885H193.195L209.791 368.92Z" fill="#263238"/>
<path opacity="0.5" d="M209.791 368.92H143.406L160.003 311.885H193.195L209.791 368.92Z" fill="white"/>
<path d="M253.285 430.405H99.0195V442.052H113.914V670.79H244.773V442.052H253.285V430.405Z" fill="#263238"/>
<path opacity="0.7" d="M253.285 430.405H99.0195V442.052H113.914V670.79H244.773V442.052H253.285V430.405Z" fill="white"/>
<path d="M235.582 599.149H126V659.792H235.582V599.149Z" stroke="#881F63" stroke-width="2" stroke-miterlimit="10"/>
<path d="M193.556 620.428H168.023V627.876H193.556V620.428Z" stroke="#881F63" stroke-width="2" stroke-miterlimit="10"/>
<path d="M235.582 524.576H126V585.218H235.582V524.576Z" stroke="#881F63" stroke-width="2" stroke-miterlimit="10"/>
<path d="M193.556 545.853H168.023V553.301H193.556V545.853Z" stroke="#881F63" stroke-width="2" stroke-miterlimit="10"/>
<path d="M235.582 450H126V510.642H235.582V450Z" stroke="#881F63" stroke-width="2" stroke-miterlimit="10"/>
<path d="M193.556 471.279H168.023V478.727H193.556V471.279Z" stroke="#881F63" stroke-width="2" stroke-miterlimit="10"/>
<path d="M636.254 384.117H732.772C753.06 384.117 769.506 400.564 769.506 420.851V554.104H599.52V420.851C599.52 400.564 615.964 384.117 636.254 384.117Z" fill="#E9B1D0" stroke="#881F63" stroke-width="2" stroke-miterlimit="10" stroke-linejoin="round"/>
<path d="M454.684 670.79H574.251V480.635H492.86C471.775 480.635 454.684 497.727 454.684 518.809V670.79Z" fill="#881F63"/>
<mask id="mask0_876_163" style="mask-type:luminance" maskUnits="userSpaceOnUse" x="454" y="480" width="121" height="191">
<path d="M454.684 670.79H574.251V480.635H492.86C471.775 480.635 454.684 497.727 454.684 518.809V670.79Z" fill="white"/>
</mask>
<g mask="url(#mask0_876_163)">
<path opacity="0.5" d="M454.684 670.79H574.251V480.635H492.86C471.775 480.635 454.684 497.727 454.684 518.809V670.79Z" fill="white" stroke="#881F63" stroke-width="2" stroke-miterlimit="10" stroke-linejoin="round"/>
</g>
<path d="M454.684 670.79H574.251V480.635H492.86C471.775 480.635 454.684 497.727 454.684 518.809V670.79Z" stroke="#881F63" stroke-width="2" stroke-miterlimit="10" stroke-linejoin="round"/>
<path d="M487.902 670.79H607.47V480.635H526.078C504.994 480.635 487.904 497.727 487.904 518.809V670.79H487.902Z" fill="#E9B1D0" stroke="#881F63" stroke-width="2" stroke-miterlimit="10" stroke-linejoin="round"/>
<path d="M610.324 384.117H706.842C727.13 384.117 743.577 400.564 743.577 420.851V554.104H573.59V420.851C573.59 400.564 590.037 384.117 610.324 384.117Z" fill="#881F63"/>
<mask id="mask1_876_163" style="mask-type:luminance" maskUnits="userSpaceOnUse" x="573" y="384" width="171" height="171">
<path d="M610.324 384.117H706.842C727.13 384.117 743.577 400.564 743.577 420.851V554.104H573.59V420.851C573.59 400.564 590.037 384.117 610.324 384.117Z" fill="white"/>
</mask>
<g mask="url(#mask1_876_163)">
<path opacity="0.5" d="M610.324 384.117H706.842C727.13 384.117 743.577 400.564 743.577 420.851V554.104H573.59V420.851C573.59 400.564 590.037 384.117 610.324 384.117Z" fill="white" stroke="#881F63" stroke-width="2" stroke-miterlimit="10" stroke-linejoin="round"/>
</g>
<path d="M610.324 384.117H706.842C727.13 384.117 743.577 400.564 743.577 420.851V554.104H573.59V420.851C573.59 400.564 590.037 384.117 610.324 384.117Z" stroke="#881F63" stroke-width="2" stroke-miterlimit="10" stroke-linejoin="round"/>
<path d="M725.07 670.79H497.461V563.054C497.461 555.725 503.402 549.784 510.73 549.784H725.07V670.79Z" fill="#881F63"/>
<mask id="mask2_876_163" style="mask-type:luminance" maskUnits="userSpaceOnUse" x="497" y="549" width="229" height="122">
<path d="M725.07 670.79H497.461V563.054C497.461 555.725 503.402 549.784 510.73 549.784H725.07V670.79Z" fill="white"/>
</mask>
<g mask="url(#mask2_876_163)">
<path opacity="0.5" d="M725.07 670.79H497.461V563.054C497.461 555.725 503.402 549.784 510.73 549.784H725.07V670.79Z" fill="white" stroke="#881F63" stroke-width="2" stroke-miterlimit="10" stroke-linejoin="round"/>
</g>
<path d="M725.07 670.79H497.461V563.054C497.461 555.725 503.402 549.784 510.73 549.784H725.07V670.79Z" stroke="#881F63" stroke-width="2" stroke-miterlimit="10" stroke-linejoin="round"/>
<path d="M500.82 591.536H616.212" stroke="#881F63" stroke-width="2" stroke-miterlimit="10" stroke-linejoin="round"/>
<path d="M616.723 670.79H736.29V480.635H654.899C633.814 480.635 616.723 497.727 616.723 518.809V670.79Z" fill="#881F63"/>
<mask id="mask3_876_163" style="mask-type:luminance" maskUnits="userSpaceOnUse" x="616" y="480" width="121" height="191">
<path d="M616.723 670.79H736.29V480.635H654.899C633.814 480.635 616.723 497.727 616.723 518.809V670.79Z" fill="white"/>
</mask>
<g mask="url(#mask3_876_163)">
<path opacity="0.5" d="M616.723 670.79H736.29V480.635H654.899C633.814 480.635 616.723 497.727 616.723 518.809V670.79Z" fill="white" stroke="#881F63" stroke-width="2" stroke-miterlimit="10" stroke-linejoin="round"/>
</g>
<path d="M616.723 670.79H736.29V480.635H654.899C633.814 480.635 616.723 497.727 616.723 518.809V670.79Z" stroke="#881F63" stroke-width="2" stroke-miterlimit="10" stroke-linejoin="round"/>
<path d="M649.941 670.79H769.509V480.635H688.117C667.033 480.635 649.943 497.727 649.943 518.809V670.79H649.941Z" fill="#E9B1D0" stroke="#881F63" stroke-width="2" stroke-miterlimit="10" stroke-linejoin="round"/>
<path d="M3.28125 670.79H803.641" stroke="#DA5C86" stroke-width="5" stroke-miterlimit="10" stroke-linecap="round" stroke-linejoin="round"/>
<path d="M482.189 725.54C520.943 725.54 552.359 715.5 552.359 703.115C552.359 690.73 520.943 680.69 482.189 680.69C443.436 680.69 412.02 690.73 412.02 703.115C412.02 715.5 443.436 725.54 482.189 725.54Z" fill="#D35F9F"/>
<path d="M441.33 342.605C441.33 342.605 426.838 370.187 425.903 400.107C424.968 430.027 436.188 477.712 440.395 492.672C444.603 507.632 444.135 535.215 446.94 556.252C449.745 577.29 455.823 599.262 461.433 617.962C467.043 636.662 470.783 660.972 470.783 666.115C470.783 671.257 460.206 692.721 453.194 699.266C446.181 705.811 454.42 704.917 456.758 704.917C459.095 704.917 468.341 702.513 476.86 691.827C479.211 688.88 484.808 683.412 484.808 683.412C484.808 683.412 473.588 710.995 473.588 712.865C473.588 714.735 475.458 719.877 487.145 709.592C498.833 699.307 501.17 694.165 503.975 684.347C506.78 674.53 501.638 670.322 503.508 664.245C505.378 658.167 518.935 612.352 522.675 589.912C526.415 567.472 512.858 536.617 510.988 529.137C509.118 521.657 508.183 515.58 508.183 514.177C508.183 512.775 508.183 492.672 517.533 469.297C526.883 445.922 541.375 407.12 531.558 380.472C521.74 353.825 501.638 333.255 501.638 333.255C501.638 333.255 479.198 349.617 441.33 342.605Z" fill="white" stroke="#263238" stroke-miterlimit="10" stroke-linecap="round" stroke-linejoin="round"/>
<path d="M510.988 529.137C509.118 521.657 508.183 515.58 508.183 514.177C508.183 512.775 508.183 492.672 517.533 469.297C526.883 445.922 541.375 407.12 531.558 380.472C521.74 353.825 501.638 333.255 501.638 333.255C501.638 333.255 479.198 349.617 441.33 342.605C441.33 342.605 426.838 370.187 425.903 400.107C424.968 430.027 436.188 477.712 440.395 492.672C444.603 507.632 444.135 535.215 446.94 556.252C449.745 577.29 455.823 599.262 461.433 617.962C462.63 621.949 463.738 626.192 464.746 630.448C470.123 633.326 479.114 635.879 489.015 629.182C489.015 629.182 495.949 640.834 512.377 633.261C516.471 618.232 520.803 601.144 522.675 589.912C526.415 567.472 512.858 536.617 510.988 529.137Z" fill="#263238" stroke="#263238" stroke-miterlimit="10" stroke-linecap="round" stroke-linejoin="round"/>
<path d="M471.975 405.044C471.975 405.044 468.824 469.943 471.345 493.884C473.865 517.828 478.905 548.702 482.056 561.932C484.831 573.587 487.606 606.758 489.521 629.138" stroke="white" stroke-miterlimit="10" stroke-linecap="round" stroke-linejoin="round"/>
<path d="M460.805 226.132C460.805 226.132 450.06 229.586 438.548 232.656C427.036 235.727 417.058 240.331 414.373 250.309C411.687 260.288 407.465 309.407 407.465 313.244C407.465 317.081 418.593 320.535 424.349 312.092C430.105 303.649 433.176 284.463 433.176 284.463C433.176 284.463 443.537 320.535 443.92 324.372C444.304 328.21 439.7 347.398 439.7 347.398C439.7 347.398 443.92 356.607 459.655 358.909C475.389 361.211 498.029 352.385 502.251 348.548C506.472 344.711 506.857 340.105 506.857 338.571C506.857 337.036 502.251 324.756 501.868 322.454C501.485 320.152 513.38 282.161 515.684 277.172C517.986 272.183 519.521 262.973 519.521 262.973C519.521 262.973 550.372 308.868 558.432 311.554C566.492 314.239 571.479 309.635 568.41 296.588C565.34 283.541 542.163 249.542 536.024 239.564C529.884 229.586 524.127 218.841 512.998 218.841C501.87 218.841 480.763 222.295 475.007 223.83C469.248 225.365 460.805 226.132 460.805 226.132Z" fill="white" stroke="#263238" stroke-miterlimit="10" stroke-linecap="round" stroke-linejoin="round"/>
<path d="M519.519 262.973L514.586 259.018" stroke="#263238" stroke-miterlimit="10" stroke-linecap="round" stroke-linejoin="round"/>
<path d="M470.734 300.35C470.734 300.35 479.808 303.879 498.457 296.822" stroke="#263238" stroke-miterlimit="10" stroke-linecap="round" stroke-linejoin="round"/>
<path d="M465.796 114.078C465.796 114.078 425.886 126.358 418.211 141.707C410.537 157.056 416.676 172.407 421.665 180.081C426.655 187.756 434.329 193.128 432.41 196.199C430.492 199.269 423.967 200.036 430.875 208.479C437.783 216.922 458.888 224.98 475.774 221.91C492.658 218.839 504.172 210.781 501.868 203.873C499.566 196.966 488.052 197.349 494.96 193.897C501.868 190.443 516.067 180.85 517.217 166.268C518.369 151.685 511.461 132.497 496.495 122.138C481.53 111.776 476.924 111.007 465.796 114.078Z" fill="#263238" stroke="#263238" stroke-miterlimit="10" stroke-linecap="round" stroke-linejoin="round"/>
<path d="M455.816 219.993C455.816 219.993 453.131 224.213 450.444 228.05C447.757 231.888 443.919 252.994 445.838 254.53C447.757 256.065 468.095 246.087 468.095 246.087C468.095 246.087 489.585 254.144 493.422 252.611C497.259 251.076 485.748 224.982 476.153 220.376C466.561 215.77 460.039 216.539 455.816 219.993Z" fill="white" stroke="#263238" stroke-miterlimit="10" stroke-linecap="round" stroke-linejoin="round"/>
<path d="M451.211 205.794C451.211 205.794 455.432 222.295 455.815 229.969C456.198 237.644 461.571 261.436 467.712 262.204C473.851 262.971 478.84 237.644 478.84 229.203C478.84 220.76 479.992 206.561 479.992 206.561C479.992 206.561 471.932 214.62 451.211 205.794Z" fill="white" stroke="#263238" stroke-miterlimit="10" stroke-linecap="round" stroke-linejoin="round"/>
<path d="M440.466 173.942C440.466 173.942 433.558 163.58 432.408 173.175C431.256 182.769 442.386 187.758 442.386 187.758L440.466 173.942Z" fill="white" stroke="#263238" stroke-miterlimit="10" stroke-linecap="round" stroke-linejoin="round"/>
<path d="M491.504 177.781C491.504 177.781 496.877 170.873 496.877 178.548C496.877 186.222 488.434 190.445 488.434 190.445L491.504 177.781Z" fill="white" stroke="#263238" stroke-miterlimit="10" stroke-linecap="round" stroke-linejoin="round"/>
<path d="M478.074 143.627C478.074 143.627 450.445 164.734 439.7 168.188C439.7 168.188 439.316 208.866 461.19 215.389C483.063 221.913 490.738 188.909 490.738 188.909L494.191 165.117C494.191 165.117 481.528 152.069 478.074 143.627Z" fill="white" stroke="#263238" stroke-miterlimit="10" stroke-linecap="round" stroke-linejoin="round"/>
<path d="M457.733 168.955C457.733 171.074 456.961 172.792 456.007 172.792C455.054 172.792 454.281 171.074 454.281 168.955C454.281 166.836 455.054 165.118 456.007 165.118C456.959 165.118 457.733 166.834 457.733 168.955Z" fill="#263238"/>
<path d="M476.538 170.49C476.538 172.609 475.766 174.327 474.812 174.327C473.858 174.327 473.086 172.609 473.086 170.49C473.086 168.371 473.858 166.653 474.812 166.653C475.766 166.651 476.538 168.369 476.538 170.49Z" fill="#263238"/>
<path d="M454.664 163.965C454.664 163.965 456.966 157.058 462.724 161.663" stroke="#263238" stroke-miterlimit="10" stroke-linecap="round" stroke-linejoin="round"/>
<path d="M473.852 164.732C473.852 164.732 477.305 157.825 481.143 163.966" stroke="#263238" stroke-miterlimit="10" stroke-linecap="round" stroke-linejoin="round"/>
<path d="M470.4 177.781C470.4 177.781 472.319 181.618 470.4 184.689C468.482 187.76 464.645 185.456 464.645 185.456" stroke="#263238" stroke-miterlimit="10" stroke-linecap="round" stroke-linejoin="round"/>
<path d="M467.329 197.734C468.601 197.734 469.631 196.445 469.631 194.856C469.631 193.267 468.601 191.978 467.329 191.978C466.058 191.978 465.027 193.267 465.027 194.856C465.027 196.445 466.058 197.734 467.329 197.734Z" fill="#263238"/>
<path d="M469.293 220.358L462.435 230.263L469.545 210.069C469.981 208.829 469.526 206.463 468.075 207.37L458.839 225.577C458.839 219.075 463.322 213.012 464.042 206.671C464.416 203.38 462.435 204.767 461.442 206.72C460.395 208.777 459.552 210.933 458.561 213.018C457.985 214.23 452.833 223.523 452.833 223.523C453.856 219.985 454.404 216.242 455.427 212.704C455.668 211.87 457.199 208.487 456.801 207.769C456.311 206.886 454.649 207.006 454.284 207.916C452.272 212.728 446.84 225.713 444.405 231.488L444.222 229.846C444.222 229.846 447.754 220.131 446.871 217.04C445.989 213.949 443.758 214.811 443.758 214.811C443.758 214.811 442.827 218.018 441.942 222.433C441.456 224.862 440.324 228.197 439.404 230.706C438.509 233.148 438.187 235.763 438.439 238.353L439.236 246.532C440.455 248.445 441.809 250.313 441.809 250.313C441.809 250.313 438.817 255.558 435.277 261.812L446.538 266.578C450.264 257.365 454.305 251.736 454.305 251.736C454.305 251.736 457.811 249.599 459.17 247.216C460.53 244.834 462.179 242.702 463.426 240.017C465.498 235.564 466.489 232.12 468.619 227.695C469.356 226.164 472.118 222.093 472.068 220.436C472.01 218.575 470.321 218.871 469.293 220.358Z" fill="white" stroke="#263238" stroke-miterlimit="10" stroke-linecap="round" stroke-linejoin="round"/>
<path d="M438.548 256.832L449.676 262.205C449.676 262.205 441.618 279.857 438.548 290.986C435.477 302.114 431.257 311.324 426.651 319.767C422.045 328.21 415.523 337.803 410.917 337.036C406.311 336.27 404.009 329.362 405.161 318.617C406.313 307.872 410.917 295.975 416.673 288.3C422.43 280.624 438.548 256.832 438.548 256.832Z" fill="white" stroke="#263238" stroke-miterlimit="10" stroke-linecap="round" stroke-linejoin="round"/>
<path d="M523.354 340.874C523.354 340.874 506.087 343.176 501.098 344.711C496.108 346.246 483.828 365.817 483.828 368.119C483.828 370.421 486.899 367.736 486.899 367.736C486.899 367.736 485.363 371.573 486.899 371.957C488.434 372.34 491.504 371.19 491.504 371.19C491.504 371.19 489.969 373.492 492.656 373.875C495.342 374.259 497.262 371.957 497.262 371.957L502.635 366.584C502.635 366.584 498.031 375.027 500.716 375.027C503.401 375.027 509.543 360.828 509.543 360.828C509.543 360.828 521.439 356.608 523.741 355.072C526.043 353.537 529.881 347.781 529.881 347.781L523.354 340.874Z" fill="white" stroke="#263238" stroke-miterlimit="10" stroke-linecap="round" stroke-linejoin="round"/>
<path d="M486.898 367.736L496.875 353.92" stroke="#263238" stroke-miterlimit="10" stroke-linecap="round" stroke-linejoin="round"/>
<path d="M491.504 371.19L501.482 356.608" stroke="#263238" stroke-miterlimit="10" stroke-linecap="round" stroke-linejoin="round"/>
<path d="M502.633 366.584L505.703 360.445" stroke="#263238" stroke-miterlimit="10" stroke-linecap="round" stroke-linejoin="round"/>
<path d="M559.197 298.507C559.197 298.507 554.976 300.042 551.523 306.564C548.069 313.089 521.055 341.64 521.055 341.64L529.112 352.385C529.112 352.385 548.452 334.577 560.732 325.367C573.013 316.158 576.467 310.402 576.081 303.877C575.698 297.353 562.526 281.905 562.526 281.905" fill="white"/>
<path d="M559.197 298.507C559.197 298.507 554.976 300.042 551.523 306.564C548.069 313.089 521.055 341.64 521.055 341.64L529.112 352.385C529.112 352.385 548.452 334.577 560.732 325.367C573.013 316.158 576.467 310.402 576.081 303.877C575.698 297.353 562.526 281.905 562.526 281.905" stroke="#263238" stroke-miterlimit="10" stroke-linecap="round" stroke-linejoin="round"/>
<path d="M489.518 629.14C489.776 632.165 490.019 634.993 490.245 637.543C492.136 658.966 490.791 668.161 488.985 674.717C487.203 681.189 482.193 689.116 482.055 689.838" stroke="#263238" stroke-miterlimit="10" stroke-linecap="round" stroke-linejoin="round"/>
<path d="M503.975 684.347C505.288 679.753 504.858 676.392 504.222 673.488C504.073 673.787 503.938 674.057 503.775 674.382C501.071 679.792 496.473 686.014 496.473 686.014C496.473 686.014 494.579 683.038 491.334 681.144C488.088 679.252 486.736 681.144 486.736 681.144L484.441 684.321C482.517 689.071 473.59 711.197 473.59 712.865C473.59 714.735 475.46 719.877 487.147 709.592C498.835 699.307 501.17 694.165 503.975 684.347Z" fill="#881F63" stroke="#263238" stroke-miterlimit="10" stroke-linecap="round" stroke-linejoin="round"/>
<path d="M487.812 670.596C485.648 672.759 479.158 677.357 479.158 677.357C479.158 677.357 477.806 671.948 474.559 670.055C472.884 669.077 470.995 669.977 469.557 671.072C466.586 679.435 458.771 694.06 453.191 699.266C446.178 705.811 454.418 704.918 456.755 704.918C459.093 704.918 468.338 702.513 476.858 691.828C479.027 689.107 483.954 684.248 484.7 683.515C488.222 675.315 490.789 667.078 490.789 667.078C490.789 667.078 489.978 668.432 487.812 670.596Z" fill="#881F63" stroke="#263238" stroke-miterlimit="10" stroke-linecap="round" stroke-linejoin="round"/>
<path d="M297.179 725.549C335.433 725.549 366.444 715.639 366.444 703.414C366.444 691.189 335.433 681.279 297.179 681.279C258.925 681.279 227.914 691.189 227.914 703.414C227.914 715.639 258.925 725.549 297.179 725.549Z" fill="#D35F9F"/>
<path d="M279.383 670.745C279.383 670.745 276.21 685.707 278.476 689.785C280.743 693.866 291.17 697.039 297.971 701.572C304.772 706.105 312.026 709.733 312.931 703.838C313.838 697.944 303.411 692.052 295.25 682.077C287.089 672.104 282.557 667.572 279.383 670.745Z" fill="white" stroke="#263238" stroke-miterlimit="10" stroke-linecap="round" stroke-linejoin="round"/>
<path d="M329.252 498.924C329.252 498.924 325.624 519.778 321.998 529.298C318.372 538.818 314.744 545.165 314.744 545.165C314.744 545.165 316.558 576.899 311.571 596.394C306.584 615.889 299.784 645.81 299.784 655.331C299.784 664.851 306.586 687.066 310.666 692.959C314.746 698.853 316.106 703.386 311.119 703.386C306.131 703.386 295.704 697.039 291.624 689.785C287.543 682.532 288.45 681.625 283.463 678.906C278.476 676.185 277.116 669.838 279.383 663.944C281.649 658.05 285.277 661.223 286.184 642.183C287.091 623.142 283.463 579.62 285.731 564.206C287.998 548.791 292.531 540.178 293.438 535.191C294.345 530.203 290.717 500.736 290.717 500.736C290.717 500.736 305.224 506.176 329.252 498.924Z" fill="white" stroke="#263238" stroke-miterlimit="10" stroke-linecap="round" stroke-linejoin="round"/>
<path d="M290.719 682.532C290.719 682.532 287.546 682.984 287.546 687.519C287.546 692.054 286.186 701.574 287.546 706.107C288.905 710.639 298.425 719.707 307.493 724.242C316.561 728.775 322.453 725.149 323.814 718.802C325.176 712.455 320.641 701.574 315.201 691.601C309.759 681.625 291.624 679.813 290.719 682.532Z" fill="white" stroke="#263238" stroke-miterlimit="10" stroke-linecap="round" stroke-linejoin="round"/>
<path d="M266.235 491.216C266.235 491.216 273.941 521.59 274.395 533.379C274.848 545.165 267.142 558.766 266.235 577.808C265.328 596.848 278.928 625.863 283.009 639.464C287.089 653.064 291.169 666.212 291.169 671.652C291.169 677.092 288.448 676.639 289.81 685.253C291.169 693.866 297.97 707.014 302.958 712.906C307.945 718.8 316.558 725.147 320.184 717.893C323.81 710.64 315.197 691.145 311.571 682.079C307.945 673.012 302.958 667.119 302.958 654.424C302.958 641.73 300.237 601.834 302.051 587.326C303.865 572.819 307.038 537.457 308.398 526.576C309.757 515.696 310.211 494.84 310.211 494.84C310.211 494.84 285.275 503.004 266.235 491.216Z" fill="white" stroke="#263238" stroke-miterlimit="10" stroke-linecap="round" stroke-linejoin="round"/>
<path d="M281.65 329.822C281.65 329.822 258.529 351.13 245.835 378.784C233.142 406.439 238.582 423.213 240.848 440.894C243.115 458.575 265.33 506.178 265.33 506.178C265.33 506.178 302.051 514.338 331.521 503.911C331.521 503.911 346.935 437.268 349.202 405.532C351.468 373.797 349.654 361.103 349.654 361.103L351.014 340.249C351.014 340.249 333.785 350.676 281.65 329.822Z" fill="#263238" stroke="#263238" stroke-miterlimit="10" stroke-linecap="round" stroke-linejoin="round"/>
<path d="M306.699 405.703C306.699 405.703 313.719 458.465 310.209 494.844" stroke="white" stroke-miterlimit="10" stroke-linecap="round" stroke-linejoin="round"/>
<path d="M373.681 265.898L385.015 293.099C385.015 293.099 394.083 312.139 391.362 318.488C388.641 324.835 388.189 328.915 381.388 324.382C374.587 319.849 365.973 305.342 360.079 296.274C354.185 287.206 349.652 280.407 353.732 274.513C357.814 268.619 365.068 260.005 373.681 265.898Z" fill="white" stroke="#263238" stroke-miterlimit="10" stroke-linecap="round" stroke-linejoin="round"/>
<path d="M383.192 228.726C383.192 228.726 378.983 226.387 376.879 224.75C374.775 223.114 367.058 216.332 364.952 215.163C362.846 213.994 362.379 212.825 362.379 212.825C362.379 212.825 362.846 212.124 365.186 212.124C367.525 212.124 374.773 215.632 374.773 215.632C374.773 215.632 377.58 214.931 377.58 213.762C377.58 212.795 376.782 192.334 376.505 185.269C376.451 183.896 377.402 182.696 378.751 182.427L381.324 199.03L383.194 199.264L382.726 176.581L384.531 176.499L388.338 198.329L389.273 176.347C390.552 176.774 391.461 177.914 391.592 179.257L393.716 201.134L395.811 188.944C396.08 187.373 397.507 186.269 399.094 186.402C399.094 186.402 398.861 206.746 398.861 209.787C398.861 212.827 398.247 215.526 398.014 218.331C397.78 221.137 395.44 224.644 395.44 224.644C395.44 224.644 398.391 286.019 399.56 295.373C400.729 304.726 395.117 321.33 393.714 324.838C392.312 328.346 386.465 329.048 382.489 326.708C378.513 324.369 375.005 316.186 375.708 301.452C376.409 286.72 381.086 254.917 381.788 246.031C382.491 237.145 383.192 228.726 383.192 228.726Z" fill="white" stroke="#263238" stroke-miterlimit="10" stroke-linecap="round" stroke-linejoin="round"/>
<path d="M379.215 213.76C379.215 213.76 383.19 213.994 385.294 215.864C387.398 217.734 387.867 223.815 387.867 223.815" stroke="#263238" stroke-miterlimit="10" stroke-linecap="round" stroke-linejoin="round"/>
<path d="M379.832 199.623L393.629 202.428" stroke="#263238" stroke-miterlimit="10" stroke-linecap="round" stroke-linejoin="round"/>
<path d="M304.243 148.978C304.243 148.978 298.878 141.225 286.182 141.225C265.339 141.226 248.326 169.172 253.783 188.298C255.295 193.603 257.208 198.202 252.055 202.346C246.778 206.589 239.817 208.844 235.169 213.857C229.579 219.884 228.706 229.876 231.5 237.378C235.092 247.02 245.072 251.77 254.448 254.113C274.396 259.1 284.37 244.593 287.996 234.618C291.622 224.643 284.823 213.764 282.556 194.269C280.29 174.774 289.357 153.467 304.317 153.467C304.317 153.467 308.701 151.743 304.243 148.978Z" fill="#263238" stroke="#263238" stroke-miterlimit="10" stroke-linecap="round" stroke-linejoin="round"/>
<path d="M346.331 211.46L343.418 225.057C343.418 225.057 347.951 227.647 351.511 228.294C355.071 228.941 366.727 233.797 369.641 241.891C372.554 249.984 376.44 269.733 376.44 269.733L362.843 278.473C362.843 278.473 366.08 290.127 366.08 295.956C366.08 301.783 358.31 311.172 356.693 315.056C355.073 318.94 354.103 333.833 354.103 338.366C354.103 342.899 351.836 348.079 331.117 348.079C310.397 348.079 284.498 334.805 281.908 333.186C279.318 331.566 279.965 326.386 281.908 323.473C283.851 320.56 285.468 317.97 283.527 312.466C281.584 306.963 270.901 271.027 270.901 271.027L258.275 278.797L245.648 256.46C245.648 256.46 266.368 234.446 278.671 228.943C290.974 223.439 301.98 226.029 308.778 224.733C315.577 223.439 316.224 221.82 318.814 213.726C321.404 205.633 321.404 198.51 319.785 192.683C318.165 186.856 312.338 179.087 312.338 179.087C312.338 179.087 301.008 166.784 304.245 148.98C307.482 131.173 321.404 122.433 338.238 118.224C355.071 114.014 372.231 125.347 379.028 126.317C385.827 127.289 393.921 128.584 392.625 135.381C391.331 142.18 385.827 148.331 385.827 148.331C385.827 148.331 386.474 158.043 386.151 163.87C385.827 169.697 382.914 173.907 384.531 176.497C386.151 179.087 391.331 186.209 390.035 188.151C388.741 190.093 383.561 190.417 383.561 190.417L381.276 197.272C380.894 198.417 379.907 199.249 378.714 199.434C376.412 199.791 372.878 200.446 372.878 201.102C372.878 202.073 375.468 205.959 373.201 207.253C370.935 208.548 369.964 209.519 369.964 209.519C369.964 209.519 367.051 214.699 363.167 215.993C359.281 217.287 348.598 213.403 346.331 211.46Z" fill="white" stroke="#263238" stroke-miterlimit="10" stroke-linecap="round" stroke-linejoin="round"/>
<path d="M379.025 126.317C372.227 125.347 355.068 114.014 338.235 118.224C321.401 122.433 307.479 131.173 304.242 148.98C301.005 166.786 312.335 179.087 312.335 179.087C312.335 179.087 316.666 184.867 318.897 190.196C320.169 190.628 321.642 190.944 323.344 191.066C332.408 191.713 331.437 184.592 330.467 180.059C329.496 175.526 327.877 164.519 335.323 164.196C342.769 163.872 343.093 172.936 343.093 174.879C343.093 176.822 355.072 173.26 360.252 167.756C365.432 162.253 361.546 154.807 369.639 152.54C377.733 150.274 375.466 150.597 385.826 148.331C385.826 148.331 391.33 142.18 392.624 135.381C393.918 128.582 385.824 127.288 379.025 126.317Z" fill="#263238" stroke="#263238" stroke-miterlimit="10" stroke-linecap="round" stroke-linejoin="round"/>
<path d="M362.839 278.473L359.172 262.724" stroke="#263238" stroke-miterlimit="10" stroke-linecap="round" stroke-linejoin="round"/>
<path d="M270.898 271.027L283.01 265.445" stroke="#263238" stroke-miterlimit="10" stroke-linecap="round" stroke-linejoin="round"/>
<path d="M294.344 699.308C294.344 699.308 297.517 689.787 315.198 691.601L318.824 702.481C318.824 702.481 308.397 702.934 299.784 709.282C299.784 709.282 297.972 706.56 294.344 699.308Z" fill="#881F63" stroke="#263238" stroke-miterlimit="10" stroke-linecap="round" stroke-linejoin="round"/>
<path d="M263.466 360.147C263.466 360.147 274.222 357.107 277.263 357.34C280.303 357.574 284.746 357.34 284.98 358.042C285.214 358.743 283.11 359.444 280.771 359.678C278.431 359.912 276.094 360.145 273.053 360.847C270.013 361.548 261.596 362.249 259.49 362.249C257.384 362.249 263.466 360.147 263.466 360.147Z" fill="white" stroke="#263238" stroke-miterlimit="10" stroke-linecap="round" stroke-linejoin="round"/>
<path d="M247.648 255.018C247.648 255.018 201.872 300.381 200.513 303.101C199.153 305.822 208.191 324.431 241.301 362.465C248.276 370.476 247.648 376.065 252.635 376.065C257.622 376.065 269.409 371.078 270.768 371.078C272.128 371.078 284.369 371.078 285.73 371.078C287.09 371.078 285.276 365.088 281.197 362.822C277.117 360.555 272.584 359.744 268.504 359.744C264.424 359.744 253.544 362.01 253.544 362.01C253.544 362.01 242.765 345.956 240.044 337.795C232.65 315.614 225.825 304.807 225.825 304.807L259.098 275.515L247.648 255.018Z" fill="white" stroke="#263238" stroke-miterlimit="10" stroke-linecap="round" stroke-linejoin="round"/>
<path d="M263.645 369.361C263.645 369.361 267.057 367.94 271.607 367.94C276.157 367.94 285.258 369.647 285.258 369.647" fill="white"/>
<path d="M263.645 369.361C263.645 369.361 267.057 367.94 271.607 367.94C276.157 367.94 285.258 369.647 285.258 369.647" stroke="#263238" stroke-miterlimit="10" stroke-linecap="round" stroke-linejoin="round"/>
<path d="M264.781 364.243C264.781 364.243 272.175 362.251 273.881 363.106C275.588 363.958 284.687 367.371 284.687 367.371" fill="white"/>
<path d="M264.781 364.243C264.781 364.243 272.175 362.251 273.881 363.106C275.588 363.958 284.687 367.371 284.687 367.371" stroke="#263238" stroke-miterlimit="10" stroke-linecap="round" stroke-linejoin="round"/>
<path d="M366.076 295.956C366.076 290.129 362.839 278.473 362.839 278.473L376.436 269.733C376.436 269.733 372.552 249.984 369.637 241.891C367.576 236.168 361.156 232.075 356.307 229.932C354.082 236.703 347.416 248.705 328.345 246.403C308.065 243.955 300.735 230.998 298.44 225.195C292.69 225.27 285.907 225.702 278.667 228.941C266.364 234.444 245.645 256.458 245.645 256.458L258.271 278.795L270.897 271.025C270.897 271.025 281.58 306.961 283.523 312.464C285.466 317.968 283.847 320.558 281.904 323.471C279.961 326.385 279.314 331.565 281.904 333.184C284.494 334.803 310.393 348.077 331.113 348.077C351.832 348.077 354.099 342.897 354.099 338.364C354.099 333.831 355.069 318.94 356.689 315.054C358.306 311.17 366.076 301.783 366.076 295.956Z" fill="#881F63" stroke="#263238" stroke-miterlimit="10" stroke-linecap="round" stroke-linejoin="round"/>
<path d="M270.898 271.027L288.127 263.059" stroke="#263238" stroke-miterlimit="10" stroke-linecap="round" stroke-linejoin="round"/>
<path d="M291.609 293.411C291.609 293.411 295.591 302.864 310.517 307.84" stroke="#263238" stroke-miterlimit="10" stroke-linecap="round" stroke-linejoin="round"/>
<path d="M353.306 312.814C353.306 312.814 330.419 328.735 306.535 332.219" stroke="#263238" stroke-miterlimit="10" stroke-linecap="round" stroke-linejoin="round"/>
<path d="M337.88 327.74C337.88 327.74 322.954 340.179 306.535 338.19" stroke="#263238" stroke-miterlimit="10" stroke-linecap="round" stroke-linejoin="round"/>
<path d="M362.841 278.473L355.793 258.582" stroke="#263238" stroke-miterlimit="10" stroke-linecap="round" stroke-linejoin="round"/>
<path d="M334.691 200.616C334.691 200.616 338.471 208.251 346.328 211.46" stroke="#263238" stroke-miterlimit="10" stroke-linecap="round" stroke-linejoin="round"/>
<path d="M376.451 177.532C377.405 177.532 378.178 175.908 378.178 173.905C378.178 171.901 377.405 170.277 376.451 170.277C375.496 170.277 374.723 171.901 374.723 173.905C374.723 175.908 375.496 177.532 376.451 177.532Z" fill="#263238"/>
<path d="M371.957 165.44C371.957 165.44 377.139 159.566 381.631 163.022" stroke="#263238" stroke-miterlimit="10" stroke-linecap="round" stroke-linejoin="round"/>
</svg>
