<svg width="845" height="845" viewBox="0 0 845 845" fill="none" xmlns="http://www.w3.org/2000/svg">
<path d="M172.6 487.31C37.9847 565.03 37.9881 691.039 172.607 768.761C307.225 846.48 525.484 846.48 660.097 768.761C794.713 691.041 794.709 565.031 660.091 487.31C525.472 409.59 307.215 409.59 172.6 487.31Z" fill="#F64C72"/>
<path d="M363.96 124.22L357.266 127.532V112.049C357.266 100.359 347.94 97.5551 337.817 103.401C327.692 109.247 319.486 123.461 319.486 135.153V137.294C317.189 136.378 314.223 136.733 310.978 138.605C303.693 142.812 297.786 153.041 297.786 161.454V162.427L288.452 167.817C283.654 170.587 279.766 177.323 279.766 182.863C279.766 188.403 283.654 190.649 288.452 187.879L363.958 144.285C368.756 141.515 372.645 134.779 372.645 129.239C372.645 123.699 368.758 121.45 363.96 124.22Z" fill="#DDE8FE"/>
<path d="M480.875 104.329L468.739 111.336C468.8 110.793 468.842 110.256 468.842 109.728V106.213C468.842 99.9569 464.45 97.4219 459.032 100.548C456.838 101.816 454.819 103.824 453.184 106.171C452.297 98.304 446.125 95.3736 438.628 99.7017C430.523 104.381 423.951 115.763 423.951 125.123V130.382C423.951 132.807 424.399 134.849 425.193 136.474L415.114 142.293C412.109 144.029 409.672 148.249 409.672 151.718C409.672 155.189 412.109 156.596 415.114 154.86L480.875 116.892C483.881 115.157 486.317 110.937 486.317 107.467C486.317 104.001 483.88 102.593 480.875 104.329Z" fill="#DDE8FE"/>
<path d="M250.883 689.658C262.919 696.608 282.433 696.608 294.468 689.658C306.504 682.709 306.504 671.443 294.468 664.494C282.432 657.545 262.917 657.545 250.883 664.494C238.846 671.443 238.846 682.709 250.883 689.658Z" fill="#F08EC2"/>
<path d="M201.812 670.063C213.848 677.012 233.361 677.012 245.397 670.063C257.434 663.113 257.434 651.848 245.397 644.898C233.361 637.949 213.848 637.949 201.812 644.898C189.776 651.848 189.776 663.113 201.812 670.063Z" fill="#F08EC2"/>
<path d="M361.389 689.846C358.662 688.271 358.662 684.333 361.389 682.76L581.544 555.684C582.81 554.954 584.37 554.954 585.636 555.684C588.363 557.259 588.363 561.197 585.636 562.772L365.481 689.848C364.215 690.578 362.655 690.578 361.389 689.846Z" fill="#F08EC2"/>
<path d="M640.499 566.594L628.268 573.655C625.316 575.36 621.677 575.36 618.725 573.655L570.832 546.003C568.098 544.425 568.098 540.475 570.832 538.897L583.063 531.836C586.015 530.131 589.654 530.131 592.606 531.836L640.499 559.488C643.235 561.068 643.235 565.016 640.499 566.594Z" fill="#F08EC2"/>
<path d="M560.226 617.379L571.846 610.639C575.348 608.608 581.03 608.603 584.537 610.627L588.584 612.965L603.705 604.234C605.07 603.445 607.286 603.445 608.651 604.234L608.753 604.293C610.118 605.082 610.118 606.36 608.753 607.149L593.631 615.88L594.47 616.365C597.976 618.389 597.979 621.676 594.474 623.704L582.847 630.439L565.881 640.245L543.25 627.177L560.226 617.379Z" fill="#F08EC2"/>
<path d="M727.292 652.634C770.154 652.634 804.9 632.573 804.9 607.827C804.9 583.081 770.154 563.02 727.292 563.02C684.43 563.02 649.684 583.081 649.684 607.827C649.684 632.573 684.43 652.634 727.292 652.634Z" fill="#F08EC2"/>
<path d="M126.8 754.039C169.661 754.039 204.408 733.978 204.408 709.232C204.408 684.486 169.661 664.425 126.8 664.425C83.9378 664.425 49.1914 684.486 49.1914 709.232C49.1914 733.978 83.9378 754.039 126.8 754.039Z" fill="#F08EC2"/>
<path d="M249.917 613.27L198.424 612.571L197.977 654.621H197.982C197.939 658.427 200.41 662.26 205.407 665.219C215.397 671.133 231.701 671.31 241.822 665.613C246.927 662.738 249.476 658.919 249.471 655.079L249.917 613.27Z" fill="#37474F"/>
<path d="M206.091 602.149C195.976 607.847 195.873 617.261 205.865 623.174C215.854 629.087 232.158 629.263 242.279 623.568C252.399 617.871 252.5 608.457 242.505 602.542C232.509 596.627 216.207 596.452 206.091 602.149Z" fill="#455A64"/>
<path d="M247.704 613.103C247.704 613.775 247.564 614.448 247.341 615.121C246.557 617.531 244.454 619.772 241.177 621.62C236.611 624.169 230.532 625.543 224.032 625.487C217.561 625.403 211.509 623.919 206.999 621.257C203.833 619.379 201.76 617.111 201.031 614.757C200.78 614.058 200.668 613.328 200.668 612.601C200.724 609.463 203.02 606.437 207.195 604.112C211.732 601.535 217.84 600.162 224.313 600.245C230.813 600.301 236.863 601.814 241.373 604.475C245.49 606.911 247.731 609.964 247.704 613.103Z" fill="#263238"/>
<path d="M247.341 615.119C246.556 617.529 244.454 619.77 241.177 621.619C236.611 624.168 230.532 625.542 224.032 625.486C217.561 625.401 211.509 623.918 206.999 621.256C203.833 619.378 201.76 617.11 201.031 614.756C201.815 612.346 203.918 610.105 207.195 608.285C211.732 605.708 217.84 604.336 224.313 604.391C230.812 604.476 236.863 605.988 241.373 608.65C244.54 610.526 246.585 612.767 247.341 615.119Z" fill="#AC6292"/>
<path d="M241.177 621.619C242.042 621.13 242.822 620.613 243.52 620.074C234.12 625.115 217.955 623.001 212.914 619.033C207.879 615.072 207.2 608.305 215.389 605.278C212.349 605.936 209.556 606.941 207.195 608.283C203.918 610.103 201.815 612.346 201.031 614.754C201.76 617.107 203.833 619.376 206.999 621.254C211.509 623.916 217.561 625.399 224.032 625.484C230.532 625.541 236.611 624.169 241.177 621.619Z" fill="#DE8DBA"/>
<path d="M235.149 629.026C236.277 628.391 237.18 628.925 237.166 630.221C237.153 631.517 236.225 633.082 235.096 633.719C233.967 634.356 233.063 633.821 233.078 632.524C233.094 631.228 234.02 629.661 235.149 629.026Z" fill="#263238"/>
<path d="M198.343 619.966C195.514 625.541 189.883 638.82 197.193 644.228C197.503 644.453 197.782 644.649 198.091 644.845L198.062 647.533C197.334 647.086 196.577 646.58 195.85 646.048C184.924 637.951 197.251 617.164 197.783 616.295C197.924 616.044 198.147 615.903 198.4 615.819L198.343 619.966Z" fill="#F08BB9"/>
<path d="M236.108 631.901C235.8 632.545 227.844 647.758 214.76 650.812C213.247 651.177 211.762 651.344 210.249 651.344C206.186 651.344 202.125 650.084 198.062 647.535L198.091 644.846C203.498 648.6 208.933 649.889 214.256 648.656C226.331 645.827 234.063 631.005 234.119 630.867C234.399 630.306 235.099 630.109 235.631 630.39C236.192 630.667 236.415 631.34 236.108 631.901Z" fill="#F08BB9"/>
<path d="M298.987 632.866L247.495 632.166L247.047 674.217H247.052C247.01 678.023 249.48 681.857 254.478 684.815C264.467 690.728 280.771 690.904 290.892 685.208C295.998 682.334 298.545 678.514 298.541 674.675L298.987 632.866Z" fill="#37474F"/>
<path d="M255.162 621.744C245.046 627.443 244.944 636.856 254.935 642.769C264.925 648.683 281.228 648.86 291.348 643.163C301.468 637.466 301.569 628.053 291.575 622.138C281.58 616.221 265.278 616.045 255.162 621.744Z" fill="#455A64"/>
<path d="M296.774 632.697C296.774 633.369 296.634 634.042 296.411 634.715C295.627 637.125 293.524 639.365 290.248 641.214C285.681 643.763 279.602 645.137 273.103 645.081C266.632 644.997 260.58 643.513 256.069 640.851C252.904 638.973 250.83 636.705 250.102 634.351C249.85 633.65 249.738 632.922 249.738 632.193C249.794 629.055 252.092 626.03 256.267 623.704C260.804 621.127 266.912 619.755 273.383 619.838C279.883 619.893 285.933 621.406 290.444 624.068C294.56 626.506 296.801 629.56 296.774 632.697Z" fill="#263238"/>
<path d="M296.411 634.715C295.627 637.125 293.524 639.365 290.247 641.214C285.681 643.763 279.602 645.137 273.102 645.081C266.631 644.997 260.58 643.513 256.069 640.851C252.904 638.973 250.83 636.705 250.102 634.351C250.886 631.941 252.988 629.7 256.265 627.88C260.803 625.303 266.91 623.931 273.381 623.986C279.881 624.071 285.931 625.584 290.442 628.245C293.611 630.12 295.656 632.36 296.411 634.715Z" fill="#881F63"/>
<path opacity="0.15" d="M290.247 641.215C291.113 640.726 291.89 640.209 292.59 639.67C283.19 644.711 267.025 642.597 261.984 638.629C256.949 634.668 256.27 627.901 264.46 624.874C261.419 625.531 258.626 626.537 256.265 627.879C252.988 629.699 250.886 631.942 250.102 634.35C250.83 636.702 252.904 638.972 256.069 640.85C260.58 643.511 266.631 644.995 273.102 645.08C279.602 645.135 285.681 643.763 290.247 641.215Z" fill="black"/>
<path d="M284.219 648.62C285.348 647.985 286.25 648.519 286.237 649.815C286.223 651.111 285.295 652.676 284.166 653.313C283.038 653.951 282.133 653.415 282.149 652.119C282.164 650.822 283.09 649.257 284.219 648.62Z" fill="#263238"/>
<path d="M247.413 639.562C244.584 645.137 238.953 658.415 246.264 663.823C246.571 664.048 246.852 664.244 247.161 664.44L247.132 667.129C246.404 666.681 245.649 666.176 244.92 665.645C233.994 657.548 246.321 636.761 246.854 635.893C246.994 635.641 247.217 635.501 247.47 635.416L247.413 639.562Z" fill="#F08BB9"/>
<path d="M285.178 651.495C284.87 652.139 276.914 667.352 263.83 670.406C262.317 670.769 260.832 670.938 259.319 670.938C255.257 670.938 251.196 669.677 247.133 667.127L247.162 664.438C252.568 668.192 258.003 669.481 263.326 668.249C275.401 665.42 283.133 650.599 283.189 650.46C283.469 649.899 284.169 649.703 284.702 649.984C285.263 650.263 285.486 650.935 285.178 651.495Z" fill="#F08BB9"/>
<path d="M580.415 557.673C580.16 557.673 579.911 557.539 579.771 557.303C579.567 556.948 579.688 556.493 580.043 556.289L589.529 550.815C589.889 550.615 590.337 550.734 590.543 551.087C590.748 551.442 590.626 551.896 590.271 552.101L580.785 557.575C580.667 557.639 580.54 557.673 580.415 557.673Z" fill="#37474F"/>
<path d="M581.789 553.13C583.322 554.024 584.558 556.187 584.549 557.96C584.546 558.858 584.223 559.48 583.708 559.763L364.364 686.39L360.469 679.564L579.8 552.944C580.307 552.64 581.01 552.676 581.789 553.13Z" fill="#455A64"/>
<path d="M365.189 684.598C365.18 686.373 363.932 687.086 362.4 686.192C360.868 685.298 359.632 683.135 359.641 681.362C359.649 679.588 360.898 678.874 362.429 679.768C363.96 680.661 365.196 682.824 365.189 684.598Z" fill="#37474F"/>
<path d="M569.524 536.968C569.269 536.968 569.021 536.835 568.88 536.598C568.676 536.243 568.798 535.791 569.153 535.584L582.216 528.04C582.563 527.841 583.019 527.956 583.23 528.312C583.435 528.667 583.313 529.12 582.958 529.326L569.894 536.87C569.78 536.936 569.653 536.968 569.524 536.968Z" fill="#37474F"/>
<path d="M578.291 516.04C573.384 518.87 569.408 525.756 569.406 531.42C569.406 534.304 570.439 536.308 572.098 537.214L624.608 567.471L637.26 545.768L584.745 515.517L584.735 515.534C583.117 514.492 580.832 514.573 578.291 516.04Z" fill="#881F63"/>
<path d="M621.922 561.67C621.924 556.007 625.9 549.12 630.806 546.289C635.712 543.458 639.687 545.755 639.685 551.418C639.684 557.082 635.707 563.968 630.801 566.799C625.895 569.63 621.92 567.333 621.922 561.67Z" fill="#881F63"/>
<path opacity="0.25" d="M621.922 561.67C621.924 556.007 625.9 549.12 630.806 546.289C635.712 543.458 639.687 545.755 639.685 551.418C639.684 557.082 635.707 563.968 630.801 566.799C625.895 569.63 621.92 567.333 621.922 561.67Z" fill="black"/>
<path d="M628.492 557.877C628.492 556.404 629.528 554.612 630.804 553.875C632.08 553.139 633.114 553.737 633.114 555.211C633.114 556.684 632.078 558.476 630.802 559.212C629.526 559.948 628.492 559.351 628.492 557.877Z" fill="black"/>
<path d="M614.723 565.812C613.793 565.812 612.862 565.574 612.032 565.095L569.152 540.339C568.292 539.842 567.781 538.955 567.781 537.962C567.781 536.97 568.293 536.082 569.152 535.585C569.498 535.385 569.955 535.5 570.166 535.857C570.37 536.212 570.249 536.665 569.894 536.871C569.5 537.099 569.263 537.506 569.263 537.962C569.263 538.417 569.498 538.824 569.894 539.053L612.772 563.809C613.974 564.504 615.468 564.504 616.67 563.809L630.431 555.865C630.784 555.667 631.239 555.782 631.445 556.137C631.65 556.492 631.528 556.946 631.173 557.151L617.411 565.095C616.585 565.572 615.654 565.812 614.723 565.812Z" fill="#37474F"/>
<path d="M583.592 616.847L605.533 604.214C605.959 603.969 606.225 603.442 606.225 602.691C606.226 601.191 605.175 599.364 603.875 598.612C603.226 598.235 602.637 598.199 602.211 598.444L580.27 611.077L583.592 616.847Z" fill="#455A64"/>
<path d="M585.916 607.827L592.569 611.679L583.59 616.848L580.27 611.079L585.916 607.827Z" fill="#37474F"/>
<path d="M561.004 618.312L565.464 615.733L561.009 613.154L570.181 607.849C572.945 606.251 577.426 606.252 580.189 607.853L588.019 612.387C589.313 613.137 590.011 614.126 590.084 615.105C590.092 615.211 590.118 619.634 590.063 620.6C590.008 621.594 589.325 622.576 588.01 623.335L578.833 628.635L561.004 618.312Z" fill="#37474F"/>
<path d="M588.021 612.387L580.192 607.853C577.428 606.252 572.948 606.251 570.183 607.849L561.012 613.154L578.841 623.477L588.018 618.177C590.783 616.58 590.784 613.987 588.021 612.387Z" fill="#455A64"/>
<path d="M578.839 623.477L561.01 613.154L547.613 620.868L565.45 631.193L578.839 623.477Z" fill="#F08BB9"/>
<path d="M578.838 623.477L565.448 631.193L565.441 636.344L578.831 628.634L578.838 623.477Z" fill="#E75396"/>
<path d="M582.821 621.177L564.988 610.854L566.812 609.798L584.739 620.07L582.821 621.177Z" fill="#881F63"/>
<path d="M582.823 621.177L582.816 626.333L584.736 625.224L584.741 620.07L582.823 621.177Z" fill="#881F63"/>
<path opacity="0.1" d="M582.823 621.177L582.816 626.333L584.736 625.224L584.741 620.07L582.823 621.177Z" fill="black"/>
<path d="M569.531 633.99C569.531 633.99 571.977 630.847 570.667 628.187L565.448 631.195L565.441 636.346L569.531 633.99Z" fill="#881F63"/>
<path opacity="0.1" d="M569.531 633.99C569.531 633.99 571.977 630.847 570.667 628.187L565.448 631.195L565.441 636.346L569.531 633.99Z" fill="black"/>
<path d="M570.668 628.187C570.668 628.187 570.318 624.712 567.014 623.282C564.583 622.228 559.416 624.371 557.28 620.881C555.776 618.423 557.427 615.219 557.427 615.219L547.613 620.871L565.45 631.197L570.668 628.187Z" fill="#881F63"/>
<path d="M547.612 620.868L547.605 626.022L565.442 636.345L565.448 631.194L547.612 620.868Z" fill="#881F63"/>
<path opacity="0.15" d="M547.612 620.868L547.605 626.022L565.442 636.345L565.448 631.194L547.612 620.868Z" fill="black"/>
<path d="M598.804 299.831L569.434 316.782V393.538L593.525 407.462V330.704L622.914 313.735L598.804 299.831Z" fill="#881F63"/>
<path d="M569.437 393.539C569.437 413.514 564.196 427.616 553.754 435.883C554.783 454.159 561.408 459.754 573.63 452.694C586.902 445.04 593.526 429.95 593.526 407.462L569.437 393.539Z" fill="#881F63"/>
<path opacity="0.1" d="M569.437 393.539C569.437 413.514 564.196 427.616 553.754 435.883C554.783 454.159 561.408 459.754 573.63 452.694C586.902 445.04 593.526 429.95 593.526 407.462L569.437 393.539Z" fill="black"/>
<path d="M529.504 339.842L499.66 357.068V435.033L523.77 448.936V370.992L553.595 353.766L529.504 339.842Z" fill="#881F63"/>
<path d="M536.803 489.838C528.101 483.47 523.77 469.842 523.77 448.936L499.66 435.033C499.66 455.918 504.012 469.564 512.693 475.914C513.366 476.409 514.059 476.864 514.77 477.259C518.429 479.296 534.569 488.69 538.069 490.708C537.633 490.429 537.219 490.134 536.803 489.838Z" fill="#881F63"/>
<path opacity="0.1" d="M536.803 489.838C528.101 483.47 523.77 469.842 523.77 448.936L499.66 435.033C499.66 455.918 504.012 469.564 512.693 475.914C513.366 476.409 514.059 476.864 514.77 477.259C518.429 479.296 534.569 488.69 538.069 490.708C537.633 490.429 537.219 490.134 536.803 489.838Z" fill="black"/>
<path opacity="0.5" d="M593.527 330.708L569.426 316.79L598.81 299.826L622.911 313.743L593.527 330.708Z" fill="white"/>
<path opacity="0.5" d="M523.761 370.987L499.66 357.07L529.495 339.845L553.597 353.762L523.761 370.987Z" fill="white"/>
<path d="M536.795 489.838C528.105 483.472 523.762 469.837 523.762 448.943V370.987L553.597 353.761V430.511C553.597 453.013 560.276 460.408 573.639 452.693C586.898 445.038 593.528 429.958 593.528 407.456V330.706L622.912 313.742V391.698C622.912 412.593 618.567 431.244 609.879 447.644C601.187 464.047 589.009 476.769 573.338 485.818C557.665 494.866 545.483 496.208 536.795 489.838Z" fill="#881F63"/>
<path opacity="0.3" d="M536.795 489.838C528.105 483.472 523.762 469.837 523.762 448.943V370.987L553.597 353.761V430.511C553.597 453.013 560.276 460.408 573.639 452.693C586.898 445.038 593.528 429.958 593.528 407.456V330.706L622.912 313.742V391.698C622.912 412.593 618.567 431.244 609.879 447.644C601.187 464.047 589.009 476.769 573.338 485.818C557.665 494.866 545.483 496.208 536.795 489.838Z" fill="white"/>
<path d="M466.615 392.095C463.529 390.334 460.109 389.207 456.35 388.713C447.45 387.546 437.442 390.177 426.288 396.624C415.134 403.072 405.106 411.992 396.227 423.423L420.316 437.347C429.215 425.915 439.224 416.975 450.378 410.548C461.533 404.101 471.56 401.47 480.439 402.637C484.276 403.133 487.757 404.278 490.862 406.099C487.7 404.24 470.69 394.409 466.615 392.095Z" fill="#881F63"/>
<path opacity="0.5" d="M466.615 392.095C463.529 390.334 460.109 389.207 456.35 388.713C447.45 387.546 437.442 390.177 426.288 396.624C415.134 403.072 405.106 411.992 396.227 423.423L420.316 437.347C429.215 425.915 439.224 416.975 450.378 410.548C461.533 404.101 471.56 401.47 480.439 402.637C484.276 403.133 487.757 404.278 490.862 406.099C487.7 404.24 470.69 394.409 466.615 392.095Z" fill="white"/>
<path d="M396.225 423.423C387.326 434.854 380.344 447.592 375.281 461.634L399.371 475.558C404.452 461.515 411.435 448.778 420.315 437.347L396.225 423.423Z" fill="#881F63"/>
<path opacity="0.15" d="M396.225 423.423C387.326 434.854 380.344 447.592 375.281 461.634L399.371 475.558C404.452 461.515 411.435 448.778 420.315 437.347L396.225 423.423Z" fill="white"/>
<path d="M399.371 475.558L375.281 461.634C370.198 475.676 367.668 489.679 367.668 503.602C367.668 517.525 370.2 528.581 375.281 536.788L399.371 550.692C394.307 542.504 391.756 531.448 391.756 517.524C391.756 503.583 394.307 489.6 399.371 475.558Z" fill="#881F63"/>
<path d="M399.371 550.693L375.281 536.79C378.188 541.476 381.708 545.016 385.883 547.391C388.889 549.111 404.888 558.367 409.556 561.058C405.581 558.683 402.179 555.222 399.371 550.693Z" fill="#881F63"/>
<path opacity="0.1" d="M399.371 550.693L375.281 536.79C378.188 541.476 381.708 545.016 385.883 547.391C388.889 549.111 404.888 558.367 409.556 561.058C405.581 558.683 402.179 555.222 399.371 550.693Z" fill="black"/>
<path d="M452.832 442.212C453.099 442.083 453.359 441.979 453.624 441.861V441.855C453.364 441.975 453.089 442.093 452.832 442.212Z" fill="#37474F"/>
<path d="M464.854 440.156C461.418 439.486 457.681 440.056 453.62 441.861C454.371 445.202 454.766 448.998 454.766 453.307C454.766 461.218 453.5 468.951 450.989 476.487C448.477 484.041 445.055 490.727 440.744 496.561C436.433 502.415 431.606 506.865 426.286 509.951C425.179 510.585 424.091 511.119 423.043 511.573C423.636 514.362 424.527 516.814 425.673 518.93C428.184 523.577 431.586 526.327 435.917 527.197C440.229 528.047 445.055 526.94 450.375 523.854C455.695 520.789 460.522 516.319 464.852 510.485C469.163 504.651 472.585 497.945 475.097 490.411C477.608 482.855 478.855 475.142 478.855 467.231C478.855 459.34 477.61 453.05 475.097 448.403C472.587 443.775 469.165 441.026 464.854 440.156Z" fill="#881F63"/>
<path opacity="0.1" d="M464.854 440.156C461.418 439.486 457.681 440.056 453.62 441.861C454.371 445.202 454.766 448.998 454.766 453.307C454.766 461.218 453.5 468.951 450.989 476.487C448.477 484.041 445.055 490.727 440.744 496.561C436.433 502.415 431.606 506.865 426.286 509.951C425.179 510.585 424.091 511.119 423.043 511.573C423.636 514.362 424.527 516.814 425.673 518.93C428.184 523.577 431.586 526.327 435.917 527.197C440.229 528.047 445.055 526.94 450.375 523.854C455.695 520.789 460.522 516.319 464.852 510.485C469.163 504.651 472.585 497.945 475.097 490.411C477.608 482.855 478.855 475.142 478.855 467.231C478.855 459.34 477.61 453.05 475.097 448.403C472.587 443.775 469.165 441.026 464.854 440.156Z" fill="black"/>
<path d="M420.322 564.722C411.43 563.563 404.446 558.886 399.374 550.698C394.301 542.51 391.766 531.451 391.766 517.519C391.766 503.59 394.301 489.603 399.374 475.556C404.446 461.512 411.429 448.774 420.322 437.343C429.211 425.915 439.233 416.98 450.383 410.543C461.536 404.104 471.556 401.468 480.447 402.631C484.276 403.133 487.753 404.285 490.874 406.09C494.998 408.475 498.504 411.997 501.393 416.658C506.464 424.849 509.001 435.905 509.001 449.834C509.001 463.766 506.464 477.755 501.393 491.8C496.317 505.847 489.338 518.585 480.448 530.011C471.559 541.442 461.537 550.372 450.385 556.811C439.233 563.245 429.213 565.886 420.322 564.722ZM464.85 510.485C469.168 504.644 472.585 497.95 475.096 490.402C477.606 482.862 478.863 475.138 478.863 467.233C478.863 459.332 477.606 453.06 475.096 448.413C472.583 443.77 469.166 441.022 464.85 440.164C460.528 439.312 455.707 440.419 450.383 443.493C445.058 446.567 440.235 451.029 435.919 456.868C431.597 462.712 428.18 469.406 425.672 476.948C423.159 484.496 421.905 492.218 421.905 500.118C421.905 508.024 423.159 514.296 425.672 518.938C428.182 523.587 431.599 526.335 435.919 527.189C440.236 528.046 445.058 526.935 450.383 523.859C455.707 520.785 460.528 516.329 464.85 510.485Z" fill="#881F63"/>
<path opacity="0.3" d="M420.322 564.722C411.43 563.563 404.446 558.886 399.374 550.698C394.301 542.51 391.766 531.451 391.766 517.519C391.766 503.59 394.301 489.603 399.374 475.556C404.446 461.512 411.429 448.774 420.322 437.343C429.211 425.915 439.233 416.98 450.383 410.543C461.536 404.104 471.556 401.468 480.447 402.631C484.276 403.133 487.753 404.285 490.874 406.09C494.998 408.475 498.504 411.997 501.393 416.658C506.464 424.849 509.001 435.905 509.001 449.834C509.001 463.766 506.464 477.755 501.393 491.8C496.317 505.847 489.338 518.585 480.448 530.011C471.559 541.442 461.537 550.372 450.385 556.811C439.233 563.245 429.213 565.886 420.322 564.722ZM464.85 510.485C469.168 504.644 472.585 497.95 475.096 490.402C477.606 482.862 478.863 475.138 478.863 467.233C478.863 459.332 477.606 453.06 475.096 448.413C472.583 443.77 469.166 441.022 464.85 440.164C460.528 439.312 455.707 440.419 450.383 443.493C445.058 446.567 440.235 451.029 435.919 456.868C431.597 462.712 428.18 469.406 425.672 476.948C423.159 484.496 421.905 492.218 421.905 500.118C421.905 508.024 423.159 514.296 425.672 518.938C428.182 523.587 431.599 526.335 435.919 527.189C440.236 528.046 445.058 526.935 450.383 523.859C455.707 520.785 460.528 516.329 464.85 510.485Z" fill="white"/>
<path d="M370.074 431.888L341.143 448.592L321.947 502.536L315.215 491.393L291.114 477.475L259.621 495.658L299.855 562.038V613.071L323.954 626.986L353.79 609.762V559.332L394.176 445.805L370.074 431.888Z" fill="#881F63"/>
<path opacity="0.5" d="M370.074 431.888L341.143 448.592L321.947 502.536L315.215 491.393L291.114 477.475L259.621 495.658L299.855 562.038V613.071L323.954 626.986L353.79 609.762V559.332L394.176 445.805L370.074 431.888Z" fill="white"/>
<path d="M341.142 448.592L365.241 462.509L340.226 532.806L321.945 502.537L341.142 448.592Z" fill="#881F63"/>
<path d="M259.621 495.658L283.721 509.575L323.954 575.955L299.855 562.038L259.621 495.658Z" fill="#881F63"/>
<path d="M299.855 613.071L323.955 626.986V575.955L299.855 562.038V613.071Z" fill="#881F63"/>
<path opacity="0.1" d="M299.855 613.071L323.955 626.986V575.955L299.855 562.038V613.071Z" fill="black"/>
<path d="M353.788 559.332V609.762L323.953 626.988V575.957L283.719 509.577L315.214 491.394L340.227 532.808L365.243 462.511L394.175 445.807L353.788 559.332Z" fill="#881F63"/>
<path opacity="0.3" d="M353.788 559.332V609.762L323.953 626.988V575.957L283.719 509.577L315.214 491.394L340.227 532.808L365.243 462.511L394.175 445.807L353.788 559.332Z" fill="white"/>
<path d="M581.521 118.104L552.288 134.982V198.965L529.824 175.782L505.725 161.865L481.164 176.046V316.687L505.263 330.603L534.497 313.727V249.741L556.959 272.927L581.058 286.844L605.621 272.661V132.021L581.521 118.104Z" fill="#37474F"/>
<path d="M605.619 132.021V272.661L581.057 286.842L534.495 238.782V313.723L505.262 330.601V189.959L529.822 175.778L576.385 223.835V148.899L605.619 132.021Z" fill="#455A64"/>
<path d="M481.164 176.046L505.263 189.963L529.824 175.782L505.725 161.865L481.164 176.046Z" fill="#455A64"/>
<path opacity="0.2" d="M481.164 176.046L505.263 189.963L529.824 175.782L505.725 161.865L481.164 176.046Z" fill="white"/>
<path d="M552.289 134.982L576.39 148.899L605.622 132.021L581.523 118.104L552.289 134.982Z" fill="#455A64"/>
<path opacity="0.2" d="M552.289 134.982L576.39 148.899L605.622 132.021L581.523 118.104L552.289 134.982Z" fill="white"/>
<path d="M534.496 238.784L581.057 286.844L556.958 272.927L534.496 249.742V238.784Z" fill="#263238"/>
<path d="M450.111 221.804L426.012 207.887L396.628 224.851L350.066 392.374L374.166 406.291L404.604 388.717L412.89 356.608L457.493 330.856L465.781 353.396L496.823 335.473L450.111 221.804Z" fill="#37474F"/>
<path d="M457.495 330.858L412.893 356.61L404.607 388.719L374.168 406.293L420.729 238.77L450.113 221.806L496.826 335.477L465.785 353.399L457.495 330.858ZM448.754 306.569L435.192 269.394L421.63 322.229L448.754 306.569Z" fill="#455A64"/>
<path d="M396.629 224.851L420.728 238.768L450.112 221.804L426.013 207.887L396.629 224.851Z" fill="#455A64"/>
<path opacity="0.2" d="M396.629 224.851L420.728 238.768L450.112 221.804L426.013 207.887L396.629 224.851Z" fill="white"/>
<path d="M448.747 306.554L428.633 294.945L435.198 269.393L448.747 306.554Z" fill="#263238"/>
<path d="M341.627 256.606L311.79 273.833V326.674L295.206 336.249V311.239L271.107 297.322L241.27 314.548V455.19L265.369 469.105L295.206 451.879V397.03L311.79 387.455V414.474L335.891 428.392L365.728 411.164V270.524L341.627 256.606Z" fill="#37474F"/>
<path d="M365.728 270.523V411.164L335.891 428.39V373.541L295.208 397.03V451.881L265.371 469.107V328.467L295.208 311.241V364.08L335.891 340.591V287.75L365.728 270.523Z" fill="#455A64"/>
<path d="M241.27 314.548L265.369 328.465L295.206 311.239L271.107 297.322L241.27 314.548Z" fill="#455A64"/>
<path opacity="0.2" d="M241.27 314.548L265.369 328.465L295.206 311.239L271.107 297.322L241.27 314.548Z" fill="white"/>
<path d="M311.789 273.833L335.89 287.75L365.727 270.524L341.626 256.606L311.789 273.833Z" fill="#455A64"/>
<path opacity="0.2" d="M311.789 273.833L335.89 287.75L365.727 270.524L341.626 256.606L311.789 273.833Z" fill="white"/>
<path d="M311.791 326.674L335.892 340.591L295.207 364.079V336.249L311.791 326.674Z" fill="#455A64"/>
<path opacity="0.2" d="M311.791 326.674L335.892 340.591L295.207 364.079V336.249L311.791 326.674Z" fill="white"/>
<path d="M335.89 373.541V428.392L311.789 414.475V387.455L335.89 373.541Z" fill="#263238"/>
<path d="M714.613 582.217L715.483 565.642L696.687 567.911C696.687 567.911 697.461 576.841 698.002 581.889C698.321 584.874 694.59 590.65 694.59 590.65C694.59 590.65 703.711 594.917 708.367 592.996C713.023 591.074 715.213 585.031 715.078 583.747C714.942 582.462 714.613 582.217 714.613 582.217Z" fill="#FFA8A7"/>
<path d="M670.587 610.435C670.29 610.447 669.957 613.534 671.625 614.78C673.55 616.216 679.129 618.488 686.338 617.339C693.549 616.191 697.393 613.947 700.205 611.569C703.017 609.191 706.958 605.836 710.208 605.039C713.228 604.297 716.484 602.882 717.424 601.966C718.365 601.049 718.08 597.14 718.08 597.14L670.587 610.435Z" fill="#263238"/>
<path d="M714.616 582.187C714.616 582.187 715.525 582.163 715.747 583.062C716.01 584.132 716.372 587.26 716.92 589.012C717.678 591.448 718.317 596.474 717.996 598.495C717.673 600.515 712.764 602.095 709.637 603.344C706.442 604.62 702.788 607.138 699.595 609.798C696.291 612.551 689.236 615.551 684.512 615.696C678.923 615.867 672.569 614.41 671.034 612.04C669.137 609.108 667.703 605.672 675.849 601.772C677.392 601.033 682.782 597.777 684.617 596.602C689.582 593.422 693.05 590.544 695.185 585.163C695.435 584.534 695.695 583.838 696.313 583.5C696.788 583.241 697.373 583.253 697.919 583.304C699.306 583.434 704.838 583.937 706.117 584.451C707.248 584.906 708.846 585.423 708.873 586.756C708.882 587.219 708.757 587.677 708.613 588.122C708.524 588.397 708.459 588.762 708.721 588.913C708.968 589.056 709.279 588.871 709.489 588.681C710.329 587.922 710.929 586.966 711.625 586.09C711.998 585.621 712.409 585.169 712.887 584.793C713.323 584.449 713.889 584.265 714.273 583.88C714.76 583.39 714.616 582.812 714.616 582.187Z" fill="#455A64"/>
<path d="M699.595 609.796C700.998 608.627 702.49 607.493 703.993 606.472V606.465C703.993 606.465 694.463 612.37 690.431 610.003C687.833 608.477 688.964 606.464 689.001 605.832C689.038 605.2 679.915 601.095 677.441 600.912C676.769 601.292 676.204 601.6 675.849 601.771C667.703 605.671 669.137 609.107 671.034 612.039C672.569 614.408 677.198 616.129 684.418 615.858C689.141 615.681 696.291 612.549 699.595 609.796Z" fill="#37474F"/>
<path d="M689.612 603.971C684.536 606.09 686.766 606.908 688.216 607.047C689.666 607.185 698.155 602.124 703.293 598.012C708.652 593.723 711.959 589.131 713.95 587.554C714.692 586.966 715.488 586.25 716.194 585.58C716.019 584.524 715.872 583.562 715.746 583.059C715.525 582.16 714.616 582.185 714.616 582.185C714.616 582.81 714.759 583.388 714.273 583.875C713.889 584.26 713.323 584.445 712.887 584.788C712.407 585.166 711.998 585.617 711.625 586.086C710.927 586.963 710.327 587.918 709.488 588.676C705.194 594.189 694.689 601.852 689.612 603.971Z" fill="#37474F"/>
<path d="M688.555 606.325C688.67 606.32 688.782 606.281 688.874 606.205C689.086 606.031 689.108 605.728 688.92 605.531C687.402 603.92 680.362 600.226 676.586 600.756C676.306 600.795 676.113 601.039 676.154 601.299C676.193 601.559 676.423 601.733 676.73 601.701C680.255 601.213 686.95 604.888 688.153 606.166C688.258 606.276 688.406 606.332 688.555 606.325Z" fill="#263238"/>
<path d="M692.95 603.57C693.063 603.565 693.176 603.526 693.269 603.45C693.48 603.276 693.5 602.974 693.315 602.778C691.799 601.167 684.76 597.476 680.981 598.005C680.702 598.044 680.508 598.287 680.548 598.546C680.587 598.806 680.839 598.987 681.125 598.948C684.652 598.465 691.344 602.134 692.547 603.411C692.652 603.521 692.801 603.575 692.95 603.57Z" fill="#263238"/>
<path d="M697.348 600.952C697.462 600.949 697.575 600.908 697.666 600.832C697.879 600.658 697.898 600.356 697.712 600.158C696.194 598.548 689.154 594.85 685.378 595.386C685.099 595.424 684.905 595.668 684.947 595.928C684.986 596.188 685.234 596.369 685.523 596.33C689.051 595.842 695.743 599.516 696.946 600.794C697.051 600.903 697.2 600.957 697.348 600.952Z" fill="#263238"/>
<path d="M701.407 597.998C701.52 597.993 701.633 597.954 701.726 597.878C701.937 597.704 701.957 597.402 701.772 597.206C700.256 595.595 693.198 591.902 689.438 592.433C689.159 592.472 688.965 592.715 689.005 592.974C689.044 593.234 689.294 593.413 689.583 593.376C693.105 592.891 699.803 596.562 701.006 597.839C701.109 597.949 701.258 598.003 701.407 597.998Z" fill="#263238"/>
<path d="M705.377 595.047C705.489 595.044 705.599 595.005 705.69 594.933C705.905 594.76 705.93 594.459 705.747 594.26C703.659 591.973 696.317 588.942 692.543 589.47C692.265 589.509 692.07 589.753 692.111 590.013C692.151 590.273 692.402 590.446 692.689 590.415C696.086 589.94 703.118 592.856 704.972 594.882C705.077 594.997 705.229 595.053 705.377 595.047Z" fill="#263238"/>
<path d="M753.221 589.114L748.543 573.585L767.699 570.159L768.914 585.268C768.914 585.268 771.086 590.618 769.959 592.638C768.831 594.656 756.106 597.208 754.884 595.937C753.66 594.664 753.221 589.114 753.221 589.114Z" fill="#FFA8A7"/>
<path d="M755.992 623.158C756.732 627.986 757.865 631.084 760.058 633.634C762.254 636.183 766.004 636.492 769.654 635.057C773.303 633.622 777.876 630.617 778.577 626.239C779.28 621.858 778.816 619.007 777.58 614.618L755.992 623.158Z" fill="#263238"/>
<path d="M768.912 585.268C770.455 585.129 770.306 591.788 771.757 598.206C773.311 605.086 775.924 607.615 777.268 613.244C778.804 619.676 778.669 622.681 776.416 627.08C774.165 631.479 765.311 636.86 760.288 631.883C756.195 627.825 755.597 622.693 755.365 616.063C755.127 609.208 755.019 604.377 754.262 599.268C753.537 594.384 751.946 590.074 753.232 589.312C753.398 590.02 753.575 590.922 753.746 591.615C753.876 592.148 754.26 594.793 755.122 594.681C755.147 594.039 755.081 593.454 754.978 592.82C754.889 592.269 754.889 591.653 755.26 591.162C755.636 590.667 757.086 590.015 757.697 589.807C759.183 589.3 761.848 588.638 763.369 588.269C764.128 588.085 764.89 587.929 765.657 587.815C766.279 587.722 767.016 587.651 767.621 587.749C767.993 587.809 768.348 587.985 768.508 588.284C768.628 588.506 768.632 588.771 768.654 589.023C768.693 589.479 768.797 589.924 768.963 590.345C769.036 590.53 769.208 590.743 769.423 590.661C769.598 590.593 769.651 590.385 769.637 590.223C769.575 589.427 769.411 588.867 769.289 587.95C769.233 587.526 769.105 586.956 769.061 586.527C769.022 586.106 768.982 585.683 768.912 585.268Z" fill="#455A64"/>
<path d="M776.759 611.426C776.991 612.352 778.439 618.497 776.609 619.94C774.63 621.502 773.058 616.739 773.058 616.739C773.058 616.739 768.05 616.192 761.169 620.104C761.622 621.066 760.814 624.608 758.799 624.211C756.798 623.817 755.409 616.724 755.391 616.631C755.639 622.984 756.317 627.94 760.29 631.88C765.311 636.857 774.165 631.478 776.418 627.077C778.67 622.678 778.806 619.673 777.269 613.241C777.114 612.6 776.942 612 776.759 611.426Z" fill="#37474F"/>
<path d="M772.536 617.253C772.772 619.629 775.348 618.4 775.172 615.02C774.996 611.64 772.237 603.995 771.758 598.206C771.015 590.267 770.457 585.129 768.914 585.268C768.928 585.347 768.931 585.428 768.943 585.508L769.433 588.808C769.519 589.287 769.602 589.708 769.642 590.221C770.1 595.072 770.514 604.514 771.368 608.877C772.221 613.242 772.301 614.877 772.536 617.253Z" fill="#37474F"/>
<path d="M761.989 619.908C761.284 617.65 760.723 616.137 759.807 611.789C758.898 607.471 755.976 598.871 754.516 594.24C754.071 593.488 753.843 591.999 753.748 591.614C753.59 590.967 753.424 590.142 753.268 589.459C753.253 589.412 753.24 589.364 753.228 589.315C752.303 589.882 752.768 593.635 753.341 595.567C753.914 597.498 754.604 599.565 755.332 602.34C757.135 607.794 757.595 616.066 758.744 619.201C759.892 622.34 762.694 622.166 761.989 619.908Z" fill="#37474F"/>
<path d="M761.035 620.323C761.106 620.306 761.174 620.276 761.238 620.235C761.29 620.2 766.638 616.778 772.955 617.253C773.266 617.275 773.561 617.063 773.619 616.783C773.676 616.501 773.472 616.254 773.163 616.23C766.404 615.723 760.868 619.272 760.635 619.426C760.369 619.6 760.287 619.921 760.454 620.146C760.579 620.315 760.814 620.379 761.035 620.323Z" fill="#263238"/>
<path d="M759.305 615.36C759.37 615.343 759.43 615.317 759.49 615.282C759.549 615.246 765.58 611.635 772.609 611.948C772.92 611.956 773.209 611.743 773.258 611.459C773.305 611.175 773.091 610.935 772.778 610.922C765.345 610.596 759.179 614.293 758.918 614.449C758.646 614.616 758.552 614.935 758.709 615.167C758.834 615.348 759.076 615.419 759.305 615.36Z" fill="#263238"/>
<path d="M771.815 607.099C772.028 607.045 772.211 606.888 772.268 606.682C772.344 606.401 772.162 606.139 771.857 606.097C764.805 605.13 758.282 609.325 758.006 609.506C757.739 609.68 757.658 610.001 757.825 610.226C757.993 610.449 758.348 610.483 758.611 610.315C758.674 610.276 765.011 606.207 771.574 607.115C771.655 607.126 771.736 607.12 771.815 607.099Z" fill="#263238"/>
<path d="M771.021 602.535C771.231 602.482 771.41 602.327 771.471 602.126C771.553 601.843 771.376 601.58 771.072 601.534C763.305 600.339 757.194 604.762 756.937 604.95C756.681 605.137 756.622 605.462 756.807 605.675C756.991 605.888 757.352 605.906 757.603 605.719C757.658 605.676 763.539 601.438 770.769 602.546C770.855 602.56 770.94 602.555 771.021 602.535Z" fill="#263238"/>
<path d="M770.108 597.409C770.314 597.356 770.493 597.206 770.556 597.008C770.644 596.728 770.47 596.461 770.167 596.41C762.88 595.188 756.223 599.785 755.944 599.983C755.682 600.163 755.618 600.488 755.795 600.706C755.971 600.924 756.326 600.954 756.588 600.767C756.654 600.721 763.084 596.285 769.851 597.421C769.936 597.434 770.023 597.431 770.108 597.409Z" fill="#263238"/>
<path d="M751.936 418.162C757.635 456.253 759.647 511.114 759.647 511.114C760.121 514.004 762.806 522.548 765.488 536.748C767.878 549.404 768.821 575.973 768.915 577.573C768.915 577.573 759.012 584.392 750.449 582.141C750.449 582.141 737.887 543.322 732.317 525.793C727.046 509.204 719.772 482.473 719.772 482.473L717.974 510.164C717.974 510.164 719.37 521.23 719.605 528.893C719.877 537.804 715.557 573.532 715.557 573.532C715.557 573.532 705.774 579.787 696.604 573.595C696.604 573.595 688.416 522.102 687.403 511.432C685.416 490.501 682.778 447.426 683.915 421.491L751.936 418.162Z" fill="#455A64"/>
<path d="M719.772 482.474L713.511 455.53C713.511 455.53 703.273 454.754 697.738 450.347C697.738 450.347 701.542 456.429 711.273 458.212L717.337 482.712L717.976 510.163L719.772 482.474Z" fill="#263238"/>
<path d="M653.756 314.232C655.691 323.157 654.593 322.153 659.709 329.173C670.474 343.942 683.379 361.324 683.379 361.324C694.901 365.802 695.771 350.859 702.733 343.306C696.414 336.692 693.814 336.678 686.184 327.804C681.371 322.209 673.37 312.974 673.37 312.974C673.37 312.974 669.747 303.507 666.754 294.876C662.979 283.991 661.752 282.441 663.403 277.2C664.201 274.667 664.503 271.323 664.699 269.753C665.155 266.094 665.068 262.411 665.368 258.747C665.39 258.487 665.409 258.215 665.304 257.977C664.897 257.056 663.668 257.691 663.114 258.103C662.362 258.665 661.997 259.628 661.731 260.512C661.382 261.683 661.086 262.857 660.746 264.037C660.657 264.35 660.449 265.45 660.004 265.445C659.531 265.44 659.587 264.269 659.567 263.973C659.485 262.766 659.529 261.556 659.573 260.349C659.682 257.331 659.79 254.311 659.898 251.293C659.913 250.877 659.927 250.453 659.818 250.052C659.384 248.45 657.537 248.663 656.805 250.395C656.611 250.857 656.459 251.335 656.356 251.825C656.04 253.343 655.811 254.879 655.671 256.424C655.614 257.064 655.578 257.684 655.433 258.311C655.404 258.435 655.215 259.308 654.973 258.952C654.914 258.866 654.909 258.754 654.907 258.649C654.863 256.598 655.017 254.548 655.118 252.499C655.169 251.462 655.208 250.422 655.2 249.383C655.193 248.688 655.384 247.404 654.838 246.865C654.657 246.686 654.404 246.593 654.152 246.552C653.366 246.424 652.513 246.791 652.061 247.445C651.808 247.811 651.6 248.264 651.444 248.683C651.335 248.974 651.213 249.535 651.128 250.054C650.643 248.883 649.077 249.194 648.485 250.138C647.583 251.582 647.554 253.199 647.459 255.207C647.351 257.48 647.306 258.588 647.285 261.996C647.282 262.66 646.973 263.074 646.849 262.327C646.745 261.693 646.687 261.102 646.653 260.456C646.611 259.663 646.613 259.41 646.56 258.568C646.491 257.458 646.606 255.356 646.222 254.899C645.859 254.468 645.098 254.686 644.701 255.018C644.399 255.269 644.218 255.638 644.073 256.003C643.138 258.355 643.292 260.982 643.488 263.505C643.645 265.524 643.819 267.542 643.993 269.56C644.314 273.27 644.679 277.123 646.586 280.322C647.24 281.419 647.882 282.889 648.205 284.124C649.388 288.65 650.104 293.789 651.041 299.138C651.732 303.101 652.286 307.453 653.756 314.232Z" fill="#FFA8A7"/>
<path d="M656.826 267.219C653.464 266.964 652.025 271.46 651.435 274.052C651.318 274.568 651.514 276.136 652.053 274.988C652.243 274.588 652.422 274.182 652.616 273.785C652.988 273.021 653.39 272.269 653.858 271.558C654.664 270.336 655.687 269.229 656.964 268.516C657.311 268.323 657.737 268.026 657.629 267.645C657.559 267.402 657.287 267.273 657.037 267.241C656.966 267.231 656.895 267.224 656.826 267.219Z" fill="#F28F8F"/>
<path d="M651.128 250.052C651.165 254.085 651.025 258.097 650.305 262.078C650.05 258.048 650.207 253.997 651.128 250.052Z" fill="#F28F8F"/>
<path d="M699.615 339.592C694.675 335.566 689.362 330.064 685.01 325.421C680.658 320.779 673.895 312.836 673.895 312.836L664.773 289.296C664.773 289.296 663.578 291.86 658.075 293.457C652.572 295.054 650.039 293.225 650.039 293.225C650.039 293.225 651.394 305.026 653.09 313.625C654.783 322.224 654.207 322.472 659.625 330.302C665.041 338.132 679.256 357.526 682.984 362.147C686.712 366.767 690.981 376.152 690.981 375.893C690.978 375.635 699.615 339.592 699.615 339.592Z" fill="#37474F"/>
<path d="M729.201 344.306C733.078 345.048 745.16 349.355 749.647 351.76C749.647 351.76 754.676 362.681 752.427 387.639C752.067 391.632 751.161 402.399 750.788 410.709C750.282 421.919 750.816 425.057 751.217 431.008C751.217 431.008 740.867 440.325 713.523 438.662C692.055 437.355 685.479 428.637 685.479 428.637C685.479 428.637 685.16 399.707 685.488 383.884C685.92 363.102 692.037 351.023 696.615 347.329L710.657 344.781L729.201 344.306Z" fill="#F0F0F0"/>
<path d="M731.673 344.355L731.689 345.749C731.689 345.749 726.717 358.179 726.641 382.55C726.565 406.922 727.638 445.917 727.638 445.917C727.638 445.917 744.269 445.327 755.293 436.196C755.293 436.196 752.908 415.093 753.006 405.404C753.104 395.714 755.577 381.698 758.125 367.888C760.714 353.862 740.93 335.533 740.93 335.533C738.202 339.268 735.135 342.247 731.673 344.355Z" fill="#881F63"/>
<path d="M710.141 343.248C705.147 342.938 703.614 342.014 699.612 339.592C699.612 339.592 688.452 352.595 685.807 371.75C683.164 390.904 682.383 437.24 682.383 437.24C684.271 438.383 689.244 440.262 691.6 440.555C691.6 440.555 692.134 417.736 693.042 396.709C694.135 371.341 695.631 355.365 710.175 344.826L710.141 343.248Z" fill="#881F63"/>
<path opacity="0.3" d="M735.719 386.116C733.326 388.543 730.968 391.005 728.645 393.505C731.281 391.188 733.884 388.837 736.444 386.444L736.645 386.256C735.594 384.184 734.595 382.087 733.51 380.034C733.51 380.034 731.198 375.575 730.725 374.663C732.956 373.811 735.173 372.924 737.387 372.025L737.73 371.886L737.737 371.526C737.882 363.968 737.946 356.11 737.747 348.571C737.191 355.965 736.872 363.691 736.648 371.131C734.142 372.091 731.639 373.062 729.158 374.086L729.451 374.629C731.276 378.009 733.808 382.76 735.719 386.116ZM686.445 379.393L686.53 379.576C687.976 382.765 689.45 385.938 691.01 389.075C689.857 385.845 688.619 382.651 687.355 379.466C689.242 376.677 691.088 373.862 692.906 371.029L693.107 370.717L692.896 370.406L690.182 366.397C690.726 364.687 691.399 363.015 692.142 361.368C694.586 356.183 697.675 351.351 701.055 346.705C695.847 352.487 691.294 359.101 688.904 366.573L689.063 366.806L691.749 370.742C689.989 373.542 688.254 376.358 686.562 379.202L686.445 379.393Z" fill="black"/>
<path d="M735.187 301.101C735.187 301.101 739.143 301.303 741 304.312C742.858 307.321 743.986 312.811 741.629 318.952C739.033 325.71 733.98 332.225 732.876 334.123C731.773 336.021 729.657 336.474 729.657 336.474L730.233 328.151L730.794 322.359C730.794 322.359 726.296 317.908 726.072 313.718C725.785 308.327 728.013 305.376 728.013 305.376L735.187 301.101Z" fill="#263238"/>
<path d="M706.279 309.611C708.573 308.633 711.459 308.366 713.913 308.317C716.249 308.271 718.582 308.214 720.918 308.161C723.418 308.106 725.919 308.052 728.418 307.996C728.418 307.996 736.451 307.011 736.696 301.364C736.816 298.586 735.533 296.669 735.259 296.255C734.288 294.795 732.716 293.124 731.29 292.115C727.894 289.715 724.775 288.427 720.541 287.946C717.489 287.598 714.4 287.897 711.361 288.351C709.306 288.659 707.202 289.036 705.167 288.612C703.709 288.307 702.178 287.368 701.99 285.891C700.327 287.738 699.923 290.616 701.015 292.848C699.016 292.673 697.06 294.136 696.455 296.051C695.778 298.192 696.707 299.973 697.917 301.657C697.768 301.449 696.896 303.01 696.827 303.142C696.349 304.055 696.154 305.111 696.305 306.147C696.52 307.617 697.78 308.711 699.088 309.417C701.387 310.663 703.905 310.624 706.279 309.611Z" fill="#263238"/>
<path d="M737.743 330.919C733.334 332.832 731.512 329.33 731.512 329.33L731.691 345.747C724.662 357.983 702.483 355.615 708.9 345.958L709.027 341.123C709.027 341.123 707.57 341.104 705.304 340.596C699.336 339.259 697.949 335.617 697.193 331.387C696.019 324.811 696.625 315.77 699.384 305.442C699.916 303.448 700.879 301.288 702.767 300.455C707.453 298.385 711.555 301.837 717.838 304.606C720.441 305.751 726.841 306.483 728.568 305.761C726.231 308.126 725.915 315.905 729.063 319.204C729.591 320.324 730.169 320.99 730.616 321.419C731.962 322.695 733.243 319.608 734.47 318.428C735.708 317.26 740.161 316.353 741.885 320.475C743.626 324.674 741.828 329.148 737.743 330.919Z" fill="#FFA8A7"/>
<path d="M709.024 341.125C714.04 341.312 718.327 340.903 721.848 339.218C724.748 337.831 728.873 333.805 729.904 329.871C729.552 336.229 727.073 339.12 722.485 341.28C717.896 343.44 712.249 343.667 708.965 343.596L709.024 341.125Z" fill="#F28F8F"/>
<path d="M717.016 310.122L720.752 312.812C721.481 311.734 721.234 310.257 720.203 309.513C719.17 308.77 717.744 309.044 717.016 310.122Z" fill="#263238"/>
<path d="M700.694 310.72L704.937 308.844C704.459 307.643 703.122 307.09 701.951 307.609C700.778 308.128 700.216 309.52 700.694 310.72Z" fill="#263238"/>
<path d="M718.816 316.165C718.735 317.198 717.831 317.969 716.798 317.887C715.766 317.806 714.995 316.902 715.076 315.87C715.157 314.837 716.061 314.066 717.094 314.147C718.127 314.229 718.897 315.133 718.816 316.165Z" fill="#263238"/>
<path d="M704.82 314.974C704.739 316.007 703.835 316.779 702.802 316.696C701.77 316.615 700.999 315.711 701.08 314.678C701.161 313.646 702.065 312.873 703.098 312.956C704.286 313.049 704.915 313.786 704.82 314.974Z" fill="#263238"/>
<path d="M710.995 312.856L708.933 324.72L702.73 322.121C705.156 318.009 707.91 314.922 710.995 312.856Z" fill="#F28F8F"/>
<path d="M715.327 326.042L707.602 327.881C708.186 330.049 710.392 331.394 712.525 330.886C714.657 330.379 715.913 328.209 715.327 326.042Z" fill="#B16668"/>
<path d="M710.672 330.863C711.361 328.769 713.229 327.243 715.455 327.019C715.497 328.825 714.332 330.454 712.522 330.887C711.895 331.034 711.268 331.007 710.672 330.863Z" fill="#F28F8F"/>
<path d="M706.18 196.243L749.277 109.078L725.177 95.1606L692.327 114.126L674.095 150.757L651.49 137.703L621.957 154.755V295.395L646.056 309.312L675.591 292.26V257.102L682.577 243.122L692.778 254.507L716.879 268.423L751.538 248.413L706.18 196.243Z" fill="#37474F"/>
<path d="M686.741 234.79L675.589 257.102V292.26L646.055 309.312V168.672L675.589 151.62V210.088L716.425 128.045L749.275 109.08L706.178 196.245L751.536 248.415L716.878 268.426L686.741 234.79Z" fill="#455A64"/>
<path d="M621.957 154.755L646.056 168.672L675.591 151.62L651.49 137.703L621.957 154.755Z" fill="#455A64"/>
<path opacity="0.2" d="M621.957 154.755L646.056 168.672L675.591 151.62L651.49 137.703L621.957 154.755Z" fill="white"/>
<path d="M692.328 114.126L716.428 128.043L749.278 109.078L725.178 95.1606L692.328 114.126Z" fill="#455A64"/>
<path opacity="0.2" d="M692.328 114.126L716.428 128.043L749.278 109.078L725.178 95.1606L692.328 114.126Z" fill="white"/>
<path d="M686.742 234.79L716.88 268.423L692.779 254.507L682.578 243.122L686.742 234.79Z" fill="#263238"/>
<path d="M719.191 254.197C719.242 253.744 719.473 253.296 719.872 253.08C720.298 252.848 720.839 252.922 721.266 253.152C721.694 253.382 722.03 253.745 722.353 254.109C723.404 255.295 724.386 256.541 725.294 257.84C725.493 258.126 726.977 260.194 726.935 259.005C726.919 258.592 726.671 258.002 726.502 257.658C724.705 253.982 723.015 250.254 721.435 246.482C721.101 245.684 720.876 244.315 721.704 243.712C722.478 243.147 723.543 243.644 724.133 244.236C724.487 244.591 724.807 244.976 725.086 245.392C725.949 246.679 726.737 248.018 727.445 249.399C727.739 249.972 728.004 250.533 728.374 251.058C728.447 251.161 728.951 251.9 729.042 251.481C729.064 251.378 729.027 251.273 728.99 251.177C728.261 249.257 727.349 247.416 726.487 245.556C726.049 244.613 725.625 243.665 725.243 242.696C724.988 242.049 724.33 240.932 724.633 240.225C724.732 239.99 724.934 239.811 725.152 239.678C725.831 239.265 726.76 239.284 727.425 239.72C727.798 239.965 728.16 240.308 728.461 240.636C728.67 240.864 728.995 241.339 729.267 241.789C729.277 240.521 730.845 240.222 731.748 240.876C733.127 241.875 733.759 243.364 734.6 245.189C735.425 246.977 736.177 248.797 736.96 250.605C737.56 251.993 737.975 253.473 738.645 254.859C738.781 255.141 738.967 255.412 739.292 255.373C739.373 252.628 737.636 249.358 740.382 247.283C740.536 247.166 740.705 247.06 740.896 247.034C741.84 246.904 743.211 252.98 743.507 253.916C744.11 255.829 744.495 257.636 744.686 259.627C744.843 261.264 744.624 263.015 745.117 264.617C745.562 266.064 746.158 267.468 746.932 268.771C748.083 270.708 749.623 272.585 752.215 275.357C754.921 278.249 757.267 280.319 760.604 284.121C758.578 285.658 756.442 287.079 754.078 288.314C751.014 289.915 747.946 290.721 744.796 291.378C742.263 287.158 740.296 283.912 737.61 279.678C737.487 279.484 737.355 279.295 737.218 279.109C737.041 278.871 736.85 278.639 736.652 278.418C734.066 275.516 730.974 273.588 728.434 270.579C726.215 267.953 724.93 265.403 723.377 262.789C722.694 261.639 722.123 260.424 721.425 259.3C720.71 258.148 719.985 256.99 719.487 255.723C719.308 255.268 719.157 254.788 719.182 254.3C719.184 254.268 719.186 254.232 719.191 254.197Z" fill="#FFA8A7"/>
<path d="M729.266 241.791C730.743 245.542 732.38 249.21 734.54 252.63C733.266 248.796 731.6 245.1 729.266 241.791Z" fill="#F28F8F"/>
<path d="M740.929 335.535C744.108 330.012 747.108 322.975 749.516 317.085C751.924 311.195 753.038 307.413 753.038 307.413L737.301 280.138C737.301 280.138 739.447 280.72 744.5 277.669C749.618 274.582 749.173 271.928 749.173 271.928C749.173 271.928 765.934 287.287 772.076 294.248C777.874 300.819 777.244 303.34 774.976 312.586C772.708 321.832 765.326 342.923 763.492 348.57C761.659 354.216 758.125 367.888 758.125 367.888C750.192 370.009 738.489 353.197 740.929 335.535Z" fill="#37474F"/>
<path d="M188.151 711.018C188.952 710.856 189.123 713.267 188.955 714.33C188.788 715.393 185.871 719.215 180.138 721.084C174.406 722.953 166.179 722.748 162.686 722.99C159.193 723.232 154.079 725.495 150.724 726.586C142.937 729.121 138.154 726.73 135.881 724.999C134.988 724.322 134.791 723.201 134.713 722.226C134.527 719.913 134.688 719.426 134.958 719.416L188.151 711.018Z" fill="#37474F"/>
<path d="M135.205 711.914C134.877 713.513 134.607 715.201 134.46 716.827C134.28 718.814 134.176 721.349 135.663 722.754C138.172 725.123 140.985 725.523 143.898 725.517C147.391 725.51 150.751 724.733 153.96 723.294C156.893 721.98 159.232 720.84 162.519 720.665C166.13 720.472 171.141 720.558 174.683 719.794C177.708 719.14 180.676 718.456 183.36 716.899C185.628 715.585 186.98 714.015 188.191 711.447C187.872 706.939 185.349 705.046 182.712 703.905C179.929 702.7 176.492 702.692 173.482 703.062C170.095 703.477 167.589 704.224 164.558 704.36C162.505 704.453 160.349 704.388 158.415 703.618C157.493 703.251 156.72 701.989 156.22 701.16C155.612 700.152 155.328 699.22 154.353 699.236C154.353 699.236 138.497 701 137.064 701.242C135.435 701.515 135.889 703.719 135.952 704.911C136.006 705.94 135.972 705.963 136.021 706.993C136.07 708.002 135.769 709.458 135.533 710.439C135.416 710.927 135.306 711.42 135.205 711.914Z" fill="#455A64"/>
<path d="M167.114 703.469C167.327 703.312 167.564 703.185 167.821 703.116C169.173 702.747 170.381 703.978 171.089 704.97C171.524 705.578 171.779 706.251 172.047 706.945C172.375 707.792 172.588 708.716 172.409 709.622C172.363 709.852 172.221 710.129 171.99 710.1C171.779 710.073 171.694 709.818 171.65 709.61C171.385 708.37 170.888 707.18 170.197 706.117C169.889 705.646 169.661 705.242 169.201 704.897C168.764 704.567 168.265 704.319 167.731 704.194C167.515 704.143 166.594 704.25 166.768 703.824C166.802 703.743 166.866 703.677 166.932 703.619C166.991 703.563 167.052 703.514 167.114 703.469Z" fill="#FAFAFA"/>
<path d="M163.136 703.934C163.763 703.799 164.459 703.895 165.018 704.233C165.679 704.632 165.968 705.266 166.31 705.923C166.975 707.202 167.597 709.136 166.95 710.535C166.742 710.985 166.35 710.807 166.163 710.446C165.953 710.045 165.936 709.474 165.833 709.036C165.58 708.002 165.123 707.015 164.626 706.077C164.43 705.705 164.217 705.337 163.932 705.029C163.739 704.823 163.513 704.644 163.254 704.529C163.129 704.473 162.997 704.429 162.862 704.414C162.739 704.399 162.603 704.411 162.478 704.409C162.455 704.215 162.664 704.079 162.849 704.015C162.941 703.981 163.038 703.956 163.136 703.934Z" fill="#FAFAFA"/>
<path d="M158.992 703.255C159.465 703.361 159.913 703.567 160.251 703.909C160.568 704.23 160.771 704.649 160.937 705.07C161.314 706.016 161.694 707.01 161.831 708.025C161.927 708.744 161.878 709.501 161.562 710.153C161.437 710.412 161.184 710.686 160.91 710.596C160.611 710.498 160.587 710.043 160.533 709.785C160.433 709.308 160.42 708.805 160.361 708.321C160.144 706.538 159.358 704.889 158.145 703.559C158.084 703.493 158.018 703.413 158.033 703.324C158.057 703.192 158.233 703.162 158.366 703.168C158.576 703.182 158.787 703.209 158.992 703.255Z" fill="#FAFAFA"/>
<path d="M171.384 703.369C172.778 703.189 175.944 704.765 177.865 708.901C179.787 713.036 179.592 718.542 179.592 718.542C179.592 718.542 183.699 717.807 186.957 713.988C187.865 712.925 188.38 712.059 188.63 711.307C188.679 708.45 187.752 706.17 186.43 704.912C184.115 702.709 180.797 701.468 175.808 701.764C170.213 702.095 169.898 703.631 169.898 703.631L171.384 703.369Z" fill="#FAFAFA"/>
<path d="M134.359 676.681C134.359 676.681 136.714 698.879 137.175 703.423C137.371 705.357 141.642 707.479 147.558 706.893C151.716 706.479 154.293 703.969 154.668 701.821C155.043 699.673 156.253 673.624 156.253 673.624L134.359 676.681Z" fill="#C8856A"/>
<path d="M74.1797 671.067L80.3617 648.262L101.901 656.156L86.5556 682.486L74.1797 671.067Z" fill="#C8856A"/>
<path d="M66.3858 677.377C65.9109 679.337 66.4044 681.387 66.668 683.349C66.9334 685.325 67.2223 687.263 67.3711 689.256C67.464 690.503 67.5857 691.651 67.8679 692.854C68.1856 694.204 68.0048 695.811 68.0369 697.195C68.0724 698.715 68.1079 700.232 68.1299 701.752C68.1383 702.347 68.2701 703.112 68.1231 703.697C67.9659 704.326 77.746 709.931 81.6921 712.091C81.9203 712.22 82.1501 712.319 82.407 712.434C86.0101 713.85 88.8138 710.934 88.8138 710.934C91.5871 703.584 86.1537 698.951 86.1537 698.951C86.1537 698.951 85.6535 698.98 85.7532 695.12C85.7532 692.374 85.7887 689.582 86.0473 686.846C86.2129 685.115 86.9227 684.561 87.575 682.966C88.1716 681.506 89.314 679.959 89.2515 678.323C89.2025 677.012 88.1057 675.014 87.4871 673.951C86.0473 671.484 82.8836 669.447 80.3351 668.303C78.8833 667.653 76.519 666.941 75.0268 667.844C74.2223 668.33 73.8438 669.277 73.2675 670.02C72.5864 670.901 71.618 671.504 70.7004 672.135C68.9259 673.355 67.1885 674.859 66.5176 676.905C66.4686 677.063 66.4247 677.22 66.3858 677.377Z" fill="#455A64"/>
<path d="M86.1523 698.951C86.6391 699.551 87.0683 700.166 87.4249 700.797H87.4401C89.1842 703.785 89.6135 707.175 88.8124 710.935C95.7177 710.306 97.5345 706.316 97.5345 706.316C97.5345 706.316 97.9198 702.87 93.9449 700.368C93.4447 700.053 92.9445 699.781 92.4442 699.582C92.4155 699.568 92.3868 699.553 92.3732 699.539C89.027 698.121 86.1523 698.951 86.1523 698.951Z" fill="#FAFAFA"/>
<path d="M64.7773 678.457C62.9606 679.16 63.427 684.147 64.5779 688.948C65.7288 693.75 66.349 695.425 65.766 699.418C65.1829 703.411 64.8483 705.199 66.4758 706.665C68.1049 708.13 81.0571 714.178 81.0571 714.178C81.0571 714.178 78.5052 708.03 78.1638 699.178C77.8224 690.327 77.2309 684.627 73.1259 680.603C69.0192 676.581 64.7773 678.457 64.7773 678.457Z" fill="#263238"/>
<path d="M97.5414 706.312C97.5414 706.312 92.5102 710.374 86.7304 711.03C80.9506 711.688 80.6617 709.467 80.0533 702.616C79.4449 695.764 79.2099 686.292 76.5127 682.121C73.8155 677.948 69.2778 676.099 67.4932 676.524C67.1264 676.334 65.3553 677.658 64.7773 678.455C64.7773 678.455 68.737 677.96 72.3452 681.491C75.955 685.019 76.6141 692.471 76.7797 699.244C76.9453 706.018 77.2428 713.864 82.6373 714.689C88.0301 715.514 93.7625 713.2 97.3386 710.219C99.3987 708.505 97.5414 706.312 97.5414 706.312Z" fill="#37474F"/>
<path d="M85.7436 696.434C85.7436 696.434 86.4652 696.907 86.543 697.688C86.6207 698.468 86.3013 700.261 84.5826 701.243C83.8542 701.659 83.2306 701.493 84.4034 700.069C85.578 698.641 85.7436 696.434 85.7436 696.434Z" fill="#FAFAFA"/>
<path d="M85.8613 691.664C85.8613 691.664 86.3176 692.081 86.3498 692.7C86.3836 693.319 85.2428 695.867 83.9719 696.433C82.7027 696.998 83.3855 695.598 83.9719 694.948C84.5584 694.295 85.8613 691.664 85.8613 691.664Z" fill="#FAFAFA"/>
<path d="M86.1741 686.415C86.1741 686.415 86.7403 686.709 86.7724 687.263C86.8045 687.816 84.2002 689.77 83.3856 689.705C82.5711 689.64 82.375 689.379 83.3856 688.697C84.3946 688.012 86.1741 686.415 86.1741 686.415Z" fill="#FAFAFA"/>
<path d="M93.4994 670.974C93.4994 670.974 101.229 658.578 115.339 635.499C119.338 628.96 121.542 624.161 122.51 619.189C123.477 614.217 127.402 599.079 127.402 599.079L131.169 624.877C130.142 631.397 130.042 641.575 131.452 658.791C132.702 674.083 135.367 692.967 135.367 692.967C136.73 693.997 142.357 694.903 145.872 694.614C154.666 693.889 156.258 690.307 156.258 690.307C156.258 690.307 159.158 659.857 160.16 648.5C162.514 621.803 163.203 615.503 164.523 584.745C165.639 558.719 163.166 542.613 155.857 519.293C136.819 527.925 110.957 526.3 100.286 516.787C100.286 516.787 91.7316 531.24 91.5272 554.08C91.3548 573.337 92.9789 610.712 92.9789 610.712C88.742 617.119 86.0904 622.197 83.7532 631.5C81.0576 642.229 79.1395 649.477 76.2969 661.473C87.1822 661.195 93.4994 670.974 93.4994 670.974Z" fill="#37474F"/>
<path d="M91.5946 663.504C92.977 660.913 94.3561 658.321 95.7469 655.733C98.3512 650.89 104.183 641 106.659 636.089C111.645 626.2 116.002 615.932 118.591 605.136C119.294 602.204 119.877 599.247 120.267 596.255C120.473 594.675 120.631 593.088 120.732 591.496C120.892 588.992 120.723 586.452 121.055 583.959C121.099 583.633 121.668 582.872 121.868 583.541C122.679 586.25 122.434 589.347 122.304 592.142C122.168 595.017 121.866 597.883 121.415 600.725C120.526 606.338 119.045 611.854 117.127 617.199C113.218 628.092 104.557 643.401 99.0779 653.565C97.5265 656.445 95.9683 659.319 94.4 662.191C93.3269 664.156 92.2892 666.184 91.1704 668.155C90.7581 667.725 90.2984 667.278 89.7812 666.816C90.3863 665.702 91.0099 664.599 91.5946 663.504Z" fill="#263238"/>
<path d="M152.208 549.995C151.162 540.788 149.31 531.463 146.094 522.702C146.594 522.572 147.091 522.435 147.586 522.294C151.23 531.106 153.227 540.406 154.354 549.877C159.046 548.799 159.92 542.155 159.766 538.17C159.673 535.794 159.304 533.442 158.894 531.103C158.612 529.492 158.201 527.826 157.912 526.158C159.257 530.832 160.403 535.274 161.336 539.619C161.329 539.798 161.339 539.975 161.329 540.154C161.091 544.449 159.212 550.392 154.523 551.476C155.502 560.456 155.761 569.567 155.95 578.534C156.457 602.568 155.943 626.618 154.422 650.608C153.722 661.625 152.399 682.723 150.951 693.704C150.326 693.892 149.638 694.068 148.864 694.215C149.579 684.626 151.299 665.098 151.955 655.504C152.764 643.652 153.329 631.783 153.648 619.907C153.979 607.56 154.052 595.204 153.859 582.856C153.69 571.894 153.447 560.896 152.208 549.995Z" fill="#263238"/>
<path d="M155.856 519.293L154.299 510.016C154.299 510.016 141.852 516.981 127.033 516.092C112.215 515.203 102.435 507.497 102.435 507.497L100.285 516.785C100.285 516.785 106.584 526.019 127.181 525.723C147.779 525.427 155.856 519.293 155.856 519.293Z" fill="#263238"/>
<path d="M127.403 599.081L121.346 562.543C121.346 562.543 114.522 563.008 104 553.772C104 553.772 105.678 561.605 116.981 566.978L123.325 602.202L122.511 619.19L127.403 599.081Z" fill="#263238"/>
<path d="M175.715 365.667C174.73 366.312 174.03 367.303 173.325 368.247C172.377 369.522 171.38 370.757 170.336 371.953C170.211 372.095 169.959 372.231 169.868 372.065C169.83 371.999 169.849 371.916 169.871 371.844C170.119 370.978 170.544 370.176 170.961 369.378C172.117 367.162 173.224 364.92 174.199 362.618C174.436 362.06 174.667 361.489 174.728 360.886C174.791 360.277 174.703 359.486 174.231 359.054C173.966 358.81 173.319 358.312 172.512 358.807C172.874 358.099 172.979 357.526 172.774 356.885C172.381 355.66 171.04 355.19 170.031 356.013C169.658 356.318 169.386 356.725 169.122 357.129C167.086 360.265 165.46 363.629 163.586 366.86C163.327 367.304 162.864 367.294 162.991 366.703C163.589 363.929 165.026 361.415 165.583 358.631C165.805 357.526 166.107 356.353 165.129 355.582C163.951 354.655 163.05 355.56 162.487 356.654C160.578 360.372 158.818 364.186 157.301 368.082C156.986 368.886 155.247 373.547 154.7 370.593C154.489 369.449 154.316 368.313 154.095 367.178C153.927 366.319 153.671 365.378 153.013 364.779C152.53 364.34 151.428 363.629 150.96 364.458C150.838 364.675 150.831 364.933 150.828 365.18C150.774 368.663 150.353 372.128 150.448 375.619C150.488 377.118 150.465 380.3 150.985 382.761C151.489 385.149 147.374 395.022 143.125 404.314C146.47 408.559 151.151 411.287 159.552 409.798C161.543 402.448 163.415 395.444 163.846 393.996C163.846 393.996 165.085 390.56 165.817 388.894C166.459 387.427 167.26 386.072 168 384.659C168.764 383.202 169.44 381.69 170.179 380.219C171.686 377.216 173.264 374.247 175.051 371.399C175.852 370.123 176.704 368.851 177.138 367.407C177.456 366.348 177.055 364.788 175.715 365.667Z" fill="#C8856A"/>
<path d="M161.376 378.127C161.166 376.621 160.345 375.032 158.941 374.341C158.718 374.231 158.638 374.721 158.787 374.831C159.926 375.664 160.582 377.157 160.59 378.556C160.6 380.227 160.308 381.683 159.541 383.231C159.478 383.357 159.598 383.661 159.77 383.477C161.08 382.075 161.636 380.001 161.376 378.127Z" fill="#AF6152"/>
<path d="M168.199 367.624C168.758 366.731 169.191 365.807 169.715 364.892C170.225 364 170.727 363.103 171.184 362.182C171.598 361.345 172.537 359.905 172.51 358.944C172.507 358.81 172.274 359.199 172.22 359.285C171.496 360.441 169.811 363.709 169.242 364.727C168.221 366.547 167.009 368.506 166.127 370.4C166.051 370.562 166.239 370.589 166.333 370.49C167.15 369.624 167.569 368.631 168.199 367.624Z" fill="#AF6152"/>
<path d="M143.124 404.313C138.862 413.636 133.836 422.008 133.836 422.008C133.836 422.008 108.643 445.049 102.299 451.704C95.9543 458.36 90.8352 473.47 97.3924 484.795C100.2 478.658 101.477 476.116 109.104 470.48C118.928 463.222 137.518 449.629 143.124 444.302C148.432 439.261 151.988 436.126 154.778 426.948C155.772 423.678 157.712 416.59 159.552 409.798C152.688 410.152 147.374 408.069 143.124 404.313Z" fill="#E0E0E0"/>
<path d="M140.496 416.713C140.496 416.713 147.484 422.574 147.136 423.355C146.788 424.135 144.417 425.528 144.417 425.528L140.496 416.713Z" fill="#AF6152"/>
<path d="M124.139 402.203C127.956 402.962 134.27 403.09 139.572 411.984C140.486 413.517 140.547 416.264 141.388 418.276C142.333 420.538 144.074 422.855 144.652 424.717C147.665 434.433 145.892 438.999 144.647 441.076C143.645 442.746 136.743 445.188 132.759 445.098C127.775 444.985 116.476 442.947 109.704 436.741C101.739 429.44 97.2996 417.977 102.334 411.581C109.419 402.58 120.35 401.451 124.139 402.203Z" fill="#C8856A"/>
<path d="M144.343 441.441C142.948 442.812 138.377 444.5 134.748 444.97L133.133 442.325C133.133 442.325 136.322 442.681 139.186 442.534C142.036 442.389 144.316 441.453 144.343 441.441Z" fill="#AF6152"/>
<path d="M135.333 442.007L134.226 454.872C134.226 454.872 124.402 457.855 114.051 454.897L115.156 447.927C120.329 440.88 127.797 439.026 135.333 442.007Z" fill="#C8856A"/>
<path d="M128.194 396.276C128.53 396.24 128.866 396.218 129.208 396.24C131.068 396.365 132.894 396.97 134.479 397.946C136.872 399.416 138.726 401.684 139.909 404.231C140.659 405.845 141.158 407.661 140.788 409.402C140.402 411.212 139.131 412.706 137.744 413.931C138.077 412.013 137.168 409.936 135.53 408.882C136.395 410.857 136.476 413.164 135.753 415.195C135.03 417.227 133.507 418.962 131.587 419.944C132.534 421.014 133.113 422.402 133.206 423.826C133.233 424.24 133.216 424.673 133.024 425.04C132.495 426.047 131.319 425.516 130.627 425.019C130.156 424.68 129.742 424.269 129.277 423.921C127.906 422.893 127.121 422.371 124.935 422.577C123.367 422.724 121.616 424.502 121.496 425.897C121.246 428.834 122.958 431.544 124.219 432.668C125.905 434.172 127.621 434.833 129.078 434.505C129.813 434.34 131.437 433.54 131.756 432.39C131.756 432.39 134.737 440.229 128.929 444.64C128.929 444.64 122.255 448.566 115.154 447.927C114.358 447.856 112.619 446.023 111.922 445.539C110.582 444.608 109.215 443.716 107.848 442.824C105.566 441.336 103.858 439.597 101.914 437.705C97.7771 433.679 95.45 428.203 94.1909 422.488C93.2479 418.212 95.0511 412.76 95.0511 412.76C95.7897 410.531 95.9654 408.456 97.2211 406.36C98.4362 404.335 100.067 402.58 101.914 401.118C105.879 397.981 110.839 396.134 115.841 395.581C118.723 395.264 121.662 395.377 124.499 395.995C125.155 396.139 125.829 396.404 126.492 396.421C127.056 396.438 127.622 396.337 128.194 396.276Z" fill="#263238"/>
<path d="M98.3254 462.433C99.8599 456.611 101.761 452.786 112.831 453.293L114.372 453.342C118.313 453.912 121.389 453.995 130.618 453.084C139.847 452.175 142.384 451.632 145.11 452.396C145.11 452.396 156.88 464.309 160.884 476.957C163.973 486.718 159.172 493.346 156.965 495.913C157.237 507.659 159.17 527.856 159.17 527.856C159.17 527.856 150.004 538.79 124.045 537.834C107.12 537.212 97.8657 527.956 95.9492 524.985C95.9492 524.985 100.827 512.32 101.041 504.281C99.6334 492.566 93.8401 479.448 98.3254 462.433Z" fill="#881F63"/>
<path d="M84.7396 417.06C83.2186 420.069 82.6812 423.59 83.2186 426.929C84.067 432.204 87.0532 436.887 88.3123 442.067C89.5409 447.121 85.4595 452.401 84.2123 457.224C82.0948 465.417 85.3243 474.736 92.0607 479.86C91.4405 477.742 91.263 475.493 91.5469 473.304C91.6348 476.348 93.5107 479.118 95.9004 481.006C98.29 482.893 101.168 484.039 104.002 485.155C101.146 482.888 100.465 478.711 101.268 475.155C102.071 471.599 104.073 468.456 105.809 465.25C107.526 462.083 108.533 458.733 109.483 455.279C110.59 451.255 109.427 446.763 107.702 443.114C105.743 438.972 103.57 434.913 102.103 430.573C100.636 426.233 99.9023 421.523 100.915 417.054C101.158 415.983 101.501 414.915 101.482 413.815C101.427 410.627 98.8494 408.912 95.8767 409.245C92.424 409.632 89.1285 411.354 86.8301 413.957C86.002 414.9 85.3024 415.946 84.7396 417.06Z" fill="#263238"/>
<path d="M231.034 238.101L136.555 292.649V324.193L160.654 338.11L168.952 333.319V414.584L193.051 428.501L222.888 411.275V302.179L255.135 283.562V252.018L231.034 238.101Z" fill="#37474F"/>
<path d="M193.05 319.405L160.652 338.11V306.566L255.133 252.018V283.561L222.888 302.178V411.275L193.051 428.501L193.05 319.405Z" fill="#455A64"/>
<path d="M136.555 292.649L160.654 306.566L255.135 252.018L231.034 238.101L136.555 292.649Z" fill="#455A64"/>
<path opacity="0.2" d="M136.555 292.649L160.654 306.566L255.135 252.018L231.034 238.101L136.555 292.649Z" fill="white"/>
<path d="M193.053 319.405L168.953 333.319V414.584L193.053 428.501V319.405Z" fill="#263238"/>
<path d="M200.767 434.651C195.653 440.253 190.183 446.161 190.183 446.161C190.183 446.161 167.403 449.837 155.903 450.878C152.504 451.186 149.195 451.897 145.112 452.396C145.112 452.396 141.695 460.768 147.628 471.513C150.074 475.941 154.931 478.167 156.95 478.658C160.829 473.178 175.501 471.152 189.194 467.055C198.188 464.364 200.853 462.845 203.594 459.436C205.404 457.187 210.202 449.543 214.187 443.082C208.854 441.911 203.956 440.375 200.767 434.651Z" fill="#E0E0E0"/>
<path d="M229.543 412.997C228.906 411.883 228.688 411.233 228.789 409.945C228.869 408.943 228.671 407.474 228.061 406.636C227.846 406.34 227.579 406.041 227.403 405.722C226.895 404.792 227.082 403.533 227.045 402.49C227.001 401.253 226.886 400.694 226.114 399.72C225.522 398.975 225.333 398.323 225.169 397.405C225.037 396.665 225.01 394.218 223.712 394.574C223.05 394.757 222.295 395.838 221.967 396.376C221.335 397.41 220.902 398.73 220.633 399.903C220.329 401.236 220.353 402.555 220.141 403.898C219.662 406.957 218.485 410.09 216.816 412.701C216.562 413.098 215.967 413.959 215.406 413.717C215.156 413.61 214.982 413.311 214.869 413.071C214.63 412.575 214.583 411.988 214.451 411.459C214.308 410.881 214.13 410.308 213.983 409.73C213.672 408.519 212.9 407.058 211.744 406.457C210.874 406.002 209.729 405.929 209.694 407.165C209.662 408.306 210.081 409.397 210.022 410.543C209.959 411.78 209.616 413.012 209.484 414.249C209.285 416.127 209.248 418.054 209.592 419.919C209.893 421.543 210.022 423.169 209.471 424.825C209.351 425.189 205.19 429.806 200.766 434.651C203.955 440.375 208.852 441.911 214.186 443.082C217.306 438.024 219.929 433.688 220.229 433.231C220.914 432.19 221.777 431.285 222.538 430.298C223.386 429.194 224.118 428.006 224.941 426.88C226.465 424.793 227.872 422.591 228.87 420.2C229.739 418.119 230.77 415.143 229.543 412.997Z" fill="#C8856A"/>
<path d="M150.193 240.21L142.796 226.303L148.747 209.126V198.61L130.535 209.126V219.641L138.365 233.203C138.497 233.431 138.688 233.582 138.897 233.676L138.892 233.683L150.193 240.21Z" fill="#881F63"/>
<path opacity="0.2" d="M150.193 240.21L142.796 226.303L148.747 209.126V198.61L130.535 209.126V219.641L138.365 233.203C138.497 233.431 138.688 233.582 138.897 233.676L138.892 233.683L150.193 240.21Z" fill="black"/>
<path d="M193.684 115.018C193.684 111.535 191.24 107.301 188.224 105.561L183.777 102.994C180.762 101.253 175.873 101.253 172.857 102.994L104.675 142.43C101.659 144.17 99.2148 148.404 99.2148 151.887V226.906C99.2148 230.389 101.66 234.623 104.675 236.363L109.122 238.93C112.138 240.671 117.027 240.671 120.042 238.93L141.972 226.26L149.785 239.794C150.285 240.659 151.569 240.538 151.897 239.593L160.156 215.754L188.227 199.493C191.242 197.752 193.686 193.518 193.686 190.035L193.684 115.018Z" fill="#881F63"/>
<path opacity="0.2" d="M99.2148 226.908C99.2148 230.391 101.659 234.624 104.675 236.365L109.122 238.932C111.848 240.505 116.089 240.642 119.11 239.371C116.539 240.343 114.582 238.893 114.582 235.778V160.758C114.582 159.017 115.194 157.087 116.181 155.377L100.815 146.506C99.8266 148.216 99.2165 150.146 99.2165 151.887L99.2148 226.908Z" fill="black"/>
<path opacity="0.3" d="M193.507 113.466C192.869 111.148 190.755 110.409 188.234 111.863L120.039 151.307C118.536 152.173 117.161 153.651 116.192 155.382L100.832 146.518C101.826 144.786 103.176 143.309 104.678 142.442L172.848 102.997C175.88 101.265 180.771 101.265 183.777 102.997L188.235 105.571C190.806 107.048 192.971 110.359 193.507 113.466Z" fill="white"/>
<path d="M133.547 176.965C133.527 172.863 134.502 168.561 136.119 164.76L136.113 164.751L136.146 164.67C138.036 160.263 140.811 156.55 143.898 154.74C149.198 151.62 153.623 158.018 154.327 165.537C154.951 157.241 159.284 145.707 164.584 142.612C167.672 140.802 170.467 141.25 172.39 143.42L172.426 143.462L172.419 143.478C174.063 145.367 175.077 148.502 175.098 152.604C175.162 165.314 167.563 176.811 161.209 188.9L154.349 200.584L147.723 196.807C141.281 192.221 133.611 189.675 133.547 176.965Z" fill="#F08BB9"/>
</svg>
