<svg width="750" height="685" viewBox="0 0 750 685" fill="none" xmlns="http://www.w3.org/2000/svg">
<path d="M121.57 586.359C121.57 586.359 9.06087 548.397 25.9533 438.688C54.643 252.274 -75.3097 269.901 70.9387 168.638C217.187 67.3748 160.955 19.5434 259.418 2.69681C357.881 -14.1498 329.742 53.3283 464.744 56.1284C599.746 58.9285 653.224 -31.0881 698.209 64.5746C743.195 160.192 765.733 250.208 737.594 323.332C709.456 396.457 778.403 584.936 674.294 590.536C570.23 596.182 121.57 586.359 121.57 586.359Z" fill="#DDE8FE"/>
<path d="M387.026 636.945C576.353 636.945 729.833 618.058 729.833 594.759C729.833 571.461 576.353 552.574 387.026 552.574C197.699 552.574 44.2188 571.461 44.2188 594.759C44.2188 618.058 197.699 636.945 387.026 636.945Z" fill="#AF95B3"/>
<path d="M353.659 684.776C422.793 684.776 478.838 668.088 478.838 647.503C478.838 626.917 422.793 610.229 353.659 610.229C284.525 610.229 228.48 626.917 228.48 647.503C228.48 668.088 284.525 684.776 353.659 684.776Z" fill="#70547E"/>
<path d="M625.081 428.819C625.081 428.819 574.449 421.796 561.78 390.857C549.111 359.918 557.557 371.164 544.888 337.425C532.218 303.686 519.595 296.617 543.465 264.301C567.38 231.939 568.757 233.362 564.58 205.223C560.403 177.084 558.934 181.308 580.05 153.169C601.165 125.03 588.496 71.5983 619.435 102.537C650.374 133.476 633.481 153.169 654.597 165.838C675.712 178.507 686.959 174.284 685.536 199.577C684.113 224.87 668.643 231.939 682.736 248.786C696.782 265.678 712.252 257.232 698.205 286.748C684.159 316.264 672.912 307.863 677.089 333.156C681.313 358.449 702.382 347.203 682.736 373.964C663.089 400.726 677.135 421.796 625.081 428.819Z" fill="#DB81B3"/>
<path d="M675.712 467.836H574.449V576.169H675.712V467.836Z" fill="#5D456A"/>
<path d="M625.451 502.861C624.166 502.861 623.156 501.851 623.156 500.566V223.126C623.156 221.84 624.166 220.831 625.451 220.831C626.737 220.831 627.747 221.84 627.747 223.126V500.52C627.747 501.806 626.691 502.861 625.451 502.861Z" fill="#5D456A"/>
<path d="M625.768 327.74C625.263 327.74 624.758 327.556 624.299 327.235C623.335 326.409 623.197 324.986 623.977 324.022L666.163 272.702C666.989 271.738 668.412 271.6 669.376 272.38C670.34 273.207 670.478 274.63 669.697 275.593L627.512 326.914C627.099 327.464 626.456 327.74 625.768 327.74Z" fill="#5D456A"/>
<path d="M624.395 386.128C623.752 386.128 623.11 385.853 622.651 385.348L560.773 314.335C559.947 313.371 560.038 311.948 561.002 311.076C561.966 310.25 563.389 310.342 564.262 311.306L626.094 382.318C626.92 383.282 626.828 384.705 625.864 385.577C625.451 385.945 624.9 386.128 624.395 386.128Z" fill="#5D456A"/>
<path d="M590.61 346.744C589.371 346.744 588.361 345.78 588.315 344.54L586.892 303.044C586.846 301.758 587.856 300.703 589.096 300.657C590.381 300.611 591.437 301.621 591.482 302.86L592.905 344.357C592.951 345.642 591.942 346.698 590.702 346.744C590.656 346.744 590.656 346.744 590.61 346.744Z" fill="#5D456A"/>
<path d="M670.797 304.558C670.567 304.558 670.338 304.512 670.108 304.466L649.727 298.132C648.534 297.764 647.845 296.479 648.212 295.24C648.579 294 649.865 293.358 651.104 293.725L671.485 300.06C672.679 300.427 673.367 301.712 673 302.951C672.679 303.915 671.761 304.558 670.797 304.558Z" fill="#5D456A"/>
<path d="M500.093 546.928C500.093 546.928 504.499 575.893 510.192 580.3C515.838 584.707 524.697 588.471 524.697 588.471L522.815 606.74L514.002 611.147L486.918 603.573L473.698 594.117L464.242 551.748L500.093 546.928Z" fill="#FAA590"/>
<path d="M520.241 586.589C520.241 586.589 513.953 597.284 512.071 607.383L473.649 594.163C473.649 594.163 465.525 608.99 475.072 618.951H556.092C556.092 618.951 551.089 592.878 520.241 586.589Z" fill="#881F63"/>
<path d="M557.196 559.644C557.196 559.644 553.019 568.779 556.186 577.593H628.622C628.622 577.593 630.275 555.88 596.903 552.713L557.196 559.644Z" fill="#881F63"/>
<path d="M523.184 490.376C523.184 490.376 552.791 535.086 555.913 543.257C559.08 551.427 557.152 559.644 557.152 559.644L589.285 566.576C589.285 566.576 589.927 556.477 596.859 552.713L560.319 473.988L523.184 490.376Z" fill="#FAA590"/>
<path d="M195.566 614.039C195.566 614.039 215.993 617.941 243.214 615.324C270.435 612.708 345.12 583.697 415.398 459.849L447.025 415.92L511.153 520.442C511.153 520.442 580.559 506.395 577.896 503.733C575.28 501.116 512.025 379.013 512.025 379.013C512.025 379.013 480.397 271.829 371.468 357.944C262.54 444.059 210.715 494.965 210.715 494.965L195.566 614.039Z" fill="#881F63"/>
<path d="M129.008 558.221C129.008 558.221 148.976 621.706 212.919 614.453C276.817 607.2 407.917 446.446 407.917 446.446L439.82 560.562L503.259 554.733C503.259 554.733 474.248 383.421 451.434 350.049C428.62 316.677 394.33 320.166 366.237 343.026L311.749 381.677L196.669 450.21L129.008 558.221Z" fill="#CC1577"/>
<path d="M288.019 365.38C288.019 365.38 318.775 342.107 315.24 297.306C315.24 297.306 313.037 277.108 324.008 261.271C334.979 245.481 345.536 214.725 329.7 193.61C313.955 172.586 262.084 153.261 232.66 181.813C203.236 210.364 91.7821 247.638 91.7821 247.638C91.7821 247.638 -51.1153 270.773 67.0401 381.722C119.737 431.206 193.137 406.648 197.957 404.031C202.823 401.415 288.019 365.38 288.019 365.38Z" fill="#881F63"/>
<path d="M300.322 474.86C300.322 474.86 332.868 477.155 339.248 476.375C345.629 475.595 350.816 470.408 359.584 467.975C368.351 465.588 377.165 462.788 375.925 466.368C374.732 469.949 361.971 477.523 362.751 479.129C363.531 480.736 380.699 481.516 383.913 479.542C387.126 477.569 390.706 471.142 390.706 471.142C390.706 471.142 391.487 484.729 385.519 489.503L381.526 489.917C381.526 489.917 383.637 497.215 376.201 499.51C376.201 499.51 377.532 508.14 371.014 508.278C371.014 508.278 367.709 515.577 364.082 515.852C364.082 515.852 341.452 516.265 335.071 503.871L290.637 500.291L300.322 474.86Z" fill="#FAA590"/>
<path d="M246.753 280.643C246.753 280.643 282.787 306.119 298.578 348.305C314.369 390.49 311.752 381.676 311.752 381.676L252.904 429.095C252.904 429.095 285.404 473.024 317.903 475.641L308.218 501.117C308.218 501.117 243.218 505.524 197.544 475.641L129.011 558.221C129.011 558.221 78.0577 410.642 140.44 298.178C140.44 298.178 164.173 264.806 196.213 260.4C228.254 255.993 246.753 280.643 246.753 280.643Z" fill="#F08BB9"/>
<path d="M315.695 211.879C315.695 211.879 326.252 241.533 320.285 250.759C314.363 259.986 288.015 287.666 272.867 283.718C257.719 279.77 251.797 271.875 251.797 271.875L242.8 288.584C242.8 288.584 212.917 302.217 196.254 260.491L240.597 229.735C240.597 229.735 230.911 212.613 244.544 202.515C258.178 192.416 263.87 206.049 259.922 213.945C259.922 213.853 289.346 223.952 315.695 211.879Z" fill="#FAA590"/>
<path d="M252.673 429.231C252.581 429.094 243.309 414.175 233.853 391.866C225.131 371.255 214.482 339.949 213.242 307.725H213.747C214.987 339.858 225.59 371.118 234.312 391.637C243.722 413.9 252.995 428.818 253.086 428.956L252.673 429.231Z" fill="#CC1577"/>
<path d="M197.404 475.869C197.221 475.778 180.695 464.256 166.833 439.56C158.708 425.054 153.107 408.942 150.124 391.591C146.451 369.924 146.911 346.33 151.593 321.45L152.098 321.542C141.586 377.728 154.531 416.562 167.246 439.284C181.017 463.889 197.496 475.319 197.634 475.456L197.404 475.869Z" fill="#CC1577"/>
<path d="M281.413 406.693H280.908C281.092 358.449 254.651 310.893 254.422 310.434L254.881 310.158C255.11 310.663 281.643 358.311 281.413 406.693Z" fill="#CC1577"/>
<path d="M305.55 237.814C306.101 240.89 307.846 247.179 313.4 249.887C313.675 250.025 313.951 249.657 313.721 249.428C312.206 247.913 309.452 244.516 306.055 237.631C305.918 237.355 305.505 237.493 305.55 237.814Z" fill="#CC1577"/>
<path d="M287.148 225.145C288.892 227.716 293.115 232.719 299.266 232.903C299.588 232.903 299.679 232.444 299.404 232.352C297.384 231.572 293.482 229.644 287.561 224.778C287.285 224.549 286.964 224.87 287.148 225.145Z" fill="#CC1577"/>
<path d="M307.251 253.697C304.818 253.697 302.936 253.008 301.559 251.677C298.713 248.877 299.31 244.195 299.31 244.011C299.356 243.736 299.631 243.506 299.907 243.552C300.182 243.598 300.412 243.874 300.366 244.149C300.366 244.195 299.815 248.51 302.294 250.943C303.854 252.458 306.241 252.962 309.455 252.458C309.73 252.412 310.005 252.595 310.051 252.871C310.097 253.146 309.914 253.421 309.638 253.467C308.812 253.605 307.986 253.697 307.251 253.697Z" fill="#CC1577"/>
<path d="M291.693 240.523C289.26 240.523 287.378 239.834 286.001 238.503C283.155 235.703 283.751 231.021 283.751 230.837C283.797 230.562 284.073 230.332 284.348 230.378C284.623 230.424 284.853 230.699 284.807 230.975C284.807 231.021 284.256 235.336 286.735 237.768C288.296 239.283 290.683 239.788 293.896 239.283C294.171 239.237 294.447 239.421 294.493 239.696C294.539 239.972 294.355 240.247 294.08 240.293C293.253 240.431 292.427 240.523 291.693 240.523Z" fill="#CC1577"/>
<path d="M285.492 259.664L280.535 253.834C280.351 253.605 280.397 253.283 280.581 253.1C280.81 252.916 281.132 252.962 281.315 253.146L285.401 257.966C287.191 255.624 294.398 246.077 295.086 244.975C295.224 244.745 295.545 244.654 295.821 244.791C296.05 244.929 296.142 245.25 296.004 245.526C295.178 246.857 286.227 258.654 285.86 259.159L285.492 259.664Z" fill="#CC1577"/>
<path d="M268.191 255.12C268.191 255.12 282.835 259.389 283.89 270.039L268.191 255.12Z" fill="#881F63"/>
<path d="M248.724 222.62C248.495 222.62 248.265 222.437 248.219 222.207C248.174 221.932 248.357 221.656 248.633 221.611C248.954 221.565 256.941 219.958 255.885 208.987C255.656 206.508 254.83 204.948 253.407 204.351C249.459 202.652 242.252 208.299 242.16 208.344C241.931 208.528 241.609 208.482 241.426 208.253C241.242 208.023 241.288 207.702 241.518 207.518C241.839 207.289 249.321 201.459 253.82 203.387C255.61 204.167 256.666 206.003 256.941 208.895C258.089 220.83 248.908 222.62 248.816 222.62C248.816 222.62 248.77 222.62 248.724 222.62Z" fill="#CC1577"/>
<path d="M256.342 212.063C256.113 212.063 255.883 211.879 255.837 211.65C255.241 209.079 254.323 207.61 253.037 207.289C251.247 206.876 248.952 208.987 248.217 209.859C248.034 210.089 247.713 210.089 247.483 209.905C247.254 209.722 247.254 209.4 247.437 209.171C247.575 209.033 250.467 205.59 253.267 206.279C254.919 206.692 256.113 208.39 256.801 211.374C256.847 211.65 256.71 211.925 256.434 212.017C256.388 212.063 256.342 212.063 256.342 212.063Z" fill="#CC1577"/>
<path d="M381.52 490.421L367.657 489.778C367.382 489.778 367.152 489.503 367.152 489.228C367.152 488.952 367.428 488.723 367.703 488.723L381.52 489.365C381.796 489.365 382.025 489.641 382.025 489.916C382.025 490.237 381.796 490.421 381.52 490.421Z" fill="#CC1577"/>
<path d="M376.245 500.015C376.199 500.015 376.199 500.015 376.245 500.015L365.137 499.097C364.861 499.051 364.632 498.821 364.678 498.546C364.724 498.271 364.953 498.041 365.229 498.087L376.291 499.005C376.567 499.051 376.796 499.28 376.75 499.556C376.704 499.785 376.475 500.015 376.245 500.015Z" fill="#CC1577"/>
<path d="M371.056 508.782C371.01 508.782 371.01 508.782 370.964 508.782L362.334 507.451C362.059 507.405 361.875 507.13 361.921 506.854C361.967 506.579 362.242 506.395 362.518 506.441L371.148 507.772C371.423 507.818 371.607 508.094 371.561 508.369C371.515 508.599 371.285 508.782 371.056 508.782Z" fill="#CC1577"/>
<path d="M251.801 272.38C251.663 272.38 251.525 272.334 251.433 272.242C251.296 272.104 238.443 258.379 242.849 236.804C242.895 236.529 243.171 236.345 243.446 236.391C243.722 236.437 243.905 236.713 243.859 236.988C239.59 258.012 252.076 271.37 252.168 271.507C252.351 271.737 252.351 272.058 252.168 272.242C252.03 272.334 251.892 272.38 251.801 272.38Z" fill="#CC1577"/>
<path d="M446.758 576.26C444.6 571.899 446.436 562.902 441.8 556.062C438.495 551.197 430.967 564.325 428.121 569.742C426.56 569.742 423.53 569.374 422.245 569.466C420.593 567.4 421.557 560.515 419.124 557.026C413.845 549.59 406.408 571.302 406.408 571.302C361.698 555.787 309.552 594.3 315.428 628.131C321.349 661.962 367.895 648.925 367.895 648.925C367.895 648.925 382.171 654.204 402.69 655.122C422.75 656.04 420.501 648.604 420.409 648.282C420.776 648.282 422.521 648.374 430.324 648.604C441.8 648.925 445.518 640.525 451.761 634.328C457.958 628.131 448.961 580.621 446.758 576.26Z" fill="#FAA590"/>
<path d="M422.29 621.888C417.608 621.888 412.788 620.19 407.877 616.747C401.726 612.478 398.099 607.061 397.089 600.589C394.932 586.956 405.26 573.185 405.352 573.047L405.581 573.23C405.49 573.368 395.207 587.047 397.365 600.543C398.375 606.924 401.955 612.294 408.06 616.517C414.624 621.062 421.005 622.577 427.018 620.97C438.173 618.078 444.416 605.501 444.508 605.363L444.737 605.501C444.691 605.638 438.356 618.308 427.11 621.245C425.504 621.659 423.897 621.888 422.29 621.888Z" fill="#881F63"/>
<path d="M409.985 611.697L409.848 611.467L417.651 607.336L416.825 600.634L417.1 600.588L417.927 607.52L409.985 611.697Z" fill="#881F63"/>
<path d="M417.838 607.321L417.777 607.589L426.597 609.588L426.658 609.319L417.838 607.321Z" fill="#881F63"/>
<path d="M417.285 611.697C416.046 611.697 415.312 611.284 415.266 611.284L415.403 611.055C415.449 611.055 417.882 612.386 421.417 610.091L421.554 610.32C419.81 611.422 418.341 611.697 417.285 611.697Z" fill="#881F63"/>
<path d="M434.044 591.591C428.949 585.67 422.89 589.893 422.614 590.076L422.477 589.847C422.522 589.801 428.995 585.303 434.228 591.408L434.044 591.591Z" fill="#881F63"/>
<path d="M403.331 591.73L403.102 591.546C403.147 591.5 408.059 585.349 414.853 589.756L414.715 589.985C408.151 585.762 403.515 591.5 403.331 591.73Z" fill="#881F63"/>
<path d="M409.805 570.063L419.123 569.649C419.123 569.649 419.766 558.449 417.654 558.633C415.543 558.816 409.805 570.063 409.805 570.063Z" fill="#F8928D"/>
<path d="M431.289 570.292C431.84 570.292 442.811 572.771 442.811 572.771C442.811 572.771 442.581 559.78 439.965 558.495C437.348 557.164 431.289 570.292 431.289 570.292Z" fill="#F8928D"/>
<path d="M420.226 647.961C420.226 647.915 419.813 644.564 417.885 641.259C416.095 638.229 412.606 634.557 406.134 634.557C393.556 634.557 390.618 633.776 390.48 633.73L390.572 633.455C390.618 633.455 393.602 634.281 406.134 634.281C418.803 634.281 420.455 647.777 420.501 647.915L420.226 647.961Z" fill="#881F63"/>
<path d="M422.84 639.377C422.06 639.377 421.233 639.285 420.453 639.102L420.499 638.826C432.021 641.535 444.369 622.944 444.507 622.76L444.736 622.898C444.69 622.944 441.569 627.672 437.024 632.033C433.398 635.521 428.165 639.377 422.84 639.377Z" fill="#881F63"/>
<path d="M321.349 602.471C321.349 602.471 275.996 603.297 276.409 623.77C276.822 644.243 302.299 638.459 302.482 650.899C302.666 663.339 296.469 674.31 314.922 674.31C333.329 674.31 365.829 678.441 362.753 670.362C359.632 662.283 346.182 661.686 327.959 660.63C309.735 659.575 322.588 655.673 318.043 644.059C313.499 632.446 312.443 635.567 304.777 629.554C295.551 622.347 320.706 620.878 320.706 620.878L321.349 602.471Z" fill="#FAA590"/>
<path d="M367.348 647.823C367.302 647.685 364.731 634.649 352.154 632.629C339.438 630.563 331.084 627.258 330.992 627.258L331.084 627.029C331.176 627.075 339.484 630.38 352.154 632.4C364.915 634.465 367.577 647.685 367.577 647.823H367.348Z" fill="#881F63"/>
<path d="M426.561 603.101L426.414 603.536L439.849 608.083L439.996 607.648L426.561 603.101Z" fill="#881F63"/>
<path d="M427.664 600.868L427.656 601.327L439.774 601.534L439.781 601.075L427.664 600.868Z" fill="#881F63"/>
<path d="M442.107 594.273L429.898 597.985L430.032 598.424L442.241 594.712L442.107 594.273Z" fill="#881F63"/>
<path d="M400.271 598.177L400.133 598.615L409.633 601.611L409.771 601.173L400.271 598.177Z" fill="#881F63"/>
<path d="M411.575 603.765L400.195 604.076L400.208 604.535L411.587 604.223L411.575 603.765Z" fill="#881F63"/>
<path d="M412.779 606.216L404.289 610.877L404.51 611.279L413 606.619L412.779 606.216Z" fill="#881F63"/>
<path d="M408.887 596.87L423.668 595.906C423.668 595.906 418.389 609.448 408.887 596.87Z" fill="#881F63"/>
<path d="M408.47 594.162C410.777 594.162 412.647 593.875 412.647 593.52C412.647 593.165 410.777 592.877 408.47 592.877C406.163 592.877 404.293 593.165 404.293 593.52C404.293 593.875 406.163 594.162 408.47 594.162Z" fill="#F8928D"/>
<path d="M427.337 594.255C429.644 594.255 431.515 593.967 431.515 593.612C431.515 593.257 429.644 592.969 427.337 592.969C425.03 592.969 423.16 593.257 423.16 593.612C423.16 593.967 425.03 594.255 427.337 594.255Z" fill="#F8928D"/>
<path d="M418.939 613.305C421.246 613.305 423.116 613.017 423.116 612.662C423.116 612.307 421.246 612.02 418.939 612.02C416.632 612.02 414.762 612.307 414.762 612.662C414.762 613.017 416.632 613.305 418.939 613.305Z" fill="#F8928D"/>
<path d="M417.047 246.948C414.981 243.001 410.07 241.486 406.122 243.551L404.745 244.286L405.663 250.207L401.532 251.584L404.286 255.578L399.558 256.542L403.46 260.306L397.309 261.408L399.512 263.29L397.676 266.228L410.207 259.618L413.65 257.781C417.644 255.762 419.159 250.896 417.047 246.948Z" fill="#F64C72"/>
<path d="M398.227 250.483L403.368 248.739L402.45 242.634L402.221 242.175C400.339 238.135 395.565 236.345 391.525 238.227C387.486 240.109 385.695 244.883 387.577 248.922L389.23 252.457L392.673 259.985L395.427 265.998L396.896 263.703L393.407 259.985L399.191 258.929L395.381 255.257L400.889 254.109L398.227 250.483Z" fill="#F64C72"/>
<path d="M401.814 160.835C395.388 157.897 387.768 160.697 384.83 167.124L383.82 169.327L390.66 175.891L386.804 181.629L394.149 183.97L389.145 189.754L397.729 190.718L391.027 198.108L395.618 198.384L396.122 203.846L405.487 183.465L408.057 177.819C411.041 171.438 408.241 163.818 401.814 160.835Z" fill="#F64C72"/>
<path d="M381.525 183.557L386.299 176.442L379.23 169.694L378.495 169.327C372.252 166.022 364.495 168.409 361.19 174.697C357.884 180.94 360.271 188.698 366.56 192.003L372.069 194.895L383.682 201L392.955 205.912L392.542 201.643L384.554 200.357L390.843 193.426L382.443 192.462L388.273 185.714L381.525 183.557Z" fill="#F64C72"/>
<path d="M487.377 176.625C483.705 167.995 473.744 163.956 465.114 167.582L462.13 168.867L462.956 181.445L454.051 183.602L459.146 192.416L449.093 193.609L456.622 202.239L443.493 203.478L447.762 207.885L443.355 213.669L470.76 202.101L478.334 198.888C487.01 195.216 491.049 185.255 487.377 176.625Z" fill="#F64C72"/>
<path d="M447.256 180.665L458.318 177.957L457.446 165.012L457.079 164.002C453.912 155.188 444.18 150.598 435.321 153.765C426.507 156.933 421.917 166.664 425.084 175.524L427.884 183.281L433.76 199.669L438.488 212.751L441.931 208.207L435.275 199.807L447.577 198.659L440.232 190.259L451.938 188.836L447.256 180.665Z" fill="#F64C72"/>
</svg>
