<svg width="210" height="211" viewBox="0 0 210 211" fill="none" xmlns="http://www.w3.org/2000/svg">
<rect x="35" y="35.5" width="140" height="140" fill="#553D67"/>
<mask id="mask0_74_4738" style="mask-type:luminance" maskUnits="userSpaceOnUse" x="0" y="0" width="210" height="211">
<path d="M0 0.5H210V210.5H0V0.5Z" fill="white"/>
</mask>
<g mask="url(#mask0_74_4738)">
<path d="M122.968 86.5165C125.853 61.938 135.608 47.8582 148.24 37.8611C129.392 44.964 116.103 64.1679 113.278 97.8639C146.117 89.7999 163.004 73.6683 167.069 53.9416C159.173 67.9826 146.794 79.821 122.968 86.5165Z" fill="url(#paint0_linear_74_4738)"/>
<path d="M165.507 36.7067C145.405 45.3016 132.094 63.6783 129.604 78.7472C144.096 73.9295 160.164 57.9061 165.507 36.7067Z" fill="url(#paint1_linear_74_4738)"/>
<path d="M132.581 103.504C150.59 86.5294 167.112 82.0144 183.214 82.4753C164.211 75.8012 141.687 81.9706 117.864 105.967C148.203 120.898 171.509 119.395 187.302 106.897C172.228 112.577 155.135 113.689 132.581 103.504Z" fill="url(#paint2_linear_74_4738)"/>
<path d="M197.183 92.6898C176.26 86.3523 154.25 91.8743 142.657 101.817C156.856 107.442 179.464 105.496 197.183 92.6898Z" fill="url(#paint3_linear_74_4738)"/>
<path d="M129.025 122.695C153.731 121.268 169.29 128.43 181.329 139.134C171.062 121.806 149.842 112.053 116.167 115.122C129.811 146.062 148.63 159.892 168.763 160.47C153.565 155.13 139.756 144.994 129.025 122.695Z" fill="url(#paint4_linear_74_4738)"/>
<path d="M185.463 155.937C173.509 137.633 153.099 127.716 137.827 127.88C145.089 141.317 163.659 154.357 185.463 155.937Z" fill="url(#paint5_linear_74_4738)"/>
<path d="M113.965 135.111C133.808 149.898 141.124 165.386 143.466 181.324C146.739 161.45 136.752 140.34 108.983 121.045C99.5479 153.516 105.073 176.207 120.125 189.59C111.914 175.731 107.851 159.091 113.965 135.111Z" fill="url(#paint6_linear_74_4738)"/>
<path d="M135.833 196.854C138.439 175.148 129.181 154.432 117.375 144.741C114.301 159.701 120.144 181.628 135.833 196.854Z" fill="url(#paint7_linear_74_4738)"/>
<path d="M94.4476 134.942C100.144 159.025 95.7923 175.591 87.3405 189.306C102.623 176.186 108.542 153.595 99.6724 120.964C71.5723 139.773 61.2199 160.707 64.148 180.635C66.7664 164.741 74.3502 149.382 94.4476 134.942Z" fill="url(#paint8_linear_74_4738)"/>
<path d="M71.5108 196.296C87.461 181.344 93.6837 159.523 90.8704 144.512C78.8979 153.996 69.2803 174.548 71.5108 196.296Z" fill="url(#paint9_linear_74_4738)"/>
<path d="M79.6052 122.266C68.4888 144.376 54.506 154.27 39.2173 159.344C59.3577 159.116 78.4127 145.616 92.5926 114.917C58.9755 111.264 37.5894 120.647 27.0229 137.793C39.246 127.3 54.9281 120.41 79.6052 122.266Z" fill="url(#paint10_linear_74_4738)"/>
<path d="M22.5967 154.523C44.4261 153.322 63.2187 140.606 70.7132 127.297C55.4459 126.868 34.8677 136.43 22.5967 154.523Z" fill="url(#paint11_linear_74_4738)"/>
<path d="M76.3825 103.016C53.6552 112.808 36.5846 111.399 21.6108 105.458C37.1859 118.23 60.461 120.136 91.0552 105.735C67.6521 81.3276 45.2377 74.7683 26.122 81.111C42.2297 80.9297 58.6721 85.7317 76.3825 103.016Z" fill="url(#paint12_linear_74_4738)"/>
<path d="M11.9778 91.082C29.4722 104.194 52.0419 106.532 66.3373 101.155C54.9178 91.012 33.0079 85.1092 11.9778 91.082Z" fill="url(#paint13_linear_74_4738)"/>
<path d="M86.2883 86.1982C62.5839 79.0897 50.4123 67.0378 42.7603 52.8622C46.4818 72.6564 63.0868 89.0784 95.7802 97.7118C93.5409 63.9715 80.5875 44.5399 61.866 37.1111C74.3221 47.3262 83.8316 61.573 86.2883 86.1982Z" fill="url(#paint14_linear_74_4738)"/>
<path d="M44.6223 35.6579C49.5955 56.9463 65.3825 73.2464 79.7892 78.3155C77.5615 63.2053 64.5723 44.6004 44.6223 35.6579Z" fill="url(#paint15_linear_74_4738)"/>
<path d="M104.687 79.6822C91.0972 58.9997 89.5201 41.9438 92.7702 26.1659C82.8978 43.7218 85.0618 66.9748 104.557 94.6037C124.529 67.3178 127.097 44.1054 117.531 26.3811C120.507 42.2123 118.633 59.2391 104.687 79.6822Z" fill="url(#paint16_linear_74_4738)"/>
<path d="M105.255 14.1832C95.3805 33.688 96.9961 56.3214 104.775 69.4656C112.78 56.4589 114.789 33.8563 105.255 14.1832Z" fill="url(#paint17_linear_74_4738)"/>
</g>
<defs>
<linearGradient id="paint0_linear_74_4738" x1="140.174" y1="97.8639" x2="140.174" y2="37.8611" gradientUnits="userSpaceOnUse">
<stop stop-color="#DE8DBA"/>
<stop offset="1" stop-color="#70499A"/>
</linearGradient>
<linearGradient id="paint1_linear_74_4738" x1="147.556" y1="78.7472" x2="147.556" y2="36.7067" gradientUnits="userSpaceOnUse">
<stop stop-color="#DE8DBA"/>
<stop offset="1" stop-color="#70499A"/>
</linearGradient>
<linearGradient id="paint2_linear_74_4738" x1="152.583" y1="116.719" x2="152.583" y2="79.9556" gradientUnits="userSpaceOnUse">
<stop stop-color="#DE8DBA"/>
<stop offset="1" stop-color="#70499A"/>
</linearGradient>
<linearGradient id="paint3_linear_74_4738" x1="169.92" y1="104.8" x2="169.92" y2="89.9863" gradientUnits="userSpaceOnUse">
<stop stop-color="#DE8DBA"/>
<stop offset="1" stop-color="#70499A"/>
</linearGradient>
<linearGradient id="paint4_linear_74_4738" x1="148.748" y1="160.47" x2="148.748" y2="114.562" gradientUnits="userSpaceOnUse">
<stop stop-color="#DE8DBA"/>
<stop offset="1" stop-color="#70499A"/>
</linearGradient>
<linearGradient id="paint5_linear_74_4738" x1="161.645" y1="155.937" x2="161.645" y2="127.878" gradientUnits="userSpaceOnUse">
<stop stop-color="#DE8DBA"/>
<stop offset="1" stop-color="#70499A"/>
</linearGradient>
<linearGradient id="paint6_linear_74_4738" x1="124.198" y1="189.59" x2="124.198" y2="121.045" gradientUnits="userSpaceOnUse">
<stop stop-color="#DE8DBA"/>
<stop offset="1" stop-color="#70499A"/>
</linearGradient>
<linearGradient id="paint7_linear_74_4738" x1="126.43" y1="196.854" x2="126.43" y2="144.741" gradientUnits="userSpaceOnUse">
<stop stop-color="#DE8DBA"/>
<stop offset="1" stop-color="#70499A"/>
</linearGradient>
<linearGradient id="paint8_linear_74_4738" x1="83.7458" y1="189.306" x2="83.7458" y2="120.964" gradientUnits="userSpaceOnUse">
<stop stop-color="#DE8DBA"/>
<stop offset="1" stop-color="#70499A"/>
</linearGradient>
<linearGradient id="paint9_linear_74_4738" x1="81.3561" y1="196.296" x2="81.3561" y2="144.512" gradientUnits="userSpaceOnUse">
<stop stop-color="#DE8DBA"/>
<stop offset="1" stop-color="#70499A"/>
</linearGradient>
<linearGradient id="paint10_linear_74_4738" x1="59.8078" y1="159.344" x2="59.8078" y2="114.134" gradientUnits="userSpaceOnUse">
<stop stop-color="#DE8DBA"/>
<stop offset="1" stop-color="#70499A"/>
</linearGradient>
<linearGradient id="paint11_linear_74_4738" x1="46.6549" y1="154.523" x2="46.6549" y2="127.283" gradientUnits="userSpaceOnUse">
<stop stop-color="#DE8DBA"/>
<stop offset="1" stop-color="#70499A"/>
</linearGradient>
<linearGradient id="paint12_linear_74_4738" x1="56.333" y1="115.802" x2="56.333" y2="78.8411" gradientUnits="userSpaceOnUse">
<stop stop-color="#DE8DBA"/>
<stop offset="1" stop-color="#70499A"/>
</linearGradient>
<linearGradient id="paint13_linear_74_4738" x1="39.1575" y1="103.848" x2="39.1575" y2="88.6899" gradientUnits="userSpaceOnUse">
<stop stop-color="#DE8DBA"/>
<stop offset="1" stop-color="#70499A"/>
</linearGradient>
<linearGradient id="paint14_linear_74_4738" x1="69.2702" y1="97.7118" x2="69.2702" y2="37.1111" gradientUnits="userSpaceOnUse">
<stop stop-color="#DE8DBA"/>
<stop offset="1" stop-color="#70499A"/>
</linearGradient>
<linearGradient id="paint15_linear_74_4738" x1="62.2058" y1="78.3155" x2="62.2058" y2="35.6579" gradientUnits="userSpaceOnUse">
<stop stop-color="#DE8DBA"/>
<stop offset="1" stop-color="#70499A"/>
</linearGradient>
<linearGradient id="paint16_linear_74_4738" x1="104.96" y1="94.6037" x2="104.96" y2="26.1659" gradientUnits="userSpaceOnUse">
<stop stop-color="#DE8DBA"/>
<stop offset="1" stop-color="#70499A"/>
</linearGradient>
<linearGradient id="paint17_linear_74_4738" x1="105.007" y1="69.4656" x2="105.007" y2="14.1832" gradientUnits="userSpaceOnUse">
<stop stop-color="#DE8DBA"/>
<stop offset="1" stop-color="#70499A"/>
</linearGradient>
</defs>
</svg>
