<svg width="140" height="141" viewBox="0 0 140 141" fill="none" xmlns="http://www.w3.org/2000/svg">
<path d="M0 0.5H70C108.66 0.5 140 31.8401 140 70.5V140.5H0V0.5Z" fill="#E97D95" fill-opacity="0.51"/>
<path d="M102.163 95.8001L101.266 92.2445L101.342 81.4801L101.834 77.3769L102.163 68.6783C100.728 68.7958 99.6805 68.4149 97.2387 69.8272L94.1203 71.9608L87.8835 76.3922C86.8957 76.8083 86.6671 77.1484 84.2728 77.7052L82.716 77.5272L78.5283 77.0487L73.6045 76.0639C73.074 75.9812 72.5549 75.8752 71.877 76.0921C70.8835 76.45 70.2822 76.6902 69.6755 77.2799C69.2126 77.564 68.376 77.7599 68.1884 78.5258C67.9698 78.8904 67.6391 79.2924 67.8601 79.5105C69.1095 82.1301 71.2507 83.5609 72.9481 85.5832L77.0512 92.4765L79.1849 95.9231C79.9508 97.3375 80.7167 97.3021 81.4826 97.8926C84.7104 99.2788 87.9383 100.374 91.166 100.683L93.4638 100.847C95.0991 100.656 96.6351 100.097 97.5287 99.2056C99.477 97.4868 101.616 96.7683 102.162 95.7999L102.163 95.8001Z" fill="url(#paint0_linear_782_842)" stroke="#553D67" stroke-width="0.81238"/>
<path d="M102.203 96.0048C104.45 95.9941 104.616 94.4797 105.28 93.7891C107.205 93.0998 107.966 90.6896 108.727 88.8653C109.584 86.17 110.579 83.5023 110.696 80.659C111.076 79.1099 110.729 77.8035 110.696 76.3917C110.164 74.2899 109.396 72.2661 108.399 70.319C107.051 67.8539 106.995 65.0559 104.586 62.7593C104.318 60.7441 104.631 58.908 103.639 56.6967C101.779 55.6568 99.9189 53.907 98.0589 53.3321C96.5409 51.9602 95.8656 52.8009 94.7764 52.4294L100.685 58.338L102.615 62.5863C102.303 65.7777 101.78 68.8746 101.92 72.511C101.294 77.3425 100.498 82.1396 100.607 87.1182L101.235 92.2725L102.203 96.0048Z" fill="url(#paint1_linear_782_842)" stroke="#553D67" stroke-width="0.81238"/>
<path d="M94.7761 52.4287L100.603 58.3373L102.654 62.1943C102.779 62.982 102.267 66.3141 101.998 68.6773L99.8229 68.8824C99.3638 68.9779 98.6768 69.1142 98.0585 69.3338L95.7608 70.8109L98.633 64.9025L99.3716 62.7688L100.11 59.5684L94.7761 52.4287Z" fill="url(#paint2_linear_782_842)" stroke="#553D67" stroke-width="0.81238"/>
<path d="M85.0406 99.3193L83.2998 101.64C82.8767 102.101 82.3575 102.42 81.3269 101.989L79.354 96.9983L77.0908 92.5302L80.0402 96.7931L82.5453 98.2748L85.0406 99.3193Z" fill="url(#paint3_linear_782_842)" stroke="#553D67" stroke-width="0.81238"/>
<path d="M80.8487 101.004L78.7326 100.919C74.1437 98.5974 67.3266 82.8723 74.3297 96.4524L71.5444 90.9979L69.3394 87.5162L67.5986 81.0172L70.7321 84.7309L74.0977 88.3286L76.0706 90.6497L78.6238 95.524L80.8487 101.004Z" fill="url(#paint4_linear_782_842)" stroke="#553D67" stroke-width="0.81238"/>
<path d="M75.2467 89.522L71.8822 86.1575L67.4508 81.0695L65.7274 78.2793L63.0534 73.2835L60.9679 72.0426L60.1472 70.6476V70.2372L62.445 68.5139L63.84 66.4623L64.5786 65.8878L66.2199 62.8515L67.7791 60.7999L69.0921 60.1434L70.6513 59.0766L74.0158 57.8046L75.9033 56.1223L77.6677 53.5785L79.309 50.0087L80.3348 49.9677C81.231 49.852 81.4212 50.3417 81.5657 50.8703L83.6173 52.1013L86.5716 52.2654L89.9362 53.0861C89.1955 53.6407 88.6427 54.496 87.3923 54.2349L84.438 55.1376L83.0429 56.0403L79.9245 56.6148H77.6268L75.7393 57.7636L73.9338 60.0614L72.2925 62.5232L71.1436 63.7541L69.01 63.6721L68.6817 64.7389L69.0921 65.0671L70.8975 65.8057L70.8154 66.7905L70.241 69.2523V71.9605L70.5692 74.8327L70.5282 76.6791L68.2714 78.1972L67.6149 79.2641L68.6817 80.9874L72.7849 85.4188L75.2467 89.522Z" fill="url(#paint5_linear_782_842)" stroke="#553D67" stroke-width="0.81238"/>
<path d="M91.002 73.6839L91.4123 68.678V64.821L91.084 59.9792L90.366 57.1685L89.689 56.0401L89.771 54.8913L91.1661 53.4962L91.3302 52.4294L92.2329 53.0859L93.5459 56.5325L94.8589 58.6661L97.4849 61.7845L99.044 63.3437L98.4696 65.3132L96.7462 68.5137L95.7615 70.7294L91.4942 73.6837L91.002 73.6839Z" fill="url(#paint6_linear_782_842)" stroke="#553D67" stroke-width="0.81238"/>
<path d="M70.8142 67.1182L73.8506 73.355L73.6864 75.9809L72.4555 75.8988L71.4708 76.1861L70.486 76.6374L70.0757 69.0056L70.8142 67.1182Z" fill="url(#paint7_linear_782_842)" stroke="#553D67" stroke-width="0.81238"/>
<path d="M90.2221 74.6685L86.4061 72.0014L84.1084 70.7294L79.2666 69.2523L75.9021 68.2676L76.2303 67.1187L75.1635 60.7178V59.2406L76.4765 60.3075L79.5949 65.6415L80.5797 61.7025L82.303 58.502L84.2726 56.3684L85.9139 55.5478H87.391L89.976 58.0916L90.4684 57.5582L89.7709 56.2863L89.6067 55.0553L91.1659 53.414L91.248 52.5113L88.5398 53.9884L85.1753 55.0552L84.1905 55.1373L82.9596 56.04L80.6619 56.4503L77.7896 56.6144L75.5739 57.8454L73.7685 60.0611L72.1272 62.687L71.1424 63.6718H69.0088C68.8341 63.786 68.6587 63.899 68.5595 64.1641C68.381 64.6018 68.5651 64.7676 68.6805 64.9848L70.8962 65.8054V67.4467L73.8505 73.6015L73.7684 75.9813L77.5434 76.8019L83.3698 77.5405L84.1904 77.7867L86.8164 76.884L88.868 75.571L90.2221 74.6685Z" fill="url(#paint8_linear_782_842)" stroke="#553D67" stroke-width="0.81238"/>
<path d="M76.353 67.037C76.8579 66.4054 78.0338 66.8966 78.938 66.8728L81.7282 66.2574L85.4621 64.7802L88.6214 65.2316L89.5241 65.1906L91.3295 63.098L91.4116 65.1496L91.2719 68.676L91.0834 73.4378L91.5757 73.684L89.8524 74.997L89.5241 74.1764L84.0259 70.7298L75.8196 68.35L76.353 67.037Z" fill="url(#paint9_linear_782_842)" stroke="#553D67" stroke-width="0.81238"/>
<path d="M76.1484 67.5292L74.9995 60.8001L75.2457 59.1588L76.6408 60.2256L79.513 65.6418L80.6619 61.6206L82.3853 58.5022L84.2728 56.2045L85.9961 55.4659L87.3912 55.6301L89.771 58.0099L90.1813 58.0509L89.1966 59.6511H88.2939C87.4523 59.2408 89.5123 60.2485 88.458 59.5691L85.8321 57.9277L83.7805 59.6511L82.5495 61.9488L81.6469 64.739V66.3804L81.5648 66.4624L77.9541 66.9548L76.7232 66.7907L76.1484 67.5292Z" fill="url(#paint10_linear_782_842)" stroke="#553D67" stroke-width="0.81238"/>
<path d="M83.5344 60.5542L83.6985 62.1134L84.7653 63.4264L86.8169 63.5084L88.4583 63.0981L89.0327 59.9797L90.3867 57.3947L91.0843 59.8156L91.3304 63.0981L89.525 65.2317L85.3398 64.8214L83.1241 66.0524L81.729 66.2986L81.647 64.5752L82.7959 61.3747L83.5344 60.5542Z" fill="url(#paint11_linear_782_842)" stroke="#553D67" stroke-width="0.81238"/>
<path d="M84.0056 62.564C84.0056 62.564 85.216 61.6203 85.216 61.292C85.216 60.9638 85.9136 61.251 85.9136 61.251L87.3087 59.8149L88.0472 59.3225L89.073 59.7328L88.3755 63.0153L87.1856 63.4667C86.6844 63.8273 85.5033 63.4393 84.7237 63.5077L84.0056 62.564Z" fill="url(#paint12_linear_782_842)" stroke="#553D67" stroke-width="0.81238"/>
<path d="M83.2063 60.4713L83.6987 62.3588L84.3552 62.5229L85.1758 61.292L85.7503 61.5381L87.1453 59.979L88.1301 59.2404L85.9144 58.0095L84.1501 59.0763L83.2063 60.4713Z" fill="url(#paint13_linear_782_842)" stroke="#553D67" stroke-width="0.81238"/>
<path d="M71.5633 58.6808L71.4402 56.2905L77.4892 51.6752L79.4691 48.8359L80.0494 46.5148L81.2099 45.7024L83.4149 45.3542L85.5038 46.979H86.4323L87.2446 48.4877L89.2176 49.184L94.2079 51.9694L100.069 59.513C100.044 61.0854 99.6258 62.2772 99.1882 63.3108C97.2027 62.2921 94.881 59.6486 93.7469 57.0734L92.1221 53.3597L91.4258 52.3152L90.1492 53.0115L85.9713 52.0831H83.302L80.9808 50.1101L80.1685 49.878L79.24 49.9941L77.7313 53.5918L75.7584 56.2611L73.4372 58.35L72.5768 58.343L71.5633 58.6808Z" fill="url(#paint14_linear_782_842)" stroke="#553D67" stroke-width="0.81238"/>
<path d="M87.5867 48.5911L88.7543 46.9792L91.9968 46.3848L93.8607 45.2383L94.9052 43.3814L98.6189 44.3098L105.582 48.3717L109.992 50.6929L112.662 53.8264L115.447 59.0489L118.232 65.1997L119.277 70.3062L119.161 73.6717L117.188 77.1534L114.518 79.8227L111.849 80.9833L110.572 82.0278L110.921 79.0104L110.689 76.2251L109.439 72.6344L107.903 69.2617L106.046 64.6196L104.567 62.6757L104.1 58.3597L103.452 56.9542C102.557 56.0871 101.202 55.0149 99.7793 54.1477L97.9224 53.2533L96.1476 52.564H94.8511L92.7 51.1573L89.5664 49.3003L87.5867 48.5911Z" fill="url(#paint15_linear_782_842)" stroke="#553D67" stroke-width="0.81238"/>
<path d="M60.9666 69.5797V67.0358L61.9513 64.4099L62.9361 60.4708L66.0545 57.5165L67.0803 56.4907L68.6805 52.3055L69.5832 50.4591L71.4706 49.7206L73.9325 50.7874H76.7227L78.364 51.1156L74.9174 53.9059L71.4708 56.3677V58.8295L69.3372 59.9784L67.5317 60.9632L65.0699 64.9843L64.4134 66.2152L62.4029 68.6361L60.9666 69.5797Z" fill="url(#paint16_linear_782_842)" stroke="#553D67" stroke-width="0.81238"/>
<path d="M107.579 49.4749L106.266 46.5206L105.118 43.7304L102.163 40.7761L98.0601 37.6577L94.4493 36.0164L91.0027 34.8675L86.8996 34.7034L84.1094 35.3599L82.1398 36.3446L80.0062 39.1348L78.3649 40.7762L77.3801 43.238L81.6474 45.3716L82.0232 45.6436L83.4159 45.3535L85.652 46.9513L86.4333 46.8042L87.3512 48.4354C88.1315 48.795 88.3254 47.4253 88.8125 46.9203L91.888 46.5721L93.7449 45.2955L94.984 43.5483L98.7728 44.4732L107.579 49.4749Z" fill="url(#paint17_linear_782_842)" stroke="#553D67" stroke-width="0.81238"/>
<path d="M82.0576 45.5365L77.0518 42.9106L76.3132 42.4182L75.985 42.0899L75.4105 41.6796H74.6719L73.8513 42.2541L68.7634 43.9774L66.4656 44.4698L64.9065 45.4546L62.7728 46.2752L60.8853 47.6703L59.5723 49.7219L58.8338 52.0196L58.7517 53.4147L58.9158 54.6456L58.8338 56.6151L59.2441 58.0923L60.393 60.1439L61.9522 64.4111L62.9369 60.7184L64.0037 59.4874L67.3683 56.369L68.4351 53.0865L69.584 50.5426L71.4715 49.8041L72.7845 50.3785L73.8513 50.7888H76.5594L77.8724 50.8709L78.2828 50.9529L79.3496 49.2296L80.0061 46.7677L80.6216 46.2343L82.0576 45.5365Z" fill="url(#paint18_linear_782_842)" stroke="#553D67" stroke-width="0.81238"/>
<path d="M114.143 56.5329L114.964 56.4508L118.082 56.6149L120.544 56.2867L122.432 56.8611L127.766 58.5845L130.802 60.1437C132.25 60.7947 132.238 61.3297 132.115 61.785L131.541 62.4415L130.064 63.6724L129.489 63.9186C129.106 64.4657 129.106 64.794 129.489 64.9034L131.048 65.2316L132.607 65.3137L134.085 65.724C134.924 65.8923 135.185 66.3501 135.151 66.955L133.756 67.2011L133.592 67.7345L134.495 67.9397L135.151 68.1038L136.054 68.4321C136.663 68.733 136.611 69.0339 136.464 69.3348L135.275 69.9092L134.003 70.8119L133.674 72.0428L134.085 73.3558L130.474 71.2222L129.899 70.7298L128.669 70.4836L127.027 69.663L125.386 69.9092L123.334 70.7298L121.611 71.8787L120.626 72.8634L119.231 73.7661V69.9502L118.287 65.3136L116.564 61.5798L114.143 56.5329Z" fill="url(#paint19_linear_782_842)" stroke="#553D67" stroke-width="0.81238"/>
<path d="M97.0039 101.665L95.9254 104.171L94.5386 106.281L95.2079 108.321L95.5772 109.509L96.1716 110.451L98.1304 110.67C98.8267 110.699 99.523 111.125 100.219 110.67L102.424 110.321H104.281L108.807 109.161L116.235 107.42L120.181 106.027L123.314 105.447L127.26 102.662L129.581 98.8321L131.786 95.9307L133.643 94.306L134.455 92.7973V91.1725L133.527 90.7083L132.715 90.5922L134.107 87.4587L135.152 84.9056L136.777 82.2363L138.053 79.4509L137.937 78.2904L136.777 76.6657L135.964 75.0409L133.411 73.8803L130.36 73.361L129.465 71.7914L127.84 71.095L126.912 71.2111L124.625 71.7972L122.55 73.361L121.109 74.4735L120.065 75.273L118.208 78.7547L115.771 81.1918L114.262 81.8881L112.985 82.2363L111.593 83.629L111.128 86.1821L109.62 90.9404L107.879 93.9577L104.629 96.743L103.353 97.2073L101.148 98.832L99.059 100.054L97.8644 101.139L97.0039 101.665Z" fill="#88528C" stroke="#88528C" stroke-width="0.81238"/>
<path d="M73.6738 97.8229L69.5615 98.5377L63.493 99.9672L60.7782 101.238L59.6603 101.873L57.7439 103.462C56.1373 104.655 55.3211 105.652 54.55 106.638C53.5423 107.995 53.838 108.487 54.0709 109.021L53.2724 110.133L52.4739 111.245L50.8769 114.58C50.097 115.608 49.8886 116.636 50.6123 117.664L51.8351 119.346L53.9112 122.681L56.7858 126.176L60.7783 129.988L61.972 131.417C62.9909 132.452 63.54 132.318 64.2917 132.688L66.5275 134.118L68.7633 137.136L71.1589 136.182L76.1095 138.565L82.178 139.518L87.2884 138.724L90.4823 136.977L93.3568 135.071L94.7941 133.641L96.5508 131.259L97.6687 129.035L100.122 119.779L100.92 116.584L100.6 113.524L98.6269 112.039L96.0718 111.88L94.7943 111.721L94.3152 110.927L93.8361 108.862L93.1973 107.909L92.9086 106.443L93.2355 103.379L93.6764 103.779L91.0014 103.501L84.8929 102.31L83.6153 103.899L82.8168 104.097C81.7561 104.125 80.1953 103.77 78.7445 103.7C77.3738 102.231 76.6112 100.863 74.5525 99.5306C74.6584 98.3587 73.8472 98.4319 73.6742 97.8231L73.6738 97.8229Z" fill="#88528C" stroke="#88528C" stroke-width="0.788334"/>
<path d="M60.1461 70.4831L58.8331 70.3189L57.0277 70.1548L56.0429 69.9907C54.4354 70.3598 54.1574 71.2606 53.5811 72.0422C53.2817 71.9663 53.0829 72.5523 50.4627 74.5861L48.9855 75.8991L47.016 76.0633L45.8671 75.735C45.4842 75.323 45.1012 75.4367 44.7182 75.8991L44.0617 77.2122C43.1259 79.0036 42.8105 80.6176 43.4052 81.9717L43.077 84.1054C43.0292 86.0611 43.2377 87.504 44.0617 87.7161L43.7335 88.5367C43.7465 91.1496 45.5402 91.982 46.5237 93.6246L49.3139 96.4148C49.969 97.2706 50.746 97.6196 51.5154 97.9998C53.2528 98.4411 52.8853 98.4661 53.6029 98.611L55.7146 99.0408C56.7335 98.9637 57.0879 98.6608 57.5201 98.3843C58.5048 98.4462 59.4896 98.3029 60.4744 98.0561L64.5775 96.579L70.8143 95.1018L73.2762 94.5684L71.799 91.8193L69.3372 87.4289L67.6959 81.6434L64.3172 75.5418L63.1003 73.273L61.0898 72.1241L60.1461 70.4831Z" fill="url(#paint20_linear_782_842)" stroke="#553D67" stroke-width="0.81238"/>
<path d="M73.5178 94.6238L69.2917 95.3623L63.0549 96.8395L60.2647 98.1525L59.1158 98.809L57.1462 100.45C55.4952 101.684 54.6563 102.714 53.8637 103.733C52.8281 105.134 53.1321 105.643 53.3714 106.195L52.5507 107.344L51.7301 108.492L50.0888 111.939C49.2872 113.001 49.0731 114.063 49.8168 115.125L51.0735 116.863L53.2071 120.309L56.1614 123.92L60.2646 127.859L61.4914 129.336C62.5386 130.405 63.1029 130.267 63.8754 130.649L66.1732 132.126L68.4709 135.245L70.9327 134.26L76.0207 136.722L82.2575 137.707L87.5095 136.886L90.792 135.081L93.7463 133.111L95.2235 131.634L97.0289 129.172L98.1778 126.874L100.64 117.191L100.804 114.729L99.819 111.447L99.1625 109.313L96.5366 109.149L95.2236 108.985L94.7312 108.164L94.2388 106.03L93.5823 105.046L95.5518 102.091L96.1263 100.245L94.0747 100.778L91.3256 100.491L85.0478 99.2602L83.7348 100.901L82.9142 101.107C81.8241 101.135 80.22 100.768 78.729 100.696C77.3202 99.1782 76.5365 97.7648 74.4206 96.3881C74.5295 95.1772 73.6956 95.2529 73.5178 94.6238Z" fill="url(#paint21_linear_782_842)" stroke="#553D67" stroke-width="0.81238"/>
<path d="M95.9607 100.226C95.1647 101.279 95.1565 101.939 94.8822 102.731C94.4199 103.232 93.9576 103.446 93.4954 104.841C93.5518 105.831 93.65 105.842 94.629 106.846C94.4849 107.535 94.4298 107.526 94.534 108.069C94.8059 108.826 94.9428 108.773 95.1284 109.012C96.0081 109.538 96.4633 109.215 97.0872 109.23C97.7835 109.259 98.4798 109.686 99.1761 109.23L101.381 108.882H103.238L107.764 107.721L115.192 105.98L119.137 104.588L122.342 103.865C124.231 103.476 125.139 102.279 126.217 101.222L128.538 97.3924L130.743 94.4911L132.6 92.8664L133.412 91.3576L133.269 90.1615L132.484 89.2687L132.028 88.8669L133.064 86.0192L134.108 83.466L135.733 80.7967L137.01 78.0114L136.894 76.8509L136.305 75.1546L134.921 73.6013L132.368 72.4407L129.897 70.6449L128.422 70.3518L126.797 69.6555L125.869 69.7716C124.542 69.5155 123.964 69.858 123.581 70.3577C122.998 70.7125 122.699 70.6286 121.507 71.9215L120.066 73.034L119.021 73.8335L117.165 77.3152L114.727 79.7523L113.219 80.4486L111.942 80.7968L110.549 82.1895L110.085 84.7426L108.577 89.5009L106.836 92.5182L103.586 95.3035L102.31 95.7678L100.105 97.3925L98.0157 98.614L96.8212 99.6995L95.9607 100.226Z" fill="url(#paint22_linear_782_842)" stroke="#553D67" stroke-width="0.81238"/>
<defs>
<linearGradient id="paint0_linear_782_842" x1="94.3671" y1="100.189" x2="79.1024" y2="60.1431" gradientUnits="userSpaceOnUse">
<stop stop-color="#FF83EE"/>
<stop offset="1" stop-color="#FFE4EE"/>
</linearGradient>
<linearGradient id="paint1_linear_782_842" x1="94.6952" y1="74.0933" x2="110.779" y2="74.0933" gradientUnits="userSpaceOnUse">
<stop stop-color="#FF83EE"/>
<stop offset="1" stop-color="#FFE4EE"/>
</linearGradient>
<linearGradient id="paint2_linear_782_842" x1="94.695" y1="61.62" x2="102.736" y2="61.62" gradientUnits="userSpaceOnUse">
<stop stop-color="#F56695"/>
<stop offset="1" stop-color="#FFE4EE"/>
</linearGradient>
<linearGradient id="paint3_linear_782_842" x1="77.1834" y1="97.5775" x2="85.122" y2="97.5775" gradientUnits="userSpaceOnUse">
<stop stop-color="#FF83EE"/>
<stop offset="1" stop-color="#FFE4EE"/>
</linearGradient>
<linearGradient id="paint4_linear_782_842" x1="67.5169" y1="91.462" x2="81.2575" y2="91.462" gradientUnits="userSpaceOnUse">
<stop stop-color="#FF83EE"/>
<stop offset="1" stop-color="#FFE4EE"/>
</linearGradient>
<linearGradient id="paint5_linear_782_842" x1="60.0651" y1="69.7438" x2="90.016" y2="69.7438" gradientUnits="userSpaceOnUse">
<stop stop-color="#FF83EE"/>
<stop offset="1" stop-color="#FFE4EE"/>
</linearGradient>
<linearGradient id="paint6_linear_782_842" x1="89.6081" y1="63.0563" x2="99.1259" y2="63.0563" gradientUnits="userSpaceOnUse">
<stop stop-color="#F56695"/>
<stop offset="1" stop-color="#FFE4EE"/>
</linearGradient>
<linearGradient id="paint7_linear_782_842" x1="69.9955" y1="71.8771" x2="73.7682" y2="71.8771" gradientUnits="userSpaceOnUse">
<stop stop-color="#F56695"/>
<stop offset="1" stop-color="#FFE4EE"/>
</linearGradient>
<linearGradient id="paint8_linear_782_842" x1="68.5999" y1="65.149" x2="91.3303" y2="65.149" gradientUnits="userSpaceOnUse">
<stop stop-color="#F56695"/>
<stop offset="1" stop-color="#FFE4EE"/>
</linearGradient>
<linearGradient id="paint9_linear_782_842" x1="75.739" y1="69.2109" x2="91.6584" y2="69.2109" gradientUnits="userSpaceOnUse">
<stop stop-color="#FF83EE"/>
<stop offset="1" stop-color="#FFE4EE"/>
</linearGradient>
<linearGradient id="paint10_linear_782_842" x1="74.9186" y1="61.4965" x2="89.9346" y2="61.4965" gradientUnits="userSpaceOnUse">
<stop stop-color="#FF83EE"/>
<stop offset="1" stop-color="#FFE4EE"/>
</linearGradient>
<linearGradient id="paint11_linear_782_842" x1="81.5653" y1="61.9482" x2="88.2935" y2="65.8054" gradientUnits="userSpaceOnUse">
<stop stop-color="#FF83EE"/>
<stop offset="1" stop-color="#FFE4EE"/>
</linearGradient>
<linearGradient id="paint12_linear_782_842" x1="84.191" y1="61.4153" x2="88.9499" y2="61.4153" gradientUnits="userSpaceOnUse">
<stop stop-color="#FF83EE"/>
<stop offset="1" stop-color="#FFE4EE"/>
</linearGradient>
<linearGradient id="paint13_linear_782_842" x1="83.1252" y1="60.265" x2="88.2107" y2="60.265" gradientUnits="userSpaceOnUse">
<stop stop-color="#F56695"/>
<stop offset="1" stop-color="#FFE4EE"/>
</linearGradient>
<linearGradient id="paint14_linear_782_842" x1="94.0111" y1="65.4301" x2="76.7659" y2="45.5853" gradientUnits="userSpaceOnUse">
<stop stop-color="#F56695"/>
<stop offset="1" stop-color="white"/>
</linearGradient>
<linearGradient id="paint15_linear_782_842" x1="87.6275" y1="62.7037" x2="119.357" y2="62.7037" gradientUnits="userSpaceOnUse">
<stop stop-color="#FF8BB1"/>
<stop offset="1" stop-color="#FFE4EE"/>
</linearGradient>
<linearGradient id="paint16_linear_782_842" x1="60.7214" y1="59.6508" x2="78.4459" y2="59.6508" gradientUnits="userSpaceOnUse">
<stop stop-color="#FF8BB1"/>
<stop offset="1" stop-color="#FFE4EE"/>
</linearGradient>
<linearGradient id="paint17_linear_782_842" x1="77.2989" y1="42.0888" x2="107.661" y2="42.0888" gradientUnits="userSpaceOnUse">
<stop stop-color="#FF8BB1"/>
<stop offset="1" stop-color="#FFE4EE"/>
</linearGradient>
<linearGradient id="paint18_linear_782_842" x1="78.5288" y1="64.6973" x2="65.8086" y2="48.2027" gradientUnits="userSpaceOnUse">
<stop stop-color="#FF8BB1"/>
<stop offset="1" stop-color="#FFE4EE"/>
</linearGradient>
<linearGradient id="paint19_linear_782_842" x1="114.062" y1="65.0255" x2="136.546" y2="65.0255" gradientUnits="userSpaceOnUse">
<stop stop-color="#FF8BB1"/>
<stop offset="1" stop-color="#FFE4EE"/>
</linearGradient>
<linearGradient id="paint20_linear_782_842" x1="42.9969" y1="84.5161" x2="73.029" y2="84.5161" gradientUnits="userSpaceOnUse">
<stop stop-color="#FF83EE"/>
<stop offset="1" stop-color="#FFE4EE"/>
</linearGradient>
<linearGradient id="paint21_linear_782_842" x1="50.008" y1="116.287" x2="100.886" y2="116.287" gradientUnits="userSpaceOnUse">
<stop stop-color="#F56695"/>
<stop offset="1" stop-color="#FFE4EE"/>
</linearGradient>
<linearGradient id="paint22_linear_782_842" x1="93.989" y1="89.444" x2="137.092" y2="89.444" gradientUnits="userSpaceOnUse">
<stop stop-color="#F56695"/>
<stop offset="1" stop-color="white"/>
</linearGradient>
</defs>
</svg>
