<svg width="140" height="141" viewBox="0 0 140 141" fill="none" xmlns="http://www.w3.org/2000/svg">
<path d="M0.5 1H139.5V70.5C139.5 108.884 108.384 140 70 140C31.6162 140 0.5 108.884 0.5 70.5V1Z" fill="#916EAB" fill-opacity="0.7" stroke="#F08BB9"/>
<circle cx="114" cy="114.5" r="25" fill="#F64C72"/>
<circle cx="26" cy="114.5" r="25" fill="#D567A4"/>
<path d="M66.1259 94.9247C65.7763 94.5035 65.5514 93.5173 65.5495 92.3979C65.548 91.4564 65.4845 91.2757 64.9672 90.7412C64.6202 90.3827 63.8022 89.9047 62.9343 89.5533C59.9095 88.3286 59.9552 88.356 58.0882 86.6472C57.0392 85.6871 56.7571 85.344 55.2887 83.2429C54.9224 82.7187 54.5622 82.2898 54.4883 82.2898C54.4144 82.2898 53.9562 82.6566 53.4701 83.1048C52.4071 84.0851 51.7139 84.1818 50.9836 83.4515C50.7239 83.1918 50.4622 82.8242 50.402 82.6346C50.2486 82.151 50.0141 82.2054 49.7357 82.7891C49.5442 83.1905 49.3555 83.2998 48.7727 83.3472C48.335 83.3828 47.9773 83.5266 47.8698 83.7103C47.5678 84.2266 47.2365 85.2642 47.2336 85.7028C47.232 85.9324 47.1062 86.3613 46.9539 86.6559C46.7443 87.0612 46.5495 87.1915 46.1532 87.1915C45.5095 87.1915 43.9985 86.0422 43.4275 85.1184C43.2065 84.7608 42.9536 84.4683 42.8654 84.4683C42.6082 84.4683 42.2792 83.7279 42.0649 82.6665C41.9554 82.1247 41.7845 81.6544 41.685 81.6212C41.5855 81.588 41.2985 81.9904 41.0472 82.5154C40.6527 83.3398 40.5193 83.4698 40.0685 83.4698C39.6594 83.4698 39.471 83.3324 39.1976 82.8344C38.8156 82.139 38.3818 81.6304 38.2776 81.756C38.2411 81.8 37.8208 82.6529 37.3436 83.6514C36.8665 84.6499 36.2384 85.7528 35.948 86.1022C35.6575 86.4517 35.1976 87.006 34.926 87.334C34.2922 88.0992 33.2516 88.318 32.6814 87.8059C32.3336 87.4936 32.3102 87.3352 32.4126 85.9873C32.4743 85.1752 32.4731 84.1336 32.4099 83.6726L32.295 82.8344H31.5074C30.8303 82.8344 30.6845 82.7644 30.4681 82.3352C30.096 81.5973 29.9657 80.4437 30.1745 79.736C30.2756 79.3932 30.437 78.509 30.5332 77.771C30.6404 76.9483 30.8841 76.1143 31.1631 75.615C31.4134 75.1672 31.6182 74.6991 31.6182 74.5748C31.6182 74.4506 32.3232 73.6 33.1848 72.6847C34.0464 71.7694 34.7183 70.9875 34.678 70.9472C34.6376 70.9068 33.9122 70.5745 33.066 70.2088C31.9904 69.7439 31.1723 69.5195 30.3474 69.4633C28.4608 69.3347 28.0037 69.2254 27.8058 68.8556C27.4112 68.1182 28.7495 65.698 29.8834 65.0985C30.7138 64.6594 32.7156 64.1355 33.5628 64.1355C34.1341 64.1355 34.3763 64.0463 34.5165 63.7843C35.0166 62.8499 34.4417 61.9189 33.2316 61.7035C32.4607 61.5663 32.1494 61.2465 31.7271 60.1581C31.2675 58.9736 31.5356 58.7741 33.5289 58.8171C34.9483 58.8478 35.4591 58.6967 34.7962 58.4424C34.6469 58.3851 34.3899 58.0012 34.2251 57.5893C33.9441 56.8869 33.8904 56.8476 33.3618 56.9578C33.0519 57.0225 32.063 57.1462 31.1644 57.2328C29.5654 57.3869 29.0592 57.5393 27.1262 58.4483C26.6027 58.6945 26.0235 58.8481 25.8391 58.7896C25.2588 58.6054 24.9913 57.8179 25.0002 56.3195C25.0072 55.141 25.0798 54.8099 25.4541 54.2489C25.6991 53.8817 26.206 53.4217 26.5804 53.2268C26.9548 53.0319 27.2612 52.7522 27.2612 52.6054C27.2612 52.4585 26.9831 51.974 26.6433 51.5288C25.9642 50.6391 25.7124 49.6307 25.8969 48.5389C26.0939 47.3731 26.4281 47.2055 28.6202 47.1734C30.5327 47.1455 30.9361 47.0131 30.2566 46.6363C28.5548 45.6927 27.5348 44.1265 26.9923 41.6241C26.8299 40.8752 26.4853 39.5746 26.2266 38.7338C25.759 37.2145 25.7575 37.1905 25.9906 34.8306C26.2425 32.2801 26.468 31.7192 27.1555 31.9334C27.6512 32.0879 27.7146 32.199 28.2831 33.9085C28.8615 35.6478 29.578 37.0803 29.9388 37.2188C30.0882 37.2761 30.3695 37.1201 30.592 36.8565C31.4957 35.786 32.5837 35.7147 33.8492 36.6431C34.3274 36.9939 34.7909 37.4709 34.8792 37.7031C35.0384 38.122 35.4044 38.3563 35.8993 38.3563C36.3027 38.3563 36.2043 38.0045 35.6121 37.3301C35.1858 36.8446 35.0675 36.5385 35.0675 35.9214C35.0675 35.0695 35.2492 34.8235 36.0216 34.6296C36.7322 34.4513 36.6371 34.0717 35.7888 33.7002C34.9544 33.3348 34.1598 32.5386 34.1598 32.0679C34.1598 30.7744 35.1729 30.1401 37.6091 29.9084C39.4129 29.7368 39.8472 29.4699 40.4791 28.1445C40.5148 28.0696 40.3043 28.0084 40.0114 28.0084C39.2912 28.0084 38.2949 27.6619 38.0176 27.315C37.8928 27.159 37.7906 26.8463 37.7906 26.6203C37.7906 26.287 37.6621 26.1876 37.1099 26.0941C35.8998 25.8892 34.2615 25.41 33.8328 25.1356C33.1876 24.7226 32.8548 23.9315 32.9964 23.147C33.1439 22.3296 33.3825 21.8359 33.63 21.8359C33.7309 21.8359 34.5589 21.4683 35.4699 21.0189C36.3808 20.5696 37.3778 20.2007 37.6854 20.1992C38.8751 20.1933 38.8396 19.9537 37.4398 18.5428C36.0456 17.1374 35.3724 16.0737 35.4652 15.4225C35.5161 15.0648 35.6443 15.023 36.8375 14.9747C37.5615 14.9453 38.1537 14.8416 38.1537 14.7441C38.1537 14.6467 37.9311 14.2214 37.659 13.799C36.9056 12.6295 36.4994 11.6877 36.2315 10.4894C35.9117 9.05916 35.917 8.66738 36.2605 8.32387C36.5672 8.01721 37.6076 7.93668 37.8905 8.19771C38.1044 8.39504 40.0268 9.12133 40.8556 9.31791C41.7752 9.53602 42.2229 9.27691 42.5907 8.31385C43.1529 6.84184 44.1066 6.89441 45.5487 8.47691C46.0246 8.99912 46.539 9.77421 46.6918 10.1993C46.8447 10.6245 47.0477 10.9764 47.143 10.9814C47.5616 11.0035 47.9308 9.91682 47.9438 8.62411C47.9563 7.37832 47.9835 7.29337 48.4235 7.12608C49.0683 6.88093 49.6279 7.05982 50.3432 7.73967C51.1353 8.4926 52.7934 10.6678 53.3516 11.6865C53.9592 12.7951 54.3943 13.1324 55.0484 13.0016C55.3627 12.9387 55.6944 12.9893 55.858 13.1251C56.2768 13.4726 56.3902 13.2043 56.1555 12.4211C56.0302 12.0029 55.9449 10.4201 55.9449 8.5141V5.3101L56.5349 4.94014C57.2045 4.52027 58.053 4.54809 59.0532 5.0227C59.8344 5.39339 62.5892 7.91601 62.9277 8.57058C63.0678 8.84144 63.3148 9.75161 63.4767 10.5932C63.6385 11.4348 63.8464 12.3071 63.9387 12.5318C64.1172 12.9662 64.4519 13.0938 64.415 12.7133C64.3494 12.0373 64.7391 10.2963 65.0815 9.73539C65.2984 9.38021 65.9456 8.56925 66.5197 7.93327C67.3106 7.05714 67.5636 6.64247 67.5636 6.22203C67.5636 5.85972 67.6739 5.626 67.8813 5.54864C68.056 5.48347 68.6156 4.99586 69.1249 4.46507C69.8492 3.71012 70.1721 3.5 70.6079 3.5C71.6346 3.5 72.2394 4.02063 72.7452 5.33976C72.9992 6.00216 73.3599 6.68242 73.5466 6.85144C73.8759 7.14944 75.0544 9.97832 75.2702 10.9887C75.417 11.676 75.678 11.6179 76.6345 10.6849C77.0872 10.2433 77.8253 9.68556 78.2746 9.44558C78.7239 9.2056 79.9493 8.52534 80.9977 7.9339C82.6881 6.98029 83.0146 6.85969 83.8814 6.86862C84.716 6.87721 84.9216 6.95165 85.2884 7.37799C85.5246 7.6526 85.7178 8.00016 85.7178 8.15035C85.7178 8.30053 85.3249 8.84741 84.8447 9.36564C83.8085 10.4839 83.01 11.7513 82.4782 13.1218C81.7134 15.0927 81.9568 15.5635 83.1727 14.465L83.9205 13.7894L84.553 14.091C84.9009 14.2569 85.2083 14.3926 85.2361 14.3926C85.2639 14.3926 85.8975 13.8003 86.6442 13.0764C88.4645 11.3115 89.2164 10.7457 90.6454 10.0652C92.9079 8.98782 93.9993 9.38477 93.9533 11.2684C93.9334 12.0829 94.0001 12.338 94.295 12.5768C94.5837 12.8107 94.6891 13.1892 94.7923 14.3629C94.8644 15.182 94.9699 15.8989 95.027 15.956C95.2577 16.1867 95.9073 15.7738 97.0167 14.6913C98.4461 13.2967 99.2878 12.7587 100.04 12.7587C100.532 12.7587 100.629 12.8362 100.722 13.3033C100.782 13.6029 100.861 13.848 100.897 13.848C101.075 13.848 102.936 12.6277 103.37 12.2264C103.939 11.6997 105.028 11.2737 105.42 11.4243C105.694 11.5294 105.749 11.7645 105.695 12.6046C105.654 13.243 105.821 13.3139 106.686 13.0256C107.489 12.758 110.236 12.3447 110.363 12.4722C110.631 12.7401 110.384 13.9466 109.904 14.7115C109.607 15.1851 109.101 16.0628 108.779 16.6619C108.458 17.261 107.937 18.0006 107.622 18.3054C107.307 18.6103 106.641 19.3537 106.141 19.9575C105.642 20.5612 104.927 21.2333 104.553 21.451C103.932 21.8119 103.668 22.1809 104.008 22.211C104.083 22.2176 104.646 22.2481 105.259 22.2787C105.872 22.3092 106.464 22.3903 106.575 22.4589C106.927 22.6763 106.793 23.2691 106.323 23.5772C106.073 23.7408 105.869 23.977 105.869 24.1021C105.869 24.2273 106.413 24.6468 107.078 25.0343C108.326 25.7619 108.811 26.3358 109.168 27.5096C109.323 28.0164 109.324 28.3652 109.172 28.8712C109.06 29.2453 108.919 29.7354 108.859 29.9601C108.663 30.6922 108.171 30.7847 107.003 30.3098C105.853 29.8425 104.277 29.568 103.798 29.7517C103.632 29.8154 103.341 30.1881 103.152 30.58L102.808 31.2925L103.78 31.7371C104.314 31.9816 105.168 32.2709 105.676 32.3799C107.835 32.8428 107.621 33.96 105.193 34.9068C104.209 35.2904 103.327 35.9818 103.327 36.3695C103.327 36.4638 103.756 36.5431 104.281 36.5459C105.158 36.5505 105.27 36.601 105.688 37.1818C106.236 37.9438 106.563 38.0437 108.473 38.0332C110.55 38.0218 111.061 37.988 112.421 37.7724C113.371 37.6219 113.725 37.6345 114.138 37.8334C115.287 38.3864 115.302 40.8657 114.166 42.5221C113.301 43.7851 112.036 45.0691 111.274 45.4574C110.435 45.8855 110.416 46.0829 111.179 46.4124C111.504 46.5524 112.2 47.1095 112.727 47.6504C113.554 48.5006 113.698 48.7554 113.786 49.5314C113.842 50.0251 113.789 50.96 113.668 51.609C113.547 52.258 113.396 53.3843 113.334 54.1119C113.26 54.983 113.128 55.4976 112.949 55.6184C112.475 55.9377 110.943 55.6618 110.423 55.1637C110.165 54.9166 109.627 54.5805 109.228 54.4166C108.828 54.2528 108.175 53.8046 107.775 53.4205C106.992 52.6677 106.063 52.296 106.034 52.724C106.024 52.8596 106.027 53.2973 106.04 53.6967C106.058 54.2827 105.924 54.6039 105.345 55.3604C104.95 55.876 104.675 56.3449 104.732 56.4025C104.79 56.46 105.268 56.4564 105.796 56.3944C106.617 56.2979 106.867 56.3479 107.537 56.7431C108.906 57.55 109.84 58.8378 109.592 59.5755C109.469 59.9405 108.224 60.7799 106.323 61.7788C105.524 62.1986 104.789 62.604 104.689 62.6797C104.589 62.7554 104.211 62.9129 103.848 63.0296C103.333 63.1954 103.165 63.36 103.081 63.7815C103.014 64.1146 102.801 64.3992 102.525 64.5252C102.12 64.7096 101.773 65.1828 101.928 65.3381C101.962 65.3719 102.61 65.5183 103.369 65.6634C104.984 65.9726 106.075 66.4859 106.813 67.2838C107.54 68.0708 108.774 70.6015 108.774 71.3071C108.774 72.3361 108.405 72.484 105.13 72.7709C103.507 72.913 102.138 73.0712 102.086 73.1224C102.035 73.1735 102.446 73.6437 103 74.1671C104.341 75.4348 104.509 75.734 105.124 77.946C105.896 80.7242 106.044 81.5585 105.853 82.0588C105.59 82.7504 105.658 83.518 106.051 84.2868C106.58 85.3251 106.506 86.0171 105.688 87.6454C105.249 88.5191 104.961 89.3455 104.961 89.7347C104.961 90.4853 104.534 91.1855 104.076 91.1855C103.579 91.1855 102.351 90.032 101.862 89.107C101.392 88.2161 101.357 88.1992 99.1272 87.7764C98.5644 87.6697 97.6831 87.4014 97.1689 87.1801C96.133 86.7345 95.8899 86.3877 93.8054 82.3806C92.5957 80.0554 92.1804 79.4862 91.7999 79.6322C91.4361 79.7718 91.4562 80.2056 91.8858 81.4901C92.5887 83.5912 92.1805 84.9971 90.7223 85.4979C89.7678 85.8258 89.4513 86.1424 89.1628 87.058C88.6377 88.7244 87.8754 89.7331 87.1409 89.7331C86.6017 89.7331 85.5532 88.7607 85.1952 87.9286C84.8553 87.1385 84.7527 87.0472 84.0849 86.9404C83.2715 86.8103 82.7287 86.1565 82.5208 85.0564C82.4593 84.7307 82.3333 84.4176 82.2408 84.3604C82.1484 84.3033 81.7696 84.5815 81.3991 84.9787C80.4542 85.9915 79.9918 86.0965 79.5896 85.3898C79.226 84.7509 78.8939 84.6731 78.7304 85.1885C78.579 85.6654 74.7725 89.4756 74.1002 89.8233C73.5042 90.1315 70.6796 90.4656 69.809 90.3308C69.0097 90.2071 68.8922 90.5601 69.5488 91.1126C70.6358 92.0273 70.2313 93.0717 68.2899 94.3624C67.0064 95.2157 66.4807 95.3522 66.1259 94.9247ZM68.2494 92.7183C68.4713 92.5628 68.6529 92.2932 68.6529 92.1191C68.6529 91.6665 68.2292 90.8157 68.0352 90.8785C67.8989 90.9227 67.4171 92.406 67.3901 92.8647C67.3766 93.0931 67.8229 93.017 68.2494 92.7183ZM67.8845 87.7764C68.0793 87.1995 68.2013 86.4724 68.1555 86.1605C68.0935 85.7381 68.1786 85.4873 68.4893 85.1765C68.8001 84.8657 68.894 84.5888 68.8579 84.0895C68.8032 83.3319 69.1323 81.9267 69.3645 81.9267C69.4922 81.9267 69.9236 80.5889 69.9236 80.1928C69.9236 80.0321 68.9865 80.2728 68.7062 80.5054C68.5847 80.6063 68.492 81.0287 68.5004 81.444C68.5212 82.4804 67.9509 84.4544 67.4576 85.0536C67.2242 85.337 67.0887 85.6943 67.1401 85.8908C67.1949 86.1005 67.0479 86.4297 66.7613 86.739C66.5036 87.017 66.2928 87.327 66.2928 87.4278C66.2928 87.6778 67.1811 88.8254 67.3746 88.8254C67.4602 88.8254 67.6897 88.3534 67.8845 87.7764ZM72.9092 88.0783C74.2542 87.3773 76.0007 85.7943 77.1853 84.2025C77.962 83.1589 78.4853 82.6063 79.626 81.6251C80.6549 80.7399 80.6814 80.2248 79.6885 80.4112C78.3871 80.6554 76.3258 81.4362 75.5515 81.9783C74.5652 82.6687 71.0107 85.7049 70.7015 86.121C70.5801 86.2844 70.1871 86.5574 69.8282 86.7277C69.4692 86.898 69.1288 87.1592 69.0716 87.3082C68.825 87.9509 69.4016 87.8064 71.0562 86.8109C72.912 85.6942 73.736 85.3626 73.736 85.7324C73.736 85.8502 73.6339 86.0477 73.5091 86.1712C73.1144 86.5617 70.8346 88.0737 70.4622 88.1919C70.0602 88.3195 69.9914 88.5757 70.3289 88.6882C70.7114 88.8157 72.1443 88.477 72.9092 88.0783ZM103.621 87.8723C103.787 87.5478 104.075 87.0874 104.261 86.8493C104.703 86.2825 104.691 85.3568 104.235 84.8314C103.992 84.5514 103.867 84.1365 103.858 83.5782C103.844 82.7617 103.839 82.7554 103.649 83.2883C103.253 84.3987 102.648 84.1648 102.469 82.8319C102.204 80.855 98.2639 75.6171 96.2643 74.583C95.9983 74.4454 95.6736 74.1329 95.5428 73.8886C95.3648 73.5559 95.0474 73.3866 94.2805 73.215C93.717 73.0889 92.3973 72.7009 91.3477 72.3528C89.1128 71.6115 87.8631 71.6047 86.3543 72.3258C84.9425 73.0005 84.6286 73.6209 84.6286 75.7358C84.6286 76.7102 84.4977 78.0395 84.3317 78.7498C84.1685 79.4487 83.9982 80.5107 83.9534 81.1098C83.9085 81.7089 83.797 82.2767 83.7056 82.3715C83.3322 82.7589 83.5921 84.4432 84.1112 85.0004C84.3627 85.2703 84.686 85.3761 85.2603 85.3761C86.1396 85.3761 86.2235 85.4526 86.6375 86.6318C86.9779 87.6015 87.2923 87.7675 87.4642 87.0682C87.5334 86.7866 87.8224 86.272 88.1063 85.9247C88.3902 85.5775 88.6225 85.2021 88.6225 85.0905C88.6225 84.74 89.2315 84.3224 89.9322 84.1924C91.0031 83.9937 91.0681 83.7889 90.6056 82.0722C90.3822 81.2433 90.1499 80.1158 90.0894 79.5667C90.0273 79.0036 89.7931 78.2671 89.5524 77.8778C89.2379 77.369 89.1552 77.0391 89.2382 76.6242C89.3756 75.9373 89.6583 75.5727 90.0535 75.5727C90.5124 75.5727 91.348 76.4467 91.4693 77.0535C91.5967 77.6902 92.3169 78.0752 92.7337 77.7293C93.0488 77.4677 93.1512 77.5629 93.2707 78.2282C93.3222 78.515 93.4411 78.8273 93.535 78.9222C93.6289 79.017 93.7057 79.2045 93.7057 79.3387C93.7057 79.4729 94.0937 80.1069 94.568 80.7475C95.0423 81.388 95.831 82.5346 96.3208 83.2952C96.8105 84.0559 97.3889 84.7947 97.606 84.937C98.0954 85.2577 99.503 85.6736 100.663 85.8401C101.812 86.0051 102.546 86.6295 102.806 87.663C102.917 88.1026 103.077 88.4623 103.163 88.4623C103.248 88.4623 103.454 88.1968 103.621 87.8723ZM97.037 82.7891C95.8175 80.9184 95.6533 80.4588 96.2918 80.7038C96.6026 80.8231 97.8163 82.7852 97.9782 83.43C98.1813 84.2393 97.8236 83.9957 97.037 82.7891ZM87.1702 82.6811C87.1702 82.0976 87.1169 80.7496 87.0518 79.6857C86.9511 78.039 86.9737 77.7512 87.2043 77.7512C87.5248 77.7512 87.8606 79.4967 87.9204 81.4729C87.9821 83.516 87.9435 83.7422 87.5333 83.7422C87.2116 83.7422 87.1702 83.6211 87.1702 82.6811ZM98.6457 82.9091C97.8408 81.5469 96.5414 80.0504 95.0937 78.8183C94.1764 78.0378 93.7286 77.5274 93.7194 77.252C93.6991 76.6467 94.1248 76.7516 94.8246 77.5243C95.1636 77.8987 95.6837 78.3609 95.9803 78.5514C96.2769 78.7418 96.5881 79.013 96.6719 79.1541C96.7556 79.2951 97.3348 79.9971 97.9589 80.714C99.2616 82.2104 99.5151 82.6278 99.5151 83.2764C99.5151 83.9751 99.196 83.8403 98.6457 82.9091ZM99.927 83.0614C99.7406 82.7868 99.483 82.317 99.3546 82.0175C98.9815 81.1471 98.0576 79.9325 96.8645 78.7435C94.9446 76.8303 94.6191 75.9792 96.195 76.9929C97.9124 78.0975 99.0898 79.5441 100.335 82.0797C100.988 83.4087 100.675 84.1627 99.927 83.0614ZM101.136 82.6983C100.346 80.9274 99.8317 79.9298 99.7087 79.9298C99.639 79.9298 99.4073 79.619 99.1938 79.2393C98.752 78.4531 96.9914 76.7192 96.1111 76.2033C95.5406 75.8689 95.3619 75.511 95.6703 75.3204C95.9746 75.1323 96.9196 75.8077 98.193 77.1235C98.9137 77.8681 99.5786 78.4774 99.6707 78.4774C99.7628 78.4774 100.019 78.8655 100.24 79.3397C100.461 79.814 100.753 80.328 100.889 80.4819C101.23 80.8678 102.026 83.0552 101.926 83.3337C101.773 83.7621 101.521 83.5594 101.136 82.6983ZM89.0964 82.8194C89.051 82.6779 88.9146 81.9903 88.7934 81.2913C88.6721 80.5924 88.4615 79.6176 88.3254 79.1252C87.8821 77.5219 88.0931 76.5579 88.6885 77.4666C89.0784 78.0616 89.658 82.5978 89.3797 82.8761C89.2332 83.0226 89.1568 83.0073 89.0964 82.8194ZM85.9085 81.5807C85.6835 81.1603 85.6514 79.7482 85.8668 79.7482C85.9488 79.7482 85.9547 79.3193 85.8801 78.7951C85.6659 77.2914 85.6745 77.2293 86.0809 77.3355C86.4182 77.4237 86.444 77.5832 86.444 79.5771C86.444 81.6885 86.2848 82.2839 85.9085 81.5807ZM85.048 78.2175C85.07 77.6751 85.1363 77.183 85.1955 77.1238C85.3327 76.9866 85.5579 78.8401 85.4294 79.0482C85.1741 79.4613 85.012 79.1082 85.048 78.2175ZM64.8377 87.8723C64.8321 87.4137 64.535 87.208 63.2945 86.8038C61.937 86.3616 60.3019 85.3242 60.3019 84.9052C60.3019 84.5555 60.4149 84.5796 61.6635 85.1945C62.2626 85.4896 62.9051 85.7328 63.0914 85.7351C63.2777 85.7373 63.815 85.8758 64.2855 86.0429C65.2415 86.3825 65.7482 86.2864 65.7482 85.7655C65.7482 85.5403 65.5078 85.3062 65.0674 85.1024C64.693 84.9291 64.1812 84.5962 63.9302 84.3626C63.3658 83.8373 62.184 83.4001 60.7666 83.1921C59.6516 83.0284 57.3905 82.0135 56.6927 81.3633C56.4753 81.1607 56.0945 80.6736 55.8465 80.2808C55.3976 79.5697 54.8556 79.3252 54.8556 79.8338C54.8556 80.4856 55.8084 82.1484 56.8973 83.3969C58.2854 84.9885 59.9191 86.1373 62.4096 87.273C64.2663 88.1197 64.8425 88.2619 64.8377 87.8723ZM34.8652 85.6957C35.6256 84.9278 36.7014 83.0429 36.7014 82.4787C36.7014 82.3149 36.7689 82.1033 36.8514 82.0084C36.9339 81.9136 37.1089 81.493 37.2404 81.0739C37.3719 80.6547 37.5751 80.2751 37.6919 80.2302C38.1882 80.0398 38.9159 80.3768 39.4416 81.0405C39.7485 81.4281 40.1142 81.7452 40.2543 81.7452C40.6699 81.7452 41.0584 80.5206 41.0584 79.2105C41.0584 78.0123 41.5791 75.5109 41.9946 74.7134C42.2566 74.2103 42.8054 74.0191 43.1549 74.3091C43.5457 74.6335 43.4758 75.4707 42.9646 76.5882C42.6437 77.2899 42.5107 77.8946 42.5107 78.6531C42.5107 80.9998 43.5838 83.9237 44.4451 83.9237C44.792 83.9237 44.7479 83.6252 44.3143 83.0387C44.0376 82.6645 43.9546 82.3213 43.9978 81.7299L44.0564 80.9282L44.3728 81.6312C44.5469 82.0178 44.6893 82.5236 44.6893 82.7551C44.6893 82.9867 44.78 83.2322 44.8908 83.3007C45.0066 83.3722 45.0516 83.6763 44.9967 84.015C44.917 84.506 44.975 84.6443 45.3434 84.8415C45.6135 84.986 45.8464 85.0125 45.9414 84.9095C46.2063 84.6219 47.0765 82.0906 47.4348 80.5652C47.9973 78.1701 48.0134 77.9828 47.7567 76.8257C47.5506 75.8966 47.337 75.517 46.4626 74.5266C45.8867 73.8742 45.4154 73.2839 45.4154 73.2149C45.4154 72.6545 41.8702 72.4268 41.3437 72.9533C41.1868 73.1102 41.0584 73.3505 41.0584 73.4872C41.0584 73.9037 40.6549 74.0143 40.4011 73.6673C40.0926 73.2453 39.653 73.5646 39.5715 74.2698C39.5384 74.5558 39.4032 74.7558 39.243 74.7558C39.0454 74.7558 38.9551 74.51 38.914 73.8599C38.8717 73.1914 38.718 72.7882 38.3087 72.2714C37.7789 71.6025 37.7216 71.5788 36.6355 71.5788H35.5109L34.3911 72.7134C33.0988 74.0229 31.8377 76.4923 31.6792 78.0236C31.6276 78.5228 31.5031 79.2016 31.4026 79.532C31.2715 79.963 31.2825 80.2838 31.4415 80.6675L31.663 81.2023L32.3673 80.566C33.2078 79.8067 33.3866 79.7823 33.6197 80.3954C33.8568 81.0192 33.8465 85.3069 33.6068 85.7548C33.3958 86.149 33.513 86.4653 33.8699 86.4653C33.9982 86.4653 34.4461 86.119 34.8652 85.6957ZM45.1885 81.685C45.1136 81.5021 45.0523 80.6659 45.0523 79.8267C45.0523 77.9954 44.7409 76.6431 44.3341 76.708C44.1447 76.7382 44.0735 76.635 44.1144 76.3897C44.2753 75.4248 44.8728 75.5879 45.1948 76.6846C45.4438 77.5328 45.4378 82.2939 45.1885 81.685ZM46.2626 80.898C46.08 80.7154 46.1173 76.5169 46.3026 76.4024C46.3911 76.3477 46.5627 76.4223 46.6839 76.5684C46.846 76.7637 46.8696 77.3867 46.7734 78.9264C46.6513 80.8809 46.5678 81.2032 46.2626 80.898ZM43.6712 79.8257C43.605 79.5618 43.643 79.2695 43.7585 79.154C43.9102 79.0023 43.9631 79.1229 43.9631 79.6211C43.9631 80.4034 43.8382 80.4909 43.6712 79.8257ZM35.9249 76.188C35.6944 75.9576 35.7841 74.6493 36.072 74.0427C36.225 73.7201 36.6743 73.1398 37.0704 72.753L37.7906 72.0497V72.5461C37.7906 72.8191 37.6757 73.0866 37.5351 73.1406C37.2457 73.2516 36.5198 74.8275 36.5198 75.3447C36.5198 75.7704 36.1009 76.3641 35.9249 76.188ZM34.5229 74.9972C34.5229 74.763 34.7621 74.3473 35.057 74.0689C35.3508 73.7916 35.6422 73.4038 35.7047 73.2072C35.8223 72.8366 36.1568 72.709 36.1568 73.0347C36.1568 73.1365 35.973 73.5277 35.7483 73.9039C35.5236 74.2802 35.2523 74.7434 35.1453 74.9334C34.8542 75.4504 34.5229 75.4843 34.5229 74.9972ZM37.4639 74.3491C37.5068 73.527 37.5854 73.2942 37.836 73.2465C38.2154 73.1743 38.2709 73.9117 37.9544 74.8195C37.641 75.7185 37.4042 75.4915 37.4639 74.3491ZM49.4094 81.5636C49.6632 81.3098 49.7778 80.9412 49.7903 80.3382C49.8595 77.009 49.8932 76.3491 50.0106 76.0266C50.1171 75.7342 50.0275 75.6104 49.5509 75.3912C49.1226 75.1942 48.9083 74.9377 48.7757 74.4637C48.6749 74.1034 48.4896 73.6857 48.364 73.5356C48.12 73.244 46.3231 72.2586 46.3231 72.4163C46.3231 72.6692 46.7755 73.2906 47.5091 74.0454C47.9551 74.5043 48.3201 74.9835 48.3201 75.1102C48.3201 75.2369 48.5243 75.6415 48.774 76.0093C49.2305 76.682 49.3611 77.2066 49.0721 77.2066C48.9865 77.2066 48.8642 77.7172 48.8002 78.3412C48.7363 78.9653 48.5907 79.8978 48.4767 80.4134C48.158 81.8542 48.5883 82.3848 49.4094 81.5636ZM102.495 79.7837C102.43 79.3772 102.24 78.8965 102.074 78.7156C101.635 78.2401 100.423 76.2001 100.423 75.938C100.423 75.8096 100.544 75.762 100.71 75.8256C100.868 75.8862 101.077 75.9358 101.174 75.9358C101.271 75.9358 101.845 76.9573 102.448 78.2057C103.471 80.3216 103.872 80.9613 103.872 80.4779C103.872 80.3681 103.7 79.942 103.491 79.5308C103.281 79.1197 102.992 78.3877 102.848 77.9042C102.705 77.4207 102.51 77.0251 102.415 77.0251C102.32 77.0251 102.12 76.7305 101.97 76.3704C101.698 75.7195 101.746 75.2901 102.069 75.4897C102.162 75.5471 102.238 75.481 102.238 75.3428C102.238 74.7828 101.288 74.2261 99.3789 73.6679C97.9995 73.2646 97.0414 72.8484 96.1111 72.2484C94.9117 71.4749 94.795 71.3461 94.795 70.7964C94.795 70.2847 94.9019 70.1331 95.5005 69.7968C95.8885 69.5787 96.3786 69.4002 96.5897 69.4002C96.8478 69.4002 96.9735 69.2855 96.9735 69.0499C96.9735 68.8158 97.2463 68.5633 97.7954 68.289C98.5118 67.9312 98.694 67.9063 99.2152 68.0948C99.5441 68.2137 99.9903 68.311 100.207 68.311C100.423 68.311 101.03 68.4743 101.555 68.674C102.081 68.8736 102.807 69.037 103.17 69.0371C103.668 69.0371 103.852 69.1227 103.921 69.3862C103.978 69.6034 104.203 69.7577 104.518 69.7947C105.204 69.8752 105.295 70.2698 104.657 70.3949C104.375 70.4501 103.796 70.5757 103.37 70.6739C102.944 70.7722 102.032 70.8526 101.342 70.8526C100.29 70.8526 100.005 70.7835 99.5744 70.4241C99.2796 70.1781 98.6845 69.94 98.1762 69.865L97.2911 69.7343L97.6813 70.2822C97.8959 70.5836 98.4984 71.0335 99.0202 71.2821C100.344 71.9126 101.527 72.0265 102.964 71.6619C103.613 71.4973 104.784 71.2366 105.567 71.0827C106.362 70.9261 107.03 70.696 107.082 70.5604C107.287 70.0261 105.618 67.8584 104.577 67.3075C103.715 66.851 100.071 66.1325 98.6182 66.1325C97.4421 66.1325 96.9752 66.2334 95.6154 66.7817C93.5809 67.6021 92.5094 68.4627 91.9505 69.7252C91.5599 70.6075 91.5471 70.7276 91.7932 71.2035C92.0238 71.6494 92.2539 71.7644 93.4482 72.0301C94.8709 72.3466 96.0775 73.0917 97.4122 74.4781C98.0262 75.1158 98.5127 75.181 98.7901 74.6627C98.9454 74.3726 99.0566 74.3353 99.3297 74.4814C99.6004 74.6263 99.6522 74.7979 99.5729 75.2866C99.4852 75.8272 99.5807 76.0409 100.311 76.9368C100.772 77.5029 101.149 78.0249 101.149 78.0967C101.149 78.1686 101.295 78.3858 101.473 78.5793C101.651 78.7729 101.945 79.3243 102.127 79.8046C102.516 80.8296 102.661 80.8213 102.495 79.7837ZM70.8314 79.0794C72.2675 78.9474 73.1761 78.4588 74.4088 77.1553C75.1175 76.406 75.3904 75.9334 75.6965 74.9258C75.9101 74.2225 76.3165 73.3022 76.5995 72.8808C77.094 72.1445 78.2269 71.2157 78.6305 71.2157C78.737 71.2157 78.966 71.1378 79.1394 71.0427C79.3128 70.9476 79.9856 70.693 80.6346 70.4769C82.0168 70.0168 82.2472 69.8509 81.936 69.5397C81.7589 69.3627 81.5532 69.3958 80.9466 69.6989C80.5254 69.9095 79.8132 70.1777 79.3638 70.2951C78.9145 70.4125 78.1286 70.6728 77.6172 70.8737C77.0479 71.0973 76.3833 71.2168 75.9027 71.1819C75.1358 71.1262 75.1088 71.1021 74.7189 70.1264C74.3904 69.3045 74.2342 69.1176 73.8354 69.0694C73.245 68.9981 72.8098 69.3223 72.9624 69.7199C73.0243 69.8811 73.3596 70.2631 73.7077 70.5687C74.424 71.1976 75.1884 72.7633 75.1884 73.6016C75.1884 73.9096 75.0143 74.4996 74.8015 74.9126C74.5888 75.3256 74.3029 75.8803 74.1661 76.1454C74.0294 76.4104 73.9176 76.7929 73.9176 76.9954C73.9176 77.4646 73.5174 77.5869 72.1776 77.5275C71.2773 77.4876 71.001 77.5532 70.4683 77.9333C69.3292 78.7461 67.3894 78.4342 66.1432 77.238C65.4502 76.5728 64.8405 75.1446 64.8405 74.1867C64.8405 73.9465 64.6362 73.2474 64.3866 72.6331C63.7969 71.1818 63.741 69.4002 64.2851 69.4002C64.7655 69.4002 64.9398 69.0587 64.6219 68.7407C64.2193 68.3382 63.7775 68.6334 63.539 69.4643C63.3227 70.2177 63.3026 70.9782 63.4496 72.8496C63.5722 74.4096 64.3223 76.614 64.8392 76.9335C64.9397 76.9956 65.022 77.2051 65.022 77.3989C65.022 77.7281 64.8789 77.7512 62.8473 77.7512C59.8698 77.7512 58.681 77.3645 57.0931 75.879C56.4616 75.2883 55.9449 74.7313 55.9449 74.6414C55.9449 74.5515 55.6468 74.029 55.2826 73.4803C54.585 72.4297 53.9647 71.9507 52.7679 71.5382C51.6237 71.1438 49.5146 69.5052 48.8817 68.519C48.5689 68.0315 48.2331 67.1809 48.1271 66.6073C47.9533 65.6675 47.9727 65.5146 48.3402 64.92C48.7314 64.287 48.7335 64.2582 48.4067 64.0192C47.9914 63.7155 47.8358 63.7095 47.6621 63.9905C47.4235 64.3766 47.4385 66.3799 47.6863 67.2217C47.8186 67.671 47.9784 68.3465 48.0415 68.7228C48.1324 69.2645 48.3067 69.5018 48.8793 69.8633C49.376 70.1768 49.6363 70.4896 49.7108 70.8623C49.8472 71.5438 50.0204 71.6523 50.503 71.358C50.8324 71.1572 50.9289 71.1752 51.2001 71.488C51.3732 71.6877 51.6416 71.9328 51.7965 72.0326C53.7866 73.3153 54.3481 73.815 55.6717 75.4819C56.0682 75.9812 56.4756 76.4228 56.5772 76.4634C56.6787 76.5039 57.091 76.879 57.4933 77.2969C57.8957 77.7148 58.4267 78.1024 58.6734 78.1582C58.92 78.214 59.612 78.3949 60.2111 78.5603C61.0019 78.7785 61.9223 78.8509 63.5697 78.8245C65.9229 78.7867 67.819 78.9487 68.2898 79.2277C68.4395 79.3164 68.8072 79.3438 69.1067 79.2885C69.4062 79.2331 70.1823 79.1391 70.8314 79.0794ZM77.2121 78.2174C78.4635 77.8376 79.1895 77.4291 79.9992 76.6493C80.3986 76.2647 81.3381 75.6404 82.087 75.2621C83.3958 74.6009 83.8054 74.1033 83.1455 73.9762C82.801 73.9099 81.0907 74.7221 80.5439 75.2117C79.6475 76.0144 76.8985 77.3786 75.9145 77.509C74.6382 77.6782 74.4622 77.7519 74.4622 78.1178C74.4622 78.4308 74.5856 78.4772 75.4153 78.4754C75.9395 78.4743 76.7481 78.3582 77.2121 78.2174ZM69.5571 77.2085C70.0135 76.9642 70.315 75.5008 70.101 74.5679C70.0102 74.172 69.9742 72.8354 70.0209 71.5978C70.0803 70.0236 70.0416 69.27 69.8918 69.0896C69.5705 68.7024 69.5704 63.4464 69.8917 63.2477C70.3017 62.994 69.6121 62.4725 68.9523 62.5372C68.4567 62.5858 68.3862 62.6628 68.3609 63.1836C68.3451 63.5089 68.2332 63.8941 68.1122 64.0399C67.7814 64.4386 68.1264 67.4341 68.5624 67.9479C69.0196 68.4866 69.148 70.0303 69.0306 73.5757C68.9662 75.5228 68.9413 77.1771 68.9754 77.252C69.057 77.4312 69.1545 77.4239 69.5571 77.2085ZM62.662 72.5971C62.662 72.1042 61.4709 70.6284 60.744 70.2206C60.3382 69.9929 59.6591 69.748 59.235 69.6763C58.6528 69.578 58.4233 69.4393 58.2981 69.1101C58.0735 68.5192 57.7502 68.5581 57.773 69.1733C57.7832 69.4479 57.7341 69.8564 57.664 70.081C57.5447 70.463 57.5894 70.4895 58.3524 70.4895C59.4899 70.4895 60.3371 70.8926 61.4123 71.9454C62.3649 72.8782 62.662 73.0331 62.662 72.5971ZM47.6847 70.533C48.8163 70.3142 48.4462 70.0344 47.0424 70.0474C45.7695 70.0591 45.2577 70.269 45.5092 70.676C45.6421 70.8909 45.9325 70.8718 47.6847 70.533ZM40.7631 69.6623C41.1652 69.7266 41.6004 69.8674 41.7302 69.9751C41.9155 70.1288 41.9661 70.0449 41.9661 69.5843C41.9661 69.0568 42.0097 69.0087 42.3993 69.1065C42.7315 69.1899 42.8544 69.1311 42.9269 68.8539C42.9807 68.6479 43.1746 68.4925 43.3777 68.4925C43.6456 68.4925 43.7601 68.3317 43.8392 67.8444C43.9934 66.8944 43.7372 66.4268 42.6041 65.5898C41.2188 64.5664 39.5142 63.9554 37.6838 63.8262L36.1927 63.721L35.9091 64.2693C35.5771 64.9114 35.3069 65.0409 34.2811 65.0497C33.5112 65.0562 31.9953 65.3822 30.9483 65.7664C30.1761 66.0497 29.3992 67.0809 29.4733 67.7242C29.5199 68.1281 29.6317 68.2293 30.0751 68.2691C31.218 68.3717 32.2878 68.7237 33.27 69.3203C33.8302 69.6606 34.7045 70.0351 35.2129 70.1524C36.0408 70.3436 36.2472 70.3234 37.1909 69.9596L38.2445 69.5533L38.6827 70.0908L39.1209 70.6283L39.5765 70.0868C39.9861 69.6 40.1058 69.5572 40.7631 69.6623ZM89.709 70.081C89.7053 69.5458 89.5433 69.3103 88.803 68.764C88.2882 68.3843 87.9866 68.311 86.9382 68.311C85.33 68.311 85.3657 68.6705 87.0011 68.944C88.2634 69.1551 89.0884 69.5923 89.2631 70.1427C89.4147 70.6204 89.7124 70.5793 89.709 70.081ZM103.247 69.8411C103.581 69.571 103.567 69.5613 102.987 69.6595C102.65 69.7166 102.221 69.7633 102.034 69.7633C101.847 69.7633 101.694 69.845 101.694 69.9449C101.694 70.2332 102.859 70.1554 103.247 69.8411ZM72.6923 67.6811C72.6451 67.4346 72.4931 67.1386 72.3544 67.0235C72.1531 66.8565 72.1022 66.889 72.1022 67.1846C72.1022 67.7303 72.2915 68.1294 72.5503 68.1294C72.6945 68.1294 72.7466 67.9651 72.6923 67.6811ZM66.5533 67.295C66.6838 66.7751 66.2215 65.8613 65.9217 66.0466C65.6772 66.1978 65.7052 67.4693 65.9588 67.7228C66.2355 67.9996 66.4075 67.8758 66.5533 67.295ZM59.4616 67.2149C60.0054 67.0114 60.5495 66.7255 60.6707 66.5795C61.0097 66.171 60.0581 66.2335 58.7525 66.7056C57.9698 66.9886 57.3046 67.089 56.3534 67.0676C55.1457 67.0405 54.8372 67.1428 55.1582 67.4638C55.2248 67.5303 55.9978 67.5848 56.876 67.5848C58.0382 67.5848 58.742 67.4841 59.4616 67.2149ZM58.3122 66.0661C58.8574 65.9297 59.8194 65.7132 60.45 65.5849C61.4678 65.3778 61.7145 65.2354 62.6475 64.3168C63.7156 63.2652 65.3851 60.8867 65.3851 60.4167C65.3851 60.2748 65.4583 59.971 65.5477 59.7416C65.6372 59.5122 65.8129 58.9797 65.9382 58.5582C66.1786 57.7494 67.6504 55.8601 68.3374 55.4784C68.5608 55.3543 69.1344 55.2498 69.612 55.2463C70.3632 55.2407 70.5644 55.3238 71.103 55.8625C71.4454 56.2049 71.836 56.5521 71.9711 56.634C72.287 56.8257 73.0717 59.2508 73.4584 61.2308C74.0472 64.245 74.9452 65.7737 76.3491 66.1517C77.3755 66.4281 78.3733 66.2231 80.0137 65.399L81.4463 64.6793L82.3362 64.9749C83.4195 65.3347 85.1016 65.2342 86.1986 64.7442C87.493 64.1659 88.6297 62.3401 89.2406 59.8579C89.365 59.3524 89.5365 58.8214 89.6218 58.6778C90.0945 57.8824 91.1195 56.8237 91.9052 56.3195C92.8799 55.6941 93.087 55.2578 92.918 54.1861C92.8323 53.6426 92.5093 53.2214 91.2166 51.9676C90.2843 51.0633 89.3569 50.3318 88.9856 50.2078C86.4117 49.3485 85.2638 48.8681 84.8428 48.4742C84.5752 48.2238 84.1703 47.9627 83.943 47.894C83.3585 47.7173 83.0139 47.0876 83.1233 46.3961C83.2 45.9109 83.3714 45.7348 84.1393 45.3522C84.6473 45.099 85.2772 44.8919 85.539 44.8919C86.1918 44.8919 87.8007 45.3707 88.8948 45.8905C90.1521 46.4878 91.933 46.7579 94.0682 46.6751C95.8727 46.6051 95.8809 46.6026 96.5622 45.9363C97.5608 44.9597 98.0627 43.5182 98.0627 41.6267C98.0627 39.8086 97.8062 39.3355 95.9253 37.6841C93.9842 35.98 93.4125 35.1343 93.1619 33.5965C92.7284 30.9367 92.2931 29.8206 91.278 28.7659C90.085 27.5265 89.5996 27.2821 88.0775 27.1545C85.8008 26.9636 83.4609 28.1897 82.5062 30.0737C82.2522 30.575 81.8523 31.1362 81.6176 31.3208C81.3829 31.5054 81.0861 31.8708 80.9581 32.1328C80.8223 32.4109 80.4655 32.6958 80.101 32.8175C79.7575 32.9321 79.4418 33.1427 79.3993 33.2856C79.0496 34.4621 76.8877 34.1176 76.4584 32.817C76.1342 31.8344 76.6544 30.7397 78.4903 28.5413C78.8709 28.0856 79.1823 27.6427 79.1823 27.5571C79.1823 27.4715 79.3101 27.2604 79.4662 27.0878C79.871 26.6405 80.2669 25.0102 80.2694 23.7802C80.2726 22.2104 79.7831 21.38 78.5112 20.7977C77.6257 20.3923 77.3358 20.3472 76.1777 20.4348C75.4132 20.4926 74.4852 20.7004 73.978 20.9275C72.671 21.5124 70.3456 21.4184 69.379 20.7416C68.3624 20.0298 66.6687 19.2943 66.046 19.2943C64.7587 19.2943 63.706 19.7093 62.8466 20.5556C62.3956 20.9997 61.8668 21.4496 61.6716 21.5554C60.8512 21.9999 60.4345 24.4643 60.8649 26.3265C61.2794 28.1196 61.4603 28.5525 62.1367 29.3711C63.3197 30.8027 63.2883 32.1809 62.0587 32.7904C61.5274 33.0538 61.2726 33.0858 60.8576 32.9411C60.2366 32.7246 59.1799 31.7048 58.1676 30.3449C57.2821 29.1555 56.868 28.7743 55.5818 27.9642C54.1076 27.0358 53.496 26.8817 52.0797 27.0823C50.6985 27.2779 48.5835 28.2399 48.2825 28.8095C48.1724 29.0179 47.8221 29.4941 47.5042 29.8678C46.7863 30.7115 46.5047 31.621 46.5047 33.0961C46.5047 34.1368 46.4431 34.3209 45.8129 35.1628C44.5724 36.82 43.8228 38.0719 43.6871 38.7135C43.6138 39.0596 43.467 39.4819 43.3609 39.6518C43.2203 39.877 43.2539 40.3705 43.4848 41.4732C43.9756 43.8162 43.9904 43.8616 44.4438 44.4066C44.6787 44.6888 44.8708 44.9889 44.8708 45.0734C44.8708 45.3924 45.8443 46.3668 46.3903 46.5943C47.2498 46.9525 48.6304 47.0655 50.0448 46.8933C50.7437 46.8082 52.1439 46.6346 53.1563 46.5074C54.8277 46.2974 55.0406 46.3047 55.4709 46.5867C56.1008 46.9994 56.0685 47.3654 55.3419 48.0475C54.8447 48.5141 54.3586 48.7039 52.5733 49.1282C50.1411 49.7063 49.2164 50.1935 47.5294 51.7857C46.3115 52.9352 45.8193 53.7844 45.6592 55.0123C45.5973 55.4869 45.4815 56.0031 45.4018 56.1594C45.1837 56.5875 46.4365 57.9466 47.2309 58.1436C47.5803 58.2304 48.5606 58.5399 49.4094 58.8316C50.8027 59.3105 51.0003 59.4375 51.4451 60.1409C51.7161 60.5693 52.0731 61.5412 52.2385 62.3007C52.4039 63.0602 52.6986 63.9457 52.8934 64.2685C53.3341 64.999 54.5871 66.0874 55.1037 66.1887C55.9539 66.3553 57.3727 66.3011 58.3122 66.0661ZM74.9506 62.7285C74.9079 62.6536 74.7693 62.2656 74.6426 61.8662C74.516 61.4668 74.2717 60.8132 74.0998 60.4138C73.9279 60.0145 73.6448 59.1975 73.4707 58.5984C72.8174 56.35 71.7294 54.6585 70.7228 54.3263C69.7273 53.9977 69.379 53.5042 69.379 52.422C69.379 51.9083 69.3253 51.4342 69.2596 51.3685C69.0549 51.1638 68.6529 51.6326 68.6529 52.0761C68.6529 52.3085 68.5099 52.5793 68.3352 52.6779C68.0807 52.8215 68.0626 52.9028 68.2444 53.0863C68.6545 53.5005 68.5027 54.1043 67.8813 54.5305C67.5568 54.7531 67.0603 55.1467 66.7781 55.4052C66.1531 55.9776 64.8554 58.3242 64.2091 60.0508C63.6744 61.4791 63.2926 62.1385 63.0002 62.1385C62.7568 62.1385 62.8459 61.6456 63.476 59.5061C64.0792 57.4582 64.8618 55.8547 65.6178 55.1177C67.9486 52.8455 67.957 52.8327 67.818 51.785C67.6392 50.4368 67.019 50.6307 67.019 52.0347C67.019 52.8345 65.8374 54.5902 65.4162 54.4163C64.7678 54.1485 64.4774 54.1164 64.4774 54.3126C64.4774 54.425 64.2323 54.7734 63.9327 55.0869C63.314 55.7343 63.2726 55.8829 63.6683 56.0347C63.8847 56.1178 63.9055 56.2223 63.7597 56.4948C63.6559 56.6888 63.6107 56.9555 63.6592 57.0875C63.7808 57.4184 63.4737 57.8558 63.2269 57.7032C63.1159 57.6346 63.025 57.4608 63.025 57.3169C63.025 56.7977 62.6266 57.0709 62.3475 57.7815C62.0155 58.6266 61.4913 58.8075 61.6897 58.0084C61.7579 57.7338 61.9239 57.2436 62.0587 56.9191C62.1935 56.5946 62.2414 56.3333 62.1651 56.3383C61.942 56.3532 60.1204 58.9942 60.1204 59.3028C60.1204 59.4575 59.957 59.6716 59.7573 59.7784C59.0965 60.1321 59.3392 59.4704 60.3927 58.0459C60.9418 57.3033 61.3912 56.5388 61.3912 56.347C61.3912 56.0092 62.338 55.0583 62.6745 55.0583C62.7659 55.0583 62.9842 54.7547 63.1598 54.3837C63.3372 54.0085 63.8214 53.4793 64.2504 53.1916C64.8593 52.7834 65.022 52.5642 65.022 52.1523C65.022 51.4236 64.7335 51.3237 64.3539 51.9209C64.1774 52.1987 63.459 53.1072 62.7574 53.94C62.0559 54.7727 61.1034 55.9413 60.6407 56.537C59.4732 58.04 58.8777 58.6892 58.6666 58.6892C58.4027 58.6892 58.4469 58.4034 58.7498 58.152C58.8946 58.0318 59.2558 57.5112 59.5524 56.9951C59.8491 56.4791 60.6283 55.4849 61.284 54.786C61.9398 54.0871 62.4772 53.4482 62.4783 53.3664C62.4795 53.2845 62.7116 52.876 62.9941 52.4586C63.9863 50.993 63.9473 50.8422 62.8564 51.9267C62.4798 52.3011 61.9756 52.7847 61.736 53.0012C61.4964 53.2178 60.8511 53.9806 60.3019 54.6963C59.2172 56.1099 58.2299 57.377 57.9334 57.7361C57.6899 58.031 57.2157 58.0289 57.2157 57.733C57.2157 57.6064 57.5641 57.0958 57.99 56.5983C58.4159 56.1008 58.8857 55.4486 59.0339 55.1491C59.1821 54.8495 59.7503 54.1551 60.2965 53.606C62.5831 51.3068 63.4036 50.1736 62.2201 50.949C61.6613 51.3152 61.5727 51.3186 61.5727 50.9736C61.5727 50.5558 61.1398 50.6493 60.6512 51.1728C60.4092 51.4321 59.8844 51.8102 59.485 52.0129C59.0856 52.2156 58.3745 52.7182 57.9048 53.1299C56.2643 54.5676 55.7623 54.9152 55.482 54.8076C55.0169 54.6292 55.4483 54.107 56.8221 53.1852C57.5155 52.72 58.2072 52.2916 58.3591 52.2333C58.511 52.175 58.6826 51.9388 58.7404 51.7082C58.8003 51.4697 59.1094 51.164 59.458 50.9986C59.7948 50.8387 60.1733 50.5839 60.2991 50.4323C60.4931 50.1986 60.4603 50.1566 60.0835 50.1566C59.8392 50.1566 59.1875 50.5038 58.6354 50.9282C56.0863 52.8875 54.7754 53.6837 54.3606 53.5245C53.9856 53.3806 54.3535 52.9497 55.1948 52.5473C55.9565 52.1829 56.1017 51.8648 55.5815 51.6997C55.044 51.5291 55.196 51.0767 55.9214 50.6881C56.2579 50.5079 56.7072 50.2071 56.9199 50.0197C57.4588 49.5448 58.2244 49.0426 59.0866 48.5985C59.8933 48.1829 59.7483 47.8419 58.9086 48.18C58.6265 48.2935 58.2323 48.4523 58.0326 48.5327C57.8329 48.6132 57.3758 48.7686 57.0169 48.878C56.6458 48.9911 56.2616 49.2688 56.1264 49.5214C55.8643 50.0111 54.8047 50.3876 52.595 50.7763C51.8913 50.9 50.9149 51.1799 50.4252 51.3981C49.479 51.8198 49.2106 51.7854 49.524 51.2826C49.8456 50.7663 50.971 50.2369 52.2661 49.9926C52.9415 49.8652 54.1476 49.563 54.9464 49.3209C56.3663 48.8908 56.4062 48.8627 56.7344 48.0665C57.053 47.2933 57.107 47.252 57.7957 47.252C58.5866 47.252 59.5757 46.6842 59.5757 46.2301C59.5757 46.004 59.3675 45.9797 58.3174 46.0832C57.2286 46.1904 56.946 46.1524 56.2196 45.8007C55.3331 45.3716 54.5073 45.3673 52.4048 45.7809C51.1832 46.0213 48.2011 46.0274 47.7585 45.7905C47.0697 45.4219 47.5936 45.208 48.8758 45.3344C50.208 45.4656 51.6627 45.2579 53.5579 44.6657C54.6711 44.3178 55.6782 44.303 57.0341 44.6146C57.5087 44.7237 58.1148 44.4597 57.8948 44.2397C57.8248 44.1697 56.9888 44.0467 56.0369 43.9664C54.7134 43.8547 54.1371 43.8801 53.5865 44.0743C52.6004 44.4223 50.9473 44.5673 49.9016 44.3976C48.6383 44.1925 48.8369 43.8818 50.1859 43.953C50.9275 43.9921 51.7977 43.8829 52.7192 43.6353C53.6218 43.3926 54.6747 43.258 55.6692 43.258C56.5198 43.258 57.2157 43.1943 57.2157 43.1165C57.2157 42.8463 54.444 42.5308 53.6756 42.7135C52.6617 42.9547 49.6421 42.9431 49.4904 42.6975C49.2116 42.2465 49.8778 42.1566 53.5564 42.1487C55.671 42.1441 57.358 42.0706 57.3052 41.9852C57.1508 41.7354 55.4779 41.4573 53.0402 41.2762C50.7112 41.1033 49.6636 40.8578 49.8648 40.5322C49.9277 40.4306 50.069 40.403 50.179 40.4709C50.2889 40.5389 51.6925 40.6578 53.298 40.7352C54.9036 40.8126 56.4827 40.931 56.8072 40.9983C57.2707 41.0945 57.3972 41.0607 57.3972 40.8406C57.3972 40.397 55.5905 39.9686 53.6355 39.9488C52.2639 39.9349 51.8396 39.8655 51.5263 39.6038C51.1436 39.2841 51.1851 39.276 53.2217 39.2711C54.37 39.2683 55.5954 39.3391 55.9449 39.4285C57.1153 39.7276 57.7603 39.8009 57.7603 39.6348C57.7603 39.5442 57.5765 39.4186 57.3518 39.3556C56.9158 39.2335 56.2329 38.9587 55.7241 38.7005C55.5528 38.6136 54.9692 38.4904 54.4273 38.4267C53.3965 38.3055 52.8751 38.0979 53.082 37.8909C53.1987 37.7742 54.5726 37.9708 56.6267 38.3979C58.4885 38.7851 57.9477 38.1081 55.8563 37.4336C54.4657 36.9851 53.75 36.4846 54.0583 36.1763C54.2683 35.9663 55.0342 36.1967 56.7784 36.9945C57.972 37.5405 58.6793 37.6518 58.7995 37.3125C58.8437 37.1876 58.7709 37.0839 58.6378 37.0819C58.3919 37.0782 56.1365 35.4802 55.1098 34.5822C54.8003 34.3115 54.3919 33.9975 54.2021 33.8844C54.0124 33.7713 53.9221 33.611 54.0016 33.5282C54.081 33.4454 54.3261 33.4921 54.5462 33.6321C54.7663 33.772 55.2421 34.0312 55.6035 34.208C55.9649 34.3848 56.7431 34.8391 57.3328 35.2175C57.9226 35.5959 58.5664 36.0081 58.7635 36.1336C59.9929 36.916 59.9841 36.5622 58.7459 35.4191C58.1704 34.8878 57.3252 34.0976 56.8676 33.663C56.41 33.2284 55.8519 32.7493 55.6272 32.5982C55.1875 32.3026 55.0747 31.8203 55.4456 31.8215C55.8759 31.8231 57.1718 32.8212 57.783 33.6219C58.12 34.0634 58.4978 34.4583 58.6226 34.4994C58.9803 34.6172 58.8873 34.0897 58.4865 33.727C58.2868 33.5462 58.1234 33.3334 58.1234 33.2541C58.1234 32.9497 56.9606 31.341 56.3487 30.7989C55.7098 30.2328 55.6263 29.6422 56.1852 29.6422C56.4673 29.6422 57.8921 31.1487 58.8311 32.4397C59.5705 33.4563 60.9832 34.1998 62.2574 34.2428L63.1091 34.2716L63.2146 33.5066C63.2726 33.0858 63.4579 32.5892 63.6264 32.403C64.0551 31.9293 64.0248 30.7159 63.5697 30.1373C63.37 29.8835 63.2066 29.6179 63.2066 29.5472C63.2066 29.4764 62.9084 29.0123 62.5439 28.5157C61.8549 27.5771 61.5317 26.4602 61.701 25.6029C61.8477 24.8604 62.0324 24.9916 62.3753 26.0818C62.5445 26.6198 62.8008 27.2121 62.9449 27.398C63.1942 27.7197 63.2162 27.7205 63.3994 27.4145C63.6688 26.9648 63.9322 27.195 63.9355 27.8829C63.9391 28.6457 64.4143 30.0079 64.5492 29.6422C64.6045 29.4925 64.6722 28.8798 64.6997 28.2807C64.7376 27.4557 64.8158 27.1914 65.022 27.1914C65.2437 27.1914 65.3148 27.6135 65.4045 29.4607C65.5688 32.8464 65.7772 33.5346 66.438 32.8737C66.6075 32.7043 66.7043 32.7043 66.8737 32.8737C67.38 33.3799 67.5247 33.0877 67.6526 31.3013C67.8064 29.1516 67.9559 28.3485 68.1991 28.3657C68.309 28.3734 68.3805 29.2183 68.3805 30.5081V32.6377L68.8129 32.5902C69.0506 32.5641 69.3409 32.6736 69.4578 32.8336C69.7691 33.2592 69.9909 32.8795 70.2615 31.4577C70.5872 29.7466 70.8244 29.0976 71.124 29.0976C71.3376 29.0976 71.3649 29.2809 71.2657 30.0507C71.1981 30.5749 71.0728 31.1929 70.9871 31.4241C70.8026 31.9221 70.7819 32.8001 70.9508 32.969C71.1488 33.167 71.5579 32.711 71.5529 32.2978C71.5433 31.5019 72.7327 27.6453 72.9878 27.6453C73.269 27.6453 73.2125 28.1262 72.7317 29.8238C72.5762 30.373 72.4002 31.3713 72.3405 32.0423C72.2327 33.254 72.2355 33.2638 72.7452 33.4575C73.5744 33.7728 74.0007 33.6249 74.0611 33.0008C74.1301 32.2881 74.4247 31.536 74.9857 30.6407C75.2359 30.2413 75.4581 29.603 75.4795 29.2222C75.5336 28.2562 75.9573 26.9027 76.1816 26.9796C76.3625 27.0416 76.3613 27.4802 76.1778 28.3261C76.0544 28.8946 76.3368 28.8357 76.943 28.1662C77.9459 27.0587 78.095 26.9191 78.2746 26.9191C78.8125 26.9191 77.8441 28.8955 77.052 29.4145C76.5188 29.7639 75.8663 30.7564 75.5895 31.6392C75.4424 32.1081 75.447 32.6077 75.607 33.5454L75.8238 34.8162L77.4686 34.868C79.0951 34.9191 79.1225 34.9128 79.9267 34.2987C80.374 33.9572 81.1416 33.0761 81.6325 32.3408C82.5795 30.922 84.3297 29.0976 84.7437 29.0976C85.1676 29.0976 85.0124 29.3498 84.2616 29.8809C83.8644 30.162 83.5393 30.5159 83.5393 30.6673C83.5393 30.8188 83.2636 31.2832 82.9265 31.6994C82.5895 32.1156 82.189 32.7012 82.0365 33.0008C81.884 33.3003 81.5062 33.7317 81.197 33.9593C80.6477 34.3636 80.4384 34.907 80.8319 34.907C81.241 34.907 82.6652 33.7155 83.3668 32.7862C83.7677 32.2552 84.2156 31.8208 84.3622 31.8208C84.5087 31.8208 84.6286 31.8609 84.6286 31.91C84.6286 32.1252 83.2259 33.8086 82.3237 34.676C81.5307 35.4384 81.0943 35.6972 80.1038 35.9922C79.4257 36.1941 78.7775 36.3593 78.6635 36.3593C78.4305 36.3593 78.3791 36.8349 78.5975 36.9699C78.8823 37.1459 81.0052 36.5753 82.1885 36.0046C82.9992 35.6136 83.7245 35.0752 84.3628 34.3909C85.2828 33.4043 85.6883 33.2383 85.4632 33.9402C85.4047 34.1225 85.131 34.4224 84.855 34.6067C84.579 34.791 84.1368 35.2403 83.8723 35.6052C83.3438 36.3342 81.7784 37.0855 80.788 37.0855C80.2282 37.0855 79.0008 37.7058 79.0008 37.9886C79.0008 38.2949 79.5604 38.3315 80.1942 38.0667C80.5559 37.9156 80.9868 37.8224 81.1517 37.8596C81.5952 37.9597 84.3629 36.4827 85.7178 35.4228C86.9726 34.4413 87.9806 33.9177 88.2704 34.0968C88.5486 34.2688 88.3008 34.5166 87.3843 34.9835C86.917 35.2214 86.2897 35.6338 85.9902 35.8999C85.3786 36.4432 80.9115 38.7542 80.762 38.6047C80.6201 38.4628 79.9085 38.8817 79.9085 39.1072C79.9085 39.3192 80.8543 39.2419 82.3593 38.9067C82.8585 38.7956 83.6755 38.6303 84.1747 38.5394C85.591 38.2817 87.7931 37.6982 88.2282 37.4653C88.4966 37.3217 88.6225 37.3161 88.6225 37.4479C88.6225 37.5544 88.4796 37.6947 88.3048 37.7597C88.1301 37.8247 87.7829 38.0208 87.5333 38.1955C87.2836 38.3701 86.1904 38.6858 85.1038 38.8971C81.6719 39.5643 80.1925 40.0289 80.3191 40.3998C80.4227 40.703 81.3796 40.6663 82.8132 40.3042C83.4622 40.1402 84.565 39.8748 85.264 39.7143C85.9629 39.5539 87.2188 39.2658 88.0548 39.0741C89.4824 38.7467 89.8933 38.7419 89.8933 39.0527C89.8933 39.2615 83.9583 40.7248 83.1362 40.7187C82.7754 40.716 80.8162 41.5812 80.8162 41.7433C80.8162 41.8932 82.1723 41.715 84.5378 41.2543C85.6361 41.0403 86.9432 40.795 87.4425 40.7091C87.9417 40.6232 88.7779 40.4796 89.3006 40.3899C90.2266 40.231 90.4379 40.2622 90.4379 40.5578C90.4379 40.7827 88.2624 41.3132 86.0809 41.6202C81.861 42.2141 80.7657 42.4808 80.6727 42.9371C80.5878 43.3539 80.9801 44.2018 81.2208 44.1216C81.3422 44.0811 81.4882 43.8506 81.5452 43.6092C81.6628 43.111 81.9436 43.0043 83.9024 42.7141C84.6513 42.6031 85.8067 42.3941 86.47 42.2497C87.1333 42.1053 88.1545 41.9979 88.7393 42.0111C89.6023 42.0305 89.6856 42.0561 89.1816 42.1472C88.84 42.209 88.5228 42.3738 88.4766 42.5136C88.4105 42.7137 88.5504 42.7465 89.1359 42.668C89.6564 42.5981 89.9434 42.6457 90.0936 42.8268C90.3689 43.1584 90.2659 43.2498 89.4718 43.3787C88.5941 43.5211 87.8341 43.3191 87.9649 42.9781C88.08 42.6782 87.8428 42.653 86.5601 42.8288C85.5136 42.9723 85.4481 43.3621 86.4424 43.53C86.8408 43.5974 87.474 43.7981 87.8493 43.9762C88.2247 44.1542 88.8585 44.3583 89.2579 44.4297C89.6573 44.5011 90.1066 44.6682 90.2564 44.801C90.4062 44.9338 90.8091 45.1145 91.1518 45.2025C91.8558 45.3832 92.1258 45.7996 91.539 45.7996C91.1142 45.7996 88.9334 45.2354 87.7934 44.8305C86.522 44.379 85.0036 44.1318 84.2667 44.2563C83.8771 44.3221 83.1872 44.6217 82.7338 44.922L81.9095 45.4681L81.114 45.1643C79.841 44.6781 78.8109 45.0631 80.0044 45.579C81.2872 46.1335 81.4683 46.2923 81.9369 47.2733C82.5467 48.5499 83.5535 49.319 85.264 49.8146C86.9653 50.3076 87.8223 50.6816 88.1953 51.0938C88.8272 51.792 88.1681 51.7609 85.8994 50.9853C82.6256 49.8662 81.7513 49.3197 81.1844 48.0382C80.9431 47.4927 80.5803 47.0943 79.9754 46.7108C78.9877 46.0843 78.7684 46.0371 78.8515 46.4685C78.8839 46.6368 79.2717 46.9857 79.7133 47.244C80.2349 47.549 80.5775 47.903 80.6913 48.2543C80.993 49.1864 83.2112 51.9721 83.6517 51.9721C83.7133 51.9721 84.0332 52.1967 84.3627 52.4713C84.6921 52.7459 85.1743 53.1186 85.4342 53.2996C85.9083 53.6296 85.9143 53.9691 85.4461 53.9691C84.8858 53.9691 82.4734 51.643 81.1661 49.8425C79.9293 48.1389 79.1392 47.4335 78.4677 47.4335C78.1601 47.4335 78.553 48.0935 79.4728 49.1215C80.158 49.8876 80.9941 51.5765 80.9997 52.2058C81.0008 52.3269 81.3266 52.8344 81.7239 53.3337C82.5007 54.3099 82.5847 54.5137 82.2098 54.5137C81.8401 54.5137 80.3153 52.0876 79.9971 50.993C79.5236 49.3643 78.0198 47.7966 76.931 47.7966C76.453 47.7966 76.5975 48.1216 77.3953 48.8409C78.2934 49.6507 78.8098 50.6966 78.8152 51.717C78.8179 52.2142 78.934 52.5643 79.1657 52.774C79.5819 53.1507 80.0068 54.1128 79.8334 54.2862C79.6002 54.5194 79.0917 54.0206 78.8422 53.3139C78.705 52.9254 78.2409 51.8696 77.8108 50.9678C77.1552 49.5929 76.9233 49.2778 76.3748 49.0162C76.015 48.8447 75.4988 48.7047 75.2276 48.7052L74.7345 48.7062L75.2019 49.1137C76.0811 49.8804 76.9459 51.1536 77.0554 51.8424C77.1958 52.726 77.9596 54.3936 78.5398 55.083C79.1143 55.7658 79.632 56.8477 79.4644 57.0153C79.0831 57.3967 77.0598 53.6446 76.0342 50.6544C75.9222 50.3278 75.0794 49.8421 74.9131 50.0084C74.8624 50.0591 74.9896 50.4819 75.1957 50.9479C75.4019 51.414 75.676 52.3487 75.8048 53.025C76.0872 54.5071 76.191 54.7079 77.8661 57.0122C79.1693 58.805 79.4351 59.4154 78.9123 59.4154C78.6197 59.4154 77.73 58.1332 77.73 57.7115C77.73 57.5692 77.442 57.1081 77.09 56.6868C76.408 55.8705 75.1884 53.8855 75.1884 53.5918C75.1884 53.4948 75.0282 52.9596 74.8324 52.4025C74.3968 51.1631 73.6573 50.1567 73.1822 50.1567C72.6898 50.1567 72.729 50.7262 73.2554 51.2208C73.4903 51.4414 73.7819 51.9663 73.9035 52.3871C74.5156 54.5061 75.6692 57.0876 76.658 58.5512C77.6491 60.0181 77.9835 60.8037 77.5541 60.656C77.1546 60.5185 75.4787 58.3317 74.899 57.1913C74.0662 55.5533 73.1576 54.16 72.5608 53.606C72.091 53.1699 71.1506 51.3984 71.1393 50.9283C71.1329 50.6584 70.7186 50.6248 70.5601 50.8812C70.4989 50.9802 70.5554 51.5235 70.6855 52.0886C70.874 52.9071 71.0384 53.1925 71.4939 53.4916C71.8083 53.6982 72.2565 54.176 72.4898 54.5535C72.7231 54.931 72.9671 55.2399 73.0318 55.2399C73.4634 55.2399 74.2927 57.7136 74.5535 59.7785C74.6228 60.3277 74.8349 61.1346 75.0247 61.5716C75.2146 62.0087 75.3699 62.4784 75.3699 62.6155C75.3699 62.8799 75.0813 62.9577 74.9506 62.7285ZM65.5303 53.3881C65.6501 53.2683 65.7476 52.9211 65.747 52.6166L65.7456 52.0629L65.3849 52.6075C64.8532 53.4104 64.956 53.9624 65.5303 53.3881ZM73.281 52.7436C73.2091 52.5689 73.1076 52.2625 73.0554 52.0629C72.9162 51.5295 72.0869 50.7013 71.6921 50.7013C71.3811 50.7013 71.376 50.7272 71.6353 50.9866C71.7922 51.1435 71.9206 51.3699 71.9206 51.4898C71.9206 51.7787 72.9844 53.0613 73.224 53.0613C73.3317 53.0613 73.356 52.9257 73.281 52.7436ZM58.5165 50.27C58.8825 49.958 59.1888 49.6415 59.1973 49.5666C59.2333 49.2472 58.5784 49.4715 58.0049 49.9751C57.6637 50.2746 57.224 50.5197 57.0278 50.5197C56.8237 50.5197 56.6711 50.6425 56.6711 50.8065C56.6711 51.2523 57.7229 50.9466 58.5165 50.27ZM60.2574 49.1128C60.3591 48.804 60.0825 48.8273 59.6558 49.1635C59.3146 49.4324 59.3173 49.4395 59.7431 49.3904C59.9849 49.3625 60.2163 49.2376 60.2574 49.1128ZM69.5838 49.0584C69.8189 48.7071 69.8745 48.701 70.577 48.9499C71.5536 49.2958 71.8086 49.1394 71.5371 48.3608C71.2598 47.5651 71.5056 47.3166 72.297 47.5925C73.1888 47.9034 73.3448 47.8493 73.4068 47.208C73.4912 46.3354 74.0054 46.3271 74.2914 47.1937C74.4871 47.7866 74.5378 47.8318 74.6591 47.5214C74.7365 47.3233 74.8055 46.8548 74.8125 46.4804C74.8227 45.9379 74.8951 45.7996 75.1689 45.7996C75.358 45.7996 75.5618 45.9279 75.622 46.0846C75.6876 46.2556 75.8952 46.3464 76.1407 46.3116C76.4697 46.2649 76.561 46.12 76.6063 45.5727C76.6504 45.0393 76.7389 44.8919 77.0148 44.8919C77.2084 44.8919 77.3669 45.0144 77.3669 45.1642C77.3669 45.8417 77.8431 45.289 78.2664 44.1203C78.3658 43.8457 78.5309 43.6211 78.6332 43.6211C78.8726 43.6211 78.8763 42.9516 78.6377 42.8041C78.3329 42.6158 78.4327 42.247 78.9353 41.7047L79.4145 41.1877L78.9107 40.2712C78.6336 39.7672 78.1044 38.9872 77.7346 38.5379C77.3649 38.0885 76.9658 37.5394 76.8479 37.3175C76.6542 36.9534 74.2476 35.6332 73.7774 35.6332C73.6714 35.6332 73.2116 35.4733 72.7557 35.2779C71.7307 34.8385 68.0569 34.6385 66.2928 34.926C62.7533 35.5028 59.2852 38.6743 59.1879 41.423C59.16 42.21 59.3104 42.6509 60.2733 44.605C60.8881 45.8527 61.3911 47.0348 61.3911 47.2319C61.3911 47.8072 62.3798 48.4005 63.1103 48.2634C63.6064 48.1704 63.7739 48.2215 63.9916 48.5323C64.3011 48.9741 65.5666 49.3449 65.5666 48.9938C65.5666 48.8745 65.4699 48.6802 65.3518 48.5621C64.9225 48.1328 65.3591 48.1561 66.2086 48.6078C66.9997 49.0284 67.1152 49.0461 67.4858 48.8033C67.8569 48.5601 67.9472 48.5748 68.4999 48.9679C69.2597 49.5082 69.2815 49.51 69.5838 49.0584ZM66.169 46.0109C65.7514 45.7449 65.2606 45.2476 65.0782 44.9058C64.8959 44.564 64.5023 44.1495 64.2035 43.9846C63.5098 43.6018 63.3952 42.8879 63.9399 42.3431C64.3076 41.9755 64.4705 41.9552 66.5379 42.0204C68.9761 42.0974 69.3733 42.2302 70.8314 43.4558C71.2807 43.8335 71.8789 44.2297 72.1608 44.3362C72.8587 44.6 72.7345 45.0971 71.9203 45.2981C71.571 45.3843 71.1593 45.6022 71.0054 45.7822C70.4984 46.375 69.9659 46.526 68.4379 46.5101C67.1292 46.4966 66.8271 46.4301 66.169 46.0109ZM70.0701 44.9539C70.1203 44.436 70.0677 44.368 69.5254 44.25C69.1953 44.1781 68.764 44.0072 68.5671 43.8702C68.1438 43.5757 67.1396 43.5438 66.6439 43.809C66.1297 44.0842 66.2145 44.6122 66.8603 45.1556C67.3745 45.5882 67.549 45.6281 68.7211 45.5802L70.0144 45.5273L70.0701 44.9539ZM69.1325 41.7611C68.5475 41.4531 67.4099 41.0694 66.6043 40.9084C65.0565 40.599 64.6791 40.2931 65.4729 39.9913C66.4504 39.6197 66.9093 39.7216 69.3401 40.8501C69.6682 41.0024 69.9861 41.0775 70.0466 41.017C70.2314 40.8323 69.3297 40.1897 68.5961 39.9833C68.0935 39.8419 67.9214 39.7043 67.9678 39.4809C68.0531 39.07 68.6856 39.1256 69.8545 39.6469C70.838 40.0855 71.7391 41.1919 71.7391 41.9608C71.7391 42.5636 70.4724 42.4666 69.1325 41.7611ZM72.1475 41.869C72.0227 41.8175 71.9203 41.5984 71.9199 41.382C71.9184 40.4174 71.026 39.5429 69.1521 38.6696C68.6778 38.4485 68.2898 38.1651 68.2898 38.0397C68.2898 37.7378 69.009 37.75 69.7573 38.0646C70.2724 38.2812 70.4147 38.2808 70.7485 38.0621C71.0861 37.8409 71.2299 37.845 71.8233 38.093C72.2 38.2504 72.7373 38.3552 73.0173 38.3258C73.6215 38.2624 75.4717 39.5059 75.6288 40.081C75.787 40.6597 75.7488 41.2298 75.5435 41.3567C75.2334 41.5484 74.8253 41.0728 74.8253 40.5197C74.8253 40.2234 74.6565 39.8471 74.428 39.6342C73.8087 39.0573 73.7487 39.1915 74.2146 40.1118C74.7019 41.0744 74.7492 41.4921 74.4034 41.7791C74.1164 42.0174 73.736 41.7195 73.736 41.2564C73.736 40.911 72.8846 40.055 72.7124 40.2272C72.6479 40.2917 72.6943 40.4641 72.8156 40.6103C73.3268 41.2262 72.835 42.1528 72.1475 41.869ZM75.7663 60.9595C75.5621 60.6999 75.3408 60.2405 75.2744 59.9385C75.0115 58.7414 75.7491 59.1746 76.0985 60.4225C76.3757 61.4124 76.2642 61.5925 75.7663 60.9595ZM62.0211 60.2056C62.2277 58.8275 62.8441 58.1326 62.8428 59.2792C62.8422 59.8277 62.2665 61.0492 62.0086 61.0492C61.9459 61.0492 61.9515 60.6696 62.0211 60.2056ZM56.1385 56.3065C56.252 56.0944 56.9601 55.3387 57.712 54.6273C58.4639 53.9158 59.4801 52.9327 59.9704 52.4426C60.6041 51.8091 60.9179 51.6078 61.0562 51.746C61.1944 51.8843 61.1308 52.0369 60.8361 52.274C60.6081 52.4574 60.2687 52.7709 60.0818 52.9706C59.895 53.1703 59.0397 54.0893 58.1811 55.0129C57.2721 55.9908 56.4764 56.6922 56.2761 56.6922C55.9817 56.6922 55.9618 56.6367 56.1385 56.3065ZM85.3547 37.2815C85.3547 37.1737 85.4673 37.0855 85.6048 37.0855C85.7424 37.0855 85.96 36.9589 86.0884 36.8042C86.3197 36.5255 87.4067 35.9799 88.2355 35.7265C88.9985 35.4933 88.5755 36.0439 87.5181 36.6604C86.4394 37.2895 85.3547 37.6008 85.3547 37.2815ZM73.0163 32.1518C73.026 31.2541 73.9269 27.968 74.3398 27.3246C74.7021 26.7601 74.9981 27.6711 74.666 28.3285C74.3481 28.9579 74.0988 29.9559 74.0853 30.6536C74.0668 31.6102 73.6827 32.6242 73.3115 32.6964C73.0781 32.7418 73.0113 32.6185 73.0163 32.1518ZM69.0203 31.423C69.0248 30.6046 69.2689 29.3287 69.4569 29.1407C69.5173 29.0804 69.6581 29.1225 69.7698 29.2343C69.9197 29.3842 69.8951 29.6756 69.676 30.3455C69.5127 30.845 69.379 31.4172 69.379 31.6172C69.379 31.8172 69.2973 32.0314 69.1975 32.0931C69.087 32.1614 69.0176 31.8992 69.0203 31.423ZM66.3737 30.0546C66.4455 28.9834 66.5496 28.0334 66.6052 27.9436C66.8744 27.5079 67.0105 28.5281 66.9027 30.1739C66.8081 31.6168 66.726 32.0023 66.513 32.0023C66.283 32.0023 66.2625 31.7153 66.3737 30.0546ZM87.2321 65.9619C87.8926 65.7108 88.9235 64.6091 89.4261 63.6172C89.8244 62.8312 90.4379 60.8454 90.4379 60.3423C90.4379 59.857 90.1338 60.2102 89.9158 60.9487C89.2612 63.1658 88.0684 64.8676 86.721 65.507C86.369 65.6741 86.0809 65.8831 86.0809 65.9716C86.0809 66.1819 86.6663 66.177 87.2321 65.9619ZM105.267 61.1869C106.142 60.7587 107.579 59.3703 107.473 59.054C107.429 58.9223 107.22 59.0211 106.931 59.3103C106.33 59.9116 105.354 60.5729 104.221 61.1471C103.73 61.3962 103.327 61.646 103.327 61.7021C103.327 61.8789 104.476 61.5739 105.267 61.1869ZM102.465 60.8368C103.214 60.5446 103.068 60.3231 102.125 60.3231C101.435 60.3231 101.323 60.2788 101.492 60.0744C101.606 59.9377 102.086 59.6787 102.558 59.499C103.031 59.3193 103.656 59.0399 103.947 58.8783C104.481 58.5819 104.929 58.0501 104.773 57.8985C104.727 57.8534 103.872 58.2082 102.874 58.687C101.875 59.1658 100.302 59.7427 99.3789 59.969C97.3106 60.4757 97.1934 60.7064 98.8315 61.0464C99.7337 61.2338 101.745 61.1177 102.465 60.8368ZM99.152 60.5046C99.152 60.4048 99.3922 60.3231 99.6859 60.3231C99.9795 60.3231 100.27 60.4048 100.332 60.5046C100.399 60.6127 100.183 60.6862 99.7981 60.6862C99.4427 60.6862 99.152 60.6045 99.152 60.5046ZM69.1975 60.7893C69.4471 60.7583 69.8147 60.72 70.0144 60.704C70.8224 60.6397 69.8111 60.3723 68.8371 60.3929C68.0154 60.4102 67.8298 60.4737 67.7752 60.7562C67.7186 61.0488 67.7841 61.0801 68.2263 60.9721C68.5108 60.9025 68.9479 60.8203 69.1975 60.7893ZM35.5984 60.512C35.7774 60.4162 36.0556 60.1366 36.2168 59.8907L36.5097 59.4436L35.9248 59.6477C35.603 59.76 34.8363 59.8557 34.2208 59.8605C32.9848 59.8701 32.7228 59.9948 33.0669 60.4095C33.3298 60.7262 35.0666 60.7966 35.5984 60.512ZM39.0359 59.0977C39.0332 58.6234 39.1599 57.9902 39.3175 57.6907C39.475 57.3911 39.6043 57.0592 39.605 56.9531C39.6067 56.6554 40.5231 55.8652 41.3429 55.4546C41.7489 55.2513 42.1878 54.9563 42.3182 54.7993C42.4486 54.6422 42.7086 54.5137 42.8961 54.5137C43.0835 54.5137 43.2369 54.432 43.2369 54.3321C43.2369 54.0944 42.5982 54.1031 41.6973 54.3532C40.715 54.626 39.5055 55.4881 38.9713 56.2965C38.4547 57.0782 38.2083 58.7185 38.4959 59.4607C38.7918 60.2242 39.0412 60.0565 39.0359 59.0977ZM95.9536 59.1637C96.0522 58.7709 97.8251 57.4184 98.2415 57.4184C98.3428 57.4184 98.4258 57.2958 98.4258 57.1461C98.4258 56.9754 98.2535 56.8737 97.9642 56.8737C97.1374 56.8737 94.9434 59.2843 95.2778 59.8253C95.4172 60.0509 95.8331 59.6438 95.9536 59.1637ZM69.8167 59.3246C69.7229 58.9511 69.7686 58.8707 70.0748 58.8707C70.2794 58.8707 70.4973 58.789 70.559 58.6892C70.6208 58.5893 70.503 58.5076 70.2974 58.5076C69.7513 58.5076 69.8367 57.9871 70.4192 57.7656C70.9749 57.5543 71.1876 57.2963 71.1917 56.8284C71.1958 56.3545 70.7381 56.4448 70.5013 56.9645C70.2646 57.484 69.6972 57.591 69.7795 57.1007C69.8145 56.8922 69.6987 56.7639 69.4428 56.7274C68.9411 56.6559 68.4287 57.569 68.6993 58.0525C68.8224 58.2724 68.8093 58.4109 68.6567 58.5052C68.5137 58.5936 68.6074 58.684 68.9244 58.7635C69.267 58.8495 69.3799 58.9696 69.3042 59.167C69.1686 59.5204 69.3211 59.7784 69.6655 59.7784C69.8576 59.7784 69.8992 59.6535 69.8167 59.3246ZM102.102 57.8549C102.277 57.801 102.42 57.64 102.42 57.4969C102.42 57.301 102.162 57.2375 101.376 57.2396C99.631 57.2443 99.3038 57.8453 101.006 57.919C101.434 57.9376 101.927 57.9087 102.102 57.8549ZM26.9166 56.679C28.2495 55.7299 29.5855 55.3735 32.2536 55.2552C33.6515 55.1932 34.8973 55.0779 35.0221 54.9989C35.1469 54.9199 35.2491 54.7035 35.2491 54.518C35.2491 54.281 35.5055 54.0865 36.1114 53.8642C36.9667 53.5504 37.4903 53.1282 37.3353 52.8774C37.2283 52.7042 36.3383 52.8795 36.3383 53.0738C36.3383 53.2409 34.2435 54.5137 33.9685 54.5137C33.874 54.5137 33.7991 54.4524 33.802 54.3775C33.8081 54.2175 37.3574 51.8951 37.8664 51.7181C38.0938 51.639 38.1527 51.5354 38.0365 51.4191C37.7232 51.1059 36.4249 51.6895 35.1583 52.7127C34.6499 53.1234 33.266 53.636 33.0409 53.4969C32.8714 53.3921 34.298 52.3443 35.6514 51.5795C36.4569 51.1243 36.4961 51.0077 35.7937 51.1567C35.4442 51.2309 35.1174 51.3472 35.0675 51.4152C34.7693 51.8215 32.8839 52.1973 32.7692 51.8734C32.6638 51.5755 34.2743 50.8828 35.0724 50.8828C35.5794 50.8828 35.7937 50.8051 35.7937 50.6212C35.7937 50.1662 35.5445 50.1701 33.9444 50.6499C32.4884 51.0864 31.7997 51.1141 31.7997 50.736C31.7997 50.649 32.1469 50.4746 32.5713 50.3483C33.8975 49.9538 34.2266 49.7877 34.0439 49.6051C33.9368 49.498 33.6384 49.5012 33.246 49.6138C32.9012 49.7127 32.3404 49.7936 31.9997 49.7936C31.4075 49.7936 31.3938 49.7788 31.6859 49.456C31.9741 49.1376 31.9681 49.1029 31.5804 48.8455C31.21 48.5996 31.196 48.5404 31.4387 48.248C31.6952 47.939 31.6341 47.9299 30.1657 48.0579C27.6357 48.2786 27.0054 48.7408 27.4397 50.0568C27.726 50.9242 28.6928 51.4689 30.0461 51.5252C30.6293 51.5494 31.1883 51.6511 31.2884 51.7512C31.5529 52.0157 31.1393 52.6982 30.7145 52.6982C30.524 52.6982 29.7869 52.9137 29.0764 53.1771C27.047 53.9293 25.6162 55.6366 26.0555 56.7816C26.1927 57.1392 26.286 57.128 26.9166 56.679ZM111.815 52.6529C112.132 52.0558 112.224 51.5817 112.224 50.5569C112.223 49.4045 112.167 49.1763 111.791 48.8005C111.313 48.3225 109.511 47.3726 108.72 47.1818C106.654 46.6834 103.327 46.6693 103.327 47.1589C103.327 47.3189 104.008 47.4114 105.733 47.4859C108.301 47.5969 109.896 48.0037 110.725 48.7586C111.53 49.4914 111.138 49.8595 110.135 49.3128C108.511 48.4273 108.23 48.3414 107.012 48.359L105.778 48.3768L106.868 48.6088C107.467 48.7365 108.342 48.9804 108.814 49.1509C110.038 49.5939 111.24 51.0644 110.378 51.0644C110.273 51.0644 109.89 50.8357 109.526 50.5562C108.33 49.6373 107.505 49.3844 105.938 49.4562C104.612 49.517 104.506 49.4944 104.313 49.108C104.135 48.7526 104.075 48.7321 103.884 48.9618C103.528 49.391 103.717 50.0568 104.215 50.1272C104.453 50.1609 104.711 50.0868 104.788 49.9626C104.968 49.6713 106.84 50.0124 108.093 50.5648C108.955 50.9449 109.115 51.1259 108.774 51.3367C108.674 51.3984 108.592 51.5146 108.592 51.595C108.592 51.8125 109.513 52.7033 110.135 53.087C110.993 53.6162 111.355 53.5226 111.815 52.6529ZM98.7435 52.653C99.1066 52.3637 99.0146 52.1132 98.2896 51.4166C97.9152 51.0569 97.3354 50.418 97.0011 49.9968C96.6668 49.5756 96.095 49.0452 95.7303 48.8181C94.948 48.3308 93.4543 47.8876 93.1754 48.06C92.8453 48.264 92.9573 48.826 93.388 49.1264C93.7958 49.4109 93.7955 49.4114 93.2065 49.4209C92.5285 49.4318 92.5127 49.4664 92.9096 50.0722C93.2333 50.5661 93.1618 50.5987 92.2975 50.3508C91.5775 50.1443 91.5515 50.3071 92.208 50.9108C93.5503 52.1453 94.6012 52.6513 96.4288 52.9431C97.0671 53.045 98.4727 52.8689 98.7435 52.653ZM45.4335 51.5566C45.7725 51.3282 46.0547 51.0218 46.0607 50.8758C46.0822 50.3504 46.3624 49.9965 46.9277 49.7808C47.3584 49.6165 47.4232 49.5414 47.1855 49.4825C47.0107 49.4392 46.8678 49.2511 46.8678 49.0644C46.8678 48.795 46.7088 48.7136 46.0962 48.6693C45.588 48.6325 45.3407 48.5343 45.3717 48.3815C45.444 48.0252 44.9528 47.9228 44.2633 48.1504C43.6427 48.3552 41.7808 50.1887 41.7886 50.5872C41.7942 50.87 42.3451 51.5204 42.7831 51.7613C43.4262 52.115 44.7575 52.0121 45.4335 51.5566ZM40.8417 50.2057C40.8873 49.898 40.7302 49.7739 39.9797 49.5247C39.1612 49.2528 38.4731 48.6367 37.6608 47.4485C37.6324 47.4069 37.5552 47.4269 37.4892 47.4928C37.3399 47.6421 38.0757 49.0967 38.5675 49.6246C38.9685 50.0549 40.3166 50.7252 40.6046 50.6374C40.7044 50.6069 40.8111 50.4127 40.8417 50.2057ZM41.7846 48.2504C41.7846 48.1007 41.7089 47.9781 41.6164 47.9781C41.5238 47.9781 41.1927 47.5316 40.8805 46.9859C40.4255 46.1908 40.3508 45.9227 40.504 45.6363C40.8509 44.9881 40.7379 44.2434 40.2596 44.0255C40.0199 43.9163 39.7748 43.8759 39.715 43.9358C39.2858 44.3649 40.2161 47.4544 40.9731 48.1143C41.518 48.5892 41.7846 48.6339 41.7846 48.2504ZM35.7408 46.7527C35.9001 46.3207 36.1577 46.1688 36.7361 46.1655C37.2763 46.1624 37.324 46.1137 37.4978 45.3868L37.6182 44.8832L36.9329 45.1836C36.1183 45.5407 35.7244 45.5916 35.6439 45.3503C35.6115 45.2529 36.1608 44.9813 36.8647 44.7467L38.1445 44.3201L37.7483 43.7841C37.5234 43.48 37.2441 43.2895 37.1026 43.3438C36.9655 43.3965 36.7913 43.4395 36.7157 43.4395C36.64 43.4395 36.4851 43.6438 36.3713 43.8934C36.1951 44.2801 36.0431 44.3473 35.3437 44.3473C34.5363 44.3473 34.3629 44.2251 34.6868 43.8843C34.777 43.7895 34.8798 43.5485 34.9153 43.3488C34.9681 43.0518 35.161 42.9692 35.9752 42.8949C36.7348 42.8256 36.9848 42.7289 37.0308 42.4864C37.0829 42.2119 36.94 42.1687 35.9778 42.1687C35.2819 42.1687 34.9066 42.1007 34.9767 41.9872C35.0385 41.8873 35.6164 41.8056 36.2611 41.8056C37.427 41.8056 38.8799 41.479 38.8799 41.2168C38.8799 41.1413 37.7362 41.0795 36.3383 41.0795C34.8454 41.0795 33.7967 41.008 33.7967 40.9062C33.7967 40.6859 34.8417 40.486 35.6376 40.554C37.0752 40.6767 38.9182 40.021 38.0605 39.6918C37.8869 39.6252 37.4897 39.6583 37.1778 39.7652C36.8658 39.8722 35.8116 39.9666 34.8349 39.9751C33.392 39.9875 33.0391 39.9379 32.9517 39.7102C32.8029 39.3224 32.9811 39.196 33.3699 39.4136C33.5821 39.5323 33.8113 39.5349 34.024 39.4211C34.4746 39.1799 34.2495 38.901 33.6045 38.901C33.158 38.901 33.0705 38.8276 33.0705 38.4535C33.0705 37.8993 32.4474 37.5002 32.0704 37.8131C31.9325 37.9275 31.6861 38.4234 31.5228 38.9149C31.2751 39.6605 31.1525 39.8087 30.7826 39.8087C30.0869 39.8087 28.879 38.5533 28.1755 37.0992C27.8322 36.3895 27.4656 35.837 27.3608 35.8714C27.0141 35.9853 27.0509 36.6961 27.4492 37.5776C28.0177 38.8354 28.1608 39.3492 28.4395 41.1321C28.6176 42.272 28.8638 43.0466 29.301 43.8434C29.9306 44.9907 30.1024 45.1081 31.4929 45.3411C31.9203 45.4128 32.4637 45.7093 32.9155 46.1174C33.5756 46.7138 34.1384 46.9253 35.3909 47.0477C35.5189 47.0602 35.6763 46.9274 35.7408 46.7527ZM108.408 45.1419C108.657 44.8825 108.623 44.8674 108.048 44.9827C107.698 45.0526 107.29 45.2346 107.14 45.3871C106.896 45.635 106.934 45.6518 107.5 45.5464C107.849 45.4815 108.257 45.2995 108.408 45.1419ZM104.598 44.8145C105.746 44.6762 106.849 44.5057 107.049 44.4355C108.105 44.0644 109.103 43.52 109.579 43.0547C109.873 42.7671 110.22 42.5318 110.351 42.5318C110.834 42.5318 110.567 43.252 109.818 43.9686C109.393 44.3744 109.138 44.7073 109.251 44.7084C109.755 44.7132 110.81 44.1117 111.094 43.6577C111.266 43.3835 111.757 42.6991 112.186 42.1369C113.021 41.0434 113.348 39.9642 112.924 39.7021C112.788 39.6181 111.533 39.53 110.135 39.5063C108.737 39.4827 107.022 39.4468 106.323 39.4265C105.299 39.3969 104.745 39.4993 103.468 39.9549C101.627 40.6123 100.867 41.0518 101.126 41.3106C101.241 41.4257 101.508 41.4162 101.888 41.2836C102.586 41.0402 103.691 41.0137 103.691 41.2403C103.691 41.4241 102.746 41.9006 102.025 42.0803C101.757 42.1469 101.398 42.3574 101.225 42.5481C100.924 42.8804 100.929 42.8948 101.348 42.8921C101.855 42.8888 103.247 42.551 105.052 41.9936C106.921 41.4165 107.14 41.3758 107.14 41.6056C107.14 41.9564 106.055 42.4923 104.708 42.807C102.778 43.2579 101.694 43.6282 101.694 43.8363C101.694 44.2106 105.692 43.4391 107.156 42.7824C108.278 42.2788 109.014 42.2957 108.583 42.8153C108.18 43.3002 106.806 43.8142 104.983 44.1616C103.333 44.476 101.63 45.0302 102.238 45.0548C102.388 45.0609 103.45 44.9527 104.598 44.8145ZM104.187 41.1526C103.972 40.9374 104.239 40.7164 104.715 40.7164C105 40.7164 105.145 40.802 105.098 40.9433C105.015 41.1975 104.378 41.3436 104.187 41.1526ZM39.1779 38.6273C39.3515 38.1747 39.0711 37.0855 38.7809 37.0855C38.5904 37.0855 38.5168 37.3049 38.5168 37.8722C38.5168 38.3049 38.5713 38.7134 38.6378 38.7799C38.8391 38.9811 39.0668 38.9168 39.1779 38.6273ZM100.366 37.537C100.727 37.3859 100.975 37.2144 100.917 37.1558C100.781 37.0206 99.5547 37.4192 99.4161 37.6434C99.2642 37.8892 99.6175 37.8496 100.366 37.537ZM102.494 36.087C102.858 35.085 103.23 34.682 104.19 34.2507C104.714 34.0151 105.143 33.7367 105.143 33.632C105.143 32.7149 97.8378 31.8555 96.9409 32.6672C96.6293 32.9492 96.6272 32.9908 96.9094 33.3026C97.0983 33.5114 97.4615 33.6362 97.8802 33.6362C98.4242 33.6362 98.5892 33.7242 98.764 34.1079C98.9237 34.4584 99.0594 34.5445 99.2923 34.4433C99.9889 34.1406 100.78 34.1353 100.894 34.4326C100.982 34.6616 101.16 34.6989 101.731 34.6076C102.376 34.5046 102.449 34.53 102.393 34.8355C102.357 35.0246 102.063 35.2962 101.739 35.439C101.084 35.7273 100.985 36.1028 101.467 36.4723C101.932 36.8297 102.271 36.7028 102.494 36.087ZM43.0167 35.9712C42.9789 35.8575 42.5984 35.6279 42.1713 35.4609C40.9286 34.975 41.385 34.6402 42.8284 34.9789C43.7293 35.1903 43.5874 34.6912 42.6201 34.2462C41.9225 33.9252 41.7631 33.9096 41.3567 34.1225C40.9411 34.3403 40.8716 34.3287 40.7027 34.0131C40.5988 33.8189 40.5138 33.6093 40.5138 33.5473C40.5138 33.4146 43.0249 33.5506 44.0085 33.7365C44.5513 33.8392 44.6893 33.8097 44.6893 33.5912C44.6893 33.2148 43.7829 32.8724 42.448 32.7446C41.6234 32.6657 41.3307 32.5664 41.3307 32.3654C41.3307 32.0658 41.6985 32.0541 43.851 32.2849C44.8811 32.3954 45.0859 32.3744 45.0174 32.1653C44.9104 31.8384 43.8815 31.481 43.01 31.4679C42.6356 31.4623 42.3292 31.3828 42.3292 31.2913C42.3292 31.0187 42.7387 30.9628 43.4943 31.1322C44.2899 31.3106 44.6893 31.2226 44.6893 30.8688C44.6893 30.5075 42.2047 29.9861 41.4175 30.1822C41.0702 30.2687 40.2959 30.4627 39.6968 30.6133C39.0978 30.7639 38.0146 31.0244 37.2898 31.1923C36.565 31.3602 35.9248 31.5739 35.8672 31.6672C35.6716 31.9836 36.2862 32.6396 37.6716 33.5932C38.4313 34.1161 39.1024 34.5439 39.1628 34.5439C39.2232 34.5439 39.6132 34.8225 40.0294 35.163C40.4456 35.5035 41.072 35.8638 41.4215 35.9636C42.313 36.2182 43.1003 36.2219 43.0167 35.9712ZM100.841 29.0357C101.421 28.8856 101.993 28.681 102.114 28.581C102.576 28.197 104.528 28.1337 105.858 28.4596C107.433 28.8456 108.048 28.7368 108.048 28.0717C108.048 27.321 106.982 26.4142 105.003 25.4794C104.101 25.0535 103.891 24.6761 104.304 24.2203C104.942 23.5148 104.53 23.2947 102.563 23.2907C101.802 23.2892 101.017 23.4151 100.475 23.6257C99.5063 24.0018 97.6956 24.2363 97.3603 24.0291C97.0186 23.8179 97.3271 23.295 97.8558 23.1894C98.1194 23.1367 98.7027 22.9736 99.152 22.8269C99.6013 22.6803 100.201 22.5607 100.485 22.5612C100.769 22.5617 101.209 22.3987 101.462 22.199C101.716 21.9993 102.044 21.8359 102.19 21.8359C102.468 21.8359 104.961 19.525 104.961 19.2665C104.961 19.0788 106.475 17.0784 106.857 16.7615C107.013 16.6323 107.14 16.4474 107.14 16.3506C107.14 16.2538 107.303 15.9668 107.503 15.7129C107.922 15.1797 107.995 14.2111 107.616 14.2111C107.479 14.2111 106.895 14.4196 106.319 14.6744C104.92 15.2929 104.414 15.2214 104.16 14.3695L103.963 13.7109L102.51 14.5336C99.9215 16.0002 99.8373 16.0371 99.5746 15.8191C99.442 15.709 99.3335 15.4656 99.3335 15.2781C99.3335 14.7455 98.8271 14.8721 97.9064 15.635C97.4432 16.0187 96.6727 16.5701 96.1941 16.8604C95.7155 17.1506 95.0211 17.5705 94.651 17.7936C94.2808 18.0166 93.8438 18.2004 93.6797 18.202C93.2387 18.2064 93.1267 17.7089 93.4347 17.1133C93.5871 16.8186 93.7057 16.1102 93.7057 15.4951C93.7057 14.4996 93.6607 14.3723 93.2065 14.0833C92.4935 13.6296 92.4408 13.5115 92.4377 12.361C92.4363 11.7927 92.35 11.2753 92.2463 11.2112C92.1426 11.1471 91.6936 11.2444 91.2485 11.4275C90.5268 11.7242 90.4392 11.8236 90.4386 12.3461C90.4378 12.9168 89.597 14.7068 89.0288 15.3468C88.5797 15.8527 88.8771 15.8931 89.3493 15.3904C89.7747 14.9376 90.2564 14.7869 90.2564 15.1066C90.2564 15.1997 90.0583 15.6667 89.8161 16.1444C89.3108 17.1414 89.3734 17.4418 90.0009 17.0307C90.4127 16.7608 90.4379 16.7654 90.4379 17.1096C90.4379 17.3105 90.2746 17.9047 90.0749 18.43C89.6696 19.4965 89.6255 19.8389 89.8933 19.8389C89.9932 19.8389 90.0749 19.6801 90.0749 19.4861C90.0749 19.1193 90.7556 18.5186 91 18.6697C91.0769 18.7172 91.0136 19.1267 90.8593 19.5797C90.7049 20.0326 90.6216 20.4462 90.6741 20.4986C90.7266 20.5511 90.9932 20.4475 91.2666 20.2684L91.7637 19.9426L91.6301 20.6623C91.5566 21.0582 91.3696 21.5235 91.2145 21.6963C90.9829 21.9544 90.9741 22.0608 91.1651 22.2909C91.3737 22.5422 91.4348 22.5379 91.7564 22.2489C92.1017 21.9386 92.1252 21.9419 92.3884 22.3359L92.6618 22.7452L93.3199 22.3524C93.6819 22.1364 94.1867 21.7684 94.4418 21.5347C94.6969 21.3009 94.9828 21.1087 95.0772 21.1074C95.1716 21.1061 95.8207 20.6589 96.5196 20.1135C97.2185 19.5681 98.0145 18.9506 98.2885 18.7414C99.3132 17.9586 101.201 17.0965 101.77 17.1519C102.231 17.1969 102.329 17.2863 102.329 17.6604C102.329 18.0521 102.229 18.128 101.603 18.215C101.203 18.2704 100.693 18.4162 100.468 18.539C100.243 18.6619 100.06 18.7111 100.06 18.6484C100.06 18.5856 99.6716 18.8518 99.1973 19.2398C98.7231 19.6278 97.5181 20.549 96.5196 21.287C94.2666 22.9521 93.7057 23.4584 93.7057 23.827C93.7057 24.2493 94.7397 24.641 95.8671 24.6457C96.4866 24.6483 96.8771 24.7335 96.9261 24.8767C96.9767 25.0247 96.8166 25.1037 96.4662 25.1037C95.9311 25.1037 95.3586 25.5462 95.5919 25.7795C95.6592 25.8469 96.0805 25.8041 96.528 25.6844C96.9756 25.5647 97.6061 25.4723 97.9292 25.479C98.4838 25.4906 98.4938 25.5023 98.1081 25.6883C97.8834 25.7967 97.6996 25.9982 97.6996 26.1363C97.6996 26.3281 97.7823 26.343 98.0508 26.1993C98.4797 25.9698 99.6379 25.9512 99.7742 26.1716C99.8805 26.3436 98.2736 27.1006 97.8021 27.1006C97.6459 27.1006 97.5181 27.1736 97.5181 27.2628C97.5181 27.6462 98.1009 27.5836 99.1495 27.0877C100.239 26.5727 101.512 26.3781 101.512 26.7268C101.512 26.9833 101.162 27.1627 100.074 27.4637C99.5328 27.6135 99.052 27.8508 99.0057 27.991C98.8831 28.3622 100.405 28.1245 101.181 27.6512C101.732 27.3153 102.964 27.1342 102.964 27.3892C102.964 27.6442 102.108 28.1783 101.691 28.1839C101.44 28.1872 100.94 28.3475 100.581 28.5401C100.221 28.7328 99.6304 28.9461 99.2674 29.0142C98.9044 29.0823 98.6073 29.2196 98.6073 29.3192C98.6073 29.5246 99.2873 29.4383 100.841 29.0357ZM98.6824 22.3551C98.6211 22.2559 98.5996 22.151 98.6346 22.122C99.2066 21.6464 100.353 20.9282 100.541 20.9282C100.947 20.9282 100.817 21.6258 100.354 21.9288C99.727 22.3398 98.8164 22.572 98.6824 22.3551ZM98.1816 21.3899C98.022 20.9739 99.6132 19.5491 100.921 18.9371C102.311 18.2864 102.42 18.273 102.42 18.7526C102.42 18.9986 102.197 19.2218 101.739 19.4332C101.365 19.6062 100.527 20.1197 99.8781 20.5744C98.2772 21.6958 98.2956 21.6869 98.1816 21.3899ZM81.3168 27.9797C81.476 27.8206 81.5916 27.8232 81.7934 27.9907C82.0123 28.1724 82.1352 28.1094 82.4819 27.6379C82.714 27.3222 83.2061 26.9425 83.5753 26.794C84.7859 26.3073 85.7099 24.7019 85.7151 23.0761C85.7183 22.0766 85.5846 21.6543 85.2649 21.6543C84.6546 21.6543 82.598 22.8245 82.0974 23.4567C81.4534 24.2697 80.4277 27.1006 80.777 27.1006C81.2909 27.1006 82.0571 26.606 82.2226 26.1673C82.4565 25.5477 82.8132 25.482 82.8132 26.0586C82.8132 26.4832 82.0362 27.4637 81.6998 27.4637C81.5948 27.4637 81.3011 27.6271 81.0473 27.8268C80.7651 28.0488 80.6869 28.1899 80.8462 28.1899C80.9894 28.1899 81.2012 28.0953 81.3168 27.9797ZM41.6438 26.666C41.7682 26.4762 41.6061 26.3685 40.82 26.1186C40.2591 25.9403 40.6768 25.6483 41.4927 25.6483C41.9195 25.6483 42.7221 25.7394 43.2763 25.8507C43.977 25.9914 44.3864 25.9957 44.6202 25.8649C44.9219 25.696 44.9007 25.6638 44.4144 25.5518C44.1162 25.4831 43.5126 25.31 43.073 25.1672C42.6333 25.0244 41.9163 24.8586 41.4795 24.7987C40.5277 24.6682 40.3358 24.4508 40.9326 24.1789C41.2784 24.0213 41.6671 24.0597 42.7603 24.3596C44.4087 24.8119 45.6402 24.8537 45.9601 24.4682C46.1545 24.234 46.0853 24.1959 45.4643 24.1959C45.0673 24.1959 44.1795 23.9917 43.4913 23.7421C42.6247 23.4277 41.8663 23.2882 41.0245 23.2882C39.6704 23.2882 39.31 23.0639 40.178 22.7613C41.0527 22.4564 42.3209 22.5228 43.4935 22.9349C44.5935 23.3216 45.4296 23.3458 45.5448 22.9943C45.5871 22.8651 45.439 22.8241 45.1379 22.8817C44.781 22.9499 44.5219 22.8342 44.0861 22.4117C43.4479 21.7931 42.1581 21.3993 40.1237 21.2019C39.0877 21.1013 38.7203 21.1544 37.5314 21.5765C35.8505 22.1732 34.5885 23.1816 34.7774 23.7769C34.9335 24.2685 35.2021 24.3658 36.9567 24.5668C37.7461 24.6572 38.6671 24.8219 39.0033 24.9329C39.6101 25.1332 39.6136 25.1408 39.4982 26.0114C39.3894 26.8313 39.4098 26.8935 39.8117 26.9691C40.4152 27.0827 41.4869 26.9054 41.6438 26.666ZM59.021 26.2716C58.8432 26.0573 58.8636 25.9336 59.1246 25.6453C59.4352 25.3021 59.4355 25.2546 59.1323 24.5822C58.5433 23.2759 56.2122 21.9835 55.1906 22.3968C54.5276 22.665 54.4854 23.0102 54.938 24.4615C55.4276 26.0314 55.8982 26.4443 56.9974 26.2685C57.4636 26.194 57.7603 26.0496 57.7603 25.8974C57.7603 25.4742 58.0099 25.6261 58.5772 26.3945C58.969 26.925 59.1388 27.0487 59.1822 26.8353C59.2154 26.6721 59.1429 26.4184 59.021 26.2716ZM47.2309 23.1806C47.2309 22.7956 46.3689 21.0106 46.0586 20.7531C45.9046 20.6252 45.7785 20.3634 45.7785 20.1713C45.7785 19.9728 45.5432 19.6885 45.2334 19.5128C44.9336 19.3427 44.644 19.081 44.5898 18.9312C44.5357 18.7814 44.0838 18.3321 43.5856 17.9327C41.8448 16.537 39.9212 13.8051 39.5013 12.1321C39.2936 11.3046 39.7469 11.633 40.3348 12.7359C40.6474 13.3225 41.147 14.0782 41.445 14.4152L41.9867 15.028L41.8713 14.3018C41.8078 13.9024 41.6042 13.23 41.4189 12.8076C41.2255 12.3667 41.1542 11.9947 41.2517 11.9345C41.5422 11.755 41.7261 11.9904 42.1413 13.0733C43.1066 15.5913 43.4783 16.4028 43.8817 16.8722C44.6821 17.8038 44.6136 17.3727 43.3144 13.3033C43.171 12.854 43.054 12.3434 43.0545 12.1687C43.0559 11.6704 43.5358 11.797 43.7425 12.3502C44.108 13.3285 44.1876 13.5921 44.5208 14.9293C44.7063 15.6738 45.0557 16.6541 45.2972 17.1078C46.2347 18.8693 46.6006 19.4729 46.7316 19.4743C47.0249 19.4775 46.8439 18.7048 46.3802 17.9745C46.1121 17.5521 45.8355 16.8797 45.7655 16.4804C45.424 14.5307 44.9995 12.7644 44.6798 11.9629C44.2726 10.9421 44.2313 10.5183 44.5495 10.6244C44.7714 10.6983 45.758 13.3134 45.7715 13.8634C45.805 15.232 47.9368 19.8389 48.5365 19.8389C48.7247 19.8389 48.6593 18.6824 48.3952 17.3427C48.2687 16.7007 48.4785 16.5739 48.9265 17.0219C49.1597 17.2551 49.7487 18.9533 50.0048 20.1308C50.1827 20.9485 49.3732 21.4501 48.8647 20.8374C48.6155 20.5371 48.1767 20.4889 47.81 20.7214C47.4728 20.9353 48.2751 21.4323 49.195 21.5794C49.7866 21.674 49.9845 21.6238 50.312 21.2963C50.6582 20.9501 50.6944 20.7759 50.5899 19.9601C50.4748 19.0621 50.2497 18.1682 49.942 17.3881C48.6411 14.0891 48.4078 13.0421 48.9989 13.156C49.2243 13.1994 49.3507 13.4682 49.4403 14.0951C49.5094 14.5781 49.7679 15.3941 50.0148 15.9084C51.0828 18.1336 51.2249 18.4764 51.3358 19.0953C51.5386 20.2261 51.7952 20.3819 51.6637 19.2943C51.5398 18.2696 50.3309 14.3894 49.8395 13.439C49.5652 12.9086 49.625 12.2831 49.9319 12.4727C50.0831 12.5662 51.2671 15.4351 51.7966 16.9911C51.9262 17.3718 52.1498 17.7803 52.2936 17.8988C52.5189 18.0844 52.5385 17.9176 52.4357 16.6935C52.3352 15.497 52.171 14.97 51.3961 13.3553C50.8471 12.2114 50.5422 11.3717 50.6402 11.2737C50.843 11.0709 51.0829 11.3656 51.4057 12.2141C51.5387 12.5636 51.9343 13.2576 52.2848 13.7564C52.7721 14.4498 52.9467 14.9103 53.0265 15.7129C53.1793 17.2481 53.4871 17.0905 53.5333 15.4535C53.5634 14.386 53.512 14.0404 53.3117 13.9635C53.1682 13.9085 52.8061 13.3236 52.5069 12.6638C52.2078 12.0041 51.6354 11.0407 51.235 10.523C49.4804 8.25428 49.1357 8.00981 48.948 8.90092C48.7578 9.80395 48.7176 9.93524 48.322 10.9433C48.0088 11.7415 47.9291 12.3331 47.9246 13.8934C47.9195 15.6387 47.8848 15.8449 47.5969 15.8449C47.2065 15.8449 46.9698 15.2826 46.6171 13.5178C46.1958 11.4095 44.6582 8.53813 44.1265 8.86676C44.0285 8.9273 43.7474 9.29519 43.5018 9.6843C42.8205 10.7636 42.4966 10.7802 38.8998 9.92014C37.5617 9.60019 37.3993 9.70031 37.5602 10.7462C37.6757 11.4973 37.9909 12.1737 38.7261 13.2484C39.0128 13.6675 39.2967 14.3704 39.3569 14.8103C39.4504 15.4923 39.405 15.6675 39.0482 15.9998C38.7721 16.2571 38.3947 16.3896 37.938 16.3896C37.5501 16.3896 37.246 16.4785 37.246 16.592C37.246 16.8123 38.233 17.7754 39.243 18.5406C39.5925 18.8053 39.9862 19.124 40.118 19.2486C40.4788 19.5899 41.2394 19.7305 41.4711 19.4988C41.7768 19.1931 42.2398 19.2496 43.0045 19.6858C44.2983 20.424 44.599 20.5628 44.9056 20.564C45.1136 20.5647 45.298 20.8435 45.4767 21.4274C45.6391 21.9577 45.748 22.1325 45.7596 21.8813C45.77 21.6566 45.8573 21.4728 45.9537 21.4728C46.2246 21.4728 46.4983 22.1015 46.6228 23.0102C46.7147 23.6804 46.7826 23.7973 46.9834 23.6307C47.1195 23.5177 47.2309 23.3152 47.2309 23.1806ZM76.3052 18.9766C76.7556 18.4373 77.0046 17.6806 77.2043 16.2449C77.313 15.4635 77.5866 14.5079 77.8354 14.0405C78.0769 13.5867 78.2746 13.1384 78.2746 13.0442C78.2746 12.95 78.4522 12.6838 78.6693 12.4527C79.0707 12.0254 79.5454 11.8915 79.5454 12.2055C79.5454 12.5734 79.0952 13.4082 78.7389 13.7012C78.466 13.9255 78.308 14.39 78.1525 15.4258C78.0354 16.2055 77.8577 17.2111 77.7577 17.6604C77.6525 18.1327 77.6434 18.5468 77.736 18.6421C77.9631 18.8758 78.4561 18.4204 78.4561 17.9769C78.4561 17.5874 78.7621 16.3545 79.0078 15.7542C79.0895 15.5545 79.291 14.9632 79.4555 14.4401C79.6201 13.9171 79.8278 13.444 79.9172 13.3887C80.0066 13.3335 80.2408 12.9241 80.4377 12.4789C80.7625 11.7447 80.8746 11.6428 81.3154 11.6814C81.5434 11.7013 81.3645 12.2027 80.8045 13.1128C80.5114 13.5891 80.2716 14.1574 80.2716 14.3756C80.2716 14.5938 80.0696 15.1516 79.8229 15.6152C79.5657 16.0982 79.4149 16.6204 79.4695 16.8382C79.522 17.0472 79.4385 17.4607 79.284 17.757C79.1294 18.0533 79.0025 18.4971 79.0019 18.7432C78.9996 19.651 79.5272 18.6937 79.9502 17.0226C80.1773 16.1253 80.5672 15.0643 80.8166 14.6649C81.2552 13.9625 81.8892 12.2263 81.9105 11.6695C81.9162 11.5197 82.2856 10.8253 82.7315 10.1263C83.9507 8.21489 83.9734 8.10427 83.1013 8.32314C82.7421 8.41331 82.6469 8.52684 82.7248 8.77227C82.9638 9.52534 81.0873 11.2444 80.4537 10.8529C80.1992 10.6956 80.5704 10.0356 80.9133 10.0356C81.0596 10.0356 81.1793 9.95387 81.1793 9.85402C81.1793 9.51504 80.9088 9.67342 79.8596 10.6269C79.2835 11.1504 78.5572 11.7782 78.2455 12.0221C77.3206 12.7459 76.4056 14.9019 76.2806 16.6521C76.2232 17.4563 76.0765 18.2927 75.9546 18.5108C75.5376 19.257 75.7904 19.5929 76.3052 18.9766ZM72.2773 18.2169C72.5666 17.6764 72.5017 17.5711 72.1022 17.9327C71.7132 18.2847 71.6293 18.5681 71.9142 18.5681C72.0106 18.5681 72.174 18.4101 72.2773 18.2169ZM68.4713 17.1539C68.4713 16.6756 68.5938 15.8138 68.7436 15.2388C68.8934 14.6638 69.0179 14.0135 69.0204 13.7937C69.0229 13.5739 69.1862 12.9117 69.3835 12.3221C69.6352 11.5697 69.7421 10.7604 69.7421 9.60799C69.7421 7.95352 69.4998 7.61911 69.3285 9.03707C69.2035 10.071 68.6826 12.5539 68.4334 13.3033C68.3172 13.6528 68.206 14.4698 68.1863 15.1188C68.1666 15.7678 68.0895 16.6869 68.015 17.1611C67.9 17.8926 67.9244 18.0235 68.1754 18.0235C68.4077 18.0235 68.4713 17.8367 68.4713 17.1539ZM70.7726 15.4819C71.3373 13.8612 71.5471 11.5657 71.3417 9.25537C71.2369 8.0774 71.2031 7.06166 71.2666 6.99818C71.8024 6.46241 72.2901 10.6553 71.9625 12.9804C71.6227 15.3925 71.4205 16.3317 71.0921 17.0238C70.7642 17.7147 70.8632 18.0853 71.2592 17.6496C71.743 17.1173 72.658 14.7019 72.7655 13.6734C72.8919 12.4641 73.0519 12.1064 73.3766 12.3071C73.6716 12.4894 73.4769 15.0071 73.0976 15.9149C72.7801 16.6749 72.7715 16.7527 73.0053 16.7527C73.4084 16.7527 74.3292 14.1088 74.3331 12.9403C74.3376 11.5727 73.6398 9.23484 73.0055 8.49244C72.8349 8.29274 72.5486 7.72088 72.3692 7.22164C71.986 6.15501 71.101 5.13389 70.5597 5.13389C70.1062 5.13389 69.7421 5.45657 69.7421 5.85857C69.7421 6.01751 69.3811 6.50187 68.9398 6.93492C68.4915 7.3749 68.1793 7.831 68.2321 7.96868C68.2891 8.11704 68.1412 8.28562 67.8604 8.39235C67.604 8.48985 67.153 8.91988 66.8583 9.34797C66.5636 9.77607 66.1577 10.2935 65.9563 10.4978C65.6313 10.8275 65.6222 10.8894 65.8753 11.0491C66.1273 11.208 66.1343 11.4072 65.9356 12.7654C65.6418 14.774 65.7193 15.5051 66.2544 15.7703C66.4829 15.8835 66.7877 16.1304 66.9317 16.319C67.159 16.6166 67.2177 16.6259 67.3758 16.3896C67.476 16.2398 67.5593 15.8566 67.5608 15.538C67.5624 15.2193 67.6453 14.9082 67.7451 14.8465C67.845 14.7847 67.9268 14.4736 67.9269 14.155C67.9271 13.5851 68.2694 11.7333 68.638 10.3079C68.7412 9.90848 68.8277 9.23459 68.8301 8.81035C68.8337 8.15835 68.9474 7.92256 69.5647 7.28648C69.9663 6.8726 70.3544 6.59376 70.427 6.66685C70.6949 6.93648 70.5395 12.7979 70.226 14.2488C70.0597 15.0184 69.9287 16.203 69.9348 16.8812L69.9461 18.1142L70.217 17.2065C70.366 16.7073 70.616 15.9312 70.7726 15.4819ZM66.4743 14.3307C66.4743 13.3542 67.1333 10.1382 67.4312 9.6613C67.705 9.22278 67.9841 9.20027 67.8553 9.62709C67.6298 10.3746 67.2008 12.7104 67.2007 13.1915C67.2005 13.862 66.8265 15.1188 66.6271 15.1188C66.5431 15.1188 66.4743 14.7642 66.4743 14.3307ZM75.3898 16.8434C75.8093 15.1329 76.5236 13.2546 76.9452 12.7536C77.3977 12.2158 77.4687 11.9354 77.1952 11.7663C77.1008 11.708 76.7054 12.1321 76.3166 12.7087C75.5661 13.8216 74.5338 17.1627 74.7591 17.7498C74.9249 18.1817 75.1359 17.8784 75.3898 16.8434ZM63.025 17.61C63.025 17.4824 62.9143 17.2169 62.779 17.02C62.3473 16.3915 61.7779 14.3589 61.5026 12.4631C61.0992 9.68594 59.8193 7.1876 58.4501 6.50451C57.7457 6.1531 57.4644 6.14931 57.3339 6.48946C57.2121 6.80694 57.6675 8.41607 58.1318 9.30871C58.3138 9.65855 58.5595 10.435 58.6778 11.034C59.0548 12.9432 59.7343 14.9973 60.3293 16.0265C60.9396 17.0824 61.2147 17.0031 60.8742 15.8693C60.1245 13.3732 59.7673 12.0042 59.66 11.2156C59.592 10.7163 59.4245 10.1297 59.2878 9.91192C58.8648 9.23838 58.303 7.60486 58.4452 7.46256C58.9933 6.91453 60.1551 9.523 60.8445 12.8495C61.2204 14.6628 61.7979 16.4418 62.2442 17.1611C62.6662 17.8414 63.025 18.0477 63.025 17.61ZM59.5811 16.3997C59.359 15.9847 59.0311 15.7469 59.0311 16.0009C59.0311 16.3866 59.2647 16.7527 59.5108 16.7527C59.7113 16.7527 59.7273 16.6727 59.5811 16.3997ZM63.9327 16.3827C63.9327 16.2791 63.6497 15.4615 63.3038 14.5658C62.9579 13.67 62.5082 12.2356 62.3046 11.3782C62.1009 10.5207 61.849 9.68403 61.7448 9.51888C61.5814 9.2599 61.5679 9.26854 61.6466 9.5817C62.0695 11.265 62.1499 11.6974 62.0571 11.7902C61.9983 11.849 62.0695 12.1826 62.2153 12.5316C62.3611 12.8806 62.4804 13.3342 62.4804 13.5396C62.4804 14.1254 63.0653 15.8204 63.4482 16.3442C63.6494 16.6194 63.9327 16.642 63.9327 16.3827ZM65.1478 15.1676C65.1018 14.991 65.0611 15.0915 65.0574 15.3911C65.0537 15.6906 65.0914 15.8352 65.1411 15.7122C65.1908 15.5893 65.1938 15.3443 65.1478 15.1676ZM65.3851 14.1328C65.3851 14.0143 65.2651 13.7588 65.1185 13.565C64.8709 13.2376 64.8516 13.269 64.8462 14.0064C64.8412 14.6917 64.8777 14.7693 65.1128 14.5741C65.2625 14.4498 65.3851 14.2512 65.3851 14.1328ZM58.3269 13.1315C58.2201 12.7767 58.0424 11.9962 57.932 11.3971C57.6598 9.91972 57.3688 8.9463 57.1992 8.9463C56.9588 8.9463 56.8202 9.65319 56.9402 10.2666C57.3551 12.3859 57.8873 14.0961 58.2435 14.4552C58.4855 14.6992 58.5397 13.8386 58.3269 13.1315Z" fill="#E3A3C7"/>
</svg>
