<svg width="209" height="212" viewBox="0 0 209 212" fill="none" xmlns="http://www.w3.org/2000/svg">
<path d="M34 38.5C34 37.3954 34.8954 36.5 36 36.5H104C142.66 36.5 174 67.8401 174 106.5V174.5C174 175.605 173.105 176.5 172 176.5H104C65.3401 176.5 34 145.16 34 106.5V38.5Z" fill="#E97D95" fill-opacity="0.79"/>
<path d="M96.1946 10.3887C93.3247 16.3679 85.1139 29.1235 84.2371 41.0019C83.3603 52.8803 89.0204 71.8535 90.9336 81.659C92.8469 91.4645 93.0859 96.5664 95.7166 99.835C98.3474 103.104 103.37 105.097 106.718 101.271C110.066 97.4441 113.255 87.2397 115.806 76.876C118.357 66.5123 124.416 51.0466 122.025 39.0884C119.633 27.1302 105.761 9.91022 101.456 5.12695C97.1513 0.34368 99.0644 4.40959 96.1946 10.3887Z" fill="#CC1577"/>
<path d="M104.804 102.227C106.957 98.3207 111.979 78.1511 112.458 68.2656C112.936 58.3802 108.95 48.5744 107.675 42.9143C106.399 37.2542 106.08 34.7036 104.804 34.3051C103.529 33.9065 101.377 36.9354 100.021 40.5228C98.6661 44.1102 96.7529 47.2992 96.673 55.8293C96.5932 64.3595 98.1873 83.9705 99.5425 91.7034C100.898 99.4364 102.652 106.133 104.804 102.227Z" fill="#F08BB9"/>
<path d="M170.088 36.6906C163.968 38.9458 149.596 42.3869 140.471 50.0326C131.347 57.6784 121.215 74.5234 115.342 82.565C109.47 90.6067 105.938 94.2946 105.234 98.2828C104.531 102.271 106.252 106.946 111.12 106.495C115.989 106.043 125.36 101.073 134.444 95.5736C143.529 90.0747 158.503 83.3462 165.628 73.5008C172.754 63.6554 176.453 42.6362 177.197 36.5011C177.94 30.3661 176.209 34.4353 170.088 36.6906Z" fill="#CC1577"/>
<path d="M109.226 105.901C113.4 104.61 131.116 93.9452 138.552 87.4174C145.987 80.8895 150.556 71.4878 153.838 66.7335C157.121 61.9793 158.76 60.0046 158.246 58.8919C157.731 57.7791 154.19 58.4634 150.749 60.057C147.307 61.6507 143.802 62.6026 137.595 68.4539C131.389 74.3053 118.238 88.924 113.51 95.1651C108.782 101.406 105.053 107.192 109.226 105.901Z" fill="#F08BB9"/>
<path d="M193.996 142.009C187.364 142.967 172.514 147.095 160.961 144.181C149.408 141.268 133.328 129.564 124.677 124.526C116.027 119.488 111.271 117.622 109.058 113.953C106.844 110.283 106.642 104.633 111.395 102.511C116.147 100.388 126.89 100.46 137.57 101.219C148.25 101.978 164.945 100.862 175.476 107.065C186.006 113.267 197.665 132.61 200.751 138.434C203.838 144.258 200.627 141.051 193.996 142.009Z" fill="#CC1577"/>
<path d="M109.845 104.116C114.271 103.213 135.076 104.633 144.606 107.309C154.136 109.985 162.09 117.092 167.026 120.171C171.962 123.251 174.272 124.383 174.221 125.784C174.17 127.184 170.576 128.367 166.721 128.575C162.865 128.784 159.199 129.677 151.088 127.036C142.976 124.394 124.924 116.547 118.051 112.727C111.177 108.907 105.419 105.019 109.845 104.116Z" fill="#F08BB9"/>
<path d="M21.3243 57.387C24.5054 63.2065 30.0733 77.3173 39.2081 84.9605C48.343 92.6036 67.0538 99.0779 76.1333 103.246C85.2127 107.413 89.4954 110.196 93.6849 109.967C97.8744 109.738 102.424 106.822 101.27 101.87C100.116 96.9185 93.69 88.3747 86.7622 80.2557C79.8343 72.1368 70.8101 58.1919 59.7033 53.1565C48.5965 48.1212 26.518 49.3385 20.1215 50.0436C13.725 50.7487 18.1432 51.5675 21.3243 57.387Z" fill="#CC1577"/>
<path d="M100.93 103.983C99.0137 99.9554 85.5645 84.1077 77.8156 77.951C70.0668 71.7944 59.7777 69.3095 54.4369 67.0428C49.096 64.776 46.8385 63.547 45.7705 64.3503C44.7025 65.1536 45.9065 68.6688 48.029 71.8626C50.1516 75.0564 51.6251 78.471 58.5058 83.5131C65.3866 88.5552 82.2428 98.7037 89.3135 102.115C96.3843 105.527 102.846 108.01 100.93 103.983Z" fill="#F08BB9"/>
<path d="M10.9571 133.002C15.7202 128.394 25.2218 116.593 36.209 111.996C47.1962 107.399 66.9771 106.724 76.8802 105.419C86.7834 104.115 91.697 102.722 95.628 104.169C99.5589 105.617 103.036 109.727 100.466 114.104C97.8952 118.48 89.226 124.729 80.2042 130.427C71.1825 136.124 58.431 146.754 46.3353 148.289C34.2396 149.825 13.5264 142.189 7.63006 139.641C1.73369 137.093 6.19393 137.609 10.9571 133.002Z" fill="#CC1577"/>
<path d="M100.768 111.993C97.7439 115.265 80.204 126.408 70.9808 129.996C61.7576 133.585 51.1992 132.932 45.4286 133.523C39.6581 134.115 37.1385 134.622 36.3575 133.544C35.5764 132.466 37.7687 129.472 40.7423 127.054C43.716 124.636 46.1356 121.817 54.1995 119.035C62.2634 116.253 81.3643 111.536 89.1257 110.362C96.8872 109.189 103.792 108.72 100.768 111.993Z" fill="#F08BB9"/>
<path d="M89.9709 199.827C93.9381 194.512 104.451 183.575 107.598 172.088C110.745 160.601 108.843 140.893 108.853 130.902C108.863 120.912 109.611 115.859 107.658 112.145C105.706 108.431 101.161 105.508 97.1388 108.619C93.1166 111.729 88.0232 121.129 83.5248 130.808C79.0264 140.486 70.1034 154.497 70.1484 166.692C70.1933 178.887 80.4908 198.455 83.7946 203.977C87.0983 209.5 86.0036 205.142 89.9709 199.827Z" fill="#CC1577"/>
<path d="M99.2014 108.049C96.3371 111.467 87.526 130.293 85.1536 139.902C82.7812 149.51 84.8049 159.9 84.967 165.7C85.1291 171.499 84.9514 174.064 86.1264 174.7C87.3013 175.337 89.9964 172.779 92.0168 169.52C94.0373 166.26 96.5286 163.499 98.249 155.144C99.9694 146.789 102.18 127.237 102.339 119.388C102.498 111.539 102.066 104.63 99.2014 108.049Z" fill="#F08BB9"/>
<path d="M158.542 185.415C158.13 178.796 159.074 163.655 154.044 152.859C149.013 142.063 134.816 128.262 128.362 120.637C121.907 113.011 119.21 108.674 115.318 107.104C111.427 105.535 106.07 106.245 105.015 111.219C103.959 116.193 106.154 126.656 108.984 136.947C111.814 147.238 114.07 163.695 121.992 172.966C129.914 182.237 150.425 190.501 156.516 192.576C162.608 194.651 158.954 192.035 158.542 185.415Z" fill="#CC1577"/>
<path d="M106.219 109.45C106.246 113.91 111.702 133.967 116.108 142.829C120.513 151.692 128.777 158.307 132.652 162.625C136.527 166.943 138.05 169.014 139.358 168.739C140.666 168.465 141.067 164.771 140.499 160.978C139.932 157.186 140.046 153.469 135.954 145.984C131.862 138.499 120.902 122.158 115.946 116.069C110.99 109.98 106.192 104.99 106.219 109.45Z" fill="#F08BB9"/>
<path d="M94.7596 100.791C97.7092 101.11 100.26 101.908 102.413 99.3567C104.565 96.8057 106.559 85.1668 107.675 85.4857C108.791 85.8046 106.319 99.357 109.109 101.27C111.9 103.183 123.14 96.5666 124.416 96.9652C125.692 97.3638 115.965 100.393 116.763 103.662C117.56 106.93 129.598 115.301 129.199 116.577C128.8 117.852 117.321 109.561 114.371 111.315C111.421 113.069 112.936 125.984 111.501 127.1C110.066 128.216 107.834 117.852 105.761 118.012C103.688 118.171 100.42 128.375 99.0646 128.056C97.7094 127.737 100.181 117.134 97.6299 116.098C95.0788 115.062 84.8741 123.193 83.758 121.838C82.6419 120.483 90.7739 112.033 90.9333 107.967C91.0928 103.901 84.0771 98.6391 84.7148 97.4432C85.3525 96.2473 91.8099 100.472 94.7596 100.791Z" fill="#88528C"/>
<path d="M104.028 104.2C104.91 104.73 105.709 106.29 105.876 107.378C106.042 108.466 105.58 109.849 105.029 110.728C104.477 111.608 103.489 112.434 102.564 112.655C101.639 112.876 100.239 112.687 99.4785 112.055C98.7183 111.424 98.1978 109.824 98.0035 108.867C97.8091 107.91 97.8818 107.092 98.3122 106.314C98.7425 105.536 99.6328 104.549 100.586 104.197C101.538 103.844 103.147 103.669 104.028 104.2Z" fill="#881F63"/>
<path d="M92.6095 116.361C92.9729 115.363 94.3167 114.295 95.3136 113.955C96.3106 113.615 97.6803 113.884 98.5912 114.323C99.5021 114.762 100.43 115.662 100.779 116.589C101.128 117.517 101.164 119.001 100.687 119.888C100.21 120.774 98.7859 121.56 97.9165 121.908C97.0471 122.256 96.2677 122.306 95.4705 121.978C94.6733 121.65 93.6101 120.875 93.1333 119.939C92.6564 119.003 92.2462 117.358 92.6095 116.361Z" fill="#881F63"/>
<path d="M103.403 109.281C104.39 109.028 105.991 109.581 106.824 110.249C107.657 110.918 108.227 112.255 108.402 113.293C108.577 114.33 108.402 115.644 107.876 116.474C107.35 117.304 106.21 118.18 105.245 118.273C104.28 118.365 102.855 117.581 102.088 117.028C101.321 116.474 100.838 115.829 100.641 114.953C100.444 114.077 100.444 112.716 100.904 111.771C101.365 110.826 102.417 109.535 103.403 109.281Z" fill="#881F63"/>
<path d="M110.697 104.963C111.6 105.452 112.463 106.974 112.675 108.054C112.886 109.133 112.482 110.535 111.967 111.439C111.452 112.343 110.5 113.214 109.585 113.477C108.67 113.741 107.263 113.615 106.478 113.019C105.692 112.424 105.106 110.849 104.872 109.902C104.638 108.955 104.677 108.135 105.074 107.337C105.472 106.54 106.321 105.513 107.258 105.118C108.195 104.722 109.795 104.474 110.697 104.963Z" fill="#881F63"/>
<path d="M88.6473 104.735C89.3945 104.011 91.0501 103.682 92.0867 103.844C93.1234 104.006 94.2369 104.887 94.8672 105.706C95.4975 106.526 95.9479 107.765 95.8687 108.759C95.7894 109.753 95.194 111.1 94.3918 111.671C93.5897 112.242 91.9819 112.28 91.0558 112.186C90.1297 112.091 89.4107 111.771 88.8353 111.104C88.26 110.437 87.6349 109.247 87.6036 108.185C87.5723 107.124 87.9001 105.458 88.6473 104.735Z" fill="#881F63"/>
<path d="M118.371 104.274C117.773 105.138 116.211 105.802 115.165 105.857C114.118 105.911 112.862 105.277 112.091 104.604C111.32 103.93 110.648 102.807 110.54 101.816C110.433 100.825 110.766 99.3821 111.446 98.6568C112.126 97.9315 113.695 97.563 114.621 97.4648C115.547 97.3665 116.312 97.5322 117 98.0675C117.689 98.6027 118.523 99.6415 118.752 100.676C118.98 101.711 118.969 103.411 118.371 104.274Z" fill="#881F63"/>
<path d="M101.188 100.685C101.146 99.6178 101.978 98.0772 102.766 97.3505C103.554 96.6238 104.913 96.3006 105.915 96.3249C106.917 96.3492 108.107 96.7898 108.777 97.4964C109.447 98.2029 110.038 99.5515 109.933 100.564C109.828 101.577 108.816 102.891 108.149 103.572C107.481 104.254 106.784 104.624 105.928 104.654C105.072 104.684 103.805 104.415 103.015 103.754C102.224 103.092 101.229 101.752 101.188 100.685Z" fill="#881F63"/>
<path d="M114.405 117.638C114.822 118.612 114.597 120.367 114.123 121.351C113.65 122.334 112.503 123.167 111.565 123.537C110.627 123.908 109.367 123.966 108.495 123.573C107.623 123.18 106.596 122.161 106.334 121.18C106.072 120.199 106.545 118.583 106.923 117.689C107.3 116.795 107.816 116.178 108.599 115.814C109.382 115.451 110.654 115.203 111.622 115.507C112.59 115.811 113.989 116.664 114.405 117.638Z" fill="#881F63"/>
</svg>
