<svg width="207" height="165" viewBox="0 0 207 165" fill="none" xmlns="http://www.w3.org/2000/svg">
<rect x="33" y="12.5" width="140" height="140" fill="#553D67"/>
<path d="M133.516 134.207C133.386 132.48 132.931 130.774 132.151 129.229C131.625 128.888 131.629 129.778 131.547 130.084C130.442 136.617 127.708 142.743 125.011 148.758C124.62 149.462 124.401 150.326 123.803 150.884C123.84 149.876 124.496 148.995 124.823 148.062C126.881 143.452 128.933 138.8 130.232 133.909C130.609 132.185 131.137 130.458 131.214 128.69C130.928 128.161 130.289 128.794 129.913 128.903C125.494 131.083 122.251 135.642 121.99 140.607C121.579 144.532 122.136 148.467 122.295 152.388C122.394 153.093 122.286 153.834 122.424 154.524C122.89 154.959 123.257 154.103 123.562 153.858C126.889 150.115 130.62 146.498 132.582 141.799C133.503 139.548 133.87 137.08 133.559 134.663C133.545 134.511 133.529 134.359 133.516 134.207Z" fill="#89A02C"/>
<path d="M134.223 133.96C133.983 132.028 133.409 130.132 132.512 128.387C132.512 128.387 132.288 128.046 132.048 127.828C132.413 124.244 132.249 120.611 131.367 117.125C131.367 117.125 130.883 115.356 130.449 115.497C130.13 115.602 130.543 117.334 130.543 117.334C131.403 120.714 131.559 124.256 131.198 127.763C130.884 127.775 130.537 127.876 130.537 127.876C125.871 129.847 122.285 134.112 121.498 139.15C120.756 144.065 121.486 148.999 121.737 153.86C121.737 153.86 121.824 155.403 122.225 155.395C122.249 155.394 122.266 155.373 122.289 155.361C122.293 155.415 122.31 155.461 122.343 155.494C122.617 155.747 123.717 154.637 123.717 154.637C126.959 151.165 130.356 147.704 132.589 143.423C134.097 140.505 134.624 137.181 134.223 133.96ZM133.385 134.063C133.767 137.122 133.268 140.283 131.833 143.031C129.693 147.169 126.34 150.567 123.091 154.055C123.091 154.055 122.747 154.449 122.508 154.835C122.588 154.378 122.59 153.816 122.59 153.816C122.341 148.899 121.607 144.022 122.34 139.278C123.044 134.557 126.457 130.51 130.865 128.659C130.865 128.659 131.01 128.571 131.103 128.519C130.886 130.261 130.559 131.993 130.112 133.688C128.641 139.271 126.209 144.568 123.8 149.874C123.8 149.874 123.347 151.037 123.697 151.128C124.037 151.217 124.576 150.227 124.576 150.227C126.987 144.923 129.434 139.581 130.936 133.906C131.355 132.326 131.669 130.711 131.891 129.085C132.657 130.653 133.17 132.338 133.385 134.063Z" fill="#677821"/>
<path d="M143.365 128.603C141.314 126.603 138.911 124.952 136.278 123.772C136.278 123.772 135.706 123.586 135.232 123.556C132.357 119.102 128.832 115.079 124.614 111.885C124.614 111.885 122.433 110.297 122.064 110.858C121.793 111.271 123.859 112.882 123.859 112.882C127.953 115.975 131.387 119.901 134.195 124.262C133.846 124.565 133.539 125 133.539 125C129.989 131.551 129.789 139.746 133.514 146.258C137.177 152.587 142.55 157.585 147.304 162.94C147.304 162.94 148.822 164.632 149.275 164.255C149.302 164.231 149.303 164.191 149.317 164.157C149.372 164.214 149.433 164.252 149.502 164.26C150.049 164.298 150.293 162.013 150.293 162.013C150.828 155.044 151.55 147.947 150.183 140.976C149.234 136.238 146.784 131.934 143.365 128.603ZM142.496 129.491C145.747 132.655 148.077 136.745 148.953 141.22C150.298 147.941 149.567 154.926 149.039 161.918C149.039 161.918 149.006 162.687 149.086 163.35C148.758 162.751 148.243 162.105 148.243 162.105C143.439 156.684 138.116 151.756 134.599 145.631C131.069 139.56 131.272 131.774 134.636 125.597C134.636 125.597 134.721 125.363 134.78 125.218C136.132 127.419 137.347 129.709 138.392 132.067C141.831 139.833 143.904 148.154 146.012 156.464C146.012 156.464 146.56 158.216 147.046 157.999C147.519 157.789 147.228 156.156 147.228 156.156C145.124 147.848 143.028 139.461 139.538 131.56C138.567 129.36 137.445 127.217 136.205 125.144C138.527 126.242 140.664 127.707 142.496 129.491Z" fill="#677821"/>
<path d="M142.786 129.532C141.05 127.667 138.96 126.126 136.644 125.068C135.727 125.158 136.548 126.177 136.736 126.604C141.469 135.125 143.956 144.675 146.385 154.064C146.583 155.233 147.124 156.427 146.95 157.617C146.068 156.426 146.011 154.81 145.53 153.438C143.658 146.25 141.742 139.02 138.739 132.207C137.588 129.881 136.608 127.41 135.072 125.309C134.258 124.964 134.105 126.278 133.773 126.748C130.699 133.313 131.162 141.531 135.425 147.476C138.558 152.363 142.814 156.373 146.6 160.731C147.361 161.45 147.918 162.401 148.711 163.066C149.646 163.138 149.28 161.818 149.406 161.256C149.79 153.899 150.752 146.315 148.689 139.112C147.679 135.68 145.832 132.508 143.255 130.016C143.099 129.854 142.941 129.694 142.786 129.532Z" fill="#ABC837"/>
<path d="M19.9227 139.167C19.4533 138.29 19.939 137.99 19.939 137.99C22.611 136.502 25.1444 134.786 26.8558 132.537C26.1165 132.53 25.3795 132.559 24.6397 132.533C24.6397 132.533 20.0271 132.177 20.1451 131.168C20.2442 130.287 24.727 130.499 24.727 130.499C25.5158 130.532 26.3033 130.501 27.0914 130.506C25.0012 126.441 22.5698 122.531 18.8652 120.549C18.8652 120.549 18.2571 120.105 18.6416 119.297C19.0735 118.382 19.8349 118.77 19.8349 118.77C24.4155 121.346 27.236 125.995 29.4215 130.522C30.6837 130.489 31.9415 130.388 33.2028 130.29C31.6122 125.294 30.0867 119.804 26.0474 117.936C26.0474 117.936 25.4171 117.541 25.7377 116.712C26.1068 115.761 26.9348 116.147 26.9348 116.147C32.0056 118.813 33.8774 124.927 35.301 130.055C35.301 130.055 35.2679 130.121 35.2679 130.143C37.2855 129.935 39.3021 129.637 41.3134 129.291C40.4562 126.147 38.8166 123.059 36.0944 122.129C36.0944 122.129 35.6812 121.875 35.9313 121.013C36.2112 120.042 36.805 120.247 36.805 120.247C40.4236 121.71 42.5024 125.327 43.3493 128.913C48.1089 127.996 52.8294 126.739 57.5112 125.316C56.9372 123.844 56.1608 122.483 55.307 121.173C54.2724 122.813 53.0175 124.259 51.8165 125.646C51.8165 125.646 51.5344 125.926 50.7808 125.282C50.09 124.693 50.2586 124.313 50.2586 124.313C51.3328 123.05 52.3549 121.811 53.2302 120.527C51.043 121.956 48.4854 122.635 46.0395 122.98C46.0395 122.98 45.5504 122.925 45.4215 122.03C45.2794 121.048 45.7278 120.943 45.7278 120.943C46.2666 120.854 46.7999 120.751 47.3295 120.643C47.0893 120.555 46.8744 120.42 46.7786 120.132C46.4921 119.252 47.9556 118.69 47.9556 118.69C49.4687 118.249 51.0359 117.931 52.6178 117.696C51.646 116.618 50.6183 115.582 49.4812 114.635C46.7561 116.184 43.6034 116.071 40.805 115.72C40.805 115.72 40.3742 115.543 40.4767 114.643C40.5913 113.658 41.0364 113.671 41.0364 113.671C43.4418 113.902 45.8459 114.096 47.7195 113.289C44.6343 111.015 41.1786 109.121 37.6016 107.625C37.6016 107.625 36.2771 106.951 36.5989 106.116C36.9614 105.18 38.385 105.727 38.385 105.727C40.1442 106.45 41.8709 107.297 43.5593 108.214C43.0844 105.222 41.124 102.5 38.447 100.889C38.447 100.889 38.0006 100.493 38.4248 99.7033C38.9008 98.8186 39.5003 99.1401 39.5003 99.1401C43.0947 101.338 45.5386 105.188 45.689 109.438C47.8683 110.772 49.917 112.293 51.7853 113.992C52.2943 111.171 51.1859 108.059 48.9939 106.158C48.9939 106.158 48.6733 105.733 49.2198 105.022C49.8357 104.229 50.3381 104.63 50.3381 104.63C52.1124 106.201 53.2736 108.341 53.7161 110.625C55.9938 112.197 57.9714 114.435 58.6529 117.255C59.8158 117.278 60.9617 117.387 62.0989 117.541C61.9866 117.464 61.7761 117.27 61.8565 116.566C61.9711 115.583 62.3711 115.586 62.3711 115.586C62.4703 115.595 62.5783 115.588 62.6796 115.594C61.7773 113.862 60.3268 112.331 58.6539 111.126C57.9476 111.192 57.2413 111.214 56.5401 111.181C56.5401 111.181 56.0829 111.042 56.1402 110.133C56.2063 109.146 56.6161 109.133 56.6161 109.133C58.9775 109.21 61.3335 108.773 63.1387 107.548C60.0254 104.77 56.3608 102.449 52.4579 100.545C50.753 102.475 48.3018 103.081 46.1779 103.479C46.1779 103.479 45.8209 103.423 45.6325 102.543C45.4287 101.578 45.7527 101.462 45.7527 101.462C47.6373 101.018 49.4557 100.645 50.5194 99.6126C49.3181 99.0771 48.1056 98.5627 46.886 98.1042C46.886 98.1042 45.1819 97.3483 45.4689 96.5078C45.7951 95.5525 47.6005 96.1719 47.6005 96.1719C50.1885 97.1205 52.7509 98.2759 55.2219 99.5934C55.6737 96.6525 55.1447 93.55 53.689 90.9461C53.689 90.9461 53.525 90.4395 54.2951 89.968C55.1479 89.4457 55.4672 89.9458 55.4672 89.9458C57.2767 93.1849 57.889 97.0445 57.1376 100.686C58.4738 101.471 59.7633 102.313 61.007 103.215C61.6571 102.288 62.0779 101.216 62.3748 100.096C61.846 100.03 61.0695 99.8715 61.0322 99.1862C60.9882 98.3334 62.4235 98.1768 62.7228 98.1493C62.822 97.1929 62.8583 96.2223 62.7669 95.257C62.7669 95.257 62.8331 94.7866 63.7288 94.6709C64.7149 94.5442 64.8029 95.0552 64.8029 95.0552C64.9131 96.1052 64.8801 97.167 64.7809 98.2279C65.3814 98.272 65.982 98.2723 66.5808 98.3406C65.7996 96.7903 65.5032 95.0464 65.4177 93.4507C65.4177 93.4507 65.4287 93.0762 66.4236 93.0079C67.3259 92.9418 67.4792 93.2967 67.4792 93.2967C67.7095 95.5202 67.9474 97.736 69.3204 98.8066C70.9537 99.1151 72.5586 99.536 74.1393 100.063C73.7923 98.1881 74.0401 96.262 74.5536 94.5169C74.5536 94.5169 74.6913 94.1579 75.6443 94.4399C76.5114 94.6999 76.5279 95.0714 76.5279 95.0714C75.9881 97.0963 75.7545 99.1845 76.4839 100.868C78.2372 101.586 79.9095 102.475 81.5294 103.449C81.5625 100.832 82.4605 98.2952 83.8774 96.1453C83.8774 96.1453 84.1848 95.7455 85.0026 96.3151C85.7441 96.8307 85.592 97.2703 85.592 97.2703C84.1023 99.5682 83.2168 102.242 83.6193 104.781C85.3153 105.966 86.915 107.273 88.3661 108.733C88.6482 106.214 89.5926 103.805 90.7463 101.637C90.7463 101.637 91.0295 101.176 91.9065 101.646C92.7042 102.075 92.5709 102.591 92.5709 102.591C91.1819 105.305 90.1026 108.169 90.3606 110.929C91.0019 111.703 91.5944 112.517 92.1612 113.347C97.2656 111.676 102.416 110.144 107.68 108.985C107.68 108.985 108.736 108.852 109.636 108.919C117.6 105.518 125.471 101.984 132.856 97.6274C132.856 97.6274 135.62 96.1778 135.932 96.9566C136.256 97.7631 133.895 99.3846 133.895 99.3846C123.518 105.497 112.35 110.008 101.335 114.678C101.379 114.733 101.505 114.842 101.505 114.842C103.113 118.02 103.986 121.393 104.3 124.847C108.085 125.357 111.004 128.074 112.95 131.089C112.95 131.089 113.228 131.583 112.385 132.112C111.622 132.591 111.23 132.224 111.23 132.224C109.471 129.63 107.17 127.307 104.425 126.91C104.48 129.056 104.309 131.221 103.989 133.382C107.253 134.107 110.03 136.189 111.979 138.782C111.979 138.782 112.257 139.219 111.447 139.798C110.713 140.322 110.343 140.024 110.343 140.024C108.616 137.773 106.271 135.957 103.635 135.393C103.339 136.9 102.968 138.395 102.523 139.879C105.553 142.035 107.733 145.279 108.613 148.883C108.613 148.883 108.723 149.468 107.74 149.666C106.858 149.845 106.63 149.363 106.63 149.363C105.926 146.463 104.198 143.832 101.865 141.986C100.953 144.634 99.8624 147.225 98.613 149.682C98.613 149.682 97.7129 151.365 96.8232 150.887C96.0399 150.468 96.7792 148.753 96.7792 148.753C97.3609 147.587 97.8974 146.384 98.4131 145.174C96.9315 145.141 95.345 146.108 93.6625 147.065C93.6625 147.065 93.3463 147.201 92.8395 146.356C92.3746 145.579 92.6015 145.301 92.6015 145.301C94.4279 144.146 96.6357 142.92 99.1982 143.173C100.76 139.121 101.863 134.926 102.252 130.771C100.096 131.104 98.0746 132.389 96.3962 134.052C96.3962 134.052 96.0844 134.324 95.3672 133.643C94.7061 133.016 94.9464 132.603 94.9464 132.603C96.9184 130.603 99.4814 129.049 102.395 128.691C102.472 126.341 102.34 124.016 101.861 121.773C99.7278 122.285 97.7888 123.672 96.2163 125.405C96.2163 125.405 95.9255 125.681 95.173 125.038C94.4822 124.447 94.6949 124.034 94.6949 124.034C96.4414 122.068 98.7249 120.493 101.358 119.818C100.94 118.43 100.404 117.078 99.7091 115.774C99.7091 115.774 99.676 115.559 99.6429 115.416C97.6555 116.268 95.6571 117.101 93.6877 117.977C91.7189 118.857 89.7731 119.811 87.8187 120.742C87.8407 120.775 87.9179 120.841 87.9179 120.841C89.229 124.267 89.7714 127.849 89.7149 131.452C93.2515 133.502 95.2622 137.582 94.8689 141.625C94.8689 141.625 94.7697 142.262 93.7825 142.099C92.8978 141.95 92.8439 141.421 92.8439 141.421C93.1557 138.535 91.8477 135.502 89.5538 133.782C89.3423 136.299 88.8775 138.807 88.1894 141.268C90.9729 144.483 91.805 148.967 90.6688 153.024C90.6688 153.024 90.4484 153.667 89.4974 153.344C88.6468 153.055 88.7042 152.462 88.7042 152.462C89.568 149.459 89.1492 146.131 87.4601 143.616C86.8486 145.437 86.1604 147.234 85.364 148.961C85.364 148.961 84.6931 150.33 83.7903 149.891C82.986 149.499 83.4973 148.103 83.4973 148.103C85.0983 144.572 86.3398 140.832 87.0504 137.065C85.1285 137.75 83.4999 139.529 81.8959 141.336C81.8959 141.336 81.5786 141.648 80.8238 141.005C80.133 140.416 80.3314 139.993 80.3314 139.993C82.1416 137.83 84.3741 135.602 87.4248 134.881C87.6408 133.186 87.6927 131.503 87.6365 129.83C85.1526 129.852 82.7193 131.264 80.3805 132.817C80.3805 132.817 79.9806 133.045 79.4154 132.23C78.8986 131.484 79.2214 131.113 79.2214 131.113C81.6048 129.451 84.3963 127.957 87.5287 127.813C87.2995 125.686 86.8268 123.597 86.032 121.592C81.6347 123.738 77.3214 126.031 73.2115 128.601C74.2615 130.448 75.0021 132.578 75.1383 134.732C75.1713 134.743 75.2043 134.765 75.2373 134.776C75.2373 134.776 75.6847 135.062 75.3938 135.92C75.3057 136.163 75.212 136.333 75.1139 136.452C75.0148 137.457 74.7648 138.452 74.3185 139.407C74.3185 139.407 74.0221 139.956 73.1553 139.441C72.3841 138.979 72.5163 138.517 72.5163 138.517C72.902 137.801 73.0882 137.009 73.1488 136.189C71.3051 135.438 69.511 134.465 67.9756 133.144C67.9426 134.008 67.8544 134.868 67.7552 135.727C68.7105 137.708 69.5775 139.782 70.0699 141.926C71.1852 142.598 72.4432 143.099 73.7496 143.428C73.7496 143.428 74.1596 143.646 73.9679 144.529C73.7563 145.504 73.2594 145.419 73.2594 145.419C72.2909 145.183 71.3515 144.819 70.4446 144.39C70.557 145.975 70.4337 147.565 69.8828 149.126C69.8828 149.126 69.54 149.974 68.6211 149.527C67.8212 149.138 68.014 148.419 68.014 148.419C68.6861 146.777 68.6553 144.981 68.2554 143.118C67.6538 142.682 67.0828 142.207 66.5646 141.666C66.0413 143.483 65.4217 145.272 64.6262 146.992C65.2366 148.724 66.8284 150.095 68.6027 151.21C68.6027 151.21 68.844 151.494 68.3857 152.274C67.8822 153.133 67.5362 152.963 67.5362 152.963C65.9914 152.041 64.5146 150.815 63.4933 149.229C63.3666 150.169 63.1904 151.11 62.8951 152.034C62.8951 152.034 62.6009 152.834 61.6615 152.459C61.5954 152.426 61.5624 152.382 61.4952 152.347C61.2584 152.693 61.0324 153.048 60.7834 153.386C60.5058 155.105 61.8412 156.89 63.1867 158.675C63.1867 158.675 63.3167 159.036 62.6093 159.605C61.837 160.227 61.5714 159.965 61.5714 159.965C60.5467 158.739 59.5775 157.26 59.0938 155.592C58.2907 156.523 57.4525 157.421 56.5573 158.259C56.5573 158.259 55.0601 159.474 54.4557 158.75C53.842 158.014 55.1498 156.764 55.1498 156.764C56.5681 155.429 57.8261 153.923 58.9987 152.345C57.4541 152.7 55.8891 152.878 54.3815 153.003C54.3815 153.003 53.9639 152.926 53.8879 152.017C53.7998 151.028 54.2075 150.963 54.2075 150.963C56.5921 150.736 58.9089 150.481 60.884 149.599C61.1451 149.168 61.3732 148.721 61.6134 148.279C61.6905 147.306 61.6795 146.314 61.5914 145.309C60.0149 145.671 58.3778 145.754 56.7802 145.566C56.7802 145.566 56.3098 145.392 56.4398 144.489C56.5819 143.511 57.0115 143.531 57.0115 143.531C58.4589 143.695 59.9153 143.608 61.2898 143.287C61.0254 141.695 60.6696 140.093 60.2222 138.501C59.6482 139.042 59.0499 139.554 58.4955 140.116C58.4955 140.116 55.3588 143.321 54.684 142.745C53.9094 142.087 57.046 138.685 57.046 138.685C57.36 138.369 57.6928 138.074 58.0223 137.776C57.6124 137.82 57.1982 137.895 56.7938 137.935C56.7938 137.935 56.2815 137.869 56.1768 137.003C54.1215 137.011 51.9935 137.373 49.8879 137.89C49.8879 137.89 49.3305 138.002 49.0771 137.04C48.849 136.158 49.3812 135.899 49.3812 135.899C52.8493 134.995 56.6349 134.46 60.2784 135.421C60.3776 135.41 60.49 135.399 60.5924 135.377C61.8614 134.26 63.1632 133.186 64.5005 132.152C62.7846 130.259 59.6637 130.038 56.8095 130.624C56.8095 130.624 56.3379 130.69 56.0933 129.737C55.8641 128.847 56.3732 128.611 56.3732 128.611C59.6486 127.861 63.383 128.289 65.9191 130.75C65.8419 128.954 65.6403 127.162 65.2305 125.417C65.2305 125.417 65.2526 125.192 65.2636 125.013C59.637 126.926 53.8911 128.686 48.0576 130.032C48.1458 130.228 48.2151 130.447 48.2151 130.447C48.2592 134.527 46.9476 138.315 44.8286 141.707C47.004 144.79 47.386 148.781 46.5523 152.366C46.5523 152.366 46.2968 152.937 45.414 152.706C44.462 152.454 44.5502 151.909 44.5502 151.909C45.1848 149.004 45.0338 145.858 43.6279 143.492C42.666 144.784 41.5959 146.002 40.4184 147.139C41.8707 149.723 41.9284 152.786 41.2887 155.533C41.2887 155.533 41.064 155.971 40.1805 155.748C39.223 155.507 39.2836 155.085 39.2836 155.085C39.7761 152.78 39.8521 150.358 38.8991 148.488C36.6587 150.404 34.1924 152.074 31.6008 153.376C31.6008 153.376 30.146 153.959 29.7574 153.121C29.3508 152.238 30.663 151.535 30.663 151.535C32.2555 150.712 33.7879 149.726 35.2679 148.667C33.4635 148.13 31.4841 147.929 29.4576 147.69C29.4576 147.69 29.0752 147.527 29.1799 146.624C29.2934 145.639 29.6911 145.653 29.6911 145.653C32.1459 145.919 34.744 146.188 37.2236 147.182C40.0651 144.836 42.4513 142.069 44.0584 139.015C42.0394 139.231 39.9581 139.967 37.7134 140.475C37.7134 140.475 37.2716 140.453 37.0821 139.567C36.8782 138.602 37.2529 138.479 37.2529 138.479C39.6782 137.91 42.2254 136.952 45.0461 136.89L45.0682 136.923C45.857 134.87 46.2696 132.708 46.1939 130.48L46.2048 130.446C43.0157 131.131 39.8013 131.657 36.5742 132.029C36.5191 135.691 33.9971 138.651 31.009 140.377C31.009 140.377 30.4758 140.551 30.0373 139.744C29.5657 138.879 29.9601 138.606 29.9601 138.606C32.4491 137.092 34.5844 134.805 34.5521 132.25C32.8268 132.408 31.1004 132.511 29.3685 132.557C27.3611 135.845 24.1463 138.068 20.929 139.801C20.929 139.801 20.3568 139.971 19.9227 139.167ZM63.2563 142.567C63.6254 142.387 64.0066 142.226 64.347 141.998C64.9596 140.08 65.3529 138.118 65.6171 136.139C64.4331 136.607 63.2158 136.925 61.9939 137.177C62.5238 138.92 62.9471 140.733 63.2563 142.567ZM53.4947 115.584C54.0676 116.181 54.6076 116.804 55.131 117.443C55.6312 117.399 56.1249 117.316 56.6271 117.295C56.204 115.813 55.1644 114.492 53.8805 113.358C53.8254 114.105 53.7173 114.854 53.4947 115.584ZM56.5803 119.388C57.6919 121.002 58.6551 122.724 59.4032 124.579C59.4032 124.579 59.3812 124.678 59.398 124.716C59.9808 124.534 60.5597 124.342 61.1424 124.158C61.1754 124.059 61.2195 123.971 61.2195 123.971C63.2095 122.814 65.2352 121.937 66.8609 120.72C63.6908 119.608 60.1589 119.209 56.5803 119.388ZM62.8308 117.64C63.0511 117.673 63.2736 117.695 63.4918 117.739C63.4877 117.717 63.4697 117.684 63.4587 117.662C63.2493 117.662 63.0401 117.652 62.8308 117.64ZM67.8966 129.689C69.9684 128.232 72.0786 126.825 74.2612 125.523C74.2603 125.522 74.2281 125.512 74.2281 125.512C73.3445 124.495 72.3366 123.633 71.2497 122.884C69.806 123.404 68.3768 123.942 66.9236 124.437C67.0767 124.675 67.2011 124.934 67.2011 124.934C67.5658 126.501 67.782 128.09 67.8966 129.689ZM69.0901 131.355C70.1897 132.357 71.5132 133.167 72.9639 133.833C72.684 132.438 72.153 131.018 71.4617 129.701C70.653 130.229 69.8833 130.806 69.0901 131.355ZM61.2526 110.589C62.8012 111.971 64.1025 113.638 64.8757 115.557C66.3429 115.431 67.76 115.086 68.9827 114.395C67.8067 112.428 66.3215 110.634 64.6647 108.966C63.6192 109.723 62.4548 110.23 61.2526 110.589ZM65.586 118.221C67.6409 118.775 69.5951 119.592 71.3982 120.666C71.4863 120.633 71.5887 120.599 71.6835 120.566C71.6064 120.439 71.4906 120.257 71.4906 120.257C71.1072 118.83 70.586 117.472 69.9445 116.172C68.5384 116.937 67.0082 117.362 65.4522 117.552C65.4963 117.778 65.5508 117.993 65.586 118.221ZM62.6356 104.442C64.3417 105.807 65.944 107.273 67.3613 108.885C68.5999 107.347 68.9817 105.239 68.9423 103.039C68.0047 103.648 67.0832 104.341 66.1548 105.053C66.1548 105.053 65.8122 105.282 65.2029 104.496C64.6454 103.78 64.8932 103.437 64.8932 103.437C66.0824 102.502 67.35 101.567 68.7228 100.776C67.3072 100.513 65.882 100.35 64.4566 100.255C64.0952 101.734 63.5162 103.164 62.6356 104.442ZM68.6787 110.478C70.8001 113.222 72.4581 116.286 73.4442 119.708C73.4442 119.708 73.4222 119.876 73.4332 119.945C78.9856 117.931 84.5392 115.862 90.154 113.972C89.5932 113.191 88.9961 112.436 88.3648 111.709C87.7125 110.958 87.0259 110.227 86.3011 109.541C86.2791 109.574 86.2461 109.655 86.2461 109.655C83.347 110.516 80.7865 112.499 78.1541 114.469C78.1541 114.469 77.7167 114.76 77.1174 113.964C76.5709 113.24 76.917 112.832 76.917 112.832C79.24 111.059 81.718 109.251 84.5925 108.126C83.0518 106.857 81.4282 105.688 79.6736 104.701C77.2132 105.093 74.9689 106.597 73.2651 108.584C73.2651 108.584 72.9644 108.89 72.1942 108.271C71.4825 107.699 71.7105 107.249 71.7105 107.249C73.1325 105.579 74.9423 104.216 76.993 103.381C75.363 102.637 73.6931 101.991 71.9715 101.5C71.6255 101.613 71.2951 101.775 70.9612 101.933C71.1805 104.933 70.6745 108.049 68.6787 110.478ZM73.4956 122.08C74.2878 122.705 75.0413 123.392 75.7383 124.159C75.7383 124.159 75.8322 124.373 75.9005 124.573C81.0892 121.586 86.4959 118.963 91.9193 116.533C91.7881 116.411 91.6219 116.259 91.6219 116.259C91.5337 116.098 91.4192 115.953 91.3211 115.796C85.3716 117.791 79.4374 119.933 73.4956 122.08ZM93.5256 115.81C95.642 114.872 97.7704 113.99 99.8996 113.085C97.6953 113.716 95.5067 114.433 93.3192 115.145C93.3412 115.178 93.3741 115.222 93.3962 115.255C93.3962 115.255 93.4793 115.532 93.5256 115.81Z" fill="#718A1B"/>
<path d="M90.3943 7.3294C89.4898 7.43958 89.4435 8.03549 89.4435 8.03549C89.8798 11.6637 90.7724 15.4689 93.0987 18.5401C92.5059 20.1682 91.9719 21.8132 91.4874 23.4764C89.0979 22.5718 87.7506 19.7481 87.2514 16.8775C87.2514 16.8775 87.1413 16.4135 86.164 16.5358C85.2528 16.6482 85.2187 17.208 85.2187 17.208C85.7321 20.6204 87.5662 24.0467 90.9522 25.441C90.1181 28.5806 89.4329 31.7651 88.9025 34.9834C88.9015 34.9828 88.8804 34.9612 88.8804 34.9612C86.7787 34.2164 84.9173 33.0411 83.2949 31.5565C83.3003 31.5534 83.3391 31.5457 83.3391 31.5457C84.3131 28.8978 84.3526 26.1766 84.7111 23.7114C84.7111 23.7114 84.7333 23.3157 83.7604 23.1526C82.8636 23.0039 82.684 23.4095 82.684 23.4095C82.3358 25.6845 82.2598 27.8906 81.7222 29.8487C79.4677 27.2357 77.7654 24.003 76.6206 20.5C78.453 18.556 79.6536 16.2361 80.7999 14.0491C80.7999 14.0491 80.9573 13.6846 80.0825 13.2186C79.2815 12.7911 78.9896 13.0874 78.9896 13.0874C78.0266 14.8863 77.115 16.6549 75.9549 18.1377C75.5109 16.373 75.1539 14.5861 74.9699 12.8026C74.9699 12.8026 74.7948 11.3243 73.8255 11.3793C72.9022 11.4344 72.9143 13.002 72.9143 13.002C73.1776 15.8901 73.8299 18.7968 74.7932 21.5824C72.7049 21.7851 70.4786 20.8285 68.5132 19.5266C68.5132 19.5266 68.143 19.3152 67.5679 20.1184C67.0379 20.8599 67.3629 21.2287 67.3629 21.2287C69.686 22.8292 72.5572 23.8951 75.4932 23.4888C76.1213 25.0009 76.8632 26.4427 77.7137 27.8105C74.9976 28.2534 72.0144 27.2431 69.5436 25.59C69.5436 25.59 69.0676 25.308 68.4848 26.1024C67.9438 26.8395 68.3856 27.2863 68.3856 27.2863C71.4174 29.3733 75.2705 30.478 78.9358 29.5811C81.3175 32.794 84.3635 35.4068 88.1764 36.8572C88.1764 36.8572 88.4077 36.8626 88.6204 36.8572C87.7389 42.7787 87.2756 48.7705 86.9979 54.7069C86.8359 54.6298 86.6332 54.5304 86.6332 54.5304C84.7864 54.2637 82.9709 53.7833 81.2072 53.1582C80.2707 52.8254 79.3386 52.4541 78.4345 52.0308C78.4565 51.9977 78.5226 51.9427 78.5226 51.9427C78.2625 48.9299 79.1727 45.8212 80.0428 42.6508C80.0428 42.6508 80.1529 42.1374 79.1944 41.8708C78.3206 41.6273 78.0671 42.0988 78.0671 42.0988C77.2672 44.9092 76.4908 47.8772 76.4956 50.9639C74.7504 49.9944 73.0687 48.9108 71.508 47.6389C70.9726 45.2057 71.5522 42.5665 72.7778 40.2542C72.7778 40.2542 72.953 39.8618 72.0948 39.3716C71.3026 38.9187 70.9674 39.2946 70.9674 39.2946C69.9328 41.2289 69.3264 43.4117 69.299 45.6259C68.0105 44.381 66.7986 43.0633 65.7122 41.6405C65.613 39.4794 66.2243 37.2298 66.885 34.9275C66.885 34.9275 66.9732 34.5242 66.0202 34.2443C65.1498 33.9876 64.9217 34.3435 64.9217 34.3435C64.4865 35.7922 64.0799 37.3141 63.8452 38.8813C62.8063 37.2131 61.864 35.4915 61.1407 33.6831C61.1407 33.6831 60.4555 32.0095 59.5466 32.311C58.6509 32.6084 59.2336 34.4461 59.2336 34.4461C59.6864 35.5857 60.2154 36.6938 60.788 37.7825C59.0594 37.6228 57.328 37.9843 55.8117 38.4889C55.8117 38.4889 55.4702 38.641 55.7677 39.5874C56.0376 40.4512 56.4222 40.4643 56.4222 40.4643C58.5756 39.865 60.725 39.2754 62.2239 40.1624C63.1086 41.5696 64.0872 42.9095 65.1562 44.1878C63.2841 44.5503 61.5837 45.4893 60.1458 46.6016C60.1458 46.6016 59.8615 46.8617 60.4763 47.6439C61.0349 48.3557 61.3875 48.2357 61.3875 48.2357C63.0746 46.9924 64.9327 46.0114 66.7679 46.0778C68.0772 47.447 69.5163 48.6784 71.0154 49.8298C68.5933 50.8214 66.5596 52.5815 65.0769 54.6864C65.0769 54.6864 64.817 55.1184 65.6466 55.6715C66.398 56.1728 66.7511 55.8709 66.7511 55.8709C68.3447 53.6439 70.5097 51.8415 73.0197 51.2874C74.7428 52.4324 76.5449 53.4428 78.4343 54.2594C76.1924 55.4436 74.2968 57.2037 72.7008 59.0705C72.7008 59.0705 72.3748 59.5037 73.1339 60.1472C73.8247 60.7322 74.2554 60.4202 74.2554 60.4202C76.2738 58.1344 78.5445 56.0825 81.2074 55.3131C82.8823 55.8629 84.5986 56.2861 86.3486 56.5431C86.3486 56.5431 86.6351 56.5211 86.9128 56.4661C86.2925 70.9972 86.6395 85.5607 84.3734 99.7314C84.3734 99.7314 84.0352 102.834 84.8747 102.84C85.744 102.847 86.3891 100.056 86.3891 100.056C88.2823 88.1618 88.3956 76.1184 88.7122 64.1581C88.7783 64.1801 88.928 64.257 88.928 64.257C92.4736 64.5908 95.9321 64.1688 99.2619 63.1981C101.121 66.5338 104.717 68.2575 108.235 68.9659C108.235 68.9659 108.797 69.0431 108.981 68.0658C109.147 67.18 108.662 66.9499 108.662 66.9499C105.604 66.2612 102.6 64.9696 101.227 62.56C103.246 61.8306 105.196 60.8757 107.091 59.7874C108.96 62.5591 111.913 64.3822 115.039 65.2475C115.039 65.2475 115.548 65.3464 115.791 64.3824C116.01 63.5065 115.597 63.2721 115.597 63.2721C112.871 62.4877 110.323 60.97 108.833 58.7232C110.127 57.8958 111.383 57.0031 112.602 56.0471C115.716 58.0783 119.533 58.9204 123.209 58.4213C123.209 58.4213 123.793 58.3078 123.619 57.3228C123.462 56.4359 122.93 56.4008 122.93 56.4008C119.973 56.8063 116.893 56.1605 114.322 54.6642C116.452 52.8464 118.464 50.884 120.294 48.8224C120.294 48.8224 121.531 47.3693 120.761 46.7159C120.084 46.1408 118.757 47.4506 118.757 47.4506C117.885 48.418 116.962 49.3578 116.024 50.2803C115.453 48.9127 115.77 47.0837 116.046 45.1676C116.046 45.1676 116.057 44.8239 115.084 44.6609C114.191 44.5121 114.014 44.826 114.014 44.826C113.607 46.9482 113.274 49.4511 114.446 51.7436C111.247 54.6795 107.746 57.241 104.021 59.1226C103.542 56.9945 103.999 54.6424 104.933 52.4723C104.933 52.4723 105.072 52.0823 104.176 51.6636C103.351 51.278 103.054 51.6529 103.054 51.6529C101.914 54.2197 101.405 57.1733 102.137 60.0164C99.979 60.9485 97.7659 61.6742 95.5043 62.0492C95.2002 59.8769 95.782 57.5648 96.8196 55.4674C96.8196 55.4674 96.9695 55.0959 96.0969 54.6299C95.2937 54.2035 94.9866 54.5529 94.9866 54.5529C93.796 56.8976 93.1651 59.599 93.5005 62.296C92.0558 62.415 90.6017 62.4065 89.1336 62.2412C89.1336 62.2412 88.9198 62.2851 88.7744 62.3071C88.8405 60.1458 88.8845 57.9812 88.9793 55.8279C89.0785 53.6735 89.2548 51.5136 89.4068 49.3544C89.4399 49.3616 89.5324 49.4095 89.5324 49.4095C93.2007 49.3764 96.7327 48.5712 100.065 47.2004C103.267 49.7419 107.8 50.1202 111.419 48.2757C111.419 48.2757 111.976 47.9552 111.463 47.0915C111.001 46.3225 110.489 46.4658 110.489 46.4658C107.917 47.811 104.615 47.7035 102.176 46.1981C104.441 45.0808 106.605 43.7302 108.644 42.1899C112.654 43.6044 117.132 42.7385 120.492 40.197C120.492 40.197 121.01 39.7573 120.361 38.9899C119.782 38.3035 119.251 38.5747 119.251 38.5747C116.772 40.4771 113.521 41.3052 110.563 40.6529C112.034 39.4172 113.454 38.1198 114.77 36.7469C114.77 36.7469 115.8 35.6221 115.061 34.9423C114.402 34.3375 113.29 35.3233 113.29 35.3233C110.59 38.1052 107.563 40.629 104.317 42.6683C104.251 40.6291 105.311 38.4625 106.407 36.3085C106.407 36.3085 106.581 35.8987 105.706 35.4316C104.906 35.0041 104.584 35.3431 104.584 35.3431C103.234 37.8191 101.976 40.7122 102.421 43.8152C100.923 44.6361 99.3753 45.2994 97.7976 45.8592C96.9117 43.5385 97.3339 40.7581 97.9233 38.0135C97.9233 38.0135 97.9894 37.5572 97.0242 37.3303C96.1406 37.122 95.914 37.5586 95.914 37.5586C95.2386 40.385 94.865 43.5292 95.8809 46.4974C93.8179 47.0615 91.7006 47.3866 89.544 47.38C89.9329 42.5024 90.4894 37.6492 91.3773 32.8842C95.0244 33.4076 99.1512 32.796 101.836 29.9634C101.836 29.9634 102.244 29.4862 101.443 28.8703C100.731 28.3216 100.345 28.6137 100.345 28.6137C98.4834 30.8128 95.0097 31.2044 91.77 30.8514C92.1843 28.8531 92.6438 26.8667 93.1878 24.9128C93.2098 24.923 93.2539 24.979 93.2539 24.979C98.5471 25.5299 104.923 26.0247 109.258 22.2804C109.258 22.2804 109.921 21.6513 109.17 20.9593C108.516 20.3578 107.918 20.7996 107.918 20.7996C104.702 23.8756 99.0288 23.2872 93.7977 22.9401C94.1679 21.7305 94.5404 20.5232 94.9707 19.3363C99.9836 18.9584 105.336 18.0339 109.41 14.7131C109.41 14.7131 110.049 14.1466 109.354 13.4092C108.743 12.7558 108.108 13.159 108.108 13.159C104.908 15.8821 100.38 16.7144 95.8323 17.173C96.1253 16.4414 96.3843 15.6967 96.7038 14.9754C96.7038 14.9754 98.5394 10.8837 97.757 10.4661C96.8602 9.98686 94.8419 14.1499 94.8419 14.1499C94.5433 14.8275 94.3042 15.526 94.0277 16.211C92.5604 13.7955 91.89 10.8097 91.4826 7.77861C91.4826 7.77861 91.3826 7.21372 90.3943 7.3294Z" fill="#718A1B"/>
<path d="M93.3001 5.34677C93.3001 5.90748 93.1897 6.46276 92.9751 6.98079C92.7606 7.49882 92.446 7.9695 92.0496 8.36598C91.6531 8.76246 91.1824 9.07697 90.6644 9.29154C90.1463 9.50611 89.5911 9.61641 89.0304 9.6164C88.4697 9.6164 87.9145 9.50611 87.3965 9.29154C86.8785 9.07696 86.4078 8.76246 86.0113 8.36598C85.6148 7.9695 85.3003 7.49881 85.0857 6.98079C84.8712 6.46277 84.7607 5.90748 84.7607 5.34677C84.7608 4.2144 85.2106 3.12841 86.0113 2.3277C86.812 1.52699 87.898 1.07716 89.0304 1.07715C89.5911 1.07714 90.1462 1.18758 90.6642 1.40214C91.1823 1.61671 91.653 1.93123 92.0494 2.3277C92.4459 2.72417 92.7604 3.19487 92.975 3.71289C93.1896 4.23091 93.3001 4.78607 93.3001 5.34677Z" fill="#FF5555"/>
<path d="M88.8273 1.99261C87.9336 2.40845 87.1076 2.81742 86.5185 3.4191C85.9179 3.99474 85.5749 4.86745 85.5905 5.71227C85.6076 6.59318 85.892 7.48428 86.4118 8.17247C86.7726 8.68625 87.4252 9.01281 88.1028 9.11376C89.0117 9.23834 89.9574 9.13961 90.7653 8.78391C91.5179 8.46001 92.1606 7.83829 92.5683 7.10035C92.9524 6.38896 93.1156 5.54477 92.9309 4.80743C92.7333 3.96631 92.2676 3.16726 91.6372 2.56722C91.5488 2.47271 91.4422 2.39284 91.321 2.32324C91.321 2.32324 90.3782 1.81554 90.4928 1.21009C90.6732 0.254692 92.1176 0.960081 92.1176 0.960081C92.3307 1.08552 92.5368 1.23416 92.7327 1.40857C93.5961 2.22048 94.2142 3.28477 94.4838 4.44508C94.7467 5.62849 94.5354 6.84942 93.9666 7.86754C93.4013 8.90275 92.5061 9.75531 91.4066 10.2444C90.2872 10.7315 89.0527 10.8663 87.8777 10.6927C86.8263 10.5467 85.8236 10.0131 85.1362 9.12975C84.4016 8.14704 84.0112 6.94526 83.996 5.73745C83.9788 4.45325 84.4814 3.19219 85.4035 2.27906C86.2446 1.48176 87.2173 0.966534 88.1521 0.53506C88.1521 0.53506 88.9623 0.331489 89.2733 0.905413C89.5912 1.49222 88.8273 1.99261 88.8273 1.99261Z" fill="#DE8787"/>
<path d="M103.964 10.2153C103.723 10.7215 103.385 11.1754 102.968 11.5509C102.552 11.9264 102.065 12.2161 101.537 12.4037C101.009 12.5912 100.448 12.6729 99.8885 12.6439C99.3285 12.6149 98.7798 12.4758 98.2735 12.2348C97.7673 11.9938 97.3134 11.6555 96.9379 11.2391C96.5625 10.8227 96.2727 10.3364 96.0852 9.80797C95.8976 9.27956 95.816 8.71938 95.8449 8.15942C95.8739 7.59947 96.0129 7.05063 96.2539 6.54438C96.7407 5.52198 97.6137 4.73483 98.6809 4.35608C99.748 3.97734 100.922 4.03803 101.944 4.52481C102.451 4.76583 102.904 5.10419 103.28 5.52061C103.655 5.93703 103.945 6.42334 104.133 6.95175C104.32 7.48015 104.402 8.04034 104.373 8.60029C104.344 9.16025 104.205 9.70901 103.964 10.2153Z" fill="#FF5555"/>
<path d="M101.366 5.26777C100.38 5.25904 99.4586 5.27324 98.6681 5.56323C97.8784 5.8248 97.1935 6.4653 96.8443 7.23476C96.4812 8.03751 96.3549 8.96431 96.5283 9.80912C96.6333 10.4281 97.0821 11.0035 97.6505 11.3859C98.4176 11.8891 99.3139 12.2065 100.196 12.2327C101.015 12.2638 101.863 11.9787 102.548 11.4877C103.2 11.0104 103.711 10.3184 103.861 9.5733C104.044 8.72891 103.967 7.80727 103.656 6.99451C103.617 6.87114 103.555 6.75321 103.475 6.6383C103.475 6.6383 102.842 5.77461 103.206 5.27719C103.78 4.49213 104.78 5.74994 104.78 5.74994C104.919 5.95479 105.041 6.17762 105.143 6.4193C105.574 7.52351 105.674 8.75015 105.419 9.91367C105.147 11.0952 104.432 12.1067 103.481 12.7814C102.525 13.4731 101.35 13.8581 100.147 13.827C98.9274 13.7856 97.7548 13.3766 96.7685 12.7148C95.882 12.1309 95.206 11.2182 94.9651 10.1251C94.7243 8.92202 94.8885 7.66915 95.3939 6.57208C95.9305 5.40521 96.9264 4.48267 98.1514 4.0546C99.2536 3.6963 100.353 3.64922 101.383 3.66153C101.383 3.66153 102.202 3.82602 102.236 4.47787C102.271 5.14435 101.366 5.26777 101.366 5.26777Z" fill="#DE8787"/>
<path d="M119.193 34.5516C118.952 35.0578 118.614 35.5117 118.197 35.8872C117.781 36.2627 117.294 36.5525 116.766 36.74C116.238 36.9275 115.677 37.0092 115.117 36.9802C114.558 36.9512 114.009 36.8121 113.503 36.5711C112.996 36.3301 112.542 35.9918 112.167 35.5754C111.791 35.159 111.502 34.6727 111.314 34.1443C111.127 33.6159 111.045 33.0557 111.074 32.4957C111.103 31.9358 111.242 31.3869 111.483 30.8807C111.97 29.8583 112.843 29.0711 113.91 28.6924C114.977 28.3136 116.151 28.3743 117.173 28.8611C117.68 29.1021 118.133 29.4405 118.509 29.8569C118.884 30.2733 119.174 30.7596 119.362 31.288C119.549 31.8165 119.631 32.3766 119.602 32.9366C119.573 33.4966 119.434 34.0453 119.193 34.5516Z" fill="#FF5555"/>
<path d="M116.595 29.6037C115.609 29.595 114.688 29.6092 113.897 29.8992C113.107 30.1607 112.422 30.8012 112.073 31.5707C111.71 32.3734 111.584 33.3002 111.757 34.1451C111.862 34.7641 112.311 35.3394 112.88 35.7219C113.647 36.2251 114.543 36.5425 115.425 36.5686C116.244 36.5997 117.092 36.3146 117.777 35.8236C118.429 35.3464 118.94 34.6544 119.09 33.9092C119.273 33.0648 119.196 32.1432 118.885 31.3305C118.846 31.2071 118.784 31.0891 118.704 30.9742C118.704 30.9742 118.071 30.1105 118.435 29.6131C119.009 28.8281 120.009 30.0859 120.009 30.0859C120.148 30.2907 120.27 30.5136 120.372 30.7552C120.803 31.8594 120.903 33.0861 120.648 34.2496C120.376 35.4311 119.661 36.4426 118.71 37.1174C117.754 37.809 116.579 38.194 115.376 38.1629C114.156 38.1215 112.984 37.7125 111.998 37.0507C111.111 36.4669 110.435 35.5541 110.194 34.461C109.953 33.258 110.117 32.0051 110.623 30.908C111.159 29.7411 112.155 28.8186 113.38 28.3905C114.483 28.0322 115.582 27.9852 116.612 27.9975C116.612 27.9975 117.431 28.162 117.465 28.8138C117.5 29.4803 116.595 29.6037 116.595 29.6037Z" fill="#DE8787"/>
<path d="M76.1958 8.06487C76.5315 8.51397 76.7755 9.02485 76.9138 9.56824C77.0521 10.1116 77.082 10.6769 77.0018 11.2319C76.9216 11.7868 76.7329 12.3205 76.4464 12.8025C76.16 13.2845 75.7812 13.7053 75.3321 14.041C74.883 14.3767 74.3723 14.6208 73.8289 14.759C73.2855 14.8973 72.7202 14.9272 72.1653 14.847C71.6104 14.7668 71.0766 14.5781 70.5946 14.2916C70.1126 14.0052 69.6917 13.6265 69.356 13.1774C68.6781 12.2704 68.3882 11.1312 68.5502 10.0105C68.7121 8.88978 69.3127 7.8793 70.2196 7.20133C70.6688 6.86563 71.1795 6.62171 71.7229 6.48343C72.2663 6.34515 72.8316 6.31527 73.3865 6.39546C73.9415 6.47565 74.4752 6.66437 74.9572 6.95082C75.4392 7.23728 75.8601 7.61576 76.1958 8.06487Z" fill="#FF5555"/>
<path d="M70.6099 8.05097C70.143 8.91911 69.7263 9.74118 69.6146 10.5758C69.4782 11.3964 69.726 12.3008 70.2442 12.9682C70.7854 13.6635 71.5466 14.207 72.375 14.447C72.9716 14.6425 73.6898 14.5134 74.293 14.1885C75.0956 13.7441 75.794 13.0989 76.2281 12.3303C76.637 11.6203 76.7796 10.7375 76.6643 9.90235C76.546 9.10262 76.1714 8.32869 75.582 7.84869C74.9201 7.29329 74.0687 6.93209 73.2046 6.82888C73.0771 6.80616 72.9439 6.80599 72.8052 6.82278C72.8052 6.82278 71.7461 6.98058 71.4754 6.42706C71.0479 5.5538 72.6271 5.25402 72.6271 5.25402C72.8729 5.22693 73.127 5.22256 73.3883 5.24498C74.566 5.37839 75.6982 5.8608 76.6089 6.62875C77.5279 7.41923 78.0897 8.52368 78.2436 9.67968C78.4106 10.8473 78.2041 12.0661 77.6162 13.1161C77.0112 14.1765 76.1031 15.0235 75.0581 15.588C74.1284 16.1005 73.0059 16.2735 71.9264 15.9775C70.7497 15.6301 69.7175 14.9013 68.9822 13.943C68.1996 12.9246 67.8472 11.6137 68.039 10.3302C68.2354 9.18803 68.706 8.19303 69.1964 7.28773C69.1964 7.28773 69.7235 6.6396 70.3162 6.91314C70.9221 7.19283 70.6099 8.05097 70.6099 8.05097Z" fill="#DE8787"/>
<path d="M61.8726 27.8457C62.2083 28.2948 62.4523 28.8057 62.5906 29.3491C62.7289 29.8925 62.7587 30.4577 62.6785 31.0127C62.5984 31.5676 62.4096 32.1013 62.1232 32.5834C61.8367 33.0654 61.458 33.4862 61.0089 33.8218C60.5598 34.1575 60.0491 34.4016 59.5057 34.5399C58.9623 34.6781 58.397 34.708 57.8421 34.6278C57.2871 34.5476 56.7534 34.3589 56.2714 34.0725C55.7894 33.786 55.3685 33.4073 55.0328 32.9582C54.3549 32.0512 54.065 30.9121 54.2269 29.7913C54.3889 28.6706 54.9894 27.6601 55.8964 26.9822C56.3455 26.6465 56.8563 26.4025 57.3997 26.2643C57.9431 26.126 58.5084 26.0961 59.0633 26.1763C59.6182 26.2565 60.152 26.4452 60.634 26.7316C61.116 27.0181 61.5369 27.3966 61.8726 27.8457Z" fill="#FF5555"/>
<path d="M56.2861 27.8323C55.8193 28.7004 55.4026 29.5225 55.2909 30.3571C55.1545 31.1778 55.4022 32.0822 55.9205 32.7495C56.4617 33.4448 57.2229 33.9883 58.0513 34.2283C58.6479 34.4238 59.3661 34.2947 59.9693 33.9698C60.7719 33.5255 61.4703 32.8802 61.9044 32.1116C62.3133 31.4016 62.4559 30.5188 62.3406 29.6837C62.2223 28.8839 61.8477 28.11 61.2583 27.63C60.5964 27.0746 59.745 26.7134 58.8808 26.6102C58.7534 26.5875 58.6202 26.5873 58.4815 26.6041C58.4815 26.6041 57.4224 26.7619 57.1516 26.2084C56.7241 25.3351 58.3034 25.0353 58.3034 25.0353C58.5492 25.0082 58.8033 25.0039 59.0646 25.0263C60.2422 25.1597 61.3745 25.6421 62.2851 26.4101C63.2042 27.2005 63.7659 28.305 63.9199 29.461C64.0869 30.6286 63.8803 31.8474 63.2925 32.8974C62.6875 33.9578 61.7794 34.8048 60.7343 35.3693C59.8047 35.8818 58.6822 36.0548 57.6027 35.7588C56.426 35.4115 55.3938 34.6826 54.6585 33.7243C53.8759 32.7059 53.5234 31.395 53.7153 30.1115C53.9116 28.9693 54.3822 27.9743 54.8727 27.069C54.8727 27.069 55.3998 26.4209 55.9924 26.6944C56.5984 26.9741 56.2861 27.8323 56.2861 27.8323Z" fill="#DE8787"/>
<path d="M194.454 86.8261C194.333 86.5375 194.11 86.2489 193.662 86.2587C193.568 86.2615 193.51 86.2971 193.433 86.3166C193.077 85.6791 191.898 85.7822 191.898 85.7822C187.302 86.6806 182.585 87.4559 178.058 89.1549C173.479 90.8334 169.042 94.0065 167.22 98.7181C167.22 98.7181 167.15 99.1878 167.333 99.5638C162.425 101.111 157.382 102.288 152.249 103.07C155.224 100.433 158.104 97.6074 160.723 94.568C161.093 95.1497 161.878 95.0604 161.878 95.0604C166.705 93.3063 171.039 89.9896 173.601 85.4668C175.942 81.2615 175.833 75.937 173.314 71.8764C173.314 71.8764 172.415 70.5434 171.594 71.2212C171.547 71.2523 171.558 71.3074 171.526 71.3445C171.47 71.2958 171.402 71.2739 171.326 71.2475C171.309 71.1474 171.331 71.0551 171.275 70.9482C170.922 70.1736 170.033 70.3805 170.033 70.3805C161.828 74.2215 157.174 83.7616 159.302 92.5375C159.302 92.5375 159.409 92.7411 159.462 92.8716C156.513 96.3214 153.191 99.5332 149.775 102.523C149.775 102.523 149.41 102.968 149.313 103.439C144.218 104.083 139.069 104.438 133.929 104.485C130.349 104.511 126.746 104.634 123.146 104.864C127.63 102.632 131.864 99.8199 135.622 96.4944C135.961 96.8662 136.546 96.9032 136.546 96.9032C141.864 96.2237 146.753 92.996 149.196 88.1607C151.447 83.5812 152.158 78.5389 152.664 73.642C152.664 73.642 152.793 72.0657 151.804 71.9637C151.663 71.9497 151.564 72.0262 151.453 72.0836C151.061 71.8382 150.572 71.9024 150.572 71.9024C141.429 75.311 135.059 84.4404 135.152 94.1768C130.519 98.4506 125.038 101.944 119.261 104.456C119.261 104.456 118.702 104.804 118.45 105.256C107.804 106.288 97.3157 108.571 87.7848 113.396C87.7848 113.396 84.7136 115.177 85.3333 115.882C85.8605 116.481 88.7038 115.203 88.7038 115.203C100.312 109.284 113.562 107.291 126.866 106.725C127.207 106.956 127.574 107.074 127.574 107.074C132.801 107.886 137.737 109.88 142.217 112.694C142.217 112.695 142.209 112.733 142.209 112.733C142.534 122.219 149.897 131.151 159.351 132.236C159.351 132.236 159.759 132.188 160.062 131.945C160.263 132.04 160.469 132.075 160.667 131.981C161.007 131.818 161.032 131.386 160.972 130.939C161.625 130.666 161.695 129.443 161.695 129.443C161.388 119.413 153.775 109.765 143.748 110.153C143.748 110.153 143.137 110.272 142.903 110.702C140.066 108.97 137.041 107.569 133.883 106.539C133.906 106.539 133.928 106.533 133.952 106.535C140.98 106.478 148.039 105.876 154.97 104.659C155.357 104.861 155.779 104.937 155.779 104.937C160.908 104.945 165.948 105.913 170.832 107.546C171.749 112.821 175.078 117.552 179.349 120.682C184.027 124.121 190.786 124.236 195.202 120.497C195.202 120.497 195.841 119.718 195.419 119.147C195.469 119.124 195.513 119.116 195.564 119.081C196.289 118.565 195.524 117.209 195.524 117.209C192.899 113.24 190.64 108.756 186.936 105.283C182.678 101.504 176.455 101.538 171.539 104.026C171.539 104.026 170.588 104.705 171.083 105.437C171.091 105.446 171.102 105.454 171.121 105.47C171.116 105.474 171.111 105.477 171.102 105.483C167.955 104.464 164.733 103.732 161.458 103.311C164.284 102.63 167.086 101.86 169.833 100.928C170.202 101.234 170.657 101.421 170.657 101.421C175.544 102.771 180.905 102.271 185.465 100.052C190.363 97.6566 193.919 92.8126 194.584 87.4026C194.584 87.4026 194.572 87.1146 194.454 86.8261ZM192.303 88.5749C191.347 92.6846 188.406 96.3555 184.573 98.2131C180.97 99.9671 176.763 100.523 172.817 99.8093C175.786 98.6768 178.718 97.4402 181.551 95.974C181.551 95.974 182.719 95.3363 183.795 94.5873C184.082 94.7507 184.342 94.6895 184.342 94.6895C187.424 93.0178 189.795 90.5715 192.303 88.5749ZM189.272 88.4008C187.315 90.0916 185.478 91.7928 183.381 92.8993C183.381 92.8993 183.347 92.9609 183.326 92.9693C182.012 93.4718 180.615 94.1626 180.615 94.1626C176.982 96.0516 173.204 97.6288 169.33 98.9496C170.904 95.2581 174.761 92.634 178.782 91.0675C182.111 89.7993 185.672 89.0951 189.272 88.4008ZM193.108 117.223C186.811 112.589 179.879 108.602 172.527 106.013C172.501 105.952 172.475 105.915 172.442 105.863C172.443 105.863 172.464 105.86 172.464 105.86C176.789 103.694 182.245 103.547 185.553 106.782C188.628 109.596 190.706 113.461 193.108 117.223ZM192.988 119.635C189.437 122.041 184.161 121.726 180.57 119.042C177.032 116.388 174.158 112.57 173.082 108.388C180.079 111.047 186.739 114.994 192.82 119.538C192.82 119.538 192.96 119.618 192.988 119.635ZM172.298 74.2795C173.714 77.4749 173.566 81.3995 171.819 84.4674C169.766 88.1476 166.259 90.9212 162.313 92.6239C166.867 86.9241 170.428 80.5561 171.842 73.4205C172.004 73.7005 172.165 73.9829 172.298 74.2795ZM169.935 72.7742C169.933 72.7987 169.878 72.9334 169.878 72.9334C168.647 79.5068 165.352 85.4521 161.085 90.8567C159.861 83.7871 163.581 76.2115 169.935 72.7742ZM150.544 74.1623C150.036 78.7633 149.363 83.3043 147.373 87.2554C145.53 91.0295 141.805 93.7059 137.675 94.6289C142.397 89.9794 146.182 84.4784 148.371 78.2453C148.371 78.2453 149.045 76.1827 148.049 75.8977C147.215 75.6586 146.453 77.5729 146.453 77.5729C144.579 82.978 141.351 87.8063 137.339 92.0045C138.058 84.2576 143.29 77.1453 150.544 74.1623ZM158.286 122.888C158.897 124.468 159.326 126.132 159.529 127.818C155.879 121.647 150.964 116.193 145.111 112.14C151.029 112.305 155.985 116.985 158.286 122.888ZM158.495 130.056C151.189 128.754 145.29 121.716 144.373 114.17C150.144 118.29 155.02 123.798 158.495 130.056Z" fill="#677821"/>
<path d="M192.274 89.1849C191.353 88.1242 190.262 89.9097 189.459 90.3501C185.148 94.5344 179.266 96.2184 173.992 98.8592C171.651 99.4287 173.446 101.039 175.075 100.493C180.122 100.798 185.503 99.1273 189.063 95.4485C190.535 93.7111 192.026 91.675 192.334 89.3746L192.291 89.2239L192.274 89.1849Z" fill="#7B9122"/>
<path d="M192.516 115.506C190.146 111.698 187.827 107.468 183.902 105.043C180.321 103.24 175.779 103.637 172.334 105.509C172.045 107.03 174.822 107.044 175.84 107.854C181.436 110.18 186.645 113.275 191.654 116.625C192.395 116.947 192.913 116.147 192.516 115.506Z" fill="#AFC15C"/>
<path d="M188.793 88.5229C187.842 87.751 186.435 88.6924 185.335 88.7078C181.065 89.7594 176.776 91.2173 173.098 93.6712C171.679 95.0321 169.814 96.372 169.309 98.3476C169.754 99.5601 171.307 98.5914 172.163 98.4059C176.606 96.5068 181.172 94.7515 185.301 92.2242C186.497 91.1463 188.304 90.3358 188.872 88.7734C188.864 88.6861 188.836 88.5993 188.793 88.5229Z" fill="#A1BB34"/>
<path d="M172.839 74.2444C172.63 73.2405 171.228 73.2925 171.186 74.3588C169.684 80.5792 166.431 86.2556 162.779 91.4149C162.274 92.4976 163.783 92.7409 164.39 92.1139C169.113 89.5741 173.289 85.0214 173.68 79.465C173.67 77.7079 173.472 75.8936 172.839 74.2444Z" fill="#95B134"/>
<path d="M170.049 73.0394C169.113 72.0055 167.943 73.6895 167.16 74.1839C162.495 77.9311 159.877 84.1555 160.573 90.1044C160.699 91.3861 162.159 90.7155 162.457 89.8978C165.919 84.8985 169.175 79.4286 170.125 73.338C170.116 73.2352 170.095 73.1325 170.049 73.0394Z" fill="#A3B53C"/>
<path d="M192.768 119.259C190.514 116.863 187.427 115.391 184.675 113.631C181.085 111.683 177.576 109.37 173.634 108.221C172.153 108.3 173.058 110.141 173.449 110.878C175.977 116.187 180.717 121.386 186.974 121.648C188.915 121.59 191.175 121.503 192.747 120.267C192.96 119.973 192.948 119.566 192.768 119.259Z" fill="#718A1B"/>
<path d="M158.248 121.766C156.126 116.832 151.712 112.575 146.261 111.789C145.202 111.686 145.25 113.069 146.127 113.357C150.852 117.221 155.041 121.683 158.418 126.776C159.011 127.756 160.166 126.759 159.678 125.881C159.344 124.465 158.814 123.102 158.248 121.766Z" fill="#9EB134"/>
<path d="M158.106 128.482C154.746 122.908 150.227 118.07 145.071 114.126C143.707 113.778 144.072 115.67 144.341 116.442C145.664 120.518 147.715 124.528 151.258 127.107C153.387 128.723 155.884 130.198 158.569 130.395C159.241 129.782 158.341 129.078 158.106 128.482Z" fill="#7F9327"/>
<path d="M150.388 73.9321C149.481 74.4824 147.531 74.4618 147.396 75.7879C147.729 76.3398 148.38 76.7759 148.005 77.5447C146.064 83.7179 142.282 89.1916 137.843 93.8451C137.5 95.6152 139.743 94.2645 140.634 93.9974C145.751 92.1607 148.577 86.9688 149.718 81.9406C150.275 79.3875 150.926 76.722 150.817 74.134L150.581 74.0232L150.388 73.9321Z" fill="#B6CB26"/>
<path d="M146.934 75.9052C143.392 77.3713 141.067 80.8761 139.28 84.1564C138.163 86.4382 137.172 88.9027 137.027 91.4563C137.752 92.713 138.845 90.9874 139.388 90.4061C142.822 86.2764 145.761 81.5547 147.313 76.4168C147.427 76.1239 147.06 76.0758 146.934 75.9052Z" fill="#9AB627"/>
<path d="M102.702 28.3112C102.197 28.3773 101.825 28.8235 101.825 28.8235C96.8018 37.967 96.5392 49.4791 102.616 57.9463C102.616 57.9463 102.791 58.1005 102.866 58.1854C102.932 63.704 103.461 69.1538 105.667 74.2413C105.667 74.2413 105.868 74.6093 106.1 74.9299C102.538 79.2936 99.5116 84.0795 97.258 89.2491C97.258 89.2491 95.7152 92.9828 96.7402 93.3487C97.5081 93.623 99.1259 90.0633 99.1259 90.0633C100.319 87.3171 101.737 84.6765 103.345 82.1494C103.645 82.0722 104.022 81.9897 104.022 81.9897C107.723 80.5079 111.623 79.7545 115.62 79.3875C115.92 80.0188 116.748 80.6289 116.748 80.6289C127.903 87.587 142.823 87.9904 154.063 81.1412C154.063 81.1412 154.633 80.6729 154.758 80.1562C155.226 80.068 155.662 79.8764 155.691 79.4213C155.746 78.5674 153.766 78.2028 153.766 78.2028C147.649 77.3577 141.719 74.426 135.308 72.8965C128.507 71.2477 120.814 72.4459 115.705 77.3202C115.705 77.3202 115.694 77.3421 115.683 77.3531C112.133 77.6771 108.627 78.282 105.229 79.4087C109.965 72.7943 116.009 67.0609 122.828 62.5442C123.785 61.9095 124.764 61.3113 125.743 60.7108C133.59 63.8078 142.755 63.5023 150.129 59.299C156.957 55.3639 162.084 48.8791 164.921 41.5691C164.921 41.5691 165.341 40.3543 165.239 39.5307C165.477 39.3302 165.636 39.1023 165.575 38.8246C165.386 37.9608 163.024 38.3066 163.024 38.3066C155.173 39.8146 146.981 40.3552 139.111 42.7932C132.009 44.9952 125.869 50.5045 124.035 57.7331C124.035 57.7331 123.897 58.7467 124.245 59.2418C123.394 59.7685 122.538 60.283 121.7 60.8361C116.43 64.3206 111.594 68.5082 107.443 73.2709C105.386 68.5916 104.946 63.3985 104.921 58.0006C105.427 57.7836 105.878 57.3285 105.878 57.3285C112.5 48.7872 112.487 35.6821 104.334 28.5701C104.334 28.5701 103.705 28.1926 103.201 28.4052C103.025 28.3281 102.859 28.2881 102.702 28.3112ZM103.345 30.389C110.096 36.3172 110.201 47.5398 104.934 55.1507C105.022 49.6192 105.339 43.9341 104.684 38.366C104.684 38.366 104.347 37.074 103.499 37.2615C102.695 37.4388 102.64 38.5992 102.64 38.5992C103.225 43.7507 102.949 49.1724 102.868 54.5814C98.8059 47.3408 99.3406 38.0345 103.345 30.389ZM163.276 40.336C163.188 40.5057 163.013 40.8197 163.013 40.8197C160.32 47.7331 155.492 53.8805 149.116 57.5243C142.839 61.1534 134.984 61.61 128.043 59.3408C137.04 54.1204 146.768 50.0659 156.352 45.6591C156.352 45.6591 158.775 44.3549 158.288 43.6323C157.82 42.9382 155.498 43.8031 155.498 43.8031C145.615 48.3407 135.457 52.5428 126.022 58.1395C127.584 51.7566 133.252 46.7669 139.727 44.7427C147.239 42.3922 155.302 41.8605 163.276 40.336ZM130.042 74.2583C131.654 74.3023 133.272 74.5151 134.836 74.8842C140.482 76.2393 146.031 78.8396 152.014 79.9569C141.78 85.7236 128.376 85.2605 118.268 79.1549C126.598 78.7769 135.342 80.0462 143.889 80.9425C143.889 80.9425 145.398 80.9258 145.409 80.0664C145.42 79.2323 144.111 78.8992 144.111 78.8992C135.958 77.9957 127.476 76.8125 119.202 77.1C122.285 75.05 126.146 74.1502 130.042 74.2583Z" fill="#88AA00"/>
<path d="M128.732 73.9826C125.387 73.9884 121.758 74.5906 119.142 76.7602C119.682 78.2434 122.039 77.2168 123.331 77.5993C130.221 77.8701 137.125 78.3907 143.953 79.4408C144.528 79.379 145.505 80.4411 144.334 80.3115C138.325 80.1212 132.303 79.0415 126.251 78.8225C123.882 78.8341 121.383 78.265 119.076 78.8545C118.06 79.8778 119.949 80.6314 120.692 80.9551C126.054 83.565 132.055 84.7156 138.003 84.3084C142.919 84.1405 147.878 82.7878 152.107 80.3258C152.514 79.041 150.491 79.3124 149.615 78.9239C143.98 77.4789 138.608 74.9884 132.841 74.0943C131.476 73.9561 130.102 73.9788 128.732 73.9826Z" fill="#D0DF6C"/>
<path d="M162.715 40.0616C154.623 41.2955 146.39 42.1437 138.578 44.706C132.824 46.7952 127.668 51.3687 125.803 57.2923C126.021 58.8155 127.749 57.7112 128.477 57.2425C137.295 52.5745 146.331 48.253 155.557 44.4336C156.157 44.3172 157.311 43.6189 157.709 44.0578C154.996 46.1163 151.609 47.1361 148.589 48.6815C141.674 51.8784 134.743 55.0694 128.075 58.7625C127.182 60.0123 129.34 60.1158 130.186 60.3928C134.339 61.4961 138.719 61.238 142.9 60.4569C151.416 58.2204 158.382 51.6827 162.122 43.8235C162.543 42.702 163.618 41.6163 163.433 40.3744C163.244 40.1496 163.013 40.009 162.715 40.0616Z" fill="#BBE121"/>
<path d="M103.366 30.1287C102.054 30.9727 101.898 32.8818 101.23 34.2062C99.5952 38.595 99.5266 43.4328 100.055 48.0341C100.485 50.0556 100.995 52.2205 102.178 53.9161C103.551 54.2876 103.297 52.2465 103.387 51.4229C103.59 47.0962 103.314 42.7598 103.265 38.443C103.214 37.6029 104.395 37.894 104.205 38.6609C104.867 43.9769 104.274 49.5153 104.658 54.8645C105.71 55.8194 106.261 53.6875 106.768 52.9299C109.666 47.0875 110.009 39.738 106.77 33.9664C105.809 32.6527 105.066 30.9251 103.591 30.1303L103.382 30.1273L103.366 30.1287Z" fill="#ABC837"/>
<path d="M18.302 48.5165C18.4826 48.3128 18.7469 48.1376 19.1135 48.2715C19.1902 48.3002 19.228 48.3458 19.2856 48.3833C19.758 47.9583 20.7004 48.3743 20.7004 48.3743C24.2333 50.4043 27.9015 52.3673 31.1533 55.0376C34.4534 57.7055 37.2174 61.5647 37.3954 65.957C37.3954 65.957 37.3218 66.3638 37.0649 66.6219C40.6738 69.2742 44.4965 71.6591 48.5047 73.7447C46.7952 70.7375 45.2159 67.6013 43.9125 64.3628C43.4441 64.738 42.8225 64.444 42.8225 64.444C39.339 61.6441 36.6999 57.6955 35.8598 53.251C35.1122 49.1301 36.6962 44.7747 39.911 42.1373C39.911 42.1373 41.026 41.2919 41.5118 42.0805C41.5416 42.1193 41.5173 42.1616 41.5336 42.2013C41.5931 42.1769 41.6557 42.178 41.725 42.1773C41.7672 42.0997 41.7752 42.0176 41.8511 41.9452C42.3593 41.4062 43.0337 41.8263 43.0337 41.8263C48.7137 47.2934 49.8693 56.458 45.6528 63.0892C45.6528 63.0892 45.5072 63.2268 45.4265 63.3193C46.8875 66.9888 48.7218 70.5667 50.6964 73.9889C50.6964 73.9889 50.8718 74.4574 50.82 74.8728C54.8358 76.8336 58.9777 78.5714 63.1976 80.0525C66.1389 81.0793 69.0724 82.1925 71.9733 83.3927C68.9064 80.2946 66.2086 76.7902 64.0462 72.9959C63.6625 73.207 63.1708 73.0734 63.1708 73.0734C58.9808 71.0206 55.8602 66.9896 55.2054 62.3211C54.637 57.9172 55.467 53.5644 56.4249 49.3889C56.4249 49.3889 56.7607 48.0541 57.6044 48.2478C57.7238 48.2757 57.7844 48.3667 57.8598 48.4451C58.2517 48.3531 58.6358 48.543 58.6358 48.543C65.2103 53.9175 67.8944 63.2255 65.0845 71.2191C67.7009 76.04 71.2348 80.4558 75.2878 84.1465C75.2878 84.1465 75.6505 84.5901 75.731 85.0331C84.2106 88.8723 92.2083 93.697 98.7043 100.347C98.7043 100.347 100.734 102.676 100.026 103.083C99.4232 103.428 97.4399 101.577 97.4399 101.577C89.5404 93.4434 79.1862 88.0815 68.3868 83.8808C68.0413 83.9751 67.7052 83.9697 67.7052 83.9697C63.1723 83.1713 58.5469 83.4277 54.0665 84.4876C54.0662 84.4889 54.062 84.5217 54.062 84.5217C51.1312 92.2448 42.5592 97.5346 34.4673 95.7743C34.4673 95.7743 34.1449 95.6204 33.9636 95.3351C33.7715 95.3571 33.5923 95.3279 33.4554 95.1945C33.2209 94.9646 33.3218 94.6023 33.4962 94.2506C33.0354 93.8426 33.3207 92.8159 33.3207 92.8159C36.3892 84.6403 45.3689 78.8308 53.5188 81.9647C53.5188 81.9647 53.9885 82.2343 54.0607 82.6548C56.8839 82.0242 59.7686 81.7197 62.6591 81.7581C62.6399 81.7509 62.6238 81.74 62.6031 81.7346C56.8303 79.7152 51.1851 77.2374 45.8181 74.2892C45.4422 74.3469 45.0734 74.2911 45.0734 74.2911C40.8467 72.8583 36.4238 72.2409 31.942 72.2142C29.7058 76.3019 25.6363 79.2643 21.2388 80.6433C16.4205 82.1629 10.8208 80.3601 8.23322 76.0401C8.23322 76.0401 7.92581 75.2199 8.43407 74.8676C8.39895 74.8349 8.36454 74.8159 8.33248 74.7724C7.88046 74.1441 8.89146 73.2417 8.89146 73.2417C12.1677 70.7101 15.2866 67.6507 19.3129 65.8293C23.881 63.9121 28.9969 65.6871 32.3481 69.1171C32.3481 69.1171 32.9406 69.943 32.3272 70.4072C32.3185 70.4124 32.3072 70.4152 32.2874 70.4234C32.2896 70.4282 32.2931 70.4316 32.2988 70.4397C35.177 70.4831 38.0362 70.7851 40.8525 71.358C38.7159 70.0036 36.624 68.5827 34.6226 67.0435C34.2332 67.1924 33.8055 67.2188 33.8055 67.2188C29.4014 66.959 25.1257 65.042 21.993 61.9336C18.6311 58.5859 17.0616 53.5975 18.0332 48.9549C18.0332 48.9549 18.1236 48.721 18.302 48.5165ZM19.5828 50.5609C19.2161 54.2142 20.6079 58.0634 23.2444 60.6698C25.7197 63.126 29.0284 64.7645 32.4794 65.2848C30.3519 63.5185 28.2835 61.6767 26.3615 59.6737C26.3615 59.6737 25.5785 58.8206 24.9024 57.9015C24.62 57.9555 24.4234 57.8322 24.4234 57.8322C22.3541 55.59 21.0882 52.9096 19.5828 50.5609ZM22.1279 51.2682C23.2652 53.2103 24.3005 55.1272 25.7176 56.6274C25.7176 56.6274 25.7286 56.6878 25.7431 56.7005C26.6847 57.4834 27.6409 58.4444 27.6409 58.4444C30.1031 61.0202 32.7728 63.3801 35.5928 65.5556C35.3328 62.0731 32.8918 58.8287 30.0201 56.4098C27.6337 54.4305 24.8984 52.8508 22.1279 51.2682ZM10.8771 73.9321C17.3648 71.8828 24.1941 70.5444 30.9766 70.476C31.0148 70.433 31.0468 70.4099 31.0887 70.3765C31.088 70.3761 31.0712 70.3676 31.0712 70.3676C28.1167 67.3689 23.6638 65.7167 20.0314 67.4525C16.7088 68.907 13.9122 71.5076 10.8771 73.9321ZM10.2987 75.952C12.5488 78.9307 16.9827 80.1525 20.6941 78.9494C24.3533 77.7573 27.7921 75.4191 29.8529 72.2767C23.3424 72.502 16.749 73.8834 10.465 75.9194C10.465 75.9194 10.3268 75.946 10.2987 75.952ZM40.0731 44.4019C38.01 46.6364 37.0305 49.9107 37.6077 52.9279C38.2657 56.5356 40.3761 59.8048 43.1481 62.3149C40.9973 56.3418 39.8517 50.0969 40.6902 43.8225C40.4779 44.0076 40.2663 44.195 40.0731 44.4019ZM42.4425 43.8255C42.4372 43.8462 42.4451 43.9727 42.4451 43.9727C41.6134 49.7326 42.6587 55.5547 44.6554 61.204C47.6483 55.7246 46.7108 48.4404 42.4425 43.8255ZM58.0244 50.4123C57.152 54.3449 56.4315 58.2742 56.9612 62.0872C57.4195 65.7132 59.7367 68.9635 62.8789 70.883C60.2951 65.7278 58.722 60.1342 58.6682 54.3854C58.6682 54.3854 58.692 52.4973 59.5924 52.5421C60.3472 52.5796 60.437 54.3702 60.437 54.3702C60.4634 59.3484 61.7667 64.2315 63.893 68.8159C65.475 62.2328 63.1627 54.906 58.0244 50.4123ZM37.9693 88.3738C37.0224 89.5034 36.2021 90.7532 35.561 92.085C40.3003 88.0273 45.88 84.9141 51.8389 83.2189C46.9177 81.6936 41.5215 84.1571 37.9693 88.3738ZM35.7843 94.2191C42.1686 95.1972 49.0028 91.0563 51.8761 85.0985C45.9658 86.872 40.4037 90.0394 35.7843 94.2191Z" fill="#89A02C"/>
<path d="M19.4473 51.0722C20.5036 50.457 20.9012 52.2341 21.4384 52.822C23.8152 57.479 28.187 60.5172 31.7898 64.173C33.5578 65.2992 31.6273 66.1216 30.4389 65.2142C26.1964 64.0486 22.2327 61.1621 20.3333 57.1327C19.609 55.2886 18.9519 53.1927 19.3445 51.2116L19.4221 51.0995L19.4473 51.0722Z" fill="#ABCD36"/>
<path d="M11.8615 72.6852C14.8827 70.2142 17.9802 67.3811 21.8935 66.4856C25.3495 66.0054 28.9792 67.6081 31.2915 70.117C31.1024 71.4509 28.8106 70.6826 27.7448 71.0641C22.483 71.4089 17.3234 72.496 12.2567 73.8493C11.5561 73.9059 11.354 73.1017 11.8615 72.6852Z" fill="#AAC031"/>
<path d="M22.4946 51.5023C23.4947 51.1335 24.3899 52.3041 25.2915 52.6256C28.5131 54.6903 31.6368 57.0953 33.977 60.149C34.7638 61.6683 35.9239 63.2955 35.7857 65.0647C35.0789 65.9385 34.0715 64.7046 33.4181 64.3113C30.2917 61.4998 27.0233 58.7722 24.332 55.5314C23.6496 54.3078 22.3891 53.1331 22.3597 51.6867C22.3903 51.6168 22.438 51.5533 22.4946 51.5023Z" fill="#C3DD48"/>
<path d="M39.6544 44.223C40.108 43.4547 41.249 43.8914 40.984 44.7814C40.4744 50.3264 41.5611 55.9155 43.1202 61.1901C43.2327 62.2238 41.9209 62.0004 41.5972 61.3136C38.4201 57.8959 36.258 52.9734 37.4966 48.2872C37.9975 46.8425 38.6705 45.4039 39.6544 44.223Z" fill="#C2D920"/>
<path d="M42.2897 44.0132C43.3508 43.4244 43.8422 45.1401 44.3481 45.767C47.1385 50.1631 47.5476 56.0249 45.3041 60.7295C44.8406 61.7499 43.8264 60.7877 43.8106 60.0305C42.3625 54.9408 41.2162 49.5213 42.1432 44.2378C42.1794 44.1557 42.2257 44.077 42.2897 44.0132Z" fill="#A8CD51"/>
<path d="M10.5897 75.7043C13.1193 74.3633 16.0751 74.0174 18.8357 73.3407C22.3398 72.7434 25.8796 71.8236 29.4485 71.9834C30.6463 72.4643 29.3843 73.7265 28.855 74.2242C25.2828 77.8876 19.9184 80.8391 14.6918 79.2985C13.109 78.7058 11.2722 78 10.3246 76.5401C10.2311 76.2381 10.3555 75.9063 10.5897 75.7043Z" fill="#C9D68B"/>
<path d="M38.3259 87.4599C41.4593 83.9917 46.29 81.7244 51.0003 82.6072C51.9019 82.8196 51.4734 83.9458 50.67 83.9368C45.6942 85.7926 40.9908 88.2925 36.7796 91.5389C36.0161 92.1798 35.3445 91.0348 35.993 90.4479C36.6651 89.3758 37.4844 88.4016 38.3259 87.4599Z" fill="#BAC86F"/>
<path d="M36.5608 93.0337C40.8937 89.3851 45.9735 86.6689 51.3281 84.8684C52.5492 84.9639 51.7172 86.4203 51.2794 86.9807C49.0449 89.9665 46.2298 92.694 42.5874 93.823C40.3802 94.5565 37.9091 95.0706 35.6429 94.4788C35.2615 93.7855 36.2003 93.4581 36.5608 93.0337Z" fill="#788B36"/>
<path d="M58.2274 50.2676C58.82 50.9756 60.4325 51.5062 60.1708 52.6362C59.7414 52.9972 59.0829 53.1737 59.1761 53.9123C59.0418 59.5419 60.6203 65.1122 62.9702 70.1913C62.7562 71.7458 61.2874 70.0034 60.6286 69.5333C56.9296 66.584 56.0592 61.5142 56.5316 57.0524C56.7889 54.7929 57.0012 52.4147 57.8177 50.3136L58.0428 50.2885L58.2274 50.2676Z" fill="#D0DF6C"/>
<path d="M60.5046 52.8604C63.0102 55.0622 63.9413 58.6018 64.4932 61.8056C64.7722 63.9985 64.8964 66.3066 64.2989 68.4506C63.3489 69.2822 62.9334 67.5541 62.6496 66.923C60.9805 62.5574 59.8849 57.8431 60.0489 53.1754C60.0368 52.902 60.3527 52.9654 60.5046 52.8604Z" fill="#92A237"/>
<path d="M89.3052 60.1546C88.3676 60.1876 87.4179 60.3442 86.4584 60.6384C79.3038 63.2796 76.4325 71.8182 78.2883 79.0399C78.2883 79.0399 78.3213 79.128 78.3323 79.128C78.2993 79.125 78.1329 79.095 78.1329 79.095C70.8489 79.0509 62.7793 82.1148 60.6025 89.258C58.9951 96.9495 67.4719 101.65 74.9787 102.872C71.6532 108.936 73.5412 117.243 79.8694 120.59C86.7658 123.908 95.3082 120.129 98.1458 113.2C98.1458 113.2 98.1504 113.133 98.1517 113.133C98.2509 113.177 98.4755 113.304 98.4755 113.304C105.03 115.427 112.848 116.071 118.346 111.55C120.535 109.618 121.308 106.504 120.407 103.768C119.023 99.8266 115.943 96.9425 112.789 94.5722C112.822 94.5392 112.983 94.4468 112.983 94.4468C115.128 92.6574 118.249 91.2864 119.918 88.2124C122.403 83.245 121.53 76.7361 117.185 73.1016C113.269 70.0015 107.774 69.7326 103.315 71.7691C101.363 65.385 95.7155 59.9132 89.3052 60.1546ZM89.4044 62.0563L89.3986 62.0674C94.7163 61.7137 99.8139 66.9876 101.486 72.7711C101.486 72.7711 101.911 73.7418 102.522 73.8871C102.621 73.9091 102.71 73.9643 102.818 73.9422C102.828 73.9395 102.829 73.9314 102.84 73.9204C103.272 73.9424 103.683 73.8319 103.683 73.8319C107.57 71.8664 112.631 71.9749 115.89 74.6913C119.464 77.4745 120.15 83.1478 118.076 87.2971C117.054 89.6056 114.106 90.7603 111.648 92.8823C111.648 92.8823 110.02 94.421 110.897 95.12C110.985 95.6587 111.449 96.1502 111.449 96.1502C114.5 98.4922 117.387 101.07 118.458 104.423C119.129 106.353 118.557 108.73 117.006 109.997C112.543 113.995 105.38 113.201 99.0938 111.301C99.0938 111.301 97.1519 110.734 96.8221 111.637C96.8 111.692 96.8124 111.755 96.8111 111.813C96.485 112.095 96.2646 112.457 96.2646 112.457C93.9727 118.311 86.3651 121.724 80.7838 118.765C75.4059 116.225 73.797 108.651 76.8266 103.603C76.8266 103.603 77.8634 101.956 77.2133 101.377C77.0436 101.226 76.8498 101.213 76.6493 101.257C76.3077 101.024 75.9486 100.892 75.9486 100.892C68.8959 99.5747 60.4275 95.6864 62.5686 89.8068C63.9941 83.8565 71.4087 81.3113 78.1349 81.2096C78.1349 81.2096 78.9182 81.1653 79.5639 80.9416C79.7006 80.9857 79.8439 80.9967 79.997 80.9359C80.2196 80.8478 80.3154 80.578 80.3672 80.2695C80.3686 80.259 80.378 80.2472 80.3781 80.2362C80.3789 80.2258 80.3721 80.2143 80.3724 80.2032C80.4716 79.486 80.2843 78.5238 80.2843 78.5238C78.6908 72.1595 81.114 64.4352 87.1166 62.5647C87.8757 62.2694 88.6448 62.107 89.4044 62.0563ZM92.5756 69.0251C87.4931 68.5216 82.1858 71.1821 80.7557 76.239C80.7557 76.239 80.7117 77.0115 81.5931 77.1217C82.4128 77.2208 82.6916 76.7225 82.6916 76.7225C83.7954 71.4382 91.5965 69.377 96.3732 72.3444C96.3732 72.3444 97.1411 72.8038 97.7284 72.0425C98.3079 71.2911 97.432 70.6135 97.432 70.6135C95.9398 69.7144 94.2698 69.193 92.5756 69.0251ZM101.218 74.2748C101.218 74.2748 100.576 74.2087 100.33 75.0383C100.096 75.8316 100.478 76.1711 100.478 76.1711C104.903 77.8625 107.902 82.9544 107.162 87.6041C107.162 87.6041 107.063 88.3478 108.011 88.5715C108.919 88.7852 109.172 87.9047 109.172 87.9047C109.988 82.2214 106.563 76.3986 101.218 74.2748ZM96.6011 74.3948C88.3224 74.6295 81.2103 80.9967 79.5601 89.1357C79.5601 89.1357 79.5516 90.0434 80.4195 90.1316C81.2403 90.2087 81.5581 89.5277 81.5581 89.5277C82.9335 82.3022 89.3918 76.4761 96.6405 76.4098C96.6405 76.4098 97.7929 76.3875 97.859 75.4301C97.9141 74.4825 96.6011 74.3948 96.6011 74.3948ZM108.011 75.1298C108.011 75.1298 107.423 75.01 107.1 75.8187C106.792 76.5878 107.094 76.9347 107.094 76.9347C110.856 78.7381 112.356 83.9541 111.268 88.2305C111.268 88.2305 111.115 88.9172 112.042 89.2268C112.92 89.5198 113.255 88.7483 113.255 88.7483C114.603 83.6522 112.745 77.6584 108.011 75.1298ZM94.13 77.0144C94.13 77.0144 93.2388 77.1565 93.3049 78.0335C93.371 78.8499 94.0397 79.058 94.0397 79.058C97.5799 79.2178 101.094 81.4106 102.125 84.6947C103.17 87.7788 102.759 91.3799 101.129 94.2202C101.129 94.2202 100.595 95.1708 101.373 95.7289C102.146 96.282 102.905 95.2397 102.905 95.2397C104.835 91.8861 105.296 87.7264 104.061 84.0404C102.578 79.8677 98.4477 77.2116 94.13 77.0144ZM93.3951 81.4497C91.9505 81.5609 90.5214 82.0028 89.2672 82.7536C86.0914 84.6362 83.675 87.8292 82.9303 91.493C82.2946 95.6927 85.8227 99.271 89.8423 99.726C93.9405 100.234 98.3925 97.7956 99.2596 93.5541C99.8832 91.2191 100.168 87.7041 97.5001 85.8281C95.4006 84.9059 93.2676 85.7948 91.949 86.9838C90.469 88.0205 89.0542 89.6874 88.9143 91.8689C89.0895 93.0187 89.68 93.8555 90.4573 94.4196C90.4573 94.4196 91.2593 94.986 92.2563 95.0631C93.2644 95.1403 94.0829 94.7787 94.0841 94.3006C94.0862 93.5547 91.4764 92.735 91.4764 92.735C90.9993 92.5389 90.7548 92.2798 90.9586 91.9096C90.8815 90.7489 92.0283 89.6054 93.1961 88.6017C94.4155 87.8327 95.8048 87.0033 96.5154 87.6223C98.0305 88.0409 97.3992 90.8467 97.2383 93.2189C96.9089 96.1581 93.2139 98.0359 90.0814 97.6999C87.1373 97.3418 84.1952 94.573 84.9345 91.8978C85.5283 88.8678 87.6267 86.1259 90.3149 84.5134C92.2684 83.3555 94.8445 83.0949 96.817 83.9782C96.817 83.9782 98.5172 84.6907 98.8951 84.1486C99.4956 83.2881 97.6312 82.1561 97.6312 82.1561C96.302 81.5644 94.8397 81.3395 93.3951 81.4497ZM74.686 82.3551C68.627 84.8434 67.7725 93.718 72.3801 98.3202C72.3801 98.3202 73.1435 99.0263 73.775 98.2066C74.3148 97.5114 73.7972 96.8798 73.7972 96.8798C70.1949 93.4121 70.8113 85.6447 75.3743 84.2233C75.3743 84.2233 75.8426 83.9148 75.5969 83.1073C75.3468 82.2876 74.686 82.3551 74.686 82.3551ZM77.6467 84.496C77.1245 84.6381 76.7476 85.2242 76.7476 85.2242C74.2259 91.089 75.3259 98.2838 79.6228 103.056C83.7403 107.543 90.4716 109.102 96.14 107.059C96.14 107.059 97.9756 106.321 97.4666 105.362C97.0777 104.631 95.4453 105.152 95.4453 105.152C90.5938 106.928 84.6005 105.55 81.1374 101.685C77.3875 97.5913 76.4085 91.1215 78.6208 86.0329C78.6208 86.0329 78.9557 84.8762 78.2054 84.5413C78.0071 84.4532 77.8208 84.4519 77.6467 84.496ZM107.1 90.9184C106.246 90.633 105.71 91.7953 105.71 91.7953C104.425 95.4025 102.901 98.9265 100.068 100.985C97.1273 103.321 92.7727 103.09 88.7776 102.112C88.7776 102.112 87.905 102.068 87.7133 102.892C87.5216 103.711 88.2652 104.111 88.2652 104.111C92.5457 105.251 97.4817 105.364 101.298 102.619C104.616 100.052 106.377 96.2124 107.658 92.4785C107.658 92.4785 108.047 91.2357 107.1 90.9184ZM109.309 95.8603C108.427 95.9705 108.375 96.8112 108.375 96.8112C108.617 101.988 104.125 106.925 98.9185 107.19C98.9185 107.19 98.35 107.383 98.383 108.227C98.4161 109.075 99.0496 109.218 99.0496 109.218C105.401 108.724 110.522 103.085 110.391 96.7433C110.391 96.7433 110.324 95.7336 109.309 95.8603ZM78.2104 104.065C77.3576 104.142 77.254 104.868 77.254 104.868C77.7443 108.619 80.3821 112.036 84.2001 112.902C87.5749 113.569 91.1163 112.734 93.942 110.858C93.942 110.858 94.8465 110.2 94.2152 109.394C93.6709 108.7 92.8089 109.144 92.8089 109.144C90.3955 110.73 87.3676 111.471 84.6044 110.898C81.7719 110.42 79.68 107.586 79.2867 104.606C79.2867 104.606 79.0445 103.988 78.2104 104.065Z" fill="#FF8080"/>
<path d="M89.7205 61.6459C84.8735 61.7549 80.9894 65.7991 79.9226 70.3388C78.7833 73.6156 79.856 77.1676 79.7187 80.4367C74.5563 81.0312 68.7482 81.4453 64.8103 85.3118C62.2358 87.7554 60.5678 92.3119 63.2273 95.2852C66.7479 99.1791 72.2068 100.385 76.9579 101.784C76.2044 104.123 74.8595 106.362 74.9183 108.921C74.5711 114.073 78.2304 119.422 83.5136 120.118C88.9553 121.002 94.5205 117.618 96.7101 112.649C97.0795 111.54 98.1115 111.36 99.0608 111.808C104.622 113.276 111.159 114.526 116.272 111.092C118.787 109.633 119.934 106.326 118.591 103.69C117.144 100.225 114.026 97.9086 111.533 95.301C110.532 93.8843 112.575 92.9286 113.415 92.1403C115.831 90.3813 118.669 88.5561 119.237 85.3698C120.822 80.3603 118.175 74.2278 113.012 72.631C110.025 71.8766 106.788 71.9976 103.953 73.1724C103.218 73.5143 102.284 73.6524 102.041 72.6137C100.342 68.23 97.4624 63.8617 92.8577 62.1811C91.8545 61.8211 90.7881 61.622 89.7205 61.6459ZM91.1633 69.474C93.3118 69.5968 95.9043 69.7749 97.4501 71.443C97.3309 72.4032 95.8615 71.4956 95.3145 71.3801C92.1599 69.9829 88.2868 70.5022 85.3819 72.2719C83.7437 73.2302 82.8715 74.9743 82.0139 76.5503C81.4278 76.7412 80.9732 76.4217 81.3999 75.8268C82.8147 71.8072 87.0574 69.5092 91.1633 69.474ZM101.083 74.7945C106.136 76.7812 109.533 82.5571 108.6 87.9508C107.797 88.3432 107.325 87.5866 107.701 86.9035C108.049 82.5904 105.286 78.3553 101.649 76.2103C101.162 75.9185 100.274 75.3244 101.083 74.7945ZM96.5238 74.9141C97.4622 74.652 97.5192 76.1179 96.5414 75.9576C89.9505 76.0614 83.8365 81.034 81.7365 87.2542C81.3263 87.8587 81.361 90.0588 80.1836 89.4743C80.3396 86.6261 81.8885 83.9801 83.5597 81.7248C86.6547 77.7891 91.437 74.957 96.5238 74.9141ZM107.952 75.7284C110.162 76.6122 111.387 78.99 112.372 81.0347C113.374 83.42 113.276 86.1925 112.725 88.6619C111.876 89.1816 111.666 88.02 111.85 87.3999C112.292 84.0365 111.652 80.3547 109.125 77.9107C108.653 77.3593 106.94 76.6039 107.789 75.7441C107.84 75.7237 107.897 75.7226 107.952 75.7284ZM95.7532 77.7007C100.01 78.5079 103.674 82.0169 104.095 86.416C104.366 89.3967 104.142 92.7244 102.225 95.1506C101.594 95.6766 101.23 94.8196 101.667 94.3194C102.727 92.217 103.183 89.8993 102.976 87.5481C103.264 82.9819 99.2058 79.2625 94.8994 78.6621C94.1189 78.6959 93.2957 77.9551 94.121 77.3525C94.6004 77.3496 95.2303 77.6058 95.7532 77.7007ZM94.2709 81.9175C95.8088 81.9321 97.7527 82.3309 98.4988 83.7827C96.6349 83.6696 94.7837 82.7156 92.8556 83.186C88.7668 83.9891 85.5911 87.6785 84.541 91.5916C83.687 95.1245 87.2608 98.1042 90.5696 98.1083C93.949 98.3622 97.6147 96.0067 97.7805 92.4008C97.9111 90.637 98.3936 87.9483 96.3948 87.0587C94.3068 86.8071 92.4812 88.5005 91.2252 89.9887C90.3838 90.918 90.1146 92.7371 91.5624 93.2264C92.141 93.5205 93.3156 93.8126 93.4134 94.4034C90.9994 95.2627 88.3867 92.333 89.8492 90.1006C91.1639 87.4777 94.4933 85.0293 97.4531 86.4343C99.7164 88.2382 99.22 91.6487 98.5372 94.1169C97.5152 97.7756 93.4493 99.6777 89.9438 99.1732C86.5354 98.867 83.0036 95.8546 83.4754 92.19C83.6037 88.939 85.7736 86.0537 88.2454 84.0556C89.97 82.7513 92.0902 81.9063 94.2709 81.9175ZM74.9717 82.9653C75.6853 84.0939 73.6508 84.3304 73.1864 85.0985C69.9612 88.4045 70.6357 93.9943 73.435 97.3534C73.8558 97.8666 72.7953 98.5799 72.5612 97.7462C68.9067 93.9609 68.9759 86.8122 73.3914 83.6324C73.8721 83.3333 74.3898 82.985 74.9717 82.9653ZM78.032 85.0308C78.3719 86.0267 77.5418 87.29 77.4158 88.3584C75.7054 95.0633 79.281 102.763 85.7991 105.343C88.8822 106.618 92.5857 106.787 95.6282 105.437C95.6797 103.946 93.4643 104.669 92.483 104.352C91.1092 104.078 89.3165 104.277 88.2295 103.309C87.8418 102.334 89.4316 102.79 89.8979 102.813C94.015 103.716 99.0561 103.374 101.876 99.8126C104.072 97.4788 104.984 94.3443 106.499 91.6114C107.048 90.7689 107.225 92.2712 107.012 92.6083C105.868 96.4217 103.87 100.311 100.443 102.541C99.2243 103.399 97.7219 103.717 96.4233 104.366C95.7558 105.047 96.8885 105.383 97.019 105.788C95.1156 107.556 92.2355 107.302 89.8198 107.445C85.952 107.076 82.1906 105.289 79.6557 102.401C75.9572 97.7612 74.7433 91.0844 77.1454 85.5879C77.2894 85.2092 77.6179 84.9668 78.032 85.0308ZM109.532 96.3239C110.445 97.5391 109.517 99.2323 109.277 100.553C107.854 104.859 103.756 108.364 99.1907 108.661C98.5981 108.295 99.1936 107.391 99.8444 107.55C104.875 106.627 108.785 101.957 108.94 96.8662C108.923 96.4256 109.145 96.3523 109.532 96.3239ZM78.1555 104.551C79.2967 104.609 78.9448 106.36 79.549 107.055C80.9089 110.792 85.4147 112.27 89.024 111.217C90.6551 110.973 92.0583 109.808 93.6222 109.541C94.4384 110.393 92.8037 110.958 92.244 111.302C88.555 112.987 83.5666 113.462 80.495 110.321C79.0243 108.837 77.6962 106.715 77.9307 104.584C77.9998 104.55 78.0803 104.552 78.1555 104.551Z" fill="#FFAAAA"/>
<path d="M127.698 87.0221C127.039 86.6602 126.322 86.3782 125.542 86.1868C119.541 85.0671 114.064 89.7584 112.377 95.4838C112.377 95.4838 112.364 95.5579 112.371 95.5624C112.35 95.5468 112.248 95.458 112.248 95.458C107.259 92.4394 100.455 91.2348 96.0281 95.2519C91.7677 99.8795 95.6662 106.588 100.325 110.507C95.5511 113.312 93.4409 119.797 96.4178 124.693C99.797 129.803 107.219 130.71 112.012 127.111C112.012 127.111 112.043 127.068 112.044 127.068C112.094 127.139 112.196 127.318 112.196 127.318C115.831 131.466 120.94 135.116 126.574 134.265C128.872 133.834 130.68 132.011 131.184 129.761C131.849 126.484 130.916 123.238 129.72 120.315C129.756 120.305 129.905 120.308 129.905 120.308C132.113 119.958 134.821 120.296 137.229 118.868C140.975 116.472 143.046 111.64 141.55 107.359C140.13 103.622 136.463 101.183 132.563 100.753C133.84 95.564 132.203 89.4861 127.698 87.0221ZM126.986 88.37L126.977 88.3753C130.777 90.3138 132.118 96.0302 130.895 100.692C130.895 100.692 130.789 101.533 131.149 101.884C131.208 101.94 131.246 102.014 131.33 102.043C131.338 102.045 131.342 102.04 131.354 102.037C131.642 102.23 131.969 102.322 131.969 102.322C135.447 102.566 138.882 104.717 140.008 107.921C141.322 111.3 139.467 115.482 136.339 117.483C134.689 118.65 132.189 118.235 129.629 118.685C129.629 118.685 127.879 119.075 128.195 119.915C128.034 120.321 128.151 120.849 128.151 120.849C129.288 123.711 130.215 126.667 129.575 129.411C129.245 131.013 127.877 132.412 126.29 132.647C121.583 133.565 116.984 130.08 113.443 126.195C113.443 126.195 112.341 125.009 111.744 125.494C111.706 125.523 111.689 125.571 111.664 125.61C111.324 125.671 111.024 125.829 111.024 125.829C107.047 128.912 100.417 128.138 97.795 123.814C95.1403 119.862 97.1415 113.996 101.295 111.768C101.295 111.768 102.683 111.062 102.474 110.397C102.419 110.224 102.292 110.135 102.136 110.083C101.996 109.783 101.804 109.545 101.804 109.545C97.4963 105.746 93.2705 99.5989 97.1544 96.4357C100.575 92.9304 106.716 94.2228 111.381 96.9123C111.381 96.9123 111.938 97.2032 112.474 97.3144C112.549 97.4007 112.643 97.4671 112.774 97.4881C112.963 97.5188 113.139 97.3727 113.302 97.1819C113.307 97.1753 113.318 97.171 113.323 97.1635C113.327 97.1567 113.328 97.1459 113.332 97.1385C113.695 96.6862 113.961 95.9479 113.961 95.9479C115.476 90.9195 120.311 86.6041 125.204 87.7809C125.847 87.8894 126.443 88.0933 126.986 88.37ZM126.306 94.4613C123.019 92.03 118.28 91.6815 115.222 94.5708C115.222 94.5708 114.875 95.0837 115.436 95.5211C115.958 95.9255 116.354 95.6974 116.354 95.6974C119.281 92.5179 125.489 94.3015 127.555 98.3009C127.555 98.3009 127.894 98.9317 128.61 98.6493C129.317 98.3705 128.993 97.5454 128.993 97.5454C128.336 96.3153 127.402 95.2717 126.306 94.4613ZM130.094 101.616C130.094 101.616 129.679 101.307 129.17 101.776C128.683 102.225 128.807 102.615 128.807 102.615C131.154 105.593 131.127 110.324 128.711 113.216C128.711 113.216 128.338 113.687 128.897 114.229C129.434 114.749 129.969 114.248 129.969 114.248C132.861 110.675 132.896 105.268 130.094 101.616ZM126.871 99.8038C121.084 96.5687 113.583 98.0277 109.109 102.945C109.109 102.945 108.731 103.566 109.292 103.982C109.824 104.372 110.322 104.034 110.322 104.034C114.232 99.6319 121.061 98.2767 126.071 101.205C126.071 101.205 126.872 101.662 127.31 101.031C127.737 100.403 126.871 99.8038 126.871 99.8038ZM134.412 104.99C134.412 104.99 134.057 104.666 133.503 105.09C132.976 105.492 133.041 105.854 133.041 105.854C134.887 108.637 133.778 112.838 131.276 115.331C131.276 115.331 130.89 115.741 131.399 116.334C131.883 116.895 132.429 116.502 132.429 116.502C135.447 113.552 136.628 108.67 134.412 104.99ZM124.097 100.591C124.097 100.591 123.426 100.323 123.112 100.953C122.822 101.541 123.197 101.958 123.197 101.958C125.565 103.521 127.081 106.47 126.442 109.15C125.895 111.699 124.135 114.005 121.849 115.289C121.849 115.289 121.093 115.723 121.398 116.426C121.702 117.123 122.652 116.718 122.652 116.718C125.355 115.205 127.378 112.535 128.041 109.494C128.733 106.018 126.984 102.498 124.097 100.591ZM121.773 103.338C120.734 102.822 119.57 102.539 118.4 102.541C115.445 102.532 112.474 103.735 110.459 105.948C108.299 108.574 109.256 112.481 111.832 114.443C114.441 116.474 118.502 116.624 120.838 114.064C122.224 112.715 123.862 110.416 122.798 108.032C121.733 106.536 119.902 106.272 118.508 106.549C117.065 106.654 115.409 107.219 114.418 108.662C114.067 109.524 114.129 110.341 114.432 111.048C114.432 111.048 114.751 111.766 115.405 112.228C116.066 112.695 116.777 112.782 116.974 112.454C117.281 111.942 115.824 110.308 115.824 110.308C115.576 109.978 115.514 109.699 115.806 109.528C116.23 108.699 117.487 108.383 118.702 108.172C119.855 108.144 121.15 108.144 121.385 108.861C122.255 109.77 120.67 111.44 119.586 113.004C118.154 114.89 114.843 114.665 112.828 113.148C110.951 111.695 110.065 108.584 111.67 107.049C113.322 105.21 115.889 104.186 118.398 104.18C120.216 104.186 122.094 105.063 123.087 106.48C123.087 106.48 123.964 107.667 124.446 107.449C125.212 107.104 124.394 105.561 124.394 105.561C123.724 104.609 122.811 103.855 121.773 103.338ZM108.541 96.2848C103.355 95.5095 99.1269 101.259 100.406 106.313C100.406 106.313 100.641 107.111 101.411 106.807C102.068 106.551 101.971 105.904 101.971 105.904C100.918 102.043 104.528 96.9563 108.247 97.8513C108.247 97.8513 108.696 97.8314 108.858 97.1755C109.023 96.5094 108.541 96.2848 108.541 96.2848ZM109.698 98.971C109.28 98.8544 108.781 99.1028 108.781 99.1028C104.641 102.1 102.446 107.496 103.441 112.54C104.431 117.313 108.418 121.146 113.153 122.068C113.153 122.068 114.718 122.313 114.761 121.445C114.794 120.783 113.458 120.471 113.458 120.471C109.394 119.702 105.84 116.296 105.045 112.218C104.147 107.866 106.128 103.017 109.737 100.427C109.737 100.427 110.441 99.7694 110.063 99.2314C109.963 99.0894 109.835 99.0121 109.698 98.971ZM127.308 115.469C126.838 114.922 125.993 115.502 125.993 115.502C123.63 117.454 121.136 119.251 118.345 119.504C115.365 119.903 112.467 117.957 110.122 115.647C110.122 115.647 109.54 115.258 109.07 115.746C108.602 116.23 108.95 116.81 108.95 116.81C111.424 119.35 114.771 121.453 118.52 121.131C121.854 120.728 124.64 118.811 127.052 116.77C127.052 116.77 127.829 116.076 127.308 115.469ZM126.799 119.772C126.148 119.486 125.768 120.043 125.768 120.043C123.81 123.7 118.696 125.251 115.009 123.298C115.009 123.298 114.539 123.197 114.215 123.791C113.891 124.387 114.267 124.745 114.267 124.745C118.836 127.012 124.669 125.236 127.181 120.823C127.181 120.823 127.549 120.102 126.799 119.772ZM102.057 112.654C101.439 112.357 101.07 112.813 101.07 112.813C99.8681 115.593 100.28 119.024 102.549 121.185C104.595 123.029 107.371 123.907 110.084 123.777C110.084 123.777 110.975 123.696 110.872 122.883C110.782 122.183 110.008 122.134 110.008 122.134C107.698 122.234 105.313 121.501 103.649 119.974C101.898 118.483 101.623 115.677 102.574 113.467C102.574 113.467 102.662 112.943 102.057 112.654Z" fill="#A02C2C"/>
<path d="M127.375 88.2204C123.999 86.3069 119.67 87.4933 117.074 90.1761C114.946 91.9611 114.226 94.8428 112.791 97.0336C108.998 95.3244 104.836 93.2262 100.543 94.2684C97.771 94.8919 94.7551 97.3397 95.3634 100.474C96.1859 104.595 99.4436 107.664 102.135 110.575C100.658 111.874 98.8147 112.861 97.8052 114.644C95.4531 118.043 95.7739 123.221 99.1201 125.867C102.498 128.707 107.711 128.664 111.255 126.147C111.964 125.536 112.747 125.836 113.216 126.533C116.437 129.824 120.417 133.364 125.34 133.102C127.668 133.131 129.813 131.328 129.971 128.965C130.398 125.99 129.205 123.118 128.561 120.303C128.455 118.919 130.251 119.1 131.152 118.903C133.534 118.685 136.234 118.594 137.931 116.637C141.076 113.844 141.772 108.542 138.878 105.327C137.135 103.583 134.86 102.338 132.429 101.982C131.784 101.916 131.085 101.628 131.344 100.814C131.975 97.1039 131.788 92.9197 129.312 89.8754C128.77 89.2163 128.119 88.642 127.375 88.2204ZM125.155 94.1933C126.582 95.1591 128.291 96.3451 128.669 98.1259C128.193 98.737 127.555 97.5103 127.227 97.2065C125.632 94.9519 122.756 93.7199 120.033 93.7446C118.514 93.7313 117.199 94.5723 115.963 95.3038C115.482 95.1946 115.3 94.7884 115.838 94.5546C118.459 92.372 122.318 92.533 125.155 94.1933ZM129.791 101.92C132.449 105.359 132.415 110.722 129.561 114.048C128.848 113.988 128.833 113.274 129.372 112.959C131.381 110.137 131.22 106.092 129.599 103.125C129.385 102.725 129.017 101.952 129.791 101.92ZM126.608 100.132C127.361 100.337 126.798 101.368 126.192 100.856C121.619 98.2238 115.376 99.1335 111.381 102.548C110.851 102.795 109.972 104.321 109.403 103.437C110.678 101.543 112.829 100.359 114.903 99.4949C118.645 98.0592 123.094 98.0745 126.608 100.132ZM134.129 105.38C135.286 106.894 135.153 109.031 134.991 110.841C134.701 112.892 133.496 114.757 132.104 116.228C131.307 116.237 131.64 115.353 132.02 115.002C133.704 112.871 134.775 110.078 134.041 107.362C133.942 106.789 133.075 105.567 134.011 105.324C134.055 105.331 134.094 105.353 134.129 105.38ZM124.935 101.731C127.53 104.032 128.609 107.947 127.094 111.144C126.057 113.304 124.538 115.5 122.225 116.381C121.576 116.484 121.677 115.745 122.182 115.581C123.773 114.57 125.038 113.164 125.86 111.463C127.932 108.443 126.668 104.221 123.954 102.042C123.404 101.745 123.142 100.898 123.956 100.822C124.287 101.017 124.615 101.451 124.935 101.731ZM122.186 104.022C123.237 104.663 124.41 105.734 124.327 107.038C123.092 106.196 122.211 104.781 120.693 104.313C117.553 103.187 113.856 104.421 111.529 106.68C109.493 108.758 110.727 112.272 113 113.632C115.219 115.193 118.705 115.078 120.298 112.667C121.111 111.509 122.546 109.858 121.537 108.427C120.205 107.397 118.255 107.812 116.782 108.32C115.822 108.614 114.891 109.754 115.685 110.684C115.962 111.123 116.65 111.806 116.474 112.252C114.463 111.853 113.869 108.767 115.79 107.832C117.77 106.569 121.063 106.252 122.521 108.432C123.336 110.6 121.596 112.741 120.114 114.158C117.911 116.253 114.335 115.893 112.133 114.108C109.915 112.499 108.724 108.979 110.551 106.654C111.973 104.472 114.649 103.379 117.167 103.019C118.888 102.83 120.692 103.119 122.186 104.022ZM108.491 96.8243C108.518 97.8928 107.023 97.2207 106.388 97.5581C102.815 98.5075 100.985 102.627 101.531 106.084C101.61 106.609 100.589 106.665 100.77 105.995C99.8106 101.894 102.791 97.0087 107.131 96.6344C107.584 96.6261 108.083 96.5991 108.491 96.8243ZM109.747 99.4996C109.572 100.324 108.483 100.851 107.958 101.534C104.032 105.441 103.33 112.201 106.752 116.648C108.349 118.789 110.825 120.425 113.47 120.745C114.117 119.742 112.298 119.33 111.754 118.709C110.922 117.957 109.608 117.359 109.258 116.247C109.391 115.418 110.297 116.384 110.608 116.591C113.067 118.901 116.673 120.733 120.073 119.443C122.539 118.739 124.452 116.959 126.615 115.702C127.338 115.348 126.843 116.453 126.559 116.597C124.208 118.749 121.239 120.603 117.968 120.73C116.778 120.82 115.615 120.422 114.456 120.335C113.718 120.53 114.359 121.225 114.282 121.557C112.249 121.992 110.373 120.635 108.654 119.743C106.147 117.902 104.294 115.131 103.737 112.106C103.098 107.399 105.003 102.311 108.909 99.5188C109.163 99.3175 109.488 99.2857 109.747 99.4996ZM126.766 120.185C126.896 121.395 125.563 122.178 124.856 122.988C122.111 125.363 117.856 126.092 114.597 124.423C114.339 123.928 115.12 123.551 115.502 123.927C119.338 125.357 123.942 123.751 126.137 120.315C126.306 120.005 126.489 120.046 126.766 120.185ZM101.824 112.968C102.584 113.476 101.624 114.535 101.754 115.261C101.156 118.387 103.646 121.252 106.559 122.009C107.781 122.51 109.223 122.285 110.408 122.743C110.619 123.664 109.264 123.382 108.738 123.388C105.511 123.034 101.887 121.313 101.064 117.894C100.662 116.27 100.62 114.267 101.655 112.899C101.717 112.904 101.771 112.938 101.824 112.968Z" fill="#FF8080"/>
<path d="M52.6264 107.682C52.1778 107.894 51.7492 108.169 51.3447 108.513C48.4221 111.296 48.8163 116.046 51.2313 119.166C51.2313 119.166 51.2658 119.202 51.2712 119.2C51.2545 119.205 51.1674 119.225 51.1674 119.225C47.6191 120.73 44.3405 123.91 44.7798 127.837C45.6107 131.911 50.7141 132.418 54.6174 131.438C54.2726 135.082 56.9307 138.722 60.7066 139.022C64.7525 139.189 68.1111 135.563 68.0377 131.602C68.0377 131.602 68.026 131.568 68.0267 131.568C68.0841 131.569 68.2198 131.583 68.2198 131.583C71.849 131.241 75.7824 129.916 77.5066 126.567C78.165 125.17 77.8878 123.494 76.877 122.354C75.3786 120.729 73.2778 119.973 71.2488 119.483C71.2579 119.46 71.3168 119.381 71.3168 119.381C71.9836 118.062 73.2129 116.742 73.3796 114.899C73.5459 111.965 71.758 108.985 68.8852 108.13C66.3331 107.444 63.6069 108.465 61.8673 110.389C59.5806 107.696 55.6903 106.221 52.6264 107.682ZM53.0731 108.585L53.0727 108.591C55.5822 107.305 59.164 108.799 61.1885 111.259C61.1885 111.259 61.5985 111.641 61.9255 111.584C61.9783 111.574 62.0332 111.582 62.0811 111.549C62.0854 111.545 62.0842 111.541 62.0872 111.534C62.3017 111.454 62.4782 111.314 62.4782 111.314C63.9546 109.545 66.4365 108.537 68.5892 109.173C70.9086 109.777 72.4311 112.389 72.2931 114.84C72.2801 116.176 71.0899 117.355 70.3404 118.901C70.3404 118.901 69.8718 119.989 70.4442 120.145C70.6 120.389 70.9283 120.53 70.9283 120.53C72.9014 121.029 74.8442 121.676 76.0672 123.081C76.7976 123.878 77.0179 125.152 76.5299 126.093C75.1996 128.971 71.5526 130.086 68.1004 130.48C68.1004 130.48 67.0382 130.612 67.067 131.12C67.0679 131.151 67.087 131.179 67.0986 131.207C66.9993 131.413 66.9679 131.635 66.9679 131.635C67.0811 134.959 64.1003 138.212 60.7685 137.944C57.6233 137.837 55.2545 134.494 55.6686 131.407C55.6686 131.407 55.8272 130.389 55.3899 130.244C55.2759 130.206 55.1789 130.24 55.0907 130.304C54.8761 130.262 54.6738 130.273 54.6738 130.273C50.9712 131.111 46.0419 130.997 45.8501 127.691C45.2957 124.502 48.3648 121.711 51.6115 120.252C51.6115 120.252 51.9828 120.067 52.2496 119.823C52.3252 119.815 52.3972 119.791 52.4588 119.729C52.5485 119.64 52.5385 119.488 52.499 119.328C52.4976 119.322 52.4996 119.315 52.4974 119.309C52.4956 119.304 52.4898 119.3 52.4877 119.294C52.3856 118.925 52.093 118.497 52.093 118.497C49.9851 115.739 49.5437 111.478 52.0681 109.311C52.3751 109.009 52.7147 108.769 53.0731 108.585ZM56.0742 111.306C53.4994 112.127 51.4783 114.531 51.8432 117.288C51.8432 117.288 51.9837 117.673 52.435 117.541C52.8541 117.418 52.8851 117.117 52.8851 117.117C52.314 114.319 55.6723 111.682 58.6149 112.123C58.6149 112.123 59.0843 112.185 59.2101 111.692C59.3342 111.206 58.7666 111.06 58.7666 111.06C57.8533 110.936 56.9326 111.033 56.0742 111.306ZM61.3736 112.046C61.3736 112.046 61.0477 112.148 61.1022 112.603C61.1544 113.037 61.4112 113.122 61.4112 113.122C63.9154 113.017 66.4396 114.862 67.0548 117.276C67.0548 117.276 67.1624 117.658 67.6696 117.568C68.1555 117.482 68.0943 117.001 68.0943 117.001C67.2994 114.069 64.4152 111.958 61.3736 112.046ZM59.1554 113.072C55.1822 114.92 53.0611 119.504 53.9649 123.805C53.9649 123.805 54.151 124.247 54.5911 124.108C55.0061 123.974 55.0178 123.576 55.0178 123.576C54.1719 119.778 56.0888 115.594 59.5967 114.042C59.5967 114.042 60.152 113.79 59.9834 113.311C59.8116 112.839 59.1554 113.072 59.1554 113.072ZM64.8529 111.038C64.8529 111.038 64.542 111.103 64.5546 111.563C64.5664 112.001 64.7857 112.107 64.7857 112.107C66.9914 112.195 68.8133 114.414 69.1805 116.72C69.1805 116.72 69.2505 117.086 69.7656 117.042C70.2537 117 70.2545 116.555 70.2545 116.555C69.8415 113.797 67.6827 111.274 64.8529 111.038ZM58.5037 114.862C58.5037 114.862 58.1004 115.118 58.3164 115.53C58.5196 115.913 58.8881 115.874 58.8881 115.874C60.6416 115.21 62.8087 115.539 63.9974 116.918C65.1517 118.198 65.7066 120.033 65.5096 121.755C65.5096 121.755 65.4497 122.329 65.9446 122.437C66.4357 122.544 66.5862 121.878 66.5862 121.878C66.8215 119.844 66.1737 117.727 64.8008 116.195C63.2059 114.478 60.6428 114.053 58.5037 114.862ZM59.0761 117.171C58.3975 117.528 57.7958 118.042 57.3437 118.67C56.1953 120.25 55.6904 122.307 56.0963 124.244C56.6675 126.417 59.1316 127.417 61.1799 126.795C63.2774 126.183 64.9295 124.066 64.462 121.823C64.2756 120.558 63.6776 118.79 61.988 118.438C60.7748 118.43 59.9247 119.309 59.5332 120.163C59.0314 120.977 58.6933 122.083 59.0825 123.172C59.4085 123.694 59.8708 123.977 60.3667 124.088C60.3667 124.088 60.875 124.195 61.3756 124.024C61.8816 123.85 62.2034 123.503 62.1038 123.27C61.9485 122.908 60.5088 123.056 60.5088 123.056C60.2359 123.061 60.0628 122.986 60.0842 122.764C59.8035 122.216 60.1211 121.42 60.4781 120.688C60.9095 120.058 61.4106 119.364 61.8856 119.516C62.7094 119.402 62.9907 120.898 63.4097 122.084C63.8655 123.581 62.4638 125.268 60.8714 125.761C59.366 126.204 57.3563 125.475 57.1549 124.02C56.8085 122.424 57.2534 120.652 58.2216 119.305C58.9281 118.333 60.125 117.667 61.2685 117.682C61.2685 117.682 62.2439 117.672 62.3139 117.33C62.4253 116.786 61.2823 116.627 61.2823 116.627C60.5125 116.618 59.7548 116.815 59.0761 117.171ZM50.1759 121.532C47.7535 124.01 49.198 128.501 52.4011 129.772C52.4011 129.772 52.92 129.955 53.055 129.424C53.1716 128.973 52.7878 128.775 52.7878 128.775C50.3109 127.845 48.9826 123.942 50.9017 122.295C50.9017 122.295 51.0646 122.047 50.776 121.706C50.4827 121.36 50.1759 121.532 50.1759 121.532ZM52.063 121.951C51.839 122.13 51.7788 122.494 51.7788 122.494C51.7825 125.871 53.8247 129.137 56.9125 130.555C59.8533 131.872 63.4505 131.219 65.7764 129.039C65.7764 129.039 66.5135 128.295 66.0653 127.936C65.7231 127.662 65.0392 128.257 65.0392 128.257C63.0542 130.137 59.8535 130.723 57.3609 129.571C54.6812 128.368 52.8498 125.43 52.8583 122.494C52.8583 122.494 52.7786 121.862 52.3439 121.856C52.2291 121.855 52.1383 121.893 52.063 121.951ZM67.7187 118.9C67.2441 118.94 67.2276 119.617 67.2276 119.617C67.3591 121.639 67.3568 123.67 66.4119 125.264C65.4727 127.015 63.3085 127.815 61.1626 128.178C61.1626 128.178 60.7294 128.339 60.809 128.78C60.8874 129.218 61.3324 129.256 61.3324 129.256C63.6511 128.913 66.073 127.934 67.352 125.8C68.4262 123.858 68.4771 121.623 68.3168 119.541C68.3168 119.541 68.2456 118.855 67.7187 118.9ZM69.8277 120.838C69.4225 121.076 69.5735 121.495 69.5735 121.495C70.7755 123.96 69.6277 127.3 67.1538 128.52C67.1538 128.52 66.918 128.733 67.111 129.136C67.3046 129.541 67.6424 129.478 67.6424 129.478C70.625 127.907 71.9312 124.094 70.5386 121.04C70.5386 121.04 70.2947 120.563 69.8277 120.838ZM56.4376 131.341C56.0395 131.557 56.1413 131.932 56.1413 131.932C57.1655 133.651 59.1631 134.759 61.1996 134.379C62.9792 133.996 64.5248 132.849 65.5045 131.345C65.5045 131.345 65.8061 130.835 65.3306 130.576C64.9207 130.353 64.5949 130.75 64.5949 130.75C63.7546 132.026 62.4387 133.02 60.9762 133.321C59.4998 133.682 57.8895 132.744 57.0741 131.379C57.0741 131.379 56.8267 131.129 56.4376 131.341Z" fill="#FF8080"/>
<path d="M53.1456 108.318C50.8135 109.387 49.7739 112.166 50.2069 114.595C50.34 116.426 51.6055 117.927 52.2239 119.544C49.8403 120.914 47.1052 122.333 46.0021 125.037C45.2634 126.763 45.4078 129.327 47.323 130.214C49.8495 131.368 52.7544 130.81 55.356 130.494C55.4802 131.789 55.2959 133.158 55.8608 134.389C56.7716 136.965 59.6705 138.797 62.3832 138.028C65.2124 137.317 67.2071 134.507 67.2297 131.634C67.1767 131.017 67.6404 130.714 68.1955 130.732C71.2053 130.28 74.6429 129.518 76.4076 126.778C77.3238 125.542 77.1882 123.695 75.9831 122.696C74.5542 121.315 72.5538 120.843 70.7959 120.099C70.013 119.62 70.8053 118.728 71.0481 118.169C71.8534 116.808 72.8496 115.326 72.4581 113.659C72.1781 110.893 69.607 108.468 66.7637 108.775C65.1546 109.034 63.6071 109.771 62.4758 110.936C62.1904 111.256 61.7657 111.519 61.43 111.065C59.686 109.291 57.3714 107.772 54.782 107.921C54.2192 107.956 53.6593 108.083 53.1456 108.318ZM55.4871 111.819C56.5566 111.429 57.8535 110.972 58.9541 111.458C59.0974 111.95 58.1933 111.817 57.9034 111.875C56.0779 111.858 54.3049 112.921 53.2644 114.39C52.6693 115.199 52.611 116.229 52.5246 117.174C52.2799 117.39 51.9921 117.33 52.0747 116.952C51.9198 114.702 53.4995 112.697 55.4871 111.819ZM61.4215 112.325C64.2928 112.232 67.1536 114.326 67.831 117.142C67.5231 117.501 67.1348 117.233 67.1743 116.822C66.4399 114.653 64.2099 113.175 61.9933 112.895C61.6957 112.855 61.1394 112.752 61.4215 112.325ZM59.2315 113.339C59.6325 113.015 59.9674 113.715 59.4587 113.842C56.2783 115.274 54.3497 118.971 54.6329 122.433C54.5603 122.813 55.0382 123.875 54.3437 123.837C53.8226 122.421 54.0207 120.811 54.36 119.365C55.039 116.804 56.7691 114.426 59.2315 113.339ZM64.9545 111.34C66.2138 111.306 67.3073 112.204 68.214 112.992C69.2009 113.94 69.7343 115.308 69.9838 116.623C69.6802 117.054 69.3348 116.533 69.2941 116.194C68.8042 114.467 67.7218 112.812 65.9821 112.154C65.6371 111.985 64.6465 111.977 64.8785 111.382C64.8994 111.361 64.9266 111.348 64.9545 111.34ZM59.4411 114.854C61.6785 114.354 64.1937 115.292 65.3205 117.341C66.0769 118.732 66.6654 120.396 66.2419 121.976C66.046 122.364 65.6896 122.024 65.7968 121.689C65.8713 120.446 65.6071 119.224 65.0137 118.125C64.1971 115.846 61.4458 114.89 59.2277 115.5C58.8555 115.68 58.3003 115.493 58.575 115.027C58.8074 114.925 59.1671 114.918 59.4411 114.854ZM59.6046 117.214C60.3548 116.898 61.3828 116.685 62.0495 117.234C61.1202 117.57 60.0209 117.494 59.1827 118.127C57.3644 119.374 56.5946 121.832 56.9044 123.953C57.2299 125.848 59.5907 126.547 61.1991 125.856C62.8942 125.271 64.1816 123.358 63.5065 121.572C63.2004 120.687 62.8714 119.28 61.7138 119.266C60.6466 119.582 60.1145 120.787 59.8161 121.773C59.6021 122.401 59.8525 123.341 60.6584 123.276C61.0012 123.297 61.6331 123.193 61.8044 123.46C60.8116 124.383 58.9283 123.507 59.171 122.116C59.2602 120.566 60.3647 118.679 62.0972 118.741C63.5748 119.144 64.0483 120.905 64.2338 122.247C64.504 124.239 62.9271 126.015 61.1182 126.504C59.398 127.07 57.0508 126.346 56.5121 124.467C55.8932 122.861 56.3428 121.004 57.125 119.515C57.6896 118.52 58.5427 117.665 59.6046 117.214ZM50.4474 121.767C51.0306 122.166 50.0917 122.707 50.027 123.178C49.1529 125.46 50.652 128.034 52.7159 129.08C53.0279 129.241 52.6622 129.81 52.3737 129.454C49.8049 128.38 48.3404 124.893 49.8194 122.422C49.9903 122.176 50.1688 121.899 50.4474 121.767ZM52.3671 122.129C52.7409 122.542 52.6024 123.33 52.7651 123.875C53.3391 127.491 56.6899 130.483 60.3974 130.371C62.1625 130.344 63.9974 129.65 65.1927 128.356C64.9053 127.621 63.9803 128.437 63.4371 128.488C62.7122 128.643 61.883 129.116 61.1519 128.873C60.7594 128.481 61.6273 128.369 61.8588 128.283C64.0483 127.858 66.4258 126.636 67.0497 124.314C67.6272 122.72 67.4136 121.006 67.5772 119.361C67.6674 118.837 68.0681 119.529 68.0354 119.738C68.2785 121.83 68.1228 124.139 66.9251 125.94C66.5128 126.613 65.8494 127.082 65.3545 127.669C65.173 128.14 65.7936 128.066 65.9419 128.235C65.3876 129.493 63.935 129.973 62.7914 130.549C60.8348 131.18 58.6328 131.1 56.7961 130.229C54.0268 128.749 52.0378 125.76 52.0531 122.586C52.0437 122.372 52.1526 122.185 52.3671 122.129ZM70.0381 121.015C70.7366 121.414 70.6404 122.431 70.8008 123.123C71.0112 125.513 69.7549 128.076 67.5991 129.176C67.2345 129.123 67.3343 128.558 67.6839 128.499C69.9344 126.997 70.8557 123.909 69.8644 121.403C69.7636 121.192 69.8563 121.11 70.0381 121.015ZM56.5176 131.587C57.0843 131.376 57.2803 132.301 57.7195 132.512C59.1633 134.043 61.6623 133.817 63.1951 132.549C63.9365 132.088 64.3741 131.228 65.0781 130.771C65.6532 131.014 64.9774 131.631 64.7775 131.915C63.3383 133.507 61.0141 134.783 58.8635 133.901C57.8379 133.488 56.7481 132.735 56.4155 131.651C56.442 131.62 56.4814 131.604 56.5176 131.587Z" fill="#FFD5D5"/>
</svg>
