<svg width="289" height="495" viewBox="0 0 289 495" fill="none" xmlns="http://www.w3.org/2000/svg">
<path d="M115.863 478.501C153.454 406.212 174.458 325.106 180.074 255.182" stroke="#916EAB" stroke-opacity="0.29" stroke-width="5.33333" stroke-linecap="round" stroke-linejoin="round"/>
<path d="M120.75 411.299C72.9052 396.767 50.2719 355.034 65.5895 309.784C99.92 309.508 134.625 337.757 129.203 396.071" stroke="#916EAB" stroke-opacity="0.29" stroke-width="5.33333" stroke-linecap="round" stroke-linejoin="round"/>
<path d="M159.069 266.59C145.582 278.488 124.854 277.791 113.342 273.015C118.968 246.92 136.218 239.394 165.709 246.23" stroke="#916EAB" stroke-opacity="0.29" stroke-width="5.33333" stroke-linecap="round" stroke-linejoin="round"/>
<path d="M202.044 274.076C209.424 284.042 221.869 294.335 239.237 292.031C242.562 273.852 229.924 249.851 205.086 251.184" stroke="#916EAB" stroke-opacity="0.29" stroke-width="5.33333" stroke-linecap="round" stroke-linejoin="round"/>
<path d="M122.939 188.457C98.5584 172.886 91.1551 118.317 135.182 113.915" stroke="#D566A3" stroke-opacity="0.29" stroke-width="5.33333" stroke-linecap="round" stroke-linejoin="round"/>
<path d="M187.004 112.855C200.54 83.4969 171.28 59.7126 160.273 61.6268C154.713 62.5937 163.293 82.6474 161.123 101.278C158.883 120.518 144.412 128.72 137.694 158.396C132.569 181.034 156.346 229.495 187.324 233.797C200.755 235.663 219.287 214.531 222.809 191.767" stroke="#D566A3" stroke-opacity="0.29" stroke-width="5.33333" stroke-linecap="round" stroke-linejoin="round"/>
<path d="M175.001 201.892C157.372 150.967 182.883 143.025 200.824 127.638C210.509 119.333 231.442 110.119 246.122 98.1711C256.649 89.6029 256.221 72.2384 265.613 77.2256C273.381 81.3508 282.978 106.973 266.906 122.41C249.595 139.036 212.704 128.502 199.86 156.242" stroke="#D566A3" stroke-opacity="0.29" stroke-width="5.33333" stroke-linecap="round" stroke-linejoin="round"/>
<path d="M229.389 227.804C253.91 214.467 274.317 189.954 259.48 151.086" stroke="#D566A3" stroke-opacity="0.29" stroke-width="5.33333" stroke-linecap="round" stroke-linejoin="round"/>
<path d="M223.618 79.1154C200.437 78.4462 198.406 65.1647 205.011 58.1529C214.768 47.7958 239.711 55.597 246.962 66.0437" stroke="#D566A3" stroke-opacity="0.29" stroke-width="5.33333" stroke-linecap="round" stroke-linejoin="round"/>
<path d="M187.229 433.849C220.026 437.858 270.373 427.037 274.646 374.182C222.696 363.189 186.024 381.647 165.268 424.684" stroke="#916EAB" stroke-opacity="0.29" stroke-width="5.33333" stroke-linecap="round" stroke-linejoin="round"/>
</svg>
